<?xml version="1.0" encoding="UTF-8" standalone="no"?><svg xmlns="http://www.w3.org/2000/svg" xmlns:xlink="http://www.w3.org/1999/xlink" contentStyleType="text/css" height="394px" preserveAspectRatio="none" style="width:1322px;height:394px;background:#FFFFFF;" version="1.1" viewBox="0 0 1322 394" width="1322px" zoomAndPan="magnify"><defs/><g><!--MD5=[7b22775f9d8ef9d6dad88ce036ba117e]
class GridRowCacheFieldNotifier--><g id="elem_GridRowCacheFieldNotifier"><rect codeLine="6" fill="#F1F1F1" height="48" id="GridRowCacheFieldNotifier" rx="2.5" ry="2.5" style="stroke:#181818;stroke-width:0.5;" width="226" x="765" y="8"/><ellipse cx="780" cy="24" fill="#B4A7E5" rx="11" ry="11" style="stroke:#181818;stroke-width:1.0;"/><path d="M776.4277,20.2651 L776.4277,18.1069 L783.8071,18.1069 L783.8071,20.2651 L781.3418,20.2651 L781.3418,28.3418 L783.8071,28.3418 L783.8071,30.5 L776.4277,30.5 L776.4277,28.3418 L778.8931,28.3418 L778.8931,20.2651 Z " fill="#000000"/><text fill="#000000" font-family="sans-serif" font-size="14" font-style="italic" font-weight="bold" lengthAdjust="spacing" textLength="194" x="794" y="29.291">GridRowCacheFieldNotifier</text><line style="stroke:#181818;stroke-width:0.5;" x1="766" x2="990" y1="40" y2="40"/><line style="stroke:#181818;stroke-width:0.5;" x1="766" x2="990" y1="48" y2="48"/></g><!--MD5=[d4a0bb39caf38270ea4e8728db64fad5]
class GridFieldCache--><g id="elem_GridFieldCache"><rect codeLine="7" fill="#B6FADC" height="48" id="GridFieldCache" rx="2.5" ry="2.5" style="stroke:#181818;stroke-width:0.5;" width="139" x="189" y="90"/><ellipse cx="204" cy="106" fill="#ADD1B2" rx="11" ry="11" style="stroke:#181818;stroke-width:1.0;"/><path d="M206.4731,112.1431 Q205.8921,112.4419 205.2529,112.5913 Q204.6138,112.7407 203.9082,112.7407 Q201.4014,112.7407 200.0815,111.0889 Q198.7617,109.437 198.7617,106.3159 Q198.7617,103.1865 200.0815,101.5347 Q201.4014,99.8828 203.9082,99.8828 Q204.6138,99.8828 205.2612,100.0322 Q205.9087,100.1816 206.4731,100.4805 L206.4731,103.2031 Q205.8423,102.6221 205.2488,102.3523 Q204.6553,102.0825 204.0244,102.0825 Q202.6797,102.0825 201.9949,103.1492 Q201.3101,104.2158 201.3101,106.3159 Q201.3101,108.4077 201.9949,109.4744 Q202.6797,110.541 204.0244,110.541 Q204.6553,110.541 205.2488,110.2712 Q205.8423,110.0015 206.4731,109.4204 Z " fill="#000000"/><text fill="#000000" font-family="sans-serif" font-size="14" font-weight="bold" lengthAdjust="spacing" textLength="107" x="218" y="111.291">GridFieldCache</text><line style="stroke:#181818;stroke-width:0.5;" x1="190" x2="327" y1="122" y2="122"/><line style="stroke:#181818;stroke-width:0.5;" x1="190" x2="327" y1="130" y2="130"/></g><!--MD5=[9cd5ce507e9dfa400c11500c2bd98eb9]
class GridBlockCache--><g id="elem_GridBlockCache"><rect codeLine="8" fill="#B6FADC" height="48" id="GridBlockCache" rx="2.5" ry="2.5" style="stroke:#181818;stroke-width:0.5;" width="143" x="187" y="185"/><ellipse cx="202" cy="201" fill="#ADD1B2" rx="11" ry="11" style="stroke:#181818;stroke-width:1.0;"/><path d="M204.4731,207.1431 Q203.8921,207.4419 203.2529,207.5913 Q202.6138,207.7407 201.9082,207.7407 Q199.4014,207.7407 198.0815,206.0889 Q196.7617,204.437 196.7617,201.3159 Q196.7617,198.1865 198.0815,196.5347 Q199.4014,194.8828 201.9082,194.8828 Q202.6138,194.8828 203.2612,195.0322 Q203.9087,195.1816 204.4731,195.4805 L204.4731,198.2031 Q203.8423,197.6221 203.2488,197.3523 Q202.6553,197.0825 202.0244,197.0825 Q200.6797,197.0825 199.9949,198.1492 Q199.3101,199.2158 199.3101,201.3159 Q199.3101,203.4077 199.9949,204.4744 Q200.6797,205.541 202.0244,205.541 Q202.6553,205.541 203.2488,205.2712 Q203.8423,205.0015 204.4731,204.4204 Z " fill="#000000"/><text fill="#000000" font-family="sans-serif" font-size="14" font-weight="bold" lengthAdjust="spacing" textLength="111" x="216" y="206.291">GridBlockCache</text><line style="stroke:#181818;stroke-width:0.5;" x1="188" x2="329" y1="217" y2="217"/><line style="stroke:#181818;stroke-width:0.5;" x1="188" x2="329" y1="225" y2="225"/></g><!--MD5=[c6748457c4a15219a60a81b35778ca8c]
class GridRowCache--><g id="elem_GridRowCache"><rect codeLine="9" fill="#B6FADC" height="48" id="GridRowCache" rx="2.5" ry="2.5" style="stroke:#181818;stroke-width:0.5;" width="135" x="480" y="173"/><ellipse cx="495" cy="189" fill="#ADD1B2" rx="11" ry="11" style="stroke:#181818;stroke-width:1.0;"/><path d="M497.4731,195.1431 Q496.8921,195.4419 496.2529,195.5913 Q495.6138,195.7407 494.9082,195.7407 Q492.4014,195.7407 491.0815,194.0889 Q489.7617,192.437 489.7617,189.3159 Q489.7617,186.1865 491.0815,184.5347 Q492.4014,182.8828 494.9082,182.8828 Q495.6138,182.8828 496.2612,183.0322 Q496.9087,183.1816 497.4731,183.4805 L497.4731,186.2031 Q496.8423,185.6221 496.2488,185.3523 Q495.6553,185.0825 495.0244,185.0825 Q493.6797,185.0825 492.9949,186.1492 Q492.3101,187.2158 492.3101,189.3159 Q492.3101,191.4077 492.9949,192.4744 Q493.6797,193.541 495.0244,193.541 Q495.6553,193.541 496.2488,193.2712 Q496.8423,193.0015 497.4731,192.4204 Z " fill="#000000"/><text fill="#000000" font-family="sans-serif" font-size="14" font-weight="bold" lengthAdjust="spacing" textLength="103" x="509" y="194.291">GridRowCache</text><line style="stroke:#181818;stroke-width:0.5;" x1="481" x2="614" y1="205" y2="205"/><line style="stroke:#181818;stroke-width:0.5;" x1="481" x2="614" y1="213" y2="213"/></g><!--MD5=[64596bf797181233ea1f132a2228edec]
class GridCellCache--><g id="elem_GridCellCache"><rect codeLine="10" fill="#B6FADC" height="48" id="GridCellCache" rx="2.5" ry="2.5" style="stroke:#181818;stroke-width:0.5;" width="132" x="812" y="176"/><ellipse cx="827" cy="192" fill="#ADD1B2" rx="11" ry="11" style="stroke:#181818;stroke-width:1.0;"/><path d="M829.4731,198.1431 Q828.8921,198.4419 828.2529,198.5913 Q827.6138,198.7407 826.9082,198.7407 Q824.4014,198.7407 823.0815,197.0889 Q821.7617,195.437 821.7617,192.3159 Q821.7617,189.1865 823.0815,187.5347 Q824.4014,185.8828 826.9082,185.8828 Q827.6138,185.8828 828.2612,186.0322 Q828.9087,186.1816 829.4731,186.4805 L829.4731,189.2031 Q828.8423,188.6221 828.2488,188.3523 Q827.6553,188.0825 827.0244,188.0825 Q825.6797,188.0825 824.9949,189.1492 Q824.3101,190.2158 824.3101,192.3159 Q824.3101,194.4077 824.9949,195.4744 Q825.6797,196.541 827.0244,196.541 Q827.6553,196.541 828.2488,196.2712 Q828.8423,196.0015 829.4731,195.4204 Z " fill="#000000"/><text fill="#000000" font-family="sans-serif" font-size="14" font-weight="bold" lengthAdjust="spacing" textLength="100" x="841" y="197.291">GridCellCache</text><line style="stroke:#181818;stroke-width:0.5;" x1="813" x2="943" y1="208" y2="208"/><line style="stroke:#181818;stroke-width:0.5;" x1="813" x2="943" y1="216" y2="216"/></g><!--MD5=[b7a30f0afc60c65c31521dee832aabc2]
class GridBloc--><g id="elem_GridBloc"><rect fill="#F1F1F1" height="48" id="GridBloc" rx="2.5" ry="2.5" style="stroke:#181818;stroke-width:0.5;" width="92" x="7" y="185"/><ellipse cx="22" cy="201" fill="#ADD1B2" rx="11" ry="11" style="stroke:#181818;stroke-width:1.0;"/><path d="M24.4731,207.1431 Q23.8921,207.4419 23.2529,207.5913 Q22.6138,207.7407 21.9082,207.7407 Q19.4014,207.7407 18.0815,206.0889 Q16.7617,204.437 16.7617,201.3159 Q16.7617,198.1865 18.0815,196.5347 Q19.4014,194.8828 21.9082,194.8828 Q22.6138,194.8828 23.2612,195.0322 Q23.9087,195.1816 24.4731,195.4805 L24.4731,198.2031 Q23.8423,197.6221 23.2488,197.3523 Q22.6553,197.0825 22.0244,197.0825 Q20.6797,197.0825 19.9949,198.1492 Q19.3101,199.2158 19.3101,201.3159 Q19.3101,203.4077 19.9949,204.4744 Q20.6797,205.541 22.0244,205.541 Q22.6553,205.541 23.2488,205.2712 Q23.8423,205.0015 24.4731,204.4204 Z " fill="#000000"/><text fill="#000000" font-family="sans-serif" font-size="14" font-weight="bold" lengthAdjust="spacing" textLength="60" x="36" y="206.291">GridBloc</text><line style="stroke:#181818;stroke-width:0.5;" x1="8" x2="98" y1="217" y2="217"/><line style="stroke:#181818;stroke-width:0.5;" x1="8" x2="98" y1="225" y2="225"/></g><!--MD5=[d111723436ca97b090550f2d110a9482]
class GridService--><g id="elem_GridService"><rect fill="#F1F1F1" height="48" id="GridService" rx="2.5" ry="2.5" style="stroke:#181818;stroke-width:0.5;" width="112" x="202.5" y="268"/><ellipse cx="217.5" cy="284" fill="#ADD1B2" rx="11" ry="11" style="stroke:#181818;stroke-width:1.0;"/><path d="M219.9731,290.1431 Q219.3921,290.4419 218.7529,290.5913 Q218.1138,290.7407 217.4082,290.7407 Q214.9014,290.7407 213.5815,289.0889 Q212.2617,287.437 212.2617,284.3159 Q212.2617,281.1865 213.5815,279.5347 Q214.9014,277.8828 217.4082,277.8828 Q218.1138,277.8828 218.7612,278.0322 Q219.4087,278.1816 219.9731,278.4805 L219.9731,281.2031 Q219.3423,280.6221 218.7488,280.3523 Q218.1553,280.0825 217.5244,280.0825 Q216.1797,280.0825 215.4949,281.1492 Q214.8101,282.2158 214.8101,284.3159 Q214.8101,286.4077 215.4949,287.4744 Q216.1797,288.541 217.5244,288.541 Q218.1553,288.541 218.7488,288.2712 Q219.3423,288.0015 219.9731,287.4204 Z " fill="#000000"/><text fill="#000000" font-family="sans-serif" font-size="14" font-weight="bold" lengthAdjust="spacing" textLength="80" x="231.5" y="289.291">GridService</text><line style="stroke:#181818;stroke-width:0.5;" x1="203.5" x2="313.5" y1="300" y2="300"/><line style="stroke:#181818;stroke-width:0.5;" x1="203.5" x2="313.5" y1="308" y2="308"/></g><!--MD5=[76713377b83e4fde17cb5cd834c42b63]
class GridBlockPB--><g id="elem_GridBlockPB"><rect fill="#F1F1F1" height="48" id="GridBlockPB" rx="2.5" ry="2.5" style="stroke:#181818;stroke-width:0.5;" width="119" x="488" y="339"/><ellipse cx="503" cy="355" fill="#ADD1B2" rx="11" ry="11" style="stroke:#181818;stroke-width:1.0;"/><path d="M505.4731,361.1431 Q504.8921,361.4419 504.2529,361.5913 Q503.6138,361.7407 502.9082,361.7407 Q500.4014,361.7407 499.0815,360.0889 Q497.7617,358.437 497.7617,355.3159 Q497.7617,352.1865 499.0815,350.5347 Q500.4014,348.8828 502.9082,348.8828 Q503.6138,348.8828 504.2612,349.0322 Q504.9087,349.1816 505.4731,349.4805 L505.4731,352.2031 Q504.8423,351.6221 504.2488,351.3523 Q503.6553,351.0825 503.0244,351.0825 Q501.6797,351.0825 500.9949,352.1492 Q500.3101,353.2158 500.3101,355.3159 Q500.3101,357.4077 500.9949,358.4744 Q501.6797,359.541 503.0244,359.541 Q503.6553,359.541 504.2488,359.2712 Q504.8423,359.0015 505.4731,358.4204 Z " fill="#000000"/><text fill="#000000" font-family="sans-serif" font-size="14" font-weight="bold" lengthAdjust="spacing" textLength="87" x="517" y="360.291">GridBlockPB</text><line style="stroke:#181818;stroke-width:0.5;" x1="489" x2="606" y1="371" y2="371"/><line style="stroke:#181818;stroke-width:0.5;" x1="489" x2="606" y1="379" y2="379"/></g><!--MD5=[9397b7104a91a739148a91a112fe8c8c]
class GridFieldChangesetPB--><g id="elem_GridFieldChangesetPB"><rect fill="#F1F1F1" height="48" id="GridFieldChangesetPB" rx="2.5" ry="2.5" style="stroke:#181818;stroke-width:0.5;" width="190" x="452.5" y="90"/><ellipse cx="467.5" cy="106" fill="#ADD1B2" rx="11" ry="11" style="stroke:#181818;stroke-width:1.0;"/><path d="M469.9731,112.1431 Q469.3921,112.4419 468.7529,112.5913 Q468.1138,112.7407 467.4082,112.7407 Q464.9014,112.7407 463.5815,111.0889 Q462.2617,109.437 462.2617,106.3159 Q462.2617,103.1865 463.5815,101.5347 Q464.9014,99.8828 467.4082,99.8828 Q468.1138,99.8828 468.7612,100.0322 Q469.4087,100.1816 469.9731,100.4805 L469.9731,103.2031 Q469.3423,102.6221 468.7488,102.3523 Q468.1553,102.0825 467.5244,102.0825 Q466.1797,102.0825 465.4949,103.1492 Q464.8101,104.2158 464.8101,106.3159 Q464.8101,108.4077 465.4949,109.4744 Q466.1797,110.541 467.5244,110.541 Q468.1553,110.541 468.7488,110.2712 Q469.3423,110.0015 469.9731,109.4204 Z " fill="#000000"/><text fill="#000000" font-family="sans-serif" font-size="14" font-weight="bold" lengthAdjust="spacing" textLength="158" x="481.5" y="111.291">GridFieldChangesetPB</text><line style="stroke:#181818;stroke-width:0.5;" x1="453.5" x2="641.5" y1="122" y2="122"/><line style="stroke:#181818;stroke-width:0.5;" x1="453.5" x2="641.5" y1="130" y2="130"/></g><!--MD5=[ecc7188e66f52a586606ab18ec0405a0]
class GridBlockChangesetPB--><g id="elem_GridBlockChangesetPB"><rect fill="#F1F1F1" height="48" id="GridBlockChangesetPB" rx="2.5" ry="2.5" style="stroke:#181818;stroke-width:0.5;" width="194" x="781" y="263"/><ellipse cx="796" cy="279" fill="#ADD1B2" rx="11" ry="11" style="stroke:#181818;stroke-width:1.0;"/><path d="M798.4731,285.1431 Q797.8921,285.4419 797.2529,285.5913 Q796.6138,285.7407 795.9082,285.7407 Q793.4014,285.7407 792.0815,284.0889 Q790.7617,282.437 790.7617,279.3159 Q790.7617,276.1865 792.0815,274.5347 Q793.4014,272.8828 795.9082,272.8828 Q796.6138,272.8828 797.2612,273.0322 Q797.9087,273.1816 798.4731,273.4805 L798.4731,276.2031 Q797.8423,275.6221 797.2488,275.3523 Q796.6553,275.0825 796.0244,275.0825 Q794.6797,275.0825 793.9949,276.1492 Q793.3101,277.2158 793.3101,279.3159 Q793.3101,281.4077 793.9949,282.4744 Q794.6797,283.541 796.0244,283.541 Q796.6553,283.541 797.2488,283.2712 Q797.8423,283.0015 798.4731,282.4204 Z " fill="#000000"/><text fill="#000000" font-family="sans-serif" font-size="14" font-weight="bold" lengthAdjust="spacing" textLength="162" x="810" y="284.291">GridBlockChangesetPB</text><line style="stroke:#181818;stroke-width:0.5;" x1="782" x2="974" y1="295" y2="295"/><line style="stroke:#181818;stroke-width:0.5;" x1="782" x2="974" y1="303" y2="303"/></g><!--MD5=[c6047ee4a68c20da966445c4fab6ff4f]
class GridRowInfo--><g id="elem_GridRowInfo"><rect fill="#F1F1F1" height="48" id="GridRowInfo" rx="2.5" ry="2.5" style="stroke:#181818;stroke-width:0.5;" width="122" x="817" y="93"/><ellipse cx="832" cy="109" fill="#ADD1B2" rx="11" ry="11" style="stroke:#181818;stroke-width:1.0;"/><path d="M834.4731,115.1431 Q833.8921,115.4419 833.2529,115.5913 Q832.6138,115.7407 831.9082,115.7407 Q829.4014,115.7407 828.0815,114.0889 Q826.7617,112.437 826.7617,109.3159 Q826.7617,106.1865 828.0815,104.5347 Q829.4014,102.8828 831.9082,102.8828 Q832.6138,102.8828 833.2612,103.0322 Q833.9087,103.1816 834.4731,103.4805 L834.4731,106.2031 Q833.8423,105.6221 833.2488,105.3523 Q832.6553,105.0825 832.0244,105.0825 Q830.6797,105.0825 829.9949,106.1492 Q829.3101,107.2158 829.3101,109.3159 Q829.3101,111.4077 829.9949,112.4744 Q830.6797,113.541 832.0244,113.541 Q832.6553,113.541 833.2488,113.2712 Q833.8423,113.0015 834.4731,112.4204 Z " fill="#000000"/><text fill="#000000" font-family="sans-serif" font-size="14" font-weight="bold" lengthAdjust="spacing" textLength="90" x="846" y="114.291">GridRowInfo</text><line style="stroke:#181818;stroke-width:0.5;" x1="818" x2="938" y1="125" y2="125"/><line style="stroke:#181818;stroke-width:0.5;" x1="818" x2="938" y1="133" y2="133"/></g><!--MD5=[3ccf0c413f3079b5ec7dd83f316c918f]
class GridRowPB--><g id="elem_GridRowPB"><rect fill="#F1F1F1" height="48" id="GridRowPB" rx="2.5" ry="2.5" style="stroke:#181818;stroke-width:0.5;" width="111" x="1180.5" y="10"/><ellipse cx="1195.5" cy="26" fill="#ADD1B2" rx="11" ry="11" style="stroke:#181818;stroke-width:1.0;"/><path d="M1197.9731,32.1431 Q1197.3921,32.4419 1196.7529,32.5913 Q1196.1138,32.7407 1195.4082,32.7407 Q1192.9014,32.7407 1191.5815,31.0889 Q1190.2617,29.437 1190.2617,26.3159 Q1190.2617,23.1865 1191.5815,21.5347 Q1192.9014,19.8828 1195.4082,19.8828 Q1196.1138,19.8828 1196.7612,20.0322 Q1197.4087,20.1816 1197.9731,20.4805 L1197.9731,23.2031 Q1197.3423,22.6221 1196.7488,22.3523 Q1196.1553,22.0825 1195.5244,22.0825 Q1194.1797,22.0825 1193.4949,23.1492 Q1192.8101,24.2158 1192.8101,26.3159 Q1192.8101,28.4077 1193.4949,29.4744 Q1194.1797,30.541 1195.5244,30.541 Q1196.1553,30.541 1196.7488,30.2712 Q1197.3423,30.0015 1197.9731,29.4204 Z " fill="#000000"/><text fill="#000000" font-family="sans-serif" font-size="14" font-weight="bold" lengthAdjust="spacing" textLength="79" x="1209.5" y="31.291">GridRowPB</text><line style="stroke:#181818;stroke-width:0.5;" x1="1181.5" x2="1290.5" y1="42" y2="42"/><line style="stroke:#181818;stroke-width:0.5;" x1="1181.5" x2="1290.5" y1="50" y2="50"/></g><!--MD5=[65b228fdf92ef8cdc8129bacccaf028a]
class GridFieldPB--><g id="elem_GridFieldPB"><rect fill="#F1F1F1" height="48" id="GridFieldPB" rx="2.5" ry="2.5" style="stroke:#181818;stroke-width:0.5;" width="115" x="1178.5" y="93"/><ellipse cx="1193.5" cy="109" fill="#ADD1B2" rx="11" ry="11" style="stroke:#181818;stroke-width:1.0;"/><path d="M1195.9731,115.1431 Q1195.3921,115.4419 1194.7529,115.5913 Q1194.1138,115.7407 1193.4082,115.7407 Q1190.9014,115.7407 1189.5815,114.0889 Q1188.2617,112.437 1188.2617,109.3159 Q1188.2617,106.1865 1189.5815,104.5347 Q1190.9014,102.8828 1193.4082,102.8828 Q1194.1138,102.8828 1194.7612,103.0322 Q1195.4087,103.1816 1195.9731,103.4805 L1195.9731,106.2031 Q1195.3423,105.6221 1194.7488,105.3523 Q1194.1553,105.0825 1193.5244,105.0825 Q1192.1797,105.0825 1191.4949,106.1492 Q1190.8101,107.2158 1190.8101,109.3159 Q1190.8101,111.4077 1191.4949,112.4744 Q1192.1797,113.541 1193.5244,113.541 Q1194.1553,113.541 1194.7488,113.2712 Q1195.3423,113.0015 1195.9731,112.4204 Z " fill="#000000"/><text fill="#000000" font-family="sans-serif" font-size="14" font-weight="bold" lengthAdjust="spacing" textLength="83" x="1207.5" y="114.291">GridFieldPB</text><line style="stroke:#181818;stroke-width:0.5;" x1="1179.5" x2="1292.5" y1="125" y2="125"/><line style="stroke:#181818;stroke-width:0.5;" x1="1179.5" x2="1292.5" y1="133" y2="133"/></g><!--MD5=[6a7cd17fb173517a6d30481f5b45a6c3]
class GridCell--><g id="elem_GridCell"><rect fill="#F1F1F1" height="48" id="GridCell" rx="2.5" ry="2.5" style="stroke:#181818;stroke-width:0.5;" width="90" x="1191" y="176"/><ellipse cx="1206" cy="192" fill="#ADD1B2" rx="11" ry="11" style="stroke:#181818;stroke-width:1.0;"/><path d="M1208.4731,198.1431 Q1207.8921,198.4419 1207.2529,198.5913 Q1206.6138,198.7407 1205.9082,198.7407 Q1203.4014,198.7407 1202.0815,197.0889 Q1200.7617,195.437 1200.7617,192.3159 Q1200.7617,189.1865 1202.0815,187.5347 Q1203.4014,185.8828 1205.9082,185.8828 Q1206.6138,185.8828 1207.2612,186.0322 Q1207.9087,186.1816 1208.4731,186.4805 L1208.4731,189.2031 Q1207.8423,188.6221 1207.2488,188.3523 Q1206.6553,188.0825 1206.0244,188.0825 Q1204.6797,188.0825 1203.9949,189.1492 Q1203.3101,190.2158 1203.3101,192.3159 Q1203.3101,194.4077 1203.9949,195.4744 Q1204.6797,196.541 1206.0244,196.541 Q1206.6553,196.541 1207.2488,196.2712 Q1207.8423,196.0015 1208.4731,195.4204 Z " fill="#000000"/><text fill="#000000" font-family="sans-serif" font-size="14" font-weight="bold" lengthAdjust="spacing" textLength="58" x="1220" y="197.291">GridCell</text><line style="stroke:#181818;stroke-width:0.5;" x1="1192" x2="1280" y1="208" y2="208"/><line style="stroke:#181818;stroke-width:0.5;" x1="1192" x2="1280" y1="216" y2="216"/></g><!--MD5=[d981429fc21c9906362c9a6820f4ae3f]
class GridCellCacheKey--><g id="elem_GridCellCacheKey"><rect fill="#F1F1F1" height="48" id="GridCellCacheKey" rx="2.5" ry="2.5" style="stroke:#181818;stroke-width:0.5;" width="158" x="1157" y="259"/><ellipse cx="1172" cy="275" fill="#ADD1B2" rx="11" ry="11" style="stroke:#181818;stroke-width:1.0;"/><path d="M1174.4731,281.1431 Q1173.8921,281.4419 1173.2529,281.5913 Q1172.6138,281.7407 1171.9082,281.7407 Q1169.4014,281.7407 1168.0815,280.0889 Q1166.7617,278.437 1166.7617,275.3159 Q1166.7617,272.1865 1168.0815,270.5347 Q1169.4014,268.8828 1171.9082,268.8828 Q1172.6138,268.8828 1173.2612,269.0322 Q1173.9087,269.1816 1174.4731,269.4805 L1174.4731,272.2031 Q1173.8423,271.6221 1173.2488,271.3523 Q1172.6553,271.0825 1172.0244,271.0825 Q1170.6797,271.0825 1169.9949,272.1492 Q1169.3101,273.2158 1169.3101,275.3159 Q1169.3101,277.4077 1169.9949,278.4744 Q1170.6797,279.541 1172.0244,279.541 Q1172.6553,279.541 1173.2488,279.2712 Q1173.8423,279.0015 1174.4731,278.4204 Z " fill="#000000"/><text fill="#000000" font-family="sans-serif" font-size="14" font-weight="bold" lengthAdjust="spacing" textLength="126" x="1186" y="280.291">GridCellCacheKey</text><line style="stroke:#181818;stroke-width:0.5;" x1="1158" x2="1314" y1="291" y2="291"/><line style="stroke:#181818;stroke-width:0.5;" x1="1158" x2="1314" y1="299" y2="299"/></g><!--MD5=[45e1835169168e1d6b02cbe70904a44a]
class GridBlockListener--><g id="elem_GridBlockListener"><rect fill="#F1F1F1" height="48" id="GridBlockListener" rx="2.5" ry="2.5" style="stroke:#181818;stroke-width:0.5;" width="159" x="468" y="256"/><ellipse cx="483" cy="272" fill="#ADD1B2" rx="11" ry="11" style="stroke:#181818;stroke-width:1.0;"/><path d="M485.4731,278.1431 Q484.8921,278.4419 484.2529,278.5913 Q483.6138,278.7407 482.9082,278.7407 Q480.4014,278.7407 479.0815,277.0889 Q477.7617,275.437 477.7617,272.3159 Q477.7617,269.1865 479.0815,267.5347 Q480.4014,265.8828 482.9082,265.8828 Q483.6138,265.8828 484.2612,266.0322 Q484.9087,266.1816 485.4731,266.4805 L485.4731,269.2031 Q484.8423,268.6221 484.2488,268.3523 Q483.6553,268.0825 483.0244,268.0825 Q481.6797,268.0825 480.9949,269.1492 Q480.3101,270.2158 480.3101,272.3159 Q480.3101,274.4077 480.9949,275.4744 Q481.6797,276.541 483.0244,276.541 Q483.6553,276.541 484.2488,276.2712 Q484.8423,276.0015 485.4731,275.4204 Z " fill="#000000"/><text fill="#000000" font-family="sans-serif" font-size="14" font-weight="bold" lengthAdjust="spacing" textLength="127" x="497" y="277.291">GridBlockListener</text><line style="stroke:#181818;stroke-width:0.5;" x1="469" x2="626" y1="288" y2="288"/><line style="stroke:#181818;stroke-width:0.5;" x1="469" x2="626" y1="296" y2="296"/></g><!--MD5=[2887c6bcc564fdd2c5a0529fb6ab4e1d]
class GridRowCacheFieldNotifierImpl--><g id="elem_GridRowCacheFieldNotifierImpl"><rect fill="#F1F1F1" height="48" id="GridRowCacheFieldNotifierImpl" rx="2.5" ry="2.5" style="stroke:#181818;stroke-width:0.5;" width="259" x="418" y="7"/><ellipse cx="433" cy="23" fill="#ADD1B2" rx="11" ry="11" style="stroke:#181818;stroke-width:1.0;"/><path d="M435.4731,29.1431 Q434.8921,29.4419 434.2529,29.5913 Q433.6138,29.7407 432.9082,29.7407 Q430.4014,29.7407 429.0815,28.0889 Q427.7617,26.437 427.7617,23.3159 Q427.7617,20.1865 429.0815,18.5347 Q430.4014,16.8828 432.9082,16.8828 Q433.6138,16.8828 434.2612,17.0322 Q434.9087,17.1816 435.4731,17.4805 L435.4731,20.2031 Q434.8423,19.6221 434.2488,19.3523 Q433.6553,19.0825 433.0244,19.0825 Q431.6797,19.0825 430.9949,20.1492 Q430.3101,21.2158 430.3101,23.3159 Q430.3101,25.4077 430.9949,26.4744 Q431.6797,27.541 433.0244,27.541 Q433.6553,27.541 434.2488,27.2712 Q434.8423,27.0015 435.4731,26.4204 Z " fill="#000000"/><text fill="#000000" font-family="sans-serif" font-size="14" font-weight="bold" lengthAdjust="spacing" textLength="227" x="447" y="28.291">GridRowCacheFieldNotifierImpl</text><line style="stroke:#181818;stroke-width:0.5;" x1="419" x2="676" y1="39" y2="39"/><line style="stroke:#181818;stroke-width:0.5;" x1="419" x2="676" y1="47" y2="47"/></g><!--MD5=[26ad188711e1fe1fd37d00e811ee044c]
link GridBloc to GridService--><g id="link_GridBloc_GridService"><path codeLine="12" d="M99.16,227.42 C128.06,239.21 165.89,254.64 197.32,267.46 " fill="none" id="GridBloc-to-GridService" style="stroke:#181818;stroke-width:1.0;"/><polygon fill="#181818" points="202.31,269.49,195.4844,262.39,197.6795,267.6035,192.466,269.7987,202.31,269.49" style="stroke:#181818;stroke-width:1.0;"/></g><!--MD5=[b8f9533eb4d84044bf4f1bbda5b1a32a]
link GridBloc to GridFieldCache--><g id="link_GridBloc_GridFieldCache"><path codeLine="13" d="M99.16,187.92 C129.3,173.85 169.14,155.25 201.32,140.23 " fill="none" id="GridBloc-to-GridFieldCache" style="stroke:#181818;stroke-width:1.0;"/><polygon fill="#181818" points="206.01,138.04,196.1628,138.2229,201.4794,140.1552,199.5472,145.4718,206.01,138.04" style="stroke:#181818;stroke-width:1.0;"/><text fill="#000000" font-family="sans-serif" font-size="13" lengthAdjust="spacing" textLength="26" x="130" y="158.5684">own</text></g><!--MD5=[08a8827e04da6aa4816edb718a28b8cc]
reverse link GridBloc to GridBlockCache--><g id="link_GridBloc_GridBlockCache"><path codeLine="14" d="M112.37,209 C135.6,209 162.55,209 186.88,209 " fill="none" id="GridBloc-backto-GridBlockCache" style="stroke:#181818;stroke-width:1.0;"/><polygon fill="#181818" points="99.16,209,105.16,213,111.16,209,105.16,205,99.16,209" style="stroke:#181818;stroke-width:1.0;"/><text fill="#000000" font-family="sans-serif" font-size="13" lengthAdjust="spacing" textLength="26" x="130" y="205.5684">own</text><text fill="#000000" font-family="sans-serif" font-size="13" lengthAdjust="spacing" textLength="8" x="107.1543" y="222.7884">1</text><text fill="#000000" font-family="sans-serif" font-size="13" lengthAdjust="spacing" textLength="6" x="173.1848" y="222.3578">*</text></g><!--MD5=[06c93dc4db67c32711c6cead0d894683]
link GridBlockCache to GridBlockPB--><g id="link_GridBlockCache_GridBlockPB"><path codeLine="16" d="M302.24,233.14 C311.55,238.76 321.23,244.9 330,251 C371.25,279.71 373.75,298.18 418,322 C438.13,332.84 461.59,341.37 482.92,347.78 " fill="none" id="GridBlockCache-to-GridBlockPB" style="stroke:#181818;stroke-width:1.0;"/><polygon fill="#181818" points="487.72,349.2,480.2349,342.7989,482.9277,347.7737,477.9529,350.4665,487.72,349.2" style="stroke:#181818;stroke-width:1.0;"/></g><!--MD5=[db3554b7d5d5c00ea86bd0d195fdb416]
link GridFieldCache to GridFieldChangesetPB--><g id="link_GridFieldCache_GridFieldChangesetPB"><path codeLine="19" d="M328.24,114 C363.79,114 407.84,114 447.03,114 " fill="none" id="GridFieldCache-to-GridFieldChangesetPB" style="stroke:#181818;stroke-width:1.0;stroke-dasharray:7.0,7.0;"/><polygon fill="#181818" points="452.28,114,443.28,110,447.28,114,443.28,118,452.28,114" style="stroke:#181818;stroke-width:1.0;"/></g><!--MD5=[2f69c6def6ffad5637884ca34522ede4]
link GridBlockCache to GridRowCache--><g id="link_GridBlockCache_GridRowCache"><path codeLine="23" d="M330.08,206.05 C374.02,204.21 430.4,201.85 474.6,200.01 " fill="none" id="GridBlockCache-to-GridRowCache" style="stroke:#181818;stroke-width:1.0;"/><polygon fill="#181818" points="479.65,199.8,470.4865,196.1902,474.6546,200.0147,470.8301,204.1828,479.65,199.8" style="stroke:#181818;stroke-width:1.0;"/><text fill="#000000" font-family="sans-serif" font-size="13" lengthAdjust="spacing" textLength="26" x="361" y="200.5684">own</text></g><!--MD5=[ce3ea3b972838e04ad490ed2d3bbf775]
link GridRowCache to GridBlockChangesetPB--><g id="link_GridRowCache_GridBlockChangesetPB"><path codeLine="24" d="M615.37,215.32 C664.08,228.67 730.68,246.91 784.49,261.65 " fill="none" id="GridRowCache-to-GridBlockChangesetPB" style="stroke:#181818;stroke-width:1.0;"/><polygon fill="#181818" points="789.33,262.98,781.7136,256.7357,784.5092,261.6536,779.5913,264.4491,789.33,262.98" style="stroke:#181818;stroke-width:1.0;"/></g><!--MD5=[3aaa1c5f4e3b25319e224dd5fca3b1a5]
link GridRowCache to GridCellCache--><g id="link_GridRowCache_GridCellCache"><path codeLine="25" d="M615.37,197.61 C671.1,198.12 750.22,198.84 806.84,199.36 " fill="none" id="GridRowCache-to-GridCellCache" style="stroke:#181818;stroke-width:1.0;"/><polygon fill="#181818" points="811.9,199.41,802.9346,195.333,806.9002,199.3671,802.866,203.3327,811.9,199.41" style="stroke:#181818;stroke-width:1.0;"/><text fill="#000000" font-family="sans-serif" font-size="13" lengthAdjust="spacing" textLength="26" x="708" y="195.5684">own</text></g><!--MD5=[39481fd0d7939751d46b625704874686]
link GridRowCache to GridRowCacheFieldNotifier--><g id="link_GridRowCache_GridRowCacheFieldNotifier"><path codeLine="26" d="M615.17,181.05 C635.78,174.61 658.03,166.03 677,155 C688.42,148.36 753.75,81.93 765,75 C775.16,68.74 786.39,63.13 797.69,58.18 " fill="none" id="GridRowCache-to-GridRowCacheFieldNotifier" style="stroke:#181818;stroke-width:1.0;"/><polygon fill="#181818" points="802.54,56.11,792.692,55.9787,797.9443,58.0796,795.8434,63.3319,802.54,56.11" style="stroke:#181818;stroke-width:1.0;"/></g><!--MD5=[7cdff14a09148f186fe944e0c0f9d0e0]
reverse link GridRowCache to GridRowInfo--><g id="link_GridRowCache_GridRowInfo"><path codeLine="27" d="M628.21,177.59 C686.34,163.43 763.88,144.55 816.85,131.65 " fill="none" id="GridRowCache-backto-GridRowInfo" style="stroke:#181818;stroke-width:1.0;"/><polygon fill="#181818" points="615.37,180.71,622.1453,183.1788,627.0301,177.8741,620.2548,175.4054,615.37,180.71" style="stroke:#181818;stroke-width:1.0;"/><text fill="#000000" font-family="sans-serif" font-size="13" lengthAdjust="spacing" textLength="8" x="622.7816" y="192.3879">1</text><text fill="#000000" font-family="sans-serif" font-size="13" lengthAdjust="spacing" textLength="6" x="803.0317" y="146.9368">*</text></g><!--MD5=[07e7b0872d0c64468f9addda02b6bf2c]
link GridRowInfo to GridRowPB--><g id="link_GridRowInfo_GridRowPB"><path codeLine="28" d="M939.39,102.92 C1005.22,87.57 1109.9,63.17 1175.42,47.89 " fill="none" id="GridRowInfo-to-GridRowPB" style="stroke:#181818;stroke-width:1.0;"/><polygon fill="#181818" points="1180.45,46.72,1170.7794,44.8545,1175.579,47.8485,1172.585,52.648,1180.45,46.72" style="stroke:#181818;stroke-width:1.0;"/></g><!--MD5=[8fede6e329e7682fb2a9ae4ade228322]
reverse link GridRowInfo to GridFieldPB--><g id="link_GridRowInfo_GridFieldPB"><path codeLine="29" d="M952.79,117 C1019.85,117 1117.37,117 1178.43,117 " fill="none" id="GridRowInfo-backto-GridFieldPB" style="stroke:#181818;stroke-width:1.0;"/><polygon fill="none" points="939.39,117,945.39,121,951.39,117,945.39,113,939.39,117" style="stroke:#181818;stroke-width:1.0;"/><text fill="#000000" font-family="sans-serif" font-size="13" lengthAdjust="spacing" textLength="8" x="946.9507" y="130.4535">1</text><text fill="#000000" font-family="sans-serif" font-size="13" lengthAdjust="spacing" textLength="6" x="1164.6695" y="130.5492">*</text></g><!--MD5=[e688f4906bd6ca1580c7ce3f0961282b]
reverse link GridCellCache to GridCell--><g id="link_GridCellCache_GridCell"><path codeLine="33" d="M957.3,200 C1029.03,200 1132.64,200 1190.91,200 " fill="none" id="GridCellCache-backto-GridCell" style="stroke:#181818;stroke-width:1.0;"/><polygon fill="#181818" points="944.3,200,950.3,204,956.3,200,950.3,196,944.3,200" style="stroke:#181818;stroke-width:1.0;"/><text fill="#000000" font-family="sans-serif" font-size="13" lengthAdjust="spacing" textLength="104" x="1022" y="196.5684">Generic cell data</text><text fill="#000000" font-family="sans-serif" font-size="13" lengthAdjust="spacing" textLength="8" x="951.9891" y="213.4057">1</text><text fill="#000000" font-family="sans-serif" font-size="13" lengthAdjust="spacing" textLength="6" x="1176.9451" y="213.8363">*</text></g><!--MD5=[64c56a848a39ad04666b38c3aeeda0c4]
link GridCellCache to GridCellCacheKey--><g id="link_GridCellCache_GridCellCacheKey"><path codeLine="34" d="M944.3,215.22 C1002.69,228.84 1088.58,248.86 1151.87,263.62 " fill="none" id="GridCellCache-to-GridCellCacheKey" style="stroke:#181818;stroke-width:1.0;"/><polygon fill="#181818" points="1156.77,264.76,1148.9215,258.8101,1151.9022,263.618,1147.0943,266.5986,1156.77,264.76" style="stroke:#181818;stroke-width:1.0;"/></g><!--MD5=[bb70973dc9825fac6208941936eaac0f]
link GridBlockCache to GridBlockListener--><g id="link_GridBlockCache_GridBlockListener"><path codeLine="37" d="M330.08,226.46 C370.19,236.38 420.65,248.87 462.76,259.28 " fill="none" id="GridBlockCache-to-GridBlockListener" style="stroke:#181818;stroke-width:1.0;"/><polygon fill="#181818" points="467.85,260.54,460.0721,254.4981,462.9959,259.3408,458.1533,262.2646,467.85,260.54" style="stroke:#181818;stroke-width:1.0;"/></g><!--MD5=[8fa2865ed627baf194c8891842b40428]
reverse link GridBlockListener to GridBlockChangesetPB--><g id="link_GridBlockListener_GridBlockChangesetPB"><path codeLine="38" d="M640.18,281.95 C683.99,282.89 736.41,284 780.78,284.95 " fill="none" id="GridBlockListener-backto-GridBlockChangesetPB" style="stroke:#181818;stroke-width:1.0;"/><polygon fill="#181818" points="627.18,281.68,633.0907,285.8109,639.1771,281.9437,633.2664,277.8128,627.18,281.68" style="stroke:#181818;stroke-width:1.0;"/><text fill="#000000" font-family="sans-serif" font-size="13" lengthAdjust="spacing" textLength="8" x="634.8942" y="295.109">1</text><text fill="#000000" font-family="sans-serif" font-size="13" lengthAdjust="spacing" textLength="6" x="767.1069" y="297.9475">*</text></g><!--MD5=[85831118c73c5cf7daad5212dd0055fa]
reverse link GridFieldCache to GridRowCacheFieldNotifierImpl--><g id="link_GridFieldCache_GridRowCacheFieldNotifierImpl"><path codeLine="40" d="M333.05,92.73 C372.9,81.2 422.27,66.93 463.49,55.01 " fill="none" id="GridFieldCache-backto-GridRowCacheFieldNotifierImpl" style="stroke:#181818;stroke-width:1.0;"/><polygon fill="#181818" points="328.24,94.12,337.9963,95.4668,333.0438,92.7332,335.7774,87.7807,328.24,94.12" style="stroke:#181818;stroke-width:1.0;"/></g><!--MD5=[42d53c9c633e372b77c9f65821ab166d]
link GridRowCacheFieldNotifierImpl to GridRowCacheFieldNotifier--><g id="link_GridRowCacheFieldNotifierImpl_GridRowCacheFieldNotifier"><path codeLine="41" d="M677.39,31.39 C699.55,31.46 722.6,31.53 744.84,31.6 " fill="none" id="GridRowCacheFieldNotifierImpl-to-GridRowCacheFieldNotifier" style="stroke:#181818;stroke-width:1.0;"/><polygon fill="none" points="745.01,24.6,764.99,31.66,744.97,38.6,745.01,24.6" style="stroke:#181818;stroke-width:1.0;"/></g><!--MD5=[b2e7ddc706f72180cb46b42056c8000d]
@startuml block/row/cell relation
skinparam classFontStyle Bold
skinparam ActivityBackgroundColor Silver
skinparam ActivityBorderColor DimGray
left to right direction

interface GridRowCacheFieldNotifier
class GridFieldCache #B6FADC
class GridBlockCache #B6FADC
class GridRowCache #B6FADC
class GridCellCache #B6FADC

GridBloc - -> GridService
GridBloc - -> GridFieldCache: own
GridBloc "1" *- - "*" GridBlockCache: own

GridBlockCache - -> GridBlockPB

'FieldCache
GridFieldCache ..> GridFieldChangesetPB


'Row Cache
GridBlockCache - -> GridRowCache : own
GridRowCache - -> GridBlockChangesetPB
GridRowCache - -> GridCellCache: own
GridRowCache - -> GridRowCacheFieldNotifier
GridRowCache "1" *- - "*" GridRowInfo
GridRowInfo - -> GridRowPB
GridRowInfo "1" o- - "*" GridFieldPB


'Cell Cache
GridCellCache "1" *- - "*" GridCell : Generic cell data
GridCellCache - -> GridCellCacheKey

'Listener
GridBlockCache - -> GridBlockListener
GridBlockListener "1" *- - "*" GridBlockChangesetPB

GridRowCacheFieldNotifierImpl -u-> GridFieldCache
GridRowCacheFieldNotifierImpl - -|> GridRowCacheFieldNotifier

@enduml

@startuml block/row/cell relation
skinparam classFontStyle Bold
skinparam ActivityBackgroundColor Silver
skinparam ActivityBorderColor DimGray
left to right direction

interface GridRowCacheFieldNotifier
class GridFieldCache #B6FADC
class GridBlockCache #B6FADC
class GridRowCache #B6FADC
class GridCellCache #B6FADC

GridBloc - -> GridService
GridBloc - -> GridFieldCache: own
GridBloc "1" *- - "*" GridBlockCache: own

GridBlockCache - -> GridBlockPB

GridFieldCache ..> GridFieldChangesetPB


GridBlockCache - -> GridRowCache : own
GridRowCache - -> GridBlockChangesetPB
GridRowCache - -> GridCellCache: own
GridRowCache - -> GridRowCacheFieldNotifier
GridRowCache "1" *- - "*" GridRowInfo
GridRowInfo - -> GridRowPB
GridRowInfo "1" o- - "*" GridFieldPB


GridCellCache "1" *- - "*" GridCell : Generic cell data
GridCellCache - -> GridCellCacheKey

GridBlockCache - -> GridBlockListener
GridBlockListener "1" *- - "*" GridBlockChangesetPB

GridRowCacheFieldNotifierImpl -u-> GridFieldCache
GridRowCacheFieldNotifierImpl - -|> GridRowCacheFieldNotifier

@enduml

PlantUML version 1.2022.5(Sat Apr 30 18:55:52 CST 2022)
(GPL source distribution)
Java Runtime: OpenJDK Runtime Environment
JVM: OpenJDK 64-Bit Server VM
Default Encoding: UTF-8
Language: en
Country: US
--></g></svg>