<?xml version="1.0" encoding="UTF-8" standalone="no"?><svg xmlns="http://www.w3.org/2000/svg" xmlns:xlink="http://www.w3.org/1999/xlink" contentStyleType="text/css" height="560px" preserveAspectRatio="none" style="width:1010px;height:560px;background:#FFFFFF;" version="1.1" viewBox="0 0 1010 560" width="1010px" zoomAndPan="magnify"><defs/><g><!--MD5=[23be4c98b4e9620aa36e258914fd0986]
class IGridCellDataPersistence--><g id="elem_IGridCellDataPersistence"><rect codeLine="6" fill="#F1F1F1" height="48" id="IGridCellDataPersistence" rx="2.5" ry="2.5" style="stroke:#181818;stroke-width:0.5;" width="210" x="235" y="7"/><ellipse cx="250" cy="23" fill="#B4A7E5" rx="11" ry="11" style="stroke:#181818;stroke-width:1.0;"/><path d="M246.4277,19.2651 L246.4277,17.1069 L253.8071,17.1069 L253.8071,19.2651 L251.3418,19.2651 L251.3418,27.3418 L253.8071,27.3418 L253.8071,29.5 L246.4277,29.5 L246.4277,27.3418 L248.8931,27.3418 L248.8931,19.2651 Z " fill="#000000"/><text fill="#000000" font-family="sans-serif" font-size="14" font-style="italic" font-weight="bold" lengthAdjust="spacing" textLength="178" x="264" y="28.291">IGridCellDataPersistence</text><line style="stroke:#181818;stroke-width:0.5;" x1="236" x2="444" y1="39" y2="39"/><line style="stroke:#181818;stroke-width:0.5;" x1="236" x2="444" y1="47" y2="47"/></g><!--MD5=[51cd598af29de75b3ea2e5bc536ca08a]
class IGridCellController--><g id="elem_IGridCellController"><rect codeLine="7" fill="#F1F1F1" height="48" id="IGridCellController" rx="2.5" ry="2.5" style="stroke:#181818;stroke-width:0.5;" width="168" x="7" y="256"/><ellipse cx="22" cy="272" fill="#B4A7E5" rx="11" ry="11" style="stroke:#181818;stroke-width:1.0;"/><path d="M18.4277,268.2651 L18.4277,266.1069 L25.8071,266.1069 L25.8071,268.2651 L23.3418,268.2651 L23.3418,276.3418 L25.8071,276.3418 L25.8071,278.5 L18.4277,278.5 L18.4277,276.3418 L20.8931,276.3418 L20.8931,268.2651 Z " fill="#000000"/><text fill="#000000" font-family="sans-serif" font-size="14" font-style="italic" font-weight="bold" lengthAdjust="spacing" textLength="136" x="36" y="277.291">IGridCellController</text><line style="stroke:#181818;stroke-width:0.5;" x1="8" x2="174" y1="288" y2="288"/><line style="stroke:#181818;stroke-width:0.5;" x1="8" x2="174" y1="296" y2="296"/></g><!--MD5=[6b67ec2f2a3dbf86360d62544f7e3220]
class IGridCellDataParser--><g id="elem_IGridCellDataParser"><rect codeLine="8" fill="#F1F1F1" height="48" id="IGridCellDataParser" rx="2.5" ry="2.5" style="stroke:#181818;stroke-width:0.5;" width="173" x="522.5" y="339"/><ellipse cx="537.5" cy="355" fill="#B4A7E5" rx="11" ry="11" style="stroke:#181818;stroke-width:1.0;"/><path d="M533.9277,351.2651 L533.9277,349.1069 L541.3071,349.1069 L541.3071,351.2651 L538.8418,351.2651 L538.8418,359.3418 L541.3071,359.3418 L541.3071,361.5 L533.9277,361.5 L533.9277,359.3418 L536.3931,359.3418 L536.3931,351.2651 Z " fill="#000000"/><text fill="#000000" font-family="sans-serif" font-size="14" font-style="italic" font-weight="bold" lengthAdjust="spacing" textLength="141" x="551.5" y="360.291">IGridCellDataParser</text><line style="stroke:#181818;stroke-width:0.5;" x1="523.5" x2="694.5" y1="371" y2="371"/><line style="stroke:#181818;stroke-width:0.5;" x1="523.5" x2="694.5" y1="379" y2="379"/></g><!--MD5=[1f144cc092e6ed242406a8d1767211ef]
class TypeOptionDataParser--><g id="elem_TypeOptionDataParser"><rect codeLine="9" fill="#F1F1F1" height="48" id="TypeOptionDataParser" rx="2.5" ry="2.5" style="stroke:#181818;stroke-width:0.5;" width="195" x="242.5" y="90"/><ellipse cx="257.5" cy="106" fill="#B4A7E5" rx="11" ry="11" style="stroke:#181818;stroke-width:1.0;"/><path d="M253.9277,102.2651 L253.9277,100.1069 L261.3071,100.1069 L261.3071,102.2651 L258.8418,102.2651 L258.8418,110.3418 L261.3071,110.3418 L261.3071,112.5 L253.9277,112.5 L253.9277,110.3418 L256.3931,110.3418 L256.3931,102.2651 Z " fill="#000000"/><text fill="#000000" font-family="sans-serif" font-size="14" font-style="italic" font-weight="bold" lengthAdjust="spacing" textLength="163" x="271.5" y="111.291">TypeOptionDataParser</text><line style="stroke:#181818;stroke-width:0.5;" x1="243.5" x2="436.5" y1="122" y2="122"/><line style="stroke:#181818;stroke-width:0.5;" x1="243.5" x2="436.5" y1="130" y2="130"/></g><!--MD5=[d74a993f36f6cd7de80cff0e6a8c0936]
class GridCellIdentifier--><g id="elem_GridCellIdentifier"><rect fill="#F1F1F1" height="48" id="GridCellIdentifier" rx="2.5" ry="2.5" style="stroke:#181818;stroke-width:0.5;" width="157" x="261.5" y="173"/><ellipse cx="276.5" cy="189" fill="#ADD1B2" rx="11" ry="11" style="stroke:#181818;stroke-width:1.0;"/><path d="M278.9731,195.1431 Q278.3921,195.4419 277.7529,195.5913 Q277.1138,195.7407 276.4082,195.7407 Q273.9014,195.7407 272.5815,194.0889 Q271.2617,192.437 271.2617,189.3159 Q271.2617,186.1865 272.5815,184.5347 Q273.9014,182.8828 276.4082,182.8828 Q277.1138,182.8828 277.7612,183.0322 Q278.4087,183.1816 278.9731,183.4805 L278.9731,186.2031 Q278.3423,185.6221 277.7488,185.3523 Q277.1553,185.0825 276.5244,185.0825 Q275.1797,185.0825 274.4949,186.1492 Q273.8101,187.2158 273.8101,189.3159 Q273.8101,191.4077 274.4949,192.4744 Q275.1797,193.541 276.5244,193.541 Q277.1553,193.541 277.7488,193.2712 Q278.3423,193.0015 278.9731,192.4204 Z " fill="#000000"/><text fill="#000000" font-family="sans-serif" font-size="14" font-weight="bold" lengthAdjust="spacing" textLength="125" x="290.5" y="194.291">GridCellIdentifier</text><line style="stroke:#181818;stroke-width:0.5;" x1="262.5" x2="417.5" y1="205" y2="205"/><line style="stroke:#181818;stroke-width:0.5;" x1="262.5" x2="417.5" y1="213" y2="213"/></g><!--MD5=[272d7f24d25ec9e876b4c4bcbecd9e8b]
class CellListener--><g id="elem_CellListener"><rect fill="#F1F1F1" height="48" id="CellListener" rx="2.5" ry="2.5" style="stroke:#181818;stroke-width:0.5;" width="118" x="281" y="256"/><ellipse cx="296" cy="272" fill="#ADD1B2" rx="11" ry="11" style="stroke:#181818;stroke-width:1.0;"/><path d="M298.4731,278.1431 Q297.8921,278.4419 297.2529,278.5913 Q296.6138,278.7407 295.9082,278.7407 Q293.4014,278.7407 292.0815,277.0889 Q290.7617,275.437 290.7617,272.3159 Q290.7617,269.1865 292.0815,267.5347 Q293.4014,265.8828 295.9082,265.8828 Q296.6138,265.8828 297.2612,266.0322 Q297.9087,266.1816 298.4731,266.4805 L298.4731,269.2031 Q297.8423,268.6221 297.2488,268.3523 Q296.6553,268.0825 296.0244,268.0825 Q294.6797,268.0825 293.9949,269.1492 Q293.3101,270.2158 293.3101,272.3159 Q293.3101,274.4077 293.9949,275.4744 Q294.6797,276.541 296.0244,276.541 Q296.6553,276.541 297.2488,276.2712 Q297.8423,276.0015 298.4731,275.4204 Z " fill="#000000"/><text fill="#000000" font-family="sans-serif" font-size="14" font-weight="bold" lengthAdjust="spacing" textLength="86" x="310" y="277.291">CellListener</text><line style="stroke:#181818;stroke-width:0.5;" x1="282" x2="398" y1="288" y2="288"/><line style="stroke:#181818;stroke-width:0.5;" x1="282" x2="398" y1="296" y2="296"/></g><!--MD5=[fa71891c247244992351c586d176dece]
class GridCellDataLoader--><g id="elem_GridCellDataLoader"><rect fill="#F1F1F1" height="48" id="GridCellDataLoader" rx="2.5" ry="2.5" style="stroke:#181818;stroke-width:0.5;" width="171" x="254.5" y="339"/><ellipse cx="269.5" cy="355" fill="#ADD1B2" rx="11" ry="11" style="stroke:#181818;stroke-width:1.0;"/><path d="M271.9731,361.1431 Q271.3921,361.4419 270.7529,361.5913 Q270.1138,361.7407 269.4082,361.7407 Q266.9014,361.7407 265.5815,360.0889 Q264.2617,358.437 264.2617,355.3159 Q264.2617,352.1865 265.5815,350.5347 Q266.9014,348.8828 269.4082,348.8828 Q270.1138,348.8828 270.7612,349.0322 Q271.4087,349.1816 271.9731,349.4805 L271.9731,352.2031 Q271.3423,351.6221 270.7488,351.3523 Q270.1553,351.0825 269.5244,351.0825 Q268.1797,351.0825 267.4949,352.1492 Q266.8101,353.2158 266.8101,355.3159 Q266.8101,357.4077 267.4949,358.4744 Q268.1797,359.541 269.5244,359.541 Q270.1553,359.541 270.7488,359.2712 Q271.3423,359.0015 271.9731,358.4204 Z " fill="#000000"/><text fill="#000000" font-family="sans-serif" font-size="14" font-weight="bold" lengthAdjust="spacing" textLength="139" x="283.5" y="360.291">GridCellDataLoader</text><line style="stroke:#181818;stroke-width:0.5;" x1="255.5" x2="424.5" y1="371" y2="371"/><line style="stroke:#181818;stroke-width:0.5;" x1="255.5" x2="424.5" y1="379" y2="379"/></g><!--MD5=[0140f3a471e40892f7cdf89be4123193]
class CellService--><g id="elem_CellService"><rect fill="#F1F1F1" height="48" id="CellService" rx="2.5" ry="2.5" style="stroke:#181818;stroke-width:0.5;" width="110" x="833" y="90"/><ellipse cx="848" cy="106" fill="#ADD1B2" rx="11" ry="11" style="stroke:#181818;stroke-width:1.0;"/><path d="M850.4731,112.1431 Q849.8921,112.4419 849.2529,112.5913 Q848.6138,112.7407 847.9082,112.7407 Q845.4014,112.7407 844.0815,111.0889 Q842.7617,109.437 842.7617,106.3159 Q842.7617,103.1865 844.0815,101.5347 Q845.4014,99.8828 847.9082,99.8828 Q848.6138,99.8828 849.2612,100.0322 Q849.9087,100.1816 850.4731,100.4805 L850.4731,103.2031 Q849.8423,102.6221 849.2488,102.3523 Q848.6553,102.0825 848.0244,102.0825 Q846.6797,102.0825 845.9949,103.1492 Q845.3101,104.2158 845.3101,106.3159 Q845.3101,108.4077 845.9949,109.4744 Q846.6797,110.541 848.0244,110.541 Q848.6553,110.541 849.2488,110.2712 Q849.8423,110.0015 850.4731,109.4204 Z " fill="#000000"/><text fill="#000000" font-family="sans-serif" font-size="14" font-weight="bold" lengthAdjust="spacing" textLength="78" x="862" y="111.291">CellService</text><line style="stroke:#181818;stroke-width:0.5;" x1="834" x2="942" y1="122" y2="122"/><line style="stroke:#181818;stroke-width:0.5;" x1="834" x2="942" y1="130" y2="130"/></g><!--MD5=[432129e6c975dc90a251b9986ad04181]
class StringCellDataParser--><g id="elem_StringCellDataParser"><rect fill="#F1F1F1" height="48" id="StringCellDataParser" rx="2.5" ry="2.5" style="stroke:#181818;stroke-width:0.5;" width="181" x="797.5" y="214"/><ellipse cx="812.5" cy="230" fill="#ADD1B2" rx="11" ry="11" style="stroke:#181818;stroke-width:1.0;"/><path d="M814.9731,236.1431 Q814.3921,236.4419 813.7529,236.5913 Q813.1138,236.7407 812.4082,236.7407 Q809.9014,236.7407 808.5815,235.0889 Q807.2617,233.437 807.2617,230.3159 Q807.2617,227.1865 808.5815,225.5347 Q809.9014,223.8828 812.4082,223.8828 Q813.1138,223.8828 813.7612,224.0322 Q814.4087,224.1816 814.9731,224.4805 L814.9731,227.2031 Q814.3423,226.6221 813.7488,226.3523 Q813.1553,226.0825 812.5244,226.0825 Q811.1797,226.0825 810.4949,227.1492 Q809.8101,228.2158 809.8101,230.3159 Q809.8101,232.4077 810.4949,233.4744 Q811.1797,234.541 812.5244,234.541 Q813.1553,234.541 813.7488,234.2712 Q814.3423,234.0015 814.9731,233.4204 Z " fill="#000000"/><text fill="#000000" font-family="sans-serif" font-size="14" font-weight="bold" lengthAdjust="spacing" textLength="149" x="826.5" y="235.291">StringCellDataParser</text><line style="stroke:#181818;stroke-width:0.5;" x1="798.5" x2="977.5" y1="246" y2="246"/><line style="stroke:#181818;stroke-width:0.5;" x1="798.5" x2="977.5" y1="254" y2="254"/></g><!--MD5=[6503916b4c83aa9adbbc828e7376dc28]
class DateCellDataParser--><g id="elem_DateCellDataParser"><rect fill="#F1F1F1" height="48" id="DateCellDataParser" rx="2.5" ry="2.5" style="stroke:#181818;stroke-width:0.5;" width="171" x="802.5" y="297"/><ellipse cx="817.5" cy="313" fill="#ADD1B2" rx="11" ry="11" style="stroke:#181818;stroke-width:1.0;"/><path d="M819.9731,319.1431 Q819.3921,319.4419 818.7529,319.5913 Q818.1138,319.7407 817.4082,319.7407 Q814.9014,319.7407 813.5815,318.0889 Q812.2617,316.437 812.2617,313.3159 Q812.2617,310.1865 813.5815,308.5347 Q814.9014,306.8828 817.4082,306.8828 Q818.1138,306.8828 818.7612,307.0322 Q819.4087,307.1816 819.9731,307.4805 L819.9731,310.2031 Q819.3423,309.6221 818.7488,309.3523 Q818.1553,309.0825 817.5244,309.0825 Q816.1797,309.0825 815.4949,310.1492 Q814.8101,311.2158 814.8101,313.3159 Q814.8101,315.4077 815.4949,316.4744 Q816.1797,317.541 817.5244,317.541 Q818.1553,317.541 818.7488,317.2712 Q819.3423,317.0015 819.9731,316.4204 Z " fill="#000000"/><text fill="#000000" font-family="sans-serif" font-size="14" font-weight="bold" lengthAdjust="spacing" textLength="139" x="831.5" y="318.291">DateCellDataParser</text><line style="stroke:#181818;stroke-width:0.5;" x1="803.5" x2="972.5" y1="329" y2="329"/><line style="stroke:#181818;stroke-width:0.5;" x1="803.5" x2="972.5" y1="337" y2="337"/></g><!--MD5=[ca46ad8f0a3aa65975b9c10fb34e7c11]
class SelectOptionCellDataParser--><g id="elem_SelectOptionCellDataParser"><rect fill="#F1F1F1" height="48" id="SelectOptionCellDataParser" rx="2.5" ry="2.5" style="stroke:#181818;stroke-width:0.5;" width="230" x="773" y="380"/><ellipse cx="788" cy="396" fill="#ADD1B2" rx="11" ry="11" style="stroke:#181818;stroke-width:1.0;"/><path d="M790.4731,402.1431 Q789.8921,402.4419 789.2529,402.5913 Q788.6138,402.7407 787.9082,402.7407 Q785.4014,402.7407 784.0815,401.0889 Q782.7617,399.437 782.7617,396.3159 Q782.7617,393.1865 784.0815,391.5347 Q785.4014,389.8828 787.9082,389.8828 Q788.6138,389.8828 789.2612,390.0322 Q789.9087,390.1816 790.4731,390.4805 L790.4731,393.2031 Q789.8423,392.6221 789.2488,392.3523 Q788.6553,392.0825 788.0244,392.0825 Q786.6797,392.0825 785.9949,393.1492 Q785.3101,394.2158 785.3101,396.3159 Q785.3101,398.4077 785.9949,399.4744 Q786.6797,400.541 788.0244,400.541 Q788.6553,400.541 789.2488,400.2712 Q789.8423,400.0015 790.4731,399.4204 Z " fill="#000000"/><text fill="#000000" font-family="sans-serif" font-size="14" font-weight="bold" lengthAdjust="spacing" textLength="198" x="802" y="401.291">SelectOptionCellDataParser</text><line style="stroke:#181818;stroke-width:0.5;" x1="774" x2="1002" y1="412" y2="412"/><line style="stroke:#181818;stroke-width:0.5;" x1="774" x2="1002" y1="420" y2="420"/></g><!--MD5=[96abf0086336e78566c8898c90965bb1]
class URLCellDataParser--><g id="elem_URLCellDataParser"><rect fill="#F1F1F1" height="48" id="URLCellDataParser" rx="2.5" ry="2.5" style="stroke:#181818;stroke-width:0.5;" width="166" x="805" y="463"/><ellipse cx="820" cy="479" fill="#ADD1B2" rx="11" ry="11" style="stroke:#181818;stroke-width:1.0;"/><path d="M822.4731,485.1431 Q821.8921,485.4419 821.2529,485.5913 Q820.6138,485.7407 819.9082,485.7407 Q817.4014,485.7407 816.0815,484.0889 Q814.7617,482.437 814.7617,479.3159 Q814.7617,476.1865 816.0815,474.5347 Q817.4014,472.8828 819.9082,472.8828 Q820.6138,472.8828 821.2612,473.0322 Q821.9087,473.1816 822.4731,473.4805 L822.4731,476.2031 Q821.8423,475.6221 821.2488,475.3523 Q820.6553,475.0825 820.0244,475.0825 Q818.6797,475.0825 817.9949,476.1492 Q817.3101,477.2158 817.3101,479.3159 Q817.3101,481.4077 817.9949,482.4744 Q818.6797,483.541 820.0244,483.541 Q820.6553,483.541 821.2488,483.2712 Q821.8423,483.0015 822.4731,482.4204 Z " fill="#000000"/><text fill="#000000" font-family="sans-serif" font-size="14" font-weight="bold" lengthAdjust="spacing" textLength="134" x="834" y="484.291">URLCellDataParser</text><line style="stroke:#181818;stroke-width:0.5;" x1="806" x2="970" y1="495" y2="495"/><line style="stroke:#181818;stroke-width:0.5;" x1="806" x2="970" y1="503" y2="503"/></g><!--MD5=[64596bf797181233ea1f132a2228edec]
class GridCellCache--><g id="elem_GridCellCache"><rect fill="#F1F1F1" height="48" id="GridCellCache" rx="2.5" ry="2.5" style="stroke:#181818;stroke-width:0.5;" width="132" x="274" y="422"/><ellipse cx="289" cy="438" fill="#ADD1B2" rx="11" ry="11" style="stroke:#181818;stroke-width:1.0;"/><path d="M291.4731,444.1431 Q290.8921,444.4419 290.2529,444.5913 Q289.6138,444.7407 288.9082,444.7407 Q286.4014,444.7407 285.0815,443.0889 Q283.7617,441.437 283.7617,438.3159 Q283.7617,435.1865 285.0815,433.5347 Q286.4014,431.8828 288.9082,431.8828 Q289.6138,431.8828 290.2612,432.0322 Q290.9087,432.1816 291.4731,432.4805 L291.4731,435.2031 Q290.8423,434.6221 290.2488,434.3523 Q289.6553,434.0825 289.0244,434.0825 Q287.6797,434.0825 286.9949,435.1492 Q286.3101,436.2158 286.3101,438.3159 Q286.3101,440.4077 286.9949,441.4744 Q287.6797,442.541 289.0244,442.541 Q289.6553,442.541 290.2488,442.2712 Q290.8423,442.0015 291.4731,441.4204 Z " fill="#000000"/><text fill="#000000" font-family="sans-serif" font-size="14" font-weight="bold" lengthAdjust="spacing" textLength="100" x="303" y="443.291">GridCellCache</text><line style="stroke:#181818;stroke-width:0.5;" x1="275" x2="405" y1="454" y2="454"/><line style="stroke:#181818;stroke-width:0.5;" x1="275" x2="405" y1="462" y2="462"/></g><!--MD5=[2c4a8191934d89a09f3712c9f5e0e5b0]
class DateCellDataPersistence--><g id="elem_DateCellDataPersistence"><rect fill="#F1F1F1" height="48" id="DateCellDataPersistence" rx="2.5" ry="2.5" style="stroke:#181818;stroke-width:0.5;" width="208" x="505" y="7"/><ellipse cx="520" cy="23" fill="#ADD1B2" rx="11" ry="11" style="stroke:#181818;stroke-width:1.0;"/><path d="M522.4731,29.1431 Q521.8921,29.4419 521.2529,29.5913 Q520.6138,29.7407 519.9082,29.7407 Q517.4014,29.7407 516.0815,28.0889 Q514.7617,26.437 514.7617,23.3159 Q514.7617,20.1865 516.0815,18.5347 Q517.4014,16.8828 519.9082,16.8828 Q520.6138,16.8828 521.2612,17.0322 Q521.9087,17.1816 522.4731,17.4805 L522.4731,20.2031 Q521.8423,19.6221 521.2488,19.3523 Q520.6553,19.0825 520.0244,19.0825 Q518.6797,19.0825 517.9949,20.1492 Q517.3101,21.2158 517.3101,23.3159 Q517.3101,25.4077 517.9949,26.4744 Q518.6797,27.541 520.0244,27.541 Q520.6553,27.541 521.2488,27.2712 Q521.8423,27.0015 522.4731,26.4204 Z " fill="#000000"/><text fill="#000000" font-family="sans-serif" font-size="14" font-weight="bold" lengthAdjust="spacing" textLength="176" x="534" y="28.291">DateCellDataPersistence</text><line style="stroke:#181818;stroke-width:0.5;" x1="506" x2="712" y1="39" y2="39"/><line style="stroke:#181818;stroke-width:0.5;" x1="506" x2="712" y1="47" y2="47"/></g><!--MD5=[6ae7055979c2d90b52b3f1c431a9fa04]
class CellDataPersistence--><g id="elem_CellDataPersistence"><rect fill="#F1F1F1" height="48" id="CellDataPersistence" rx="2.5" ry="2.5" style="stroke:#181818;stroke-width:0.5;" width="175" x="521.5" y="90"/><ellipse cx="536.5" cy="106" fill="#ADD1B2" rx="11" ry="11" style="stroke:#181818;stroke-width:1.0;"/><path d="M538.9731,112.1431 Q538.3921,112.4419 537.7529,112.5913 Q537.1138,112.7407 536.4082,112.7407 Q533.9014,112.7407 532.5815,111.0889 Q531.2617,109.437 531.2617,106.3159 Q531.2617,103.1865 532.5815,101.5347 Q533.9014,99.8828 536.4082,99.8828 Q537.1138,99.8828 537.7612,100.0322 Q538.4087,100.1816 538.9731,100.4805 L538.9731,103.2031 Q538.3423,102.6221 537.7488,102.3523 Q537.1553,102.0825 536.5244,102.0825 Q535.1797,102.0825 534.4949,103.1492 Q533.8101,104.2158 533.8101,106.3159 Q533.8101,108.4077 534.4949,109.4744 Q535.1797,110.541 536.5244,110.541 Q537.1553,110.541 537.7488,110.2712 Q538.3423,110.0015 538.9731,109.4204 Z " fill="#000000"/><text fill="#000000" font-family="sans-serif" font-size="14" font-weight="bold" lengthAdjust="spacing" textLength="143" x="550.5" y="111.291">CellDataPersistence</text><line style="stroke:#181818;stroke-width:0.5;" x1="522.5" x2="695.5" y1="122" y2="122"/><line style="stroke:#181818;stroke-width:0.5;" x1="522.5" x2="695.5" y1="130" y2="130"/></g><!--MD5=[f696e707fdca492a2603bf38737624db]
class GridCellFieldNotifier--><g id="elem_GridCellFieldNotifier"><rect fill="#F1F1F1" height="48" id="GridCellFieldNotifier" rx="2.5" ry="2.5" style="stroke:#181818;stroke-width:0.5;" width="181" x="249.5" y="505"/><ellipse cx="264.5" cy="521" fill="#ADD1B2" rx="11" ry="11" style="stroke:#181818;stroke-width:1.0;"/><path d="M266.9731,527.1431 Q266.3921,527.4419 265.7529,527.5913 Q265.1138,527.7407 264.4082,527.7407 Q261.9014,527.7407 260.5815,526.0889 Q259.2617,524.437 259.2617,521.3159 Q259.2617,518.1865 260.5815,516.5347 Q261.9014,514.8828 264.4082,514.8828 Q265.1138,514.8828 265.7612,515.0322 Q266.4087,515.1816 266.9731,515.4805 L266.9731,518.2031 Q266.3423,517.6221 265.7488,517.3523 Q265.1553,517.0825 264.5244,517.0825 Q263.1797,517.0825 262.4949,518.1492 Q261.8101,519.2158 261.8101,521.3159 Q261.8101,523.4077 262.4949,524.4744 Q263.1797,525.541 264.5244,525.541 Q265.1553,525.541 265.7488,525.2712 Q266.3423,525.0015 266.9731,524.4204 Z " fill="#000000"/><text fill="#000000" font-family="sans-serif" font-size="14" font-weight="bold" lengthAdjust="spacing" textLength="149" x="278.5" y="526.291">GridCellFieldNotifier</text><line style="stroke:#181818;stroke-width:0.5;" x1="250.5" x2="429.5" y1="537" y2="537"/><line style="stroke:#181818;stroke-width:0.5;" x1="250.5" x2="429.5" y1="545" y2="545"/></g><!--MD5=[fafd82183d62db5c1119a75cbe401100]
link IGridCellController to GridCellIdentifier--><g id="link_IGridCellController_GridCellIdentifier"><path codeLine="11" d="M163.44,255.99 C194.41,245.59 230.73,233.38 262.27,222.78 " fill="none" id="IGridCellController-to-GridCellIdentifier" style="stroke:#181818;stroke-width:1.0;"/><polygon fill="#181818" points="267.29,221.1,257.4836,220.1867,262.5523,222.6983,260.0408,227.767,267.29,221.1" style="stroke:#181818;stroke-width:1.0;"/></g><!--MD5=[b7bdd54bc00fb5c339d999f48cec1ec4]
link IGridCellController to CellListener--><g id="link_IGridCellController_CellListener"><path codeLine="12" d="M175.28,280 C207.98,280 244.9,280 275.4,280 " fill="none" id="IGridCellController-to-CellListener" style="stroke:#181818;stroke-width:1.0;"/><polygon fill="#181818" points="280.63,280,271.63,276,275.63,280,271.63,284,280.63,280" style="stroke:#181818;stroke-width:1.0;"/></g><!--MD5=[ab33eec44912142794879967114969ad]
link IGridCellController to TypeOptionDataParser--><g id="link_IGridCellController_TypeOptionDataParser"><path codeLine="13" d="M114.78,255.56 C141.44,228.11 187.97,183.64 235,155 C243.9,149.58 253.65,144.63 263.49,140.19 " fill="none" id="IGridCellController-to-TypeOptionDataParser" style="stroke:#181818;stroke-width:1.0;"/><polygon fill="#181818" points="268.33,138.05,258.4812,138.0185,263.7545,140.0661,261.7069,145.3394,268.33,138.05" style="stroke:#181818;stroke-width:1.0;"/></g><!--MD5=[77349fc750c146162aca34e1e16e187e]
link IGridCellController to GridCellDataLoader--><g id="link_IGridCellController_GridCellDataLoader"><path codeLine="16" d="M163.44,304.01 C194.41,314.41 230.73,326.62 262.27,337.22 " fill="none" id="IGridCellController-to-GridCellDataLoader" style="stroke:#181818;stroke-width:1.0;"/><polygon fill="#181818" points="267.29,338.9,260.0408,332.233,262.5523,337.3017,257.4836,339.8133,267.29,338.9" style="stroke:#181818;stroke-width:1.0;"/></g><!--MD5=[e2e52d7baaae514164df6f726c14dbc9]
link GridCellDataLoader to IGridCellDataParser--><g id="link_GridCellDataLoader_IGridCellDataParser"><path codeLine="17" d="M425.85,363 C455.01,363 487.75,363 517.35,363 " fill="none" id="GridCellDataLoader-to-IGridCellDataParser" style="stroke:#181818;stroke-width:1.0;"/><polygon fill="#181818" points="522.46,363,513.46,359,517.46,363,513.46,367,522.46,363" style="stroke:#181818;stroke-width:1.0;"/></g><!--MD5=[854baced14298a05c788cef7c261871e]
link GridCellDataLoader to CellService--><g id="link_GridCellDataLoader_CellService"><path codeLine="18" d="M402.27,338.9 C416.37,333.18 431.25,326.99 445,321 C586.47,259.36 750.36,180.66 833.16,140.37 " fill="none" id="GridCellDataLoader-to-CellService" style="stroke:#181818;stroke-width:1.0;"/><polygon fill="#181818" points="838.01,138.01,828.1668,138.3441,833.5125,140.1945,831.662,145.5402,838.01,138.01" style="stroke:#181818;stroke-width:1.0;"/></g><!--MD5=[658249dab17afde61614b6e8dc6bb51e]
reverse link IGridCellDataParser to StringCellDataParser--><g id="link_IGridCellDataParser_StringCellDataParser"><path codeLine="21" d="M670.68,329.33 C700.97,313.15 738.43,294.05 773,279 C786.6,273.08 801.35,267.31 815.59,262.06 " fill="none" id="IGridCellDataParser-backto-StringCellDataParser" style="stroke:#181818;stroke-width:1.0;"/><polygon fill="none" points="673.76,335.62,652.84,338.97,667.11,323.3,673.76,335.62" style="stroke:#181818;stroke-width:1.0;"/></g><!--MD5=[c0216bafa6d065d49aa9263684614181]
reverse link IGridCellDataParser to DateCellDataParser--><g id="link_IGridCellDataParser_DateCellDataParser"><path codeLine="22" d="M715.65,346.98 C744.25,342.64 774.84,338.01 802.13,333.87 " fill="none" id="IGridCellDataParser-backto-DateCellDataParser" style="stroke:#181818;stroke-width:1.0;"/><polygon fill="none" points="716.57,353.92,695.75,350,714.47,340.08,716.57,353.92" style="stroke:#181818;stroke-width:1.0;"/></g><!--MD5=[4bf70b2880151d83c24ae5f6ff41dfc1]
reverse link IGridCellDataParser to SelectOptionCellDataParser--><g id="link_IGridCellDataParser_SelectOptionCellDataParser"><path codeLine="23" d="M715.66,378.64 C734.38,381.41 753.94,384.31 772.88,387.11 " fill="none" id="IGridCellDataParser-backto-SelectOptionCellDataParser" style="stroke:#181818;stroke-width:1.0;"/><polygon fill="none" points="714.51,385.54,695.75,375.69,716.56,371.7,714.51,385.54" style="stroke:#181818;stroke-width:1.0;"/></g><!--MD5=[8e76d537e4678956aea3169fe272b2d9]
reverse link IGridCellDataParser to URLCellDataParser--><g id="link_IGridCellDataParser_URLCellDataParser"><path codeLine="24" d="M671.36,396.55 C701.54,412.46 738.72,431.18 773,446 C786.71,451.93 801.58,457.72 815.92,463 " fill="none" id="IGridCellDataParser-backto-URLCellDataParser" style="stroke:#181818;stroke-width:1.0;"/><polygon fill="none" points="667.92,402.65,653.56,387.07,674.5,390.3,667.92,402.65" style="stroke:#181818;stroke-width:1.0;"/></g><!--MD5=[1cbebda27f49f2a85388df2fbb876767]
link IGridCellController to GridCellCache--><g id="link_IGridCellController_GridCellCache"><path codeLine="27" d="M114.78,304.44 C141.44,331.89 187.97,376.36 235,405 C245.61,411.46 257.42,417.25 269.16,422.31 " fill="none" id="IGridCellController-to-GridCellCache" style="stroke:#181818;stroke-width:1.0;"/><polygon fill="#181818" points="273.82,424.28,267.0775,417.1009,269.2118,422.3397,263.9731,424.474,273.82,424.28" style="stroke:#181818;stroke-width:1.0;"/></g><!--MD5=[1746603d7d8fb4435cda632a9ef8e013]
link IGridCellController to IGridCellDataPersistence--><g id="link_IGridCellController_IGridCellDataPersistence"><path codeLine="31" d="M102.62,255.99 C122.63,213.3 169.84,123.84 235,72 C241.92,66.49 249.67,61.65 257.74,57.41 " fill="none" id="IGridCellController-to-IGridCellDataPersistence" style="stroke:#181818;stroke-width:1.0;"/><polygon fill="#181818" points="262.25,55.11,252.415,55.6326,257.7951,57.3803,256.0474,62.7604,262.25,55.11" style="stroke:#181818;stroke-width:1.0;"/></g><!--MD5=[4a08d431d4893f630acfe86f8722995d]
reverse link IGridCellDataPersistence to DateCellDataPersistence--><g id="link_IGridCellDataPersistence_DateCellDataPersistence"><path codeLine="32" d="M465.67,31 C478.69,31 491.83,31 504.57,31 " fill="none" id="IGridCellDataPersistence-backto-DateCellDataPersistence" style="stroke:#181818;stroke-width:1.0;"/><polygon fill="none" points="465.38,38,445.38,31,465.38,24,465.38,38" style="stroke:#181818;stroke-width:1.0;"/></g><!--MD5=[1d8f5432468ac36c2adecadb9b6569b8]
reverse link IGridCellDataPersistence to CellDataPersistence--><g id="link_IGridCellDataPersistence_CellDataPersistence"><path codeLine="33" d="M437.35,60.95 C467.95,70.47 501.39,80.86 530.48,89.9 " fill="none" id="IGridCellDataPersistence-backto-CellDataPersistence" style="stroke:#181818;stroke-width:1.0;"/><polygon fill="none" points="435.25,67.63,418.23,55.01,439.4,54.26,435.25,67.63" style="stroke:#181818;stroke-width:1.0;"/></g><!--MD5=[464ba975be027d4b90e9268a48d445eb]
link DateCellDataPersistence to CellService--><g id="link_DateCellDataPersistence_CellService"><path codeLine="35" d="M690.12,55.01 C734.19,68.21 787.9,84.31 828.09,96.35 " fill="none" id="DateCellDataPersistence-to-CellService" style="stroke:#181818;stroke-width:1.0;"/><polygon fill="#181818" points="832.92,97.8,825.4349,91.3989,828.1277,96.3737,823.1529,99.0665,832.92,97.8" style="stroke:#181818;stroke-width:1.0;"/></g><!--MD5=[843954b632355f47e3e49bbd8fe9666e]
link CellDataPersistence to CellService--><g id="link_CellDataPersistence_CellService"><path codeLine="36" d="M696.51,114 C739.19,114 789.59,114 827.83,114 " fill="none" id="CellDataPersistence-to-CellService" style="stroke:#181818;stroke-width:1.0;"/><polygon fill="#181818" points="832.9,114,823.9,110,827.9,114,823.9,118,832.9,114" style="stroke:#181818;stroke-width:1.0;"/></g><!--MD5=[f3aecf92ff4a606ba7ec8e451d16e892]
link IGridCellController to GridCellFieldNotifier--><g id="link_IGridCellController_GridCellFieldNotifier"><path codeLine="39" d="M102.62,304.01 C122.63,346.7 169.84,436.16 235,488 C241.92,493.51 249.67,498.35 257.74,502.59 " fill="none" id="IGridCellController-to-GridCellFieldNotifier" style="stroke:#181818;stroke-width:1.0;"/><polygon fill="#181818" points="262.25,504.89,256.0474,497.2396,257.7951,502.6197,252.415,504.3674,262.25,504.89" style="stroke:#181818;stroke-width:1.0;"/></g><!--MD5=[bf8af41109818314ece54f447aa27a8f]
@startuml Grid Cell Controller
skinparam classFontStyle Bold
skinparam ActivityBackgroundColor Silver
skinparam ActivityBorderColor DimGray
left to right direction

interface IGridCellDataPersistence
interface IGridCellController
interface IGridCellDataParser
interface TypeOptionDataParser

IGridCellController - -> GridCellIdentifier
IGridCellController - -> CellListener
IGridCellController - -> TypeOptionDataParser

'Data loader
IGridCellController - -> GridCellDataLoader
GridCellDataLoader - -> IGridCellDataParser
GridCellDataLoader - -> CellService

'Data parser
StringCellDataParser -u-|> IGridCellDataParser
DateCellDataParser -u-|> IGridCellDataParser
SelectOptionCellDataParser -u-|> IGridCellDataParser
URLCellDataParser -u-|> IGridCellDataParser

'Cache
IGridCellController - -> GridCellCache


'Persistence
IGridCellController - -> IGridCellDataPersistence
DateCellDataPersistence -u-|> IGridCellDataPersistence
CellDataPersistence -u-|> IGridCellDataPersistence

DateCellDataPersistence - -> CellService
CellDataPersistence - -> CellService

'Field
IGridCellController - -> GridCellFieldNotifier

@enduml

@startuml Grid Cell Controller
skinparam classFontStyle Bold
skinparam ActivityBackgroundColor Silver
skinparam ActivityBorderColor DimGray
left to right direction

interface IGridCellDataPersistence
interface IGridCellController
interface IGridCellDataParser
interface TypeOptionDataParser

IGridCellController - -> GridCellIdentifier
IGridCellController - -> CellListener
IGridCellController - -> TypeOptionDataParser

IGridCellController - -> GridCellDataLoader
GridCellDataLoader - -> IGridCellDataParser
GridCellDataLoader - -> CellService

StringCellDataParser -u-|> IGridCellDataParser
DateCellDataParser -u-|> IGridCellDataParser
SelectOptionCellDataParser -u-|> IGridCellDataParser
URLCellDataParser -u-|> IGridCellDataParser

IGridCellController - -> GridCellCache


IGridCellController - -> IGridCellDataPersistence
DateCellDataPersistence -u-|> IGridCellDataPersistence
CellDataPersistence -u-|> IGridCellDataPersistence

DateCellDataPersistence - -> CellService
CellDataPersistence - -> CellService

IGridCellController - -> GridCellFieldNotifier

@enduml

PlantUML version 1.2022.5(Sat Apr 30 18:55:52 CST 2022)
(GPL source distribution)
Java Runtime: OpenJDK Runtime Environment
JVM: OpenJDK 64-Bit Server VM
Default Encoding: UTF-8
Language: en
Country: US
--></g></svg>