<?xml version="1.0" encoding="UTF-8" standalone="no"?><svg xmlns="http://www.w3.org/2000/svg" xmlns:xlink="http://www.w3.org/1999/xlink" contentStyleType="text/css" height="145px" preserveAspectRatio="none" style="width:444px;height:145px;background:#FFFFFF;" version="1.1" viewBox="0 0 444 145" width="444px" zoomAndPan="magnify"><defs/><g><!--MD5=[5008464d59518d631676b150e33c64f2]
class GridPB--><g id="elem_GridPB"><rect fill="#F1F1F1" height="48" id="GridPB" rx="2.5" ry="2.5" style="stroke:#181818;stroke-width:0.5;" width="80" x="7" y="49"/><ellipse cx="22" cy="65" fill="#ADD1B2" rx="11" ry="11" style="stroke:#181818;stroke-width:1.0;"/><path d="M24.4731,71.1431 Q23.8921,71.4419 23.2529,71.5913 Q22.6138,71.7407 21.9082,71.7407 Q19.4014,71.7407 18.0815,70.0889 Q16.7617,68.437 16.7617,65.3159 Q16.7617,62.1865 18.0815,60.5347 Q19.4014,58.8828 21.9082,58.8828 Q22.6138,58.8828 23.2612,59.0322 Q23.9087,59.1816 24.4731,59.4805 L24.4731,62.2031 Q23.8423,61.6221 23.2488,61.3523 Q22.6553,61.0825 22.0244,61.0825 Q20.6797,61.0825 19.9949,62.1492 Q19.3101,63.2158 19.3101,65.3159 Q19.3101,67.4077 19.9949,68.4744 Q20.6797,69.541 22.0244,69.541 Q22.6553,69.541 23.2488,69.2712 Q23.8423,69.0015 24.4731,68.4204 Z " fill="#000000"/><text fill="#000000" font-family="sans-serif" font-size="14" font-weight="bold" lengthAdjust="spacing" textLength="48" x="36" y="70.291">GridPB</text><line style="stroke:#181818;stroke-width:0.5;" x1="8" x2="86" y1="81" y2="81"/><line style="stroke:#181818;stroke-width:0.5;" x1="8" x2="86" y1="89" y2="89"/></g><!--MD5=[76713377b83e4fde17cb5cd834c42b63]
class GridBlockPB--><g id="elem_GridBlockPB"><rect fill="#F1F1F1" height="48" id="GridBlockPB" rx="2.5" ry="2.5" style="stroke:#181818;stroke-width:0.5;" width="119" x="147" y="7"/><ellipse cx="162" cy="23" fill="#ADD1B2" rx="11" ry="11" style="stroke:#181818;stroke-width:1.0;"/><path d="M164.4731,29.1431 Q163.8921,29.4419 163.2529,29.5913 Q162.6138,29.7407 161.9082,29.7407 Q159.4014,29.7407 158.0815,28.0889 Q156.7617,26.437 156.7617,23.3159 Q156.7617,20.1865 158.0815,18.5347 Q159.4014,16.8828 161.9082,16.8828 Q162.6138,16.8828 163.2612,17.0322 Q163.9087,17.1816 164.4731,17.4805 L164.4731,20.2031 Q163.8423,19.6221 163.2488,19.3523 Q162.6553,19.0825 162.0244,19.0825 Q160.6797,19.0825 159.9949,20.1492 Q159.3101,21.2158 159.3101,23.3159 Q159.3101,25.4077 159.9949,26.4744 Q160.6797,27.541 162.0244,27.541 Q162.6553,27.541 163.2488,27.2712 Q163.8423,27.0015 164.4731,26.4204 Z " fill="#000000"/><text fill="#000000" font-family="sans-serif" font-size="14" font-weight="bold" lengthAdjust="spacing" textLength="87" x="176" y="28.291">GridBlockPB</text><line style="stroke:#181818;stroke-width:0.5;" x1="148" x2="265" y1="39" y2="39"/><line style="stroke:#181818;stroke-width:0.5;" x1="148" x2="265" y1="47" y2="47"/></g><!--MD5=[65b228fdf92ef8cdc8129bacccaf028a]
class GridFieldPB--><g id="elem_GridFieldPB"><rect fill="#F1F1F1" height="48" id="GridFieldPB" rx="2.5" ry="2.5" style="stroke:#181818;stroke-width:0.5;" width="115" x="149" y="90"/><ellipse cx="164" cy="106" fill="#ADD1B2" rx="11" ry="11" style="stroke:#181818;stroke-width:1.0;"/><path d="M166.4731,112.1431 Q165.8921,112.4419 165.2529,112.5913 Q164.6138,112.7407 163.9082,112.7407 Q161.4014,112.7407 160.0815,111.0889 Q158.7617,109.437 158.7617,106.3159 Q158.7617,103.1865 160.0815,101.5347 Q161.4014,99.8828 163.9082,99.8828 Q164.6138,99.8828 165.2612,100.0322 Q165.9087,100.1816 166.4731,100.4805 L166.4731,103.2031 Q165.8423,102.6221 165.2488,102.3523 Q164.6553,102.0825 164.0244,102.0825 Q162.6797,102.0825 161.9949,103.1492 Q161.3101,104.2158 161.3101,106.3159 Q161.3101,108.4077 161.9949,109.4744 Q162.6797,110.541 164.0244,110.541 Q164.6553,110.541 165.2488,110.2712 Q165.8423,110.0015 166.4731,109.4204 Z " fill="#000000"/><text fill="#000000" font-family="sans-serif" font-size="14" font-weight="bold" lengthAdjust="spacing" textLength="83" x="178" y="111.291">GridFieldPB</text><line style="stroke:#181818;stroke-width:0.5;" x1="150" x2="263" y1="122" y2="122"/><line style="stroke:#181818;stroke-width:0.5;" x1="150" x2="263" y1="130" y2="130"/></g><!--MD5=[3ccf0c413f3079b5ec7dd83f316c918f]
class GridRowPB--><g id="elem_GridRowPB"><rect fill="#F1F1F1" height="48" id="GridRowPB" rx="2.5" ry="2.5" style="stroke:#181818;stroke-width:0.5;" width="111" x="326" y="7"/><ellipse cx="341" cy="23" fill="#ADD1B2" rx="11" ry="11" style="stroke:#181818;stroke-width:1.0;"/><path d="M343.4731,29.1431 Q342.8921,29.4419 342.2529,29.5913 Q341.6138,29.7407 340.9082,29.7407 Q338.4014,29.7407 337.0815,28.0889 Q335.7617,26.437 335.7617,23.3159 Q335.7617,20.1865 337.0815,18.5347 Q338.4014,16.8828 340.9082,16.8828 Q341.6138,16.8828 342.2612,17.0322 Q342.9087,17.1816 343.4731,17.4805 L343.4731,20.2031 Q342.8423,19.6221 342.2488,19.3523 Q341.6553,19.0825 341.0244,19.0825 Q339.6797,19.0825 338.9949,20.1492 Q338.3101,21.2158 338.3101,23.3159 Q338.3101,25.4077 338.9949,26.4744 Q339.6797,27.541 341.0244,27.541 Q341.6553,27.541 342.2488,27.2712 Q342.8423,27.0015 343.4731,26.4204 Z " fill="#000000"/><text fill="#000000" font-family="sans-serif" font-size="14" font-weight="bold" lengthAdjust="spacing" textLength="79" x="355" y="28.291">GridRowPB</text><line style="stroke:#181818;stroke-width:0.5;" x1="327" x2="436" y1="39" y2="39"/><line style="stroke:#181818;stroke-width:0.5;" x1="327" x2="436" y1="47" y2="47"/></g><!--MD5=[e8565a75f2636a5cd938ca6dc07d9bbf]
reverse link GridPB to GridBlockPB--><g id="link_GridPB_GridBlockPB"><path codeLine="6" d="M100.04,59.12 C115,55.13 131.41,50.76 146.74,46.67 " fill="none" id="GridPB-backto-GridBlockPB" style="stroke:#181818;stroke-width:1.0;"/><polygon fill="#181818" points="87.34,62.51,94.1664,64.8338,98.937,59.4263,92.1106,57.1025,87.34,62.51" style="stroke:#181818;stroke-width:1.0;"/><text fill="#000000" font-family="sans-serif" font-size="13" lengthAdjust="spacing" textLength="8" x="94.9609" y="74.5911">1</text><text fill="#000000" font-family="sans-serif" font-size="13" lengthAdjust="spacing" textLength="6" x="133.0911" y="62.0811">*</text></g><!--MD5=[3ca1db0f2c3dad1a8b6abf1c42eb2f69]
reverse link GridPB to GridFieldPB--><g id="link_GridPB_GridFieldPB"><path codeLine="7" d="M100.04,86.55 C115.68,90.62 132.92,95.11 148.84,99.25 " fill="none" id="GridPB-backto-GridFieldPB" style="stroke:#181818;stroke-width:1.0;"/><polygon fill="#181818" points="87.34,83.24,92.1407,88.6208,98.9541,86.2589,94.1533,80.8781,87.34,83.24" style="stroke:#181818;stroke-width:1.0;"/><text fill="#000000" font-family="sans-serif" font-size="13" lengthAdjust="spacing" textLength="8" x="94.9609" y="98.8841">1</text><text fill="#000000" font-family="sans-serif" font-size="13" lengthAdjust="spacing" textLength="6" x="135.0679" y="110.9093">*</text></g><!--MD5=[0a13d85fa28150f924691b3a0f5a16d9]
reverse link GridBlockPB to GridRowPB--><g id="link_GridBlockPB_GridRowPB"><path codeLine="8" d="M279.46,31 C294.95,31 311.08,31 325.78,31 " fill="none" id="GridBlockPB-backto-GridRowPB" style="stroke:#181818;stroke-width:1.0;"/><polygon fill="#181818" points="266.07,31,272.07,35,278.07,31,272.07,27,266.07,31" style="stroke:#181818;stroke-width:1.0;"/><text fill="#000000" font-family="sans-serif" font-size="13" lengthAdjust="spacing" textLength="8" x="273.8176" y="44.5013">1</text><text fill="#000000" font-family="sans-serif" font-size="13" lengthAdjust="spacing" textLength="6" x="311.8895" y="44.597">*</text></g><!--MD5=[d140dbb46edc8d142ddd98660d90da36]
@startuml
skinparam classFontStyle Bold
skinparam ActivityBackgroundColor Silver
skinparam ActivityBorderColor DimGray
left to right direction

GridPB  "1" *- - "*" GridBlockPB
GridPB  "1" *- - "*" GridFieldPB
GridBlockPB "1" *- - "*" GridRowPB


@enduml

PlantUML version 1.2022.5(Sat Apr 30 18:55:52 CST 2022)
(GPL source distribution)
Java Runtime: OpenJDK Runtime Environment
JVM: OpenJDK 64-Bit Server VM
Default Encoding: UTF-8
Language: en
Country: US
--></g></svg>