<?xml version="1.0" encoding="UTF-8" standalone="no"?><svg xmlns="http://www.w3.org/2000/svg" xmlns:xlink="http://www.w3.org/1999/xlink" contentScriptType="application/ecmascript" contentStyleType="text/css" height="853px" preserveAspectRatio="none" style="width:2180px;height:853px;background:#FFFFFF;" version="1.1" viewBox="0 0 2180 853" width="2180px" zoomAndPan="magnify"><defs><filter height="300%" id="f1xulzi1jzv9dv" width="300%" x="-1" y="-1"><feGaussianBlur result="blurOut" stdDeviation="2.0"/><feColorMatrix in="blurOut" result="blurOut2" type="matrix" values="0 0 0 0 0 0 0 0 0 0 0 0 0 0 0 0 0 0 .4 0"/><feOffset dx="4.0" dy="4.0" in="blurOut2" result="blurOut3"/><feBlend in="SourceGraphic" in2="blurOut3" mode="normal"/></filter></defs><g><text fill="#000000" font-family="sans-serif" font-size="18" lengthAdjust="spacing" textLength="94" x="1036.5" y="17.4023">flowy-sync</text><!--MD5=[b3f0bce7dd616e0666c4927c01eee727]
class BlockManager--><rect codeLine="4" fill="#FEFECE" filter="url(#f1xulzi1jzv9dv)" height="48" id="BlockManager" style="stroke:#A80036;stroke-width:1.5;" width="112" x="7" y="463.1992"/><ellipse cx="22" cy="479.1992" fill="#ADD1B2" rx="11" ry="11" style="stroke:#A80036;stroke-width:1.0;"/><path d="M24.4731,485.3423 Q23.8921,485.6411 23.2529,485.7905 Q22.6138,485.9399 21.9082,485.9399 Q19.4014,485.9399 18.0815,484.2881 Q16.7617,482.6362 16.7617,479.5151 Q16.7617,476.3857 18.0815,474.7339 Q19.4014,473.082 21.9082,473.082 Q22.6138,473.082 23.2612,473.2314 Q23.9087,473.3809 24.4731,473.6797 L24.4731,476.4023 Q23.8423,475.8213 23.2488,475.5515 Q22.6553,475.2817 22.0244,475.2817 Q20.6797,475.2817 19.9949,476.3484 Q19.3101,477.415 19.3101,479.5151 Q19.3101,481.6069 19.9949,482.6736 Q20.6797,483.7402 22.0244,483.7402 Q22.6553,483.7402 23.2488,483.4705 Q23.8423,483.2007 24.4731,482.6196 Z " fill="#000000"/><text fill="#000000" font-family="sans-serif" font-size="12" lengthAdjust="spacing" textLength="80" x="36" y="483.7344">BlockManager</text><line style="stroke:#A80036;stroke-width:1.5;" x1="8" x2="118" y1="495.1992" y2="495.1992"/><line style="stroke:#A80036;stroke-width:1.5;" x1="8" x2="118" y1="503.1992" y2="503.1992"/><!--MD5=[17819f9b65f155c55cd40e1c7f577e08]
class BlockCloudService--><rect codeLine="5" fill="#FEFECE" filter="url(#f1xulzi1jzv9dv)" height="48" id="BlockCloudService" style="stroke:#A80036;stroke-width:1.5;" width="135" x="210" y="708.1992"/><ellipse cx="225" cy="724.1992" fill="#B4A7E5" rx="11" ry="11" style="stroke:#A80036;stroke-width:1.0;"/><path d="M221.4277,720.4644 L221.4277,718.3062 L228.8071,718.3062 L228.8071,720.4644 L226.3418,720.4644 L226.3418,728.541 L228.8071,728.541 L228.8071,730.6992 L221.4277,730.6992 L221.4277,728.541 L223.8931,728.541 L223.8931,720.4644 Z " fill="#000000"/><text fill="#000000" font-family="sans-serif" font-size="12" font-style="italic" lengthAdjust="spacing" textLength="103" x="239" y="728.7344">BlockCloudService</text><line style="stroke:#A80036;stroke-width:1.5;" x1="211" x2="344" y1="740.1992" y2="740.1992"/><line style="stroke:#A80036;stroke-width:1.5;" x1="211" x2="344" y1="748.1992" y2="748.1992"/><!--MD5=[369a7419173baed7377dde330d5417c1]
class RevisionWebSocket--><rect codeLine="8" fill="#FEFECE" filter="url(#f1xulzi1jzv9dv)" height="48" id="RevisionWebSocket" style="stroke:#A80036;stroke-width:1.5;" width="141" x="207" y="504.1992"/><ellipse cx="222" cy="520.1992" fill="#B4A7E5" rx="11" ry="11" style="stroke:#A80036;stroke-width:1.0;"/><path d="M218.4277,516.4644 L218.4277,514.3062 L225.8071,514.3062 L225.8071,516.4644 L223.3418,516.4644 L223.3418,524.541 L225.8071,524.541 L225.8071,526.6992 L218.4277,526.6992 L218.4277,524.541 L220.8931,524.541 L220.8931,516.4644 Z " fill="#000000"/><text fill="#000000" font-family="sans-serif" font-size="12" font-style="italic" lengthAdjust="spacing" textLength="109" x="236" y="524.7344">RevisionWebSocket</text><line style="stroke:#A80036;stroke-width:1.5;" x1="208" x2="347" y1="536.1992" y2="536.1992"/><line style="stroke:#A80036;stroke-width:1.5;" x1="208" x2="347" y1="544.1992" y2="544.1992"/><!--MD5=[645c0dcb3d4a86f41192b089a3146a21]
class BlockEditors--><rect codeLine="9" fill="#FEFECE" filter="url(#f1xulzi1jzv9dv)" height="48" id="BlockEditors" style="stroke:#A80036;stroke-width:1.5;" width="102" x="226.5" y="384.1992"/><ellipse cx="241.5" cy="400.1992" fill="#ADD1B2" rx="11" ry="11" style="stroke:#A80036;stroke-width:1.0;"/><path d="M243.9731,406.3423 Q243.3921,406.6411 242.7529,406.7905 Q242.1138,406.9399 241.4082,406.9399 Q238.9014,406.9399 237.5815,405.2881 Q236.2617,403.6362 236.2617,400.5151 Q236.2617,397.3857 237.5815,395.7339 Q238.9014,394.082 241.4082,394.082 Q242.1138,394.082 242.7612,394.2314 Q243.4087,394.3809 243.9731,394.6797 L243.9731,397.4023 Q243.3423,396.8213 242.7488,396.5515 Q242.1553,396.2817 241.5244,396.2817 Q240.1797,396.2817 239.4949,397.3484 Q238.8101,398.415 238.8101,400.5151 Q238.8101,402.6069 239.4949,403.6736 Q240.1797,404.7402 241.5244,404.7402 Q242.1553,404.7402 242.7488,404.4705 Q243.3423,404.2007 243.9731,403.6196 Z " fill="#000000"/><text fill="#000000" font-family="sans-serif" font-size="12" lengthAdjust="spacing" textLength="70" x="255.5" y="404.7344">BlockEditors</text><line style="stroke:#A80036;stroke-width:1.5;" x1="227.5" x2="327.5" y1="416.1992" y2="416.1992"/><line style="stroke:#A80036;stroke-width:1.5;" x1="227.5" x2="327.5" y1="424.1992" y2="424.1992"/><!--MD5=[043cdf1b91e65d52f500f38b2eb0383e]
class BlockUser--><rect codeLine="10" fill="#FEFECE" filter="url(#f1xulzi1jzv9dv)" height="48" id="BlockUser" style="stroke:#A80036;stroke-width:1.5;" width="88" x="233.5" y="283.1992"/><ellipse cx="248.5" cy="299.1992" fill="#B4A7E5" rx="11" ry="11" style="stroke:#A80036;stroke-width:1.0;"/><path d="M244.9277,295.4644 L244.9277,293.3062 L252.3071,293.3062 L252.3071,295.4644 L249.8418,295.4644 L249.8418,303.541 L252.3071,303.541 L252.3071,305.6992 L244.9277,305.6992 L244.9277,303.541 L247.3931,303.541 L247.3931,295.4644 Z " fill="#000000"/><text fill="#000000" font-family="sans-serif" font-size="12" font-style="italic" lengthAdjust="spacing" textLength="56" x="262.5" y="303.7344">BlockUser</text><line style="stroke:#A80036;stroke-width:1.5;" x1="234.5" x2="320.5" y1="315.1992" y2="315.1992"/><line style="stroke:#A80036;stroke-width:1.5;" x1="234.5" x2="320.5" y1="323.1992" y2="323.1992"/><!--MD5=[cd51b95c577ae7267c371d91835e5539]
class ClientBlockEditor--><rect codeLine="11" fill="#F7931E" filter="url(#f1xulzi1jzv9dv)" height="48" id="ClientBlockEditor" style="stroke:#A80036;stroke-width:1.5;" width="128" x="425" y="302.1992"/><ellipse cx="440" cy="318.1992" fill="#ADD1B2" rx="11" ry="11" style="stroke:#A80036;stroke-width:1.0;"/><path d="M442.4731,324.3423 Q441.8921,324.6411 441.2529,324.7905 Q440.6138,324.9399 439.9082,324.9399 Q437.4014,324.9399 436.0815,323.2881 Q434.7617,321.6362 434.7617,318.5151 Q434.7617,315.3857 436.0815,313.7339 Q437.4014,312.082 439.9082,312.082 Q440.6138,312.082 441.2612,312.2314 Q441.9087,312.3809 442.4731,312.6797 L442.4731,315.4023 Q441.8423,314.8213 441.2488,314.5515 Q440.6553,314.2817 440.0244,314.2817 Q438.6797,314.2817 437.9949,315.3484 Q437.3101,316.415 437.3101,318.5151 Q437.3101,320.6069 437.9949,321.6736 Q438.6797,322.7402 440.0244,322.7402 Q440.6553,322.7402 441.2488,322.4705 Q441.8423,322.2007 442.4731,321.6196 Z " fill="#000000"/><text fill="#000000" font-family="sans-serif" font-size="12" lengthAdjust="spacing" textLength="96" x="454" y="322.7344">ClientBlockEditor</text><line style="stroke:#A80036;stroke-width:1.5;" x1="426" x2="552" y1="334.1992" y2="334.1992"/><line style="stroke:#A80036;stroke-width:1.5;" x1="426" x2="552" y1="342.1992" y2="342.1992"/><!--MD5=[f9853ec7f6eff40c04912981236a06eb]
class ClientFolderEditor--><rect codeLine="12" fill="#00B5FF" filter="url(#f1xulzi1jzv9dv)" height="48" id="ClientFolderEditor" style="stroke:#A80036;stroke-width:1.5;" width="134" x="422" y="386.1992"/><ellipse cx="437" cy="402.1992" fill="#ADD1B2" rx="11" ry="11" style="stroke:#A80036;stroke-width:1.0;"/><path d="M439.4731,408.3423 Q438.8921,408.6411 438.2529,408.7905 Q437.6138,408.9399 436.9082,408.9399 Q434.4014,408.9399 433.0815,407.2881 Q431.7617,405.6362 431.7617,402.5151 Q431.7617,399.3857 433.0815,397.7339 Q434.4014,396.082 436.9082,396.082 Q437.6138,396.082 438.2612,396.2314 Q438.9087,396.3809 439.4731,396.6797 L439.4731,399.4023 Q438.8423,398.8213 438.2488,398.5515 Q437.6553,398.2817 437.0244,398.2817 Q435.6797,398.2817 434.9949,399.3484 Q434.3101,400.415 434.3101,402.5151 Q434.3101,404.6069 434.9949,405.6736 Q435.6797,406.7402 437.0244,406.7402 Q437.6553,406.7402 438.2488,406.4705 Q438.8423,406.2007 439.4731,405.6196 Z " fill="#000000"/><text fill="#000000" font-family="sans-serif" font-size="12" lengthAdjust="spacing" textLength="102" x="451" y="406.7344">ClientFolderEditor</text><line style="stroke:#A80036;stroke-width:1.5;" x1="423" x2="555" y1="418.1992" y2="418.1992"/><line style="stroke:#A80036;stroke-width:1.5;" x1="423" x2="555" y1="426.1992" y2="426.1992"/><!--MD5=[772c56fdfd0680ce27a29d6925f67ac7]
class BlockHttpCloudService--><rect fill="#FEFECE" filter="url(#f1xulzi1jzv9dv)" height="48" id="BlockHttpCloudService" style="stroke:#A80036;stroke-width:1.5;" width="160" x="409" y="791.1992"/><ellipse cx="424" cy="807.1992" fill="#ADD1B2" rx="11" ry="11" style="stroke:#A80036;stroke-width:1.0;"/><path d="M426.4731,813.3423 Q425.8921,813.6411 425.2529,813.7905 Q424.6138,813.9399 423.9082,813.9399 Q421.4014,813.9399 420.0815,812.2881 Q418.7617,810.6362 418.7617,807.5151 Q418.7617,804.3857 420.0815,802.7339 Q421.4014,801.082 423.9082,801.082 Q424.6138,801.082 425.2612,801.2314 Q425.9087,801.3809 426.4731,801.6797 L426.4731,804.4023 Q425.8423,803.8213 425.2488,803.5515 Q424.6553,803.2817 424.0244,803.2817 Q422.6797,803.2817 421.9949,804.3484 Q421.3101,805.415 421.3101,807.5151 Q421.3101,809.6069 421.9949,810.6736 Q422.6797,811.7402 424.0244,811.7402 Q424.6553,811.7402 425.2488,811.4705 Q425.8423,811.2007 426.4731,810.6196 Z " fill="#000000"/><text fill="#000000" font-family="sans-serif" font-size="12" lengthAdjust="spacing" textLength="128" x="438" y="811.7344">BlockHttpCloudService</text><line style="stroke:#A80036;stroke-width:1.5;" x1="410" x2="568" y1="823.1992" y2="823.1992"/><line style="stroke:#A80036;stroke-width:1.5;" x1="410" x2="568" y1="831.1992" y2="831.1992"/><!--MD5=[5bee03d59071047ba4d736bfb28c4212]
class LocalServer--><rect fill="#FEFECE" filter="url(#f1xulzi1jzv9dv)" height="48" id="LocalServer" style="stroke:#A80036;stroke-width:1.5;" width="97" x="440.5" y="708.1992"/><ellipse cx="455.5" cy="724.1992" fill="#ADD1B2" rx="11" ry="11" style="stroke:#A80036;stroke-width:1.0;"/><path d="M457.9731,730.3423 Q457.3921,730.6411 456.7529,730.7905 Q456.1138,730.9399 455.4082,730.9399 Q452.9014,730.9399 451.5815,729.2881 Q450.2617,727.6362 450.2617,724.5151 Q450.2617,721.3857 451.5815,719.7339 Q452.9014,718.082 455.4082,718.082 Q456.1138,718.082 456.7612,718.2314 Q457.4087,718.3809 457.9731,718.6797 L457.9731,721.4023 Q457.3423,720.8213 456.7488,720.5515 Q456.1553,720.2817 455.5244,720.2817 Q454.1797,720.2817 453.4949,721.3484 Q452.8101,722.415 452.8101,724.5151 Q452.8101,726.6069 453.4949,727.6736 Q454.1797,728.7402 455.5244,728.7402 Q456.1553,728.7402 456.7488,728.4705 Q457.3423,728.2007 457.9731,727.6196 Z " fill="#000000"/><text fill="#000000" font-family="sans-serif" font-size="12" lengthAdjust="spacing" textLength="65" x="469.5" y="728.7344">LocalServer</text><line style="stroke:#A80036;stroke-width:1.5;" x1="441.5" x2="536.5" y1="740.1992" y2="740.1992"/><line style="stroke:#A80036;stroke-width:1.5;" x1="441.5" x2="536.5" y1="748.1992" y2="748.1992"/><!--MD5=[e4024e229874a3872dc4e6b83fa67388]
class BlockUserImpl--><rect fill="#FEFECE" filter="url(#f1xulzi1jzv9dv)" height="48" id="BlockUserImpl" style="stroke:#A80036;stroke-width:1.5;" width="113" x="432.5" y="198.1992"/><ellipse cx="447.5" cy="214.1992" fill="#ADD1B2" rx="11" ry="11" style="stroke:#A80036;stroke-width:1.0;"/><path d="M449.9731,220.3423 Q449.3921,220.6411 448.7529,220.7905 Q448.1138,220.9399 447.4082,220.9399 Q444.9014,220.9399 443.5815,219.2881 Q442.2617,217.6362 442.2617,214.5151 Q442.2617,211.3857 443.5815,209.7339 Q444.9014,208.082 447.4082,208.082 Q448.1138,208.082 448.7612,208.2314 Q449.4087,208.3809 449.9731,208.6797 L449.9731,211.4023 Q449.3423,210.8213 448.7488,210.5515 Q448.1553,210.2817 447.5244,210.2817 Q446.1797,210.2817 445.4949,211.3484 Q444.8101,212.415 444.8101,214.5151 Q444.8101,216.6069 445.4949,217.6736 Q446.1797,218.7402 447.5244,218.7402 Q448.1553,218.7402 448.7488,218.4705 Q449.3423,218.2007 449.9731,217.6196 Z " fill="#000000"/><text fill="#000000" font-family="sans-serif" font-size="12" lengthAdjust="spacing" textLength="81" x="461.5" y="218.7344">BlockUserImpl</text><line style="stroke:#A80036;stroke-width:1.5;" x1="433.5" x2="544.5" y1="230.1992" y2="230.1992"/><line style="stroke:#A80036;stroke-width:1.5;" x1="433.5" x2="544.5" y1="238.1992" y2="238.1992"/><!--MD5=[c5b08e60048ef1bcd788d24cf324082e]
class UserSession--><rect fill="#FEFECE" filter="url(#f1xulzi1jzv9dv)" height="48" id="UserSession" style="stroke:#A80036;stroke-width:1.5;" width="100" x="675.5" y="176.1992"/><ellipse cx="690.5" cy="192.1992" fill="#ADD1B2" rx="11" ry="11" style="stroke:#A80036;stroke-width:1.0;"/><path d="M692.9731,198.3423 Q692.3921,198.6411 691.7529,198.7905 Q691.1138,198.9399 690.4082,198.9399 Q687.9014,198.9399 686.5815,197.2881 Q685.2617,195.6362 685.2617,192.5151 Q685.2617,189.3857 686.5815,187.7339 Q687.9014,186.082 690.4082,186.082 Q691.1138,186.082 691.7612,186.2314 Q692.4087,186.3809 692.9731,186.6797 L692.9731,189.4023 Q692.3423,188.8213 691.7488,188.5515 Q691.1553,188.2817 690.5244,188.2817 Q689.1797,188.2817 688.4949,189.3484 Q687.8101,190.415 687.8101,192.5151 Q687.8101,194.6069 688.4949,195.6736 Q689.1797,196.7402 690.5244,196.7402 Q691.1553,196.7402 691.7488,196.4705 Q692.3423,196.2007 692.9731,195.6196 Z " fill="#000000"/><text fill="#000000" font-family="sans-serif" font-size="12" lengthAdjust="spacing" textLength="68" x="704.5" y="196.7344">UserSession</text><line style="stroke:#A80036;stroke-width:1.5;" x1="676.5" x2="774.5" y1="208.1992" y2="208.1992"/><line style="stroke:#A80036;stroke-width:1.5;" x1="676.5" x2="774.5" y1="216.1992" y2="216.1992"/><!--MD5=[4c27615d5b4ea33c0906dc16595267cf]
class RevisionManager--><rect codeLine="25" fill="#FEFECE" filter="url(#f1xulzi1jzv9dv)" height="48" id="RevisionManager" style="stroke:#A80036;stroke-width:1.5;" width="129" x="661" y="342.1992"/><ellipse cx="676" cy="358.1992" fill="#ADD1B2" rx="11" ry="11" style="stroke:#A80036;stroke-width:1.0;"/><path d="M678.4731,364.3423 Q677.8921,364.6411 677.2529,364.7905 Q676.6138,364.9399 675.9082,364.9399 Q673.4014,364.9399 672.0815,363.2881 Q670.7617,361.6362 670.7617,358.5151 Q670.7617,355.3857 672.0815,353.7339 Q673.4014,352.082 675.9082,352.082 Q676.6138,352.082 677.2612,352.2314 Q677.9087,352.3809 678.4731,352.6797 L678.4731,355.4023 Q677.8423,354.8213 677.2488,354.5515 Q676.6553,354.2817 676.0244,354.2817 Q674.6797,354.2817 673.9949,355.3484 Q673.3101,356.415 673.3101,358.5151 Q673.3101,360.6069 673.9949,361.6736 Q674.6797,362.7402 676.0244,362.7402 Q676.6553,362.7402 677.2488,362.4705 Q677.8423,362.2007 678.4731,361.6196 Z " fill="#000000"/><text fill="#000000" font-family="sans-serif" font-size="12" lengthAdjust="spacing" textLength="97" x="690" y="362.7344">RevisionManager</text><line style="stroke:#A80036;stroke-width:1.5;" x1="662" x2="789" y1="374.1992" y2="374.1992"/><line style="stroke:#A80036;stroke-width:1.5;" x1="662" x2="789" y1="382.1992" y2="382.1992"/><!--MD5=[fd06f30b34df28d1ce9c4ba6714c6e0f]
class RevisionWebSocketManager--><rect codeLine="26" fill="#FEFECE" filter="url(#f1xulzi1jzv9dv)" height="48" id="RevisionWebSocketManager" style="stroke:#A80036;stroke-width:1.5;" width="191" x="630" y="443.1992"/><ellipse cx="645" cy="459.1992" fill="#ADD1B2" rx="11" ry="11" style="stroke:#A80036;stroke-width:1.0;"/><path d="M647.4731,465.3423 Q646.8921,465.6411 646.2529,465.7905 Q645.6138,465.9399 644.9082,465.9399 Q642.4014,465.9399 641.0815,464.2881 Q639.7617,462.6362 639.7617,459.5151 Q639.7617,456.3857 641.0815,454.7339 Q642.4014,453.082 644.9082,453.082 Q645.6138,453.082 646.2612,453.2314 Q646.9087,453.3809 647.4731,453.6797 L647.4731,456.4023 Q646.8423,455.8213 646.2488,455.5515 Q645.6553,455.2817 645.0244,455.2817 Q643.6797,455.2817 642.9949,456.3484 Q642.3101,457.415 642.3101,459.5151 Q642.3101,461.6069 642.9949,462.6736 Q643.6797,463.7402 645.0244,463.7402 Q645.6553,463.7402 646.2488,463.4705 Q646.8423,463.2007 647.4731,462.6196 Z " fill="#000000"/><text fill="#000000" font-family="sans-serif" font-size="12" lengthAdjust="spacing" textLength="159" x="659" y="463.7344">RevisionWebSocketManager</text><line style="stroke:#A80036;stroke-width:1.5;" x1="631" x2="820" y1="475.1992" y2="475.1992"/><line style="stroke:#A80036;stroke-width:1.5;" x1="631" x2="820" y1="483.1992" y2="483.1992"/><!--MD5=[c9edfc35bca09a4a707fe96a91982092]
class EditorCommandSender--><rect codeLine="27" fill="#FEFECE" filter="url(#f1xulzi1jzv9dv)" height="48" id="EditorCommandSender" style="stroke:#A80036;stroke-width:1.5;" width="165" x="643" y="259.1992"/><ellipse cx="658" cy="275.1992" fill="#ADD1B2" rx="11" ry="11" style="stroke:#A80036;stroke-width:1.0;"/><path d="M660.4731,281.3423 Q659.8921,281.6411 659.2529,281.7905 Q658.6138,281.9399 657.9082,281.9399 Q655.4014,281.9399 654.0815,280.2881 Q652.7617,278.6362 652.7617,275.5151 Q652.7617,272.3857 654.0815,270.7339 Q655.4014,269.082 657.9082,269.082 Q658.6138,269.082 659.2612,269.2314 Q659.9087,269.3809 660.4731,269.6797 L660.4731,272.4023 Q659.8423,271.8213 659.2488,271.5515 Q658.6553,271.2817 658.0244,271.2817 Q656.6797,271.2817 655.9949,272.3484 Q655.3101,273.415 655.3101,275.5151 Q655.3101,277.6069 655.9949,278.6736 Q656.6797,279.7402 658.0244,279.7402 Q658.6553,279.7402 659.2488,279.4705 Q659.8423,279.2007 660.4731,278.6196 Z " fill="#000000"/><text fill="#000000" font-family="sans-serif" font-size="12" lengthAdjust="spacing" textLength="133" x="672" y="279.7344">EditorCommandSender</text><line style="stroke:#A80036;stroke-width:1.5;" x1="644" x2="807" y1="291.1992" y2="291.1992"/><line style="stroke:#A80036;stroke-width:1.5;" x1="644" x2="807" y1="299.1992" y2="299.1992"/><!--MD5=[3cfbf80c62de7e0f6f62bafa91c2a699]
class RevisionCloudService--><rect codeLine="28" fill="#FEFECE" filter="url(#f1xulzi1jzv9dv)" height="48" id="RevisionCloudService" style="stroke:#A80036;stroke-width:1.5;" width="152" x="1317" y="277.1992"/><ellipse cx="1332" cy="293.1992" fill="#B4A7E5" rx="11" ry="11" style="stroke:#A80036;stroke-width:1.0;"/><path d="M1328.4277,289.4644 L1328.4277,287.3062 L1335.8071,287.3062 L1335.8071,289.4644 L1333.3418,289.4644 L1333.3418,297.541 L1335.8071,297.541 L1335.8071,299.6992 L1328.4277,299.6992 L1328.4277,297.541 L1330.8931,297.541 L1330.8931,289.4644 Z " fill="#000000"/><text fill="#000000" font-family="sans-serif" font-size="12" font-style="italic" lengthAdjust="spacing" textLength="120" x="1346" y="297.7344">RevisionCloudService</text><line style="stroke:#A80036;stroke-width:1.5;" x1="1318" x2="1468" y1="309.1992" y2="309.1992"/><line style="stroke:#A80036;stroke-width:1.5;" x1="1318" x2="1468" y1="317.1992" y2="317.1992"/><!--MD5=[d735558d1242f9c45c211f144f8ffa8e]
class RevisionLoader--><rect fill="#FEFECE" filter="url(#f1xulzi1jzv9dv)" height="48" id="RevisionLoader" style="stroke:#A80036;stroke-width:1.5;" width="119" x="904.5" y="277.1992"/><ellipse cx="919.5" cy="293.1992" fill="#ADD1B2" rx="11" ry="11" style="stroke:#A80036;stroke-width:1.0;"/><path d="M921.9731,299.3423 Q921.3921,299.6411 920.7529,299.7905 Q920.1138,299.9399 919.4082,299.9399 Q916.9014,299.9399 915.5815,298.2881 Q914.2617,296.6362 914.2617,293.5151 Q914.2617,290.3857 915.5815,288.7339 Q916.9014,287.082 919.4082,287.082 Q920.1138,287.082 920.7612,287.2314 Q921.4087,287.3809 921.9731,287.6797 L921.9731,290.4023 Q921.3423,289.8213 920.7488,289.5515 Q920.1553,289.2817 919.5244,289.2817 Q918.1797,289.2817 917.4949,290.3484 Q916.8101,291.415 916.8101,293.5151 Q916.8101,295.6069 917.4949,296.6736 Q918.1797,297.7402 919.5244,297.7402 Q920.1553,297.7402 920.7488,297.4705 Q921.3423,297.2007 921.9731,296.6196 Z " fill="#000000"/><text fill="#000000" font-family="sans-serif" font-size="12" lengthAdjust="spacing" textLength="87" x="933.5" y="297.7344">RevisionLoader</text><line style="stroke:#A80036;stroke-width:1.5;" x1="905.5" x2="1022.5" y1="309.1992" y2="309.1992"/><line style="stroke:#A80036;stroke-width:1.5;" x1="905.5" x2="1022.5" y1="317.1992" y2="317.1992"/><!--MD5=[c36addf2c070deaee9ce9c1f4b63e1c1]
class RevisionPersistence--><rect codeLine="39" fill="#FEFECE" filter="url(#f1xulzi1jzv9dv)" height="48" id="RevisionPersistence" style="stroke:#A80036;stroke-width:1.5;" width="144" x="892" y="147.1992"/><ellipse cx="907" cy="163.1992" fill="#ADD1B2" rx="11" ry="11" style="stroke:#A80036;stroke-width:1.0;"/><path d="M909.4731,169.3423 Q908.8921,169.6411 908.2529,169.7905 Q907.6138,169.9399 906.9082,169.9399 Q904.4014,169.9399 903.0815,168.2881 Q901.7617,166.6362 901.7617,163.5151 Q901.7617,160.3857 903.0815,158.7339 Q904.4014,157.082 906.9082,157.082 Q907.6138,157.082 908.2612,157.2314 Q908.9087,157.3809 909.4731,157.6797 L909.4731,160.4023 Q908.8423,159.8213 908.2488,159.5515 Q907.6553,159.2817 907.0244,159.2817 Q905.6797,159.2817 904.9949,160.3484 Q904.3101,161.415 904.3101,163.5151 Q904.3101,165.6069 904.9949,166.6736 Q905.6797,167.7402 907.0244,167.7402 Q907.6553,167.7402 908.2488,167.4705 Q908.8423,167.2007 909.4731,166.6196 Z " fill="#000000"/><text fill="#000000" font-family="sans-serif" font-size="12" lengthAdjust="spacing" textLength="112" x="921" y="167.7344">RevisionPersistence</text><line style="stroke:#A80036;stroke-width:1.5;" x1="893" x2="1035" y1="179.1992" y2="179.1992"/><line style="stroke:#A80036;stroke-width:1.5;" x1="893" x2="1035" y1="187.1992" y2="187.1992"/><!--MD5=[01ed8f09f49c8bef7d9277e0e1c3c460]
class RevisionWSDataIterator--><rect codeLine="40" fill="#FEFECE" filter="url(#f1xulzi1jzv9dv)" height="48" id="RevisionWSDataIterator" style="stroke:#A80036;stroke-width:1.5;" width="164" x="882" y="443.1992"/><ellipse cx="897" cy="459.1992" fill="#B4A7E5" rx="11" ry="11" style="stroke:#A80036;stroke-width:1.0;"/><path d="M893.4277,455.4644 L893.4277,453.3062 L900.8071,453.3062 L900.8071,455.4644 L898.3418,455.4644 L898.3418,463.541 L900.8071,463.541 L900.8071,465.6992 L893.4277,465.6992 L893.4277,463.541 L895.8931,463.541 L895.8931,455.4644 Z " fill="#000000"/><text fill="#000000" font-family="sans-serif" font-size="12" font-style="italic" lengthAdjust="spacing" textLength="132" x="911" y="463.7344">RevisionWSDataIterator</text><line style="stroke:#A80036;stroke-width:1.5;" x1="883" x2="1045" y1="475.1992" y2="475.1992"/><line style="stroke:#A80036;stroke-width:1.5;" x1="883" x2="1045" y1="483.1992" y2="483.1992"/><!--MD5=[5b5ce862c132793b464e4e71728096f1]
class RevisionWSDataStream--><rect codeLine="41" fill="#FEFECE" filter="url(#f1xulzi1jzv9dv)" height="48" id="RevisionWSDataStream" style="stroke:#A80036;stroke-width:1.5;" width="162" x="883" y="597.1992"/><ellipse cx="898" cy="613.1992" fill="#B4A7E5" rx="11" ry="11" style="stroke:#A80036;stroke-width:1.0;"/><path d="M894.4277,609.4644 L894.4277,607.3062 L901.8071,607.3062 L901.8071,609.4644 L899.3418,609.4644 L899.3418,617.541 L901.8071,617.541 L901.8071,619.6992 L894.4277,619.6992 L894.4277,617.541 L896.8931,617.541 L896.8931,609.4644 Z " fill="#000000"/><text fill="#000000" font-family="sans-serif" font-size="12" font-style="italic" lengthAdjust="spacing" textLength="130" x="912" y="617.7344">RevisionWSDataStream</text><line style="stroke:#A80036;stroke-width:1.5;" x1="884" x2="1044" y1="629.1992" y2="629.1992"/><line style="stroke:#A80036;stroke-width:1.5;" x1="884" x2="1044" y1="637.1992" y2="637.1992"/><!--MD5=[7ba05a2cf496b68aa22f017395cec291]
class FolderWSDataSink--><rect codeLine="42" fill="#00B5FF" filter="url(#f1xulzi1jzv9dv)" height="48" id="FolderWSDataSink" style="stroke:#A80036;stroke-width:1.5;" width="134" x="1326" y="431.1992"/><ellipse cx="1341" cy="447.1992" fill="#ADD1B2" rx="11" ry="11" style="stroke:#A80036;stroke-width:1.0;"/><path d="M1343.4731,453.3423 Q1342.8921,453.6411 1342.2529,453.7905 Q1341.6138,453.9399 1340.9082,453.9399 Q1338.4014,453.9399 1337.0815,452.2881 Q1335.7617,450.6362 1335.7617,447.5151 Q1335.7617,444.3857 1337.0815,442.7339 Q1338.4014,441.082 1340.9082,441.082 Q1341.6138,441.082 1342.2612,441.2314 Q1342.9087,441.3809 1343.4731,441.6797 L1343.4731,444.4023 Q1342.8423,443.8213 1342.2488,443.5515 Q1341.6553,443.2817 1341.0244,443.2817 Q1339.6797,443.2817 1338.9949,444.3484 Q1338.3101,445.415 1338.3101,447.5151 Q1338.3101,449.6069 1338.9949,450.6736 Q1339.6797,451.7402 1341.0244,451.7402 Q1341.6553,451.7402 1342.2488,451.4705 Q1342.8423,451.2007 1343.4731,450.6196 Z " fill="#000000"/><text fill="#000000" font-family="sans-serif" font-size="12" lengthAdjust="spacing" textLength="102" x="1355" y="451.7344">FolderWSDataSink</text><line style="stroke:#A80036;stroke-width:1.5;" x1="1327" x2="1459" y1="463.1992" y2="463.1992"/><line style="stroke:#A80036;stroke-width:1.5;" x1="1327" x2="1459" y1="471.1992" y2="471.1992"/><!--MD5=[842c2d8e0cff533501ef312f3c6b79c9]
class FolderWebSocket--><rect codeLine="43" fill="#00B5FF" filter="url(#f1xulzi1jzv9dv)" height="48" id="FolderWebSocket" style="stroke:#A80036;stroke-width:1.5;" width="130" x="424" y="542.1992"/><ellipse cx="439" cy="558.1992" fill="#ADD1B2" rx="11" ry="11" style="stroke:#A80036;stroke-width:1.0;"/><path d="M441.4731,564.3423 Q440.8921,564.6411 440.2529,564.7905 Q439.6138,564.9399 438.9082,564.9399 Q436.4014,564.9399 435.0815,563.2881 Q433.7617,561.6362 433.7617,558.5151 Q433.7617,555.3857 435.0815,553.7339 Q436.4014,552.082 438.9082,552.082 Q439.6138,552.082 440.2612,552.2314 Q440.9087,552.3809 441.4731,552.6797 L441.4731,555.4023 Q440.8423,554.8213 440.2488,554.5515 Q439.6553,554.2817 439.0244,554.2817 Q437.6797,554.2817 436.9949,555.3484 Q436.3101,556.415 436.3101,558.5151 Q436.3101,560.6069 436.9949,561.6736 Q437.6797,562.7402 439.0244,562.7402 Q439.6553,562.7402 440.2488,562.4705 Q440.8423,562.2007 441.4731,561.6196 Z " fill="#000000"/><text fill="#000000" font-family="sans-serif" font-size="12" lengthAdjust="spacing" textLength="98" x="453" y="562.7344">FolderWebSocket</text><line style="stroke:#A80036;stroke-width:1.5;" x1="425" x2="553" y1="574.1992" y2="574.1992"/><line style="stroke:#A80036;stroke-width:1.5;" x1="425" x2="553" y1="582.1992" y2="582.1992"/><!--MD5=[dfd542adf6cc379c81dd4956c9c12a13]
class FolderRevisionWSDataStream--><rect codeLine="44" fill="#00B5FF" filter="url(#f1xulzi1jzv9dv)" height="48" id="FolderRevisionWSDataStream" style="stroke:#A80036;stroke-width:1.5;" width="198" x="1294" y="597.1992"/><ellipse cx="1309" cy="613.1992" fill="#ADD1B2" rx="11" ry="11" style="stroke:#A80036;stroke-width:1.0;"/><path d="M1311.4731,619.3423 Q1310.8921,619.6411 1310.2529,619.7905 Q1309.6138,619.9399 1308.9082,619.9399 Q1306.4014,619.9399 1305.0815,618.2881 Q1303.7617,616.6362 1303.7617,613.5151 Q1303.7617,610.3857 1305.0815,608.7339 Q1306.4014,607.082 1308.9082,607.082 Q1309.6138,607.082 1310.2612,607.2314 Q1310.9087,607.3809 1311.4731,607.6797 L1311.4731,610.4023 Q1310.8423,609.8213 1310.2488,609.5515 Q1309.6553,609.2817 1309.0244,609.2817 Q1307.6797,609.2817 1306.9949,610.3484 Q1306.3101,611.415 1306.3101,613.5151 Q1306.3101,615.6069 1306.9949,616.6736 Q1307.6797,617.7402 1309.0244,617.7402 Q1309.6553,617.7402 1310.2488,617.4705 Q1310.8423,617.2007 1311.4731,616.6196 Z " fill="#000000"/><text fill="#000000" font-family="sans-serif" font-size="12" lengthAdjust="spacing" textLength="166" x="1323" y="617.7344">FolderRevisionWSDataStream</text><line style="stroke:#A80036;stroke-width:1.5;" x1="1295" x2="1491" y1="629.1992" y2="629.1992"/><line style="stroke:#A80036;stroke-width:1.5;" x1="1295" x2="1491" y1="637.1992" y2="637.1992"/><!--MD5=[97a737a8aa4e6136e3e581498b80b720]
class FolderConflictResolver--><rect codeLine="45" fill="#00B5FF" filter="url(#f1xulzi1jzv9dv)" height="48" id="FolderConflictResolver" style="stroke:#A80036;stroke-width:1.5;" width="159" x="2007" y="555.1992"/><ellipse cx="2022" cy="571.1992" fill="#ADD1B2" rx="11" ry="11" style="stroke:#A80036;stroke-width:1.0;"/><path d="M2024.4731,577.3423 Q2023.8921,577.6411 2023.2529,577.7905 Q2022.6138,577.9399 2021.9082,577.9399 Q2019.4014,577.9399 2018.0815,576.2881 Q2016.7617,574.6362 2016.7617,571.5151 Q2016.7617,568.3857 2018.0815,566.7339 Q2019.4014,565.082 2021.9082,565.082 Q2022.6138,565.082 2023.2612,565.2314 Q2023.9087,565.3809 2024.4731,565.6797 L2024.4731,568.4023 Q2023.8423,567.8213 2023.2488,567.5515 Q2022.6553,567.2817 2022.0244,567.2817 Q2020.6797,567.2817 2019.9949,568.3484 Q2019.3101,569.415 2019.3101,571.5151 Q2019.3101,573.6069 2019.9949,574.6736 Q2020.6797,575.7402 2022.0244,575.7402 Q2022.6553,575.7402 2023.2488,575.4705 Q2023.8423,575.2007 2024.4731,574.6196 Z " fill="#000000"/><text fill="#000000" font-family="sans-serif" font-size="12" lengthAdjust="spacing" textLength="127" x="2036" y="575.7344">FolderConflictResolver</text><line style="stroke:#A80036;stroke-width:1.5;" x1="2008" x2="2165" y1="587.1992" y2="587.1992"/><line style="stroke:#A80036;stroke-width:1.5;" x1="2008" x2="2165" y1="595.1992" y2="595.1992"/><!--MD5=[085f2b015d6e563a0435491a720e29c2]
class FolderRevisionCloudService--><rect codeLine="46" fill="#00B5FF" filter="url(#f1xulzi1jzv9dv)" height="48" id="FolderRevisionCloudService" style="stroke:#A80036;stroke-width:1.5;" width="188" x="1553" y="212.1992"/><ellipse cx="1568" cy="228.1992" fill="#ADD1B2" rx="11" ry="11" style="stroke:#A80036;stroke-width:1.0;"/><path d="M1570.4731,234.3423 Q1569.8921,234.6411 1569.2529,234.7905 Q1568.6138,234.9399 1567.9082,234.9399 Q1565.4014,234.9399 1564.0815,233.2881 Q1562.7617,231.6362 1562.7617,228.5151 Q1562.7617,225.3857 1564.0815,223.7339 Q1565.4014,222.082 1567.9082,222.082 Q1568.6138,222.082 1569.2612,222.2314 Q1569.9087,222.3809 1570.4731,222.6797 L1570.4731,225.4023 Q1569.8423,224.8213 1569.2488,224.5515 Q1568.6553,224.2817 1568.0244,224.2817 Q1566.6797,224.2817 1565.9949,225.3484 Q1565.3101,226.415 1565.3101,228.5151 Q1565.3101,230.6069 1565.9949,231.6736 Q1566.6797,232.7402 1568.0244,232.7402 Q1568.6553,232.7402 1569.2488,232.4705 Q1569.8423,232.2007 1570.4731,231.6196 Z " fill="#000000"/><text fill="#000000" font-family="sans-serif" font-size="12" lengthAdjust="spacing" textLength="156" x="1582" y="232.7344">FolderRevisionCloudService</text><line style="stroke:#A80036;stroke-width:1.5;" x1="1554" x2="1740" y1="244.1992" y2="244.1992"/><line style="stroke:#A80036;stroke-width:1.5;" x1="1554" x2="1740" y1="252.1992" y2="252.1992"/><!--MD5=[1b0025173838cf6bcac632be6050e66f]
class BlockWSDataSink--><rect codeLine="48" fill="#F7931E" filter="url(#f1xulzi1jzv9dv)" height="48" id="BlockWSDataSink" style="stroke:#A80036;stroke-width:1.5;" width="128" x="1329" y="514.1992"/><ellipse cx="1344" cy="530.1992" fill="#ADD1B2" rx="11" ry="11" style="stroke:#A80036;stroke-width:1.0;"/><path d="M1346.4731,536.3423 Q1345.8921,536.6411 1345.2529,536.7905 Q1344.6138,536.9399 1343.9082,536.9399 Q1341.4014,536.9399 1340.0815,535.2881 Q1338.7617,533.6362 1338.7617,530.5151 Q1338.7617,527.3857 1340.0815,525.7339 Q1341.4014,524.082 1343.9082,524.082 Q1344.6138,524.082 1345.2612,524.2314 Q1345.9087,524.3809 1346.4731,524.6797 L1346.4731,527.4023 Q1345.8423,526.8213 1345.2488,526.5515 Q1344.6553,526.2817 1344.0244,526.2817 Q1342.6797,526.2817 1341.9949,527.3484 Q1341.3101,528.415 1341.3101,530.5151 Q1341.3101,532.6069 1341.9949,533.6736 Q1342.6797,534.7402 1344.0244,534.7402 Q1344.6553,534.7402 1345.2488,534.4705 Q1345.8423,534.2007 1346.4731,533.6196 Z " fill="#000000"/><text fill="#000000" font-family="sans-serif" font-size="12" lengthAdjust="spacing" textLength="96" x="1358" y="534.7344">BlockWSDataSink</text><line style="stroke:#A80036;stroke-width:1.5;" x1="1330" x2="1456" y1="546.1992" y2="546.1992"/><line style="stroke:#A80036;stroke-width:1.5;" x1="1330" x2="1456" y1="554.1992" y2="554.1992"/><!--MD5=[08588fe17cfce53c3250676e753bbc97]
class BlockWebSocket--><rect codeLine="49" fill="#F7931E" filter="url(#f1xulzi1jzv9dv)" height="48" id="BlockWebSocket" style="stroke:#A80036;stroke-width:1.5;" width="124" x="427" y="625.1992"/><ellipse cx="442" cy="641.1992" fill="#ADD1B2" rx="11" ry="11" style="stroke:#A80036;stroke-width:1.0;"/><path d="M444.4731,647.3423 Q443.8921,647.6411 443.2529,647.7905 Q442.6138,647.9399 441.9082,647.9399 Q439.4014,647.9399 438.0815,646.2881 Q436.7617,644.6362 436.7617,641.5151 Q436.7617,638.3857 438.0815,636.7339 Q439.4014,635.082 441.9082,635.082 Q442.6138,635.082 443.2612,635.2314 Q443.9087,635.3809 444.4731,635.6797 L444.4731,638.4023 Q443.8423,637.8213 443.2488,637.5515 Q442.6553,637.2817 442.0244,637.2817 Q440.6797,637.2817 439.9949,638.3484 Q439.3101,639.415 439.3101,641.5151 Q439.3101,643.6069 439.9949,644.6736 Q440.6797,645.7402 442.0244,645.7402 Q442.6553,645.7402 443.2488,645.4705 Q443.8423,645.2007 444.4731,644.6196 Z " fill="#000000"/><text fill="#000000" font-family="sans-serif" font-size="12" lengthAdjust="spacing" textLength="92" x="456" y="645.7344">BlockWebSocket</text><line style="stroke:#A80036;stroke-width:1.5;" x1="428" x2="550" y1="657.1992" y2="657.1992"/><line style="stroke:#A80036;stroke-width:1.5;" x1="428" x2="550" y1="665.1992" y2="665.1992"/><!--MD5=[4eb3a1a17e1072b3c881c6012e2622e3]
class BlockRevisionWSDataStream--><rect codeLine="50" fill="#F7931E" filter="url(#f1xulzi1jzv9dv)" height="48" id="BlockRevisionWSDataStream" style="stroke:#A80036;stroke-width:1.5;" width="192" x="1297" y="680.1992"/><ellipse cx="1312" cy="696.1992" fill="#ADD1B2" rx="11" ry="11" style="stroke:#A80036;stroke-width:1.0;"/><path d="M1314.4731,702.3423 Q1313.8921,702.6411 1313.2529,702.7905 Q1312.6138,702.9399 1311.9082,702.9399 Q1309.4014,702.9399 1308.0815,701.2881 Q1306.7617,699.6362 1306.7617,696.5151 Q1306.7617,693.3857 1308.0815,691.7339 Q1309.4014,690.082 1311.9082,690.082 Q1312.6138,690.082 1313.2612,690.2314 Q1313.9087,690.3809 1314.4731,690.6797 L1314.4731,693.4023 Q1313.8423,692.8213 1313.2488,692.5515 Q1312.6553,692.2817 1312.0244,692.2817 Q1310.6797,692.2817 1309.9949,693.3484 Q1309.3101,694.415 1309.3101,696.5151 Q1309.3101,698.6069 1309.9949,699.6736 Q1310.6797,700.7402 1312.0244,700.7402 Q1312.6553,700.7402 1313.2488,700.4705 Q1313.8423,700.2007 1314.4731,699.6196 Z " fill="#000000"/><text fill="#000000" font-family="sans-serif" font-size="12" lengthAdjust="spacing" textLength="160" x="1326" y="700.7344">BlockRevisionWSDataStream</text><line style="stroke:#A80036;stroke-width:1.5;" x1="1298" x2="1488" y1="712.1992" y2="712.1992"/><line style="stroke:#A80036;stroke-width:1.5;" x1="1298" x2="1488" y1="720.1992" y2="720.1992"/><!--MD5=[7e6021a223480d12f36ab042d05221e6]
class BlockConflictResolver--><rect codeLine="51" fill="#F7931E" filter="url(#f1xulzi1jzv9dv)" height="48" id="BlockConflictResolver" style="stroke:#A80036;stroke-width:1.5;" width="153" x="2010" y="638.1992"/><ellipse cx="2025" cy="654.1992" fill="#ADD1B2" rx="11" ry="11" style="stroke:#A80036;stroke-width:1.0;"/><path d="M2027.4731,660.3423 Q2026.8921,660.6411 2026.2529,660.7905 Q2025.6138,660.9399 2024.9082,660.9399 Q2022.4014,660.9399 2021.0815,659.2881 Q2019.7617,657.6362 2019.7617,654.5151 Q2019.7617,651.3857 2021.0815,649.7339 Q2022.4014,648.082 2024.9082,648.082 Q2025.6138,648.082 2026.2612,648.2314 Q2026.9087,648.3809 2027.4731,648.6797 L2027.4731,651.4023 Q2026.8423,650.8213 2026.2488,650.5515 Q2025.6553,650.2817 2025.0244,650.2817 Q2023.6797,650.2817 2022.9949,651.3484 Q2022.3101,652.415 2022.3101,654.5151 Q2022.3101,656.6069 2022.9949,657.6736 Q2023.6797,658.7402 2025.0244,658.7402 Q2025.6553,658.7402 2026.2488,658.4705 Q2026.8423,658.2007 2027.4731,657.6196 Z " fill="#000000"/><text fill="#000000" font-family="sans-serif" font-size="12" lengthAdjust="spacing" textLength="121" x="2039" y="658.7344">BlockConflictResolver</text><line style="stroke:#A80036;stroke-width:1.5;" x1="2011" x2="2162" y1="670.1992" y2="670.1992"/><line style="stroke:#A80036;stroke-width:1.5;" x1="2011" x2="2162" y1="678.1992" y2="678.1992"/><!--MD5=[19c54cc3d73eaf449eb473b3a7844d72]
class BlockRevisionCloudService--><rect codeLine="52" fill="#F7931E" filter="url(#f1xulzi1jzv9dv)" height="48" id="BlockRevisionCloudService" style="stroke:#A80036;stroke-width:1.5;" width="182" x="1556" y="295.1992"/><ellipse cx="1571" cy="311.1992" fill="#ADD1B2" rx="11" ry="11" style="stroke:#A80036;stroke-width:1.0;"/><path d="M1573.4731,317.3423 Q1572.8921,317.6411 1572.2529,317.7905 Q1571.6138,317.9399 1570.9082,317.9399 Q1568.4014,317.9399 1567.0815,316.2881 Q1565.7617,314.6362 1565.7617,311.5151 Q1565.7617,308.3857 1567.0815,306.7339 Q1568.4014,305.082 1570.9082,305.082 Q1571.6138,305.082 1572.2612,305.2314 Q1572.9087,305.3809 1573.4731,305.6797 L1573.4731,308.4023 Q1572.8423,307.8213 1572.2488,307.5515 Q1571.6553,307.2817 1571.0244,307.2817 Q1569.6797,307.2817 1568.9949,308.3484 Q1568.3101,309.415 1568.3101,311.5151 Q1568.3101,313.6069 1568.9949,314.6736 Q1569.6797,315.7402 1571.0244,315.7402 Q1571.6553,315.7402 1572.2488,315.4705 Q1572.8423,315.2007 1573.4731,314.6196 Z " fill="#000000"/><text fill="#000000" font-family="sans-serif" font-size="12" lengthAdjust="spacing" textLength="150" x="1585" y="315.7344">BlockRevisionCloudService</text><line style="stroke:#A80036;stroke-width:1.5;" x1="1557" x2="1737" y1="327.1992" y2="327.1992"/><line style="stroke:#A80036;stroke-width:1.5;" x1="1557" x2="1737" y1="335.1992" y2="335.1992"/><!--MD5=[12ef6708083c3ec8fed941b08b3f1180]
class WSDataProvider--><rect fill="#FEFECE" filter="url(#f1xulzi1jzv9dv)" height="48" id="WSDataProvider" style="stroke:#A80036;stroke-width:1.5;" width="123" x="1585.5" y="460.1992"/><ellipse cx="1600.5" cy="476.1992" fill="#ADD1B2" rx="11" ry="11" style="stroke:#A80036;stroke-width:1.0;"/><path d="M1602.9731,482.3423 Q1602.3921,482.6411 1601.7529,482.7905 Q1601.1138,482.9399 1600.4082,482.9399 Q1597.9014,482.9399 1596.5815,481.2881 Q1595.2617,479.6362 1595.2617,476.5151 Q1595.2617,473.3857 1596.5815,471.7339 Q1597.9014,470.082 1600.4082,470.082 Q1601.1138,470.082 1601.7612,470.2314 Q1602.4087,470.3809 1602.9731,470.6797 L1602.9731,473.4023 Q1602.3423,472.8213 1601.7488,472.5515 Q1601.1553,472.2817 1600.5244,472.2817 Q1599.1797,472.2817 1598.4949,473.3484 Q1597.8101,474.415 1597.8101,476.5151 Q1597.8101,478.6069 1598.4949,479.6736 Q1599.1797,480.7402 1600.5244,480.7402 Q1601.1553,480.7402 1601.7488,480.4705 Q1602.3423,480.2007 1602.9731,479.6196 Z " fill="#000000"/><text fill="#000000" font-family="sans-serif" font-size="12" lengthAdjust="spacing" textLength="91" x="1614.5" y="480.7344">WSDataProvider</text><line style="stroke:#A80036;stroke-width:1.5;" x1="1586.5" x2="1707.5" y1="492.1992" y2="492.1992"/><line style="stroke:#A80036;stroke-width:1.5;" x1="1586.5" x2="1707.5" y1="500.1992" y2="500.1992"/><!--MD5=[e150a547ec5f2e881cc5ae12fbd396e0]
class ConflictController--><rect fill="#FEFECE" filter="url(#f1xulzi1jzv9dv)" height="48" id="ConflictController" style="stroke:#A80036;stroke-width:1.5;" width="130" x="1582" y="597.1992"/><ellipse cx="1597" cy="613.1992" fill="#ADD1B2" rx="11" ry="11" style="stroke:#A80036;stroke-width:1.0;"/><path d="M1599.4731,619.3423 Q1598.8921,619.6411 1598.2529,619.7905 Q1597.6138,619.9399 1596.9082,619.9399 Q1594.4014,619.9399 1593.0815,618.2881 Q1591.7617,616.6362 1591.7617,613.5151 Q1591.7617,610.3857 1593.0815,608.7339 Q1594.4014,607.082 1596.9082,607.082 Q1597.6138,607.082 1598.2612,607.2314 Q1598.9087,607.3809 1599.4731,607.6797 L1599.4731,610.4023 Q1598.8423,609.8213 1598.2488,609.5515 Q1597.6553,609.2817 1597.0244,609.2817 Q1595.6797,609.2817 1594.9949,610.3484 Q1594.3101,611.415 1594.3101,613.5151 Q1594.3101,615.6069 1594.9949,616.6736 Q1595.6797,617.7402 1597.0244,617.7402 Q1597.6553,617.7402 1598.2488,617.4705 Q1598.8423,617.2007 1599.4731,616.6196 Z " fill="#000000"/><text fill="#000000" font-family="sans-serif" font-size="12" lengthAdjust="spacing" textLength="98" x="1611" y="617.7344">ConflictController</text><line style="stroke:#A80036;stroke-width:1.5;" x1="1583" x2="1711" y1="629.1992" y2="629.1992"/><line style="stroke:#A80036;stroke-width:1.5;" x1="1583" x2="1711" y1="637.1992" y2="637.1992"/><!--MD5=[7a001630ee33d74583e1e72a862235f4]
class ConflictResolver--><rect codeLine="76" fill="#FEFECE" filter="url(#f1xulzi1jzv9dv)" height="48" id="ConflictResolver" style="stroke:#A80036;stroke-width:1.5;" width="123" x="1812.5" y="597.1992"/><ellipse cx="1827.5" cy="613.1992" fill="#B4A7E5" rx="11" ry="11" style="stroke:#A80036;stroke-width:1.0;"/><path d="M1823.9277,609.4644 L1823.9277,607.3062 L1831.3071,607.3062 L1831.3071,609.4644 L1828.8418,609.4644 L1828.8418,617.541 L1831.3071,617.541 L1831.3071,619.6992 L1823.9277,619.6992 L1823.9277,617.541 L1826.3931,617.541 L1826.3931,609.4644 Z " fill="#000000"/><text fill="#000000" font-family="sans-serif" font-size="12" font-style="italic" lengthAdjust="spacing" textLength="91" x="1841.5" y="617.7344">ConflictResolver</text><line style="stroke:#A80036;stroke-width:1.5;" x1="1813.5" x2="1934.5" y1="629.1992" y2="629.1992"/><line style="stroke:#A80036;stroke-width:1.5;" x1="1813.5" x2="1934.5" y1="637.1992" y2="637.1992"/><!--MD5=[f501596d9511d3fda9d9c09754503391]
class ConflictRevisionSink--><rect codeLine="77" fill="#FEFECE" filter="url(#f1xulzi1jzv9dv)" height="48" id="ConflictRevisionSink" style="stroke:#A80036;stroke-width:1.5;" width="144" x="1802" y="483.1992"/><ellipse cx="1817" cy="499.1992" fill="#B4A7E5" rx="11" ry="11" style="stroke:#A80036;stroke-width:1.0;"/><path d="M1813.4277,495.4644 L1813.4277,493.3062 L1820.8071,493.3062 L1820.8071,495.4644 L1818.3418,495.4644 L1818.3418,503.541 L1820.8071,503.541 L1820.8071,505.6992 L1813.4277,505.6992 L1813.4277,503.541 L1815.8931,503.541 L1815.8931,495.4644 Z " fill="#000000"/><text fill="#000000" font-family="sans-serif" font-size="12" font-style="italic" lengthAdjust="spacing" textLength="112" x="1831" y="503.7344">ConflictRevisionSink</text><line style="stroke:#A80036;stroke-width:1.5;" x1="1803" x2="1945" y1="515.1992" y2="515.1992"/><line style="stroke:#A80036;stroke-width:1.5;" x1="1803" x2="1945" y1="523.1992" y2="523.1992"/><!--MD5=[c3ba3ccc2bc3bd345e5b45dc8c1d4331]
class WSDataProviderDataSource--><rect codeLine="78" fill="#FEFECE" filter="url(#f1xulzi1jzv9dv)" height="48" id="WSDataProviderDataSource" style="stroke:#A80036;stroke-width:1.5;" width="188" x="1076" y="354.1992"/><ellipse cx="1091" cy="370.1992" fill="#B4A7E5" rx="11" ry="11" style="stroke:#A80036;stroke-width:1.0;"/><path d="M1087.4277,366.4644 L1087.4277,364.3062 L1094.8071,364.3062 L1094.8071,366.4644 L1092.3418,366.4644 L1092.3418,374.541 L1094.8071,374.541 L1094.8071,376.6992 L1087.4277,376.6992 L1087.4277,374.541 L1089.8931,374.541 L1089.8931,366.4644 Z " fill="#000000"/><text fill="#000000" font-family="sans-serif" font-size="12" font-style="italic" lengthAdjust="spacing" textLength="156" x="1105" y="374.7344">WSDataProviderDataSource</text><line style="stroke:#A80036;stroke-width:1.5;" x1="1077" x2="1263" y1="386.1992" y2="386.1992"/><line style="stroke:#A80036;stroke-width:1.5;" x1="1077" x2="1263" y1="394.1992" y2="394.1992"/><!--MD5=[9d01475be71e39db2f4249c8701e96d6]
class RevisionDiskCache--><rect codeLine="87" fill="#FEFECE" filter="url(#f1xulzi1jzv9dv)" height="48" id="RevisionDiskCache" style="stroke:#A80036;stroke-width:1.5;" width="139" x="1323.5" y="28.1992"/><ellipse cx="1338.5" cy="44.1992" fill="#B4A7E5" rx="11" ry="11" style="stroke:#A80036;stroke-width:1.0;"/><path d="M1334.9277,40.4644 L1334.9277,38.3062 L1342.3071,38.3062 L1342.3071,40.4644 L1339.8418,40.4644 L1339.8418,48.541 L1342.3071,48.541 L1342.3071,50.6992 L1334.9277,50.6992 L1334.9277,48.541 L1337.3931,48.541 L1337.3931,40.4644 Z " fill="#000000"/><text fill="#000000" font-family="sans-serif" font-size="12" font-style="italic" lengthAdjust="spacing" textLength="107" x="1352.5" y="48.7344">RevisionDiskCache</text><line style="stroke:#A80036;stroke-width:1.5;" x1="1324.5" x2="1461.5" y1="60.1992" y2="60.1992"/><line style="stroke:#A80036;stroke-width:1.5;" x1="1324.5" x2="1461.5" y1="68.1992" y2="68.1992"/><!--MD5=[dd4ed5407ea5562ead320473bda702c2]
class RevisionMemoryCache--><rect codeLine="88" fill="#FEFECE" filter="url(#f1xulzi1jzv9dv)" height="48" id="RevisionMemoryCache" style="stroke:#A80036;stroke-width:1.5;" width="160" x="1313" y="111.1992"/><ellipse cx="1328" cy="127.1992" fill="#ADD1B2" rx="11" ry="11" style="stroke:#A80036;stroke-width:1.0;"/><path d="M1330.4731,133.3423 Q1329.8921,133.6411 1329.2529,133.7905 Q1328.6138,133.9399 1327.9082,133.9399 Q1325.4014,133.9399 1324.0815,132.2881 Q1322.7617,130.6362 1322.7617,127.5151 Q1322.7617,124.3857 1324.0815,122.7339 Q1325.4014,121.082 1327.9082,121.082 Q1328.6138,121.082 1329.2612,121.2314 Q1329.9087,121.3809 1330.4731,121.6797 L1330.4731,124.4023 Q1329.8423,123.8213 1329.2488,123.5515 Q1328.6553,123.2817 1328.0244,123.2817 Q1326.6797,123.2817 1325.9949,124.3484 Q1325.3101,125.415 1325.3101,127.5151 Q1325.3101,129.6069 1325.9949,130.6736 Q1326.6797,131.7402 1328.0244,131.7402 Q1328.6553,131.7402 1329.2488,131.4705 Q1329.8423,131.2007 1330.4731,130.6196 Z " fill="#000000"/><text fill="#000000" font-family="sans-serif" font-size="12" lengthAdjust="spacing" textLength="128" x="1342" y="131.7344">RevisionMemoryCache</text><line style="stroke:#A80036;stroke-width:1.5;" x1="1314" x2="1472" y1="143.1992" y2="143.1992"/><line style="stroke:#A80036;stroke-width:1.5;" x1="1314" x2="1472" y1="151.1992" y2="151.1992"/><!--MD5=[3aac229a88da3bff201654f8e0cb7e75]
class RevisionSyncSequence--><rect codeLine="89" fill="#FEFECE" filter="url(#f1xulzi1jzv9dv)" height="48" id="RevisionSyncSequence" style="stroke:#A80036;stroke-width:1.5;" width="159" x="1313.5" y="194.1992"/><ellipse cx="1328.5" cy="210.1992" fill="#ADD1B2" rx="11" ry="11" style="stroke:#A80036;stroke-width:1.0;"/><path d="M1330.9731,216.3423 Q1330.3921,216.6411 1329.7529,216.7905 Q1329.1138,216.9399 1328.4082,216.9399 Q1325.9014,216.9399 1324.5815,215.2881 Q1323.2617,213.6362 1323.2617,210.5151 Q1323.2617,207.3857 1324.5815,205.7339 Q1325.9014,204.082 1328.4082,204.082 Q1329.1138,204.082 1329.7612,204.2314 Q1330.4087,204.3809 1330.9731,204.6797 L1330.9731,207.4023 Q1330.3423,206.8213 1329.7488,206.5515 Q1329.1553,206.2817 1328.5244,206.2817 Q1327.1797,206.2817 1326.4949,207.3484 Q1325.8101,208.415 1325.8101,210.5151 Q1325.8101,212.6069 1326.4949,213.6736 Q1327.1797,214.7402 1328.5244,214.7402 Q1329.1553,214.7402 1329.7488,214.4705 Q1330.3423,214.2007 1330.9731,213.6196 Z " fill="#000000"/><text fill="#000000" font-family="sans-serif" font-size="12" lengthAdjust="spacing" textLength="127" x="1342.5" y="214.7344">RevisionSyncSequence</text><line style="stroke:#A80036;stroke-width:1.5;" x1="1314.5" x2="1471.5" y1="226.1992" y2="226.1992"/><line style="stroke:#A80036;stroke-width:1.5;" x1="1314.5" x2="1471.5" y1="234.1992" y2="234.1992"/><!--MD5=[d00352a84f7e584d9cf1aef443846886]
class SQLitePersistence--><rect codeLine="94" fill="#FEFECE" filter="url(#f1xulzi1jzv9dv)" height="48" id="SQLitePersistence" style="stroke:#A80036;stroke-width:1.5;" width="132" x="1581" y="28.1992"/><ellipse cx="1596" cy="44.1992" fill="#ADD1B2" rx="11" ry="11" style="stroke:#A80036;stroke-width:1.0;"/><path d="M1598.4731,50.3423 Q1597.8921,50.6411 1597.2529,50.7905 Q1596.6138,50.9399 1595.9082,50.9399 Q1593.4014,50.9399 1592.0815,49.2881 Q1590.7617,47.6362 1590.7617,44.5151 Q1590.7617,41.3857 1592.0815,39.7339 Q1593.4014,38.082 1595.9082,38.082 Q1596.6138,38.082 1597.2612,38.2314 Q1597.9087,38.3809 1598.4731,38.6797 L1598.4731,41.4023 Q1597.8423,40.8213 1597.2488,40.5515 Q1596.6553,40.2817 1596.0244,40.2817 Q1594.6797,40.2817 1593.9949,41.3484 Q1593.3101,42.415 1593.3101,44.5151 Q1593.3101,46.6069 1593.9949,47.6736 Q1594.6797,48.7402 1596.0244,48.7402 Q1596.6553,48.7402 1597.2488,48.4705 Q1597.8423,48.2007 1598.4731,47.6196 Z " fill="#000000"/><text fill="#000000" font-family="sans-serif" font-size="12" lengthAdjust="spacing" textLength="100" x="1610" y="48.7344">SQLitePersistence</text><line style="stroke:#A80036;stroke-width:1.5;" x1="1582" x2="1712" y1="60.1992" y2="60.1992"/><line style="stroke:#A80036;stroke-width:1.5;" x1="1582" x2="1712" y1="68.1992" y2="68.1992"/><!--MD5=[8b54acacc2a86a65e141855d8499098e]
link BlockManager to BlockCloudService--><path codeLine="14" d="M85.15,511.5892 C124.77,557.2592 209.94,655.4592 251.99,703.9392 " fill="none" id="BlockManager-to-BlockCloudService" style="stroke:#A80036;stroke-width:1.0;"/><polygon fill="#A80036" points="255.43,707.9092,252.5543,698.4895,252.1537,704.1322,246.5111,703.7316,255.43,707.9092" style="stroke:#A80036;stroke-width:1.0;"/><!--MD5=[4c5d53319f78a9282fac3ca545b0f69b]
link BlockManager to RevisionWebSocket--><path codeLine="15" d="M119,497.8092 C144.24,502.6792 174.55,508.5292 201.81,513.7892 " fill="none" id="BlockManager-to-RevisionWebSocket" style="stroke:#A80036;stroke-width:1.0;"/><polygon fill="#A80036" points="206.86,514.7592,198.7907,509.1124,201.9522,513.8033,197.2613,516.9649,206.86,514.7592" style="stroke:#A80036;stroke-width:1.0;"/><text fill="#000000" font-family="sans-serif" font-size="13" lengthAdjust="spacing" textLength="26" x="150" y="500.7676">own</text><!--MD5=[b47cad95378337ff95d8f12f4694ffeb]
link BlockManager to BlockEditors--><path codeLine="16" d="M119,466.7492 C150.52,455.0392 189.95,440.3792 221.47,428.6592 " fill="none" id="BlockManager-to-BlockEditors" style="stroke:#A80036;stroke-width:1.0;"/><polygon fill="#A80036" points="226.46,426.7992,216.6301,426.1877,221.7737,428.5423,219.4191,433.6858,226.46,426.7992" style="stroke:#A80036;stroke-width:1.0;"/><!--MD5=[965ffe1b14f716d0fe47e60bd26658b9]
link BlockManager to BlockUser--><path codeLine="17" d="M92.66,462.9192 C132.06,429.5492 202.76,369.6692 244.05,334.6792 " fill="none" id="BlockManager-to-BlockUser" style="stroke:#A80036;stroke-width:1.0;"/><polygon fill="#A80036" points="247.96,331.3792,238.5062,334.1407,244.1436,334.6096,243.6748,340.247,247.96,331.3792" style="stroke:#A80036;stroke-width:1.0;"/><!--MD5=[d0adf21df869756da18be8d0e85d4f3c]
reverse link BlockEditors to ClientBlockEditor--><path codeLine="19" d="M340.79,383.8192 C367.92,373.1992 399.62,360.7892 426.64,350.2192 " fill="none" id="BlockEditors-backto-ClientBlockEditor" style="stroke:#A80036;stroke-width:1.0;"/><polygon fill="#A80036" points="328.68,388.5592,335.7238,390.1037,339.8586,384.1959,332.8149,382.6513,328.68,388.5592" style="stroke:#A80036;stroke-width:1.0;"/><text fill="#000000" font-family="sans-serif" font-size="13" lengthAdjust="spacing" textLength="8" x="336.4397" y="399.4422">1</text><text fill="#000000" font-family="sans-serif" font-size="13" lengthAdjust="spacing" textLength="6" x="411.0402" y="367.4399">*</text><!--MD5=[ce115bca99a48734e41a3504d51db94d]
reverse link BlockCloudService to BlockHttpCloudService--><path codeLine="20" d="M357.87,763.6492 C380.84,772.7392 405.54,782.5292 427.18,791.0992 " fill="none" id="BlockCloudService-backto-BlockHttpCloudService" style="stroke:#A80036;stroke-width:1.0;stroke-dasharray:7.0,7.0;"/><polygon fill="none" points="355.11,770.0792,339.1,756.2092,360.27,757.0692,355.11,770.0792" style="stroke:#A80036;stroke-width:1.0;"/><!--MD5=[d727716d6f8003dc746c120c5b6eda81]
reverse link BlockCloudService to LocalServer--><path codeLine="21" d="M365.2,732.1992 C390.84,732.1992 417.98,732.1992 440.2,732.1992 " fill="none" id="BlockCloudService-backto-LocalServer" style="stroke:#A80036;stroke-width:1.0;stroke-dasharray:7.0,7.0;"/><polygon fill="none" points="365.07,739.1992,345.07,732.1992,365.07,725.1992,365.07,739.1992" style="stroke:#A80036;stroke-width:1.0;"/><!--MD5=[e556bc7fed1a3add0f88040728e080c7]
reverse link BlockUser to BlockUserImpl--><path codeLine="22" d="M340.34,282.1092 C369.43,270.3092 403.86,256.3392 432.15,244.8592 " fill="none" id="BlockUser-backto-BlockUserImpl" style="stroke:#A80036;stroke-width:1.0;stroke-dasharray:7.0,7.0;"/><polygon fill="none" points="342.82,288.6592,321.65,289.6892,337.56,275.6892,342.82,288.6592" style="stroke:#A80036;stroke-width:1.0;"/><!--MD5=[71771460ea4922570befe83fe0bd8995]
link BlockUserImpl to UserSession--><path codeLine="23" d="M545.57,216.9892 C583.14,213.4592 632.51,208.8292 669.88,205.3192 " fill="none" id="BlockUserImpl-to-UserSession" style="stroke:#A80036;stroke-width:1.0;"/><polygon fill="#A80036" points="675.3,204.8192,665.9724,201.6577,670.3209,205.2758,666.7028,209.6243,675.3,204.8192" style="stroke:#A80036;stroke-width:1.0;"/><!--MD5=[ed4f70530c1e646a9b439ec9279364c5]
link ClientBlockEditor to RevisionManager--><path codeLine="29" d="M553.15,336.9692 C584.83,342.3792 623.25,348.9292 655.68,354.4592 " fill="none" id="ClientBlockEditor-to-RevisionManager" style="stroke:#A80036;stroke-width:1.0;"/><polygon fill="#A80036" points="660.83,355.3392,652.6177,349.9025,655.8992,354.5103,651.2914,357.7918,660.83,355.3392" style="stroke:#A80036;stroke-width:1.0;"/><!--MD5=[dd6449f2a2987c787662b2959d20bbd9]
link ClientBlockEditor to RevisionWebSocketManager--><path codeLine="30" d="M536.71,350.2392 C547.41,355.9592 558.67,362.1692 569,368.1992 C596.78,384.4292 602.86,389.9092 630,407.1992 C646.93,417.9892 665.58,429.8392 681.81,440.1292 " fill="none" id="ClientBlockEditor-to-RevisionWebSocketManager" style="stroke:#A80036;stroke-width:1.0;"/><polygon fill="#A80036" points="686.32,442.9992,680.8476,434.8106,682.0929,440.3287,676.5748,441.574,686.32,442.9992" style="stroke:#A80036;stroke-width:1.0;"/><!--MD5=[a833138c140c405375a511d3f03ccc35]
link ClientBlockEditor to EditorCommandSender--><path codeLine="31" d="M553.15,314.6192 C579.07,309.8692 609.52,304.2792 637.5,299.1492 " fill="none" id="ClientBlockEditor-to-EditorCommandSender" style="stroke:#A80036;stroke-width:1.0;"/><polygon fill="#A80036" points="642.69,298.1992,633.1167,295.8859,637.7718,299.0999,634.5578,303.7551,642.69,298.1992" style="stroke:#A80036;stroke-width:1.0;"/><!--MD5=[9229e617d8d213ae0e9080ddc15019ff]
link ClientFolderEditor to RevisionManager--><path codeLine="33" d="M556.26,397.7692 C587.37,391.9292 624.43,384.9792 655.84,379.0792 " fill="none" id="ClientFolderEditor-to-RevisionManager" style="stroke:#A80036;stroke-width:1.0;"/><polygon fill="#A80036" points="660.83,378.1492,651.2438,375.8898,655.9169,379.0776,652.7292,383.7507,660.83,378.1492" style="stroke:#A80036;stroke-width:1.0;"/><!--MD5=[8c03641663310cb648f7af161518f521]
link ClientFolderEditor to RevisionWebSocketManager--><path codeLine="34" d="M556.26,426.3092 C577.63,431.4992 601.8,437.3792 625.03,443.0192 " fill="none" id="ClientFolderEditor-to-RevisionWebSocketManager" style="stroke:#A80036;stroke-width:1.0;"/><polygon fill="#A80036" points="629.97,444.2192,622.1754,438.1989,625.1126,443.0335,620.2781,445.9707,629.97,444.2192" style="stroke:#A80036;stroke-width:1.0;"/><!--MD5=[4add9fc11e44134506a3a6a704804497]
link RevisionManager to RevisionLoader--><path codeLine="36" d="M790.19,348.6992 C824.09,339.3792 865.66,327.9492 899.53,318.6392 " fill="none" id="RevisionManager-to-RevisionLoader" style="stroke:#A80036;stroke-width:1.0;stroke-dasharray:7.0,7.0;"/><polygon fill="#A80036" points="904.47,317.2892,894.7354,315.7933,899.6455,318.6024,896.8365,323.5125,904.47,317.2892" style="stroke:#A80036;stroke-width:1.0;"/><!--MD5=[e3d6a3d191bad006e3af4269110e0841]
link RevisionLoader to RevisionCloudService--><path codeLine="37" d="M1023.92,301.1992 C1098.66,301.1992 1227.86,301.1992 1311.6,301.1992 " fill="none" id="RevisionLoader-to-RevisionCloudService" style="stroke:#A80036;stroke-width:1.0;"/><polygon fill="#A80036" points="1316.8,301.1992,1307.8,297.1992,1311.8,301.1992,1307.8,305.1992,1316.8,301.1992" style="stroke:#A80036;stroke-width:1.0;"/><!--MD5=[7f3001c6908f5f43c38ceb433cbfc9f1]
link RevisionManager to RevisionPersistence--><path codeLine="55" d="M790.46,342.0392 C801.07,336.8492 811.65,330.8792 821,324.1992 C824.42,321.7592 897.37,242.5992 937.34,199.1292 " fill="none" id="RevisionManager-to-RevisionPersistence" style="stroke:#A80036;stroke-width:1.0;"/><polygon fill="#A80036" points="940.87,195.2992,931.8357,199.2212,937.4875,198.9814,937.7273,204.6332,940.87,195.2992" style="stroke:#A80036;stroke-width:1.0;"/><!--MD5=[01ea839bb27a0ab3a440afd50aebfeed]
link RevisionWebSocketManager to RevisionWSDataIterator--><path codeLine="56" d="M821.33,467.1992 C839.66,467.1992 858.76,467.1992 876.79,467.1992 " fill="none" id="RevisionWebSocketManager-to-RevisionWSDataIterator" style="stroke:#A80036;stroke-width:1.0;"/><polygon fill="#A80036" points="881.85,467.1992,872.85,463.1992,876.85,467.1992,872.85,471.1992,881.85,467.1992" style="stroke:#A80036;stroke-width:1.0;"/><!--MD5=[30930101dbe3303bf592502615e0505d]
link RevisionWebSocketManager to RevisionWSDataStream--><path codeLine="57" d="M763.45,491.2592 C806.37,519.2092 876.97,565.1792 921.67,594.2892 " fill="none" id="RevisionWebSocketManager-to-RevisionWSDataStream" style="stroke:#A80036;stroke-width:1.0;"/><polygon fill="#A80036" points="925.92,597.0492,920.5649,588.7835,921.7314,594.3188,916.1961,595.4853,925.92,597.0492" style="stroke:#A80036;stroke-width:1.0;"/><!--MD5=[57d75e0fe35d28908cebae95473a1093]
reverse link RevisionWebSocket to RevisionWebSocketManager--><path codeLine="58" d="M353.58,517.9292 C429.56,507.5392 547.26,491.4392 629.64,480.1692 " fill="none" id="RevisionWebSocket-backto-RevisionWebSocketManager" style="stroke:#A80036;stroke-width:1.0;"/><polygon fill="#A80036" points="348.19,518.6692,357.6543,521.3946,353.1426,517.9822,356.555,513.4705,348.19,518.6692" style="stroke:#A80036;stroke-width:1.0;"/><!--MD5=[01a60dea83e98d02bfd07fafab8c7275]
reverse link RevisionWSDataIterator to FolderWSDataSink--><path codeLine="60" d="M1066.07,464.3592 C1146.43,462.0992 1256.52,459.0092 1325.95,457.0592 " fill="none" id="RevisionWSDataIterator-backto-FolderWSDataSink" style="stroke:#A80036;stroke-width:1.0;stroke-dasharray:7.0,7.0;"/><polygon fill="none" points="1066.26,471.3592,1046.07,464.9192,1065.86,457.3592,1066.26,471.3592" style="stroke:#A80036;stroke-width:1.0;"/><!--MD5=[b2d0e1bd8659dd6b6e9a5cdf6bd79316]
reverse link RevisionWSDataIterator to BlockWSDataSink--><path codeLine="61" d="M1065.83,483.9692 C1147.38,497.5292 1259.66,516.1992 1328.95,527.7192 " fill="none" id="RevisionWSDataIterator-backto-BlockWSDataSink" style="stroke:#A80036;stroke-width:1.0;stroke-dasharray:7.0,7.0;"/><polygon fill="none" points="1064.65,490.8692,1046.07,480.6792,1066.95,477.0592,1064.65,490.8692" style="stroke:#A80036;stroke-width:1.0;"/><!--MD5=[a0c0272236cba84be6292ddad761b0b8]
link FolderWSDataSink to WSDataProvider--><path codeLine="62" d="M1460.21,462.8192 C1497.18,467.0692 1543.09,472.3592 1580.03,476.6092 " fill="none" id="FolderWSDataSink-to-WSDataProvider" style="stroke:#A80036;stroke-width:1.0;"/><polygon fill="#A80036" points="1585.41,477.2292,1576.9273,472.2249,1580.4429,476.6566,1576.0111,480.1723,1585.41,477.2292" style="stroke:#A80036;stroke-width:1.0;"/><!--MD5=[f3a51a1b9d5afb51a0f3166cb55b0087]
link BlockWSDataSink to WSDataProvider--><path codeLine="63" d="M1457.26,524.6392 C1494.8,516.5992 1542.3,506.4192 1580.26,498.2892 " fill="none" id="BlockWSDataSink-to-WSDataProvider" style="stroke:#A80036;stroke-width:1.0;"/><polygon fill="#A80036" points="1585.32,497.1992,1575.6833,495.1661,1580.4302,498.243,1577.3533,502.9898,1585.32,497.1992" style="stroke:#A80036;stroke-width:1.0;"/><!--MD5=[ce750e608f924b6aa3301ef48929b91c]
reverse link RevisionWebSocket to BlockWebSocket--><path codeLine="65" d="M334.08,562.7792 C357.09,576.8492 384.16,593.0992 409,607.1992 C419.54,613.1792 430.98,619.4192 441.81,625.1992 " fill="none" id="RevisionWebSocket-backto-BlockWebSocket" style="stroke:#A80036;stroke-width:1.0;stroke-dasharray:7.0,7.0;"/><polygon fill="none" points="330.37,568.7092,317,552.2792,337.7,556.7892,330.37,568.7092" style="stroke:#A80036;stroke-width:1.0;"/><!--MD5=[930b9ddf7818238f92e8f262f2278e34]
reverse link RevisionWebSocket to FolderWebSocket--><path codeLine="66" d="M368.19,544.4692 C386.91,547.8592 406.28,551.3792 423.85,554.5592 " fill="none" id="RevisionWebSocket-backto-FolderWebSocket" style="stroke:#A80036;stroke-width:1.0;stroke-dasharray:7.0,7.0;"/><polygon fill="none" points="366.69,551.3092,348.26,540.8492,369.19,537.5392,366.69,551.3092" style="stroke:#A80036;stroke-width:1.0;"/><!--MD5=[f49750d1732ddde425cfb03ece8cf94a]
reverse link RevisionCloudService to BlockRevisionCloudService--><path codeLine="68" d="M1489.54,308.0192 C1511.2,309.5692 1534.12,311.2092 1555.56,312.7392 " fill="none" id="RevisionCloudService-backto-BlockRevisionCloudService" style="stroke:#A80036;stroke-width:1.0;stroke-dasharray:7.0,7.0;"/><polygon fill="none" points="1488.72,314.9792,1469.27,306.5792,1489.71,301.0192,1488.72,314.9792" style="stroke:#A80036;stroke-width:1.0;"/><!--MD5=[c9d33299c52c872675458cec408e00a6]
reverse link RevisionCloudService to FolderRevisionCloudService--><path codeLine="69" d="M1488.88,276.7292 C1509.81,271.3292 1531.96,265.6092 1552.83,260.2292 " fill="none" id="RevisionCloudService-backto-FolderRevisionCloudService" style="stroke:#A80036;stroke-width:1.0;stroke-dasharray:7.0,7.0;"/><polygon fill="none" points="1490.38,283.5692,1469.27,281.7892,1486.88,270.0092,1490.38,283.5692" style="stroke:#A80036;stroke-width:1.0;"/><!--MD5=[8753da949b2bea584ab2ba89883507da]
reverse link RevisionWSDataStream to BlockRevisionWSDataStream--><path codeLine="71" d="M1065.31,640.6992 C1135.24,654.2892 1227.96,672.3092 1296.75,685.6892 " fill="none" id="RevisionWSDataStream-backto-BlockRevisionWSDataStream" style="stroke:#A80036;stroke-width:1.0;stroke-dasharray:7.0,7.0;"/><polygon fill="none" points="1063.61,647.4992,1045.32,636.8092,1066.28,633.7592,1063.61,647.4992" style="stroke:#A80036;stroke-width:1.0;"/><!--MD5=[8e24dd3ce85f76dc4d258b9a60c7f1da]
reverse link RevisionWSDataStream to FolderRevisionWSDataStream--><path codeLine="72" d="M1065.48,621.1992 C1134.35,621.1992 1225.26,621.1992 1293.67,621.1992 " fill="none" id="RevisionWSDataStream-backto-FolderRevisionWSDataStream" style="stroke:#A80036;stroke-width:1.0;stroke-dasharray:7.0,7.0;"/><polygon fill="none" points="1065.32,628.1992,1045.32,621.1992,1065.32,614.1992,1065.32,628.1992" style="stroke:#A80036;stroke-width:1.0;"/><!--MD5=[69b70dbf529658b5a4cd4d65891f278d]
link BlockRevisionWSDataStream to ConflictController--><path codeLine="73" d="M1466.89,680.1892 C1501.53,668.7792 1542.72,655.2192 1576.86,643.9692 " fill="none" id="BlockRevisionWSDataStream-to-ConflictController" style="stroke:#A80036;stroke-width:1.0;"/><polygon fill="#A80036" points="1581.84,642.3292,1572.0422,641.3275,1577.0881,643.8846,1574.5309,648.9305,1581.84,642.3292" style="stroke:#A80036;stroke-width:1.0;"/><!--MD5=[917e1f8e4178567d60bf9b280fb027aa]
link FolderRevisionWSDataStream to ConflictController--><path codeLine="74" d="M1492.15,621.1992 C1520.4,621.1992 1550.61,621.1992 1576.71,621.1992 " fill="none" id="FolderRevisionWSDataStream-to-ConflictController" style="stroke:#A80036;stroke-width:1.0;"/><polygon fill="#A80036" points="1581.88,621.1992,1572.88,617.1992,1576.88,621.1992,1572.88,625.1992,1581.88,621.1992" style="stroke:#A80036;stroke-width:1.0;"/><!--MD5=[9fa2e5bd8ca0d927a0f5db5fd38d87db]
link ConflictController to ConflictResolver--><path codeLine="79" d="M1712.17,621.1992 C1741.89,621.1992 1777.16,621.1992 1807.08,621.1992 " fill="none" id="ConflictController-to-ConflictResolver" style="stroke:#A80036;stroke-width:1.0;"/><polygon fill="#A80036" points="1812.22,621.1992,1803.22,617.1992,1807.22,621.1992,1803.22,625.1992,1812.22,621.1992" style="stroke:#A80036;stroke-width:1.0;"/><!--MD5=[dcb2568ec009f8e5d57ac1a7f0e98938]
link ConflictController to ConflictRevisionSink--><path codeLine="80" d="M1695.44,597.1592 C1732.24,578.5192 1783.18,552.7092 1821.07,533.5092 " fill="none" id="ConflictController-to-ConflictRevisionSink" style="stroke:#A80036;stroke-width:1.0;"/><polygon fill="#A80036" points="1825.62,531.1992,1815.7831,531.6841,1821.1565,533.4524,1819.3881,538.8258,1825.62,531.1992" style="stroke:#A80036;stroke-width:1.0;"/><!--MD5=[e984fcbd238c204dddaf7e8fd7aa9980]
reverse link ConflictResolver to BlockConflictResolver--><path codeLine="81" d="M1955.31,636.8392 C1973.26,640.3392 1992.23,644.0292 2009.98,647.4892 " fill="none" id="ConflictResolver-backto-BlockConflictResolver" style="stroke:#A80036;stroke-width:1.0;stroke-dasharray:7.0,7.0;"/><polygon fill="none" points="1953.9,643.6992,1935.6,632.9992,1956.57,629.9592,1953.9,643.6992" style="stroke:#A80036;stroke-width:1.0;"/><!--MD5=[6b0793e418c683d2ae3a44be128a29c2]
reverse link ConflictResolver to FolderConflictResolver--><path codeLine="82" d="M1955.29,605.1792 C1972.21,601.7992 1990.04,598.2492 2006.89,594.8792 " fill="none" id="ConflictResolver-backto-FolderConflictResolver" style="stroke:#A80036;stroke-width:1.0;stroke-dasharray:7.0,7.0;"/><polygon fill="none" points="1956.59,612.0592,1935.6,609.1092,1953.85,598.3292,1956.59,612.0592" style="stroke:#A80036;stroke-width:1.0;"/><!--MD5=[a6f82d751ca1903899c89173ec9313c0]
link WSDataProvider to ConflictRevisionSink--><path codeLine="83" d="M1708.59,490.3892 C1731.06,492.6892 1757.08,495.3492 1781.69,497.8692 " fill="none" id="WSDataProvider-to-ConflictRevisionSink" style="stroke:#A80036;stroke-width:1.0;stroke-dasharray:7.0,7.0;"/><polygon fill="none" points="1782.73,490.9392,1801.92,499.9292,1781.31,504.8592,1782.73,490.9392" style="stroke:#A80036;stroke-width:1.0;"/><!--MD5=[419be750b918e46a37678a4287cf8791]
reverse link WSDataProviderDataSource to WSDataProvider--><path codeLine="84" d="M1269.53,380.7292 C1333.84,384.3692 1419.09,392.9992 1492,413.1992 C1531.44,424.1292 1573.45,444.1192 1603.61,460.1092 " fill="none" id="WSDataProviderDataSource-backto-WSDataProvider" style="stroke:#A80036;stroke-width:1.0;"/><polygon fill="#A80036" points="1264.16,380.4292,1272.9292,384.9126,1269.1526,380.701,1273.3641,376.9244,1264.16,380.4292" style="stroke:#A80036;stroke-width:1.0;"/><!--MD5=[4fc782f447c67fc5a55a66cb0e74f6fd]
link RevisionManager to WSDataProviderDataSource--><path codeLine="85" d="M790.37,367.9292 C859.58,369.8092 971.38,372.8392 1055.59,375.1192 " fill="none" id="RevisionManager-to-WSDataProviderDataSource" style="stroke:#A80036;stroke-width:1.0;stroke-dasharray:7.0,7.0;"/><polygon fill="none" points="1056.02,368.1292,1075.82,375.6692,1055.64,382.1292,1056.02,368.1292" style="stroke:#A80036;stroke-width:1.0;"/><!--MD5=[b6bd106ef224df489f51216a140a1629]
link RevisionPersistence to RevisionDiskCache--><path codeLine="90" d="M1022.67,147.1792 C1039.68,140.5492 1058.44,133.6792 1076,128.1992 C1157.89,102.6192 1253.97,80.6192 1318.5,66.9592 " fill="none" id="RevisionPersistence-to-RevisionDiskCache" style="stroke:#A80036;stroke-width:1.0;"/><polygon fill="#A80036" points="1323.48,65.9092,1313.8445,63.8703,1318.5895,66.95,1315.5098,71.6951,1323.48,65.9092" style="stroke:#A80036;stroke-width:1.0;"/><!--MD5=[ffcdff844bd862be059a15e7f5daad34]
link RevisionPersistence to RevisionMemoryCache--><path codeLine="91" d="M1036.47,165.1692 C1111.16,158.8792 1228.29,148.9992 1307.51,142.3192 " fill="none" id="RevisionPersistence-to-RevisionMemoryCache" style="stroke:#A80036;stroke-width:1.0;"/><polygon fill="#A80036" points="1312.67,141.8892,1303.3605,138.6747,1307.6884,142.3174,1304.0456,146.6453,1312.67,141.8892" style="stroke:#A80036;stroke-width:1.0;"/><!--MD5=[81240ba6a7011365cb18fbb8725b72ef]
link RevisionPersistence to RevisionSyncSequence--><path codeLine="92" d="M1036.47,179.0692 C1111.39,187.3092 1229.02,200.2592 1308.25,208.9792 " fill="none" id="RevisionPersistence-to-RevisionSyncSequence" style="stroke:#A80036;stroke-width:1.0;"/><polygon fill="#A80036" points="1313.41,209.5492,1304.8974,204.5959,1308.4395,209.0065,1304.029,212.5486,1313.41,209.5492" style="stroke:#A80036;stroke-width:1.0;"/><!--MD5=[b674b905c5807915286a27249a6a3c46]
reverse link RevisionDiskCache to SQLitePersistence--><path codeLine="95" d="M1482.65,52.1992 C1515.03,52.1992 1551.02,52.1992 1580.96,52.1992 " fill="none" id="RevisionDiskCache-backto-SQLitePersistence" style="stroke:#A80036;stroke-width:1.0;stroke-dasharray:7.0,7.0;"/><polygon fill="none" points="1482.53,59.1992,1462.53,52.1992,1482.53,45.1992,1482.53,59.1992" style="stroke:#A80036;stroke-width:1.0;"/><!--MD5=[057253b69cbc8e2a23c419abaac2f4d5]
@startuml AppFlowy
title flowy-sync
left to right direction

class BlockManager {}
interface BlockCloudService {
}

interface RevisionWebSocket {}
class BlockEditors {}
interface BlockUser {}
class ClientBlockEditor #F7931E {}
class ClientFolderEditor #00B5FF {}

BlockManager - -> BlockCloudService
BlockManager - -> RevisionWebSocket: own
BlockManager - -> BlockEditors
BlockManager - -> BlockUser

BlockEditors "1" *- - "*" ClientBlockEditor
BlockHttpCloudService .u.|> BlockCloudService
LocalServer .u.|> BlockCloudService
BlockUserImpl .u.|> BlockUser
BlockUserImpl - -> UserSession

class RevisionManager {}
class RevisionWebSocketManager {}
class EditorCommandSender {}
interface RevisionCloudService {}
ClientBlockEditor - -> RevisionManager
ClientBlockEditor - -> RevisionWebSocketManager
ClientBlockEditor - -> EditorCommandSender

ClientFolderEditor - -> RevisionManager
ClientFolderEditor - -> RevisionWebSocketManager

RevisionManager ..> RevisionLoader
RevisionLoader - -> RevisionCloudService

class RevisionPersistence {}
interface RevisionWSDataIterator {}
interface RevisionWSDataStream {}
class FolderWSDataSink #00B5FF {}
class FolderWebSocket #00B5FF {}
class FolderRevisionWSDataStream #00B5FF {}
class FolderConflictResolver #00B5FF {}
class FolderRevisionCloudService #00B5FF

class BlockWSDataSink #F7931E {}
class BlockWebSocket #F7931E {}
class BlockRevisionWSDataStream #F7931E {}
class BlockConflictResolver #F7931E {}
class BlockRevisionCloudService #F7931E


RevisionManager - -> RevisionPersistence
RevisionWebSocketManager - -> RevisionWSDataIterator
RevisionWebSocketManager - -> RevisionWSDataStream
RevisionWebSocketManager -u-> RevisionWebSocket

FolderWSDataSink .u.|> RevisionWSDataIterator
BlockWSDataSink .u.|> RevisionWSDataIterator
FolderWSDataSink - -> WSDataProvider
BlockWSDataSink - -> WSDataProvider

BlockWebSocket .u.|> RevisionWebSocket
FolderWebSocket .u.|> RevisionWebSocket

BlockRevisionCloudService .u.|> RevisionCloudService
FolderRevisionCloudService .u.|> RevisionCloudService

BlockRevisionWSDataStream .u.|> RevisionWSDataStream
FolderRevisionWSDataStream .U.|> RevisionWSDataStream
BlockRevisionWSDataStream - -> ConflictController
FolderRevisionWSDataStream - -> ConflictController

interface ConflictResolver {}
interface ConflictRevisionSink {}
interface WSDataProviderDataSource {}
ConflictController - -> ConflictResolver
ConflictController - -> ConflictRevisionSink
BlockConflictResolver .u.|> ConflictResolver
FolderConflictResolver .u.|> ConflictResolver
WSDataProvider ..|> ConflictRevisionSink
WSDataProvider -l-> WSDataProviderDataSource
RevisionManager ..|> WSDataProviderDataSource

interface RevisionDiskCache {}
class RevisionMemoryCache {}
class RevisionSyncSequence {}
RevisionPersistence -d-> RevisionDiskCache
RevisionPersistence -d-> RevisionMemoryCache
RevisionPersistence -d-> RevisionSyncSequence

class SQLitePersistence {}
SQLitePersistence .u.|> RevisionDiskCache
@enduml

PlantUML version 1.2022.1(Wed Feb 02 02:19:58 CST 2022)
(GPL source distribution)
Java Runtime: OpenJDK Runtime Environment
JVM: OpenJDK 64-Bit Server VM
Default Encoding: UTF-8
Language: en
Country: US
--></g></svg>