<?xml version="1.0" encoding="UTF-8" standalone="no"?><svg xmlns="http://www.w3.org/2000/svg" xmlns:xlink="http://www.w3.org/1999/xlink" contentScriptType="application/ecmascript" contentStyleType="text/css" height="834px" preserveAspectRatio="none" style="width:1583px;height:834px;background:#FFFFFF;" version="1.1" viewBox="0 0 1583 834" width="1583px" zoomAndPan="magnify"><defs><filter height="300%" id="fb7z9hfmbsxsu" width="300%" x="-1" y="-1"><feGaussianBlur result="blurOut" stdDeviation="2.0"/><feColorMatrix in="blurOut" result="blurOut2" type="matrix" values="0 0 0 0 0 0 0 0 0 0 0 0 0 0 0 0 0 0 .4 0"/><feOffset dx="4.0" dy="4.0" in="blurOut2" result="blurOut3"/><feBlend in="SourceGraphic" in2="blurOut3" mode="normal"/></filter></defs><g><text fill="#000000" font-family="sans-serif" font-size="18" lengthAdjust="spacing" textLength="121" x="724.5" y="17.4023">Editor Classes</text><!--MD5=[369a7419173baed7377dde330d5417c1]
class RevisionWebSocket--><rect codeLine="4" fill="#FEFECE" filter="url(#fb7z9hfmbsxsu)" height="48" id="RevisionWebSocket" style="stroke:#A80036;stroke-width:1.5;" width="141" x="475.5" y="111.1992"/><ellipse cx="490.5" cy="127.1992" fill="#B4A7E5" rx="11" ry="11" style="stroke:#A80036;stroke-width:1.0;"/><path d="M486.9277,123.4644 L486.9277,121.3062 L494.3071,121.3062 L494.3071,123.4644 L491.8418,123.4644 L491.8418,131.541 L494.3071,131.541 L494.3071,133.6992 L486.9277,133.6992 L486.9277,131.541 L489.3931,131.541 L489.3931,123.4644 Z " fill="#000000"/><text fill="#000000" font-family="sans-serif" font-size="12" font-style="italic" lengthAdjust="spacing" textLength="109" x="504.5" y="131.7344">RevisionWebSocket</text><line style="stroke:#A80036;stroke-width:1.5;" x1="476.5" x2="615.5" y1="143.1992" y2="143.1992"/><line style="stroke:#A80036;stroke-width:1.5;" x1="476.5" x2="615.5" y1="151.1992" y2="151.1992"/><!--MD5=[cd51b95c577ae7267c371d91835e5539]
class ClientBlockEditor--><rect codeLine="5" fill="#F7931E" filter="url(#fb7z9hfmbsxsu)" height="48" id="ClientBlockEditor" style="stroke:#A80036;stroke-width:1.5;" width="128" x="10" y="443.1992"/><ellipse cx="25" cy="459.1992" fill="#ADD1B2" rx="11" ry="11" style="stroke:#A80036;stroke-width:1.0;"/><path d="M27.4731,465.3423 Q26.8921,465.6411 26.2529,465.7905 Q25.6138,465.9399 24.9082,465.9399 Q22.4014,465.9399 21.0815,464.2881 Q19.7617,462.6362 19.7617,459.5151 Q19.7617,456.3857 21.0815,454.7339 Q22.4014,453.082 24.9082,453.082 Q25.6138,453.082 26.2612,453.2314 Q26.9087,453.3809 27.4731,453.6797 L27.4731,456.4023 Q26.8423,455.8213 26.2488,455.5515 Q25.6553,455.2817 25.0244,455.2817 Q23.6797,455.2817 22.9949,456.3484 Q22.3101,457.415 22.3101,459.5151 Q22.3101,461.6069 22.9949,462.6736 Q23.6797,463.7402 25.0244,463.7402 Q25.6553,463.7402 26.2488,463.4705 Q26.8423,463.2007 27.4731,462.6196 Z " fill="#000000"/><text fill="#000000" font-family="sans-serif" font-size="12" lengthAdjust="spacing" textLength="96" x="39" y="463.7344">ClientBlockEditor</text><line style="stroke:#A80036;stroke-width:1.5;" x1="11" x2="137" y1="475.1992" y2="475.1992"/><line style="stroke:#A80036;stroke-width:1.5;" x1="11" x2="137" y1="483.1992" y2="483.1992"/><!--MD5=[f9853ec7f6eff40c04912981236a06eb]
class ClientFolderEditor--><rect codeLine="6" fill="#00B5FF" filter="url(#fb7z9hfmbsxsu)" height="48" id="ClientFolderEditor" style="stroke:#A80036;stroke-width:1.5;" width="134" x="7" y="360.1992"/><ellipse cx="22" cy="376.1992" fill="#ADD1B2" rx="11" ry="11" style="stroke:#A80036;stroke-width:1.0;"/><path d="M24.4731,382.3423 Q23.8921,382.6411 23.2529,382.7905 Q22.6138,382.9399 21.9082,382.9399 Q19.4014,382.9399 18.0815,381.2881 Q16.7617,379.6362 16.7617,376.5151 Q16.7617,373.3857 18.0815,371.7339 Q19.4014,370.082 21.9082,370.082 Q22.6138,370.082 23.2612,370.2314 Q23.9087,370.3809 24.4731,370.6797 L24.4731,373.4023 Q23.8423,372.8213 23.2488,372.5515 Q22.6553,372.2817 22.0244,372.2817 Q20.6797,372.2817 19.9949,373.3484 Q19.3101,374.415 19.3101,376.5151 Q19.3101,378.6069 19.9949,379.6736 Q20.6797,380.7402 22.0244,380.7402 Q22.6553,380.7402 23.2488,380.4705 Q23.8423,380.2007 24.4731,379.6196 Z " fill="#000000"/><text fill="#000000" font-family="sans-serif" font-size="12" lengthAdjust="spacing" textLength="102" x="36" y="380.7344">ClientFolderEditor</text><line style="stroke:#A80036;stroke-width:1.5;" x1="8" x2="140" y1="392.1992" y2="392.1992"/><line style="stroke:#A80036;stroke-width:1.5;" x1="8" x2="140" y1="400.1992" y2="400.1992"/><!--MD5=[51b65ecf5d9f392ddc9c818b482c4955]
class ClientGridEditor--><rect codeLine="7" fill="#FB006D" filter="url(#fb7z9hfmbsxsu)" height="48" id="ClientGridEditor" style="stroke:#A80036;stroke-width:1.5;" width="123" x="12.5" y="277.1992"/><ellipse cx="27.5" cy="293.1992" fill="#ADD1B2" rx="11" ry="11" style="stroke:#A80036;stroke-width:1.0;"/><path d="M29.9731,299.3423 Q29.3921,299.6411 28.7529,299.7905 Q28.1138,299.9399 27.4082,299.9399 Q24.9014,299.9399 23.5815,298.2881 Q22.2617,296.6362 22.2617,293.5151 Q22.2617,290.3857 23.5815,288.7339 Q24.9014,287.082 27.4082,287.082 Q28.1138,287.082 28.7612,287.2314 Q29.4087,287.3809 29.9731,287.6797 L29.9731,290.4023 Q29.3423,289.8213 28.7488,289.5515 Q28.1553,289.2817 27.5244,289.2817 Q26.1797,289.2817 25.4949,290.3484 Q24.8101,291.415 24.8101,293.5151 Q24.8101,295.6069 25.4949,296.6736 Q26.1797,297.7402 27.5244,297.7402 Q28.1553,297.7402 28.7488,297.4705 Q29.3423,297.2007 29.9731,296.6196 Z " fill="#000000"/><text fill="#000000" font-family="sans-serif" font-size="12" lengthAdjust="spacing" textLength="91" x="41.5" y="297.7344">ClientGridEditor</text><line style="stroke:#A80036;stroke-width:1.5;" x1="13.5" x2="134.5" y1="309.1992" y2="309.1992"/><line style="stroke:#A80036;stroke-width:1.5;" x1="13.5" x2="134.5" y1="317.1992" y2="317.1992"/><!--MD5=[4c27615d5b4ea33c0906dc16595267cf]
class RevisionManager--><rect codeLine="9" fill="#FEFECE" filter="url(#fb7z9hfmbsxsu)" height="48" id="RevisionManager" style="stroke:#A80036;stroke-width:1.5;" width="129" x="232" y="443.1992"/><ellipse cx="247" cy="459.1992" fill="#ADD1B2" rx="11" ry="11" style="stroke:#A80036;stroke-width:1.0;"/><path d="M249.4731,465.3423 Q248.8921,465.6411 248.2529,465.7905 Q247.6138,465.9399 246.9082,465.9399 Q244.4014,465.9399 243.0815,464.2881 Q241.7617,462.6362 241.7617,459.5151 Q241.7617,456.3857 243.0815,454.7339 Q244.4014,453.082 246.9082,453.082 Q247.6138,453.082 248.2612,453.2314 Q248.9087,453.3809 249.4731,453.6797 L249.4731,456.4023 Q248.8423,455.8213 248.2488,455.5515 Q247.6553,455.2817 247.0244,455.2817 Q245.6797,455.2817 244.9949,456.3484 Q244.3101,457.415 244.3101,459.5151 Q244.3101,461.6069 244.9949,462.6736 Q245.6797,463.7402 247.0244,463.7402 Q247.6553,463.7402 248.2488,463.4705 Q248.8423,463.2007 249.4731,462.6196 Z " fill="#000000"/><text fill="#000000" font-family="sans-serif" font-size="12" lengthAdjust="spacing" textLength="97" x="261" y="463.7344">RevisionManager</text><line style="stroke:#A80036;stroke-width:1.5;" x1="233" x2="360" y1="475.1992" y2="475.1992"/><line style="stroke:#A80036;stroke-width:1.5;" x1="233" x2="360" y1="483.1992" y2="483.1992"/><!--MD5=[fd06f30b34df28d1ce9c4ba6714c6e0f]
class RevisionWebSocketManager--><rect codeLine="10" fill="#FEFECE" filter="url(#fb7z9hfmbsxsu)" height="48" id="RevisionWebSocketManager" style="stroke:#A80036;stroke-width:1.5;" width="191" x="201" y="277.1992"/><ellipse cx="216" cy="293.1992" fill="#ADD1B2" rx="11" ry="11" style="stroke:#A80036;stroke-width:1.0;"/><path d="M218.4731,299.3423 Q217.8921,299.6411 217.2529,299.7905 Q216.6138,299.9399 215.9082,299.9399 Q213.4014,299.9399 212.0815,298.2881 Q210.7617,296.6362 210.7617,293.5151 Q210.7617,290.3857 212.0815,288.7339 Q213.4014,287.082 215.9082,287.082 Q216.6138,287.082 217.2612,287.2314 Q217.9087,287.3809 218.4731,287.6797 L218.4731,290.4023 Q217.8423,289.8213 217.2488,289.5515 Q216.6553,289.2817 216.0244,289.2817 Q214.6797,289.2817 213.9949,290.3484 Q213.3101,291.415 213.3101,293.5151 Q213.3101,295.6069 213.9949,296.6736 Q214.6797,297.7402 216.0244,297.7402 Q216.6553,297.7402 217.2488,297.4705 Q217.8423,297.2007 218.4731,296.6196 Z " fill="#000000"/><text fill="#000000" font-family="sans-serif" font-size="12" lengthAdjust="spacing" textLength="159" x="230" y="297.7344">RevisionWebSocketManager</text><line style="stroke:#A80036;stroke-width:1.5;" x1="202" x2="391" y1="309.1992" y2="309.1992"/><line style="stroke:#A80036;stroke-width:1.5;" x1="202" x2="391" y1="317.1992" y2="317.1992"/><!--MD5=[c9edfc35bca09a4a707fe96a91982092]
class EditorCommandSender--><rect codeLine="11" fill="#FEFECE" filter="url(#fb7z9hfmbsxsu)" height="48" id="EditorCommandSender" style="stroke:#A80036;stroke-width:1.5;" width="165" x="214" y="526.1992"/><ellipse cx="229" cy="542.1992" fill="#ADD1B2" rx="11" ry="11" style="stroke:#A80036;stroke-width:1.0;"/><path d="M231.4731,548.3423 Q230.8921,548.6411 230.2529,548.7905 Q229.6138,548.9399 228.9082,548.9399 Q226.4014,548.9399 225.0815,547.2881 Q223.7617,545.6362 223.7617,542.5151 Q223.7617,539.3857 225.0815,537.7339 Q226.4014,536.082 228.9082,536.082 Q229.6138,536.082 230.2612,536.2314 Q230.9087,536.3809 231.4731,536.6797 L231.4731,539.4023 Q230.8423,538.8213 230.2488,538.5515 Q229.6553,538.2817 229.0244,538.2817 Q227.6797,538.2817 226.9949,539.3484 Q226.3101,540.415 226.3101,542.5151 Q226.3101,544.6069 226.9949,545.6736 Q227.6797,546.7402 229.0244,546.7402 Q229.6553,546.7402 230.2488,546.4705 Q230.8423,546.2007 231.4731,545.6196 Z " fill="#000000"/><text fill="#000000" font-family="sans-serif" font-size="12" lengthAdjust="spacing" textLength="133" x="243" y="546.7344">EditorCommandSender</text><line style="stroke:#A80036;stroke-width:1.5;" x1="215" x2="378" y1="558.1992" y2="558.1992"/><line style="stroke:#A80036;stroke-width:1.5;" x1="215" x2="378" y1="566.1992" y2="566.1992"/><!--MD5=[3cfbf80c62de7e0f6f62bafa91c2a699]
class RevisionCloudService--><rect codeLine="12" fill="#FEFECE" filter="url(#fb7z9hfmbsxsu)" height="48" id="RevisionCloudService" style="stroke:#A80036;stroke-width:1.5;" width="152" x="723" y="523.1992"/><ellipse cx="738" cy="539.1992" fill="#B4A7E5" rx="11" ry="11" style="stroke:#A80036;stroke-width:1.0;"/><path d="M734.4277,535.4644 L734.4277,533.3062 L741.8071,533.3062 L741.8071,535.4644 L739.3418,535.4644 L739.3418,543.541 L741.8071,543.541 L741.8071,545.6992 L734.4277,545.6992 L734.4277,543.541 L736.8931,543.541 L736.8931,535.4644 Z " fill="#000000"/><text fill="#000000" font-family="sans-serif" font-size="12" font-style="italic" lengthAdjust="spacing" textLength="120" x="752" y="543.7344">RevisionCloudService</text><line style="stroke:#A80036;stroke-width:1.5;" x1="724" x2="874" y1="555.1992" y2="555.1992"/><line style="stroke:#A80036;stroke-width:1.5;" x1="724" x2="874" y1="563.1992" y2="563.1992"/><!--MD5=[d735558d1242f9c45c211f144f8ffa8e]
class RevisionLoader--><rect fill="#FEFECE" filter="url(#fb7z9hfmbsxsu)" height="48" id="RevisionLoader" style="stroke:#A80036;stroke-width:1.5;" width="119" x="486.5" y="526.1992"/><ellipse cx="501.5" cy="542.1992" fill="#ADD1B2" rx="11" ry="11" style="stroke:#A80036;stroke-width:1.0;"/><path d="M503.9731,548.3423 Q503.3921,548.6411 502.7529,548.7905 Q502.1138,548.9399 501.4082,548.9399 Q498.9014,548.9399 497.5815,547.2881 Q496.2617,545.6362 496.2617,542.5151 Q496.2617,539.3857 497.5815,537.7339 Q498.9014,536.082 501.4082,536.082 Q502.1138,536.082 502.7612,536.2314 Q503.4087,536.3809 503.9731,536.6797 L503.9731,539.4023 Q503.3423,538.8213 502.7488,538.5515 Q502.1553,538.2817 501.5244,538.2817 Q500.1797,538.2817 499.4949,539.3484 Q498.8101,540.415 498.8101,542.5151 Q498.8101,544.6069 499.4949,545.6736 Q500.1797,546.7402 501.5244,546.7402 Q502.1553,546.7402 502.7488,546.4705 Q503.3423,546.2007 503.9731,545.6196 Z " fill="#000000"/><text fill="#000000" font-family="sans-serif" font-size="12" lengthAdjust="spacing" textLength="87" x="515.5" y="546.7344">RevisionLoader</text><line style="stroke:#A80036;stroke-width:1.5;" x1="487.5" x2="604.5" y1="558.1992" y2="558.1992"/><line style="stroke:#A80036;stroke-width:1.5;" x1="487.5" x2="604.5" y1="566.1992" y2="566.1992"/><!--MD5=[c36addf2c070deaee9ce9c1f4b63e1c1]
class RevisionPersistence--><rect codeLine="26" fill="#FEFECE" filter="url(#fb7z9hfmbsxsu)" height="48" id="RevisionPersistence" style="stroke:#A80036;stroke-width:1.5;" width="144" x="474" y="647.1992"/><ellipse cx="489" cy="663.1992" fill="#ADD1B2" rx="11" ry="11" style="stroke:#A80036;stroke-width:1.0;"/><path d="M491.4731,669.3423 Q490.8921,669.6411 490.2529,669.7905 Q489.6138,669.9399 488.9082,669.9399 Q486.4014,669.9399 485.0815,668.2881 Q483.7617,666.6362 483.7617,663.5151 Q483.7617,660.3857 485.0815,658.7339 Q486.4014,657.082 488.9082,657.082 Q489.6138,657.082 490.2612,657.2314 Q490.9087,657.3809 491.4731,657.6797 L491.4731,660.4023 Q490.8423,659.8213 490.2488,659.5515 Q489.6553,659.2817 489.0244,659.2817 Q487.6797,659.2817 486.9949,660.3484 Q486.3101,661.415 486.3101,663.5151 Q486.3101,665.6069 486.9949,666.6736 Q487.6797,667.7402 489.0244,667.7402 Q489.6553,667.7402 490.2488,667.4705 Q490.8423,667.2007 491.4731,666.6196 Z " fill="#000000"/><text fill="#000000" font-family="sans-serif" font-size="12" lengthAdjust="spacing" textLength="112" x="503" y="667.7344">RevisionPersistence</text><line style="stroke:#A80036;stroke-width:1.5;" x1="475" x2="617" y1="679.1992" y2="679.1992"/><line style="stroke:#A80036;stroke-width:1.5;" x1="475" x2="617" y1="687.1992" y2="687.1992"/><!--MD5=[698e30b6c19c16a925c490ca0c101cdc]
class RevisionWebSocketSink--><rect codeLine="27" fill="#FEFECE" filter="url(#fb7z9hfmbsxsu)" height="48" id="RevisionWebSocketSink" style="stroke:#A80036;stroke-width:1.5;" width="164" x="214.5" y="360.1992"/><ellipse cx="229.5" cy="376.1992" fill="#B4A7E5" rx="11" ry="11" style="stroke:#A80036;stroke-width:1.0;"/><path d="M225.9277,372.4644 L225.9277,370.3062 L233.3071,370.3062 L233.3071,372.4644 L230.8418,372.4644 L230.8418,380.541 L233.3071,380.541 L233.3071,382.6992 L225.9277,382.6992 L225.9277,380.541 L228.3931,380.541 L228.3931,372.4644 Z " fill="#000000"/><text fill="#000000" font-family="sans-serif" font-size="12" font-style="italic" lengthAdjust="spacing" textLength="132" x="243.5" y="380.7344">RevisionWebSocketSink</text><line style="stroke:#A80036;stroke-width:1.5;" x1="215.5" x2="377.5" y1="392.1992" y2="392.1992"/><line style="stroke:#A80036;stroke-width:1.5;" x1="215.5" x2="377.5" y1="400.1992" y2="400.1992"/><!--MD5=[5b5ce862c132793b464e4e71728096f1]
class RevisionWSDataStream--><rect codeLine="28" fill="#FEFECE" filter="url(#fb7z9hfmbsxsu)" height="48" id="RevisionWSDataStream" style="stroke:#A80036;stroke-width:1.5;" width="162" x="465" y="194.1992"/><ellipse cx="480" cy="210.1992" fill="#B4A7E5" rx="11" ry="11" style="stroke:#A80036;stroke-width:1.0;"/><path d="M476.4277,206.4644 L476.4277,204.3062 L483.8071,204.3062 L483.8071,206.4644 L481.3418,206.4644 L481.3418,214.541 L483.8071,214.541 L483.8071,216.6992 L476.4277,216.6992 L476.4277,214.541 L478.8931,214.541 L478.8931,206.4644 Z " fill="#000000"/><text fill="#000000" font-family="sans-serif" font-size="12" font-style="italic" lengthAdjust="spacing" textLength="130" x="494" y="214.7344">RevisionWSDataStream</text><line style="stroke:#A80036;stroke-width:1.5;" x1="466" x2="626" y1="226.1992" y2="226.1992"/><line style="stroke:#A80036;stroke-width:1.5;" x1="466" x2="626" y1="234.1992" y2="234.1992"/><!--MD5=[7ba05a2cf496b68aa22f017395cec291]
class FolderWSDataSink--><rect codeLine="29" fill="#00B5FF" filter="url(#fb7z9hfmbsxsu)" height="48" id="FolderWSDataSink" style="stroke:#A80036;stroke-width:1.5;" width="134" x="479" y="360.1992"/><ellipse cx="494" cy="376.1992" fill="#ADD1B2" rx="11" ry="11" style="stroke:#A80036;stroke-width:1.0;"/><path d="M496.4731,382.3423 Q495.8921,382.6411 495.2529,382.7905 Q494.6138,382.9399 493.9082,382.9399 Q491.4014,382.9399 490.0815,381.2881 Q488.7617,379.6362 488.7617,376.5151 Q488.7617,373.3857 490.0815,371.7339 Q491.4014,370.082 493.9082,370.082 Q494.6138,370.082 495.2612,370.2314 Q495.9087,370.3809 496.4731,370.6797 L496.4731,373.4023 Q495.8423,372.8213 495.2488,372.5515 Q494.6553,372.2817 494.0244,372.2817 Q492.6797,372.2817 491.9949,373.3484 Q491.3101,374.415 491.3101,376.5151 Q491.3101,378.6069 491.9949,379.6736 Q492.6797,380.7402 494.0244,380.7402 Q494.6553,380.7402 495.2488,380.4705 Q495.8423,380.2007 496.4731,379.6196 Z " fill="#000000"/><text fill="#000000" font-family="sans-serif" font-size="12" lengthAdjust="spacing" textLength="102" x="508" y="380.7344">FolderWSDataSink</text><line style="stroke:#A80036;stroke-width:1.5;" x1="480" x2="612" y1="392.1992" y2="392.1992"/><line style="stroke:#A80036;stroke-width:1.5;" x1="480" x2="612" y1="400.1992" y2="400.1992"/><!--MD5=[842c2d8e0cff533501ef312f3c6b79c9]
class FolderWebSocket--><rect codeLine="30" fill="#00B5FF" filter="url(#fb7z9hfmbsxsu)" height="48" id="FolderWebSocket" style="stroke:#A80036;stroke-width:1.5;" width="130" x="734" y="111.1992"/><ellipse cx="749" cy="127.1992" fill="#ADD1B2" rx="11" ry="11" style="stroke:#A80036;stroke-width:1.0;"/><path d="M751.4731,133.3423 Q750.8921,133.6411 750.2529,133.7905 Q749.6138,133.9399 748.9082,133.9399 Q746.4014,133.9399 745.0815,132.2881 Q743.7617,130.6362 743.7617,127.5151 Q743.7617,124.3857 745.0815,122.7339 Q746.4014,121.082 748.9082,121.082 Q749.6138,121.082 750.2612,121.2314 Q750.9087,121.3809 751.4731,121.6797 L751.4731,124.4023 Q750.8423,123.8213 750.2488,123.5515 Q749.6553,123.2817 749.0244,123.2817 Q747.6797,123.2817 746.9949,124.3484 Q746.3101,125.415 746.3101,127.5151 Q746.3101,129.6069 746.9949,130.6736 Q747.6797,131.7402 749.0244,131.7402 Q749.6553,131.7402 750.2488,131.4705 Q750.8423,131.2007 751.4731,130.6196 Z " fill="#000000"/><text fill="#000000" font-family="sans-serif" font-size="12" lengthAdjust="spacing" textLength="98" x="763" y="131.7344">FolderWebSocket</text><line style="stroke:#A80036;stroke-width:1.5;" x1="735" x2="863" y1="143.1992" y2="143.1992"/><line style="stroke:#A80036;stroke-width:1.5;" x1="735" x2="863" y1="151.1992" y2="151.1992"/><!--MD5=[dfd542adf6cc379c81dd4956c9c12a13]
class FolderRevisionWSDataStream--><rect codeLine="31" fill="#00B5FF" filter="url(#fb7z9hfmbsxsu)" height="48" id="FolderRevisionWSDataStream" style="stroke:#A80036;stroke-width:1.5;" width="198" x="700" y="194.1992"/><ellipse cx="715" cy="210.1992" fill="#ADD1B2" rx="11" ry="11" style="stroke:#A80036;stroke-width:1.0;"/><path d="M717.4731,216.3423 Q716.8921,216.6411 716.2529,216.7905 Q715.6138,216.9399 714.9082,216.9399 Q712.4014,216.9399 711.0815,215.2881 Q709.7617,213.6362 709.7617,210.5151 Q709.7617,207.3857 711.0815,205.7339 Q712.4014,204.082 714.9082,204.082 Q715.6138,204.082 716.2612,204.2314 Q716.9087,204.3809 717.4731,204.6797 L717.4731,207.4023 Q716.8423,206.8213 716.2488,206.5515 Q715.6553,206.2817 715.0244,206.2817 Q713.6797,206.2817 712.9949,207.3484 Q712.3101,208.415 712.3101,210.5151 Q712.3101,212.6069 712.9949,213.6736 Q713.6797,214.7402 715.0244,214.7402 Q715.6553,214.7402 716.2488,214.4705 Q716.8423,214.2007 717.4731,213.6196 Z " fill="#000000"/><text fill="#000000" font-family="sans-serif" font-size="12" lengthAdjust="spacing" textLength="166" x="729" y="214.7344">FolderRevisionWSDataStream</text><line style="stroke:#A80036;stroke-width:1.5;" x1="701" x2="897" y1="226.1992" y2="226.1992"/><line style="stroke:#A80036;stroke-width:1.5;" x1="701" x2="897" y1="234.1992" y2="234.1992"/><!--MD5=[97a737a8aa4e6136e3e581498b80b720]
class FolderConflictResolver--><rect codeLine="32" fill="#00B5FF" filter="url(#fb7z9hfmbsxsu)" height="48" id="FolderConflictResolver" style="stroke:#A80036;stroke-width:1.5;" width="159" x="1410" y="236.1992"/><ellipse cx="1425" cy="252.1992" fill="#ADD1B2" rx="11" ry="11" style="stroke:#A80036;stroke-width:1.0;"/><path d="M1427.4731,258.3423 Q1426.8921,258.6411 1426.2529,258.7905 Q1425.6138,258.9399 1424.9082,258.9399 Q1422.4014,258.9399 1421.0815,257.2881 Q1419.7617,255.6362 1419.7617,252.5151 Q1419.7617,249.3857 1421.0815,247.7339 Q1422.4014,246.082 1424.9082,246.082 Q1425.6138,246.082 1426.2612,246.2314 Q1426.9087,246.3809 1427.4731,246.6797 L1427.4731,249.4023 Q1426.8423,248.8213 1426.2488,248.5515 Q1425.6553,248.2817 1425.0244,248.2817 Q1423.6797,248.2817 1422.9949,249.3484 Q1422.3101,250.415 1422.3101,252.5151 Q1422.3101,254.6069 1422.9949,255.6736 Q1423.6797,256.7402 1425.0244,256.7402 Q1425.6553,256.7402 1426.2488,256.4705 Q1426.8423,256.2007 1427.4731,255.6196 Z " fill="#000000"/><text fill="#000000" font-family="sans-serif" font-size="12" lengthAdjust="spacing" textLength="127" x="1439" y="256.7344">FolderConflictResolver</text><line style="stroke:#A80036;stroke-width:1.5;" x1="1411" x2="1568" y1="268.1992" y2="268.1992"/><line style="stroke:#A80036;stroke-width:1.5;" x1="1411" x2="1568" y1="276.1992" y2="276.1992"/><!--MD5=[085f2b015d6e563a0435491a720e29c2]
class FolderRevisionCloudService--><rect codeLine="33" fill="#00B5FF" filter="url(#fb7z9hfmbsxsu)" height="48" id="FolderRevisionCloudService" style="stroke:#A80036;stroke-width:1.5;" width="188" x="958" y="606.1992"/><ellipse cx="973" cy="622.1992" fill="#ADD1B2" rx="11" ry="11" style="stroke:#A80036;stroke-width:1.0;"/><path d="M975.4731,628.3423 Q974.8921,628.6411 974.2529,628.7905 Q973.6138,628.9399 972.9082,628.9399 Q970.4014,628.9399 969.0815,627.2881 Q967.7617,625.6362 967.7617,622.5151 Q967.7617,619.3857 969.0815,617.7339 Q970.4014,616.082 972.9082,616.082 Q973.6138,616.082 974.2612,616.2314 Q974.9087,616.3809 975.4731,616.6797 L975.4731,619.4023 Q974.8423,618.8213 974.2488,618.5515 Q973.6553,618.2817 973.0244,618.2817 Q971.6797,618.2817 970.9949,619.3484 Q970.3101,620.415 970.3101,622.5151 Q970.3101,624.6069 970.9949,625.6736 Q971.6797,626.7402 973.0244,626.7402 Q973.6553,626.7402 974.2488,626.4705 Q974.8423,626.2007 975.4731,625.6196 Z " fill="#000000"/><text fill="#000000" font-family="sans-serif" font-size="12" lengthAdjust="spacing" textLength="156" x="987" y="626.7344">FolderRevisionCloudService</text><line style="stroke:#A80036;stroke-width:1.5;" x1="959" x2="1145" y1="638.1992" y2="638.1992"/><line style="stroke:#A80036;stroke-width:1.5;" x1="959" x2="1145" y1="646.1992" y2="646.1992"/><!--MD5=[1b0025173838cf6bcac632be6050e66f]
class BlockWSDataSink--><rect codeLine="35" fill="#F7931E" filter="url(#fb7z9hfmbsxsu)" height="48" id="BlockWSDataSink" style="stroke:#A80036;stroke-width:1.5;" width="128" x="482" y="277.1992"/><ellipse cx="497" cy="293.1992" fill="#ADD1B2" rx="11" ry="11" style="stroke:#A80036;stroke-width:1.0;"/><path d="M499.4731,299.3423 Q498.8921,299.6411 498.2529,299.7905 Q497.6138,299.9399 496.9082,299.9399 Q494.4014,299.9399 493.0815,298.2881 Q491.7617,296.6362 491.7617,293.5151 Q491.7617,290.3857 493.0815,288.7339 Q494.4014,287.082 496.9082,287.082 Q497.6138,287.082 498.2612,287.2314 Q498.9087,287.3809 499.4731,287.6797 L499.4731,290.4023 Q498.8423,289.8213 498.2488,289.5515 Q497.6553,289.2817 497.0244,289.2817 Q495.6797,289.2817 494.9949,290.3484 Q494.3101,291.415 494.3101,293.5151 Q494.3101,295.6069 494.9949,296.6736 Q495.6797,297.7402 497.0244,297.7402 Q497.6553,297.7402 498.2488,297.4705 Q498.8423,297.2007 499.4731,296.6196 Z " fill="#000000"/><text fill="#000000" font-family="sans-serif" font-size="12" lengthAdjust="spacing" textLength="96" x="511" y="297.7344">BlockWSDataSink</text><line style="stroke:#A80036;stroke-width:1.5;" x1="483" x2="609" y1="309.1992" y2="309.1992"/><line style="stroke:#A80036;stroke-width:1.5;" x1="483" x2="609" y1="317.1992" y2="317.1992"/><!--MD5=[08588fe17cfce53c3250676e753bbc97]
class BlockWebSocket--><rect codeLine="36" fill="#F7931E" filter="url(#fb7z9hfmbsxsu)" height="48" id="BlockWebSocket" style="stroke:#A80036;stroke-width:1.5;" width="124" x="737" y="28.1992"/><ellipse cx="752" cy="44.1992" fill="#ADD1B2" rx="11" ry="11" style="stroke:#A80036;stroke-width:1.0;"/><path d="M754.4731,50.3423 Q753.8921,50.6411 753.2529,50.7905 Q752.6138,50.9399 751.9082,50.9399 Q749.4014,50.9399 748.0815,49.2881 Q746.7617,47.6362 746.7617,44.5151 Q746.7617,41.3857 748.0815,39.7339 Q749.4014,38.082 751.9082,38.082 Q752.6138,38.082 753.2612,38.2314 Q753.9087,38.3809 754.4731,38.6797 L754.4731,41.4023 Q753.8423,40.8213 753.2488,40.5515 Q752.6553,40.2817 752.0244,40.2817 Q750.6797,40.2817 749.9949,41.3484 Q749.3101,42.415 749.3101,44.5151 Q749.3101,46.6069 749.9949,47.6736 Q750.6797,48.7402 752.0244,48.7402 Q752.6553,48.7402 753.2488,48.4705 Q753.8423,48.2007 754.4731,47.6196 Z " fill="#000000"/><text fill="#000000" font-family="sans-serif" font-size="12" lengthAdjust="spacing" textLength="92" x="766" y="48.7344">BlockWebSocket</text><line style="stroke:#A80036;stroke-width:1.5;" x1="738" x2="860" y1="60.1992" y2="60.1992"/><line style="stroke:#A80036;stroke-width:1.5;" x1="738" x2="860" y1="68.1992" y2="68.1992"/><!--MD5=[4eb3a1a17e1072b3c881c6012e2622e3]
class BlockRevisionWSDataStream--><rect codeLine="37" fill="#F7931E" filter="url(#fb7z9hfmbsxsu)" height="48" id="BlockRevisionWSDataStream" style="stroke:#A80036;stroke-width:1.5;" width="192" x="703" y="277.1992"/><ellipse cx="718" cy="293.1992" fill="#ADD1B2" rx="11" ry="11" style="stroke:#A80036;stroke-width:1.0;"/><path d="M720.4731,299.3423 Q719.8921,299.6411 719.2529,299.7905 Q718.6138,299.9399 717.9082,299.9399 Q715.4014,299.9399 714.0815,298.2881 Q712.7617,296.6362 712.7617,293.5151 Q712.7617,290.3857 714.0815,288.7339 Q715.4014,287.082 717.9082,287.082 Q718.6138,287.082 719.2612,287.2314 Q719.9087,287.3809 720.4731,287.6797 L720.4731,290.4023 Q719.8423,289.8213 719.2488,289.5515 Q718.6553,289.2817 718.0244,289.2817 Q716.6797,289.2817 715.9949,290.3484 Q715.3101,291.415 715.3101,293.5151 Q715.3101,295.6069 715.9949,296.6736 Q716.6797,297.7402 718.0244,297.7402 Q718.6553,297.7402 719.2488,297.4705 Q719.8423,297.2007 720.4731,296.6196 Z " fill="#000000"/><text fill="#000000" font-family="sans-serif" font-size="12" lengthAdjust="spacing" textLength="160" x="732" y="297.7344">BlockRevisionWSDataStream</text><line style="stroke:#A80036;stroke-width:1.5;" x1="704" x2="894" y1="309.1992" y2="309.1992"/><line style="stroke:#A80036;stroke-width:1.5;" x1="704" x2="894" y1="317.1992" y2="317.1992"/><!--MD5=[7e6021a223480d12f36ab042d05221e6]
class BlockConflictResolver--><rect codeLine="38" fill="#F7931E" filter="url(#fb7z9hfmbsxsu)" height="48" id="BlockConflictResolver" style="stroke:#A80036;stroke-width:1.5;" width="153" x="1413" y="319.1992"/><ellipse cx="1428" cy="335.1992" fill="#ADD1B2" rx="11" ry="11" style="stroke:#A80036;stroke-width:1.0;"/><path d="M1430.4731,341.3423 Q1429.8921,341.6411 1429.2529,341.7905 Q1428.6138,341.9399 1427.9082,341.9399 Q1425.4014,341.9399 1424.0815,340.2881 Q1422.7617,338.6362 1422.7617,335.5151 Q1422.7617,332.3857 1424.0815,330.7339 Q1425.4014,329.082 1427.9082,329.082 Q1428.6138,329.082 1429.2612,329.2314 Q1429.9087,329.3809 1430.4731,329.6797 L1430.4731,332.4023 Q1429.8423,331.8213 1429.2488,331.5515 Q1428.6553,331.2817 1428.0244,331.2817 Q1426.6797,331.2817 1425.9949,332.3484 Q1425.3101,333.415 1425.3101,335.5151 Q1425.3101,337.6069 1425.9949,338.6736 Q1426.6797,339.7402 1428.0244,339.7402 Q1428.6553,339.7402 1429.2488,339.4705 Q1429.8423,339.2007 1430.4731,338.6196 Z " fill="#000000"/><text fill="#000000" font-family="sans-serif" font-size="12" lengthAdjust="spacing" textLength="121" x="1442" y="339.7344">BlockConflictResolver</text><line style="stroke:#A80036;stroke-width:1.5;" x1="1414" x2="1565" y1="351.1992" y2="351.1992"/><line style="stroke:#A80036;stroke-width:1.5;" x1="1414" x2="1565" y1="359.1992" y2="359.1992"/><!--MD5=[19c54cc3d73eaf449eb473b3a7844d72]
class BlockRevisionCloudService--><rect codeLine="39" fill="#F7931E" filter="url(#fb7z9hfmbsxsu)" height="48" id="BlockRevisionCloudService" style="stroke:#A80036;stroke-width:1.5;" width="182" x="961" y="440.1992"/><ellipse cx="976" cy="456.1992" fill="#ADD1B2" rx="11" ry="11" style="stroke:#A80036;stroke-width:1.0;"/><path d="M978.4731,462.3423 Q977.8921,462.6411 977.2529,462.7905 Q976.6138,462.9399 975.9082,462.9399 Q973.4014,462.9399 972.0815,461.2881 Q970.7617,459.6362 970.7617,456.5151 Q970.7617,453.3857 972.0815,451.7339 Q973.4014,450.082 975.9082,450.082 Q976.6138,450.082 977.2612,450.2314 Q977.9087,450.3809 978.4731,450.6797 L978.4731,453.4023 Q977.8423,452.8213 977.2488,452.5515 Q976.6553,452.2817 976.0244,452.2817 Q974.6797,452.2817 973.9949,453.3484 Q973.3101,454.415 973.3101,456.5151 Q973.3101,458.6069 973.9949,459.6736 Q974.6797,460.7402 976.0244,460.7402 Q976.6553,460.7402 977.2488,460.4705 Q977.8423,460.2007 978.4731,459.6196 Z " fill="#000000"/><text fill="#000000" font-family="sans-serif" font-size="12" lengthAdjust="spacing" textLength="150" x="990" y="460.7344">BlockRevisionCloudService</text><line style="stroke:#A80036;stroke-width:1.5;" x1="962" x2="1142" y1="472.1992" y2="472.1992"/><line style="stroke:#A80036;stroke-width:1.5;" x1="962" x2="1142" y1="480.1992" y2="480.1992"/><!--MD5=[0987fc0c0c91d0713ae516f3d95c6422]
class GridRevisionCloudService--><rect codeLine="41" fill="#FB006D" filter="url(#fb7z9hfmbsxsu)" height="48" id="GridRevisionCloudService" style="stroke:#A80036;stroke-width:1.5;" width="177" x="963.5" y="523.1992"/><ellipse cx="978.5" cy="539.1992" fill="#ADD1B2" rx="11" ry="11" style="stroke:#A80036;stroke-width:1.0;"/><path d="M980.9731,545.3423 Q980.3921,545.6411 979.7529,545.7905 Q979.1138,545.9399 978.4082,545.9399 Q975.9014,545.9399 974.5815,544.2881 Q973.2617,542.6362 973.2617,539.5151 Q973.2617,536.3857 974.5815,534.7339 Q975.9014,533.082 978.4082,533.082 Q979.1138,533.082 979.7612,533.2314 Q980.4087,533.3809 980.9731,533.6797 L980.9731,536.4023 Q980.3423,535.8213 979.7488,535.5515 Q979.1553,535.2817 978.5244,535.2817 Q977.1797,535.2817 976.4949,536.3484 Q975.8101,537.415 975.8101,539.5151 Q975.8101,541.6069 976.4949,542.6736 Q977.1797,543.7402 978.5244,543.7402 Q979.1553,543.7402 979.7488,543.4705 Q980.3423,543.2007 980.9731,542.6196 Z " fill="#000000"/><text fill="#000000" font-family="sans-serif" font-size="12" lengthAdjust="spacing" textLength="145" x="992.5" y="543.7344">GridRevisionCloudService</text><line style="stroke:#A80036;stroke-width:1.5;" x1="964.5" x2="1139.5" y1="555.1992" y2="555.1992"/><line style="stroke:#A80036;stroke-width:1.5;" x1="964.5" x2="1139.5" y1="563.1992" y2="563.1992"/><!--MD5=[12ef6708083c3ec8fed941b08b3f1180]
class WSDataProvider--><rect fill="#FEFECE" filter="url(#fb7z9hfmbsxsu)" height="48" id="WSDataProvider" style="stroke:#A80036;stroke-width:1.5;" width="123" x="737.5" y="360.1992"/><ellipse cx="752.5" cy="376.1992" fill="#ADD1B2" rx="11" ry="11" style="stroke:#A80036;stroke-width:1.0;"/><path d="M754.9731,382.3423 Q754.3921,382.6411 753.7529,382.7905 Q753.1138,382.9399 752.4082,382.9399 Q749.9014,382.9399 748.5815,381.2881 Q747.2617,379.6362 747.2617,376.5151 Q747.2617,373.3857 748.5815,371.7339 Q749.9014,370.082 752.4082,370.082 Q753.1138,370.082 753.7612,370.2314 Q754.4087,370.3809 754.9731,370.6797 L754.9731,373.4023 Q754.3423,372.8213 753.7488,372.5515 Q753.1553,372.2817 752.5244,372.2817 Q751.1797,372.2817 750.4949,373.3484 Q749.8101,374.415 749.8101,376.5151 Q749.8101,378.6069 750.4949,379.6736 Q751.1797,380.7402 752.5244,380.7402 Q753.1553,380.7402 753.7488,380.4705 Q754.3423,380.2007 754.9731,379.6196 Z " fill="#000000"/><text fill="#000000" font-family="sans-serif" font-size="12" lengthAdjust="spacing" textLength="91" x="766.5" y="380.7344">WSDataProvider</text><line style="stroke:#A80036;stroke-width:1.5;" x1="738.5" x2="859.5" y1="392.1992" y2="392.1992"/><line style="stroke:#A80036;stroke-width:1.5;" x1="738.5" x2="859.5" y1="400.1992" y2="400.1992"/><!--MD5=[e150a547ec5f2e881cc5ae12fbd396e0]
class ConflictController--><rect fill="#FEFECE" filter="url(#fb7z9hfmbsxsu)" height="48" id="ConflictController" style="stroke:#A80036;stroke-width:1.5;" width="130" x="987" y="277.1992"/><ellipse cx="1002" cy="293.1992" fill="#ADD1B2" rx="11" ry="11" style="stroke:#A80036;stroke-width:1.0;"/><path d="M1004.4731,299.3423 Q1003.8921,299.6411 1003.2529,299.7905 Q1002.6138,299.9399 1001.9082,299.9399 Q999.4014,299.9399 998.0815,298.2881 Q996.7617,296.6362 996.7617,293.5151 Q996.7617,290.3857 998.0815,288.7339 Q999.4014,287.082 1001.9082,287.082 Q1002.6138,287.082 1003.2612,287.2314 Q1003.9087,287.3809 1004.4731,287.6797 L1004.4731,290.4023 Q1003.8423,289.8213 1003.2488,289.5515 Q1002.6553,289.2817 1002.0244,289.2817 Q1000.6797,289.2817 999.9949,290.3484 Q999.3101,291.415 999.3101,293.5151 Q999.3101,295.6069 999.9949,296.6736 Q1000.6797,297.7402 1002.0244,297.7402 Q1002.6553,297.7402 1003.2488,297.4705 Q1003.8423,297.2007 1004.4731,296.6196 Z " fill="#000000"/><text fill="#000000" font-family="sans-serif" font-size="12" lengthAdjust="spacing" textLength="98" x="1016" y="297.7344">ConflictController</text><line style="stroke:#A80036;stroke-width:1.5;" x1="988" x2="1116" y1="309.1992" y2="309.1992"/><line style="stroke:#A80036;stroke-width:1.5;" x1="988" x2="1116" y1="317.1992" y2="317.1992"/><!--MD5=[7a001630ee33d74583e1e72a862235f4]
class ConflictResolver--><rect codeLine="67" fill="#FEFECE" filter="url(#fb7z9hfmbsxsu)" height="48" id="ConflictResolver" style="stroke:#A80036;stroke-width:1.5;" width="123" x="1216.5" y="277.1992"/><ellipse cx="1231.5" cy="293.1992" fill="#B4A7E5" rx="11" ry="11" style="stroke:#A80036;stroke-width:1.0;"/><path d="M1227.9277,289.4644 L1227.9277,287.3062 L1235.3071,287.3062 L1235.3071,289.4644 L1232.8418,289.4644 L1232.8418,297.541 L1235.3071,297.541 L1235.3071,299.6992 L1227.9277,299.6992 L1227.9277,297.541 L1230.3931,297.541 L1230.3931,289.4644 Z " fill="#000000"/><text fill="#000000" font-family="sans-serif" font-size="12" font-style="italic" lengthAdjust="spacing" textLength="91" x="1245.5" y="297.7344">ConflictResolver</text><line style="stroke:#A80036;stroke-width:1.5;" x1="1217.5" x2="1338.5" y1="309.1992" y2="309.1992"/><line style="stroke:#A80036;stroke-width:1.5;" x1="1217.5" x2="1338.5" y1="317.1992" y2="317.1992"/><!--MD5=[f501596d9511d3fda9d9c09754503391]
class ConflictRevisionSink--><rect codeLine="68" fill="#FEFECE" filter="url(#fb7z9hfmbsxsu)" height="48" id="ConflictRevisionSink" style="stroke:#A80036;stroke-width:1.5;" width="144" x="1206" y="360.1992"/><ellipse cx="1221" cy="376.1992" fill="#B4A7E5" rx="11" ry="11" style="stroke:#A80036;stroke-width:1.0;"/><path d="M1217.4277,372.4644 L1217.4277,370.3062 L1224.8071,370.3062 L1224.8071,372.4644 L1222.3418,372.4644 L1222.3418,380.541 L1224.8071,380.541 L1224.8071,382.6992 L1217.4277,382.6992 L1217.4277,380.541 L1219.8931,380.541 L1219.8931,372.4644 Z " fill="#000000"/><text fill="#000000" font-family="sans-serif" font-size="12" font-style="italic" lengthAdjust="spacing" textLength="112" x="1235" y="380.7344">ConflictRevisionSink</text><line style="stroke:#A80036;stroke-width:1.5;" x1="1207" x2="1349" y1="392.1992" y2="392.1992"/><line style="stroke:#A80036;stroke-width:1.5;" x1="1207" x2="1349" y1="400.1992" y2="400.1992"/><!--MD5=[c3ba3ccc2bc3bd345e5b45dc8c1d4331]
class WSDataProviderDataSource--><rect codeLine="69" fill="#FEFECE" filter="url(#fb7z9hfmbsxsu)" height="48" id="WSDataProviderDataSource" style="stroke:#A80036;stroke-width:1.5;" width="188" x="452" y="443.1992"/><ellipse cx="467" cy="459.1992" fill="#B4A7E5" rx="11" ry="11" style="stroke:#A80036;stroke-width:1.0;"/><path d="M463.4277,455.4644 L463.4277,453.3062 L470.8071,453.3062 L470.8071,455.4644 L468.3418,455.4644 L468.3418,463.541 L470.8071,463.541 L470.8071,465.6992 L463.4277,465.6992 L463.4277,463.541 L465.8931,463.541 L465.8931,455.4644 Z " fill="#000000"/><text fill="#000000" font-family="sans-serif" font-size="12" font-style="italic" lengthAdjust="spacing" textLength="156" x="481" y="463.7344">WSDataProviderDataSource</text><line style="stroke:#A80036;stroke-width:1.5;" x1="453" x2="639" y1="475.1992" y2="475.1992"/><line style="stroke:#A80036;stroke-width:1.5;" x1="453" x2="639" y1="483.1992" y2="483.1992"/><!--MD5=[9d01475be71e39db2f4249c8701e96d6]
class RevisionDiskCache--><rect codeLine="78" fill="#FEFECE" filter="url(#fb7z9hfmbsxsu)" height="48" id="RevisionDiskCache" style="stroke:#A80036;stroke-width:1.5;" width="139" x="729.5" y="772.1992"/><ellipse cx="744.5" cy="788.1992" fill="#B4A7E5" rx="11" ry="11" style="stroke:#A80036;stroke-width:1.0;"/><path d="M740.9277,784.4644 L740.9277,782.3062 L748.3071,782.3062 L748.3071,784.4644 L745.8418,784.4644 L745.8418,792.541 L748.3071,792.541 L748.3071,794.6992 L740.9277,794.6992 L740.9277,792.541 L743.3931,792.541 L743.3931,784.4644 Z " fill="#000000"/><text fill="#000000" font-family="sans-serif" font-size="12" font-style="italic" lengthAdjust="spacing" textLength="107" x="758.5" y="792.7344">RevisionDiskCache</text><line style="stroke:#A80036;stroke-width:1.5;" x1="730.5" x2="867.5" y1="804.1992" y2="804.1992"/><line style="stroke:#A80036;stroke-width:1.5;" x1="730.5" x2="867.5" y1="812.1992" y2="812.1992"/><!--MD5=[dd4ed5407ea5562ead320473bda702c2]
class RevisionMemoryCache--><rect codeLine="79" fill="#FEFECE" filter="url(#fb7z9hfmbsxsu)" height="48" id="RevisionMemoryCache" style="stroke:#A80036;stroke-width:1.5;" width="160" x="719" y="606.1992"/><ellipse cx="734" cy="622.1992" fill="#ADD1B2" rx="11" ry="11" style="stroke:#A80036;stroke-width:1.0;"/><path d="M736.4731,628.3423 Q735.8921,628.6411 735.2529,628.7905 Q734.6138,628.9399 733.9082,628.9399 Q731.4014,628.9399 730.0815,627.2881 Q728.7617,625.6362 728.7617,622.5151 Q728.7617,619.3857 730.0815,617.7339 Q731.4014,616.082 733.9082,616.082 Q734.6138,616.082 735.2612,616.2314 Q735.9087,616.3809 736.4731,616.6797 L736.4731,619.4023 Q735.8423,618.8213 735.2488,618.5515 Q734.6553,618.2817 734.0244,618.2817 Q732.6797,618.2817 731.9949,619.3484 Q731.3101,620.415 731.3101,622.5151 Q731.3101,624.6069 731.9949,625.6736 Q732.6797,626.7402 734.0244,626.7402 Q734.6553,626.7402 735.2488,626.4705 Q735.8423,626.2007 736.4731,625.6196 Z " fill="#000000"/><text fill="#000000" font-family="sans-serif" font-size="12" lengthAdjust="spacing" textLength="128" x="748" y="626.7344">RevisionMemoryCache</text><line style="stroke:#A80036;stroke-width:1.5;" x1="720" x2="878" y1="638.1992" y2="638.1992"/><line style="stroke:#A80036;stroke-width:1.5;" x1="720" x2="878" y1="646.1992" y2="646.1992"/><!--MD5=[3aac229a88da3bff201654f8e0cb7e75]
class RevisionSyncSequence--><rect codeLine="80" fill="#FEFECE" filter="url(#fb7z9hfmbsxsu)" height="48" id="RevisionSyncSequence" style="stroke:#A80036;stroke-width:1.5;" width="159" x="719.5" y="689.1992"/><ellipse cx="734.5" cy="705.1992" fill="#ADD1B2" rx="11" ry="11" style="stroke:#A80036;stroke-width:1.0;"/><path d="M736.9731,711.3423 Q736.3921,711.6411 735.7529,711.7905 Q735.1138,711.9399 734.4082,711.9399 Q731.9014,711.9399 730.5815,710.2881 Q729.2617,708.6362 729.2617,705.5151 Q729.2617,702.3857 730.5815,700.7339 Q731.9014,699.082 734.4082,699.082 Q735.1138,699.082 735.7612,699.2314 Q736.4087,699.3809 736.9731,699.6797 L736.9731,702.4023 Q736.3423,701.8213 735.7488,701.5515 Q735.1553,701.2817 734.5244,701.2817 Q733.1797,701.2817 732.4949,702.3484 Q731.8101,703.415 731.8101,705.5151 Q731.8101,707.6069 732.4949,708.6736 Q733.1797,709.7402 734.5244,709.7402 Q735.1553,709.7402 735.7488,709.4705 Q736.3423,709.2007 736.9731,708.6196 Z " fill="#000000"/><text fill="#000000" font-family="sans-serif" font-size="12" lengthAdjust="spacing" textLength="127" x="748.5" y="709.7344">RevisionSyncSequence</text><line style="stroke:#A80036;stroke-width:1.5;" x1="720.5" x2="877.5" y1="721.1992" y2="721.1992"/><line style="stroke:#A80036;stroke-width:1.5;" x1="720.5" x2="877.5" y1="729.1992" y2="729.1992"/><!--MD5=[d00352a84f7e584d9cf1aef443846886]
class SQLitePersistence--><rect codeLine="85" fill="#FEFECE" filter="url(#fb7z9hfmbsxsu)" height="48" id="SQLitePersistence" style="stroke:#A80036;stroke-width:1.5;" width="132" x="986" y="772.1992"/><ellipse cx="1001" cy="788.1992" fill="#ADD1B2" rx="11" ry="11" style="stroke:#A80036;stroke-width:1.0;"/><path d="M1003.4731,794.3423 Q1002.8921,794.6411 1002.2529,794.7905 Q1001.6138,794.9399 1000.9082,794.9399 Q998.4014,794.9399 997.0815,793.2881 Q995.7617,791.6362 995.7617,788.5151 Q995.7617,785.3857 997.0815,783.7339 Q998.4014,782.082 1000.9082,782.082 Q1001.6138,782.082 1002.2612,782.2314 Q1002.9087,782.3809 1003.4731,782.6797 L1003.4731,785.4023 Q1002.8423,784.8213 1002.2488,784.5515 Q1001.6553,784.2817 1001.0244,784.2817 Q999.6797,784.2817 998.9949,785.3484 Q998.3101,786.415 998.3101,788.5151 Q998.3101,790.6069 998.9949,791.6736 Q999.6797,792.7402 1001.0244,792.7402 Q1001.6553,792.7402 1002.2488,792.4705 Q1002.8423,792.2007 1003.4731,791.6196 Z " fill="#000000"/><text fill="#000000" font-family="sans-serif" font-size="12" lengthAdjust="spacing" textLength="100" x="1015" y="792.7344">SQLitePersistence</text><line style="stroke:#A80036;stroke-width:1.5;" x1="987" x2="1117" y1="804.1992" y2="804.1992"/><line style="stroke:#A80036;stroke-width:1.5;" x1="987" x2="1117" y1="812.1992" y2="812.1992"/><!--MD5=[ed4f70530c1e646a9b439ec9279364c5]
link ClientBlockEditor to RevisionManager--><path codeLine="13" d="M138.19,467.1992 C165.86,467.1992 198.41,467.1992 226.69,467.1992 " fill="none" id="ClientBlockEditor-to-RevisionManager" style="stroke:#A80036;stroke-width:1.0;"/><polygon fill="#A80036" points="231.92,467.1992,222.92,463.1992,226.92,467.1992,222.92,471.1992,231.92,467.1992" style="stroke:#A80036;stroke-width:1.0;"/><!--MD5=[dd6449f2a2987c787662b2959d20bbd9]
link ClientBlockEditor to RevisionWebSocketManager--><path codeLine="14" d="M119.37,443.0292 C126.97,437.9592 134.51,432.2892 141,426.1992 C174.47,394.8192 165.32,371.0492 201,342.1992 C207.56,336.8892 214.92,332.1492 222.55,327.9392 " fill="none" id="ClientBlockEditor-to-RevisionWebSocketManager" style="stroke:#A80036;stroke-width:1.0;"/><polygon fill="#A80036" points="227.34,325.3892,217.5168,326.1,222.9294,327.7444,221.2851,333.157,227.34,325.3892" style="stroke:#A80036;stroke-width:1.0;"/><!--MD5=[a833138c140c405375a511d3f03ccc35]
link ClientBlockEditor to EditorCommandSender--><path codeLine="15" d="M138.19,490.9792 C165.86,501.3992 198.39,513.6492 226.68,524.2892 " fill="none" id="ClientBlockEditor-to-EditorCommandSender" style="stroke:#A80036;stroke-width:1.0;"/><polygon fill="#A80036" points="231.54,526.1192,224.536,519.1951,226.8631,524.3511,221.707,526.6782,231.54,526.1192" style="stroke:#A80036;stroke-width:1.0;"/><!--MD5=[9229e617d8d213ae0e9080ddc15019ff]
link ClientFolderEditor to RevisionManager--><path codeLine="17" d="M138.78,408.2092 C166.43,418.6192 198.86,430.8192 227.02,441.4192 " fill="none" id="ClientFolderEditor-to-RevisionManager" style="stroke:#A80036;stroke-width:1.0;"/><polygon fill="#A80036" points="231.87,443.2492,224.8545,436.3367,227.1901,441.4889,222.038,443.8245,231.87,443.2492" style="stroke:#A80036;stroke-width:1.0;"/><!--MD5=[8c03641663310cb648f7af161518f521]
link ClientFolderEditor to RevisionWebSocketManager--><path codeLine="18" d="M138.78,360.1892 C166.31,349.8292 198.58,337.6792 226.66,327.1092 " fill="none" id="ClientFolderEditor-to-RevisionWebSocketManager" style="stroke:#A80036;stroke-width:1.0;"/><polygon fill="#A80036" points="231.48,325.2992,221.6485,324.714,226.7984,327.0548,224.4575,332.2046,231.48,325.2992" style="stroke:#A80036;stroke-width:1.0;"/><!--MD5=[57cf999a035b3017d251de2a67ba5a97]
link ClientGridEditor to RevisionManager--><path codeLine="20" d="M119.37,325.3692 C126.97,330.4392 134.51,336.1092 141,342.1992 C174.47,373.5792 165.32,397.3492 201,426.1992 C208.89,432.5792 217.92,438.1392 227.2,442.9392 " fill="none" id="ClientGridEditor-to-RevisionManager" style="stroke:#A80036;stroke-width:1.0;"/><polygon fill="#A80036" points="231.77,445.2292,225.5187,437.6186,227.3007,442.9874,221.9319,444.7694,231.77,445.2292" style="stroke:#A80036;stroke-width:1.0;"/><!--MD5=[7fea081b4680900c14f31e8fe2384ab1]
link ClientGridEditor to RevisionWebSocketManager--><path codeLine="21" d="M135.54,301.1992 C154.11,301.1992 175.06,301.1992 195.54,301.1992 " fill="none" id="ClientGridEditor-to-RevisionWebSocketManager" style="stroke:#A80036;stroke-width:1.0;"/><polygon fill="#A80036" points="200.73,301.1992,191.73,297.1992,195.73,301.1992,191.73,305.1992,200.73,301.1992" style="stroke:#A80036;stroke-width:1.0;"/><!--MD5=[4add9fc11e44134506a3a6a704804497]
link RevisionManager to RevisionLoader--><path codeLine="23" d="M361.24,488.5692 C398.11,500.9392 444.36,516.4492 481.24,528.8192 " fill="none" id="RevisionManager-to-RevisionLoader" style="stroke:#A80036;stroke-width:1.0;stroke-dasharray:7.0,7.0;"/><polygon fill="#A80036" points="486.15,530.4592,478.8828,523.8119,481.408,528.8738,476.3461,531.399,486.15,530.4592" style="stroke:#A80036;stroke-width:1.0;"/><!--MD5=[e3d6a3d191bad006e3af4269110e0841]
link RevisionLoader to RevisionCloudService--><path codeLine="24" d="M605.53,549.4992 C638.81,549.0992 680.96,548.5992 717.34,548.1592 " fill="none" id="RevisionLoader-to-RevisionCloudService" style="stroke:#A80036;stroke-width:1.0;"/><polygon fill="#A80036" points="722.66,548.0992,713.6149,544.2023,717.6603,548.1564,713.7063,552.2018,722.66,548.0992" style="stroke:#A80036;stroke-width:1.0;"/><!--MD5=[7f3001c6908f5f43c38ceb433cbfc9f1]
link RevisionManager to RevisionPersistence--><path codeLine="43" d="M361.19,489.9292 C372.06,495.3292 382.8,501.7292 392,509.1992 C427.35,537.8792 421.1,558.7792 452,592.1992 C469.25,610.8492 490.75,629.3692 508.73,643.7792 " fill="none" id="RevisionManager-to-RevisionPersistence" style="stroke:#A80036;stroke-width:1.0;"/><polygon fill="#A80036" points="512.74,646.9792,508.1876,638.2456,508.8273,643.8662,503.2067,644.5059,512.74,646.9792" style="stroke:#A80036;stroke-width:1.0;"/><!--MD5=[192b643f0cebc1e023e1a05c02f5b7c3]
link RevisionWebSocketManager to RevisionWebSocketSink--><path codeLine="44" d="M296.5,325.4992 C296.5,335.2592 296.5,345.0192 296.5,354.7792 " fill="none" id="RevisionWebSocketManager-to-RevisionWebSocketSink" style="stroke:#A80036;stroke-width:1.0;"/><polygon fill="#A80036" points="296.5,359.8792,300.5,350.8792,296.5,354.8792,292.5,350.8792,296.5,359.8792" style="stroke:#A80036;stroke-width:1.0;"/><!--MD5=[30930101dbe3303bf592502615e0505d]
link RevisionWebSocketManager to RevisionWSDataStream--><path codeLine="45" d="M369.09,277.1892 C400.12,266.7892 436.51,254.5792 468.12,243.9792 " fill="none" id="RevisionWebSocketManager-to-RevisionWSDataStream" style="stroke:#A80036;stroke-width:1.0;"/><polygon fill="#A80036" points="473.15,242.2992,463.3461,241.3594,468.408,243.8846,465.8828,248.9466,473.15,242.2992" style="stroke:#A80036;stroke-width:1.0;"/><!--MD5=[992ad972b2da08b5dc667ca8e6143580]
link RevisionWebSocketManager to RevisionWebSocket--><path codeLine="46" d="M322.97,277.0192 C352.35,249.9892 402.96,206.1192 452,176.1992 C460.54,170.9892 469.87,166.0692 479.2,161.5792 " fill="none" id="RevisionWebSocketManager-to-RevisionWebSocket" style="stroke:#A80036;stroke-width:1.0;"/><polygon fill="#A80036" points="483.79,159.4092,473.9442,159.6551,479.2731,161.5533,477.3748,166.8822,483.79,159.4092" style="stroke:#A80036;stroke-width:1.0;"/><!--MD5=[a8df558838475ad2161dc0c62fb6f26c]
reverse link RevisionWebSocketSink to FolderWSDataSink--><path codeLine="48" d="M398.76,384.1992 C425.7,384.1992 454.11,384.1992 478.64,384.1992 " fill="none" id="RevisionWebSocketSink-backto-FolderWSDataSink" style="stroke:#A80036;stroke-width:1.0;stroke-dasharray:7.0,7.0;"/><polygon fill="none" points="398.54,391.1992,378.54,384.1992,398.54,377.1992,398.54,391.1992" style="stroke:#A80036;stroke-width:1.0;"/><!--MD5=[7aa9927daf19e036fb4cf6dd9545b5ec]
reverse link RevisionWebSocketSink to BlockWSDataSink--><path codeLine="49" d="M388.48,353.6892 C419.56,343.2692 453.61,331.8492 481.99,322.3292 " fill="none" id="RevisionWebSocketSink-backto-BlockWSDataSink" style="stroke:#A80036;stroke-width:1.0;stroke-dasharray:7.0,7.0;"/><polygon fill="none" points="390.28,360.4692,369.09,360.1892,385.82,347.1992,390.28,360.4692" style="stroke:#A80036;stroke-width:1.0;"/><!--MD5=[a0c0272236cba84be6292ddad761b0b8]
link FolderWSDataSink to WSDataProvider--><path codeLine="50" d="M613.28,384.1992 C649.96,384.1992 695.41,384.1992 732.04,384.1992 " fill="none" id="FolderWSDataSink-to-WSDataProvider" style="stroke:#A80036;stroke-width:1.0;"/><polygon fill="#A80036" points="737.38,384.1992,728.38,380.1992,732.38,384.1992,728.38,388.1992,737.38,384.1992" style="stroke:#A80036;stroke-width:1.0;"/><!--MD5=[f3a51a1b9d5afb51a0f3166cb55b0087]
link BlockWSDataSink to WSDataProvider--><path codeLine="51" d="M610.01,322.0392 C647.26,334.3492 694.36,349.9292 732.1,362.4092 " fill="none" id="BlockWSDataSink-to-WSDataProvider" style="stroke:#A80036;stroke-width:1.0;"/><polygon fill="#A80036" points="737.13,364.0692,729.8448,357.4416,732.3837,362.4967,727.3287,365.0356,737.13,364.0692" style="stroke:#A80036;stroke-width:1.0;"/><!--MD5=[ce750e608f924b6aa3301ef48929b91c]
reverse link RevisionWebSocket to BlockWebSocket--><path codeLine="53" d="M635.75,105.8492 C669.2,94.7892 706.46,82.4692 736.83,72.4292 " fill="none" id="RevisionWebSocket-backto-BlockWebSocket" style="stroke:#A80036;stroke-width:1.0;stroke-dasharray:7.0,7.0;"/><polygon fill="none" points="637.77,112.5592,616.58,112.1892,633.38,99.2592,637.77,112.5592" style="stroke:#A80036;stroke-width:1.0;"/><!--MD5=[930b9ddf7818238f92e8f262f2278e34]
reverse link RevisionWebSocket to FolderWebSocket--><path codeLine="54" d="M636.59,135.1992 C668.74,135.1992 704.32,135.1992 733.88,135.1992 " fill="none" id="RevisionWebSocket-backto-FolderWebSocket" style="stroke:#A80036;stroke-width:1.0;stroke-dasharray:7.0,7.0;"/><polygon fill="none" points="636.58,142.1992,616.58,135.1992,636.58,128.1992,636.58,142.1992" style="stroke:#A80036;stroke-width:1.0;"/><!--MD5=[f49750d1732ddde425cfb03ece8cf94a]
reverse link RevisionCloudService to BlockRevisionCloudService--><path codeLine="56" d="M891.81,516.8392 C920.24,507.4392 951.16,497.2092 978.13,488.2992 " fill="none" id="RevisionCloudService-backto-BlockRevisionCloudService" style="stroke:#A80036;stroke-width:1.0;stroke-dasharray:7.0,7.0;"/><polygon fill="none" points="893.79,523.5592,872.6,523.1892,889.39,510.2692,893.79,523.5592" style="stroke:#A80036;stroke-width:1.0;"/><!--MD5=[8753da949b2bea584ab2ba89883507da]
reverse link RevisionWSDataStream to BlockRevisionWSDataStream--><path codeLine="57" d="M638.81,248.5592 C667.24,257.9592 698.16,268.1892 725.13,277.0992 " fill="none" id="RevisionWSDataStream-backto-BlockRevisionWSDataStream" style="stroke:#A80036;stroke-width:1.0;stroke-dasharray:7.0,7.0;"/><polygon fill="none" points="636.39,255.1292,619.6,242.2092,640.79,241.8392,636.39,255.1292" style="stroke:#A80036;stroke-width:1.0;"/><!--MD5=[69b70dbf529658b5a4cd4d65891f278d]
link BlockRevisionWSDataStream to ConflictController--><path codeLine="58" d="M895.25,301.1992 C923.98,301.1992 954.97,301.1992 981.67,301.1992 " fill="none" id="BlockRevisionWSDataStream-to-ConflictController" style="stroke:#A80036;stroke-width:1.0;"/><polygon fill="#A80036" points="986.96,301.1992,977.96,297.1992,981.96,301.1992,977.96,305.1992,986.96,301.1992" style="stroke:#A80036;stroke-width:1.0;"/><!--MD5=[c9d33299c52c872675458cec408e00a6]
reverse link RevisionCloudService to FolderRevisionCloudService--><path codeLine="60" d="M891.81,577.5592 C920.24,586.9592 951.16,597.1892 978.13,606.0992 " fill="none" id="RevisionCloudService-backto-FolderRevisionCloudService" style="stroke:#A80036;stroke-width:1.0;stroke-dasharray:7.0,7.0;"/><polygon fill="none" points="889.39,584.1292,872.6,571.2092,893.79,570.8392,889.39,584.1292" style="stroke:#A80036;stroke-width:1.0;"/><!--MD5=[8e24dd3ce85f76dc4d258b9a60c7f1da]
reverse link RevisionWSDataStream to FolderRevisionWSDataStream--><path codeLine="61" d="M647.36,218.1992 C664.62,218.1992 682.54,218.1992 699.74,218.1992 " fill="none" id="RevisionWSDataStream-backto-FolderRevisionWSDataStream" style="stroke:#A80036;stroke-width:1.0;stroke-dasharray:7.0,7.0;"/><polygon fill="none" points="647.11,225.1992,627.11,218.1992,647.11,211.1992,647.11,225.1992" style="stroke:#A80036;stroke-width:1.0;"/><!--MD5=[917e1f8e4178567d60bf9b280fb027aa]
link FolderRevisionWSDataStream to ConflictController--><path codeLine="62" d="M872.6,242.2092 C906.96,253.5692 947.8,267.0692 981.73,278.2892 " fill="none" id="FolderRevisionWSDataStream-to-ConflictController" style="stroke:#A80036;stroke-width:1.0;"/><polygon fill="#A80036" points="986.68,279.9292,979.3948,273.3016,981.9337,278.3567,976.8787,280.8956,986.68,279.9292" style="stroke:#A80036;stroke-width:1.0;"/><!--MD5=[5821a777835680cccc715de7e10a65d5]
reverse link RevisionCloudService to GridRevisionCloudService--><path codeLine="64" d="M895.36,547.1992 C917.7,547.1992 941.4,547.1992 963.39,547.1992 " fill="none" id="RevisionCloudService-backto-GridRevisionCloudService" style="stroke:#A80036;stroke-width:1.0;stroke-dasharray:7.0,7.0;"/><polygon fill="none" points="895.31,554.1992,875.31,547.1992,895.31,540.1992,895.31,554.1992" style="stroke:#A80036;stroke-width:1.0;"/><!--MD5=[9fa2e5bd8ca0d927a0f5db5fd38d87db]
link ConflictController to ConflictResolver--><path codeLine="70" d="M1117.19,301.1992 C1146.64,301.1992 1181.53,301.1992 1211.17,301.1992 " fill="none" id="ConflictController-to-ConflictResolver" style="stroke:#A80036;stroke-width:1.0;"/><polygon fill="#A80036" points="1216.27,301.1992,1207.27,297.1992,1211.27,301.1992,1207.27,305.1992,1216.27,301.1992" style="stroke:#A80036;stroke-width:1.0;"/><!--MD5=[dcb2568ec009f8e5d57ac1a7f0e98938]
link ConflictController to ConflictRevisionSink--><path codeLine="71" d="M1117.19,324.9792 C1145.3,335.3992 1178.35,347.6492 1207.08,358.2892 " fill="none" id="ConflictController-to-ConflictRevisionSink" style="stroke:#A80036;stroke-width:1.0;"/><polygon fill="#A80036" points="1212.02,360.1192,1204.9606,353.2515,1207.329,358.3887,1202.1918,360.7571,1212.02,360.1192" style="stroke:#A80036;stroke-width:1.0;"/><!--MD5=[e984fcbd238c204dddaf7e8fd7aa9980]
reverse link ConflictResolver to BlockConflictResolver--><path codeLine="72" d="M1359.27,317.2892 C1376.84,320.8092 1395.37,324.5292 1412.76,328.0192 " fill="none" id="ConflictResolver-backto-BlockConflictResolver" style="stroke:#A80036;stroke-width:1.0;stroke-dasharray:7.0,7.0;"/><polygon fill="none" points="1357.83,324.1392,1339.6,313.3492,1360.58,310.4192,1357.83,324.1392" style="stroke:#A80036;stroke-width:1.0;"/><!--MD5=[6b0793e418c683d2ae3a44be128a29c2]
reverse link ConflictResolver to FolderConflictResolver--><path codeLine="73" d="M1359.23,285.4992 C1375.78,282.2592 1393.19,278.8492 1409.69,275.6192 " fill="none" id="ConflictResolver-backto-FolderConflictResolver" style="stroke:#A80036;stroke-width:1.0;stroke-dasharray:7.0,7.0;"/><polygon fill="none" points="1360.57,292.3692,1339.6,289.3392,1357.88,278.6292,1360.57,292.3692" style="stroke:#A80036;stroke-width:1.0;"/><!--MD5=[a6f82d751ca1903899c89173ec9313c0]
link WSDataProvider to ConflictRevisionSink--><path codeLine="74" d="M860.9,384.1992 C943.14,384.1992 1090.4,384.1992 1185.86,384.1992 " fill="none" id="WSDataProvider-to-ConflictRevisionSink" style="stroke:#A80036;stroke-width:1.0;stroke-dasharray:7.0,7.0;"/><polygon fill="none" points="1185.99,377.1992,1205.99,384.1992,1185.99,391.1992,1185.99,377.1992" style="stroke:#A80036;stroke-width:1.0;"/><!--MD5=[419be750b918e46a37678a4287cf8791]
reverse link WSDataProviderDataSource to WSDataProvider--><path codeLine="75" d="M624.46,441.5892 C660.8,429.5692 703.49,415.4492 737.42,404.2292 " fill="none" id="WSDataProviderDataSource-backto-WSDataProvider" style="stroke:#A80036;stroke-width:1.0;"/><polygon fill="#A80036" points="619.6,443.1892,629.4013,444.1556,624.3463,441.6167,626.8852,436.5616,619.6,443.1892" style="stroke:#A80036;stroke-width:1.0;"/><!--MD5=[4fc782f447c67fc5a55a66cb0e74f6fd]
link RevisionManager to WSDataProviderDataSource--><path codeLine="76" d="M361.24,467.1992 C382.72,467.1992 407.39,467.1992 431.53,467.1992 " fill="none" id="RevisionManager-to-WSDataProviderDataSource" style="stroke:#A80036;stroke-width:1.0;stroke-dasharray:7.0,7.0;"/><polygon fill="none" points="431.61,460.1992,451.61,467.1992,431.61,474.1992,431.61,460.1992" style="stroke:#A80036;stroke-width:1.0;"/><!--MD5=[b6bd106ef224df489f51216a140a1629]
link RevisionPersistence to RevisionDiskCache--><path codeLine="81" d="M587.94,695.2192 C618.4,712.7092 661.24,736.5192 700,755.1992 C710.54,760.2792 721.87,765.3592 732.96,770.1292 " fill="none" id="RevisionPersistence-to-RevisionDiskCache" style="stroke:#A80036;stroke-width:1.0;"/><polygon fill="#A80036" points="737.69,772.1492,730.9744,764.945,733.0891,770.1917,727.8424,772.3064,737.69,772.1492" style="stroke:#A80036;stroke-width:1.0;"/><!--MD5=[ffcdff844bd862be059a15e7f5daad34]
link RevisionPersistence to RevisionMemoryCache--><path codeLine="82" d="M618.26,659.5592 C647.97,654.7092 682.71,649.0292 713.69,643.9692 " fill="none" id="RevisionPersistence-to-RevisionMemoryCache" style="stroke:#A80036;stroke-width:1.0;"/><polygon fill="#A80036" points="718.63,643.1692,709.1065,640.6585,713.6942,643.9681,710.3847,648.5558,718.63,643.1692" style="stroke:#A80036;stroke-width:1.0;"/><!--MD5=[81240ba6a7011365cb18fbb8725b72ef]
link RevisionPersistence to RevisionSyncSequence--><path codeLine="83" d="M618.26,683.1192 C648.11,688.1192 683.03,693.9592 714.12,699.1592 " fill="none" id="RevisionPersistence-to-RevisionSyncSequence" style="stroke:#A80036;stroke-width:1.0;"/><polygon fill="#A80036" points="719.07,699.9892,710.8577,694.5525,714.1392,699.1603,709.5314,702.4418,719.07,699.9892" style="stroke:#A80036;stroke-width:1.0;"/><!--MD5=[b674b905c5807915286a27249a6a3c46]
reverse link RevisionDiskCache to SQLitePersistence--><path codeLine="86" d="M889,796.1992 C920.97,796.1992 956.4,796.1992 985.95,796.1992 " fill="none" id="RevisionDiskCache-backto-SQLitePersistence" style="stroke:#A80036;stroke-width:1.0;stroke-dasharray:7.0,7.0;"/><polygon fill="none" points="888.59,803.1992,868.59,796.1992,888.59,789.1992,888.59,803.1992" style="stroke:#A80036;stroke-width:1.0;"/><!--MD5=[055062124cf53235ca273d216ae54a49]
@startuml AppFlowy
title Editor Classes
left to right direction

interface RevisionWebSocket {}
class ClientBlockEditor #F7931E {}
class ClientFolderEditor #00B5FF {}
class ClientGridEditor #FB006D

class RevisionManager {}
class RevisionWebSocketManager {}
class EditorCommandSender {}
interface RevisionCloudService {}
ClientBlockEditor - -> RevisionManager
ClientBlockEditor - -> RevisionWebSocketManager
ClientBlockEditor - -> EditorCommandSender

ClientFolderEditor - -> RevisionManager
ClientFolderEditor - -> RevisionWebSocketManager

ClientGridEditor - -> RevisionManager
ClientGridEditor - -> RevisionWebSocketManager

RevisionManager ..> RevisionLoader
RevisionLoader - -> RevisionCloudService

class RevisionPersistence {}
interface RevisionWebSocketSink {}
interface RevisionWSDataStream {}
class FolderWSDataSink #00B5FF {}
class FolderWebSocket #00B5FF {}
class FolderRevisionWSDataStream #00B5FF {}
class FolderConflictResolver #00B5FF {}
class FolderRevisionCloudService #00B5FF

class BlockWSDataSink #F7931E {}
class BlockWebSocket #F7931E {}
class BlockRevisionWSDataStream #F7931E {}
class BlockConflictResolver #F7931E {}
class BlockRevisionCloudService #F7931E

class GridRevisionCloudService #FB006D

RevisionManager - -> RevisionPersistence
RevisionWebSocketManager -r-> RevisionWebSocketSink
RevisionWebSocketManager - -> RevisionWSDataStream
RevisionWebSocketManager - -> RevisionWebSocket

FolderWSDataSink .u.|> RevisionWebSocketSink
BlockWSDataSink .u.|> RevisionWebSocketSink
FolderWSDataSink - -> WSDataProvider
BlockWSDataSink - -> WSDataProvider

BlockWebSocket .u.|> RevisionWebSocket
FolderWebSocket .u.|> RevisionWebSocket

BlockRevisionCloudService .u.|> RevisionCloudService
BlockRevisionWSDataStream .u.|> RevisionWSDataStream
BlockRevisionWSDataStream - -> ConflictController

FolderRevisionCloudService .u.|> RevisionCloudService
FolderRevisionWSDataStream .U.|> RevisionWSDataStream
FolderRevisionWSDataStream - -> ConflictController

GridRevisionCloudService .u.|> RevisionCloudService


interface ConflictResolver {}
interface ConflictRevisionSink {}
interface WSDataProviderDataSource {}
ConflictController - -> ConflictResolver
ConflictController - -> ConflictRevisionSink
BlockConflictResolver .u.|> ConflictResolver
FolderConflictResolver .u.|> ConflictResolver
WSDataProvider ..|> ConflictRevisionSink
WSDataProvider -l-> WSDataProviderDataSource
RevisionManager ..|> WSDataProviderDataSource

interface RevisionDiskCache {}
class RevisionMemoryCache {}
class RevisionSyncSequence {}
RevisionPersistence -d-> RevisionDiskCache
RevisionPersistence -d-> RevisionMemoryCache
RevisionPersistence -d-> RevisionSyncSequence

class SQLitePersistence {}
SQLitePersistence .u.|> RevisionDiskCache
@enduml

PlantUML version 1.2022.1(Wed Feb 02 02:19:58 CST 2022)
(GPL source distribution)
Java Runtime: OpenJDK Runtime Environment
JVM: OpenJDK 64-Bit Server VM
Default Encoding: UTF-8
Language: en
Country: US
--></g></svg>