<?xml version="1.0" encoding="UTF-8" standalone="no"?><svg xmlns="http://www.w3.org/2000/svg" xmlns:xlink="http://www.w3.org/1999/xlink" contentScriptType="application/ecmascript" contentStyleType="text/css" height="531px" preserveAspectRatio="none" style="width:581px;height:531px;background:#FFFFFF;" version="1.1" viewBox="0 0 581 531" width="581px" zoomAndPan="magnify"><defs><filter height="300%" id="fdhtqfod6j0fn" width="300%" x="-1" y="-1"><feGaussianBlur result="blurOut" stdDeviation="2.0"/><feColorMatrix in="blurOut" result="blurOut2" type="matrix" values="0 0 0 0 0 0 0 0 0 0 0 0 0 0 0 0 0 0 .4 0"/><feOffset dx="4.0" dy="4.0" in="blurOut2" result="blurOut3"/><feBlend in="SourceGraphic" in2="blurOut3" mode="normal"/></filter></defs><g><text fill="#000000" font-family="sans-serif" font-size="18" lengthAdjust="spacing" textLength="123" x="222.5" y="17.4023">Plugin Classes</text><!--MD5=[faba6cc00d348fe75851e5b2370352c4]
class PluginAPI--><rect codeLine="5" fill="#FEFECE" filter="url(#fdhtqfod6j0fn)" height="73.9102" id="PluginAPI" style="stroke:#A80036;stroke-width:1.5;" width="168" x="212" y="443.1992"/><ellipse cx="265.75" cy="459.1992" fill="#B4A7E5" rx="11" ry="11" style="stroke:#A80036;stroke-width:1.0;"/><path d="M262.1777,455.4644 L262.1777,453.3062 L269.5571,453.3062 L269.5571,455.4644 L267.0918,455.4644 L267.0918,463.541 L269.5571,463.541 L269.5571,465.6992 L262.1777,465.6992 L262.1777,463.541 L264.6431,463.541 L264.6431,455.4644 Z " fill="#000000"/><text fill="#000000" font-family="sans-serif" font-size="12" font-style="italic" lengthAdjust="spacing" textLength="52" x="286.25" y="463.7344">PluginAPI</text><line style="stroke:#A80036;stroke-width:1.5;" x1="213" x2="379" y1="475.1992" y2="475.1992"/><line style="stroke:#A80036;stroke-width:1.5;" x1="213" x2="379" y1="483.1992" y2="483.1992"/><text fill="#000000" font-family="sans-serif" font-size="11" lengthAdjust="spacing" textLength="156" x="218" y="497.834">fn set_data(data: PluginData);</text><text fill="#000000" font-family="sans-serif" font-size="11" lengthAdjust="spacing" textLength="149" x="218" y="510.7891">fn get_data() -&gt; PluginData;</text><!--MD5=[ef1ef00d5a3d28bbbc21c125ce2ef381]
class PluginRepository--><rect codeLine="9" fill="#FEFECE" filter="url(#fdhtqfod6j0fn)" height="48" id="PluginRepository" style="stroke:#A80036;stroke-width:1.5;" width="127" x="440" y="456.1992"/><ellipse cx="455" cy="472.1992" fill="#ADD1B2" rx="11" ry="11" style="stroke:#A80036;stroke-width:1.0;"/><path d="M457.4731,478.3423 Q456.8921,478.6411 456.2529,478.7905 Q455.6138,478.9399 454.9082,478.9399 Q452.4014,478.9399 451.0815,477.2881 Q449.7617,475.6362 449.7617,472.5151 Q449.7617,469.3857 451.0815,467.7339 Q452.4014,466.082 454.9082,466.082 Q455.6138,466.082 456.2612,466.2314 Q456.9087,466.3809 457.4731,466.6797 L457.4731,469.4023 Q456.8423,468.8213 456.2488,468.5515 Q455.6553,468.2817 455.0244,468.2817 Q453.6797,468.2817 452.9949,469.3484 Q452.3101,470.415 452.3101,472.5151 Q452.3101,474.6069 452.9949,475.6736 Q453.6797,476.7402 455.0244,476.7402 Q455.6553,476.7402 456.2488,476.4705 Q456.8423,476.2007 457.4731,475.6196 Z " fill="#000000"/><text fill="#000000" font-family="sans-serif" font-size="12" lengthAdjust="spacing" textLength="95" x="469" y="476.7344">PluginRepository</text><line style="stroke:#A80036;stroke-width:1.5;" x1="441" x2="566" y1="488.1992" y2="488.1992"/><line style="stroke:#A80036;stroke-width:1.5;" x1="441" x2="566" y1="496.1992" y2="496.1992"/><!--MD5=[6dce40a71df28167364faca7b381bca7]
class PluginProxy--><rect codeLine="10" fill="#FEFECE" filter="url(#fdhtqfod6j0fn)" height="48" id="PluginProxy" style="stroke:#A80036;stroke-width:1.5;" width="98" x="247" y="360.1992"/><ellipse cx="262" cy="376.1992" fill="#ADD1B2" rx="11" ry="11" style="stroke:#A80036;stroke-width:1.0;"/><path d="M264.4731,382.3423 Q263.8921,382.6411 263.2529,382.7905 Q262.6138,382.9399 261.9082,382.9399 Q259.4014,382.9399 258.0815,381.2881 Q256.7617,379.6362 256.7617,376.5151 Q256.7617,373.3857 258.0815,371.7339 Q259.4014,370.082 261.9082,370.082 Q262.6138,370.082 263.2612,370.2314 Q263.9087,370.3809 264.4731,370.6797 L264.4731,373.4023 Q263.8423,372.8213 263.2488,372.5515 Q262.6553,372.2817 262.0244,372.2817 Q260.6797,372.2817 259.9949,373.3484 Q259.3101,374.415 259.3101,376.5151 Q259.3101,378.6069 259.9949,379.6736 Q260.6797,380.7402 262.0244,380.7402 Q262.6553,380.7402 263.2488,380.4705 Q263.8423,380.2007 264.4731,379.6196 Z " fill="#000000"/><text fill="#000000" font-family="sans-serif" font-size="12" lengthAdjust="spacing" textLength="66" x="276" y="380.7344">PluginProxy</text><line style="stroke:#A80036;stroke-width:1.5;" x1="248" x2="344" y1="392.1992" y2="392.1992"/><line style="stroke:#A80036;stroke-width:1.5;" x1="248" x2="344" y1="400.1992" y2="400.1992"/><!--MD5=[4e966a54c73fe5a99fd8b2833603b1a4]
class PluginService--><rect codeLine="11" fill="#FEFECE" filter="url(#fdhtqfod6j0fn)" height="48" id="PluginService" style="stroke:#A80036;stroke-width:1.5;" width="106" x="243" y="194.1992"/><ellipse cx="258" cy="210.1992" fill="#ADD1B2" rx="11" ry="11" style="stroke:#A80036;stroke-width:1.0;"/><path d="M260.4731,216.3423 Q259.8921,216.6411 259.2529,216.7905 Q258.6138,216.9399 257.9082,216.9399 Q255.4014,216.9399 254.0815,215.2881 Q252.7617,213.6362 252.7617,210.5151 Q252.7617,207.3857 254.0815,205.7339 Q255.4014,204.082 257.9082,204.082 Q258.6138,204.082 259.2612,204.2314 Q259.9087,204.3809 260.4731,204.6797 L260.4731,207.4023 Q259.8423,206.8213 259.2488,206.5515 Q258.6553,206.2817 258.0244,206.2817 Q256.6797,206.2817 255.9949,207.3484 Q255.3101,208.415 255.3101,210.5151 Q255.3101,212.6069 255.9949,213.6736 Q256.6797,214.7402 258.0244,214.7402 Q258.6553,214.7402 259.2488,214.4705 Q259.8423,214.2007 260.4731,213.6196 Z " fill="#000000"/><text fill="#000000" font-family="sans-serif" font-size="12" lengthAdjust="spacing" textLength="74" x="272" y="214.7344">PluginService</text><line style="stroke:#A80036;stroke-width:1.5;" x1="244" x2="348" y1="226.1992" y2="226.1992"/><line style="stroke:#A80036;stroke-width:1.5;" x1="244" x2="348" y1="234.1992" y2="234.1992"/><!--MD5=[b628511dd50102041730ee0512f882c8]
class Plugin--><rect codeLine="12" fill="#FEFECE" filter="url(#fdhtqfod6j0fn)" height="48" id="Plugin" style="stroke:#A80036;stroke-width:1.5;" width="66" x="263" y="277.1992"/><ellipse cx="278" cy="293.1992" fill="#ADD1B2" rx="11" ry="11" style="stroke:#A80036;stroke-width:1.0;"/><path d="M280.4731,299.3423 Q279.8921,299.6411 279.2529,299.7905 Q278.6138,299.9399 277.9082,299.9399 Q275.4014,299.9399 274.0815,298.2881 Q272.7617,296.6362 272.7617,293.5151 Q272.7617,290.3857 274.0815,288.7339 Q275.4014,287.082 277.9082,287.082 Q278.6138,287.082 279.2612,287.2314 Q279.9087,287.3809 280.4731,287.6797 L280.4731,290.4023 Q279.8423,289.8213 279.2488,289.5515 Q278.6553,289.2817 278.0244,289.2817 Q276.6797,289.2817 275.9949,290.3484 Q275.3101,291.415 275.3101,293.5151 Q275.3101,295.6069 275.9949,296.6736 Q276.6797,297.7402 278.0244,297.7402 Q278.6553,297.7402 279.2488,297.4705 Q279.8423,297.2007 280.4731,296.6196 Z " fill="#000000"/><text fill="#000000" font-family="sans-serif" font-size="12" lengthAdjust="spacing" textLength="34" x="292" y="297.7344">Plugin</text><line style="stroke:#A80036;stroke-width:1.5;" x1="264" x2="328" y1="309.1992" y2="309.1992"/><line style="stroke:#A80036;stroke-width:1.5;" x1="264" x2="328" y1="317.1992" y2="317.1992"/><!--MD5=[60f59fc4f9f22f9aaf4831c396995906]
class FlutterQuillPlugin--><rect codeLine="14" fill="#FEFECE" filter="url(#fdhtqfod6j0fn)" height="48" id="FlutterQuillPlugin" style="stroke:#A80036;stroke-width:1.5;" width="127" x="16" y="277.1992"/><ellipse cx="31" cy="293.1992" fill="#ADD1B2" rx="11" ry="11" style="stroke:#A80036;stroke-width:1.0;"/><path d="M33.4731,299.3423 Q32.8921,299.6411 32.2529,299.7905 Q31.6138,299.9399 30.9082,299.9399 Q28.4014,299.9399 27.0815,298.2881 Q25.7617,296.6362 25.7617,293.5151 Q25.7617,290.3857 27.0815,288.7339 Q28.4014,287.082 30.9082,287.082 Q31.6138,287.082 32.2612,287.2314 Q32.9087,287.3809 33.4731,287.6797 L33.4731,290.4023 Q32.8423,289.8213 32.2488,289.5515 Q31.6553,289.2817 31.0244,289.2817 Q29.6797,289.2817 28.9949,290.3484 Q28.3101,291.415 28.3101,293.5151 Q28.3101,295.6069 28.9949,296.6736 Q29.6797,297.7402 31.0244,297.7402 Q31.6553,297.7402 32.2488,297.4705 Q32.8423,297.2007 33.4731,296.6196 Z " fill="#000000"/><text fill="#000000" font-family="sans-serif" font-size="12" lengthAdjust="spacing" textLength="95" x="45" y="297.7344">FlutterQuillPlugin</text><line style="stroke:#A80036;stroke-width:1.5;" x1="17" x2="142" y1="309.1992" y2="309.1992"/><line style="stroke:#A80036;stroke-width:1.5;" x1="17" x2="142" y1="317.1992" y2="317.1992"/><!--MD5=[255b719b94d2e9dd798d993189fd23e9]
class GridQuillPlugin--><rect codeLine="15" fill="#FEFECE" filter="url(#fdhtqfod6j0fn)" height="48" id="GridQuillPlugin" style="stroke:#A80036;stroke-width:1.5;" width="116" x="21.5" y="360.1992"/><ellipse cx="36.5" cy="376.1992" fill="#ADD1B2" rx="11" ry="11" style="stroke:#A80036;stroke-width:1.0;"/><path d="M38.9731,382.3423 Q38.3921,382.6411 37.7529,382.7905 Q37.1138,382.9399 36.4082,382.9399 Q33.9014,382.9399 32.5815,381.2881 Q31.2617,379.6362 31.2617,376.5151 Q31.2617,373.3857 32.5815,371.7339 Q33.9014,370.082 36.4082,370.082 Q37.1138,370.082 37.7612,370.2314 Q38.4087,370.3809 38.9731,370.6797 L38.9731,373.4023 Q38.3423,372.8213 37.7488,372.5515 Q37.1553,372.2817 36.5244,372.2817 Q35.1797,372.2817 34.4949,373.3484 Q33.8101,374.415 33.8101,376.5151 Q33.8101,378.6069 34.4949,379.6736 Q35.1797,380.7402 36.5244,380.7402 Q37.1553,380.7402 37.7488,380.4705 Q38.3423,380.2007 38.9731,379.6196 Z " fill="#000000"/><text fill="#000000" font-family="sans-serif" font-size="12" lengthAdjust="spacing" textLength="84" x="50.5" y="380.7344">GridQuillPlugin</text><line style="stroke:#A80036;stroke-width:1.5;" x1="22.5" x2="136.5" y1="392.1992" y2="392.1992"/><line style="stroke:#A80036;stroke-width:1.5;" x1="22.5" x2="136.5" y1="400.1992" y2="400.1992"/><!--MD5=[342d2637935a2088a5849ecd4a7ec809]
class PluginRunner--><rect codeLine="20" fill="#FEFECE" filter="url(#fdhtqfod6j0fn)" height="48" id="PluginRunner" style="stroke:#A80036;stroke-width:1.5;" width="107" x="242.5" y="111.1992"/><ellipse cx="257.5" cy="127.1992" fill="#ADD1B2" rx="11" ry="11" style="stroke:#A80036;stroke-width:1.0;"/><path d="M259.9731,133.3423 Q259.3921,133.6411 258.7529,133.7905 Q258.1138,133.9399 257.4082,133.9399 Q254.9014,133.9399 253.5815,132.2881 Q252.2617,130.6362 252.2617,127.5151 Q252.2617,124.3857 253.5815,122.7339 Q254.9014,121.082 257.4082,121.082 Q258.1138,121.082 258.7612,121.2314 Q259.4087,121.3809 259.9731,121.6797 L259.9731,124.4023 Q259.3423,123.8213 258.7488,123.5515 Q258.1553,123.2817 257.5244,123.2817 Q256.1797,123.2817 255.4949,124.3484 Q254.8101,125.415 254.8101,127.5151 Q254.8101,129.6069 255.4949,130.6736 Q256.1797,131.7402 257.5244,131.7402 Q258.1553,131.7402 258.7488,131.4705 Q259.3423,131.2007 259.9731,130.6196 Z " fill="#000000"/><text fill="#000000" font-family="sans-serif" font-size="12" lengthAdjust="spacing" textLength="75" x="271.5" y="131.7344">PluginRunner</text><line style="stroke:#A80036;stroke-width:1.5;" x1="243.5" x2="348.5" y1="143.1992" y2="143.1992"/><line style="stroke:#A80036;stroke-width:1.5;" x1="243.5" x2="348.5" y1="151.1992" y2="151.1992"/><!--MD5=[624bea7968c9c5e3d42a915b0155ed60]
class MacOSPluginRunner--><rect codeLine="21" fill="#FEFECE" filter="url(#fdhtqfod6j0fn)" height="48" id="MacOSPluginRunner" style="stroke:#A80036;stroke-width:1.5;" width="145" x="7" y="28.1992"/><ellipse cx="22" cy="44.1992" fill="#ADD1B2" rx="11" ry="11" style="stroke:#A80036;stroke-width:1.0;"/><path d="M24.4731,50.3423 Q23.8921,50.6411 23.2529,50.7905 Q22.6138,50.9399 21.9082,50.9399 Q19.4014,50.9399 18.0815,49.2881 Q16.7617,47.6362 16.7617,44.5151 Q16.7617,41.3857 18.0815,39.7339 Q19.4014,38.082 21.9082,38.082 Q22.6138,38.082 23.2612,38.2314 Q23.9087,38.3809 24.4731,38.6797 L24.4731,41.4023 Q23.8423,40.8213 23.2488,40.5515 Q22.6553,40.2817 22.0244,40.2817 Q20.6797,40.2817 19.9949,41.3484 Q19.3101,42.415 19.3101,44.5151 Q19.3101,46.6069 19.9949,47.6736 Q20.6797,48.7402 22.0244,48.7402 Q22.6553,48.7402 23.2488,48.4705 Q23.8423,48.2007 24.4731,47.6196 Z " fill="#000000"/><text fill="#000000" font-family="sans-serif" font-size="12" lengthAdjust="spacing" textLength="113" x="36" y="48.7344">MacOSPluginRunner</text><line style="stroke:#A80036;stroke-width:1.5;" x1="8" x2="151" y1="60.1992" y2="60.1992"/><line style="stroke:#A80036;stroke-width:1.5;" x1="8" x2="151" y1="68.1992" y2="68.1992"/><!--MD5=[a705b9b87b3fed8d049c26ee24442385]
class iOSPluginRunner--><rect codeLine="22" fill="#FEFECE" filter="url(#fdhtqfod6j0fn)" height="48" id="iOSPluginRunner" style="stroke:#A80036;stroke-width:1.5;" width="125" x="17" y="111.1992"/><ellipse cx="32" cy="127.1992" fill="#ADD1B2" rx="11" ry="11" style="stroke:#A80036;stroke-width:1.0;"/><path d="M34.4731,133.3423 Q33.8921,133.6411 33.2529,133.7905 Q32.6138,133.9399 31.9082,133.9399 Q29.4014,133.9399 28.0815,132.2881 Q26.7617,130.6362 26.7617,127.5151 Q26.7617,124.3857 28.0815,122.7339 Q29.4014,121.082 31.9082,121.082 Q32.6138,121.082 33.2612,121.2314 Q33.9087,121.3809 34.4731,121.6797 L34.4731,124.4023 Q33.8423,123.8213 33.2488,123.5515 Q32.6553,123.2817 32.0244,123.2817 Q30.6797,123.2817 29.9949,124.3484 Q29.3101,125.415 29.3101,127.5151 Q29.3101,129.6069 29.9949,130.6736 Q30.6797,131.7402 32.0244,131.7402 Q32.6553,131.7402 33.2488,131.4705 Q33.8423,131.2007 34.4731,130.6196 Z " fill="#000000"/><text fill="#000000" font-family="sans-serif" font-size="12" lengthAdjust="spacing" textLength="93" x="46" y="131.7344">iOSPluginRunner</text><line style="stroke:#A80036;stroke-width:1.5;" x1="18" x2="141" y1="143.1992" y2="143.1992"/><line style="stroke:#A80036;stroke-width:1.5;" x1="18" x2="141" y1="151.1992" y2="151.1992"/><!--MD5=[72f009749447faadda56b48c1f334fa7]
class WebPluginRunner--><rect codeLine="23" fill="#FEFECE" filter="url(#fdhtqfod6j0fn)" height="48" id="WebPluginRunner" style="stroke:#A80036;stroke-width:1.5;" width="132" x="13.5" y="194.1992"/><ellipse cx="28.5" cy="210.1992" fill="#ADD1B2" rx="11" ry="11" style="stroke:#A80036;stroke-width:1.0;"/><path d="M30.9731,216.3423 Q30.3921,216.6411 29.7529,216.7905 Q29.1138,216.9399 28.4082,216.9399 Q25.9014,216.9399 24.5815,215.2881 Q23.2617,213.6362 23.2617,210.5151 Q23.2617,207.3857 24.5815,205.7339 Q25.9014,204.082 28.4082,204.082 Q29.1138,204.082 29.7612,204.2314 Q30.4087,204.3809 30.9731,204.6797 L30.9731,207.4023 Q30.3423,206.8213 29.7488,206.5515 Q29.1553,206.2817 28.5244,206.2817 Q27.1797,206.2817 26.4949,207.3484 Q25.8101,208.415 25.8101,210.5151 Q25.8101,212.6069 26.4949,213.6736 Q27.1797,214.7402 28.5244,214.7402 Q29.1553,214.7402 29.7488,214.4705 Q30.3423,214.2007 30.9731,213.6196 Z " fill="#000000"/><text fill="#000000" font-family="sans-serif" font-size="12" lengthAdjust="spacing" textLength="100" x="42.5" y="214.7344">WebPluginRunner</text><line style="stroke:#A80036;stroke-width:1.5;" x1="14.5" x2="144.5" y1="226.1992" y2="226.1992"/><line style="stroke:#A80036;stroke-width:1.5;" x1="14.5" x2="144.5" y1="234.1992" y2="234.1992"/><!--MD5=[1ce1497ff12f1981170e53d8e77eaad7]
link FlutterQuillPlugin to Plugin--><path codeLine="17" d="M143.12,301.1992 C174.66,301.1992 212.47,301.1992 242.48,301.1992 " fill="none" id="FlutterQuillPlugin-to-Plugin" style="stroke:#A80036;stroke-width:1.0;"/><polygon fill="none" points="242.75,294.1992,262.75,301.1992,242.75,308.1992,242.75,294.1992" style="stroke:#A80036;stroke-width:1.0;"/><!--MD5=[615e7fd704660e1e99ccf6c786ac1d1f]
link GridQuillPlugin to Plugin--><path codeLine="18" d="M137.7,362.0692 C170.74,349.2792 211.95,333.3392 243.9,320.9692 " fill="none" id="GridQuillPlugin-to-Plugin" style="stroke:#A80036;stroke-width:1.0;"/><polygon fill="none" points="241.73,314.3092,262.91,313.6192,246.78,327.3592,241.73,314.3092" style="stroke:#A80036;stroke-width:1.0;"/><!--MD5=[8b3bfea00d1da7128c5d3fc3d06cbd64]
link MacOSPluginRunner to PluginRunner--><path codeLine="25" d="M142.54,76.2092 C167.81,85.9792 197.17,97.3492 223.34,107.4692 " fill="none" id="MacOSPluginRunner-to-PluginRunner" style="stroke:#A80036;stroke-width:1.0;"/><polygon fill="none" points="226.05,101.0092,242.17,114.7592,220.99,114.0692,226.05,101.0092" style="stroke:#A80036;stroke-width:1.0;"/><!--MD5=[0abfbd53fc719102baf3be8bf18bc981]
link iOSPluginRunner to PluginRunner--><path codeLine="26" d="M142.25,135.1992 C167.25,135.1992 196.3,135.1992 222.32,135.1992 " fill="none" id="iOSPluginRunner-to-PluginRunner" style="stroke:#A80036;stroke-width:1.0;"/><polygon fill="none" points="222.39,128.1992,242.39,135.1992,222.39,142.1992,222.39,128.1992" style="stroke:#A80036;stroke-width:1.0;"/><!--MD5=[7102720e5bd0f2f9f3107cfa277ac85e]
link WebPluginRunner to PluginRunner--><path codeLine="27" d="M142.54,194.1892 C167.81,184.4192 197.17,173.0492 223.34,162.9292 " fill="none" id="WebPluginRunner-to-PluginRunner" style="stroke:#A80036;stroke-width:1.0;"/><polygon fill="none" points="220.99,156.3292,242.17,155.6392,226.05,169.3892,220.99,156.3292" style="stroke:#A80036;stroke-width:1.0;"/><!--MD5=[ea0baaa7517c195343827ebcb8e7662c]
link PluginRunner to PluginService--><path codeLine="29" d="M296,159.4692 C296,161.5392 296,162.8692 296,162.8692 C296,162.8692 296,179.7492 296,188.7592 " fill="none" id="PluginRunner-to-PluginService" style="stroke:#A80036;stroke-width:1.0;"/><polygon fill="#A80036" points="296,193.9292,300,184.9292,296,188.9292,292,184.9292,296,193.9292" style="stroke:#A80036;stroke-width:1.0;"/><!--MD5=[1b2d67c9e1a7b11c9052a686d2f2a984]
link PluginService to Plugin--><path codeLine="30" d="M296,242.4692 C296,244.5392 296,245.8692 296,245.8692 C296,245.8692 296,262.7492 296,271.7592 " fill="none" id="PluginService-to-Plugin" style="stroke:#A80036;stroke-width:1.0;"/><polygon fill="#A80036" points="296,276.9292,300,267.9292,296,271.9292,292,267.9292,296,276.9292" style="stroke:#A80036;stroke-width:1.0;"/><!--MD5=[f64a1fc55556713213a809a72af5a1cc]
link Plugin to PluginProxy--><path codeLine="31" d="M296,325.4692 C296,327.5392 296,328.8692 296,328.8692 C296,328.8692 296,345.7492 296,354.7592 " fill="none" id="Plugin-to-PluginProxy" style="stroke:#A80036;stroke-width:1.0;"/><polygon fill="#A80036" points="296,359.9292,300,350.9292,296,354.9292,292,350.9292,296,359.9292" style="stroke:#A80036;stroke-width:1.0;"/><!--MD5=[def5d299cbd24ee931494f29a816df57]
link PluginProxy to PluginAPI--><path codeLine="32" d="M296,408.4492 C296,412.9192 296,416.1992 296,416.1992 C296,416.1992 296,428.5192 296,437.8692 " fill="none" id="PluginProxy-to-PluginAPI" style="stroke:#A80036;stroke-width:1.0;"/><polygon fill="#A80036" points="296,442.9192,300,433.9192,296,437.9192,292,433.9192,296,442.9192" style="stroke:#A80036;stroke-width:1.0;"/><!--MD5=[feede9454da11220fa4fc000b385cd4f]
reverse link PluginAPI to PluginRepository--><path codeLine="33" d="M400.58,480.1992 C414.02,480.1992 427.45,480.1992 439.93,480.1992 " fill="none" id="PluginAPI-backto-PluginRepository" style="stroke:#A80036;stroke-width:1.0;stroke-dasharray:7.0,7.0;"/><polygon fill="none" points="400.29,487.1992,380.29,480.1992,400.29,473.1992,400.29,487.1992" style="stroke:#A80036;stroke-width:1.0;"/><!--MD5=[6cac8801dc0925bde5164af7151add38]
@startuml AppFlowy
title Plugin Classes
left to right direction
skinparam linetype polyline

interface PluginAPI {
   fn set_data(data: PluginData);
   fn get_data() -> PluginData;
}
class PluginRepository
class PluginProxy
class PluginService
class Plugin {
}
class FlutterQuillPlugin
class GridQuillPlugin

FlutterQuillPlugin - -|> Plugin
GridQuillPlugin - -|> Plugin

class PluginRunner
class MacOSPluginRunner
class iOSPluginRunner
class WebPluginRunner

MacOSPluginRunner - -|> PluginRunner
iOSPluginRunner - -|> PluginRunner
WebPluginRunner - -|> PluginRunner

PluginRunner -> PluginService
PluginService -> Plugin
Plugin -> PluginProxy
PluginProxy -> PluginAPI
PluginAPI <|.. PluginRepository






@enduml

PlantUML version 1.2022.0(Wed Jan 12 00:16:42 CST 2022)
(GPL source distribution)
Java Runtime: OpenJDK Runtime Environment
JVM: OpenJDK 64-Bit Server VM
Default Encoding: UTF-8
Language: en
Country: US
--></g></svg>