<?xml version="1.0" encoding="UTF-8" standalone="no"?><svg xmlns="http://www.w3.org/2000/svg" xmlns:xlink="http://www.w3.org/1999/xlink" contentStyleType="text/css" height="394px" preserveAspectRatio="none" style="width:1356px;height:394px;background:#FFFFFF;" version="1.1" viewBox="0 0 1356 394" width="1356px" zoomAndPan="magnify"><defs/><g><!--MD5=[7b22775f9d8ef9d6dad88ce036ba117e]
class GridRowCacheFieldNotifier--><g id="elem_GridRowCacheFieldNotifier"><rect codeLine="6" fill="#F1F1F1" height="48" id="GridRowCacheFieldNotifier" rx="2.5" ry="2.5" style="stroke:#181818;stroke-width:0.5;" width="248" x="816" y="9"/><ellipse cx="831" cy="25" fill="#B4A7E5" rx="11" ry="11" style="stroke:#181818;stroke-width:1.0;"/><path d="M831.9531,21.7813 L833.6719,21.7813 C834.0625,21.7813 834.25,21.75 834.375,21.6719 C834.6406,21.5156 834.7813,21.2344 834.7813,20.9375 C834.7813,20.6719 834.6719,20.4063 834.4375,20.2344 C834.2656,20.125 834.125,20.0938 833.6719,20.0938 L828.5313,20.0938 C828.0938,20.0938 827.9688,20.1094 827.8125,20.2031 C827.5625,20.3594 827.4063,20.6563 827.4063,20.9375 C827.4063,21.2188 827.5469,21.4688 827.7656,21.6406 C827.9219,21.75 828.1094,21.7813 828.5313,21.7813 L830.25,21.7813 L830.25,28.2969 L828.5313,28.2969 C828.0938,28.2969 827.9688,28.3125 827.8125,28.4219 C827.5625,28.5781 827.4063,28.8594 827.4063,29.1563 C827.4063,29.4063 827.5469,29.6719 827.7656,29.8281 C827.9219,29.9531 828.125,30 828.5313,30 L833.6719,30 C834.4219,30 834.7813,29.7188 834.7813,29.1563 C834.7813,28.875 834.6719,28.625 834.4375,28.4531 C834.2656,28.3281 834.125,28.2969 833.6719,28.2969 L831.9531,28.2969 L831.9531,21.7813 Z " fill="#000000"/><text fill="#000000" font-family="sans-serif" font-size="14" font-style="italic" font-weight="bold" lengthAdjust="spacing" textLength="216" x="845" y="29.8467">GridRowCacheFieldNotifier</text><line style="stroke:#181818;stroke-width:0.5;" x1="817" x2="1063" y1="41" y2="41"/><line style="stroke:#181818;stroke-width:0.5;" x1="817" x2="1063" y1="49" y2="49"/></g><!--MD5=[d4a0bb39caf38270ea4e8728db64fad5]
class GridFieldCache--><g id="elem_GridFieldCache"><rect codeLine="7" fill="#B6FADC" height="48" id="GridFieldCache" rx="2.5" ry="2.5" style="stroke:#181818;stroke-width:0.5;" width="152" x="200" y="90"/><ellipse cx="215" cy="106" fill="#ADD1B2" rx="11" ry="11" style="stroke:#181818;stroke-width:1.0;"/><path d="M217.3438,101.6719 C216.4063,101.2344 215.8125,101.0938 214.9375,101.0938 C212.3125,101.0938 210.3125,103.1719 210.3125,105.8906 L210.3125,107.0156 C210.3125,109.5938 212.4219,111.4844 215.3125,111.4844 C216.5313,111.4844 217.6875,111.1875 218.4375,110.6406 C219.0156,110.2344 219.3438,109.7813 219.3438,109.3906 C219.3438,108.9375 218.9531,108.5469 218.4844,108.5469 C218.2656,108.5469 218.0625,108.625 217.875,108.8125 C217.4219,109.2969 217.4219,109.2969 217.2344,109.3906 C216.8125,109.6563 216.125,109.7813 215.3594,109.7813 C213.3125,109.7813 212.0156,108.6875 212.0156,106.9844 L212.0156,105.8906 C212.0156,104.1094 213.2656,102.7969 215,102.7969 C215.5781,102.7969 216.1875,102.9531 216.6563,103.2031 C217.1406,103.4844 217.3125,103.7031 217.4063,104.1094 C217.4688,104.5156 217.5,104.6406 217.6406,104.7656 C217.7813,104.9063 218.0156,105.0156 218.2344,105.0156 C218.5,105.0156 218.7656,104.875 218.9375,104.6563 C219.0469,104.5 219.0781,104.3125 219.0781,103.8906 L219.0781,102.4688 C219.0781,102.0313 219.0625,101.9063 218.9688,101.75 C218.8125,101.4844 218.5313,101.3438 218.2344,101.3438 C217.9375,101.3438 217.7344,101.4375 217.5156,101.75 L217.3438,101.6719 Z " fill="#000000"/><text fill="#000000" font-family="sans-serif" font-size="14" font-weight="bold" lengthAdjust="spacing" textLength="120" x="229" y="110.8467">GridFieldCache</text><line style="stroke:#181818;stroke-width:0.5;" x1="201" x2="351" y1="122" y2="122"/><line style="stroke:#181818;stroke-width:0.5;" x1="201" x2="351" y1="130" y2="130"/></g><!--MD5=[9cd5ce507e9dfa400c11500c2bd98eb9]
class GridBlockCache--><g id="elem_GridBlockCache"><rect codeLine="8" fill="#B6FADC" height="48" id="GridBlockCache" rx="2.5" ry="2.5" style="stroke:#181818;stroke-width:0.5;" width="158" x="197" y="185"/><ellipse cx="212" cy="201" fill="#ADD1B2" rx="11" ry="11" style="stroke:#181818;stroke-width:1.0;"/><path d="M214.3438,196.6719 C213.4063,196.2344 212.8125,196.0938 211.9375,196.0938 C209.3125,196.0938 207.3125,198.1719 207.3125,200.8906 L207.3125,202.0156 C207.3125,204.5938 209.4219,206.4844 212.3125,206.4844 C213.5313,206.4844 214.6875,206.1875 215.4375,205.6406 C216.0156,205.2344 216.3438,204.7813 216.3438,204.3906 C216.3438,203.9375 215.9531,203.5469 215.4844,203.5469 C215.2656,203.5469 215.0625,203.625 214.875,203.8125 C214.4219,204.2969 214.4219,204.2969 214.2344,204.3906 C213.8125,204.6563 213.125,204.7813 212.3594,204.7813 C210.3125,204.7813 209.0156,203.6875 209.0156,201.9844 L209.0156,200.8906 C209.0156,199.1094 210.2656,197.7969 212,197.7969 C212.5781,197.7969 213.1875,197.9531 213.6563,198.2031 C214.1406,198.4844 214.3125,198.7031 214.4063,199.1094 C214.4688,199.5156 214.5,199.6406 214.6406,199.7656 C214.7813,199.9063 215.0156,200.0156 215.2344,200.0156 C215.5,200.0156 215.7656,199.875 215.9375,199.6563 C216.0469,199.5 216.0781,199.3125 216.0781,198.8906 L216.0781,197.4688 C216.0781,197.0313 216.0625,196.9063 215.9688,196.75 C215.8125,196.4844 215.5313,196.3438 215.2344,196.3438 C214.9375,196.3438 214.7344,196.4375 214.5156,196.75 L214.3438,196.6719 Z " fill="#000000"/><text fill="#000000" font-family="sans-serif" font-size="14" font-weight="bold" lengthAdjust="spacing" textLength="126" x="226" y="205.8467">GridBlockCache</text><line style="stroke:#181818;stroke-width:0.5;" x1="198" x2="354" y1="217" y2="217"/><line style="stroke:#181818;stroke-width:0.5;" x1="198" x2="354" y1="225" y2="225"/></g><!--MD5=[c6748457c4a15219a60a81b35778ca8c]
class GridRowCache--><g id="elem_GridRowCache"><rect codeLine="9" fill="#B6FADC" height="48" id="GridRowCache" rx="2.5" ry="2.5" style="stroke:#181818;stroke-width:0.5;" width="148" x="511.5" y="173"/><ellipse cx="526.5" cy="189" fill="#ADD1B2" rx="11" ry="11" style="stroke:#181818;stroke-width:1.0;"/><path d="M528.8438,184.6719 C527.9063,184.2344 527.3125,184.0938 526.4375,184.0938 C523.8125,184.0938 521.8125,186.1719 521.8125,188.8906 L521.8125,190.0156 C521.8125,192.5938 523.9219,194.4844 526.8125,194.4844 C528.0313,194.4844 529.1875,194.1875 529.9375,193.6406 C530.5156,193.2344 530.8438,192.7813 530.8438,192.3906 C530.8438,191.9375 530.4531,191.5469 529.9844,191.5469 C529.7656,191.5469 529.5625,191.625 529.375,191.8125 C528.9219,192.2969 528.9219,192.2969 528.7344,192.3906 C528.3125,192.6563 527.625,192.7813 526.8594,192.7813 C524.8125,192.7813 523.5156,191.6875 523.5156,189.9844 L523.5156,188.8906 C523.5156,187.1094 524.7656,185.7969 526.5,185.7969 C527.0781,185.7969 527.6875,185.9531 528.1563,186.2031 C528.6406,186.4844 528.8125,186.7031 528.9063,187.1094 C528.9688,187.5156 529,187.6406 529.1406,187.7656 C529.2813,187.9063 529.5156,188.0156 529.7344,188.0156 C530,188.0156 530.2656,187.875 530.4375,187.6563 C530.5469,187.5 530.5781,187.3125 530.5781,186.8906 L530.5781,185.4688 C530.5781,185.0313 530.5625,184.9063 530.4688,184.75 C530.3125,184.4844 530.0313,184.3438 529.7344,184.3438 C529.4375,184.3438 529.2344,184.4375 529.0156,184.75 L528.8438,184.6719 Z " fill="#000000"/><text fill="#000000" font-family="sans-serif" font-size="14" font-weight="bold" lengthAdjust="spacing" textLength="116" x="540.5" y="193.8467">GridRowCache</text><line style="stroke:#181818;stroke-width:0.5;" x1="512.5" x2="658.5" y1="205" y2="205"/><line style="stroke:#181818;stroke-width:0.5;" x1="512.5" x2="658.5" y1="213" y2="213"/></g><!--MD5=[64596bf797181233ea1f132a2228edec]
class GridCellCache--><g id="elem_GridCellCache"><rect codeLine="10" fill="#B6FADC" height="48" id="GridCellCache" rx="2.5" ry="2.5" style="stroke:#181818;stroke-width:0.5;" width="143" x="868.5" y="183"/><ellipse cx="883.5" cy="199" fill="#ADD1B2" rx="11" ry="11" style="stroke:#181818;stroke-width:1.0;"/><path d="M885.8438,194.6719 C884.9063,194.2344 884.3125,194.0938 883.4375,194.0938 C880.8125,194.0938 878.8125,196.1719 878.8125,198.8906 L878.8125,200.0156 C878.8125,202.5938 880.9219,204.4844 883.8125,204.4844 C885.0313,204.4844 886.1875,204.1875 886.9375,203.6406 C887.5156,203.2344 887.8438,202.7813 887.8438,202.3906 C887.8438,201.9375 887.4531,201.5469 886.9844,201.5469 C886.7656,201.5469 886.5625,201.625 886.375,201.8125 C885.9219,202.2969 885.9219,202.2969 885.7344,202.3906 C885.3125,202.6563 884.625,202.7813 883.8594,202.7813 C881.8125,202.7813 880.5156,201.6875 880.5156,199.9844 L880.5156,198.8906 C880.5156,197.1094 881.7656,195.7969 883.5,195.7969 C884.0781,195.7969 884.6875,195.9531 885.1563,196.2031 C885.6406,196.4844 885.8125,196.7031 885.9063,197.1094 C885.9688,197.5156 886,197.6406 886.1406,197.7656 C886.2813,197.9063 886.5156,198.0156 886.7344,198.0156 C887,198.0156 887.2656,197.875 887.4375,197.6563 C887.5469,197.5 887.5781,197.3125 887.5781,196.8906 L887.5781,195.4688 C887.5781,195.0313 887.5625,194.9063 887.4688,194.75 C887.3125,194.4844 887.0313,194.3438 886.7344,194.3438 C886.4375,194.3438 886.2344,194.4375 886.0156,194.75 L885.8438,194.6719 Z " fill="#000000"/><text fill="#000000" font-family="sans-serif" font-size="14" font-weight="bold" lengthAdjust="spacing" textLength="111" x="897.5" y="203.8467">GridCellCache</text><line style="stroke:#181818;stroke-width:0.5;" x1="869.5" x2="1010.5" y1="215" y2="215"/><line style="stroke:#181818;stroke-width:0.5;" x1="869.5" x2="1010.5" y1="223" y2="223"/></g><!--MD5=[b7a30f0afc60c65c31521dee832aabc2]
class GridBloc--><g id="elem_GridBloc"><rect fill="#F1F1F1" height="48" id="GridBloc" rx="2.5" ry="2.5" style="stroke:#181818;stroke-width:0.5;" width="101" x="7" y="185"/><ellipse cx="22" cy="201" fill="#ADD1B2" rx="11" ry="11" style="stroke:#181818;stroke-width:1.0;"/><path d="M24.3438,196.6719 C23.4063,196.2344 22.8125,196.0938 21.9375,196.0938 C19.3125,196.0938 17.3125,198.1719 17.3125,200.8906 L17.3125,202.0156 C17.3125,204.5938 19.4219,206.4844 22.3125,206.4844 C23.5313,206.4844 24.6875,206.1875 25.4375,205.6406 C26.0156,205.2344 26.3438,204.7813 26.3438,204.3906 C26.3438,203.9375 25.9531,203.5469 25.4844,203.5469 C25.2656,203.5469 25.0625,203.625 24.875,203.8125 C24.4219,204.2969 24.4219,204.2969 24.2344,204.3906 C23.8125,204.6563 23.125,204.7813 22.3594,204.7813 C20.3125,204.7813 19.0156,203.6875 19.0156,201.9844 L19.0156,200.8906 C19.0156,199.1094 20.2656,197.7969 22,197.7969 C22.5781,197.7969 23.1875,197.9531 23.6563,198.2031 C24.1406,198.4844 24.3125,198.7031 24.4063,199.1094 C24.4688,199.5156 24.5,199.6406 24.6406,199.7656 C24.7813,199.9063 25.0156,200.0156 25.2344,200.0156 C25.5,200.0156 25.7656,199.875 25.9375,199.6563 C26.0469,199.5 26.0781,199.3125 26.0781,198.8906 L26.0781,197.4688 C26.0781,197.0313 26.0625,196.9063 25.9688,196.75 C25.8125,196.4844 25.5313,196.3438 25.2344,196.3438 C24.9375,196.3438 24.7344,196.4375 24.5156,196.75 L24.3438,196.6719 Z " fill="#000000"/><text fill="#000000" font-family="sans-serif" font-size="14" font-weight="bold" lengthAdjust="spacing" textLength="69" x="36" y="205.8467">GridBloc</text><line style="stroke:#181818;stroke-width:0.5;" x1="8" x2="107" y1="217" y2="217"/><line style="stroke:#181818;stroke-width:0.5;" x1="8" x2="107" y1="225" y2="225"/></g><!--MD5=[d111723436ca97b090550f2d110a9482]
class GridService--><g id="elem_GridService"><rect fill="#F1F1F1" height="48" id="GridService" rx="2.5" ry="2.5" style="stroke:#181818;stroke-width:0.5;" width="124" x="214" y="268"/><ellipse cx="229" cy="284" fill="#ADD1B2" rx="11" ry="11" style="stroke:#181818;stroke-width:1.0;"/><path d="M231.3438,279.6719 C230.4063,279.2344 229.8125,279.0938 228.9375,279.0938 C226.3125,279.0938 224.3125,281.1719 224.3125,283.8906 L224.3125,285.0156 C224.3125,287.5938 226.4219,289.4844 229.3125,289.4844 C230.5313,289.4844 231.6875,289.1875 232.4375,288.6406 C233.0156,288.2344 233.3438,287.7813 233.3438,287.3906 C233.3438,286.9375 232.9531,286.5469 232.4844,286.5469 C232.2656,286.5469 232.0625,286.625 231.875,286.8125 C231.4219,287.2969 231.4219,287.2969 231.2344,287.3906 C230.8125,287.6563 230.125,287.7813 229.3594,287.7813 C227.3125,287.7813 226.0156,286.6875 226.0156,284.9844 L226.0156,283.8906 C226.0156,282.1094 227.2656,280.7969 229,280.7969 C229.5781,280.7969 230.1875,280.9531 230.6563,281.2031 C231.1406,281.4844 231.3125,281.7031 231.4063,282.1094 C231.4688,282.5156 231.5,282.6406 231.6406,282.7656 C231.7813,282.9063 232.0156,283.0156 232.2344,283.0156 C232.5,283.0156 232.7656,282.875 232.9375,282.6563 C233.0469,282.5 233.0781,282.3125 233.0781,281.8906 L233.0781,280.4688 C233.0781,280.0313 233.0625,279.9063 232.9688,279.75 C232.8125,279.4844 232.5313,279.3438 232.2344,279.3438 C231.9375,279.3438 231.7344,279.4375 231.5156,279.75 L231.3438,279.6719 Z " fill="#000000"/><text fill="#000000" font-family="sans-serif" font-size="14" font-weight="bold" lengthAdjust="spacing" textLength="92" x="243" y="288.8467">GridService</text><line style="stroke:#181818;stroke-width:0.5;" x1="215" x2="337" y1="300" y2="300"/><line style="stroke:#181818;stroke-width:0.5;" x1="215" x2="337" y1="308" y2="308"/></g><!--MD5=[8f6ea1f45229dc5690b4d4eeeed7e9b2]
class GridBlock--><g id="elem_GridBlock"><rect fill="#F1F1F1" height="48" id="GridBlock" rx="2.5" ry="2.5" style="stroke:#181818;stroke-width:0.5;" width="110" x="530.5" y="339"/><ellipse cx="545.5" cy="355" fill="#ADD1B2" rx="11" ry="11" style="stroke:#181818;stroke-width:1.0;"/><path d="M547.8438,350.6719 C546.9063,350.2344 546.3125,350.0938 545.4375,350.0938 C542.8125,350.0938 540.8125,352.1719 540.8125,354.8906 L540.8125,356.0156 C540.8125,358.5938 542.9219,360.4844 545.8125,360.4844 C547.0313,360.4844 548.1875,360.1875 548.9375,359.6406 C549.5156,359.2344 549.8438,358.7813 549.8438,358.3906 C549.8438,357.9375 549.4531,357.5469 548.9844,357.5469 C548.7656,357.5469 548.5625,357.625 548.375,357.8125 C547.9219,358.2969 547.9219,358.2969 547.7344,358.3906 C547.3125,358.6563 546.625,358.7813 545.8594,358.7813 C543.8125,358.7813 542.5156,357.6875 542.5156,355.9844 L542.5156,354.8906 C542.5156,353.1094 543.7656,351.7969 545.5,351.7969 C546.0781,351.7969 546.6875,351.9531 547.1563,352.2031 C547.6406,352.4844 547.8125,352.7031 547.9063,353.1094 C547.9688,353.5156 548,353.6406 548.1406,353.7656 C548.2813,353.9063 548.5156,354.0156 548.7344,354.0156 C549,354.0156 549.2656,353.875 549.4375,353.6563 C549.5469,353.5 549.5781,353.3125 549.5781,352.8906 L549.5781,351.4688 C549.5781,351.0313 549.5625,350.9063 549.4688,350.75 C549.3125,350.4844 549.0313,350.3438 548.7344,350.3438 C548.4375,350.3438 548.2344,350.4375 548.0156,350.75 L547.8438,350.6719 Z " fill="#000000"/><text fill="#000000" font-family="sans-serif" font-size="14" font-weight="bold" lengthAdjust="spacing" textLength="78" x="559.5" y="359.8467">GridBlock</text><line style="stroke:#181818;stroke-width:0.5;" x1="531.5" x2="639.5" y1="371" y2="371"/><line style="stroke:#181818;stroke-width:0.5;" x1="531.5" x2="639.5" y1="379" y2="379"/></g><!--MD5=[d1b4bba65e98f94f6dd31e1f6d1d67a7]
class GridFieldChangeset--><g id="elem_GridFieldChangeset"><rect fill="#F1F1F1" height="48" id="GridFieldChangeset" rx="2.5" ry="2.5" style="stroke:#181818;stroke-width:0.5;" width="189" x="491" y="90"/><ellipse cx="506" cy="106" fill="#ADD1B2" rx="11" ry="11" style="stroke:#181818;stroke-width:1.0;"/><path d="M508.3438,101.6719 C507.4063,101.2344 506.8125,101.0938 505.9375,101.0938 C503.3125,101.0938 501.3125,103.1719 501.3125,105.8906 L501.3125,107.0156 C501.3125,109.5938 503.4219,111.4844 506.3125,111.4844 C507.5313,111.4844 508.6875,111.1875 509.4375,110.6406 C510.0156,110.2344 510.3438,109.7813 510.3438,109.3906 C510.3438,108.9375 509.9531,108.5469 509.4844,108.5469 C509.2656,108.5469 509.0625,108.625 508.875,108.8125 C508.4219,109.2969 508.4219,109.2969 508.2344,109.3906 C507.8125,109.6563 507.125,109.7813 506.3594,109.7813 C504.3125,109.7813 503.0156,108.6875 503.0156,106.9844 L503.0156,105.8906 C503.0156,104.1094 504.2656,102.7969 506,102.7969 C506.5781,102.7969 507.1875,102.9531 507.6563,103.2031 C508.1406,103.4844 508.3125,103.7031 508.4063,104.1094 C508.4688,104.5156 508.5,104.6406 508.6406,104.7656 C508.7813,104.9063 509.0156,105.0156 509.2344,105.0156 C509.5,105.0156 509.7656,104.875 509.9375,104.6563 C510.0469,104.5 510.0781,104.3125 510.0781,103.8906 L510.0781,102.4688 C510.0781,102.0313 510.0625,101.9063 509.9688,101.75 C509.8125,101.4844 509.5313,101.3438 509.2344,101.3438 C508.9375,101.3438 508.7344,101.4375 508.5156,101.75 L508.3438,101.6719 Z " fill="#000000"/><text fill="#000000" font-family="sans-serif" font-size="14" font-weight="bold" lengthAdjust="spacing" textLength="157" x="520" y="110.8467">GridFieldChangeset</text><line style="stroke:#181818;stroke-width:0.5;" x1="492" x2="679" y1="122" y2="122"/><line style="stroke:#181818;stroke-width:0.5;" x1="492" x2="679" y1="130" y2="130"/></g><!--MD5=[a58c78b84906a9bfa9a2b112be8b6ac4]
class GridBlockChangeset--><g id="elem_GridBlockChangeset"><rect fill="#F1F1F1" height="48" id="GridBlockChangeset" rx="2.5" ry="2.5" style="stroke:#181818;stroke-width:0.5;" width="195" x="842.5" y="270"/><ellipse cx="857.5" cy="286" fill="#ADD1B2" rx="11" ry="11" style="stroke:#181818;stroke-width:1.0;"/><path d="M859.8438,281.6719 C858.9063,281.2344 858.3125,281.0938 857.4375,281.0938 C854.8125,281.0938 852.8125,283.1719 852.8125,285.8906 L852.8125,287.0156 C852.8125,289.5938 854.9219,291.4844 857.8125,291.4844 C859.0313,291.4844 860.1875,291.1875 860.9375,290.6406 C861.5156,290.2344 861.8438,289.7813 861.8438,289.3906 C861.8438,288.9375 861.4531,288.5469 860.9844,288.5469 C860.7656,288.5469 860.5625,288.625 860.375,288.8125 C859.9219,289.2969 859.9219,289.2969 859.7344,289.3906 C859.3125,289.6563 858.625,289.7813 857.8594,289.7813 C855.8125,289.7813 854.5156,288.6875 854.5156,286.9844 L854.5156,285.8906 C854.5156,284.1094 855.7656,282.7969 857.5,282.7969 C858.0781,282.7969 858.6875,282.9531 859.1563,283.2031 C859.6406,283.4844 859.8125,283.7031 859.9063,284.1094 C859.9688,284.5156 860,284.6406 860.1406,284.7656 C860.2813,284.9063 860.5156,285.0156 860.7344,285.0156 C861,285.0156 861.2656,284.875 861.4375,284.6563 C861.5469,284.5 861.5781,284.3125 861.5781,283.8906 L861.5781,282.4688 C861.5781,282.0313 861.5625,281.9063 861.4688,281.75 C861.3125,281.4844 861.0313,281.3438 860.7344,281.3438 C860.4375,281.3438 860.2344,281.4375 860.0156,281.75 L859.8438,281.6719 Z " fill="#000000"/><text fill="#000000" font-family="sans-serif" font-size="14" font-weight="bold" lengthAdjust="spacing" textLength="163" x="871.5" y="290.8467">GridBlockChangeset</text><line style="stroke:#181818;stroke-width:0.5;" x1="843.5" x2="1036.5" y1="302" y2="302"/><line style="stroke:#181818;stroke-width:0.5;" x1="843.5" x2="1036.5" y1="310" y2="310"/></g><!--MD5=[6eb4938cd3c73606334505ca15f1a31e]
class GridRow--><g id="elem_GridRow"><rect fill="#F1F1F1" height="48" id="GridRow" rx="2.5" ry="2.5" style="stroke:#181818;stroke-width:0.5;" width="100" x="890" y="100"/><ellipse cx="905" cy="116" fill="#ADD1B2" rx="11" ry="11" style="stroke:#181818;stroke-width:1.0;"/><path d="M907.3438,111.6719 C906.4063,111.2344 905.8125,111.0938 904.9375,111.0938 C902.3125,111.0938 900.3125,113.1719 900.3125,115.8906 L900.3125,117.0156 C900.3125,119.5938 902.4219,121.4844 905.3125,121.4844 C906.5313,121.4844 907.6875,121.1875 908.4375,120.6406 C909.0156,120.2344 909.3438,119.7813 909.3438,119.3906 C909.3438,118.9375 908.9531,118.5469 908.4844,118.5469 C908.2656,118.5469 908.0625,118.625 907.875,118.8125 C907.4219,119.2969 907.4219,119.2969 907.2344,119.3906 C906.8125,119.6563 906.125,119.7813 905.3594,119.7813 C903.3125,119.7813 902.0156,118.6875 902.0156,116.9844 L902.0156,115.8906 C902.0156,114.1094 903.2656,112.7969 905,112.7969 C905.5781,112.7969 906.1875,112.9531 906.6563,113.2031 C907.1406,113.4844 907.3125,113.7031 907.4063,114.1094 C907.4688,114.5156 907.5,114.6406 907.6406,114.7656 C907.7813,114.9063 908.0156,115.0156 908.2344,115.0156 C908.5,115.0156 908.7656,114.875 908.9375,114.6563 C909.0469,114.5 909.0781,114.3125 909.0781,113.8906 L909.0781,112.4688 C909.0781,112.0313 909.0625,111.9063 908.9688,111.75 C908.8125,111.4844 908.5313,111.3438 908.2344,111.3438 C907.9375,111.3438 907.7344,111.4375 907.5156,111.75 L907.3438,111.6719 Z " fill="#000000"/><text fill="#000000" font-family="sans-serif" font-size="14" font-weight="bold" lengthAdjust="spacing" textLength="68" x="919" y="120.8467">GridRow</text><line style="stroke:#181818;stroke-width:0.5;" x1="891" x2="989" y1="132" y2="132"/><line style="stroke:#181818;stroke-width:0.5;" x1="891" x2="989" y1="140" y2="140"/></g><!--MD5=[05aedcff764caeeb5d443618a4d90de7]
class Row--><g id="elem_Row"><rect fill="#F1F1F1" height="48" id="Row" rx="2.5" ry="2.5" style="stroke:#181818;stroke-width:0.5;" width="66" x="1230.5" y="17"/><ellipse cx="1245.5" cy="33" fill="#ADD1B2" rx="11" ry="11" style="stroke:#181818;stroke-width:1.0;"/><path d="M1247.8438,28.6719 C1246.9063,28.2344 1246.3125,28.0938 1245.4375,28.0938 C1242.8125,28.0938 1240.8125,30.1719 1240.8125,32.8906 L1240.8125,34.0156 C1240.8125,36.5938 1242.9219,38.4844 1245.8125,38.4844 C1247.0313,38.4844 1248.1875,38.1875 1248.9375,37.6406 C1249.5156,37.2344 1249.8438,36.7813 1249.8438,36.3906 C1249.8438,35.9375 1249.4531,35.5469 1248.9844,35.5469 C1248.7656,35.5469 1248.5625,35.625 1248.375,35.8125 C1247.9219,36.2969 1247.9219,36.2969 1247.7344,36.3906 C1247.3125,36.6563 1246.625,36.7813 1245.8594,36.7813 C1243.8125,36.7813 1242.5156,35.6875 1242.5156,33.9844 L1242.5156,32.8906 C1242.5156,31.1094 1243.7656,29.7969 1245.5,29.7969 C1246.0781,29.7969 1246.6875,29.9531 1247.1563,30.2031 C1247.6406,30.4844 1247.8125,30.7031 1247.9063,31.1094 C1247.9688,31.5156 1248,31.6406 1248.1406,31.7656 C1248.2813,31.9063 1248.5156,32.0156 1248.7344,32.0156 C1249,32.0156 1249.2656,31.875 1249.4375,31.6563 C1249.5469,31.5 1249.5781,31.3125 1249.5781,30.8906 L1249.5781,29.4688 C1249.5781,29.0313 1249.5625,28.9063 1249.4688,28.75 C1249.3125,28.4844 1249.0313,28.3438 1248.7344,28.3438 C1248.4375,28.3438 1248.2344,28.4375 1248.0156,28.75 L1247.8438,28.6719 Z " fill="#000000"/><text fill="#000000" font-family="sans-serif" font-size="14" font-weight="bold" lengthAdjust="spacing" textLength="34" x="1259.5" y="37.8467">Row</text><line style="stroke:#181818;stroke-width:0.5;" x1="1231.5" x2="1295.5" y1="49" y2="49"/><line style="stroke:#181818;stroke-width:0.5;" x1="1231.5" x2="1295.5" y1="57" y2="57"/></g><!--MD5=[d9427b671d7d049aff2d6f2fe36a13b3]
class Field--><g id="elem_Field"><rect fill="#F1F1F1" height="48" id="Field" rx="2.5" ry="2.5" style="stroke:#181818;stroke-width:0.5;" width="70" x="1228.5" y="100"/><ellipse cx="1243.5" cy="116" fill="#ADD1B2" rx="11" ry="11" style="stroke:#181818;stroke-width:1.0;"/><path d="M1245.8438,111.6719 C1244.9063,111.2344 1244.3125,111.0938 1243.4375,111.0938 C1240.8125,111.0938 1238.8125,113.1719 1238.8125,115.8906 L1238.8125,117.0156 C1238.8125,119.5938 1240.9219,121.4844 1243.8125,121.4844 C1245.0313,121.4844 1246.1875,121.1875 1246.9375,120.6406 C1247.5156,120.2344 1247.8438,119.7813 1247.8438,119.3906 C1247.8438,118.9375 1247.4531,118.5469 1246.9844,118.5469 C1246.7656,118.5469 1246.5625,118.625 1246.375,118.8125 C1245.9219,119.2969 1245.9219,119.2969 1245.7344,119.3906 C1245.3125,119.6563 1244.625,119.7813 1243.8594,119.7813 C1241.8125,119.7813 1240.5156,118.6875 1240.5156,116.9844 L1240.5156,115.8906 C1240.5156,114.1094 1241.7656,112.7969 1243.5,112.7969 C1244.0781,112.7969 1244.6875,112.9531 1245.1563,113.2031 C1245.6406,113.4844 1245.8125,113.7031 1245.9063,114.1094 C1245.9688,114.5156 1246,114.6406 1246.1406,114.7656 C1246.2813,114.9063 1246.5156,115.0156 1246.7344,115.0156 C1247,115.0156 1247.2656,114.875 1247.4375,114.6563 C1247.5469,114.5 1247.5781,114.3125 1247.5781,113.8906 L1247.5781,112.4688 C1247.5781,112.0313 1247.5625,111.9063 1247.4688,111.75 C1247.3125,111.4844 1247.0313,111.3438 1246.7344,111.3438 C1246.4375,111.3438 1246.2344,111.4375 1246.0156,111.75 L1245.8438,111.6719 Z " fill="#000000"/><text fill="#000000" font-family="sans-serif" font-size="14" font-weight="bold" lengthAdjust="spacing" textLength="38" x="1257.5" y="120.8467">Field</text><line style="stroke:#181818;stroke-width:0.5;" x1="1229.5" x2="1297.5" y1="132" y2="132"/><line style="stroke:#181818;stroke-width:0.5;" x1="1229.5" x2="1297.5" y1="140" y2="140"/></g><!--MD5=[6a7cd17fb173517a6d30481f5b45a6c3]
class GridCell--><g id="elem_GridCell"><rect fill="#F1F1F1" height="48" id="GridCell" rx="2.5" ry="2.5" style="stroke:#181818;stroke-width:0.5;" width="95" x="1216" y="183"/><ellipse cx="1231" cy="199" fill="#ADD1B2" rx="11" ry="11" style="stroke:#181818;stroke-width:1.0;"/><path d="M1233.3438,194.6719 C1232.4063,194.2344 1231.8125,194.0938 1230.9375,194.0938 C1228.3125,194.0938 1226.3125,196.1719 1226.3125,198.8906 L1226.3125,200.0156 C1226.3125,202.5938 1228.4219,204.4844 1231.3125,204.4844 C1232.5313,204.4844 1233.6875,204.1875 1234.4375,203.6406 C1235.0156,203.2344 1235.3438,202.7813 1235.3438,202.3906 C1235.3438,201.9375 1234.9531,201.5469 1234.4844,201.5469 C1234.2656,201.5469 1234.0625,201.625 1233.875,201.8125 C1233.4219,202.2969 1233.4219,202.2969 1233.2344,202.3906 C1232.8125,202.6563 1232.125,202.7813 1231.3594,202.7813 C1229.3125,202.7813 1228.0156,201.6875 1228.0156,199.9844 L1228.0156,198.8906 C1228.0156,197.1094 1229.2656,195.7969 1231,195.7969 C1231.5781,195.7969 1232.1875,195.9531 1232.6563,196.2031 C1233.1406,196.4844 1233.3125,196.7031 1233.4063,197.1094 C1233.4688,197.5156 1233.5,197.6406 1233.6406,197.7656 C1233.7813,197.9063 1234.0156,198.0156 1234.2344,198.0156 C1234.5,198.0156 1234.7656,197.875 1234.9375,197.6563 C1235.0469,197.5 1235.0781,197.3125 1235.0781,196.8906 L1235.0781,195.4688 C1235.0781,195.0313 1235.0625,194.9063 1234.9688,194.75 C1234.8125,194.4844 1234.5313,194.3438 1234.2344,194.3438 C1233.9375,194.3438 1233.7344,194.4375 1233.5156,194.75 L1233.3438,194.6719 Z " fill="#000000"/><text fill="#000000" font-family="sans-serif" font-size="14" font-weight="bold" lengthAdjust="spacing" textLength="63" x="1245" y="203.8467">GridCell</text><line style="stroke:#181818;stroke-width:0.5;" x1="1217" x2="1310" y1="215" y2="215"/><line style="stroke:#181818;stroke-width:0.5;" x1="1217" x2="1310" y1="223" y2="223"/></g><!--MD5=[d981429fc21c9906362c9a6820f4ae3f]
class GridCellCacheKey--><g id="elem_GridCellCacheKey"><rect fill="#F1F1F1" height="48" id="GridCellCacheKey" rx="2.5" ry="2.5" style="stroke:#181818;stroke-width:0.5;" width="171" x="1178" y="266"/><ellipse cx="1193" cy="282" fill="#ADD1B2" rx="11" ry="11" style="stroke:#181818;stroke-width:1.0;"/><path d="M1195.3438,277.6719 C1194.4063,277.2344 1193.8125,277.0938 1192.9375,277.0938 C1190.3125,277.0938 1188.3125,279.1719 1188.3125,281.8906 L1188.3125,283.0156 C1188.3125,285.5938 1190.4219,287.4844 1193.3125,287.4844 C1194.5313,287.4844 1195.6875,287.1875 1196.4375,286.6406 C1197.0156,286.2344 1197.3438,285.7813 1197.3438,285.3906 C1197.3438,284.9375 1196.9531,284.5469 1196.4844,284.5469 C1196.2656,284.5469 1196.0625,284.625 1195.875,284.8125 C1195.4219,285.2969 1195.4219,285.2969 1195.2344,285.3906 C1194.8125,285.6563 1194.125,285.7813 1193.3594,285.7813 C1191.3125,285.7813 1190.0156,284.6875 1190.0156,282.9844 L1190.0156,281.8906 C1190.0156,280.1094 1191.2656,278.7969 1193,278.7969 C1193.5781,278.7969 1194.1875,278.9531 1194.6563,279.2031 C1195.1406,279.4844 1195.3125,279.7031 1195.4063,280.1094 C1195.4688,280.5156 1195.5,280.6406 1195.6406,280.7656 C1195.7813,280.9063 1196.0156,281.0156 1196.2344,281.0156 C1196.5,281.0156 1196.7656,280.875 1196.9375,280.6563 C1197.0469,280.5 1197.0781,280.3125 1197.0781,279.8906 L1197.0781,278.4688 C1197.0781,278.0313 1197.0625,277.9063 1196.9688,277.75 C1196.8125,277.4844 1196.5313,277.3438 1196.2344,277.3438 C1195.9375,277.3438 1195.7344,277.4375 1195.5156,277.75 L1195.3438,277.6719 Z " fill="#000000"/><text fill="#000000" font-family="sans-serif" font-size="14" font-weight="bold" lengthAdjust="spacing" textLength="139" x="1207" y="286.8467">GridCellCacheKey</text><line style="stroke:#181818;stroke-width:0.5;" x1="1179" x2="1348" y1="298" y2="298"/><line style="stroke:#181818;stroke-width:0.5;" x1="1179" x2="1348" y1="306" y2="306"/></g><!--MD5=[45e1835169168e1d6b02cbe70904a44a]
class GridBlockListener--><g id="elem_GridBlockListener"><rect fill="#F1F1F1" height="48" id="GridBlockListener" rx="2.5" ry="2.5" style="stroke:#181818;stroke-width:0.5;" width="176" x="497.5" y="256"/><ellipse cx="512.5" cy="272" fill="#ADD1B2" rx="11" ry="11" style="stroke:#181818;stroke-width:1.0;"/><path d="M514.8438,267.6719 C513.9063,267.2344 513.3125,267.0938 512.4375,267.0938 C509.8125,267.0938 507.8125,269.1719 507.8125,271.8906 L507.8125,273.0156 C507.8125,275.5938 509.9219,277.4844 512.8125,277.4844 C514.0313,277.4844 515.1875,277.1875 515.9375,276.6406 C516.5156,276.2344 516.8438,275.7813 516.8438,275.3906 C516.8438,274.9375 516.4531,274.5469 515.9844,274.5469 C515.7656,274.5469 515.5625,274.625 515.375,274.8125 C514.9219,275.2969 514.9219,275.2969 514.7344,275.3906 C514.3125,275.6563 513.625,275.7813 512.8594,275.7813 C510.8125,275.7813 509.5156,274.6875 509.5156,272.9844 L509.5156,271.8906 C509.5156,270.1094 510.7656,268.7969 512.5,268.7969 C513.0781,268.7969 513.6875,268.9531 514.1563,269.2031 C514.6406,269.4844 514.8125,269.7031 514.9063,270.1094 C514.9688,270.5156 515,270.6406 515.1406,270.7656 C515.2813,270.9063 515.5156,271.0156 515.7344,271.0156 C516,271.0156 516.2656,270.875 516.4375,270.6563 C516.5469,270.5 516.5781,270.3125 516.5781,269.8906 L516.5781,268.4688 C516.5781,268.0313 516.5625,267.9063 516.4688,267.75 C516.3125,267.4844 516.0313,267.3438 515.7344,267.3438 C515.4375,267.3438 515.2344,267.4375 515.0156,267.75 L514.8438,267.6719 Z " fill="#000000"/><text fill="#000000" font-family="sans-serif" font-size="14" font-weight="bold" lengthAdjust="spacing" textLength="144" x="526.5" y="276.8467">GridBlockListener</text><line style="stroke:#181818;stroke-width:0.5;" x1="498.5" x2="672.5" y1="288" y2="288"/><line style="stroke:#181818;stroke-width:0.5;" x1="498.5" x2="672.5" y1="296" y2="296"/></g><!--MD5=[2887c6bcc564fdd2c5a0529fb6ab4e1d]
class GridRowCacheFieldNotifierImpl--><g id="elem_GridRowCacheFieldNotifierImpl"><rect fill="#F1F1F1" height="48" id="GridRowCacheFieldNotifierImpl" rx="2.5" ry="2.5" style="stroke:#181818;stroke-width:0.5;" width="283" x="444" y="7"/><ellipse cx="459" cy="23" fill="#ADD1B2" rx="11" ry="11" style="stroke:#181818;stroke-width:1.0;"/><path d="M461.3438,18.6719 C460.4063,18.2344 459.8125,18.0938 458.9375,18.0938 C456.3125,18.0938 454.3125,20.1719 454.3125,22.8906 L454.3125,24.0156 C454.3125,26.5938 456.4219,28.4844 459.3125,28.4844 C460.5313,28.4844 461.6875,28.1875 462.4375,27.6406 C463.0156,27.2344 463.3438,26.7813 463.3438,26.3906 C463.3438,25.9375 462.9531,25.5469 462.4844,25.5469 C462.2656,25.5469 462.0625,25.625 461.875,25.8125 C461.4219,26.2969 461.4219,26.2969 461.2344,26.3906 C460.8125,26.6563 460.125,26.7813 459.3594,26.7813 C457.3125,26.7813 456.0156,25.6875 456.0156,23.9844 L456.0156,22.8906 C456.0156,21.1094 457.2656,19.7969 459,19.7969 C459.5781,19.7969 460.1875,19.9531 460.6563,20.2031 C461.1406,20.4844 461.3125,20.7031 461.4063,21.1094 C461.4688,21.5156 461.5,21.6406 461.6406,21.7656 C461.7813,21.9063 462.0156,22.0156 462.2344,22.0156 C462.5,22.0156 462.7656,21.875 462.9375,21.6563 C463.0469,21.5 463.0781,21.3125 463.0781,20.8906 L463.0781,19.4688 C463.0781,19.0313 463.0625,18.9063 462.9688,18.75 C462.8125,18.4844 462.5313,18.3438 462.2344,18.3438 C461.9375,18.3438 461.7344,18.4375 461.5156,18.75 L461.3438,18.6719 Z " fill="#000000"/><text fill="#000000" font-family="sans-serif" font-size="14" font-weight="bold" lengthAdjust="spacing" textLength="251" x="473" y="27.8467">GridRowCacheFieldNotifierImpl</text><line style="stroke:#181818;stroke-width:0.5;" x1="445" x2="726" y1="39" y2="39"/><line style="stroke:#181818;stroke-width:0.5;" x1="445" x2="726" y1="47" y2="47"/></g><!--MD5=[26ad188711e1fe1fd37d00e811ee044c]
link GridBloc to GridService--><g id="link_GridBloc_GridService"><path codeLine="12" d="M108.169,228.042 C138.155,239.537 176.721,254.323 209.219,266.781 " fill="none" id="GridBloc-to-GridService" style="stroke:#181818;stroke-width:1.0;"/><polygon fill="#181818" points="213.968,268.602,206.9965,261.6451,209.2994,266.812,204.1325,269.1149,213.968,268.602" style="stroke:#181818;stroke-width:1.0;"/></g><!--MD5=[b8f9533eb4d84044bf4f1bbda5b1a32a]
link GridBloc to GridFieldCache--><g id="link_GridBloc_GridFieldCache"><path codeLine="13" d="M108.169,187.205 C140.058,173.212 181.653,154.961 215.332,140.182 " fill="none" id="GridBloc-to-GridFieldCache" style="stroke:#181818;stroke-width:1.0;"/><polygon fill="#181818" points="220.241,138.028,210.3922,137.9831,215.6627,140.0379,213.608,145.3084,220.241,138.028" style="stroke:#181818;stroke-width:1.0;"/><text fill="#000000" font-family="sans-serif" font-size="13" lengthAdjust="spacing" textLength="27" x="139" y="158.0669">own</text></g><!--MD5=[08a8827e04da6aa4816edb718a28b8cc]
reverse link GridBloc to GridBlockCache--><g id="link_GridBloc_GridBlockCache"><path codeLine="14" d="M121.23,209 C144.802,209 171.894,209 196.707,209 " fill="none" id="GridBloc-backto-GridBlockCache" style="stroke:#181818;stroke-width:1.0;"/><polygon fill="#181818" points="108.169,209,114.169,213,120.169,209,114.169,205,108.169,209" style="stroke:#181818;stroke-width:1.0;"/><text fill="#000000" font-family="sans-serif" font-size="13" lengthAdjust="spacing" textLength="27" x="139" y="205.0669">own</text><text fill="#000000" font-family="sans-serif" font-size="13" lengthAdjust="spacing" textLength="8" x="115.8568" y="222.1309">1</text><text fill="#000000" font-family="sans-serif" font-size="13" lengthAdjust="spacing" textLength="7" x="182.0745" y="221.7644">*</text></g><!--MD5=[c911bca4790bd032cdc348b6c931580c]
link GridBlockCache to GridBlock--><g id="link_GridBlockCache_GridBlock"><path codeLine="16" d="M325.227,233.217 C335.263,238.739 345.631,244.813 355,251 C397.224,278.885 399.086,298.6944 444,322 C469.268,335.1113 499.328,344.599 525.146,351.1237 " fill="none" id="GridBlockCache-to-GridBlock" style="stroke:#181818;stroke-width:1.0;"/><polygon fill="#181818" points="530.251,352.3894,522.4793,346.3396,525.3982,351.1852,520.5526,354.1041,530.251,352.3894" style="stroke:#181818;stroke-width:1.0;"/></g><!--MD5=[710895079ad2b776afffbddd52dc1b13]
link GridFieldCache to GridFieldChangeset--><g id="link_GridFieldCache_GridFieldChangeset"><path codeLine="19" d="M352.223,114 C392.374,114 442.293,114 485.552,114 " fill="none" id="GridFieldCache-to-GridFieldChangeset" style="stroke:#181818;stroke-width:1.0;stroke-dasharray:7.0,7.0;"/><polygon fill="#181818" points="490.793,114,481.793,110,485.793,114,481.793,118,490.793,114" style="stroke:#181818;stroke-width:1.0;"/></g><!--MD5=[2f69c6def6ffad5637884ca34522ede4]
link GridBlockCache to GridRowCache--><g id="link_GridBlockCache_GridRowCache"><path codeLine="23" d="M355.391,205.941 C401.659,204.135 460.025,201.858 506.266,200.053 " fill="none" id="GridBlockCache-to-GridRowCache" style="stroke:#181818;stroke-width:1.0;"/><polygon fill="#181818" points="511.271,199.858,502.1224,196.2108,506.2748,200.0523,502.4332,204.2047,511.271,199.858" style="stroke:#181818;stroke-width:1.0;"/><text fill="#000000" font-family="sans-serif" font-size="13" lengthAdjust="spacing" textLength="27" x="386" y="200.0669">own</text></g><!--MD5=[3ce60e33c4e58079291620de744e15cd]
link GridRowCache to GridBlockChangeset--><g id="link_GridRowCache_GridBlockChangeset"><path codeLine="24" d="M659.538,217.098 C713.87,232.049 788.407,252.56 846.838,268.639 " fill="none" id="GridRowCache-to-GridBlockChangeset" style="stroke:#181818;stroke-width:1.0;"/><polygon fill="#181818" points="851.727,269.985,844.1118,263.7394,846.9064,268.6577,841.9881,271.4523,851.727,269.985" style="stroke:#181818;stroke-width:1.0;"/></g><!--MD5=[3aaa1c5f4e3b25319e224dd5fca3b1a5]
link GridRowCache to GridCellCache--><g id="link_GridRowCache_GridCellCache"><path codeLine="25" d="M659.538,199.072 C719.166,200.764 803.129,203.146 863.432,204.856 " fill="none" id="GridRowCache-to-GridCellCache" style="stroke:#181818;stroke-width:1.0;"/><polygon fill="#181818" points="868.461,204.999,859.5778,200.746,863.463,204.8575,859.3514,208.7428,868.461,204.999" style="stroke:#181818;stroke-width:1.0;"/><text fill="#000000" font-family="sans-serif" font-size="13" lengthAdjust="spacing" textLength="27" x="758" y="198.0669">own</text></g><!--MD5=[39481fd0d7939751d46b625704874686]
link GridRowCache to GridRowCacheFieldNotifier--><g id="link_GridRowCache_GridRowCacheFieldNotifier"><path codeLine="26" d="M659.782,181.017 C682.097,174.606 706.207,166.056 727,155 C749.585,142.991 793.969,94.998 816,82 C830.533,73.426 846.844,65.74 862.72,59.138 " fill="none" id="GridRowCache-to-GridRowCacheFieldNotifier" style="stroke:#181818;stroke-width:1.0;"/><polygon fill="#181818" points="867.63,57.124,857.7853,56.8372,863.0037,59.0208,860.8202,64.2392,867.63,57.124" style="stroke:#181818;stroke-width:1.0;"/></g><!--MD5=[a4e98cdd954acbc2b0e61daab0f93700]
reverse link GridRowCache to GridRow--><g id="link_GridRowCache_GridRow"><path codeLine="27" d="M672.407,179.209 C740.646,165.077 833.649,145.817 889.842,134.18 " fill="none" id="GridRowCache-backto-GridRow" style="stroke:#181818;stroke-width:1.0;"/><polygon fill="#181818" points="659.538,181.874,666.2247,184.5736,671.2885,179.4395,664.6017,176.7399,659.538,181.874" style="stroke:#181818;stroke-width:1.0;"/><text fill="#000000" font-family="sans-serif" font-size="13" lengthAdjust="spacing" textLength="8" x="667.5857" y="193.1613">1</text><text fill="#000000" font-family="sans-serif" font-size="13" lengthAdjust="spacing" textLength="7" x="874.961" y="148.8534">*</text></g><!--MD5=[c981f2609c88ae765c4eeeb46fb09e11]
link GridRow to Row--><g id="link_GridRow_Row"><path codeLine="28" d="M990.179,111.304 C1054.89,94.597 1167.21,65.601 1225.31,50.602 " fill="none" id="GridRow-to-Row" style="stroke:#181818;stroke-width:1.0;"/><polygon fill="#181818" points="1230.42,49.283,1220.7081,47.6465,1225.577,50.5263,1222.6973,55.3952,1230.42,49.283" style="stroke:#181818;stroke-width:1.0;"/><text fill="#000000" font-family="sans-serif" font-size="13" lengthAdjust="spacing" textLength="52" x="1095" y="69.0669">raw row</text></g><!--MD5=[a91afbfaf1a553ecc078e478d1edce58]
reverse link GridRow to Field--><g id="link_GridRow_Field"><path codeLine="29" d="M1003.484,124 C1070.55,124 1174.64,124 1228.15,124 " fill="none" id="GridRow-backto-Field" style="stroke:#181818;stroke-width:1.0;"/><polygon fill="none" points="990.179,124,996.179,128,1002.179,124,996.179,120,990.179,124" style="stroke:#181818;stroke-width:1.0;"/><text fill="#000000" font-family="sans-serif" font-size="13" lengthAdjust="spacing" textLength="8" x="998.1365" y="137.1782">1</text><text fill="#000000" font-family="sans-serif" font-size="13" lengthAdjust="spacing" textLength="7" x="1213.5014" y="137.5565">*</text></g><!--MD5=[e688f4906bd6ca1580c7ce3f0961282b]
reverse link GridCellCache to GridCell--><g id="link_GridCellCache_GridCell"><path codeLine="33" d="M1024.64,207 C1085.62,207 1165.99,207 1215.94,207 " fill="none" id="GridCellCache-backto-GridCell" style="stroke:#181818;stroke-width:1.0;"/><polygon fill="#181818" points="1011.55,207,1017.55,211,1023.55,207,1017.55,203,1011.55,207" style="stroke:#181818;stroke-width:1.0;"/><text fill="#000000" font-family="sans-serif" font-size="13" lengthAdjust="spacing" textLength="8" x="1019.3411" y="219.8472">1</text><text fill="#000000" font-family="sans-serif" font-size="13" lengthAdjust="spacing" textLength="7" x="1201.1214" y="220.2255">*</text></g><!--MD5=[64c56a848a39ad04666b38c3aeeda0c4]
link GridCellCache to GridCellCacheKey--><g id="link_GridCellCache_GridCellCacheKey"><path codeLine="34" d="M1011.55,225.215 C1059.01,237.465 1121.96,253.718 1172.95,266.88 " fill="none" id="GridCellCache-to-GridCellCacheKey" style="stroke:#181818;stroke-width:1.0;"/><polygon fill="#181818" points="1177.84,268.144,1170.1342,262.0104,1173.0005,266.8874,1168.1236,269.7536,1177.84,268.144" style="stroke:#181818;stroke-width:1.0;"/></g><!--MD5=[bb70973dc9825fac6208941936eaac0f]
link GridBlockCache to GridBlockListener--><g id="link_GridBlockCache_GridBlockListener"><path codeLine="37" d="M355.391,227.1 C397.111,236.733 448.666,248.637 492.3,258.712 " fill="none" id="GridBlockCache-to-GridBlockListener" style="stroke:#181818;stroke-width:1.0;"/><polygon fill="#181818" points="497.309,259.868,489.4407,253.9443,492.4374,258.7422,487.6395,261.7389,497.309,259.868" style="stroke:#181818;stroke-width:1.0;"/></g><!--MD5=[a2c5a4aec7713094c8b851b4a04da792]
reverse link GridBlockListener to GridBlockChangeset--><g id="link_GridBlockListener_GridBlockChangeset"><path codeLine="38" d="M686.801,283.984 C735.603,285.922 794.012,288.2416 842.325,290.1604 " fill="none" id="GridBlockListener-backto-GridBlockChangeset" style="stroke:#181818;stroke-width:1.0;"/><polygon fill="#181818" points="673.635,283.461,679.4716,287.6959,685.6256,283.937,679.789,279.7022,673.635,283.461" style="stroke:#181818;stroke-width:1.0;"/><text fill="#000000" font-family="sans-serif" font-size="13" lengthAdjust="spacing" textLength="8" x="681.5529" y="296.4756">1</text><text fill="#000000" font-family="sans-serif" font-size="13" lengthAdjust="spacing" textLength="7" x="827.5788" y="302.5126">*</text></g><!--MD5=[85831118c73c5cf7daad5212dd0055fa]
reverse link GridFieldCache to GridRowCacheFieldNotifierImpl--><g id="link_GridFieldCache_GridRowCacheFieldNotifierImpl"><path codeLine="40" d="M357.089,92.383 C399.561,80.918 451.854,66.804 495.582,55.001 " fill="none" id="GridFieldCache-backto-GridRowCacheFieldNotifierImpl" style="stroke:#181818;stroke-width:1.0;"/><polygon fill="#181818" points="352.223,93.696,361.9544,95.2126,357.0503,92.3931,359.8698,87.489,352.223,93.696" style="stroke:#181818;stroke-width:1.0;"/></g><!--MD5=[42d53c9c633e372b77c9f65821ab166d]
link GridRowCacheFieldNotifierImpl to GridRowCacheFieldNotifier--><g id="link_GridRowCacheFieldNotifierImpl_GridRowCacheFieldNotifier"><path codeLine="41" d="M727.084,31.798 C749.675,31.926 773.083,32.059 795.737,32.187 " fill="none" id="GridRowCacheFieldNotifierImpl-to-GridRowCacheFieldNotifier" style="stroke:#181818;stroke-width:1.0;"/><polygon fill="none" points="795.886,25.188,815.846,32.301,795.806,39.188,795.886,25.188" style="stroke:#181818;stroke-width:1.0;"/></g><!--MD5=[db435c89ddac89667aeb40c4ec642446]
@startuml
skinparam classFontStyle Bold
skinparam ActivityBackgroundColor Silver
skinparam ActivityBorderColor DimGray
left to right direction

interface GridRowCacheFieldNotifier
class GridFieldCache #B6FADC
class GridBlockCache #B6FADC
class GridRowCache #B6FADC
class GridCellCache #B6FADC

GridBloc - -> GridService
GridBloc - -> GridFieldCache: own
GridBloc "1" *- - "*" GridBlockCache: own

GridBlockCache - -> GridBlock

'FieldCache
GridFieldCache ..> GridFieldChangeset


'Row Cache
GridBlockCache - -> GridRowCache : own
GridRowCache - -> GridBlockChangeset
GridRowCache - -> GridCellCache: own
GridRowCache - -> GridRowCacheFieldNotifier
GridRowCache "1" *- - "*" GridRow
GridRow - -> Row : raw row
GridRow "1" o- - "*" Field


'Cell Cache
GridCellCache "1" *- - "*" GridCell
GridCellCache - -> GridCellCacheKey

'Listener
GridBlockCache - -> GridBlockListener
GridBlockListener "1" *- - "*" GridBlockChangeset

GridRowCacheFieldNotifierImpl -u-> GridFieldCache
GridRowCacheFieldNotifierImpl - -|> GridRowCacheFieldNotifier
@enduml

@startuml
skinparam classFontStyle Bold
skinparam ActivityBackgroundColor Silver
skinparam ActivityBorderColor DimGray
left to right direction

interface GridRowCacheFieldNotifier
class GridFieldCache #B6FADC
class GridBlockCache #B6FADC
class GridRowCache #B6FADC
class GridCellCache #B6FADC

GridBloc - -> GridService
GridBloc - -> GridFieldCache: own
GridBloc "1" *- - "*" GridBlockCache: own

GridBlockCache - -> GridBlock

GridFieldCache ..> GridFieldChangeset


GridBlockCache - -> GridRowCache : own
GridRowCache - -> GridBlockChangeset
GridRowCache - -> GridCellCache: own
GridRowCache - -> GridRowCacheFieldNotifier
GridRowCache "1" *- - "*" GridRow
GridRow - -> Row : raw row
GridRow "1" o- - "*" Field


GridCellCache "1" *- - "*" GridCell
GridCellCache - -> GridCellCacheKey

GridBlockCache - -> GridBlockListener
GridBlockListener "1" *- - "*" GridBlockChangeset

GridRowCacheFieldNotifierImpl -u-> GridFieldCache
GridRowCacheFieldNotifierImpl - -|> GridRowCacheFieldNotifier
@enduml

PlantUML version 1.2022.7beta2(Unknown compile time)
(GPL source distribution)
Java Runtime: Java(TM) SE Runtime Environment
JVM: Java HotSpot(TM) 64-Bit Server VM
Default Encoding: UTF-8
Language: en
Country: US
--></g></svg>