<?xml version="1.0" encoding="UTF-8" standalone="no"?><svg xmlns="http://www.w3.org/2000/svg" xmlns:xlink="http://www.w3.org/1999/xlink" contentStyleType="text/css" height="394px" preserveAspectRatio="none" style="width:1267px;height:394px;background:#FFFFFF;" version="1.1" viewBox="0 0 1267 394" width="1267px" zoomAndPan="magnify"><defs/><g><!--MD5=[7b22775f9d8ef9d6dad88ce036ba117e]
class GridRowCacheFieldNotifier--><g id="elem_GridRowCacheFieldNotifier"><rect codeLine="6" fill="#F1F1F1" height="48" id="GridRowCacheFieldNotifier" rx="2.5" ry="2.5" style="stroke:#181818;stroke-width:0.5;" width="226" x="765" y="7"/><ellipse cx="780" cy="23" fill="#B4A7E5" rx="11" ry="11" style="stroke:#181818;stroke-width:1.0;"/><path d="M776.4277,19.2651 L776.4277,17.1069 L783.8071,17.1069 L783.8071,19.2651 L781.3418,19.2651 L781.3418,27.3418 L783.8071,27.3418 L783.8071,29.5 L776.4277,29.5 L776.4277,27.3418 L778.8931,27.3418 L778.8931,19.2651 Z " fill="#000000"/><text fill="#000000" font-family="sans-serif" font-size="14" font-style="italic" font-weight="bold" lengthAdjust="spacing" textLength="194" x="794" y="28.291">GridRowCacheFieldNotifier</text><line style="stroke:#181818;stroke-width:0.5;" x1="766" x2="990" y1="39" y2="39"/><line style="stroke:#181818;stroke-width:0.5;" x1="766" x2="990" y1="47" y2="47"/></g><!--MD5=[b7a30f0afc60c65c31521dee832aabc2]
class GridBloc--><g id="elem_GridBloc"><rect fill="#F1F1F1" height="48" id="GridBloc" rx="2.5" ry="2.5" style="stroke:#181818;stroke-width:0.5;" width="92" x="7" y="185"/><ellipse cx="22" cy="201" fill="#ADD1B2" rx="11" ry="11" style="stroke:#181818;stroke-width:1.0;"/><path d="M24.4731,207.1431 Q23.8921,207.4419 23.2529,207.5913 Q22.6138,207.7407 21.9082,207.7407 Q19.4014,207.7407 18.0815,206.0889 Q16.7617,204.437 16.7617,201.3159 Q16.7617,198.1865 18.0815,196.5347 Q19.4014,194.8828 21.9082,194.8828 Q22.6138,194.8828 23.2612,195.0322 Q23.9087,195.1816 24.4731,195.4805 L24.4731,198.2031 Q23.8423,197.6221 23.2488,197.3523 Q22.6553,197.0825 22.0244,197.0825 Q20.6797,197.0825 19.9949,198.1492 Q19.3101,199.2158 19.3101,201.3159 Q19.3101,203.4077 19.9949,204.4744 Q20.6797,205.541 22.0244,205.541 Q22.6553,205.541 23.2488,205.2712 Q23.8423,205.0015 24.4731,204.4204 Z " fill="#000000"/><text fill="#000000" font-family="sans-serif" font-size="14" font-weight="bold" lengthAdjust="spacing" textLength="60" x="36" y="206.291">GridBloc</text><line style="stroke:#181818;stroke-width:0.5;" x1="8" x2="98" y1="217" y2="217"/><line style="stroke:#181818;stroke-width:0.5;" x1="8" x2="98" y1="225" y2="225"/></g><!--MD5=[d111723436ca97b090550f2d110a9482]
class GridService--><g id="elem_GridService"><rect fill="#F1F1F1" height="48" id="GridService" rx="2.5" ry="2.5" style="stroke:#181818;stroke-width:0.5;" width="112" x="202.5" y="268"/><ellipse cx="217.5" cy="284" fill="#ADD1B2" rx="11" ry="11" style="stroke:#181818;stroke-width:1.0;"/><path d="M219.9731,290.1431 Q219.3921,290.4419 218.7529,290.5913 Q218.1138,290.7407 217.4082,290.7407 Q214.9014,290.7407 213.5815,289.0889 Q212.2617,287.437 212.2617,284.3159 Q212.2617,281.1865 213.5815,279.5347 Q214.9014,277.8828 217.4082,277.8828 Q218.1138,277.8828 218.7612,278.0322 Q219.4087,278.1816 219.9731,278.4805 L219.9731,281.2031 Q219.3423,280.6221 218.7488,280.3523 Q218.1553,280.0825 217.5244,280.0825 Q216.1797,280.0825 215.4949,281.1492 Q214.8101,282.2158 214.8101,284.3159 Q214.8101,286.4077 215.4949,287.4744 Q216.1797,288.541 217.5244,288.541 Q218.1553,288.541 218.7488,288.2712 Q219.3423,288.0015 219.9731,287.4204 Z " fill="#000000"/><text fill="#000000" font-family="sans-serif" font-size="14" font-weight="bold" lengthAdjust="spacing" textLength="80" x="231.5" y="289.291">GridService</text><line style="stroke:#181818;stroke-width:0.5;" x1="203.5" x2="313.5" y1="300" y2="300"/><line style="stroke:#181818;stroke-width:0.5;" x1="203.5" x2="313.5" y1="308" y2="308"/></g><!--MD5=[d4a0bb39caf38270ea4e8728db64fad5]
class GridFieldCache--><g id="elem_GridFieldCache"><rect fill="#F1F1F1" height="48" id="GridFieldCache" rx="2.5" ry="2.5" style="stroke:#181818;stroke-width:0.5;" width="139" x="189" y="90"/><ellipse cx="204" cy="106" fill="#ADD1B2" rx="11" ry="11" style="stroke:#181818;stroke-width:1.0;"/><path d="M206.4731,112.1431 Q205.8921,112.4419 205.2529,112.5913 Q204.6138,112.7407 203.9082,112.7407 Q201.4014,112.7407 200.0815,111.0889 Q198.7617,109.437 198.7617,106.3159 Q198.7617,103.1865 200.0815,101.5347 Q201.4014,99.8828 203.9082,99.8828 Q204.6138,99.8828 205.2612,100.0322 Q205.9087,100.1816 206.4731,100.4805 L206.4731,103.2031 Q205.8423,102.6221 205.2488,102.3523 Q204.6553,102.0825 204.0244,102.0825 Q202.6797,102.0825 201.9949,103.1492 Q201.3101,104.2158 201.3101,106.3159 Q201.3101,108.4077 201.9949,109.4744 Q202.6797,110.541 204.0244,110.541 Q204.6553,110.541 205.2488,110.2712 Q205.8423,110.0015 206.4731,109.4204 Z " fill="#000000"/><text fill="#000000" font-family="sans-serif" font-size="14" font-weight="bold" lengthAdjust="spacing" textLength="107" x="218" y="111.291">GridFieldCache</text><line style="stroke:#181818;stroke-width:0.5;" x1="190" x2="327" y1="122" y2="122"/><line style="stroke:#181818;stroke-width:0.5;" x1="190" x2="327" y1="130" y2="130"/></g><!--MD5=[9cd5ce507e9dfa400c11500c2bd98eb9]
class GridBlockCache--><g id="elem_GridBlockCache"><rect fill="#F1F1F1" height="48" id="GridBlockCache" rx="2.5" ry="2.5" style="stroke:#181818;stroke-width:0.5;" width="143" x="187" y="185"/><ellipse cx="202" cy="201" fill="#ADD1B2" rx="11" ry="11" style="stroke:#181818;stroke-width:1.0;"/><path d="M204.4731,207.1431 Q203.8921,207.4419 203.2529,207.5913 Q202.6138,207.7407 201.9082,207.7407 Q199.4014,207.7407 198.0815,206.0889 Q196.7617,204.437 196.7617,201.3159 Q196.7617,198.1865 198.0815,196.5347 Q199.4014,194.8828 201.9082,194.8828 Q202.6138,194.8828 203.2612,195.0322 Q203.9087,195.1816 204.4731,195.4805 L204.4731,198.2031 Q203.8423,197.6221 203.2488,197.3523 Q202.6553,197.0825 202.0244,197.0825 Q200.6797,197.0825 199.9949,198.1492 Q199.3101,199.2158 199.3101,201.3159 Q199.3101,203.4077 199.9949,204.4744 Q200.6797,205.541 202.0244,205.541 Q202.6553,205.541 203.2488,205.2712 Q203.8423,205.0015 204.4731,204.4204 Z " fill="#000000"/><text fill="#000000" font-family="sans-serif" font-size="14" font-weight="bold" lengthAdjust="spacing" textLength="111" x="216" y="206.291">GridBlockCache</text><line style="stroke:#181818;stroke-width:0.5;" x1="188" x2="329" y1="217" y2="217"/><line style="stroke:#181818;stroke-width:0.5;" x1="188" x2="329" y1="225" y2="225"/></g><!--MD5=[8f6ea1f45229dc5690b4d4eeeed7e9b2]
class GridBlock--><g id="elem_GridBlock"><rect fill="#F1F1F1" height="48" id="GridBlock" rx="2.5" ry="2.5" style="stroke:#181818;stroke-width:0.5;" width="101" x="497" y="339"/><ellipse cx="512" cy="355" fill="#ADD1B2" rx="11" ry="11" style="stroke:#181818;stroke-width:1.0;"/><path d="M514.4731,361.1431 Q513.8921,361.4419 513.2529,361.5913 Q512.6138,361.7407 511.9082,361.7407 Q509.4014,361.7407 508.0815,360.0889 Q506.7617,358.437 506.7617,355.3159 Q506.7617,352.1865 508.0815,350.5347 Q509.4014,348.8828 511.9082,348.8828 Q512.6138,348.8828 513.2612,349.0322 Q513.9087,349.1816 514.4731,349.4805 L514.4731,352.2031 Q513.8423,351.6221 513.2488,351.3523 Q512.6553,351.0825 512.0244,351.0825 Q510.6797,351.0825 509.9949,352.1492 Q509.3101,353.2158 509.3101,355.3159 Q509.3101,357.4077 509.9949,358.4744 Q510.6797,359.541 512.0244,359.541 Q512.6553,359.541 513.2488,359.2712 Q513.8423,359.0015 514.4731,358.4204 Z " fill="#000000"/><text fill="#000000" font-family="sans-serif" font-size="14" font-weight="bold" lengthAdjust="spacing" textLength="69" x="526" y="360.291">GridBlock</text><line style="stroke:#181818;stroke-width:0.5;" x1="498" x2="597" y1="371" y2="371"/><line style="stroke:#181818;stroke-width:0.5;" x1="498" x2="597" y1="379" y2="379"/></g><!--MD5=[d1b4bba65e98f94f6dd31e1f6d1d67a7]
class GridFieldChangeset--><g id="elem_GridFieldChangeset"><rect fill="#F1F1F1" height="48" id="GridFieldChangeset" rx="2.5" ry="2.5" style="stroke:#181818;stroke-width:0.5;" width="172" x="461.5" y="90"/><ellipse cx="476.5" cy="106" fill="#ADD1B2" rx="11" ry="11" style="stroke:#181818;stroke-width:1.0;"/><path d="M478.9731,112.1431 Q478.3921,112.4419 477.7529,112.5913 Q477.1138,112.7407 476.4082,112.7407 Q473.9014,112.7407 472.5815,111.0889 Q471.2617,109.437 471.2617,106.3159 Q471.2617,103.1865 472.5815,101.5347 Q473.9014,99.8828 476.4082,99.8828 Q477.1138,99.8828 477.7612,100.0322 Q478.4087,100.1816 478.9731,100.4805 L478.9731,103.2031 Q478.3423,102.6221 477.7488,102.3523 Q477.1553,102.0825 476.5244,102.0825 Q475.1797,102.0825 474.4949,103.1492 Q473.8101,104.2158 473.8101,106.3159 Q473.8101,108.4077 474.4949,109.4744 Q475.1797,110.541 476.5244,110.541 Q477.1553,110.541 477.7488,110.2712 Q478.3423,110.0015 478.9731,109.4204 Z " fill="#000000"/><text fill="#000000" font-family="sans-serif" font-size="14" font-weight="bold" lengthAdjust="spacing" textLength="140" x="490.5" y="111.291">GridFieldChangeset</text><line style="stroke:#181818;stroke-width:0.5;" x1="462.5" x2="632.5" y1="122" y2="122"/><line style="stroke:#181818;stroke-width:0.5;" x1="462.5" x2="632.5" y1="130" y2="130"/></g><!--MD5=[c6748457c4a15219a60a81b35778ca8c]
class GridRowCache--><g id="elem_GridRowCache"><rect fill="#F1F1F1" height="48" id="GridRowCache" rx="2.5" ry="2.5" style="stroke:#181818;stroke-width:0.5;" width="135" x="480" y="173"/><ellipse cx="495" cy="189" fill="#ADD1B2" rx="11" ry="11" style="stroke:#181818;stroke-width:1.0;"/><path d="M497.4731,195.1431 Q496.8921,195.4419 496.2529,195.5913 Q495.6138,195.7407 494.9082,195.7407 Q492.4014,195.7407 491.0815,194.0889 Q489.7617,192.437 489.7617,189.3159 Q489.7617,186.1865 491.0815,184.5347 Q492.4014,182.8828 494.9082,182.8828 Q495.6138,182.8828 496.2612,183.0322 Q496.9087,183.1816 497.4731,183.4805 L497.4731,186.2031 Q496.8423,185.6221 496.2488,185.3523 Q495.6553,185.0825 495.0244,185.0825 Q493.6797,185.0825 492.9949,186.1492 Q492.3101,187.2158 492.3101,189.3159 Q492.3101,191.4077 492.9949,192.4744 Q493.6797,193.541 495.0244,193.541 Q495.6553,193.541 496.2488,193.2712 Q496.8423,193.0015 497.4731,192.4204 Z " fill="#000000"/><text fill="#000000" font-family="sans-serif" font-size="14" font-weight="bold" lengthAdjust="spacing" textLength="103" x="509" y="194.291">GridRowCache</text><line style="stroke:#181818;stroke-width:0.5;" x1="481" x2="614" y1="205" y2="205"/><line style="stroke:#181818;stroke-width:0.5;" x1="481" x2="614" y1="213" y2="213"/></g><!--MD5=[a58c78b84906a9bfa9a2b112be8b6ac4]
class GridBlockChangeset--><g id="elem_GridBlockChangeset"><rect fill="#F1F1F1" height="48" id="GridBlockChangeset" rx="2.5" ry="2.5" style="stroke:#181818;stroke-width:0.5;" width="176" x="790" y="256"/><ellipse cx="805" cy="272" fill="#ADD1B2" rx="11" ry="11" style="stroke:#181818;stroke-width:1.0;"/><path d="M807.4731,278.1431 Q806.8921,278.4419 806.2529,278.5913 Q805.6138,278.7407 804.9082,278.7407 Q802.4014,278.7407 801.0815,277.0889 Q799.7617,275.437 799.7617,272.3159 Q799.7617,269.1865 801.0815,267.5347 Q802.4014,265.8828 804.9082,265.8828 Q805.6138,265.8828 806.2612,266.0322 Q806.9087,266.1816 807.4731,266.4805 L807.4731,269.2031 Q806.8423,268.6221 806.2488,268.3523 Q805.6553,268.0825 805.0244,268.0825 Q803.6797,268.0825 802.9949,269.1492 Q802.3101,270.2158 802.3101,272.3159 Q802.3101,274.4077 802.9949,275.4744 Q803.6797,276.541 805.0244,276.541 Q805.6553,276.541 806.2488,276.2712 Q806.8423,276.0015 807.4731,275.4204 Z " fill="#000000"/><text fill="#000000" font-family="sans-serif" font-size="14" font-weight="bold" lengthAdjust="spacing" textLength="144" x="819" y="277.291">GridBlockChangeset</text><line style="stroke:#181818;stroke-width:0.5;" x1="791" x2="965" y1="288" y2="288"/><line style="stroke:#181818;stroke-width:0.5;" x1="791" x2="965" y1="296" y2="296"/></g><!--MD5=[64596bf797181233ea1f132a2228edec]
class GridCellCache--><g id="elem_GridCellCache"><rect fill="#F1F1F1" height="48" id="GridCellCache" rx="2.5" ry="2.5" style="stroke:#181818;stroke-width:0.5;" width="132" x="812" y="90"/><ellipse cx="827" cy="106" fill="#ADD1B2" rx="11" ry="11" style="stroke:#181818;stroke-width:1.0;"/><path d="M829.4731,112.1431 Q828.8921,112.4419 828.2529,112.5913 Q827.6138,112.7407 826.9082,112.7407 Q824.4014,112.7407 823.0815,111.0889 Q821.7617,109.437 821.7617,106.3159 Q821.7617,103.1865 823.0815,101.5347 Q824.4014,99.8828 826.9082,99.8828 Q827.6138,99.8828 828.2612,100.0322 Q828.9087,100.1816 829.4731,100.4805 L829.4731,103.2031 Q828.8423,102.6221 828.2488,102.3523 Q827.6553,102.0825 827.0244,102.0825 Q825.6797,102.0825 824.9949,103.1492 Q824.3101,104.2158 824.3101,106.3159 Q824.3101,108.4077 824.9949,109.4744 Q825.6797,110.541 827.0244,110.541 Q827.6553,110.541 828.2488,110.2712 Q828.8423,110.0015 829.4731,109.4204 Z " fill="#000000"/><text fill="#000000" font-family="sans-serif" font-size="14" font-weight="bold" lengthAdjust="spacing" textLength="100" x="841" y="111.291">GridCellCache</text><line style="stroke:#181818;stroke-width:0.5;" x1="813" x2="943" y1="122" y2="122"/><line style="stroke:#181818;stroke-width:0.5;" x1="813" x2="943" y1="130" y2="130"/></g><!--MD5=[6eb4938cd3c73606334505ca15f1a31e]
class GridRow--><g id="elem_GridRow"><rect fill="#F1F1F1" height="48" id="GridRow" rx="2.5" ry="2.5" style="stroke:#181818;stroke-width:0.5;" width="93" x="831.5" y="173"/><ellipse cx="846.5" cy="189" fill="#ADD1B2" rx="11" ry="11" style="stroke:#181818;stroke-width:1.0;"/><path d="M848.9731,195.1431 Q848.3921,195.4419 847.7529,195.5913 Q847.1138,195.7407 846.4082,195.7407 Q843.9014,195.7407 842.5815,194.0889 Q841.2617,192.437 841.2617,189.3159 Q841.2617,186.1865 842.5815,184.5347 Q843.9014,182.8828 846.4082,182.8828 Q847.1138,182.8828 847.7612,183.0322 Q848.4087,183.1816 848.9731,183.4805 L848.9731,186.2031 Q848.3423,185.6221 847.7488,185.3523 Q847.1553,185.0825 846.5244,185.0825 Q845.1797,185.0825 844.4949,186.1492 Q843.8101,187.2158 843.8101,189.3159 Q843.8101,191.4077 844.4949,192.4744 Q845.1797,193.541 846.5244,193.541 Q847.1553,193.541 847.7488,193.2712 Q848.3423,193.0015 848.9731,192.4204 Z " fill="#000000"/><text fill="#000000" font-family="sans-serif" font-size="14" font-weight="bold" lengthAdjust="spacing" textLength="61" x="860.5" y="194.291">GridRow</text><line style="stroke:#181818;stroke-width:0.5;" x1="832.5" x2="923.5" y1="205" y2="205"/><line style="stroke:#181818;stroke-width:0.5;" x1="832.5" x2="923.5" y1="213" y2="213"/></g><!--MD5=[05aedcff764caeeb5d443618a4d90de7]
class Row--><g id="elem_Row"><rect fill="#F1F1F1" height="48" id="Row" rx="2.5" ry="2.5" style="stroke:#181818;stroke-width:0.5;" width="63" x="1149.5" y="173"/><ellipse cx="1164.5" cy="189" fill="#ADD1B2" rx="11" ry="11" style="stroke:#181818;stroke-width:1.0;"/><path d="M1166.9731,195.1431 Q1166.3921,195.4419 1165.7529,195.5913 Q1165.1138,195.7407 1164.4082,195.7407 Q1161.9014,195.7407 1160.5815,194.0889 Q1159.2617,192.437 1159.2617,189.3159 Q1159.2617,186.1865 1160.5815,184.5347 Q1161.9014,182.8828 1164.4082,182.8828 Q1165.1138,182.8828 1165.7612,183.0322 Q1166.4087,183.1816 1166.9731,183.4805 L1166.9731,186.2031 Q1166.3423,185.6221 1165.7488,185.3523 Q1165.1553,185.0825 1164.5244,185.0825 Q1163.1797,185.0825 1162.4949,186.1492 Q1161.8101,187.2158 1161.8101,189.3159 Q1161.8101,191.4077 1162.4949,192.4744 Q1163.1797,193.541 1164.5244,193.541 Q1165.1553,193.541 1165.7488,193.2712 Q1166.3423,193.0015 1166.9731,192.4204 Z " fill="#000000"/><text fill="#000000" font-family="sans-serif" font-size="14" font-weight="bold" lengthAdjust="spacing" textLength="31" x="1178.5" y="194.291">Row</text><line style="stroke:#181818;stroke-width:0.5;" x1="1150.5" x2="1211.5" y1="205" y2="205"/><line style="stroke:#181818;stroke-width:0.5;" x1="1150.5" x2="1211.5" y1="213" y2="213"/></g><!--MD5=[d9427b671d7d049aff2d6f2fe36a13b3]
class Field--><g id="elem_Field"><rect fill="#F1F1F1" height="48" id="Field" rx="2.5" ry="2.5" style="stroke:#181818;stroke-width:0.5;" width="67" x="1147.5" y="256"/><ellipse cx="1162.5" cy="272" fill="#ADD1B2" rx="11" ry="11" style="stroke:#181818;stroke-width:1.0;"/><path d="M1164.9731,278.1431 Q1164.3921,278.4419 1163.7529,278.5913 Q1163.1138,278.7407 1162.4082,278.7407 Q1159.9014,278.7407 1158.5815,277.0889 Q1157.2617,275.437 1157.2617,272.3159 Q1157.2617,269.1865 1158.5815,267.5347 Q1159.9014,265.8828 1162.4082,265.8828 Q1163.1138,265.8828 1163.7612,266.0322 Q1164.4087,266.1816 1164.9731,266.4805 L1164.9731,269.2031 Q1164.3423,268.6221 1163.7488,268.3523 Q1163.1553,268.0825 1162.5244,268.0825 Q1161.1797,268.0825 1160.4949,269.1492 Q1159.8101,270.2158 1159.8101,272.3159 Q1159.8101,274.4077 1160.4949,275.4744 Q1161.1797,276.541 1162.5244,276.541 Q1163.1553,276.541 1163.7488,276.2712 Q1164.3423,276.0015 1164.9731,275.4204 Z " fill="#000000"/><text fill="#000000" font-family="sans-serif" font-size="14" font-weight="bold" lengthAdjust="spacing" textLength="35" x="1176.5" y="277.291">Field</text><line style="stroke:#181818;stroke-width:0.5;" x1="1148.5" x2="1213.5" y1="288" y2="288"/><line style="stroke:#181818;stroke-width:0.5;" x1="1148.5" x2="1213.5" y1="296" y2="296"/></g><!--MD5=[6a7cd17fb173517a6d30481f5b45a6c3]
class GridCell--><g id="elem_GridCell"><rect fill="#F1F1F1" height="48" id="GridCell" rx="2.5" ry="2.5" style="stroke:#181818;stroke-width:0.5;" width="90" x="1136" y="7"/><ellipse cx="1151" cy="23" fill="#ADD1B2" rx="11" ry="11" style="stroke:#181818;stroke-width:1.0;"/><path d="M1153.4731,29.1431 Q1152.8921,29.4419 1152.2529,29.5913 Q1151.6138,29.7407 1150.9082,29.7407 Q1148.4014,29.7407 1147.0815,28.0889 Q1145.7617,26.437 1145.7617,23.3159 Q1145.7617,20.1865 1147.0815,18.5347 Q1148.4014,16.8828 1150.9082,16.8828 Q1151.6138,16.8828 1152.2612,17.0322 Q1152.9087,17.1816 1153.4731,17.4805 L1153.4731,20.2031 Q1152.8423,19.6221 1152.2488,19.3523 Q1151.6553,19.0825 1151.0244,19.0825 Q1149.6797,19.0825 1148.9949,20.1492 Q1148.3101,21.2158 1148.3101,23.3159 Q1148.3101,25.4077 1148.9949,26.4744 Q1149.6797,27.541 1151.0244,27.541 Q1151.6553,27.541 1152.2488,27.2712 Q1152.8423,27.0015 1153.4731,26.4204 Z " fill="#000000"/><text fill="#000000" font-family="sans-serif" font-size="14" font-weight="bold" lengthAdjust="spacing" textLength="58" x="1165" y="28.291">GridCell</text><line style="stroke:#181818;stroke-width:0.5;" x1="1137" x2="1225" y1="39" y2="39"/><line style="stroke:#181818;stroke-width:0.5;" x1="1137" x2="1225" y1="47" y2="47"/></g><!--MD5=[d981429fc21c9906362c9a6820f4ae3f]
class GridCellCacheKey--><g id="elem_GridCellCacheKey"><rect fill="#F1F1F1" height="48" id="GridCellCacheKey" rx="2.5" ry="2.5" style="stroke:#181818;stroke-width:0.5;" width="158" x="1102" y="90"/><ellipse cx="1117" cy="106" fill="#ADD1B2" rx="11" ry="11" style="stroke:#181818;stroke-width:1.0;"/><path d="M1119.4731,112.1431 Q1118.8921,112.4419 1118.2529,112.5913 Q1117.6138,112.7407 1116.9082,112.7407 Q1114.4014,112.7407 1113.0815,111.0889 Q1111.7617,109.437 1111.7617,106.3159 Q1111.7617,103.1865 1113.0815,101.5347 Q1114.4014,99.8828 1116.9082,99.8828 Q1117.6138,99.8828 1118.2612,100.0322 Q1118.9087,100.1816 1119.4731,100.4805 L1119.4731,103.2031 Q1118.8423,102.6221 1118.2488,102.3523 Q1117.6553,102.0825 1117.0244,102.0825 Q1115.6797,102.0825 1114.9949,103.1492 Q1114.3101,104.2158 1114.3101,106.3159 Q1114.3101,108.4077 1114.9949,109.4744 Q1115.6797,110.541 1117.0244,110.541 Q1117.6553,110.541 1118.2488,110.2712 Q1118.8423,110.0015 1119.4731,109.4204 Z " fill="#000000"/><text fill="#000000" font-family="sans-serif" font-size="14" font-weight="bold" lengthAdjust="spacing" textLength="126" x="1131" y="111.291">GridCellCacheKey</text><line style="stroke:#181818;stroke-width:0.5;" x1="1103" x2="1259" y1="122" y2="122"/><line style="stroke:#181818;stroke-width:0.5;" x1="1103" x2="1259" y1="130" y2="130"/></g><!--MD5=[45e1835169168e1d6b02cbe70904a44a]
class GridBlockListener--><g id="elem_GridBlockListener"><rect fill="#F1F1F1" height="48" id="GridBlockListener" rx="2.5" ry="2.5" style="stroke:#181818;stroke-width:0.5;" width="159" x="468" y="256"/><ellipse cx="483" cy="272" fill="#ADD1B2" rx="11" ry="11" style="stroke:#181818;stroke-width:1.0;"/><path d="M485.4731,278.1431 Q484.8921,278.4419 484.2529,278.5913 Q483.6138,278.7407 482.9082,278.7407 Q480.4014,278.7407 479.0815,277.0889 Q477.7617,275.437 477.7617,272.3159 Q477.7617,269.1865 479.0815,267.5347 Q480.4014,265.8828 482.9082,265.8828 Q483.6138,265.8828 484.2612,266.0322 Q484.9087,266.1816 485.4731,266.4805 L485.4731,269.2031 Q484.8423,268.6221 484.2488,268.3523 Q483.6553,268.0825 483.0244,268.0825 Q481.6797,268.0825 480.9949,269.1492 Q480.3101,270.2158 480.3101,272.3159 Q480.3101,274.4077 480.9949,275.4744 Q481.6797,276.541 483.0244,276.541 Q483.6553,276.541 484.2488,276.2712 Q484.8423,276.0015 485.4731,275.4204 Z " fill="#000000"/><text fill="#000000" font-family="sans-serif" font-size="14" font-weight="bold" lengthAdjust="spacing" textLength="127" x="497" y="277.291">GridBlockListener</text><line style="stroke:#181818;stroke-width:0.5;" x1="469" x2="626" y1="288" y2="288"/><line style="stroke:#181818;stroke-width:0.5;" x1="469" x2="626" y1="296" y2="296"/></g><!--MD5=[2887c6bcc564fdd2c5a0529fb6ab4e1d]
class GridRowCacheFieldNotifierImpl--><g id="elem_GridRowCacheFieldNotifierImpl"><rect fill="#F1F1F1" height="48" id="GridRowCacheFieldNotifierImpl" rx="2.5" ry="2.5" style="stroke:#181818;stroke-width:0.5;" width="259" x="418" y="7"/><ellipse cx="433" cy="23" fill="#ADD1B2" rx="11" ry="11" style="stroke:#181818;stroke-width:1.0;"/><path d="M435.4731,29.1431 Q434.8921,29.4419 434.2529,29.5913 Q433.6138,29.7407 432.9082,29.7407 Q430.4014,29.7407 429.0815,28.0889 Q427.7617,26.437 427.7617,23.3159 Q427.7617,20.1865 429.0815,18.5347 Q430.4014,16.8828 432.9082,16.8828 Q433.6138,16.8828 434.2612,17.0322 Q434.9087,17.1816 435.4731,17.4805 L435.4731,20.2031 Q434.8423,19.6221 434.2488,19.3523 Q433.6553,19.0825 433.0244,19.0825 Q431.6797,19.0825 430.9949,20.1492 Q430.3101,21.2158 430.3101,23.3159 Q430.3101,25.4077 430.9949,26.4744 Q431.6797,27.541 433.0244,27.541 Q433.6553,27.541 434.2488,27.2712 Q434.8423,27.0015 435.4731,26.4204 Z " fill="#000000"/><text fill="#000000" font-family="sans-serif" font-size="14" font-weight="bold" lengthAdjust="spacing" textLength="227" x="447" y="28.291">GridRowCacheFieldNotifierImpl</text><line style="stroke:#181818;stroke-width:0.5;" x1="419" x2="676" y1="39" y2="39"/><line style="stroke:#181818;stroke-width:0.5;" x1="419" x2="676" y1="47" y2="47"/></g><!--MD5=[26ad188711e1fe1fd37d00e811ee044c]
link GridBloc to GridService--><g id="link_GridBloc_GridService"><path codeLine="8" d="M99.16,227.42 C128.06,239.21 165.89,254.64 197.32,267.46 " fill="none" id="GridBloc-to-GridService" style="stroke:#181818;stroke-width:1.0;"/><polygon fill="#181818" points="202.31,269.49,195.4844,262.39,197.6795,267.6035,192.466,269.7987,202.31,269.49" style="stroke:#181818;stroke-width:1.0;"/></g><!--MD5=[b8f9533eb4d84044bf4f1bbda5b1a32a]
link GridBloc to GridFieldCache--><g id="link_GridBloc_GridFieldCache"><path codeLine="9" d="M99.16,187.92 C129.3,173.85 169.14,155.25 201.32,140.23 " fill="none" id="GridBloc-to-GridFieldCache" style="stroke:#181818;stroke-width:1.0;"/><polygon fill="#181818" points="206.01,138.04,196.1628,138.2229,201.4794,140.1552,199.5472,145.4718,206.01,138.04" style="stroke:#181818;stroke-width:1.0;"/><text fill="#000000" font-family="sans-serif" font-size="13" lengthAdjust="spacing" textLength="26" x="130" y="158.5684">own</text></g><!--MD5=[08a8827e04da6aa4816edb718a28b8cc]
reverse link GridBloc to GridBlockCache--><g id="link_GridBloc_GridBlockCache"><path codeLine="10" d="M112.37,209 C135.6,209 162.55,209 186.88,209 " fill="none" id="GridBloc-backto-GridBlockCache" style="stroke:#181818;stroke-width:1.0;"/><polygon fill="#181818" points="99.16,209,105.16,213,111.16,209,105.16,205,99.16,209" style="stroke:#181818;stroke-width:1.0;"/><text fill="#000000" font-family="sans-serif" font-size="13" lengthAdjust="spacing" textLength="26" x="130" y="205.5684">own</text><text fill="#000000" font-family="sans-serif" font-size="13" lengthAdjust="spacing" textLength="8" x="107.1543" y="222.7884">1</text><text fill="#000000" font-family="sans-serif" font-size="13" lengthAdjust="spacing" textLength="6" x="173.1848" y="222.3578">*</text></g><!--MD5=[c911bca4790bd032cdc348b6c931580c]
link GridBlockCache to GridBlock--><g id="link_GridBlockCache_GridBlock"><path codeLine="12" d="M303.42,233.09 C312.38,238.41 321.62,244.19 330,250 C371.53,278.79 373.59,297.89 418,322 C440.96,334.46 468.31,343.85 491.87,350.48 " fill="none" id="GridBlockCache-to-GridBlock" style="stroke:#181818;stroke-width:1.0;"/><polygon fill="#181818" points="496.84,351.85,489.2284,345.5999,492.0202,350.5199,487.1002,353.3117,496.84,351.85" style="stroke:#181818;stroke-width:1.0;"/></g><!--MD5=[710895079ad2b776afffbddd52dc1b13]
link GridFieldCache to GridFieldChangeset--><g id="link_GridFieldCache_GridFieldChangeset"><path codeLine="15" d="M328.24,114 C366.65,114 414.96,114 456.37,114 " fill="none" id="GridFieldCache-to-GridFieldChangeset" style="stroke:#181818;stroke-width:1.0;stroke-dasharray:7.0,7.0;"/><polygon fill="#181818" points="461.38,114,452.38,110,456.38,114,452.38,118,461.38,114" style="stroke:#181818;stroke-width:1.0;"/></g><!--MD5=[2f69c6def6ffad5637884ca34522ede4]
link GridBlockCache to GridRowCache--><g id="link_GridBlockCache_GridRowCache"><path codeLine="19" d="M330.08,206.05 C374.02,204.21 430.4,201.85 474.6,200.01 " fill="none" id="GridBlockCache-to-GridRowCache" style="stroke:#181818;stroke-width:1.0;"/><polygon fill="#181818" points="479.65,199.8,470.4865,196.1902,474.6546,200.0147,470.8301,204.1828,479.65,199.8" style="stroke:#181818;stroke-width:1.0;"/><text fill="#000000" font-family="sans-serif" font-size="13" lengthAdjust="spacing" textLength="26" x="361" y="200.5684">own</text></g><!--MD5=[3ce60e33c4e58079291620de744e15cd]
link GridRowCache to GridBlockChangeset--><g id="link_GridRowCache_GridBlockChangeset"><path codeLine="20" d="M615.37,213.9 C664.17,226.23 730.91,243.09 784.77,256.7 " fill="none" id="GridRowCache-to-GridBlockChangeset" style="stroke:#181818;stroke-width:1.0;"/><polygon fill="#181818" points="789.94,258,782.1999,251.9097,785.0935,256.7705,780.2327,259.6641,789.94,258" style="stroke:#181818;stroke-width:1.0;"/></g><!--MD5=[3aaa1c5f4e3b25319e224dd5fca3b1a5]
link GridRowCache to GridCellCache--><g id="link_GridRowCache_GridCellCache"><path codeLine="21" d="M615.37,180.1 C671.1,166.02 750.22,146.03 806.84,131.73 " fill="none" id="GridRowCache-to-GridCellCache" style="stroke:#181818;stroke-width:1.0;"/><polygon fill="#181818" points="811.9,130.45,802.1927,128.7859,807.0535,131.6795,804.1599,136.5403,811.9,130.45" style="stroke:#181818;stroke-width:1.0;"/><text fill="#000000" font-family="sans-serif" font-size="13" lengthAdjust="spacing" textLength="26" x="708" y="147.5684">own</text></g><!--MD5=[39481fd0d7939751d46b625704874686]
link GridRowCache to GridRowCacheFieldNotifier--><g id="link_GridRowCache_GridRowCacheFieldNotifier"><path codeLine="22" d="M615.04,181.51 C635.76,175.07 658.1,166.38 677,155 C692.89,145.43 693.55,138.76 707,126 C732.55,101.76 734.98,90.42 765,72 C774.03,66.46 783.92,61.5 793.98,57.1 " fill="none" id="GridRowCache-to-GridRowCacheFieldNotifier" style="stroke:#181818;stroke-width:1.0;"/><polygon fill="#181818" points="798.6,55.12,788.752,54.9887,794.0043,57.0896,791.9034,62.3419,798.6,55.12" style="stroke:#181818;stroke-width:1.0;"/></g><!--MD5=[a4e98cdd954acbc2b0e61daab0f93700]
reverse link GridRowCache to GridRow--><g id="link_GridRowCache_GridRow"><path codeLine="23" d="M628.58,197 C692.23,197 778.99,197 831.33,197 " fill="none" id="GridRowCache-backto-GridRow" style="stroke:#181818;stroke-width:1.0;"/><polygon fill="#181818" points="615.37,197,621.37,201,627.37,197,621.37,193,615.37,197" style="stroke:#181818;stroke-width:1.0;"/><text fill="#000000" font-family="sans-serif" font-size="13" lengthAdjust="spacing" textLength="8" x="622.7816" y="210.3578">1</text><text fill="#000000" font-family="sans-serif" font-size="13" lengthAdjust="spacing" textLength="6" x="817.4138" y="210.7884">*</text></g><!--MD5=[c981f2609c88ae765c4eeeb46fb09e11]
link GridRow to Row--><g id="link_GridRow_Row"><path codeLine="24" d="M924.72,197 C984.94,197 1089.6,197 1144.33,197 " fill="none" id="GridRow-to-Row" style="stroke:#181818;stroke-width:1.0;"/><polygon fill="#181818" points="1149.47,197,1140.47,193,1144.47,197,1140.47,201,1149.47,197" style="stroke:#181818;stroke-width:1.0;"/><text fill="#000000" font-family="sans-serif" font-size="13" lengthAdjust="spacing" textLength="49" x="1022" y="193.5684">raw row</text></g><!--MD5=[a91afbfaf1a553ecc078e478d1edce58]
reverse link GridRow to Field--><g id="link_GridRow_Field"><path codeLine="25" d="M937.52,213.14 C1000.09,230.39 1097.09,257.14 1147.33,270.99 " fill="none" id="GridRow-backto-Field" style="stroke:#181818;stroke-width:1.0;"/><polygon fill="none" points="924.72,209.61,929.4398,215.0619,936.2877,212.802,931.5678,207.3501,924.72,209.61" style="stroke:#181818;stroke-width:1.0;"/><text fill="#000000" font-family="sans-serif" font-size="13" lengthAdjust="spacing" textLength="8" x="932.4865" y="225.2815">1</text><text fill="#000000" font-family="sans-serif" font-size="13" lengthAdjust="spacing" textLength="6" x="1133.3084" y="283.262">*</text></g><!--MD5=[e688f4906bd6ca1580c7ce3f0961282b]
reverse link GridCellCache to GridCell--><g id="link_GridCellCache_GridCell"><path codeLine="29" d="M956.88,92.52 C1013.75,76.84 1088.81,56.15 1135.74,43.2 " fill="none" id="GridCellCache-backto-GridCell" style="stroke:#181818;stroke-width:1.0;"/><polygon fill="#181818" points="944.31,95.99,951.1554,98.2572,955.8811,92.8103,949.0356,90.5431,944.31,95.99" style="stroke:#181818;stroke-width:1.0;"/><text fill="#000000" font-family="sans-serif" font-size="13" lengthAdjust="spacing" textLength="8" x="952.0002" y="107.4258">1</text><text fill="#000000" font-family="sans-serif" font-size="13" lengthAdjust="spacing" textLength="6" x="1122.0486" y="58.9328">*</text></g><!--MD5=[64c56a848a39ad04666b38c3aeeda0c4]
link GridCellCache to GridCellCacheKey--><g id="link_GridCellCache_GridCellCacheKey"><path codeLine="30" d="M944.31,114 C988.94,114 1048.46,114 1096.53,114 " fill="none" id="GridCellCache-to-GridCellCacheKey" style="stroke:#181818;stroke-width:1.0;"/><polygon fill="#181818" points="1101.73,114,1092.73,110,1096.73,114,1092.73,118,1101.73,114" style="stroke:#181818;stroke-width:1.0;"/></g><!--MD5=[bb70973dc9825fac6208941936eaac0f]
link GridBlockCache to GridBlockListener--><g id="link_GridBlockCache_GridBlockListener"><path codeLine="33" d="M330.08,226.46 C370.19,236.38 420.65,248.87 462.76,259.28 " fill="none" id="GridBlockCache-to-GridBlockListener" style="stroke:#181818;stroke-width:1.0;"/><polygon fill="#181818" points="467.85,260.54,460.0721,254.4981,462.9959,259.3408,458.1533,262.2646,467.85,260.54" style="stroke:#181818;stroke-width:1.0;"/></g><!--MD5=[a2c5a4aec7713094c8b851b4a04da792]
reverse link GridBlockListener to GridBlockChangeset--><g id="link_GridBlockListener_GridBlockChangeset"><path codeLine="34" d="M640.4,280 C687.14,280 743.65,280 789.71,280 " fill="none" id="GridBlockListener-backto-GridBlockChangeset" style="stroke:#181818;stroke-width:1.0;"/><polygon fill="#181818" points="627.18,280,633.18,284,639.18,280,633.18,276,627.18,280" style="stroke:#181818;stroke-width:1.0;"/><text fill="#000000" font-family="sans-serif" font-size="13" lengthAdjust="spacing" textLength="8" x="634.8942" y="293.2741">1</text><text fill="#000000" font-family="sans-serif" font-size="13" lengthAdjust="spacing" textLength="6" x="775.8648" y="293.2262">*</text></g><!--MD5=[85831118c73c5cf7daad5212dd0055fa]
reverse link GridFieldCache to GridRowCacheFieldNotifierImpl--><g id="link_GridFieldCache_GridRowCacheFieldNotifierImpl"><path codeLine="36" d="M333.05,92.73 C372.9,81.2 422.27,66.93 463.49,55.01 " fill="none" id="GridFieldCache-backto-GridRowCacheFieldNotifierImpl" style="stroke:#181818;stroke-width:1.0;"/><polygon fill="#181818" points="328.24,94.12,337.9963,95.4668,333.0438,92.7332,335.7774,87.7807,328.24,94.12" style="stroke:#181818;stroke-width:1.0;"/></g><!--MD5=[42d53c9c633e372b77c9f65821ab166d]
link GridRowCacheFieldNotifierImpl to GridRowCacheFieldNotifier--><g id="link_GridRowCacheFieldNotifierImpl_GridRowCacheFieldNotifier"><path codeLine="37" d="M677.39,31 C699.55,31 722.6,31 744.84,31 " fill="none" id="GridRowCacheFieldNotifierImpl-to-GridRowCacheFieldNotifier" style="stroke:#181818;stroke-width:1.0;"/><polygon fill="none" points="744.99,24,764.99,31,744.99,38,744.99,24" style="stroke:#181818;stroke-width:1.0;"/></g><!--MD5=[71ce6dd15617c8ef91edf7bffd6f5136]
@startuml block/row/cell relation
skinparam classFontStyle Bold
skinparam ActivityBackgroundColor Silver
skinparam ActivityBorderColor DimGray
left to right direction

interface GridRowCacheFieldNotifier

GridBloc - -> GridService
GridBloc - -> GridFieldCache: own
GridBloc "1" *- - "*" GridBlockCache: own

GridBlockCache - -> GridBlock

'FieldCache
GridFieldCache ..> GridFieldChangeset


'Row Cache
GridBlockCache - -> GridRowCache : own
GridRowCache - -> GridBlockChangeset
GridRowCache - -> GridCellCache: own
GridRowCache - -> GridRowCacheFieldNotifier
GridRowCache "1" *- - "*" GridRow
GridRow - -> Row : raw row
GridRow "1" o- - "*" Field


'Cell Cache
GridCellCache "1" *- - "*" GridCell
GridCellCache - -> GridCellCacheKey

'Listener
GridBlockCache - -> GridBlockListener
GridBlockListener "1" *- - "*" GridBlockChangeset

GridRowCacheFieldNotifierImpl -u-> GridFieldCache
GridRowCacheFieldNotifierImpl - -|> GridRowCacheFieldNotifier

@enduml

@startuml block/row/cell relation
skinparam classFontStyle Bold
skinparam ActivityBackgroundColor Silver
skinparam ActivityBorderColor DimGray
left to right direction

interface GridRowCacheFieldNotifier

GridBloc - -> GridService
GridBloc - -> GridFieldCache: own
GridBloc "1" *- - "*" GridBlockCache: own

GridBlockCache - -> GridBlock

GridFieldCache ..> GridFieldChangeset


GridBlockCache - -> GridRowCache : own
GridRowCache - -> GridBlockChangeset
GridRowCache - -> GridCellCache: own
GridRowCache - -> GridRowCacheFieldNotifier
GridRowCache "1" *- - "*" GridRow
GridRow - -> Row : raw row
GridRow "1" o- - "*" Field


GridCellCache "1" *- - "*" GridCell
GridCellCache - -> GridCellCacheKey

GridBlockCache - -> GridBlockListener
GridBlockListener "1" *- - "*" GridBlockChangeset

GridRowCacheFieldNotifierImpl -u-> GridFieldCache
GridRowCacheFieldNotifierImpl - -|> GridRowCacheFieldNotifier

@enduml

PlantUML version 1.2022.5(Sat Apr 30 18:55:52 CST 2022)
(GPL source distribution)
Java Runtime: OpenJDK Runtime Environment
JVM: OpenJDK 64-Bit Server VM
Default Encoding: UTF-8
Language: en
Country: US
--></g></svg>