<?xml version="1.0" encoding="UTF-8" standalone="no"?><svg xmlns="http://www.w3.org/2000/svg" xmlns:xlink="http://www.w3.org/1999/xlink" contentStyleType="text/css" height="311px" preserveAspectRatio="none" style="width:1199px;height:311px;background:#FFFFFF;" version="1.1" viewBox="0 0 1199 311" width="1199px" zoomAndPan="magnify"><defs/><g><!--MD5=[7b22775f9d8ef9d6dad88ce036ba117e]
class GridRowCacheFieldNotifier--><g id="elem_GridRowCacheFieldNotifier"><rect codeLine="6" fill="#F1F1F1" height="48" id="GridRowCacheFieldNotifier" rx="2.5" ry="2.5" style="stroke:#181818;stroke-width:0.5;" width="226" x="765" y="7"/><ellipse cx="780" cy="23" fill="#B4A7E5" rx="11" ry="11" style="stroke:#181818;stroke-width:1.0;"/><path d="M776.4277,19.2651 L776.4277,17.1069 L783.8071,17.1069 L783.8071,19.2651 L781.3418,19.2651 L781.3418,27.3418 L783.8071,27.3418 L783.8071,29.5 L776.4277,29.5 L776.4277,27.3418 L778.8931,27.3418 L778.8931,19.2651 Z " fill="#000000"/><text fill="#000000" font-family="sans-serif" font-size="14" font-style="italic" font-weight="bold" lengthAdjust="spacing" textLength="194" x="794" y="28.291">GridRowCacheFieldNotifier</text><line style="stroke:#181818;stroke-width:0.5;" x1="766" x2="990" y1="39" y2="39"/><line style="stroke:#181818;stroke-width:0.5;" x1="766" x2="990" y1="47" y2="47"/></g><!--MD5=[b7a30f0afc60c65c31521dee832aabc2]
class GridBloc--><g id="elem_GridBloc"><rect fill="#F1F1F1" height="48" id="GridBloc" rx="2.5" ry="2.5" style="stroke:#181818;stroke-width:0.5;" width="92" x="7" y="90"/><ellipse cx="22" cy="106" fill="#ADD1B2" rx="11" ry="11" style="stroke:#181818;stroke-width:1.0;"/><path d="M24.4731,112.1431 Q23.8921,112.4419 23.2529,112.5913 Q22.6138,112.7407 21.9082,112.7407 Q19.4014,112.7407 18.0815,111.0889 Q16.7617,109.437 16.7617,106.3159 Q16.7617,103.1865 18.0815,101.5347 Q19.4014,99.8828 21.9082,99.8828 Q22.6138,99.8828 23.2612,100.0322 Q23.9087,100.1816 24.4731,100.4805 L24.4731,103.2031 Q23.8423,102.6221 23.2488,102.3523 Q22.6553,102.0825 22.0244,102.0825 Q20.6797,102.0825 19.9949,103.1492 Q19.3101,104.2158 19.3101,106.3159 Q19.3101,108.4077 19.9949,109.4744 Q20.6797,110.541 22.0244,110.541 Q22.6553,110.541 23.2488,110.2712 Q23.8423,110.0015 24.4731,109.4204 Z " fill="#000000"/><text fill="#000000" font-family="sans-serif" font-size="14" font-weight="bold" lengthAdjust="spacing" textLength="60" x="36" y="111.291">GridBloc</text><line style="stroke:#181818;stroke-width:0.5;" x1="8" x2="98" y1="122" y2="122"/><line style="stroke:#181818;stroke-width:0.5;" x1="8" x2="98" y1="130" y2="130"/></g><!--MD5=[d111723436ca97b090550f2d110a9482]
class GridService--><g id="elem_GridService"><rect fill="#F1F1F1" height="48" id="GridService" rx="2.5" ry="2.5" style="stroke:#181818;stroke-width:0.5;" width="112" x="202.5" y="90"/><ellipse cx="217.5" cy="106" fill="#ADD1B2" rx="11" ry="11" style="stroke:#181818;stroke-width:1.0;"/><path d="M219.9731,112.1431 Q219.3921,112.4419 218.7529,112.5913 Q218.1138,112.7407 217.4082,112.7407 Q214.9014,112.7407 213.5815,111.0889 Q212.2617,109.437 212.2617,106.3159 Q212.2617,103.1865 213.5815,101.5347 Q214.9014,99.8828 217.4082,99.8828 Q218.1138,99.8828 218.7612,100.0322 Q219.4087,100.1816 219.9731,100.4805 L219.9731,103.2031 Q219.3423,102.6221 218.7488,102.3523 Q218.1553,102.0825 217.5244,102.0825 Q216.1797,102.0825 215.4949,103.1492 Q214.8101,104.2158 214.8101,106.3159 Q214.8101,108.4077 215.4949,109.4744 Q216.1797,110.541 217.5244,110.541 Q218.1553,110.541 218.7488,110.2712 Q219.3423,110.0015 219.9731,109.4204 Z " fill="#000000"/><text fill="#000000" font-family="sans-serif" font-size="14" font-weight="bold" lengthAdjust="spacing" textLength="80" x="231.5" y="111.291">GridService</text><line style="stroke:#181818;stroke-width:0.5;" x1="203.5" x2="313.5" y1="122" y2="122"/><line style="stroke:#181818;stroke-width:0.5;" x1="203.5" x2="313.5" y1="130" y2="130"/></g><!--MD5=[d4a0bb39caf38270ea4e8728db64fad5]
class GridFieldCache--><g id="elem_GridFieldCache"><rect fill="#F1F1F1" height="48" id="GridFieldCache" rx="2.5" ry="2.5" style="stroke:#181818;stroke-width:0.5;" width="139" x="189" y="7"/><ellipse cx="204" cy="23" fill="#ADD1B2" rx="11" ry="11" style="stroke:#181818;stroke-width:1.0;"/><path d="M206.4731,29.1431 Q205.8921,29.4419 205.2529,29.5913 Q204.6138,29.7407 203.9082,29.7407 Q201.4014,29.7407 200.0815,28.0889 Q198.7617,26.437 198.7617,23.3159 Q198.7617,20.1865 200.0815,18.5347 Q201.4014,16.8828 203.9082,16.8828 Q204.6138,16.8828 205.2612,17.0322 Q205.9087,17.1816 206.4731,17.4805 L206.4731,20.2031 Q205.8423,19.6221 205.2488,19.3523 Q204.6553,19.0825 204.0244,19.0825 Q202.6797,19.0825 201.9949,20.1492 Q201.3101,21.2158 201.3101,23.3159 Q201.3101,25.4077 201.9949,26.4744 Q202.6797,27.541 204.0244,27.541 Q204.6553,27.541 205.2488,27.2712 Q205.8423,27.0015 206.4731,26.4204 Z " fill="#000000"/><text fill="#000000" font-family="sans-serif" font-size="14" font-weight="bold" lengthAdjust="spacing" textLength="107" x="218" y="28.291">GridFieldCache</text><line style="stroke:#181818;stroke-width:0.5;" x1="190" x2="327" y1="39" y2="39"/><line style="stroke:#181818;stroke-width:0.5;" x1="190" x2="327" y1="47" y2="47"/></g><!--MD5=[9cd5ce507e9dfa400c11500c2bd98eb9]
class GridBlockCache--><g id="elem_GridBlockCache"><rect fill="#F1F1F1" height="48" id="GridBlockCache" rx="2.5" ry="2.5" style="stroke:#181818;stroke-width:0.5;" width="143" x="187" y="173"/><ellipse cx="202" cy="189" fill="#ADD1B2" rx="11" ry="11" style="stroke:#181818;stroke-width:1.0;"/><path d="M204.4731,195.1431 Q203.8921,195.4419 203.2529,195.5913 Q202.6138,195.7407 201.9082,195.7407 Q199.4014,195.7407 198.0815,194.0889 Q196.7617,192.437 196.7617,189.3159 Q196.7617,186.1865 198.0815,184.5347 Q199.4014,182.8828 201.9082,182.8828 Q202.6138,182.8828 203.2612,183.0322 Q203.9087,183.1816 204.4731,183.4805 L204.4731,186.2031 Q203.8423,185.6221 203.2488,185.3523 Q202.6553,185.0825 202.0244,185.0825 Q200.6797,185.0825 199.9949,186.1492 Q199.3101,187.2158 199.3101,189.3159 Q199.3101,191.4077 199.9949,192.4744 Q200.6797,193.541 202.0244,193.541 Q202.6553,193.541 203.2488,193.2712 Q203.8423,193.0015 204.4731,192.4204 Z " fill="#000000"/><text fill="#000000" font-family="sans-serif" font-size="14" font-weight="bold" lengthAdjust="spacing" textLength="111" x="216" y="194.291">GridBlockCache</text><line style="stroke:#181818;stroke-width:0.5;" x1="188" x2="329" y1="205" y2="205"/><line style="stroke:#181818;stroke-width:0.5;" x1="188" x2="329" y1="213" y2="213"/></g><!--MD5=[8f6ea1f45229dc5690b4d4eeeed7e9b2]
class GridBlock--><g id="elem_GridBlock"><rect fill="#F1F1F1" height="48" id="GridBlock" rx="2.5" ry="2.5" style="stroke:#181818;stroke-width:0.5;" width="101" x="497" y="90"/><ellipse cx="512" cy="106" fill="#ADD1B2" rx="11" ry="11" style="stroke:#181818;stroke-width:1.0;"/><path d="M514.4731,112.1431 Q513.8921,112.4419 513.2529,112.5913 Q512.6138,112.7407 511.9082,112.7407 Q509.4014,112.7407 508.0815,111.0889 Q506.7617,109.437 506.7617,106.3159 Q506.7617,103.1865 508.0815,101.5347 Q509.4014,99.8828 511.9082,99.8828 Q512.6138,99.8828 513.2612,100.0322 Q513.9087,100.1816 514.4731,100.4805 L514.4731,103.2031 Q513.8423,102.6221 513.2488,102.3523 Q512.6553,102.0825 512.0244,102.0825 Q510.6797,102.0825 509.9949,103.1492 Q509.3101,104.2158 509.3101,106.3159 Q509.3101,108.4077 509.9949,109.4744 Q510.6797,110.541 512.0244,110.541 Q512.6553,110.541 513.2488,110.2712 Q513.8423,110.0015 514.4731,109.4204 Z " fill="#000000"/><text fill="#000000" font-family="sans-serif" font-size="14" font-weight="bold" lengthAdjust="spacing" textLength="69" x="526" y="111.291">GridBlock</text><line style="stroke:#181818;stroke-width:0.5;" x1="498" x2="597" y1="122" y2="122"/><line style="stroke:#181818;stroke-width:0.5;" x1="498" x2="597" y1="130" y2="130"/></g><!--MD5=[40c4b5bf30f7f32ac86c9d745791eb57]
class GridRowsCache--><g id="elem_GridRowsCache"><rect fill="#F1F1F1" height="48" id="GridRowsCache" rx="2.5" ry="2.5" style="stroke:#181818;stroke-width:0.5;" width="143" x="476" y="173"/><ellipse cx="491" cy="189" fill="#ADD1B2" rx="11" ry="11" style="stroke:#181818;stroke-width:1.0;"/><path d="M493.4731,195.1431 Q492.8921,195.4419 492.2529,195.5913 Q491.6138,195.7407 490.9082,195.7407 Q488.4014,195.7407 487.0815,194.0889 Q485.7617,192.437 485.7617,189.3159 Q485.7617,186.1865 487.0815,184.5347 Q488.4014,182.8828 490.9082,182.8828 Q491.6138,182.8828 492.2612,183.0322 Q492.9087,183.1816 493.4731,183.4805 L493.4731,186.2031 Q492.8423,185.6221 492.2488,185.3523 Q491.6553,185.0825 491.0244,185.0825 Q489.6797,185.0825 488.9949,186.1492 Q488.3101,187.2158 488.3101,189.3159 Q488.3101,191.4077 488.9949,192.4744 Q489.6797,193.541 491.0244,193.541 Q491.6553,193.541 492.2488,193.2712 Q492.8423,193.0015 493.4731,192.4204 Z " fill="#000000"/><text fill="#000000" font-family="sans-serif" font-size="14" font-weight="bold" lengthAdjust="spacing" textLength="111" x="505" y="194.291">GridRowsCache</text><line style="stroke:#181818;stroke-width:0.5;" x1="477" x2="618" y1="205" y2="205"/><line style="stroke:#181818;stroke-width:0.5;" x1="477" x2="618" y1="213" y2="213"/></g><!--MD5=[a58c78b84906a9bfa9a2b112be8b6ac4]
class GridBlockChangeset--><g id="elem_GridBlockChangeset"><rect fill="#F1F1F1" height="48" id="GridBlockChangeset" rx="2.5" ry="2.5" style="stroke:#181818;stroke-width:0.5;" width="176" x="790" y="256"/><ellipse cx="805" cy="272" fill="#ADD1B2" rx="11" ry="11" style="stroke:#181818;stroke-width:1.0;"/><path d="M807.4731,278.1431 Q806.8921,278.4419 806.2529,278.5913 Q805.6138,278.7407 804.9082,278.7407 Q802.4014,278.7407 801.0815,277.0889 Q799.7617,275.437 799.7617,272.3159 Q799.7617,269.1865 801.0815,267.5347 Q802.4014,265.8828 804.9082,265.8828 Q805.6138,265.8828 806.2612,266.0322 Q806.9087,266.1816 807.4731,266.4805 L807.4731,269.2031 Q806.8423,268.6221 806.2488,268.3523 Q805.6553,268.0825 805.0244,268.0825 Q803.6797,268.0825 802.9949,269.1492 Q802.3101,270.2158 802.3101,272.3159 Q802.3101,274.4077 802.9949,275.4744 Q803.6797,276.541 805.0244,276.541 Q805.6553,276.541 806.2488,276.2712 Q806.8423,276.0015 807.4731,275.4204 Z " fill="#000000"/><text fill="#000000" font-family="sans-serif" font-size="14" font-weight="bold" lengthAdjust="spacing" textLength="144" x="819" y="277.291">GridBlockChangeset</text><line style="stroke:#181818;stroke-width:0.5;" x1="791" x2="965" y1="288" y2="288"/><line style="stroke:#181818;stroke-width:0.5;" x1="791" x2="965" y1="296" y2="296"/></g><!--MD5=[b2b95f23583ef759dfc2e996f1191495]
class GridCellsCache--><g id="elem_GridCellsCache"><rect fill="#F1F1F1" height="48" id="GridCellsCache" rx="2.5" ry="2.5" style="stroke:#181818;stroke-width:0.5;" width="140" x="808" y="90"/><ellipse cx="823" cy="106" fill="#ADD1B2" rx="11" ry="11" style="stroke:#181818;stroke-width:1.0;"/><path d="M825.4731,112.1431 Q824.8921,112.4419 824.2529,112.5913 Q823.6138,112.7407 822.9082,112.7407 Q820.4014,112.7407 819.0815,111.0889 Q817.7617,109.437 817.7617,106.3159 Q817.7617,103.1865 819.0815,101.5347 Q820.4014,99.8828 822.9082,99.8828 Q823.6138,99.8828 824.2612,100.0322 Q824.9087,100.1816 825.4731,100.4805 L825.4731,103.2031 Q824.8423,102.6221 824.2488,102.3523 Q823.6553,102.0825 823.0244,102.0825 Q821.6797,102.0825 820.9949,103.1492 Q820.3101,104.2158 820.3101,106.3159 Q820.3101,108.4077 820.9949,109.4744 Q821.6797,110.541 823.0244,110.541 Q823.6553,110.541 824.2488,110.2712 Q824.8423,110.0015 825.4731,109.4204 Z " fill="#000000"/><text fill="#000000" font-family="sans-serif" font-size="14" font-weight="bold" lengthAdjust="spacing" textLength="108" x="837" y="111.291">GridCellsCache</text><line style="stroke:#181818;stroke-width:0.5;" x1="809" x2="947" y1="122" y2="122"/><line style="stroke:#181818;stroke-width:0.5;" x1="809" x2="947" y1="130" y2="130"/></g><!--MD5=[6eb4938cd3c73606334505ca15f1a31e]
class GridRow--><g id="elem_GridRow"><rect fill="#F1F1F1" height="48" id="GridRow" rx="2.5" ry="2.5" style="stroke:#181818;stroke-width:0.5;" width="93" x="831.5" y="173"/><ellipse cx="846.5" cy="189" fill="#ADD1B2" rx="11" ry="11" style="stroke:#181818;stroke-width:1.0;"/><path d="M848.9731,195.1431 Q848.3921,195.4419 847.7529,195.5913 Q847.1138,195.7407 846.4082,195.7407 Q843.9014,195.7407 842.5815,194.0889 Q841.2617,192.437 841.2617,189.3159 Q841.2617,186.1865 842.5815,184.5347 Q843.9014,182.8828 846.4082,182.8828 Q847.1138,182.8828 847.7612,183.0322 Q848.4087,183.1816 848.9731,183.4805 L848.9731,186.2031 Q848.3423,185.6221 847.7488,185.3523 Q847.1553,185.0825 846.5244,185.0825 Q845.1797,185.0825 844.4949,186.1492 Q843.8101,187.2158 843.8101,189.3159 Q843.8101,191.4077 844.4949,192.4744 Q845.1797,193.541 846.5244,193.541 Q847.1553,193.541 847.7488,193.2712 Q848.3423,193.0015 848.9731,192.4204 Z " fill="#000000"/><text fill="#000000" font-family="sans-serif" font-size="14" font-weight="bold" lengthAdjust="spacing" textLength="61" x="860.5" y="194.291">GridRow</text><line style="stroke:#181818;stroke-width:0.5;" x1="832.5" x2="923.5" y1="205" y2="205"/><line style="stroke:#181818;stroke-width:0.5;" x1="832.5" x2="923.5" y1="213" y2="213"/></g><!--MD5=[05aedcff764caeeb5d443618a4d90de7]
class Row--><g id="elem_Row"><rect fill="#F1F1F1" height="48" id="Row" rx="2.5" ry="2.5" style="stroke:#181818;stroke-width:0.5;" width="63" x="1115.5" y="173"/><ellipse cx="1130.5" cy="189" fill="#ADD1B2" rx="11" ry="11" style="stroke:#181818;stroke-width:1.0;"/><path d="M1132.9731,195.1431 Q1132.3921,195.4419 1131.7529,195.5913 Q1131.1138,195.7407 1130.4082,195.7407 Q1127.9014,195.7407 1126.5815,194.0889 Q1125.2617,192.437 1125.2617,189.3159 Q1125.2617,186.1865 1126.5815,184.5347 Q1127.9014,182.8828 1130.4082,182.8828 Q1131.1138,182.8828 1131.7612,183.0322 Q1132.4087,183.1816 1132.9731,183.4805 L1132.9731,186.2031 Q1132.3423,185.6221 1131.7488,185.3523 Q1131.1553,185.0825 1130.5244,185.0825 Q1129.1797,185.0825 1128.4949,186.1492 Q1127.8101,187.2158 1127.8101,189.3159 Q1127.8101,191.4077 1128.4949,192.4744 Q1129.1797,193.541 1130.5244,193.541 Q1131.1553,193.541 1131.7488,193.2712 Q1132.3423,193.0015 1132.9731,192.4204 Z " fill="#000000"/><text fill="#000000" font-family="sans-serif" font-size="14" font-weight="bold" lengthAdjust="spacing" textLength="31" x="1144.5" y="194.291">Row</text><line style="stroke:#181818;stroke-width:0.5;" x1="1116.5" x2="1177.5" y1="205" y2="205"/><line style="stroke:#181818;stroke-width:0.5;" x1="1116.5" x2="1177.5" y1="213" y2="213"/></g><!--MD5=[d9427b671d7d049aff2d6f2fe36a13b3]
class Field--><g id="elem_Field"><rect fill="#F1F1F1" height="48" id="Field" rx="2.5" ry="2.5" style="stroke:#181818;stroke-width:0.5;" width="67" x="1113.5" y="256"/><ellipse cx="1128.5" cy="272" fill="#ADD1B2" rx="11" ry="11" style="stroke:#181818;stroke-width:1.0;"/><path d="M1130.9731,278.1431 Q1130.3921,278.4419 1129.7529,278.5913 Q1129.1138,278.7407 1128.4082,278.7407 Q1125.9014,278.7407 1124.5815,277.0889 Q1123.2617,275.437 1123.2617,272.3159 Q1123.2617,269.1865 1124.5815,267.5347 Q1125.9014,265.8828 1128.4082,265.8828 Q1129.1138,265.8828 1129.7612,266.0322 Q1130.4087,266.1816 1130.9731,266.4805 L1130.9731,269.2031 Q1130.3423,268.6221 1129.7488,268.3523 Q1129.1553,268.0825 1128.5244,268.0825 Q1127.1797,268.0825 1126.4949,269.1492 Q1125.8101,270.2158 1125.8101,272.3159 Q1125.8101,274.4077 1126.4949,275.4744 Q1127.1797,276.541 1128.5244,276.541 Q1129.1553,276.541 1129.7488,276.2712 Q1130.3423,276.0015 1130.9731,275.4204 Z " fill="#000000"/><text fill="#000000" font-family="sans-serif" font-size="14" font-weight="bold" lengthAdjust="spacing" textLength="35" x="1142.5" y="277.291">Field</text><line style="stroke:#181818;stroke-width:0.5;" x1="1114.5" x2="1179.5" y1="288" y2="288"/><line style="stroke:#181818;stroke-width:0.5;" x1="1114.5" x2="1179.5" y1="296" y2="296"/></g><!--MD5=[6a7cd17fb173517a6d30481f5b45a6c3]
class GridCell--><g id="elem_GridCell"><rect fill="#F1F1F1" height="48" id="GridCell" rx="2.5" ry="2.5" style="stroke:#181818;stroke-width:0.5;" width="90" x="1102" y="90"/><ellipse cx="1117" cy="106" fill="#ADD1B2" rx="11" ry="11" style="stroke:#181818;stroke-width:1.0;"/><path d="M1119.4731,112.1431 Q1118.8921,112.4419 1118.2529,112.5913 Q1117.6138,112.7407 1116.9082,112.7407 Q1114.4014,112.7407 1113.0815,111.0889 Q1111.7617,109.437 1111.7617,106.3159 Q1111.7617,103.1865 1113.0815,101.5347 Q1114.4014,99.8828 1116.9082,99.8828 Q1117.6138,99.8828 1118.2612,100.0322 Q1118.9087,100.1816 1119.4731,100.4805 L1119.4731,103.2031 Q1118.8423,102.6221 1118.2488,102.3523 Q1117.6553,102.0825 1117.0244,102.0825 Q1115.6797,102.0825 1114.9949,103.1492 Q1114.3101,104.2158 1114.3101,106.3159 Q1114.3101,108.4077 1114.9949,109.4744 Q1115.6797,110.541 1117.0244,110.541 Q1117.6553,110.541 1118.2488,110.2712 Q1118.8423,110.0015 1119.4731,109.4204 Z " fill="#000000"/><text fill="#000000" font-family="sans-serif" font-size="14" font-weight="bold" lengthAdjust="spacing" textLength="58" x="1131" y="111.291">GridCell</text><line style="stroke:#181818;stroke-width:0.5;" x1="1103" x2="1191" y1="122" y2="122"/><line style="stroke:#181818;stroke-width:0.5;" x1="1103" x2="1191" y1="130" y2="130"/></g><!--MD5=[45e1835169168e1d6b02cbe70904a44a]
class GridBlockListener--><g id="elem_GridBlockListener"><rect fill="#F1F1F1" height="48" id="GridBlockListener" rx="2.5" ry="2.5" style="stroke:#181818;stroke-width:0.5;" width="159" x="468" y="256"/><ellipse cx="483" cy="272" fill="#ADD1B2" rx="11" ry="11" style="stroke:#181818;stroke-width:1.0;"/><path d="M485.4731,278.1431 Q484.8921,278.4419 484.2529,278.5913 Q483.6138,278.7407 482.9082,278.7407 Q480.4014,278.7407 479.0815,277.0889 Q477.7617,275.437 477.7617,272.3159 Q477.7617,269.1865 479.0815,267.5347 Q480.4014,265.8828 482.9082,265.8828 Q483.6138,265.8828 484.2612,266.0322 Q484.9087,266.1816 485.4731,266.4805 L485.4731,269.2031 Q484.8423,268.6221 484.2488,268.3523 Q483.6553,268.0825 483.0244,268.0825 Q481.6797,268.0825 480.9949,269.1492 Q480.3101,270.2158 480.3101,272.3159 Q480.3101,274.4077 480.9949,275.4744 Q481.6797,276.541 483.0244,276.541 Q483.6553,276.541 484.2488,276.2712 Q484.8423,276.0015 485.4731,275.4204 Z " fill="#000000"/><text fill="#000000" font-family="sans-serif" font-size="14" font-weight="bold" lengthAdjust="spacing" textLength="127" x="497" y="277.291">GridBlockListener</text><line style="stroke:#181818;stroke-width:0.5;" x1="469" x2="626" y1="288" y2="288"/><line style="stroke:#181818;stroke-width:0.5;" x1="469" x2="626" y1="296" y2="296"/></g><!--MD5=[2887c6bcc564fdd2c5a0529fb6ab4e1d]
class GridRowCacheFieldNotifierImpl--><g id="elem_GridRowCacheFieldNotifierImpl"><rect fill="#F1F1F1" height="48" id="GridRowCacheFieldNotifierImpl" rx="2.5" ry="2.5" style="stroke:#181818;stroke-width:0.5;" width="259" x="418" y="7"/><ellipse cx="433" cy="23" fill="#ADD1B2" rx="11" ry="11" style="stroke:#181818;stroke-width:1.0;"/><path d="M435.4731,29.1431 Q434.8921,29.4419 434.2529,29.5913 Q433.6138,29.7407 432.9082,29.7407 Q430.4014,29.7407 429.0815,28.0889 Q427.7617,26.437 427.7617,23.3159 Q427.7617,20.1865 429.0815,18.5347 Q430.4014,16.8828 432.9082,16.8828 Q433.6138,16.8828 434.2612,17.0322 Q434.9087,17.1816 435.4731,17.4805 L435.4731,20.2031 Q434.8423,19.6221 434.2488,19.3523 Q433.6553,19.0825 433.0244,19.0825 Q431.6797,19.0825 430.9949,20.1492 Q430.3101,21.2158 430.3101,23.3159 Q430.3101,25.4077 430.9949,26.4744 Q431.6797,27.541 433.0244,27.541 Q433.6553,27.541 434.2488,27.2712 Q434.8423,27.0015 435.4731,26.4204 Z " fill="#000000"/><text fill="#000000" font-family="sans-serif" font-size="14" font-weight="bold" lengthAdjust="spacing" textLength="227" x="447" y="28.291">GridRowCacheFieldNotifierImpl</text><line style="stroke:#181818;stroke-width:0.5;" x1="419" x2="676" y1="39" y2="39"/><line style="stroke:#181818;stroke-width:0.5;" x1="419" x2="676" y1="47" y2="47"/></g><!--MD5=[26ad188711e1fe1fd37d00e811ee044c]
link GridBloc to GridService--><g id="link_GridBloc_GridService"><path codeLine="8" d="M99.16,114 C127.94,114 165.58,114 196.94,114 " fill="none" id="GridBloc-to-GridService" style="stroke:#181818;stroke-width:1.0;"/><polygon fill="#181818" points="202.31,114,193.31,110,197.31,114,193.31,118,202.31,114" style="stroke:#181818;stroke-width:1.0;"/></g><!--MD5=[b8f9533eb4d84044bf4f1bbda5b1a32a]
link GridBloc to GridFieldCache--><g id="link_GridBloc_GridFieldCache"><path codeLine="9" d="M99.16,95.58 C126.95,84.25 162.99,69.55 193.67,57.03 " fill="none" id="GridBloc-to-GridFieldCache" style="stroke:#181818;stroke-width:1.0;"/><polygon fill="#181818" points="198.55,55.05,188.7052,54.7673,193.9245,56.9487,191.7432,62.1681,198.55,55.05" style="stroke:#181818;stroke-width:1.0;"/><text fill="#000000" font-family="sans-serif" font-size="13" lengthAdjust="spacing" textLength="26" x="130" y="69.5684">own</text></g><!--MD5=[08a8827e04da6aa4816edb718a28b8cc]
reverse link GridBloc to GridBlockCache--><g id="link_GridBloc_GridBlockCache"><path codeLine="10" d="M111.27,137.36 C138.53,148.48 171.08,161.75 198.55,172.95 " fill="none" id="GridBloc-backto-GridBlockCache" style="stroke:#181818;stroke-width:1.0;"/><polygon fill="#181818" points="99.16,132.42,103.2015,138.3921,110.2687,136.9585,106.2272,130.9863,99.16,132.42" style="stroke:#181818;stroke-width:1.0;"/><text fill="#000000" font-family="sans-serif" font-size="13" lengthAdjust="spacing" textLength="26" x="130" y="142.5684">own</text><text fill="#000000" font-family="sans-serif" font-size="13" lengthAdjust="spacing" textLength="8" x="107.1543" y="149.1441">1</text><text fill="#000000" font-family="sans-serif" font-size="13" lengthAdjust="spacing" textLength="6" x="175.6322" y="162.081">*</text></g><!--MD5=[c911bca4790bd032cdc348b6c931580c]
link GridBlockCache to GridBlock--><g id="link_GridBlockCache_GridBlock"><path codeLine="12" d="M330.08,176.59 C380.04,162.14 446.07,143.05 491.99,129.76 " fill="none" id="GridBlockCache-to-GridBlock" style="stroke:#181818;stroke-width:1.0;"/><polygon fill="#181818" points="496.93,128.33,487.17,127.01,492.13,129.73,489.41,134.69,496.93,128.33" style="stroke:#181818;stroke-width:1.0;"/></g><!--MD5=[5a6fc0804a75b5338726716c79e9c2e6]
link GridBlockCache to GridRowsCache--><g id="link_GridBlockCache_GridRowsCache"><path codeLine="15" d="M330.08,197 C372.66,197 426.91,197 470.45,197 " fill="none" id="GridBlockCache-to-GridRowsCache" style="stroke:#181818;stroke-width:1.0;"/><polygon fill="#181818" points="475.7,197,466.7,193,470.7,197,466.7,201,475.7,197" style="stroke:#181818;stroke-width:1.0;"/><text fill="#000000" font-family="sans-serif" font-size="13" lengthAdjust="spacing" textLength="26" x="361" y="193.5684">own</text></g><!--MD5=[6cc0243fe06a2dd494f21101d5d79bbf]
link GridRowsCache to GridBlockChangeset--><g id="link_GridRowsCache_GridBlockChangeset"><path codeLine="16" d="M619.38,214.91 C667.8,227.14 732.43,243.47 784.84,256.71 " fill="none" id="GridRowsCache-to-GridBlockChangeset" style="stroke:#181818;stroke-width:1.0;"/><polygon fill="#181818" points="789.88,257.99,782.1399,251.8997,785.0335,256.7605,780.1727,259.6541,789.88,257.99" style="stroke:#181818;stroke-width:1.0;"/></g><!--MD5=[177d43808d176ff314d19ca1e9d9f0b8]
link GridRowsCache to GridCellsCache--><g id="link_GridRowsCache_GridCellsCache"><path codeLine="17" d="M619.38,179.09 C673.57,165.4 748.07,146.58 803.02,132.69 " fill="none" id="GridRowsCache-to-GridCellsCache" style="stroke:#181818;stroke-width:1.0;"/><polygon fill="#181818" points="807.94,131.45,798.2374,129.759,803.0901,132.666,800.1831,137.5188,807.94,131.45" style="stroke:#181818;stroke-width:1.0;"/><text fill="#000000" font-family="sans-serif" font-size="13" lengthAdjust="spacing" textLength="26" x="708" y="147.5684">own</text></g><!--MD5=[f5d346a7f7ae5b7d15edaa39315ab31d]
link GridRowsCache to GridRowCacheFieldNotifier--><g id="link_GridRowsCache_GridRowCacheFieldNotifier"><path codeLine="18" d="M619.03,180.25 C638.6,173.95 659.31,165.66 677,155 C692.89,145.43 693.55,138.76 707,126 C732.55,101.76 734.98,90.42 765,72 C774.03,66.46 783.92,61.5 793.98,57.1 " fill="none" id="GridRowsCache-to-GridRowCacheFieldNotifier" style="stroke:#181818;stroke-width:1.0;"/><polygon fill="#181818" points="798.6,55.12,788.752,54.9887,794.0043,57.0896,791.9034,62.3419,798.6,55.12" style="stroke:#181818;stroke-width:1.0;"/></g><!--MD5=[3dd71f8ccdb3d47cf4f61c211c15fa11]
reverse link GridRowsCache to GridRow--><g id="link_GridRowsCache_GridRow"><path codeLine="19" d="M632.51,197 C695.63,197 779.72,197 831.02,197 " fill="none" id="GridRowsCache-backto-GridRow" style="stroke:#181818;stroke-width:1.0;"/><polygon fill="#181818" points="619.38,197,625.38,201,631.38,197,625.38,193,619.38,197" style="stroke:#181818;stroke-width:1.0;"/><text fill="#000000" font-family="sans-serif" font-size="13" lengthAdjust="spacing" textLength="8" x="627.2051" y="210.3578">1</text><text fill="#000000" font-family="sans-serif" font-size="13" lengthAdjust="spacing" textLength="6" x="817.3668" y="210.7406">*</text></g><!--MD5=[c981f2609c88ae765c4eeeb46fb09e11]
link GridRow to Row--><g id="link_GridRow_Row"><path codeLine="20" d="M924.6,197 C977.05,197 1062.09,197 1110.08,197 " fill="none" id="GridRow-to-Row" style="stroke:#181818;stroke-width:1.0;"/><polygon fill="#181818" points="1115.17,197,1106.17,193,1110.17,197,1106.17,201,1115.17,197" style="stroke:#181818;stroke-width:1.0;"/><text fill="#000000" font-family="sans-serif" font-size="13" lengthAdjust="spacing" textLength="49" x="1022" y="193.5684">raw row</text></g><!--MD5=[a91afbfaf1a553ecc078e478d1edce58]
reverse link GridRow to Field--><g id="link_GridRow_Field"><path codeLine="21" d="M937.07,215.05 C991.01,231.82 1069.4,256.19 1113.22,269.81 " fill="none" id="GridRow-backto-Field" style="stroke:#181818;stroke-width:1.0;"/><polygon fill="none" points="924.6,211.17,929.143,216.7701,936.0596,214.7305,931.5166,209.1304,924.6,211.17" style="stroke:#181818;stroke-width:1.0;"/><text fill="#000000" font-family="sans-serif" font-size="13" lengthAdjust="spacing" textLength="8" x="932.3481" y="227.0804">1</text><text fill="#000000" font-family="sans-serif" font-size="13" lengthAdjust="spacing" textLength="6" x="1099.6341" y="281.8556">*</text></g><!--MD5=[3d81c83217ddef373e639cda145919a8]
reverse link GridCellsCache to GridCell--><g id="link_GridCellsCache_GridCell"><path codeLine="25" d="M961.22,114 C1007.61,114 1063.74,114 1101.87,114 " fill="none" id="GridCellsCache-backto-GridCell" style="stroke:#181818;stroke-width:1.0;"/><polygon fill="#181818" points="948.11,114,954.11,118,960.11,114,954.11,110,948.11,114" style="stroke:#181818;stroke-width:1.0;"/><text fill="#000000" font-family="sans-serif" font-size="13" lengthAdjust="spacing" textLength="8" x="956.2158" y="127.4057">1</text><text fill="#000000" font-family="sans-serif" font-size="13" lengthAdjust="spacing" textLength="6" x="1087.8985" y="127.8363">*</text></g><!--MD5=[bb70973dc9825fac6208941936eaac0f]
link GridBlockCache to GridBlockListener--><g id="link_GridBlockCache_GridBlockListener"><path codeLine="28" d="M330.08,217.41 C370.27,229.03 420.86,243.66 463.02,255.86 " fill="none" id="GridBlockCache-to-GridBlockListener" style="stroke:#181818;stroke-width:1.0;"/><polygon fill="#181818" points="467.85,257.26,460.3076,250.9266,463.0451,255.877,458.0947,258.6145,467.85,257.26" style="stroke:#181818;stroke-width:1.0;"/></g><!--MD5=[a2c5a4aec7713094c8b851b4a04da792]
reverse link GridBlockListener to GridBlockChangeset--><g id="link_GridBlockListener_GridBlockChangeset"><path codeLine="29" d="M640.4,280 C687.14,280 743.65,280 789.71,280 " fill="none" id="GridBlockListener-backto-GridBlockChangeset" style="stroke:#181818;stroke-width:1.0;"/><polygon fill="#181818" points="627.18,280,633.18,284,639.18,280,633.18,276,627.18,280" style="stroke:#181818;stroke-width:1.0;"/><text fill="#000000" font-family="sans-serif" font-size="13" lengthAdjust="spacing" textLength="8" x="634.8942" y="293.2741">1</text><text fill="#000000" font-family="sans-serif" font-size="13" lengthAdjust="spacing" textLength="6" x="775.8648" y="293.2262">*</text></g><!--MD5=[85831118c73c5cf7daad5212dd0055fa]
reverse link GridFieldCache to GridRowCacheFieldNotifierImpl--><g id="link_GridFieldCache_GridRowCacheFieldNotifierImpl"><path codeLine="31" d="M333.35,31 C359.17,31 388.95,31 417.91,31 " fill="none" id="GridFieldCache-backto-GridRowCacheFieldNotifierImpl" style="stroke:#181818;stroke-width:1.0;"/><polygon fill="#181818" points="328.24,31,337.24,35,333.24,31,337.24,27,328.24,31" style="stroke:#181818;stroke-width:1.0;"/></g><!--MD5=[42d53c9c633e372b77c9f65821ab166d]
link GridRowCacheFieldNotifierImpl to GridRowCacheFieldNotifier--><g id="link_GridRowCacheFieldNotifierImpl_GridRowCacheFieldNotifier"><path codeLine="32" d="M677.39,31 C699.55,31 722.6,31 744.84,31 " fill="none" id="GridRowCacheFieldNotifierImpl-to-GridRowCacheFieldNotifier" style="stroke:#181818;stroke-width:1.0;"/><polygon fill="none" points="744.99,24,764.99,31,744.99,38,744.99,24" style="stroke:#181818;stroke-width:1.0;"/></g><!--MD5=[3e26ff2170377227ac873787f3f76a94]
@startuml block/row/cell relation
skinparam classFontStyle Bold
skinparam ActivityBackgroundColor Silver
skinparam ActivityBorderColor DimGray
left to right direction

interface GridRowCacheFieldNotifier

GridBloc - -> GridService
GridBloc - -> GridFieldCache: own
GridBloc "1" *- - "*" GridBlockCache: own

GridBlockCache - -> GridBlock

'Row Cache
GridBlockCache - -> GridRowsCache : own
GridRowsCache - -> GridBlockChangeset
GridRowsCache - -> GridCellsCache: own
GridRowsCache - -> GridRowCacheFieldNotifier
GridRowsCache "1" *- - "*" GridRow
GridRow - -> Row : raw row
GridRow "1" o- - "*" Field


'Cell Cache
GridCellsCache "1" *- - "*" GridCell

'Listener
GridBlockCache - -> GridBlockListener
GridBlockListener "1" *- - "*" GridBlockChangeset

GridRowCacheFieldNotifierImpl -u-> GridFieldCache
GridRowCacheFieldNotifierImpl - -|> GridRowCacheFieldNotifier

@enduml

@startuml block/row/cell relation
skinparam classFontStyle Bold
skinparam ActivityBackgroundColor Silver
skinparam ActivityBorderColor DimGray
left to right direction

interface GridRowCacheFieldNotifier

GridBloc - -> GridService
GridBloc - -> GridFieldCache: own
GridBloc "1" *- - "*" GridBlockCache: own

GridBlockCache - -> GridBlock

GridBlockCache - -> GridRowsCache : own
GridRowsCache - -> GridBlockChangeset
GridRowsCache - -> GridCellsCache: own
GridRowsCache - -> GridRowCacheFieldNotifier
GridRowsCache "1" *- - "*" GridRow
GridRow - -> Row : raw row
GridRow "1" o- - "*" Field


GridCellsCache "1" *- - "*" GridCell

GridBlockCache - -> GridBlockListener
GridBlockListener "1" *- - "*" GridBlockChangeset

GridRowCacheFieldNotifierImpl -u-> GridFieldCache
GridRowCacheFieldNotifierImpl - -|> GridRowCacheFieldNotifier

@enduml

PlantUML version 1.2022.5(Sat Apr 30 18:55:52 CST 2022)
(GPL source distribution)
Java Runtime: OpenJDK Runtime Environment
JVM: OpenJDK 64-Bit Server VM
Default Encoding: UTF-8
Language: en
Country: US
--></g></svg>