<?xml version="1.0" encoding="UTF-8" standalone="no"?><svg xmlns="http://www.w3.org/2000/svg" xmlns:xlink="http://www.w3.org/1999/xlink" contentStyleType="text/css" height="455px" preserveAspectRatio="none" style="width:1653px;height:455px;background:#FFFFFF;" version="1.1" viewBox="0 0 1653 455" width="1653px" zoomAndPan="magnify"><defs/><g><text fill="#000000" font-family="sans-serif" font-size="14" font-weight="bold" lengthAdjust="spacing" textLength="136" x="751.5" y="23.5352">Board view classes</text><!--class GroupGenerator--><g id="elem_GroupGenerator"><rect codeLine="3" fill="#F1F1F1" height="64.4883" id="GroupGenerator" rx="2.5" ry="2.5" style="stroke:#181818;stroke-width:0.5;" width="157" x="1122" y="160.4883"/><ellipse cx="1142.85" cy="176.4883" fill="#B4A7E5" rx="11" ry="11" style="stroke:#181818;stroke-width:1.0;"/><path d="M1138.7777,172.2534 L1138.7777,170.0952 L1146.1571,170.0952 L1146.1571,172.2534 L1143.6918,172.2534 L1143.6918,180.3301 L1146.1571,180.3301 L1146.1571,182.4883 L1138.7777,182.4883 L1138.7777,180.3301 L1141.2431,180.3301 L1141.2431,172.2534 Z " fill="#000000"/><text fill="#000000" font-family="sans-serif" font-size="14" font-style="italic" lengthAdjust="spacing" textLength="112" x="1158.15" y="181.7793">GroupGenerator</text><line style="stroke:#181818;stroke-width:0.5;" x1="1123" x2="1278" y1="192.4883" y2="192.4883"/><line style="stroke:#181818;stroke-width:0.5;" x1="1123" x2="1278" y1="200.4883" y2="200.4883"/><text fill="#000000" font-family="sans-serif" font-size="14" lengthAdjust="spacing" textLength="145" x="1128" y="218.0234">fn generate_groups()</text></g><!--class CheckboxGroupGenerator--><g id="elem_CheckboxGroupGenerator"><rect fill="#F1F1F1" height="48" id="CheckboxGroupGenerator" rx="2.5" ry="2.5" style="stroke:#181818;stroke-width:0.5;" width="213" x="1426.5" y="44.4883"/><ellipse cx="1441.5" cy="60.4883" fill="#ADD1B2" rx="11" ry="11" style="stroke:#181818;stroke-width:1.0;"/><path d="M1444.4731,66.1313 Q1443.8921,66.4302 1443.2529,66.5796 Q1442.6138,66.729 1441.9082,66.729 Q1439.4014,66.729 1438.0815,65.0771 Q1436.7617,63.4253 1436.7617,60.3042 Q1436.7617,57.1748 1438.0815,55.5229 Q1439.4014,53.8711 1441.9082,53.8711 Q1442.6138,53.8711 1443.2612,54.0205 Q1443.9087,54.1699 1444.4731,54.4688 L1444.4731,57.1914 Q1443.8423,56.6104 1443.2488,56.3406 Q1442.6553,56.0708 1442.0244,56.0708 Q1440.6797,56.0708 1439.9949,57.1375 Q1439.3101,58.2041 1439.3101,60.3042 Q1439.3101,62.396 1439.9949,63.4626 Q1440.6797,64.5293 1442.0244,64.5293 Q1442.6553,64.5293 1443.2488,64.2595 Q1443.8423,63.9897 1444.4731,63.4087 Z " fill="#000000"/><text fill="#000000" font-family="sans-serif" font-size="14" lengthAdjust="spacing" textLength="181" x="1455.5" y="65.7793">CheckboxGroupGenerator</text><line style="stroke:#181818;stroke-width:0.5;" x1="1427.5" x2="1638.5" y1="76.4883" y2="76.4883"/><line style="stroke:#181818;stroke-width:0.5;" x1="1427.5" x2="1638.5" y1="84.4883" y2="84.4883"/></g><!--class MultiSelectGroupGenerator--><g id="elem_MultiSelectGroupGenerator"><rect fill="#F1F1F1" height="48" id="MultiSelectGroupGenerator" rx="2.5" ry="2.5" style="stroke:#181818;stroke-width:0.5;" width="218" x="1424" y="127.4883"/><ellipse cx="1439" cy="143.4883" fill="#ADD1B2" rx="11" ry="11" style="stroke:#181818;stroke-width:1.0;"/><path d="M1441.9731,149.1313 Q1441.3921,149.4302 1440.7529,149.5796 Q1440.1138,149.729 1439.4082,149.729 Q1436.9014,149.729 1435.5815,148.0771 Q1434.2617,146.4253 1434.2617,143.3042 Q1434.2617,140.1748 1435.5815,138.5229 Q1436.9014,136.8711 1439.4082,136.8711 Q1440.1138,136.8711 1440.7612,137.0205 Q1441.4087,137.1699 1441.9731,137.4688 L1441.9731,140.1914 Q1441.3423,139.6104 1440.7488,139.3406 Q1440.1553,139.0708 1439.5244,139.0708 Q1438.1797,139.0708 1437.4949,140.1375 Q1436.8101,141.2041 1436.8101,143.3042 Q1436.8101,145.396 1437.4949,146.4626 Q1438.1797,147.5293 1439.5244,147.5293 Q1440.1553,147.5293 1440.7488,147.2595 Q1441.3423,146.9897 1441.9731,146.4087 Z " fill="#000000"/><text fill="#000000" font-family="sans-serif" font-size="14" lengthAdjust="spacing" textLength="186" x="1453" y="148.7793">MultiSelectGroupGenerator</text><line style="stroke:#181818;stroke-width:0.5;" x1="1425" x2="1641" y1="159.4883" y2="159.4883"/><line style="stroke:#181818;stroke-width:0.5;" x1="1425" x2="1641" y1="167.4883" y2="167.4883"/></g><!--class SingleSelectGroupGenerator--><g id="elem_SingleSelectGroupGenerator"><rect fill="#F1F1F1" height="48" id="SingleSelectGroupGenerator" rx="2.5" ry="2.5" style="stroke:#181818;stroke-width:0.5;" width="226" x="1420" y="210.4883"/><ellipse cx="1435" cy="226.4883" fill="#ADD1B2" rx="11" ry="11" style="stroke:#181818;stroke-width:1.0;"/><path d="M1437.9731,232.1313 Q1437.3921,232.4302 1436.7529,232.5796 Q1436.1138,232.729 1435.4082,232.729 Q1432.9014,232.729 1431.5815,231.0771 Q1430.2617,229.4253 1430.2617,226.3042 Q1430.2617,223.1748 1431.5815,221.5229 Q1432.9014,219.8711 1435.4082,219.8711 Q1436.1138,219.8711 1436.7612,220.0205 Q1437.4087,220.1699 1437.9731,220.4688 L1437.9731,223.1914 Q1437.3423,222.6104 1436.7488,222.3406 Q1436.1553,222.0708 1435.5244,222.0708 Q1434.1797,222.0708 1433.4949,223.1375 Q1432.8101,224.2041 1432.8101,226.3042 Q1432.8101,228.396 1433.4949,229.4626 Q1434.1797,230.5293 1435.5244,230.5293 Q1436.1553,230.5293 1436.7488,230.2595 Q1437.3423,229.9897 1437.9731,229.4087 Z " fill="#000000"/><text fill="#000000" font-family="sans-serif" font-size="14" lengthAdjust="spacing" textLength="194" x="1449" y="231.7793">SingleSelectGroupGenerator</text><line style="stroke:#181818;stroke-width:0.5;" x1="1421" x2="1645" y1="242.4883" y2="242.4883"/><line style="stroke:#181818;stroke-width:0.5;" x1="1421" x2="1645" y1="250.4883" y2="250.4883"/></g><!--class URLGroupGenerator--><g id="elem_URLGroupGenerator"><rect fill="#F1F1F1" height="48" id="URLGroupGenerator" rx="2.5" ry="2.5" style="stroke:#181818;stroke-width:0.5;" width="170" x="1448" y="293.4883"/><ellipse cx="1463" cy="309.4883" fill="#ADD1B2" rx="11" ry="11" style="stroke:#181818;stroke-width:1.0;"/><path d="M1465.9731,315.1313 Q1465.3921,315.4302 1464.7529,315.5796 Q1464.1138,315.729 1463.4082,315.729 Q1460.9014,315.729 1459.5815,314.0771 Q1458.2617,312.4253 1458.2617,309.3042 Q1458.2617,306.1748 1459.5815,304.5229 Q1460.9014,302.8711 1463.4082,302.8711 Q1464.1138,302.8711 1464.7612,303.0205 Q1465.4087,303.1699 1465.9731,303.4688 L1465.9731,306.1914 Q1465.3423,305.6104 1464.7488,305.3406 Q1464.1553,305.0708 1463.5244,305.0708 Q1462.1797,305.0708 1461.4949,306.1375 Q1460.8101,307.2041 1460.8101,309.3042 Q1460.8101,311.396 1461.4949,312.4626 Q1462.1797,313.5293 1463.5244,313.5293 Q1464.1553,313.5293 1464.7488,313.2595 Q1465.3423,312.9897 1465.9731,312.4087 Z " fill="#000000"/><text fill="#000000" font-family="sans-serif" font-size="14" lengthAdjust="spacing" textLength="138" x="1477" y="314.7793">URLGroupGenerator</text><line style="stroke:#181818;stroke-width:0.5;" x1="1449" x2="1617" y1="325.4883" y2="325.4883"/><line style="stroke:#181818;stroke-width:0.5;" x1="1449" x2="1617" y1="333.4883" y2="333.4883"/></g><!--class GroupCustomize--><g id="elem_GroupCustomize"><rect codeLine="12" fill="#F1F1F1" height="130.4414" id="GroupCustomize" rx="2.5" ry="2.5" style="stroke:#181818;stroke-width:0.5;" width="319" x="1041" y="259.4883"/><ellipse cx="1138.25" cy="275.4883" fill="#B4A7E5" rx="11" ry="11" style="stroke:#181818;stroke-width:1.0;"/><path d="M1134.1777,271.2534 L1134.1777,269.0952 L1141.5571,269.0952 L1141.5571,271.2534 L1139.0918,271.2534 L1139.0918,279.3301 L1141.5571,279.3301 L1141.5571,281.4883 L1134.1777,281.4883 L1134.1777,279.3301 L1136.6431,279.3301 L1136.6431,271.2534 Z " fill="#000000"/><text fill="#000000" font-family="sans-serif" font-size="14" font-style="italic" lengthAdjust="spacing" textLength="116" x="1158.75" y="280.7793">GroupCustomize</text><line style="stroke:#181818;stroke-width:0.5;" x1="1042" x2="1359" y1="291.4883" y2="291.4883"/><line style="stroke:#181818;stroke-width:0.5;" x1="1042" x2="1359" y1="299.4883" y2="299.4883"/><text fill="#000000" font-family="sans-serif" font-size="14" lengthAdjust="spacing" textLength="101" x="1047" y="317.0234">fn can_group()</text><text fill="#000000" font-family="sans-serif" font-size="14" lengthAdjust="spacing" textLength="259" x="1047" y="333.5117">fn create_group_when_cell_changed()</text><text fill="#000000" font-family="sans-serif" font-size="14" lengthAdjust="spacing" textLength="307" x="1047" y="350">fn add_or_remove_row_when_cell_changed()</text><text fill="#000000" font-family="sans-serif" font-size="14" lengthAdjust="spacing" textLength="112" x="1047" y="366.4883">fn remove_row()</text><text fill="#000000" font-family="sans-serif" font-size="14" lengthAdjust="spacing" textLength="98" x="1047" y="382.9766">fn move_row()</text></g><!--class GenericGroupController--><g id="elem_GenericGroupController"><rect codeLine="19" fill="#F1F1F1" height="48" id="GenericGroupController" rx="2.5" ry="2.5" style="stroke:#181818;stroke-width:0.5;" width="197" x="784" y="234.4883"/><ellipse cx="799" cy="250.4883" fill="#ADD1B2" rx="11" ry="11" style="stroke:#181818;stroke-width:1.0;"/><path d="M801.9731,256.1313 Q801.3921,256.4302 800.7529,256.5796 Q800.1138,256.729 799.4082,256.729 Q796.9014,256.729 795.5815,255.0771 Q794.2617,253.4253 794.2617,250.3042 Q794.2617,247.1748 795.5815,245.5229 Q796.9014,243.8711 799.4082,243.8711 Q800.1138,243.8711 800.7612,244.0205 Q801.4087,244.1699 801.9731,244.4688 L801.9731,247.1914 Q801.3423,246.6104 800.7488,246.3406 Q800.1553,246.0708 799.5244,246.0708 Q798.1797,246.0708 797.4949,247.1375 Q796.8101,248.2041 796.8101,250.3042 Q796.8101,252.396 797.4949,253.4626 Q798.1797,254.5293 799.5244,254.5293 Q800.1553,254.5293 800.7488,254.2595 Q801.3423,253.9897 801.9731,253.4087 Z " fill="#000000"/><text fill="#000000" font-family="sans-serif" font-size="14" lengthAdjust="spacing" textLength="165" x="813" y="255.7793">GenericGroupController</text><line style="stroke:#181818;stroke-width:0.5;" x1="785" x2="980" y1="266.4883" y2="266.4883"/><line style="stroke:#181818;stroke-width:0.5;" x1="785" x2="980" y1="274.4883" y2="274.4883"/></g><!--class CheckboxGroupController--><g id="elem_CheckboxGroupController"><rect fill="#F1F1F1" height="48" id="CheckboxGroupController" rx="2.5" ry="2.5" style="stroke:#181818;stroke-width:0.5;" width="214" x="503.5" y="151.4883"/><ellipse cx="518.5" cy="167.4883" fill="#ADD1B2" rx="11" ry="11" style="stroke:#181818;stroke-width:1.0;"/><path d="M521.4731,173.1313 Q520.8921,173.4302 520.2529,173.5796 Q519.6138,173.729 518.9082,173.729 Q516.4014,173.729 515.0815,172.0771 Q513.7617,170.4253 513.7617,167.3042 Q513.7617,164.1748 515.0815,162.5229 Q516.4014,160.8711 518.9082,160.8711 Q519.6138,160.8711 520.2612,161.0205 Q520.9087,161.1699 521.4731,161.4688 L521.4731,164.1914 Q520.8423,163.6104 520.2488,163.3406 Q519.6553,163.0708 519.0244,163.0708 Q517.6797,163.0708 516.9949,164.1375 Q516.3101,165.2041 516.3101,167.3042 Q516.3101,169.396 516.9949,170.4626 Q517.6797,171.5293 519.0244,171.5293 Q519.6553,171.5293 520.2488,171.2595 Q520.8423,170.9897 521.4731,170.4087 Z " fill="#000000"/><text fill="#000000" font-family="sans-serif" font-size="14" lengthAdjust="spacing" textLength="182" x="532.5" y="172.7793">CheckboxGroupController</text><line style="stroke:#181818;stroke-width:0.5;" x1="504.5" x2="716.5" y1="183.4883" y2="183.4883"/><line style="stroke:#181818;stroke-width:0.5;" x1="504.5" x2="716.5" y1="191.4883" y2="191.4883"/></g><!--class MultiSelectGroupController--><g id="elem_MultiSelectGroupController"><rect fill="#F1F1F1" height="48" id="MultiSelectGroupController" rx="2.5" ry="2.5" style="stroke:#181818;stroke-width:0.5;" width="219" x="501" y="234.4883"/><ellipse cx="516" cy="250.4883" fill="#ADD1B2" rx="11" ry="11" style="stroke:#181818;stroke-width:1.0;"/><path d="M518.9731,256.1313 Q518.3921,256.4302 517.7529,256.5796 Q517.1138,256.729 516.4082,256.729 Q513.9014,256.729 512.5815,255.0771 Q511.2617,253.4253 511.2617,250.3042 Q511.2617,247.1748 512.5815,245.5229 Q513.9014,243.8711 516.4082,243.8711 Q517.1138,243.8711 517.7612,244.0205 Q518.4087,244.1699 518.9731,244.4688 L518.9731,247.1914 Q518.3423,246.6104 517.7488,246.3406 Q517.1553,246.0708 516.5244,246.0708 Q515.1797,246.0708 514.4949,247.1375 Q513.8101,248.2041 513.8101,250.3042 Q513.8101,252.396 514.4949,253.4626 Q515.1797,254.5293 516.5244,254.5293 Q517.1553,254.5293 517.7488,254.2595 Q518.3423,253.9897 518.9731,253.4087 Z " fill="#000000"/><text fill="#000000" font-family="sans-serif" font-size="14" lengthAdjust="spacing" textLength="187" x="530" y="255.7793">MultiSelectGroupController</text><line style="stroke:#181818;stroke-width:0.5;" x1="502" x2="719" y1="266.4883" y2="266.4883"/><line style="stroke:#181818;stroke-width:0.5;" x1="502" x2="719" y1="274.4883" y2="274.4883"/></g><!--class SingleSelectGroupController--><g id="elem_SingleSelectGroupController"><rect fill="#F1F1F1" height="48" id="SingleSelectGroupController" rx="2.5" ry="2.5" style="stroke:#181818;stroke-width:0.5;" width="227" x="497" y="317.4883"/><ellipse cx="512" cy="333.4883" fill="#ADD1B2" rx="11" ry="11" style="stroke:#181818;stroke-width:1.0;"/><path d="M514.9731,339.1313 Q514.3921,339.4302 513.7529,339.5796 Q513.1138,339.729 512.4082,339.729 Q509.9014,339.729 508.5815,338.0771 Q507.2617,336.4253 507.2617,333.3042 Q507.2617,330.1748 508.5815,328.5229 Q509.9014,326.8711 512.4082,326.8711 Q513.1138,326.8711 513.7612,327.0205 Q514.4087,327.1699 514.9731,327.4688 L514.9731,330.1914 Q514.3423,329.6104 513.7488,329.3406 Q513.1553,329.0708 512.5244,329.0708 Q511.1797,329.0708 510.4949,330.1375 Q509.8101,331.2041 509.8101,333.3042 Q509.8101,335.396 510.4949,336.4626 Q511.1797,337.5293 512.5244,337.5293 Q513.1553,337.5293 513.7488,337.2595 Q514.3423,336.9897 514.9731,336.4087 Z " fill="#000000"/><text fill="#000000" font-family="sans-serif" font-size="14" lengthAdjust="spacing" textLength="195" x="526" y="338.7793">SingleSelectGroupController</text><line style="stroke:#181818;stroke-width:0.5;" x1="498" x2="723" y1="349.4883" y2="349.4883"/><line style="stroke:#181818;stroke-width:0.5;" x1="498" x2="723" y1="357.4883" y2="357.4883"/></g><!--class GroupController--><g id="elem_GroupController"><rect codeLine="29" fill="#F1F1F1" height="48" id="GroupController" rx="2.5" ry="2.5" style="stroke:#181818;stroke-width:0.5;" width="145" x="292" y="276.4883"/><ellipse cx="307" cy="292.4883" fill="#B4A7E5" rx="11" ry="11" style="stroke:#181818;stroke-width:1.0;"/><path d="M302.9277,288.2534 L302.9277,286.0952 L310.3071,286.0952 L310.3071,288.2534 L307.8418,288.2534 L307.8418,296.3301 L310.3071,296.3301 L310.3071,298.4883 L302.9277,298.4883 L302.9277,296.3301 L305.3931,296.3301 L305.3931,288.2534 Z " fill="#000000"/><text fill="#000000" font-family="sans-serif" font-size="14" font-style="italic" lengthAdjust="spacing" textLength="113" x="321" y="297.7793">GroupController</text><line style="stroke:#181818;stroke-width:0.5;" x1="293" x2="436" y1="308.4883" y2="308.4883"/><line style="stroke:#181818;stroke-width:0.5;" x1="293" x2="436" y1="316.4883" y2="316.4883"/></g><!--class GroupControllerActions--><g id="elem_GroupControllerActions"><rect codeLine="30" fill="#F1F1F1" height="48" id="GroupControllerActions" rx="2.5" ry="2.5" style="stroke:#181818;stroke-width:0.5;" width="196" x="512.5" y="400.4883"/><ellipse cx="527.5" cy="416.4883" fill="#B4A7E5" rx="11" ry="11" style="stroke:#181818;stroke-width:1.0;"/><path d="M523.4277,412.2534 L523.4277,410.0952 L530.8071,410.0952 L530.8071,412.2534 L528.3418,412.2534 L528.3418,420.3301 L530.8071,420.3301 L530.8071,422.4883 L523.4277,422.4883 L523.4277,420.3301 L525.8931,420.3301 L525.8931,412.2534 Z " fill="#000000"/><text fill="#000000" font-family="sans-serif" font-size="14" font-style="italic" lengthAdjust="spacing" textLength="164" x="541.5" y="421.7793">GroupControllerActions</text><line style="stroke:#181818;stroke-width:0.5;" x1="513.5" x2="707.5" y1="432.4883" y2="432.4883"/><line style="stroke:#181818;stroke-width:0.5;" x1="513.5" x2="707.5" y1="440.4883" y2="440.4883"/></g><!--class DatabaseViewRevisionEditor--><g id="elem_DatabaseViewRevisionEditor"><rect fill="#F1F1F1" height="48" id="DatabaseViewRevisionEditor" rx="2.5" ry="2.5" style="stroke:#181818;stroke-width:0.5;" width="225" x="7" y="276.4883"/><ellipse cx="22" cy="292.4883" fill="#ADD1B2" rx="11" ry="11" style="stroke:#181818;stroke-width:1.0;"/><path d="M24.9731,298.1313 Q24.3921,298.4302 23.7529,298.5796 Q23.1138,298.729 22.4082,298.729 Q19.9014,298.729 18.5815,297.0771 Q17.2617,295.4253 17.2617,292.3042 Q17.2617,289.1748 18.5815,287.5229 Q19.9014,285.8711 22.4082,285.8711 Q23.1138,285.8711 23.7612,286.0205 Q24.4087,286.1699 24.9731,286.4688 L24.9731,289.1914 Q24.3423,288.6104 23.7488,288.3406 Q23.1553,288.0708 22.5244,288.0708 Q21.1797,288.0708 20.4949,289.1375 Q19.8101,290.2041 19.8101,292.3042 Q19.8101,294.396 20.4949,295.4626 Q21.1797,296.5293 22.5244,296.5293 Q23.1553,296.5293 23.7488,296.2595 Q24.3423,295.9897 24.9731,295.4087 Z " fill="#000000"/><text fill="#000000" font-family="sans-serif" font-size="14" lengthAdjust="spacing" textLength="193" x="36" y="297.7793">DatabaseViewRevisionEditor</text><line style="stroke:#181818;stroke-width:0.5;" x1="8" x2="231" y1="308.4883" y2="308.4883"/><line style="stroke:#181818;stroke-width:0.5;" x1="8" x2="231" y1="316.4883" y2="316.4883"/></g><!--reverse link GroupGenerator to CheckboxGroupGenerator--><g id="link_GroupGenerator_CheckboxGroupGenerator"><path codeLine="7" d="M1299.27,155.0583 C1336.97,140.7083 1380.45,124.2383 1420,109.4883 C1434.45,104.0983 1449.98,98.3683 1464.73,92.9683 " fill="none" id="GroupGenerator-backto-CheckboxGroupGenerator" style="stroke:#181818;stroke-width:1.0;"/><polygon fill="none" points="1301.88,161.5583,1280.69,162.1383,1296.89,148.4783,1301.88,161.5583" style="stroke:#181818;stroke-width:1.0;"/></g><!--reverse link GroupGenerator to MultiSelectGroupGenerator--><g id="link_GroupGenerator_MultiSelectGroupGenerator"><path codeLine="8" d="M1300.59,180.1983 C1339.39,175.3783 1384.02,169.8483 1423.66,164.9283 " fill="none" id="GroupGenerator-backto-MultiSelectGroupGenerator" style="stroke:#181818;stroke-width:1.0;"/><polygon fill="none" points="1301.62,187.1183,1280.91,182.6383,1299.89,173.2283,1301.62,187.1183" style="stroke:#181818;stroke-width:1.0;"/></g><!--reverse link GroupGenerator to SingleSelectGroupGenerator--><g id="link_GroupGenerator_SingleSelectGroupGenerator"><path codeLine="9" d="M1300.75,205.0983 C1338.18,209.8583 1381.02,215.2983 1419.57,220.1983 " fill="none" id="GroupGenerator-backto-SingleSelectGroupGenerator" style="stroke:#181818;stroke-width:1.0;"/><polygon fill="none" points="1299.86,212.0483,1280.91,202.5783,1301.63,198.1583,1299.86,212.0483" style="stroke:#181818;stroke-width:1.0;"/></g><!--reverse link GroupGenerator to URLGroupGenerator--><g id="link_GroupGenerator_URLGroupGenerator"><path codeLine="10" d="M1299.61,219.8983 C1319.87,226.5383 1340.85,234.1583 1360,242.4883 C1388.1,254.7183 1392.18,263.6183 1420,276.4883 C1432.69,282.3583 1446.47,287.9783 1459.89,293.0783 " fill="none" id="GroupGenerator-backto-URLGroupGenerator" style="stroke:#181818;stroke-width:1.0;"/><polygon fill="none" points="1297.68,226.6283,1280.72,213.9183,1301.9,213.2783,1297.68,226.6283" style="stroke:#181818;stroke-width:1.0;"/></g><!--link GenericGroupController to GroupGenerator--><g id="link_GenericGroupController_GroupGenerator"><path codeLine="20" d="M981.32,238.0583 C1024.25,229.0883 1074.15,218.6683 1115.38,210.0583 " fill="none" id="GenericGroupController-to-GroupGenerator" style="stroke:#181818;stroke-width:1.0;"/><polygon fill="#181818" points="1120.18,209.0583,1110.549,206.9982,1115.2873,210.0883,1112.1971,214.8266,1120.18,209.0583" style="stroke:#181818;stroke-width:1.0;"/></g><!--link GenericGroupController to GroupCustomize--><g id="link_GenericGroupController_GroupCustomize"><path codeLine="21" d="M981.32,278.9183 C998.26,282.4583 1016.28,286.2183 1034.42,290.0083 " fill="none" id="GenericGroupController-to-GroupCustomize" style="stroke:#181818;stroke-width:1.0;"/><polygon fill="#181818" points="1039.1,290.9883,1031.0976,285.247,1034.2038,289.9748,1029.476,293.0809,1039.1,290.9883" style="stroke:#181818;stroke-width:1.0;"/></g><!--link CheckboxGroupController to GenericGroupController--><g id="link_CheckboxGroupController_GenericGroupController"><path codeLine="24" d="M691.05,199.9383 C724,210.0683 762.28,221.8383 795.84,232.1583 " fill="none" id="CheckboxGroupController-to-GenericGroupController" style="stroke:#181818;stroke-width:1.0;"/><polygon fill="#181818" points="800.61,233.6183,793.183,227.15,795.8308,232.1489,790.8319,234.7967,800.61,233.6183" style="stroke:#181818;stroke-width:1.0;"/></g><!--link MultiSelectGroupController to GenericGroupController--><g id="link_MultiSelectGroupController_GenericGroupController"><path codeLine="25" d="M720.15,258.4883 C738.98,258.4883 758.52,258.4883 777.22,258.4883 " fill="none" id="MultiSelectGroupController-to-GenericGroupController" style="stroke:#181818;stroke-width:1.0;"/><polygon fill="#181818" points="782.02,258.4883,773.02,254.4883,777.02,258.4883,773.02,262.4883,782.02,258.4883" style="stroke:#181818;stroke-width:1.0;"/></g><!--link SingleSelectGroupController to GenericGroupController--><g id="link_SingleSelectGroupController_GenericGroupController"><path codeLine="26" d="M691.05,317.0383 C724,306.9083 762.28,295.1383 795.84,284.8183 " fill="none" id="SingleSelectGroupController-to-GenericGroupController" style="stroke:#181818;stroke-width:1.0;"/><polygon fill="#181818" points="800.61,283.3583,790.8319,282.1799,795.8308,284.8277,793.183,289.8266,800.61,283.3583" style="stroke:#181818;stroke-width:1.0;"/></g><!--link GroupController to GroupControllerActions--><g id="link_GroupController_GroupControllerActions"><path codeLine="31" d="M399.76,324.9683 C425.63,342.7383 462.46,366.5383 497,383.4883 C507.33,388.5583 518.45,393.3483 529.54,397.7483 " fill="none" id="GroupController-to-GroupControllerActions" style="stroke:#181818;stroke-width:1.0;"/><polygon fill="#181818" points="533.92,399.4683,526.9859,392.4741,529.2611,397.6533,524.0819,399.9285,533.92,399.4683" style="stroke:#181818;stroke-width:1.0;"/></g><!--reverse link GroupController to CheckboxGroupController--><g id="link_GroupController_CheckboxGroupController"><path codeLine="33" d="M416.92,263.9283 C440.6,248.0783 469.5,230.0783 497,216.4883 C509.11,210.4983 522.33,204.9083 535.3,199.9083 " fill="none" id="GroupController-backto-CheckboxGroupController" style="stroke:#181818;stroke-width:1.0;"/><polygon fill="none" points="420.89,269.6983,400.42,275.2083,412.99,258.1383,420.89,269.6983" style="stroke:#181818;stroke-width:1.0;"/></g><!--reverse link GroupController to MultiSelectGroupController--><g id="link_GroupController_MultiSelectGroupController"><path codeLine="34" d="M458.48,284.4883 C472.24,282.1183 486.53,279.6583 500.58,277.2383 " fill="none" id="GroupController-backto-MultiSelectGroupController" style="stroke:#181818;stroke-width:1.0;"/><polygon fill="none" points="459.78,291.3583,438.88,287.8583,457.4,277.5683,459.78,291.3583" style="stroke:#181818;stroke-width:1.0;"/></g><!--reverse link GroupController to SingleSelectGroupController--><g id="link_GroupController_SingleSelectGroupController"><path codeLine="35" d="M458.18,316.0583 C470.84,318.1883 483.96,320.3883 496.93,322.5683 " fill="none" id="GroupController-backto-SingleSelectGroupController" style="stroke:#181818;stroke-width:1.0;"/><polygon fill="none" points="457.44,323.0383,438.88,312.8183,459.76,309.2283,457.44,323.0383" style="stroke:#181818;stroke-width:1.0;"/></g><!--link DatabaseViewRevisionEditor to GroupController--><g id="link_DatabaseViewRevisionEditor_GroupController"><path codeLine="36" d="M232.4,300.4883 C250.37,300.4883 268.62,300.4883 285.57,300.4883 " fill="none" id="DatabaseViewRevisionEditor-to-GroupController" style="stroke:#181818;stroke-width:1.0;"/><polygon fill="#181818" points="290.24,300.4883,281.24,296.4883,285.24,300.4883,281.24,304.4883,290.24,300.4883" style="stroke:#181818;stroke-width:1.0;"/></g><!--SRC=[ZLF1JiCm3BtdAtA4Gty12GRQ1IwRu1fbgTTQPCdak2q2-kzqZRH1seuSBR_d-BtdCB85-U0rbR95wAInEWG8miAU9Nj9MDKiIoGmZDu9T0oqrmRacdnpN8C3qkn9VeczarKiGLMdPhYv5RqGgnhC-yv_98IYARxlaYdYfR6CMx33QpdmBRhAGZx-TVES0qjLhfh0_e2V45KQxQB0GT-f93XBLbqDJXcmLfbQkmhAYD5bgJmfWeDlGP7lbe0NHAn_LRqOmv5oN1HDNCqx9cyj30dqOg5J51E9_o7FaaKIO0gUdJF9COyrYJEFDithZocBpVlnfCDetA8FAVgA7PTJodHYbd3LX5d6esQzqm7UXW-yWHR3iETJYUDvJtNy0000]--></g></svg>