<?xml version="1.0" encoding="UTF-8" standalone="no"?><svg xmlns="http://www.w3.org/2000/svg" xmlns:xlink="http://www.w3.org/1999/xlink" contentStyleType="text/css" height="521px" preserveAspectRatio="none" style="width:631px;height:521px;background:#FFFFFF;" version="1.1" viewBox="0 0 631 521" width="631px" zoomAndPan="magnify"><defs/><g><rect fill="none" height="29.1201" id="_title" style="stroke:none;stroke-width:1.0;" width="154" x="231.5" y="5"/><text fill="#000000" font-family="sans-serif" font-size="14" font-weight="bold" lengthAdjust="spacing" textLength="144" x="236.5" y="26.0439">Database Views DDD</text><!--MD5=[999f80192410ad58725ac6d158b21eb2]
cluster Views--><g id="cluster_Views"><polygon fill="none" points="16,56.1201,26,46.1201,614,46.1201,614,144.1201,604,154.1201,16,154.1201,16,56.1201" style="stroke:#181818;stroke-width:1.0;"/><line style="stroke:#181818;stroke-width:1.0;" x1="604" x2="614" y1="56.1201" y2="46.1201"/><line style="stroke:#181818;stroke-width:1.0;" x1="16" x2="604" y1="56.1201" y2="56.1201"/><line style="stroke:#181818;stroke-width:1.0;" x1="604" x2="604" y1="56.1201" y2="154.1201"/><text fill="#000000" font-family="sans-serif" font-size="14" font-weight="bold" lengthAdjust="spacing" textLength="41" x="290.5" y="75.1641">Views</text></g><!--MD5=[815249f79c2c08157ac02b3106e03757]
cluster Database--><g id="cluster_Database"><polygon fill="none" points="232,188.1201,242,178.1201,429,178.1201,429,494.1201,419,504.1201,232,504.1201,232,188.1201" style="stroke:#181818;stroke-width:1.0;"/><line style="stroke:#181818;stroke-width:1.0;" x1="419" x2="429" y1="188.1201" y2="178.1201"/><line style="stroke:#181818;stroke-width:1.0;" x1="232" x2="419" y1="188.1201" y2="188.1201"/><line style="stroke:#181818;stroke-width:1.0;" x1="419" x2="419" y1="188.1201" y2="504.1201"/><text fill="#000000" font-family="sans-serif" font-size="14" font-weight="bold" lengthAdjust="spacing" textLength="65" x="294" y="207.1641">Database</text></g><!--MD5=[4836a1356ff48122381489de02a11dbd]
entity Presentation_Grid--><g id="elem_Presentation_Grid"><rect fill="#DDDDDD" height="49.1201" rx="2.5" ry="2.5" style="stroke:#181818;stroke-width:0.5;" width="151" x="446.5" y="89.1201"/><rect fill="#DDDDDD" height="10" style="stroke:#181818;stroke-width:0.5;" width="15" x="577.5" y="94.1201"/><rect fill="#DDDDDD" height="2" style="stroke:#181818;stroke-width:0.5;" width="4" x="575.5" y="96.1201"/><rect fill="#DDDDDD" height="2" style="stroke:#181818;stroke-width:0.5;" width="4" x="575.5" y="100.1201"/><text fill="#000000" font-family="sans-serif" font-size="14" lengthAdjust="spacing" textLength="111" x="461.5" y="125.1641">Grid Presentation</text></g><!--MD5=[71cb00834a5c090eb5e16a77c0ff139b]
entity Presentation_Board--><g id="elem_Presentation_Board"><rect fill="#DDDDDD" height="49.1201" rx="2.5" ry="2.5" style="stroke:#181818;stroke-width:0.5;" width="162" x="249" y="89.1201"/><rect fill="#DDDDDD" height="10" style="stroke:#181818;stroke-width:0.5;" width="15" x="391" y="94.1201"/><rect fill="#DDDDDD" height="2" style="stroke:#181818;stroke-width:0.5;" width="4" x="389" y="96.1201"/><rect fill="#DDDDDD" height="2" style="stroke:#181818;stroke-width:0.5;" width="4" x="389" y="100.1201"/><text fill="#000000" font-family="sans-serif" font-size="14" lengthAdjust="spacing" textLength="122" x="264" y="125.1641">Board Presentation</text></g><!--MD5=[0c737f7d585405d60b1141c7212dc172]
entity Presentation_Calendar--><g id="elem_Presentation_Calendar"><rect fill="#DDDDDD" height="49.1201" rx="2.5" ry="2.5" style="stroke:#181818;stroke-width:0.5;" width="182" x="32" y="89.1201"/><rect fill="#DDDDDD" height="10" style="stroke:#181818;stroke-width:0.5;" width="15" x="194" y="94.1201"/><rect fill="#DDDDDD" height="2" style="stroke:#181818;stroke-width:0.5;" width="4" x="192" y="96.1201"/><rect fill="#DDDDDD" height="2" style="stroke:#181818;stroke-width:0.5;" width="4" x="192" y="100.1201"/><text fill="#000000" font-family="sans-serif" font-size="14" lengthAdjust="spacing" textLength="142" x="47" y="125.1641">Calendar Presentation</text></g><!--MD5=[e5b7da8fa23ec8cac7d321a34f6e9ee1]
entity Application--><g id="elem_Application"><rect fill="#DDDDDD" height="49.1201" rx="2.5" ry="2.5" style="stroke:#181818;stroke-width:0.5;" width="149" x="255.5" y="221.1201"/><rect fill="#DDDDDD" height="10" style="stroke:#181818;stroke-width:0.5;" width="15" x="384.5" y="226.1201"/><rect fill="#DDDDDD" height="2" style="stroke:#181818;stroke-width:0.5;" width="4" x="382.5" y="228.1201"/><rect fill="#DDDDDD" height="2" style="stroke:#181818;stroke-width:0.5;" width="4" x="382.5" y="232.1201"/><text fill="#000000" font-family="sans-serif" font-size="14" lengthAdjust="spacing" textLength="109" x="270.5" y="257.1641">Application Layer</text></g><!--MD5=[2fb3fc8e03cad589fa238654c03a9f58]
entity Domain--><g id="elem_Domain"><rect fill="#DDDDDD" height="49.1201" rx="2.5" ry="2.5" style="stroke:#181818;stroke-width:0.5;" width="128" x="248" y="330.1201"/><rect fill="#DDDDDD" height="10" style="stroke:#181818;stroke-width:0.5;" width="15" x="356" y="335.1201"/><rect fill="#DDDDDD" height="2" style="stroke:#181818;stroke-width:0.5;" width="4" x="354" y="337.1201"/><rect fill="#DDDDDD" height="2" style="stroke:#181818;stroke-width:0.5;" width="4" x="354" y="341.1201"/><text fill="#000000" font-family="sans-serif" font-size="14" lengthAdjust="spacing" textLength="88" x="263" y="366.1641">Domain Layer</text></g><!--MD5=[625fed884dd9f0f64d754593d4b59540]
entity Infrastructure--><g id="elem_Infrastructure"><rect fill="#DDDDDD" height="49.1201" rx="2.5" ry="2.5" style="stroke:#181818;stroke-width:0.5;" width="164" x="248" y="439.1201"/><rect fill="#DDDDDD" height="10" style="stroke:#181818;stroke-width:0.5;" width="15" x="392" y="444.1201"/><rect fill="#DDDDDD" height="2" style="stroke:#181818;stroke-width:0.5;" width="4" x="390" y="446.1201"/><rect fill="#DDDDDD" height="2" style="stroke:#181818;stroke-width:0.5;" width="4" x="390" y="450.1201"/><text fill="#000000" font-family="sans-serif" font-size="14" lengthAdjust="spacing" textLength="124" x="263" y="475.1641">Infrastructure Layer</text></g><!--MD5=[539f3009d3e7d90ca8f47fc41e02c459]
link Presentation_Grid to Application--><g id="link_Presentation_Grid_Application"><path d="M522,138.2301 C522,176.5501 522,246.1201 522,246.1201 C522,246.1201 409.51,246.1201 409.51,246.1201 " fill="none" id="Presentation_Grid-to-Application" style="stroke:#181818;stroke-width:1.0;stroke-dasharray:7.0,7.0;"/><polygon fill="#181818" points="404.51,246.1201,413.51,250.1201,409.51,246.1201,413.51,242.1201,404.51,246.1201" style="stroke:#181818;stroke-width:1.0;"/></g><!--MD5=[a082df95e9ee6a4defc516f39a70e321]
link Presentation_Board to Application--><g id="link_Presentation_Board_Application"><path d="M330,138.1401 C330,138.1401 330,215.7801 330,215.7801 " fill="none" id="Presentation_Board-to-Application" style="stroke:#181818;stroke-width:1.0;stroke-dasharray:7.0,7.0;"/><polygon fill="#181818" points="330,220.7801,334,211.7801,330,215.7801,326,211.7801,330,220.7801" style="stroke:#181818;stroke-width:1.0;"/></g><!--MD5=[5a6b06c38383fe3732272f9a2e99c2d3]
link Presentation_Calendar to Application--><g id="link_Presentation_Calendar_Application"><path d="M123,138.2301 C123,176.5501 123,246.1201 123,246.1201 C123,246.1201 250.27,246.1201 250.27,246.1201 " fill="none" id="Presentation_Calendar-to-Application" style="stroke:#181818;stroke-width:1.0;stroke-dasharray:7.0,7.0;"/><polygon fill="#181818" points="255.27,246.1201,246.27,242.1201,250.27,246.1201,246.27,250.1201,255.27,246.1201" style="stroke:#181818;stroke-width:1.0;"/></g><!--MD5=[31a8011ae9e62fa2c80ea31701489b76]
link Application to Domain--><g id="link_Application_Domain"><path d="M315.75,270.3501 C315.75,270.3501 315.75,324.9801 315.75,324.9801 " fill="none" id="Application-to-Domain" style="stroke:#181818;stroke-width:1.0;stroke-dasharray:7.0,7.0;"/><polygon fill="#181818" points="315.75,329.9801,319.75,320.9801,315.75,324.9801,311.75,320.9801,315.75,329.9801" style="stroke:#181818;stroke-width:1.0;"/></g><!--MD5=[7704df2bdc97cbb63801c3fb30b0cbe9]
link Application to Infrastructure--><g id="link_Application_Infrastructure"><path d="M390.25,270.2001 C390.25,270.2001 390.25,433.7901 390.25,433.7901 " fill="none" id="Application-to-Infrastructure" style="stroke:#181818;stroke-width:1.0;stroke-dasharray:7.0,7.0;"/><polygon fill="#181818" points="390.25,438.7901,394.25,429.7901,390.25,433.7901,386.25,429.7901,390.25,438.7901" style="stroke:#181818;stroke-width:1.0;"/></g><!--MD5=[073eb197ee12ef35908486e38d0d452c]
reverse link Domain to Infrastructure--><g id="link_Domain_Infrastructure"><path d="M312,384.3501 C312,384.3501 312,438.9801 312,438.9801 " fill="none" id="Domain-backto-Infrastructure" style="stroke:#181818;stroke-width:1.0;stroke-dasharray:7.0,7.0;"/><polygon fill="#181818" points="312,379.3501,308,388.3501,312,384.3501,316,388.3501,312,379.3501" style="stroke:#181818;stroke-width:1.0;"/></g><!--MD5=[61caab74288296baa11f6b7368b7b86e]
@startuml
title "Database Views DDD"
top to bottom direction
skinparam linetype ortho

node "Views" {
    component Presentation_Grid as "Grid Presentation" #DDDDDD
    component Presentation_Board as "Board Presentation" #DDDDDD
    component Presentation_Calendar as "Calendar Presentation" #DDDDDD
}
node "Database" {
    component Application as "Application Layer" #DDDDDD
    component Domain as "Domain Layer" #DDDDDD
    component Infrastructure as "Infrastructure Layer" #DDDDDD
}

Presentation_Grid ..> Application
Presentation_Board ..> Application
Presentation_Calendar ..> Application
Application ..> Domain
Application ..> Infrastructure
Domain <.. Infrastructure
@enduml

PlantUML version 1.2022.12(Mon Oct 24 02:12:26 CST 2022)
(GPL source distribution)
Java Runtime: OpenJDK Runtime Environment
JVM: OpenJDK 64-Bit Server VM
Default Encoding: GBK
Language: zh
Country: CN
--></g></svg>