<?xml version="1.0" encoding="UTF-8" standalone="no"?><svg xmlns="http://www.w3.org/2000/svg" xmlns:xlink="http://www.w3.org/1999/xlink" contentStyleType="text/css" height="271px" preserveAspectRatio="none" style="width:546px;height:271px;background:#FFFFFF;" version="1.1" viewBox="0 0 546 271" width="546px" zoomAndPan="magnify"><defs/><g><text fill="#000000" font-family="sans-serif" font-size="14" font-weight="bold" lengthAdjust="spacing" textLength="161" x="185.925" y="23.5352">Events &amp; Notifications</text><!--cluster Database Views--><g id="cluster_Database Views"><polygon fill="none" points="99.85,53.4883,109.85,43.4883,453.85,43.4883,453.85,135.4883,443.85,145.4883,99.85,145.4883,99.85,53.4883" style="stroke:#181818;stroke-width:1.0;"/><line style="stroke:#181818;stroke-width:1.0;" x1="443.85" x2="453.85" y1="53.4883" y2="43.4883"/><line style="stroke:#181818;stroke-width:1.0;" x1="99.85" x2="443.85" y1="53.4883" y2="53.4883"/><line style="stroke:#181818;stroke-width:1.0;" x1="443.85" x2="443.85" y1="53.4883" y2="145.4883"/><text fill="#000000" font-family="sans-serif" font-size="14" font-weight="bold" lengthAdjust="spacing" textLength="114" x="215.85" y="70.0234">Database Views</text></g><!--entity Grid--><g id="elem_Grid"><rect fill="#DDDDDD" height="46.4883" rx="2.5" ry="2.5" style="stroke:#181818;stroke-width:0.5;" width="69" x="253.35" y="83.4883"/><rect fill="#DDDDDD" height="10" style="stroke:#181818;stroke-width:0.5;" width="15" x="302.35" y="88.4883"/><rect fill="#DDDDDD" height="2" style="stroke:#181818;stroke-width:0.5;" width="4" x="300.35" y="90.4883"/><rect fill="#DDDDDD" height="2" style="stroke:#181818;stroke-width:0.5;" width="4" x="300.35" y="94.4883"/><text fill="#000000" font-family="sans-serif" font-size="14" lengthAdjust="spacing" textLength="29" x="268.35" y="117.0234">Grid</text></g><!--entity Board--><g id="elem_Board"><rect fill="#DDDDDD" height="46.4883" rx="2.5" ry="2.5" style="stroke:#181818;stroke-width:0.5;" width="80" x="357.85" y="83.4883"/><rect fill="#DDDDDD" height="10" style="stroke:#181818;stroke-width:0.5;" width="15" x="417.85" y="88.4883"/><rect fill="#DDDDDD" height="2" style="stroke:#181818;stroke-width:0.5;" width="4" x="415.85" y="90.4883"/><rect fill="#DDDDDD" height="2" style="stroke:#181818;stroke-width:0.5;" width="4" x="415.85" y="94.4883"/><text fill="#000000" font-family="sans-serif" font-size="14" lengthAdjust="spacing" textLength="40" x="372.85" y="117.0234">Board</text></g><!--entity Calendar--><g id="elem_Calendar"><rect fill="#DDDDDD" height="46.4883" rx="2.5" ry="2.5" style="stroke:#181818;stroke-width:0.5;" width="102" x="115.85" y="83.4883"/><rect fill="#DDDDDD" height="10" style="stroke:#181818;stroke-width:0.5;" width="15" x="197.85" y="88.4883"/><rect fill="#DDDDDD" height="2" style="stroke:#181818;stroke-width:0.5;" width="4" x="195.85" y="90.4883"/><rect fill="#DDDDDD" height="2" style="stroke:#181818;stroke-width:0.5;" width="4" x="195.85" y="94.4883"/><text fill="#000000" font-family="sans-serif" font-size="14" lengthAdjust="spacing" textLength="62" x="130.85" y="117.0234">Calendar</text></g><!--entity Database--><g id="elem_Database"><polygon fill="#F1F1F1" points="214.35,218.4883,224.35,208.4883,317.35,208.4883,317.35,244.9766,307.35,254.9766,214.35,254.9766,214.35,218.4883" style="stroke:#181818;stroke-width:0.5;"/><line style="stroke:#181818;stroke-width:0.5;" x1="307.35" x2="317.35" y1="218.4883" y2="208.4883"/><line style="stroke:#181818;stroke-width:0.5;" x1="214.35" x2="307.35" y1="218.4883" y2="218.4883"/><line style="stroke:#181818;stroke-width:0.5;" x1="307.35" x2="307.35" y1="218.4883" y2="254.9766"/><text fill="#000000" font-family="sans-serif" font-size="14" lengthAdjust="spacing" textLength="63" x="229.35" y="242.0234">Database</text></g><!--link Grid to Database--><g id="link_Grid_Database"><path d="M263.4,129.9783 C254.84,137.6183 245.06,146.0883 235.85,153.4883 C231.13,157.2683 227.59,156.0983 224.85,161.4883 C217.65,175.6283 224.97,190.8483 235.31,203.3783 " fill="none" id="Grid-to-Database" style="stroke:#FF0000;stroke-width:1.0;stroke-dasharray:7.0,7.0;"/><polygon fill="#FF0000" points="238.57,207.0783,235.6361,197.6766,235.2704,203.3216,229.6254,202.9559,238.57,207.0783" style="stroke:#FF0000;stroke-width:1.0;"/><text fill="#000000" font-family="sans-serif" font-size="13" lengthAdjust="spacing" textLength="34" x="225.85" y="175.0566">Event</text></g><!--link Database to Grid--><g id="link_Database_Grid"><path d="M269.8,208.3783 C273.42,188.1483 278.8,158.0883 282.74,136.0383 " fill="none" id="Database-to-Grid" style="stroke:#0000FF;stroke-width:1.0;"/><polygon fill="#0000FF" points="283.6,131.2483,278.0941,139.4144,282.7294,136.1719,285.9719,140.8073,283.6,131.2483" style="stroke:#0000FF;stroke-width:1.0;"/><text fill="#000000" font-family="sans-serif" font-size="13" lengthAdjust="spacing" textLength="75" x="278.85" y="175.0566">Notification</text></g><!--link Board to Database--><g id="link_Board_Database"><path d="M438.17,118.4383 C474.92,130.4183 520.43,151.5583 498.85,178.4883 C477.33,205.3383 385.7,219.2383 323.96,225.6883 " fill="none" id="Board-to-Database" style="stroke:#FF0000;stroke-width:1.0;stroke-dasharray:7.0,7.0;"/><polygon fill="#FF0000" points="319.22,226.1683,328.5838,229.221,324.1935,225.6538,327.7606,221.2634,319.22,226.1683" style="stroke:#FF0000;stroke-width:1.0;"/><text fill="#000000" font-family="sans-serif" font-size="13" lengthAdjust="spacing" textLength="34" x="504.85" y="175.0566">Event</text></g><!--link Database to Board--><g id="link_Database_Board"><path d="M317.72,210.1483 C333.62,202.0683 350.23,191.5383 362.85,178.4883 C374.46,166.4683 382.94,149.8483 388.64,135.7083 " fill="none" id="Database-to-Board" style="stroke:#0000FF;stroke-width:1.0;"/><polygon fill="#0000FF" points="390.37,131.2283,383.3944,138.181,388.5674,135.8921,390.8564,141.0651,390.37,131.2283" style="stroke:#0000FF;stroke-width:1.0;"/><text fill="#000000" font-family="sans-serif" font-size="13" lengthAdjust="spacing" textLength="75" x="374.85" y="175.0566">Notification</text></g><!--link Calendar to Database--><g id="link_Calendar_Database"><path d="M165.55,129.7483 C165.75,144.7183 168.19,164.2383 177.85,178.4883 C185.62,189.9583 196.83,199.2583 208.66,206.6583 " fill="none" id="Calendar-to-Database" style="stroke:#FF0000;stroke-width:1.0;stroke-dasharray:7.0,7.0;"/><polygon fill="#FF0000" points="212.83,209.1583,207.1508,201.1118,208.5362,206.5963,203.0517,207.9818,212.83,209.1583" style="stroke:#FF0000;stroke-width:1.0;"/><text fill="#000000" font-family="sans-serif" font-size="13" lengthAdjust="spacing" textLength="34" x="178.85" y="175.0566">Event</text></g><!--reverse link Calendar to Database--><g id="link_Calendar_Database"><path d="M109.31,116.7783 C61.78,126.9483 6,146.2683 31.85,178.4883 C54.24,206.4083 152.18,220.2783 214.03,226.3883 " fill="none" id="Calendar-backto-Database" style="stroke:#0000FF;stroke-width:1.0;"/><polygon fill="#0000FF" points="114.17,115.7683,104.546,113.6756,109.2738,116.7818,106.1676,121.5095,114.17,115.7683" style="stroke:#0000FF;stroke-width:1.0;"/><text fill="#000000" font-family="sans-serif" font-size="13" lengthAdjust="spacing" textLength="75" x="32.85" y="175.0566">Notification</text></g><!--SRC=[bP2n3e8m48RtFiMb96xu00mCYd5pT24CXPv9az8ZxQc3yTs54Y2GcEXDrxl_lln_sR15E3tGSO0TN8ZDpJIA3RaWc3fWWfgOgGLjF3R3GZZI2B9Gh6eL4Au6dq72Iq1V3RKTkHu7Psyqg01oQ2GaHQoDw43AZwhOVPCTbKMdbO_AwR68tsBZQN3J3wE5VPburDK-XscRZO75d20jazhUiKhpw3fR_OCGeyd_EF5c2vfZ_CAo2sowM_C-]--></g></svg>