<?xml version="1.0" encoding="UTF-8" standalone="no"?><svg xmlns="http://www.w3.org/2000/svg" xmlns:xlink="http://www.w3.org/1999/xlink" contentStyleType="text/css" height="515px" preserveAspectRatio="none" style="width:762px;height:515px;background:#FFFFFF;" version="1.1" viewBox="0 0 762 515" width="762px" zoomAndPan="magnify"><defs/><g><rect fill="none" height="29.1201" id="_title" style="stroke:none;stroke-width:1.0;" width="152" x="325.25" y="10"/><text fill="#000000" font-family="sans-serif" font-size="14" font-weight="bold" lengthAdjust="spacing" textLength="142" x="330.25" y="31.0439">Read Cell Sequence</text><rect fill="#DDDDDD" height="463.0122" style="stroke:#181818;stroke-width:0.5;" width="204.5" x="254" y="46.1201"/><text fill="#000000" font-family="sans-serif" font-size="13" font-weight="bold" lengthAdjust="spacing" textLength="128" x="292.25" y="61.0181">Get DateTypeOption</text><rect fill="#DDDDDD" height="463.0122" style="stroke:#181818;stroke-width:0.5;" width="122" x="511" y="46.1201"/><text fill="#000000" font-family="sans-serif" font-size="13" font-weight="bold" lengthAdjust="spacing" textLength="116" x="514" y="61.0181">Get Cell Raw Data</text><rect fill="#FFFFFF" height="260.0176" style="stroke:#181818;stroke-width:1.0;" width="10" x="205.5" y="157.9946"/><rect fill="#FFFFFF" height="42" style="stroke:#181818;stroke-width:1.0;" width="10" x="275.5" y="171.9946"/><rect fill="#FFFFFF" height="14" style="stroke:#181818;stroke-width:1.0;" width="10" x="390.5" y="185.9946"/><rect fill="#FFFFFF" height="76.5088" style="stroke:#181818;stroke-width:1.0;" width="10" x="390.5" y="318.5034"/><rect fill="#FFFFFF" height="76.5088" style="stroke:#181818;stroke-width:1.0;" width="10" x="567" y="227.9946"/><line style="stroke:#181818;stroke-width:0.5;stroke-dasharray:5.0,5.0;" x1="31" x2="31" y1="124.2402" y2="427.0122"/><line style="stroke:#181818;stroke-width:0.5;stroke-dasharray:5.0,5.0;" x1="210" x2="210" y1="124.2402" y2="427.0122"/><line style="stroke:#181818;stroke-width:0.5;stroke-dasharray:5.0,5.0;" x1="280" x2="280" y1="124.2402" y2="427.0122"/><line style="stroke:#181818;stroke-width:0.5;stroke-dasharray:5.0,5.0;" x1="395.5" x2="395.5" y1="124.2402" y2="427.0122"/><line style="stroke:#181818;stroke-width:0.5;stroke-dasharray:5.0,5.0;" x1="571.5" x2="571.5" y1="124.2402" y2="427.0122"/><text fill="#000000" font-family="sans-serif" font-size="14" lengthAdjust="spacing" textLength="47" x="5" y="121.1641">Reader</text><ellipse cx="31.5" cy="53.6201" fill="#E2E2F0" rx="8" ry="8" style="stroke:#181818;stroke-width:0.5;"/><path d="M31.5,61.6201 L31.5,88.6201 M18.5,69.6201 L44.5,69.6201 M31.5,88.6201 L18.5,103.6201 M31.5,88.6201 L44.5,103.6201 " fill="none" style="stroke:#181818;stroke-width:0.5;"/><text fill="#000000" font-family="sans-serif" font-size="14" lengthAdjust="spacing" textLength="47" x="5" y="442.0562">Reader</text><ellipse cx="31.5" cy="453.6323" fill="#E2E2F0" rx="8" ry="8" style="stroke:#181818;stroke-width:0.5;"/><path d="M31.5,461.6323 L31.5,488.6323 M18.5,469.6323 L44.5,469.6323 M31.5,488.6323 L18.5,503.6323 M31.5,488.6323 L44.5,503.6323 " fill="none" style="stroke:#181818;stroke-width:0.5;"/><rect fill="#E2E2F0" height="33.1201" rx="2.5" ry="2.5" style="stroke:#181818;stroke-width:0.5;" width="75" x="173" y="90.1201"/><text fill="#000000" font-family="sans-serif" font-size="14" lengthAdjust="spacing" textLength="61" x="180" y="113.1641">Database</text><rect fill="#E2E2F0" height="33.1201" rx="2.5" ry="2.5" style="stroke:#181818;stroke-width:0.5;" width="75" x="173" y="426.0122"/><text fill="#000000" font-family="sans-serif" font-size="14" lengthAdjust="spacing" textLength="61" x="180" y="449.0562">Database</text><rect fill="#E2E2F0" height="33.1201" rx="2.5" ry="2.5" style="stroke:#181818;stroke-width:0.5;" width="45" x="258" y="90.1201"/><text fill="#000000" font-family="sans-serif" font-size="14" lengthAdjust="spacing" textLength="31" x="265" y="113.1641">Field</text><rect fill="#E2E2F0" height="33.1201" rx="2.5" ry="2.5" style="stroke:#181818;stroke-width:0.5;" width="45" x="258" y="426.0122"/><text fill="#000000" font-family="sans-serif" font-size="14" lengthAdjust="spacing" textLength="31" x="265" y="449.0562">Field</text><rect fill="#E2E2F0" height="33.1201" rx="2.5" ry="2.5" style="stroke:#181818;stroke-width:0.5;" width="118" x="336.5" y="90.1201"/><text fill="#000000" font-family="sans-serif" font-size="14" lengthAdjust="spacing" textLength="104" x="343.5" y="113.1641">DateTypeOption</text><rect fill="#E2E2F0" height="33.1201" rx="2.5" ry="2.5" style="stroke:#181818;stroke-width:0.5;" width="118" x="336.5" y="426.0122"/><text fill="#000000" font-family="sans-serif" font-size="14" lengthAdjust="spacing" textLength="104" x="343.5" y="449.0562">DateTypeOption</text><rect fill="#E2E2F0" height="33.1201" rx="2.5" ry="2.5" style="stroke:#181818;stroke-width:0.5;" width="41" x="551.5" y="90.1201"/><text fill="#000000" font-family="sans-serif" font-size="14" lengthAdjust="spacing" textLength="27" x="558.5" y="113.1641">Row</text><rect fill="#E2E2F0" height="33.1201" rx="2.5" ry="2.5" style="stroke:#181818;stroke-width:0.5;" width="41" x="551.5" y="426.0122"/><text fill="#000000" font-family="sans-serif" font-size="14" lengthAdjust="spacing" textLength="27" x="558.5" y="449.0562">Row</text><rect fill="#FFFFFF" height="260.0176" style="stroke:#181818;stroke-width:1.0;" width="10" x="205.5" y="157.9946"/><rect fill="#FFFFFF" height="42" style="stroke:#181818;stroke-width:1.0;" width="10" x="275.5" y="171.9946"/><rect fill="#FFFFFF" height="14" style="stroke:#181818;stroke-width:1.0;" width="10" x="390.5" y="185.9946"/><rect fill="#FFFFFF" height="76.5088" style="stroke:#181818;stroke-width:1.0;" width="10" x="390.5" y="318.5034"/><rect fill="#FFFFFF" height="76.5088" style="stroke:#181818;stroke-width:1.0;" width="10" x="567" y="227.9946"/><polygon fill="#181818" points="193.5,153.9946,203.5,157.9946,193.5,161.9946,197.5,157.9946" style="stroke:#181818;stroke-width:1.0;"/><line style="stroke:#181818;stroke-width:1.0;stroke-dasharray:2.0,2.0;" x1="31.5" x2="199.5" y1="157.9946" y2="157.9946"/><text fill="#000000" font-family="sans-serif" font-size="13" lengthAdjust="spacing" textLength="155" x="38.5" y="153.1382">database_id,row_id,field_id</text><polygon fill="#181818" points="263.5,167.9946,273.5,171.9946,263.5,175.9946,267.5,171.9946" style="stroke:#181818;stroke-width:1.0;"/><line style="stroke:#181818;stroke-width:1.0;stroke-dasharray:2.0,2.0;" x1="215.5" x2="269.5" y1="171.9946" y2="171.9946"/><polygon fill="#181818" points="378.5,181.9946,388.5,185.9946,378.5,189.9946,382.5,185.9946" style="stroke:#181818;stroke-width:1.0;"/><line style="stroke:#181818;stroke-width:1.0;stroke-dasharray:2.0,2.0;" x1="285.5" x2="384.5" y1="185.9946" y2="185.9946"/><polygon fill="#181818" points="296.5,195.9946,286.5,199.9946,296.5,203.9946,292.5,199.9946" style="stroke:#181818;stroke-width:1.0;"/><line style="stroke:#181818;stroke-width:1.0;stroke-dasharray:2.0,2.0;" x1="290.5" x2="394.5" y1="199.9946" y2="199.9946"/><polygon fill="#181818" points="226.5,209.9946,216.5,213.9946,226.5,217.9946,222.5,213.9946" style="stroke:#181818;stroke-width:1.0;"/><line style="stroke:#181818;stroke-width:1.0;stroke-dasharray:2.0,2.0;" x1="220.5" x2="279.5" y1="213.9946" y2="213.9946"/><polygon fill="#181818" points="555,223.9946,565,227.9946,555,231.9946,559,227.9946" style="stroke:#181818;stroke-width:1.0;"/><line style="stroke:#181818;stroke-width:1.0;stroke-dasharray:2.0,2.0;" x1="215.5" x2="561" y1="227.9946" y2="227.9946"/><line style="stroke:#181818;stroke-width:1.0;stroke-dasharray:2.0,2.0;" x1="577" x2="619" y1="259.749" y2="259.749"/><line style="stroke:#181818;stroke-width:1.0;stroke-dasharray:2.0,2.0;" x1="619" x2="619" y1="259.749" y2="272.749"/><line style="stroke:#181818;stroke-width:1.0;stroke-dasharray:2.0,2.0;" x1="578" x2="619" y1="272.749" y2="272.749"/><polygon fill="#181818" points="588,268.749,578,272.749,588,276.749,584,272.749" style="stroke:#181818;stroke-width:1.0;"/><text fill="#000000" font-family="sans-serif" font-size="13" lengthAdjust="spacing" textLength="171" x="584" y="254.8926">read the cell data with field_id</text><polygon fill="#181818" points="226.5,300.5034,216.5,304.5034,226.5,308.5034,222.5,304.5034" style="stroke:#181818;stroke-width:1.0;"/><line style="stroke:#181818;stroke-width:1.0;stroke-dasharray:2.0,2.0;" x1="220.5" x2="571" y1="304.5034" y2="304.5034"/><text fill="#000000" font-family="sans-serif" font-size="13" lengthAdjust="spacing" textLength="139" x="232.5" y="299.647">returns the raw cell data</text><polygon fill="#181818" points="378.5,314.5034,388.5,318.5034,378.5,322.5034,382.5,318.5034" style="stroke:#181818;stroke-width:1.0;"/><line style="stroke:#181818;stroke-width:1.0;stroke-dasharray:2.0,2.0;" x1="215.5" x2="384.5" y1="318.5034" y2="318.5034"/><line style="stroke:#181818;stroke-width:1.0;stroke-dasharray:2.0,2.0;" x1="400.5" x2="442.5" y1="350.2578" y2="350.2578"/><line style="stroke:#181818;stroke-width:1.0;stroke-dasharray:2.0,2.0;" x1="442.5" x2="442.5" y1="350.2578" y2="363.2578"/><line style="stroke:#181818;stroke-width:1.0;stroke-dasharray:2.0,2.0;" x1="401.5" x2="442.5" y1="363.2578" y2="363.2578"/><polygon fill="#181818" points="411.5,359.2578,401.5,363.2578,411.5,367.2578,407.5,363.2578" style="stroke:#181818;stroke-width:1.0;"/><text fill="#000000" font-family="sans-serif" font-size="13" lengthAdjust="spacing" textLength="116" x="407.5" y="345.4014">Format the cell data</text><polygon fill="#181818" points="226.5,391.0122,216.5,395.0122,226.5,399.0122,222.5,395.0122" style="stroke:#181818;stroke-width:1.0;"/><line style="stroke:#181818;stroke-width:1.0;stroke-dasharray:2.0,2.0;" x1="220.5" x2="394.5" y1="395.0122" y2="395.0122"/><text fill="#000000" font-family="sans-serif" font-size="13" lengthAdjust="spacing" textLength="151" x="232.5" y="390.1558">returns formatted cell data</text><polygon fill="#181818" points="42.5,405.0122,32.5,409.0122,42.5,413.0122,38.5,409.0122" style="stroke:#181818;stroke-width:1.0;"/><line style="stroke:#181818;stroke-width:1.0;stroke-dasharray:2.0,2.0;" x1="36.5" x2="204.5" y1="409.0122" y2="409.0122"/><!--MD5=[69a2987279e5464ea12ffecad853114a]
@startuml
title "Read Cell Sequence"
actor Reader
Reader - -> Database: database_id,row_id,field_id
activate Database

box "Get DateTypeOption"
Database - -> Field
activate Field

Field - -> DateTypeOption
activate DateTypeOption

DateTypeOption - -> Field
deactivate DateTypeOption
end box

Field - -> Database
deactivate Field

box "Get Cell Raw Data"
Database - -> Row
activate Row
Row - -> Row: read the cell data with field_id
Row - -> Database: returns the raw cell data
deactivate Row
end box

Database - -> DateTypeOption
activate DateTypeOption
DateTypeOption - -> DateTypeOption: Format the cell data
DateTypeOption - -> Database: returns formatted cell data
deactivate DateTypeOption
Database - -> Reader
@enduml

PlantUML version 1.2022.12(Mon Oct 24 02:12:26 CST 2022)
(GPL source distribution)
Java Runtime: OpenJDK Runtime Environment
JVM: OpenJDK 64-Bit Server VM
Default Encoding: GBK
Language: zh
Country: CN
--></g></svg>