<?xml version="1.0" encoding="UTF-8" standalone="no"?><svg xmlns="http://www.w3.org/2000/svg" xmlns:xlink="http://www.w3.org/1999/xlink" contentStyleType="text/css" height="507px" preserveAspectRatio="none" style="width:1312px;height:507px;background:#FFFFFF;" version="1.1" viewBox="0 0 1312 507" width="1312px" zoomAndPan="magnify"><defs/><g><!--MD5=[57efef740ff267ec24374a3accdf0f52]
class Attributes--><g id="elem_Attributes"><rect codeLine="7" fill="#F1F1F1" height="48" id="Attributes" rx="2.5" ry="2.5" style="stroke:#181818;stroke-width:0.5;" width="105" x="968.5" y="90"/><ellipse cx="983.5" cy="106" fill="#B4A7E5" rx="11" ry="11" style="stroke:#181818;stroke-width:1.0;"/><path d="M979.9277,102.2651 L979.9277,100.1069 L987.3071,100.1069 L987.3071,102.2651 L984.8418,102.2651 L984.8418,110.3418 L987.3071,110.3418 L987.3071,112.5 L979.9277,112.5 L979.9277,110.3418 L982.3931,110.3418 L982.3931,102.2651 Z " fill="#000000"/><text fill="#000000" font-family="sans-serif" font-size="14" font-style="italic" font-weight="bold" lengthAdjust="spacing" textLength="73" x="997.5" y="111.291">Attributes</text><line style="stroke:#181818;stroke-width:0.5;" x1="969.5" x2="1072.5" y1="122" y2="122"/><line style="stroke:#181818;stroke-width:0.5;" x1="969.5" x2="1072.5" y1="130" y2="130"/></g><!--MD5=[ced3ef91867ebcc8369c16ffb80a2e55]
class Serialize--><g id="elem_Serialize"><rect codeLine="8" fill="#F1F1F1" height="48" id="Serialize" rx="2.5" ry="2.5" style="stroke:#181818;stroke-width:0.5;" width="93" x="974.5" y="333"/><ellipse cx="989.5" cy="349" fill="#B4A7E5" rx="11" ry="11" style="stroke:#181818;stroke-width:1.0;"/><path d="M985.9277,345.2651 L985.9277,343.1069 L993.3071,343.1069 L993.3071,345.2651 L990.8418,345.2651 L990.8418,353.3418 L993.3071,353.3418 L993.3071,355.5 L985.9277,355.5 L985.9277,353.3418 L988.3931,353.3418 L988.3931,345.2651 Z " fill="#000000"/><text fill="#000000" font-family="sans-serif" font-size="14" font-style="italic" font-weight="bold" lengthAdjust="spacing" textLength="61" x="1003.5" y="354.291">Serialize</text><line style="stroke:#181818;stroke-width:0.5;" x1="975.5" x2="1066.5" y1="365" y2="365"/><line style="stroke:#181818;stroke-width:0.5;" x1="975.5" x2="1066.5" y1="373" y2="373"/></g><!--MD5=[51a8edc4d894f376d942e9522425c4e9]
class Deserialize--><g id="elem_Deserialize"><rect codeLine="9" fill="#F1F1F1" height="48" id="Deserialize" rx="2.5" ry="2.5" style="stroke:#181818;stroke-width:0.5;" width="112" x="965" y="179"/><ellipse cx="980" cy="195" fill="#B4A7E5" rx="11" ry="11" style="stroke:#181818;stroke-width:1.0;"/><path d="M976.4277,191.2651 L976.4277,189.1069 L983.8071,189.1069 L983.8071,191.2651 L981.3418,191.2651 L981.3418,199.3418 L983.8071,199.3418 L983.8071,201.5 L976.4277,201.5 L976.4277,199.3418 L978.8931,199.3418 L978.8931,191.2651 Z " fill="#000000"/><text fill="#000000" font-family="sans-serif" font-size="14" font-style="italic" font-weight="bold" lengthAdjust="spacing" textLength="80" x="994" y="200.291">Deserialize</text><line style="stroke:#181818;stroke-width:0.5;" x1="966" x2="1076" y1="211" y2="211"/><line style="stroke:#181818;stroke-width:0.5;" x1="966" x2="1076" y1="219" y2="219"/></g><!--MD5=[50b80d9f12ad680f743f4d31a7345ed0]
class OperationTransform--><g id="elem_OperationTransform"><rect codeLine="10" fill="#F1F1F1" height="97.4648" id="OperationTransform" rx="2.5" ry="2.5" style="stroke:#181818;stroke-width:0.5;" width="180" x="587" y="403.5"/><ellipse cx="602" cy="419.5" fill="#B4A7E5" rx="11" ry="11" style="stroke:#181818;stroke-width:1.0;"/><path d="M598.4277,415.7651 L598.4277,413.6069 L605.8071,413.6069 L605.8071,415.7651 L603.3418,415.7651 L603.3418,423.8418 L605.8071,423.8418 L605.8071,426 L598.4277,426 L598.4277,423.8418 L600.8931,423.8418 L600.8931,415.7651 Z " fill="#000000"/><text fill="#000000" font-family="sans-serif" font-size="14" font-style="italic" font-weight="bold" lengthAdjust="spacing" textLength="148" x="616" y="424.791">OperationTransform</text><line style="stroke:#181818;stroke-width:0.5;" x1="588" x2="766" y1="435.5" y2="435.5"/><text fill="#000000" font-family="sans-serif" font-size="14" font-weight="bold" lengthAdjust="spacing" textLength="84" x="593" y="453.0352">fn compose</text><text fill="#000000" font-family="sans-serif" font-size="14" font-weight="bold" lengthAdjust="spacing" textLength="92" x="593" y="469.5234">fn transform</text><text fill="#000000" font-family="sans-serif" font-size="14" font-weight="bold" lengthAdjust="spacing" textLength="62" x="593" y="486.0117">fn invert</text><line style="stroke:#181818;stroke-width:0.5;" x1="588" x2="766" y1="492.9648" y2="492.9648"/></g><!--MD5=[0a16ba2e770d9cfb0db6357444727999]
class Serde--><g id="elem_Serde"><rect codeLine="16" fill="#F1F1F1" height="48" id="Serde" rx="2.5" ry="2.5" style="stroke:#181818;stroke-width:0.5;" width="71" x="830.5" y="256"/><ellipse cx="845.5" cy="272" fill="#B4A7E5" rx="11" ry="11" style="stroke:#181818;stroke-width:1.0;"/><path d="M841.9277,268.2651 L841.9277,266.1069 L849.3071,266.1069 L849.3071,268.2651 L846.8418,268.2651 L846.8418,276.3418 L849.3071,276.3418 L849.3071,278.5 L841.9277,278.5 L841.9277,276.3418 L844.3931,276.3418 L844.3931,268.2651 Z " fill="#000000"/><text fill="#000000" font-family="sans-serif" font-size="14" font-style="italic" font-weight="bold" lengthAdjust="spacing" textLength="39" x="859.5" y="277.291">Serde</text><line style="stroke:#181818;stroke-width:0.5;" x1="831.5" x2="900.5" y1="288" y2="288"/><line style="stroke:#181818;stroke-width:0.5;" x1="831.5" x2="900.5" y1="296" y2="296"/></g><!--MD5=[765c636d3ac69806bca059894070190e]
class DeltaBuilder--><g id="elem_DeltaBuilder"><rect fill="#F1F1F1" height="48" id="DeltaBuilder" rx="2.5" ry="2.5" style="stroke:#181818;stroke-width:0.5;" width="121" x="191" y="242"/><ellipse cx="206" cy="258" fill="#ADD1B2" rx="11" ry="11" style="stroke:#181818;stroke-width:1.0;"/><path d="M208.4731,264.1431 Q207.8921,264.4419 207.2529,264.5913 Q206.6138,264.7407 205.9082,264.7407 Q203.4014,264.7407 202.0815,263.0889 Q200.7617,261.437 200.7617,258.3159 Q200.7617,255.1865 202.0815,253.5347 Q203.4014,251.8828 205.9082,251.8828 Q206.6138,251.8828 207.2612,252.0322 Q207.9087,252.1816 208.4731,252.4805 L208.4731,255.2031 Q207.8423,254.6221 207.2488,254.3523 Q206.6553,254.0825 206.0244,254.0825 Q204.6797,254.0825 203.9949,255.1492 Q203.3101,256.2158 203.3101,258.3159 Q203.3101,260.4077 203.9949,261.4744 Q204.6797,262.541 206.0244,262.541 Q206.6553,262.541 207.2488,262.2712 Q207.8423,262.0015 208.4731,261.4204 Z " fill="#000000"/><text fill="#000000" font-family="sans-serif" font-size="14" font-weight="bold" lengthAdjust="spacing" textLength="89" x="220" y="263.291">DeltaBuilder</text><line style="stroke:#181818;stroke-width:0.5;" x1="192" x2="311" y1="274" y2="274"/><line style="stroke:#181818;stroke-width:0.5;" x1="192" x2="311" y1="282" y2="282"/></g><!--MD5=[0ae2a1c1742bc47e8da2f08e17066f0e]
class Delta--><g id="elem_Delta"><rect fill="#F1F1F1" height="48" id="Delta" rx="2.5" ry="2.5" style="stroke:#181818;stroke-width:0.5;" width="70" x="414.5" y="284"/><ellipse cx="429.5" cy="300" fill="#ADD1B2" rx="11" ry="11" style="stroke:#181818;stroke-width:1.0;"/><path d="M431.9731,306.1431 Q431.3921,306.4419 430.7529,306.5913 Q430.1138,306.7407 429.4082,306.7407 Q426.9014,306.7407 425.5815,305.0889 Q424.2617,303.437 424.2617,300.3159 Q424.2617,297.1865 425.5815,295.5347 Q426.9014,293.8828 429.4082,293.8828 Q430.1138,293.8828 430.7612,294.0322 Q431.4087,294.1816 431.9731,294.4805 L431.9731,297.2031 Q431.3423,296.6221 430.7488,296.3523 Q430.1553,296.0825 429.5244,296.0825 Q428.1797,296.0825 427.4949,297.1492 Q426.8101,298.2158 426.8101,300.3159 Q426.8101,302.4077 427.4949,303.4744 Q428.1797,304.541 429.5244,304.541 Q430.1553,304.541 430.7488,304.2712 Q431.3423,304.0015 431.9731,303.4204 Z " fill="#000000"/><text fill="#000000" font-family="sans-serif" font-size="14" font-weight="bold" lengthAdjust="spacing" textLength="38" x="443.5" y="305.291">Delta</text><line style="stroke:#181818;stroke-width:0.5;" x1="415.5" x2="483.5" y1="316" y2="316"/><line style="stroke:#181818;stroke-width:0.5;" x1="415.5" x2="483.5" y1="324" y2="324"/></g><!--MD5=[cca5d97aaf46870920fae66c9bd85cdd]
class Operation--><g id="elem_Operation"><rect fill="#F1F1F1" height="48" id="Operation" rx="2.5" ry="2.5" style="stroke:#181818;stroke-width:0.5;" width="104" x="625" y="166"/><ellipse cx="640" cy="182" fill="#ADD1B2" rx="11" ry="11" style="stroke:#181818;stroke-width:1.0;"/><path d="M642.4731,188.1431 Q641.8921,188.4419 641.2529,188.5913 Q640.6138,188.7407 639.9082,188.7407 Q637.4014,188.7407 636.0815,187.0889 Q634.7617,185.437 634.7617,182.3159 Q634.7617,179.1865 636.0815,177.5347 Q637.4014,175.8828 639.9082,175.8828 Q640.6138,175.8828 641.2612,176.0322 Q641.9087,176.1816 642.4731,176.4805 L642.4731,179.2031 Q641.8423,178.6221 641.2488,178.3523 Q640.6553,178.0825 640.0244,178.0825 Q638.6797,178.0825 637.9949,179.1492 Q637.3101,180.2158 637.3101,182.3159 Q637.3101,184.4077 637.9949,185.4744 Q638.6797,186.541 640.0244,186.541 Q640.6553,186.541 641.2488,186.2712 Q641.8423,186.0015 642.4731,185.4204 Z " fill="#000000"/><text fill="#000000" font-family="sans-serif" font-size="14" font-weight="bold" lengthAdjust="spacing" textLength="72" x="654" y="187.291">Operation</text><line style="stroke:#181818;stroke-width:0.5;" x1="626" x2="728" y1="198" y2="198"/><line style="stroke:#181818;stroke-width:0.5;" x1="626" x2="728" y1="206" y2="206"/></g><!--MD5=[5e0f72d90ee3ff89278c26bf47a08db2]
class FlowyStr--><g id="elem_FlowyStr"><rect fill="#F1F1F1" height="48" id="FlowyStr" rx="2.5" ry="2.5" style="stroke:#181818;stroke-width:0.5;" width="94" x="630" y="320"/><ellipse cx="645" cy="336" fill="#ADD1B2" rx="11" ry="11" style="stroke:#181818;stroke-width:1.0;"/><path d="M647.4731,342.1431 Q646.8921,342.4419 646.2529,342.5913 Q645.6138,342.7407 644.9082,342.7407 Q642.4014,342.7407 641.0815,341.0889 Q639.7617,339.437 639.7617,336.3159 Q639.7617,333.1865 641.0815,331.5347 Q642.4014,329.8828 644.9082,329.8828 Q645.6138,329.8828 646.2612,330.0322 Q646.9087,330.1816 647.4731,330.4805 L647.4731,333.2031 Q646.8423,332.6221 646.2488,332.3523 Q645.6553,332.0825 645.0244,332.0825 Q643.6797,332.0825 642.9949,333.1492 Q642.3101,334.2158 642.3101,336.3159 Q642.3101,338.4077 642.9949,339.4744 Q643.6797,340.541 645.0244,340.541 Q645.6553,340.541 646.2488,340.2712 Q646.8423,340.0015 647.4731,339.4204 Z " fill="#000000"/><text fill="#000000" font-family="sans-serif" font-size="14" font-weight="bold" lengthAdjust="spacing" textLength="62" x="659" y="341.291">FlowyStr</text><line style="stroke:#181818;stroke-width:0.5;" x1="631" x2="723" y1="352" y2="352"/><line style="stroke:#181818;stroke-width:0.5;" x1="631" x2="723" y1="360" y2="360"/></g><!--MD5=[f8e51844424802ffc2cb63c5ede17012]
class OperationBuilder--><g id="elem_OperationBuilder"><rect fill="#F1F1F1" height="48" id="OperationBuilder" rx="2.5" ry="2.5" style="stroke:#181818;stroke-width:0.5;" width="155" x="372" y="166"/><ellipse cx="387" cy="182" fill="#ADD1B2" rx="11" ry="11" style="stroke:#181818;stroke-width:1.0;"/><path d="M389.4731,188.1431 Q388.8921,188.4419 388.2529,188.5913 Q387.6138,188.7407 386.9082,188.7407 Q384.4014,188.7407 383.0815,187.0889 Q381.7617,185.437 381.7617,182.3159 Q381.7617,179.1865 383.0815,177.5347 Q384.4014,175.8828 386.9082,175.8828 Q387.6138,175.8828 388.2612,176.0322 Q388.9087,176.1816 389.4731,176.4805 L389.4731,179.2031 Q388.8423,178.6221 388.2488,178.3523 Q387.6553,178.0825 387.0244,178.0825 Q385.6797,178.0825 384.9949,179.1492 Q384.3101,180.2158 384.3101,182.3159 Q384.3101,184.4077 384.9949,185.4744 Q385.6797,186.541 387.0244,186.541 Q387.6553,186.541 388.2488,186.2712 Q388.8423,186.0015 389.4731,185.4204 Z " fill="#000000"/><text fill="#000000" font-family="sans-serif" font-size="14" font-weight="bold" lengthAdjust="spacing" textLength="123" x="401" y="187.291">OperationBuilder</text><line style="stroke:#181818;stroke-width:0.5;" x1="373" x2="526" y1="198" y2="198"/><line style="stroke:#181818;stroke-width:0.5;" x1="373" x2="526" y1="206" y2="206"/></g><!--MD5=[9d82e49cffacc5184d1149ac06d87e9b]
class Delete--><g id="elem_Delete"><rect fill="#F1F1F1" height="48" id="Delete" rx="2.5" ry="2.5" style="stroke:#181818;stroke-width:0.5;" width="78" x="827" y="173"/><ellipse cx="842" cy="189" fill="#ADD1B2" rx="11" ry="11" style="stroke:#181818;stroke-width:1.0;"/><path d="M844.4731,195.1431 Q843.8921,195.4419 843.2529,195.5913 Q842.6138,195.7407 841.9082,195.7407 Q839.4014,195.7407 838.0815,194.0889 Q836.7617,192.437 836.7617,189.3159 Q836.7617,186.1865 838.0815,184.5347 Q839.4014,182.8828 841.9082,182.8828 Q842.6138,182.8828 843.2612,183.0322 Q843.9087,183.1816 844.4731,183.4805 L844.4731,186.2031 Q843.8423,185.6221 843.2488,185.3523 Q842.6553,185.0825 842.0244,185.0825 Q840.6797,185.0825 839.9949,186.1492 Q839.3101,187.2158 839.3101,189.3159 Q839.3101,191.4077 839.9949,192.4744 Q840.6797,193.541 842.0244,193.541 Q842.6553,193.541 843.2488,193.2712 Q843.8423,193.0015 844.4731,192.4204 Z " fill="#000000"/><text fill="#000000" font-family="sans-serif" font-size="14" font-weight="bold" lengthAdjust="spacing" textLength="46" x="856" y="194.291">Delete</text><line style="stroke:#181818;stroke-width:0.5;" x1="828" x2="904" y1="205" y2="205"/><line style="stroke:#181818;stroke-width:0.5;" x1="828" x2="904" y1="213" y2="213"/></g><!--MD5=[f5f17dba67d0b179398d028838e53b51]
class Retain--><g id="elem_Retain"><rect fill="#F1F1F1" height="48" id="Retain" rx="2.5" ry="2.5" style="stroke:#181818;stroke-width:0.5;" width="78" x="827" y="7"/><ellipse cx="842" cy="23" fill="#ADD1B2" rx="11" ry="11" style="stroke:#181818;stroke-width:1.0;"/><path d="M844.4731,29.1431 Q843.8921,29.4419 843.2529,29.5913 Q842.6138,29.7407 841.9082,29.7407 Q839.4014,29.7407 838.0815,28.0889 Q836.7617,26.437 836.7617,23.3159 Q836.7617,20.1865 838.0815,18.5347 Q839.4014,16.8828 841.9082,16.8828 Q842.6138,16.8828 843.2612,17.0322 Q843.9087,17.1816 844.4731,17.4805 L844.4731,20.2031 Q843.8423,19.6221 843.2488,19.3523 Q842.6553,19.0825 842.0244,19.0825 Q840.6797,19.0825 839.9949,20.1492 Q839.3101,21.2158 839.3101,23.3159 Q839.3101,25.4077 839.9949,26.4744 Q840.6797,27.541 842.0244,27.541 Q842.6553,27.541 843.2488,27.2712 Q843.8423,27.0015 844.4731,26.4204 Z " fill="#000000"/><text fill="#000000" font-family="sans-serif" font-size="14" font-weight="bold" lengthAdjust="spacing" textLength="46" x="856" y="28.291">Retain</text><line style="stroke:#181818;stroke-width:0.5;" x1="828" x2="904" y1="39" y2="39"/><line style="stroke:#181818;stroke-width:0.5;" x1="828" x2="904" y1="47" y2="47"/></g><!--MD5=[90c81c5abb68fc1cf50baa0b36284b44]
class Insert--><g id="elem_Insert"><rect fill="#F1F1F1" height="48" id="Insert" rx="2.5" ry="2.5" style="stroke:#181818;stroke-width:0.5;" width="74" x="829" y="90"/><ellipse cx="844" cy="106" fill="#ADD1B2" rx="11" ry="11" style="stroke:#181818;stroke-width:1.0;"/><path d="M846.4731,112.1431 Q845.8921,112.4419 845.2529,112.5913 Q844.6138,112.7407 843.9082,112.7407 Q841.4014,112.7407 840.0815,111.0889 Q838.7617,109.437 838.7617,106.3159 Q838.7617,103.1865 840.0815,101.5347 Q841.4014,99.8828 843.9082,99.8828 Q844.6138,99.8828 845.2612,100.0322 Q845.9087,100.1816 846.4731,100.4805 L846.4731,103.2031 Q845.8423,102.6221 845.2488,102.3523 Q844.6553,102.0825 844.0244,102.0825 Q842.6797,102.0825 841.9949,103.1492 Q841.3101,104.2158 841.3101,106.3159 Q841.3101,108.4077 841.9949,109.4744 Q842.6797,110.541 844.0244,110.541 Q844.6553,110.541 845.2488,110.2712 Q845.8423,110.0015 846.4731,109.4204 Z " fill="#000000"/><text fill="#000000" font-family="sans-serif" font-size="14" font-weight="bold" lengthAdjust="spacing" textLength="42" x="858" y="111.291">Insert</text><line style="stroke:#181818;stroke-width:0.5;" x1="830" x2="902" y1="122" y2="122"/><line style="stroke:#181818;stroke-width:0.5;" x1="830" x2="902" y1="130" y2="130"/></g><!--MD5=[e8991604ec62049a7a292e1d3857fc7a]
class DeltaIterator--><g id="elem_DeltaIterator"><rect fill="#F1F1F1" height="48" id="DeltaIterator" rx="2.5" ry="2.5" style="stroke:#181818;stroke-width:0.5;" width="124" x="7" y="325"/><ellipse cx="22" cy="341" fill="#ADD1B2" rx="11" ry="11" style="stroke:#181818;stroke-width:1.0;"/><path d="M24.4731,347.1431 Q23.8921,347.4419 23.2529,347.5913 Q22.6138,347.7407 21.9082,347.7407 Q19.4014,347.7407 18.0815,346.0889 Q16.7617,344.437 16.7617,341.3159 Q16.7617,338.1865 18.0815,336.5347 Q19.4014,334.8828 21.9082,334.8828 Q22.6138,334.8828 23.2612,335.0322 Q23.9087,335.1816 24.4731,335.4805 L24.4731,338.2031 Q23.8423,337.6221 23.2488,337.3523 Q22.6553,337.0825 22.0244,337.0825 Q20.6797,337.0825 19.9949,338.1492 Q19.3101,339.2158 19.3101,341.3159 Q19.3101,343.4077 19.9949,344.4744 Q20.6797,345.541 22.0244,345.541 Q22.6553,345.541 23.2488,345.2712 Q23.8423,345.0015 24.4731,344.4204 Z " fill="#000000"/><text fill="#000000" font-family="sans-serif" font-size="14" font-weight="bold" lengthAdjust="spacing" textLength="92" x="36" y="346.291">DeltaIterator</text><line style="stroke:#181818;stroke-width:0.5;" x1="8" x2="130" y1="357" y2="357"/><line style="stroke:#181818;stroke-width:0.5;" x1="8" x2="130" y1="365" y2="365"/></g><!--MD5=[b254c6f3e2ce5fbb5adf8bfa6acb5194]
class DeltaCursor--><g id="elem_DeltaCursor"><rect fill="#F1F1F1" height="48" id="DeltaCursor" rx="2.5" ry="2.5" style="stroke:#181818;stroke-width:0.5;" width="118" x="192.5" y="325"/><ellipse cx="207.5" cy="341" fill="#ADD1B2" rx="11" ry="11" style="stroke:#181818;stroke-width:1.0;"/><path d="M209.9731,347.1431 Q209.3921,347.4419 208.7529,347.5913 Q208.1138,347.7407 207.4082,347.7407 Q204.9014,347.7407 203.5815,346.0889 Q202.2617,344.437 202.2617,341.3159 Q202.2617,338.1865 203.5815,336.5347 Q204.9014,334.8828 207.4082,334.8828 Q208.1138,334.8828 208.7612,335.0322 Q209.4087,335.1816 209.9731,335.4805 L209.9731,338.2031 Q209.3423,337.6221 208.7488,337.3523 Q208.1553,337.0825 207.5244,337.0825 Q206.1797,337.0825 205.4949,338.1492 Q204.8101,339.2158 204.8101,341.3159 Q204.8101,343.4077 205.4949,344.4744 Q206.1797,345.541 207.5244,345.541 Q208.1553,345.541 208.7488,345.2712 Q209.3423,345.0015 209.9731,344.4204 Z " fill="#000000"/><text fill="#000000" font-family="sans-serif" font-size="14" font-weight="bold" lengthAdjust="spacing" textLength="86" x="221.5" y="346.291">DeltaCursor</text><line style="stroke:#181818;stroke-width:0.5;" x1="193.5" x2="309.5" y1="357" y2="357"/><line style="stroke:#181818;stroke-width:0.5;" x1="193.5" x2="309.5" y1="365" y2="365"/></g><!--MD5=[2e0b87f6e2908a144506d38fd4feceda]
class RichTextAttributes--><g id="elem_RichTextAttributes"><rect fill="#F1F1F1" height="48" id="RichTextAttributes" rx="2.5" ry="2.5" style="stroke:#181818;stroke-width:0.5;" width="168" x="1137" y="256"/><ellipse cx="1152" cy="272" fill="#ADD1B2" rx="11" ry="11" style="stroke:#181818;stroke-width:1.0;"/><path d="M1154.4731,278.1431 Q1153.8921,278.4419 1153.2529,278.5913 Q1152.6138,278.7407 1151.9082,278.7407 Q1149.4014,278.7407 1148.0815,277.0889 Q1146.7617,275.437 1146.7617,272.3159 Q1146.7617,269.1865 1148.0815,267.5347 Q1149.4014,265.8828 1151.9082,265.8828 Q1152.6138,265.8828 1153.2612,266.0322 Q1153.9087,266.1816 1154.4731,266.4805 L1154.4731,269.2031 Q1153.8423,268.6221 1153.2488,268.3523 Q1152.6553,268.0825 1152.0244,268.0825 Q1150.6797,268.0825 1149.9949,269.1492 Q1149.3101,270.2158 1149.3101,272.3159 Q1149.3101,274.4077 1149.9949,275.4744 Q1150.6797,276.541 1152.0244,276.541 Q1152.6553,276.541 1153.2488,276.2712 Q1153.8423,276.0015 1154.4731,275.4204 Z " fill="#000000"/><text fill="#000000" font-family="sans-serif" font-size="14" font-weight="bold" lengthAdjust="spacing" textLength="136" x="1166" y="277.291">RichTextAttributes</text><line style="stroke:#181818;stroke-width:0.5;" x1="1138" x2="1304" y1="288" y2="288"/><line style="stroke:#181818;stroke-width:0.5;" x1="1138" x2="1304" y1="296" y2="296"/></g><!--MD5=[445d0bfc45ba25b9fdbd438c1ccbc246]
link Serde to Serialize--><g id="link_Serde_Serialize"><path codeLine="17" d="M901.72,297.47 C921.8,307.58 947.43,320.48 969.69,331.68 " fill="none" id="Serde-to-Serialize" style="stroke:#181818;stroke-width:1.0;"/><polygon fill="#181818" points="974.39,334.04,968.1581,326.4135,969.9265,331.7868,964.5531,333.5551,974.39,334.04" style="stroke:#181818;stroke-width:1.0;"/></g><!--MD5=[256387c6051a0baf395e1ad452468954]
link Serde to Deserialize--><g id="link_Serde_Deserialize"><path codeLine="18" d="M901.72,262.53 C921.14,252.75 945.75,240.37 967.49,229.43 " fill="none" id="Serde-to-Deserialize" style="stroke:#181818;stroke-width:1.0;"/><polygon fill="#181818" points="972.08,227.12,962.2419,227.5798,967.6107,229.3618,965.8287,234.7306,972.08,227.12" style="stroke:#181818;stroke-width:1.0;"/></g><!--MD5=[fd0651be904b8cd51dc9729f88f16cbd]
link DeltaBuilder to Delta--><g id="link_DeltaBuilder_Delta"><path codeLine="20" d="M312.1,278.77 C343.59,285.52 381.37,293.61 409.17,299.57 " fill="none" id="DeltaBuilder-to-Delta" style="stroke:#181818;stroke-width:1.0;"/><polygon fill="#181818" points="414.24,300.66,406.2733,294.8694,409.3502,299.6163,404.6033,302.6931,414.24,300.66" style="stroke:#181818;stroke-width:1.0;"/></g><!--MD5=[61cdb8eb4c0fe53a5d5b65d80f14a3c1]
link Delta to Operation--><g id="link_Delta_Operation"><path codeLine="22" d="M484.75,290.08 C522.19,270.48 582.58,238.89 625.47,216.44 " fill="none" id="Delta-to-Operation" style="stroke:#181818;stroke-width:1.0;"/><polygon fill="#181818" points="630.08,214.03,620.2516,214.6651,625.6514,216.3511,623.9654,221.7509,630.08,214.03" style="stroke:#181818;stroke-width:1.0;"/><text fill="#000000" font-family="sans-serif" font-size="13" lengthAdjust="spacing" textLength="8" x="492.4773" y="300.6275">1</text><text fill="#000000" font-family="sans-serif" font-size="13" lengthAdjust="spacing" textLength="6" x="611.288" y="234.7177">*</text></g><!--MD5=[d3be2f34b1d1ec6e5e3d450bb7975b3b]
link Delta to Serde--><g id="link_Delta_Serde"><path codeLine="23" d="M484.77,305.68 C556.64,300.83 723.62,289.55 810.41,283.69 " fill="none" id="Delta-to-Serde" style="stroke:#181818;stroke-width:1.0;"/><polygon fill="none" points="809.97,276.7,830.4,282.34,810.91,290.67,809.97,276.7" style="stroke:#181818;stroke-width:1.0;"/></g><!--MD5=[6a46c15f5c76fac7aaa92eeda9844fd4]
link Delta to FlowyStr--><g id="link_Delta_FlowyStr"><path codeLine="24" d="M484.75,313.47 C521.92,319.4 581.71,328.95 624.54,335.78 " fill="none" id="Delta-to-FlowyStr" style="stroke:#181818;stroke-width:1.0;"/><polygon fill="#181818" points="629.67,336.6,621.412,331.233,624.7324,335.8128,620.1525,339.1332,629.67,336.6" style="stroke:#181818;stroke-width:1.0;"/></g><!--MD5=[938e5ad8a4f8ec9e31e077b2886dc3a2]
link Delta to OperationTransform--><g id="link_Delta_OperationTransform"><path codeLine="25" d="M484.75,329.87 C510.78,346.5 547.9,370.2 582.52,392.31 " fill="none" id="Delta-to-OperationTransform" style="stroke:#181818;stroke-width:1.0;"/><polygon fill="none" points="586.7,386.67,599.79,403.33,579.17,398.47,586.7,386.67" style="stroke:#181818;stroke-width:1.0;"/></g><!--MD5=[cdef70358dcc3e23906d790c32c7f76a]
link OperationBuilder to Operation--><g id="link_OperationBuilder_Operation"><path codeLine="27" d="M527.16,190 C557.45,190 591.62,190 619.58,190 " fill="none" id="OperationBuilder-to-Operation" style="stroke:#181818;stroke-width:1.0;"/><polygon fill="#181818" points="624.73,190,615.73,186,619.73,190,615.73,194,624.73,190" style="stroke:#181818;stroke-width:1.0;"/></g><!--MD5=[4cf0f741f798b0e22d7684356de7b772]
reverse link Operation to Delete--><g id="link_Operation_Delete"><path codeLine="28" d="M749.47,192.68 C775.75,193.66 804.48,194.73 826.72,195.57 " fill="none" id="Operation-backto-Delete" style="stroke:#181818;stroke-width:1.0;"/><polygon fill="none" points="748.82,199.66,729.1,191.91,749.35,185.67,748.82,199.66" style="stroke:#181818;stroke-width:1.0;"/></g><!--MD5=[46203ce5e8e7b5c01743ed9bdeb467c3]
reverse link Operation to Retain--><g id="link_Operation_Retain"><path codeLine="29" d="M722.11,152.5 C757.53,122.38 806.22,80.98 836.64,55.11 " fill="none" id="Operation-backto-Retain" style="stroke:#181818;stroke-width:1.0;"/><polygon fill="none" points="726.17,158.23,706.4,165.85,717.1,147.56,726.17,158.23" style="stroke:#181818;stroke-width:1.0;"/></g><!--MD5=[bd2270dd01d7963c4502181332960c0b]
reverse link Operation to Insert--><g id="link_Operation_Insert"><path codeLine="30" d="M747.99,161.55 C775.48,150.38 805.86,138.03 828.78,128.72 " fill="none" id="Operation-backto-Insert" style="stroke:#181818;stroke-width:1.0;"/><polygon fill="none" points="750.26,168.19,729.1,169.23,744.99,155.22,750.26,168.19" style="stroke:#181818;stroke-width:1.0;"/></g><!--MD5=[5c016afa52f8b0cccd2cdf0e28d02923]
link Operation to Serde--><g id="link_Operation_Serde"><path codeLine="31" d="M728.11,214.12 C754.14,226.65 785.94,241.95 812.33,254.65 " fill="none" id="Operation-to-Serde" style="stroke:#181818;stroke-width:1.0;"/><polygon fill="none" points="815.45,248.38,830.43,263.36,809.38,261,815.45,248.38" style="stroke:#181818;stroke-width:1.0;"/></g><!--MD5=[a17528af88fc836f60a6dbafa0ce6802]
link Retain to Attributes--><g id="link_Retain_Attributes"><path codeLine="33" d="M905.21,51.73 C925.13,62.53 949.71,75.87 971,87.42 " fill="none" id="Retain-to-Attributes" style="stroke:#181818;stroke-width:1.0;"/><polygon fill="#181818" points="975.5,89.86,969.5054,82.0456,971.1078,87.4708,965.6826,89.0731,975.5,89.86" style="stroke:#181818;stroke-width:1.0;"/></g><!--MD5=[a6f71c4f3812e12ed7a75f84c34784ed]
link Insert to Attributes--><g id="link_Insert_Attributes"><path codeLine="34" d="M903.26,114 C921.18,114 943.22,114 963.31,114 " fill="none" id="Insert-to-Attributes" style="stroke:#181818;stroke-width:1.0;"/><polygon fill="#181818" points="968.37,114,959.37,110,963.37,114,959.37,118,968.37,114" style="stroke:#181818;stroke-width:1.0;"/></g><!--MD5=[611388ee0b6180bbf2c9c8ad42c8f4a2]
link DeltaIterator to DeltaCursor--><g id="link_DeltaIterator_DeltaCursor"><path codeLine="36" d="M131.11,349 C149.15,349 168.94,349 187.12,349 " fill="none" id="DeltaIterator-to-DeltaCursor" style="stroke:#181818;stroke-width:1.0;"/><polygon fill="#181818" points="192.2,349,183.2,345,187.2,349,183.2,353,192.2,349" style="stroke:#181818;stroke-width:1.0;"/></g><!--MD5=[701fccc29fd4e200176d0850d36fa306]
link DeltaCursor to Delta--><g id="link_DeltaCursor_Delta"><path codeLine="37" d="M310.51,336.87 C342.29,330.22 380.83,322.16 409.1,316.24 " fill="none" id="DeltaCursor-to-Delta" style="stroke:#181818;stroke-width:1.0;"/><polygon fill="#181818" points="414.25,315.16,404.6248,313.0729,409.3544,316.1763,406.251,320.9059,414.25,315.16" style="stroke:#181818;stroke-width:1.0;"/></g><!--MD5=[66f2e390ab2214745d7e0b04bbfbdf1e]
reverse link Attributes to RichTextAttributes--><g id="link_Attributes_RichTextAttributes"><path codeLine="40" d="M1066.32,151.15 C1104.46,183.13 1158.39,228.34 1191.17,255.83 " fill="none" id="Attributes-backto-RichTextAttributes" style="stroke:#181818;stroke-width:1.0;"/><polygon fill="none" points="1061.62,156.35,1050.79,138.14,1070.61,145.62,1061.62,156.35" style="stroke:#181818;stroke-width:1.0;"/></g><!--MD5=[baaddad676958014d1c4d2ea842d7e00]
reverse link OperationTransform to RichTextAttributes--><g id="link_OperationTransform_RichTextAttributes"><path codeLine="41" d="M787.43,453.63 C870.17,451.11 984.86,439.38 1077,399 C1126.99,377.09 1173.3,332.25 1199,304.3 " fill="none" id="OperationTransform-backto-RichTextAttributes" style="stroke:#181818;stroke-width:1.0;"/><polygon fill="none" points="787.53,460.63,767.38,454.09,787.22,446.64,787.53,460.63" style="stroke:#181818;stroke-width:1.0;"/></g><!--MD5=[9580be45fd1262f21b42175de4500325]
reverse link Serde to RichTextAttributes--><g id="link_Serde_RichTextAttributes"><path codeLine="42" d="M922.1,280 C979.62,280 1070.49,280 1136.76,280 " fill="none" id="Serde-backto-RichTextAttributes" style="stroke:#181818;stroke-width:1.0;"/><polygon fill="none" points="921.81,287,901.81,280,921.81,273,921.81,287" style="stroke:#181818;stroke-width:1.0;"/></g><!--MD5=[11db1b24ac5d551dbd04b41864aac4d7]
@startuml Delta
skinparam classFontStyle Bold
skinparam ActivityBackgroundColor Silver
skinparam ActivityBorderColor DimGray
left to right direction


interface Attributes
interface Serialize
interface Deserialize
interface OperationTransform {
 fn compose
 fn transform
 fn invert
}

interface Serde
Serde - -> Serialize
Serde - -> Deserialize

DeltaBuilder - -> Delta

Delta "1" - -> "*" Operation
Delta - -|> Serde
Delta - -> FlowyStr
Delta - -|> OperationTransform

OperationBuilder - -> Operation
Delete -u-|> Operation
Retain -u-|> Operation
Insert -u-|> Operation
Operation - -|> Serde

Retain - -> Attributes
Insert - -> Attributes

DeltaIterator - -> DeltaCursor
DeltaCursor - -> Delta

'rich text
RichTextAttributes -u-|> Attributes
RichTextAttributes -u-|> OperationTransform
RichTextAttributes -l-|> Serde

@enduml

@startuml Delta
skinparam classFontStyle Bold
skinparam ActivityBackgroundColor Silver
skinparam ActivityBorderColor DimGray
left to right direction


interface Attributes
interface Serialize
interface Deserialize
interface OperationTransform {
 fn compose
 fn transform
 fn invert
}

interface Serde
Serde - -> Serialize
Serde - -> Deserialize

DeltaBuilder - -> Delta

Delta "1" - -> "*" Operation
Delta - -|> Serde
Delta - -> FlowyStr
Delta - -|> OperationTransform

OperationBuilder - -> Operation
Delete -u-|> Operation
Retain -u-|> Operation
Insert -u-|> Operation
Operation - -|> Serde

Retain - -> Attributes
Insert - -> Attributes

DeltaIterator - -> DeltaCursor
DeltaCursor - -> Delta

RichTextAttributes -u-|> Attributes
RichTextAttributes -u-|> OperationTransform
RichTextAttributes -l-|> Serde

@enduml

PlantUML version 1.2022.5(Sat Apr 30 18:55:52 CST 2022)
(GPL source distribution)
Java Runtime: OpenJDK Runtime Environment
JVM: OpenJDK 64-Bit Server VM
Default Encoding: UTF-8
Language: en
Country: US
--></g></svg>