<?xml version="1.0" encoding="UTF-8" standalone="no"?><svg xmlns="http://www.w3.org/2000/svg" xmlns:xlink="http://www.w3.org/1999/xlink" contentStyleType="text/css" height="507px" preserveAspectRatio="none" style="width:1320px;height:507px;background:#FFFFFF;" version="1.1" viewBox="0 0 1320 507" width="1320px" zoomAndPan="magnify"><defs/><g><!--MD5=[57efef740ff267ec24374a3accdf0f52]
class Attributes--><g id="elem_Attributes"><rect codeLine="7" fill="#F1F1F1" height="48" id="Attributes" rx="2.5" ry="2.5" style="stroke:#181818;stroke-width:0.5;" width="105" x="976.5" y="90"/><ellipse cx="991.5" cy="106" fill="#B4A7E5" rx="11" ry="11" style="stroke:#181818;stroke-width:1.0;"/><path d="M987.9277,102.2651 L987.9277,100.1069 L995.3071,100.1069 L995.3071,102.2651 L992.8418,102.2651 L992.8418,110.3418 L995.3071,110.3418 L995.3071,112.5 L987.9277,112.5 L987.9277,110.3418 L990.3931,110.3418 L990.3931,102.2651 Z " fill="#000000"/><text fill="#000000" font-family="sans-serif" font-size="14" font-style="italic" font-weight="bold" lengthAdjust="spacing" textLength="73" x="1005.5" y="111.291">Attributes</text><line style="stroke:#181818;stroke-width:0.5;" x1="977.5" x2="1080.5" y1="122" y2="122"/><line style="stroke:#181818;stroke-width:0.5;" x1="977.5" x2="1080.5" y1="130" y2="130"/></g><!--MD5=[ced3ef91867ebcc8369c16ffb80a2e55]
class Serialize--><g id="elem_Serialize"><rect codeLine="8" fill="#F1F1F1" height="48" id="Serialize" rx="2.5" ry="2.5" style="stroke:#181818;stroke-width:0.5;" width="93" x="982.5" y="333"/><ellipse cx="997.5" cy="349" fill="#B4A7E5" rx="11" ry="11" style="stroke:#181818;stroke-width:1.0;"/><path d="M993.9277,345.2651 L993.9277,343.1069 L1001.3071,343.1069 L1001.3071,345.2651 L998.8418,345.2651 L998.8418,353.3418 L1001.3071,353.3418 L1001.3071,355.5 L993.9277,355.5 L993.9277,353.3418 L996.3931,353.3418 L996.3931,345.2651 Z " fill="#000000"/><text fill="#000000" font-family="sans-serif" font-size="14" font-style="italic" font-weight="bold" lengthAdjust="spacing" textLength="61" x="1011.5" y="354.291">Serialize</text><line style="stroke:#181818;stroke-width:0.5;" x1="983.5" x2="1074.5" y1="365" y2="365"/><line style="stroke:#181818;stroke-width:0.5;" x1="983.5" x2="1074.5" y1="373" y2="373"/></g><!--MD5=[51a8edc4d894f376d942e9522425c4e9]
class Deserialize--><g id="elem_Deserialize"><rect codeLine="9" fill="#F1F1F1" height="48" id="Deserialize" rx="2.5" ry="2.5" style="stroke:#181818;stroke-width:0.5;" width="112" x="973" y="179"/><ellipse cx="988" cy="195" fill="#B4A7E5" rx="11" ry="11" style="stroke:#181818;stroke-width:1.0;"/><path d="M984.4277,191.2651 L984.4277,189.1069 L991.8071,189.1069 L991.8071,191.2651 L989.3418,191.2651 L989.3418,199.3418 L991.8071,199.3418 L991.8071,201.5 L984.4277,201.5 L984.4277,199.3418 L986.8931,199.3418 L986.8931,191.2651 Z " fill="#000000"/><text fill="#000000" font-family="sans-serif" font-size="14" font-style="italic" font-weight="bold" lengthAdjust="spacing" textLength="80" x="1002" y="200.291">Deserialize</text><line style="stroke:#181818;stroke-width:0.5;" x1="974" x2="1084" y1="211" y2="211"/><line style="stroke:#181818;stroke-width:0.5;" x1="974" x2="1084" y1="219" y2="219"/></g><!--MD5=[50b80d9f12ad680f743f4d31a7345ed0]
class OperationTransform--><g id="elem_OperationTransform"><rect codeLine="10" fill="#F1F1F1" height="97.4648" id="OperationTransform" rx="2.5" ry="2.5" style="stroke:#181818;stroke-width:0.5;" width="180" x="595" y="403.5"/><ellipse cx="610" cy="419.5" fill="#B4A7E5" rx="11" ry="11" style="stroke:#181818;stroke-width:1.0;"/><path d="M606.4277,415.7651 L606.4277,413.6069 L613.8071,413.6069 L613.8071,415.7651 L611.3418,415.7651 L611.3418,423.8418 L613.8071,423.8418 L613.8071,426 L606.4277,426 L606.4277,423.8418 L608.8931,423.8418 L608.8931,415.7651 Z " fill="#000000"/><text fill="#000000" font-family="sans-serif" font-size="14" font-style="italic" font-weight="bold" lengthAdjust="spacing" textLength="148" x="624" y="424.791">OperationTransform</text><line style="stroke:#181818;stroke-width:0.5;" x1="596" x2="774" y1="435.5" y2="435.5"/><text fill="#000000" font-family="sans-serif" font-size="14" font-weight="bold" lengthAdjust="spacing" textLength="84" x="601" y="453.0352">fn compose</text><text fill="#000000" font-family="sans-serif" font-size="14" font-weight="bold" lengthAdjust="spacing" textLength="92" x="601" y="469.5234">fn transform</text><text fill="#000000" font-family="sans-serif" font-size="14" font-weight="bold" lengthAdjust="spacing" textLength="62" x="601" y="486.0117">fn invert</text><line style="stroke:#181818;stroke-width:0.5;" x1="596" x2="774" y1="492.9648" y2="492.9648"/></g><!--MD5=[0a16ba2e770d9cfb0db6357444727999]
class Serde--><g id="elem_Serde"><rect codeLine="16" fill="#F1F1F1" height="48" id="Serde" rx="2.5" ry="2.5" style="stroke:#181818;stroke-width:0.5;" width="71" x="838.5" y="256"/><ellipse cx="853.5" cy="272" fill="#B4A7E5" rx="11" ry="11" style="stroke:#181818;stroke-width:1.0;"/><path d="M849.9277,268.2651 L849.9277,266.1069 L857.3071,266.1069 L857.3071,268.2651 L854.8418,268.2651 L854.8418,276.3418 L857.3071,276.3418 L857.3071,278.5 L849.9277,278.5 L849.9277,276.3418 L852.3931,276.3418 L852.3931,268.2651 Z " fill="#000000"/><text fill="#000000" font-family="sans-serif" font-size="14" font-style="italic" font-weight="bold" lengthAdjust="spacing" textLength="39" x="867.5" y="277.291">Serde</text><line style="stroke:#181818;stroke-width:0.5;" x1="839.5" x2="908.5" y1="288" y2="288"/><line style="stroke:#181818;stroke-width:0.5;" x1="839.5" x2="908.5" y1="296" y2="296"/></g><!--MD5=[765c636d3ac69806bca059894070190e]
class DeltaBuilder--><g id="elem_DeltaBuilder"><rect fill="#F1F1F1" height="48" id="DeltaBuilder" rx="2.5" ry="2.5" style="stroke:#181818;stroke-width:0.5;" width="121" x="191" y="242"/><ellipse cx="206" cy="258" fill="#ADD1B2" rx="11" ry="11" style="stroke:#181818;stroke-width:1.0;"/><path d="M208.4731,264.1431 Q207.8921,264.4419 207.2529,264.5913 Q206.6138,264.7407 205.9082,264.7407 Q203.4014,264.7407 202.0815,263.0889 Q200.7617,261.437 200.7617,258.3159 Q200.7617,255.1865 202.0815,253.5347 Q203.4014,251.8828 205.9082,251.8828 Q206.6138,251.8828 207.2612,252.0322 Q207.9087,252.1816 208.4731,252.4805 L208.4731,255.2031 Q207.8423,254.6221 207.2488,254.3523 Q206.6553,254.0825 206.0244,254.0825 Q204.6797,254.0825 203.9949,255.1492 Q203.3101,256.2158 203.3101,258.3159 Q203.3101,260.4077 203.9949,261.4744 Q204.6797,262.541 206.0244,262.541 Q206.6553,262.541 207.2488,262.2712 Q207.8423,262.0015 208.4731,261.4204 Z " fill="#000000"/><text fill="#000000" font-family="sans-serif" font-size="14" font-weight="bold" lengthAdjust="spacing" textLength="89" x="220" y="263.291">DeltaBuilder</text><line style="stroke:#181818;stroke-width:0.5;" x1="192" x2="311" y1="274" y2="274"/><line style="stroke:#181818;stroke-width:0.5;" x1="192" x2="311" y1="282" y2="282"/></g><!--MD5=[0ae2a1c1742bc47e8da2f08e17066f0e]
class Delta--><g id="elem_Delta"><rect fill="#F1F1F1" height="48" id="Delta" rx="2.5" ry="2.5" style="stroke:#181818;stroke-width:0.5;" width="70" x="418.5" y="284"/><ellipse cx="433.5" cy="300" fill="#ADD1B2" rx="11" ry="11" style="stroke:#181818;stroke-width:1.0;"/><path d="M435.9731,306.1431 Q435.3921,306.4419 434.7529,306.5913 Q434.1138,306.7407 433.4082,306.7407 Q430.9014,306.7407 429.5815,305.0889 Q428.2617,303.437 428.2617,300.3159 Q428.2617,297.1865 429.5815,295.5347 Q430.9014,293.8828 433.4082,293.8828 Q434.1138,293.8828 434.7612,294.0322 Q435.4087,294.1816 435.9731,294.4805 L435.9731,297.2031 Q435.3423,296.6221 434.7488,296.3523 Q434.1553,296.0825 433.5244,296.0825 Q432.1797,296.0825 431.4949,297.1492 Q430.8101,298.2158 430.8101,300.3159 Q430.8101,302.4077 431.4949,303.4744 Q432.1797,304.541 433.5244,304.541 Q434.1553,304.541 434.7488,304.2712 Q435.3423,304.0015 435.9731,303.4204 Z " fill="#000000"/><text fill="#000000" font-family="sans-serif" font-size="14" font-weight="bold" lengthAdjust="spacing" textLength="38" x="447.5" y="305.291">Delta</text><line style="stroke:#181818;stroke-width:0.5;" x1="419.5" x2="487.5" y1="316" y2="316"/><line style="stroke:#181818;stroke-width:0.5;" x1="419.5" x2="487.5" y1="324" y2="324"/></g><!--MD5=[cca5d97aaf46870920fae66c9bd85cdd]
class Operation--><g id="elem_Operation"><rect fill="#F1F1F1" height="48" id="Operation" rx="2.5" ry="2.5" style="stroke:#181818;stroke-width:0.5;" width="104" x="633" y="166"/><ellipse cx="648" cy="182" fill="#ADD1B2" rx="11" ry="11" style="stroke:#181818;stroke-width:1.0;"/><path d="M650.4731,188.1431 Q649.8921,188.4419 649.2529,188.5913 Q648.6138,188.7407 647.9082,188.7407 Q645.4014,188.7407 644.0815,187.0889 Q642.7617,185.437 642.7617,182.3159 Q642.7617,179.1865 644.0815,177.5347 Q645.4014,175.8828 647.9082,175.8828 Q648.6138,175.8828 649.2612,176.0322 Q649.9087,176.1816 650.4731,176.4805 L650.4731,179.2031 Q649.8423,178.6221 649.2488,178.3523 Q648.6553,178.0825 648.0244,178.0825 Q646.6797,178.0825 645.9949,179.1492 Q645.3101,180.2158 645.3101,182.3159 Q645.3101,184.4077 645.9949,185.4744 Q646.6797,186.541 648.0244,186.541 Q648.6553,186.541 649.2488,186.2712 Q649.8423,186.0015 650.4731,185.4204 Z " fill="#000000"/><text fill="#000000" font-family="sans-serif" font-size="14" font-weight="bold" lengthAdjust="spacing" textLength="72" x="662" y="187.291">Operation</text><line style="stroke:#181818;stroke-width:0.5;" x1="634" x2="736" y1="198" y2="198"/><line style="stroke:#181818;stroke-width:0.5;" x1="634" x2="736" y1="206" y2="206"/></g><!--MD5=[60bb56639428ebb42043d53a4ef74a84]
class OTString--><g id="elem_OTString"><rect fill="#F1F1F1" height="48" id="OTString" rx="2.5" ry="2.5" style="stroke:#181818;stroke-width:0.5;" width="97" x="636.5" y="320"/><ellipse cx="651.5" cy="336" fill="#ADD1B2" rx="11" ry="11" style="stroke:#181818;stroke-width:1.0;"/><path d="M653.9731,342.1431 Q653.3921,342.4419 652.7529,342.5913 Q652.1138,342.7407 651.4082,342.7407 Q648.9014,342.7407 647.5815,341.0889 Q646.2617,339.437 646.2617,336.3159 Q646.2617,333.1865 647.5815,331.5347 Q648.9014,329.8828 651.4082,329.8828 Q652.1138,329.8828 652.7612,330.0322 Q653.4087,330.1816 653.9731,330.4805 L653.9731,333.2031 Q653.3423,332.6221 652.7488,332.3523 Q652.1553,332.0825 651.5244,332.0825 Q650.1797,332.0825 649.4949,333.1492 Q648.8101,334.2158 648.8101,336.3159 Q648.8101,338.4077 649.4949,339.4744 Q650.1797,340.541 651.5244,340.541 Q652.1553,340.541 652.7488,340.2712 Q653.3423,340.0015 653.9731,339.4204 Z " fill="#000000"/><text fill="#000000" font-family="sans-serif" font-size="14" font-weight="bold" lengthAdjust="spacing" textLength="65" x="665.5" y="341.291">OTString</text><line style="stroke:#181818;stroke-width:0.5;" x1="637.5" x2="732.5" y1="352" y2="352"/><line style="stroke:#181818;stroke-width:0.5;" x1="637.5" x2="732.5" y1="360" y2="360"/></g><!--MD5=[3ed55fa49bd2359d29b4272d8dbc9cae]
class OperationsBuilder--><g id="elem_OperationsBuilder"><rect fill="#F1F1F1" height="48" id="OperationsBuilder" rx="2.5" ry="2.5" style="stroke:#181818;stroke-width:0.5;" width="163" x="372" y="166"/><ellipse cx="387" cy="182" fill="#ADD1B2" rx="11" ry="11" style="stroke:#181818;stroke-width:1.0;"/><path d="M389.4731,188.1431 Q388.8921,188.4419 388.2529,188.5913 Q387.6138,188.7407 386.9082,188.7407 Q384.4014,188.7407 383.0815,187.0889 Q381.7617,185.437 381.7617,182.3159 Q381.7617,179.1865 383.0815,177.5347 Q384.4014,175.8828 386.9082,175.8828 Q387.6138,175.8828 388.2612,176.0322 Q388.9087,176.1816 389.4731,176.4805 L389.4731,179.2031 Q388.8423,178.6221 388.2488,178.3523 Q387.6553,178.0825 387.0244,178.0825 Q385.6797,178.0825 384.9949,179.1492 Q384.3101,180.2158 384.3101,182.3159 Q384.3101,184.4077 384.9949,185.4744 Q385.6797,186.541 387.0244,186.541 Q387.6553,186.541 388.2488,186.2712 Q388.8423,186.0015 389.4731,185.4204 Z " fill="#000000"/><text fill="#000000" font-family="sans-serif" font-size="14" font-weight="bold" lengthAdjust="spacing" textLength="131" x="401" y="187.291">OperationsBuilder</text><line style="stroke:#181818;stroke-width:0.5;" x1="373" x2="534" y1="198" y2="198"/><line style="stroke:#181818;stroke-width:0.5;" x1="373" x2="534" y1="206" y2="206"/></g><!--MD5=[9d82e49cffacc5184d1149ac06d87e9b]
class Delete--><g id="elem_Delete"><rect fill="#F1F1F1" height="48" id="Delete" rx="2.5" ry="2.5" style="stroke:#181818;stroke-width:0.5;" width="78" x="835" y="173"/><ellipse cx="850" cy="189" fill="#ADD1B2" rx="11" ry="11" style="stroke:#181818;stroke-width:1.0;"/><path d="M852.4731,195.1431 Q851.8921,195.4419 851.2529,195.5913 Q850.6138,195.7407 849.9082,195.7407 Q847.4014,195.7407 846.0815,194.0889 Q844.7617,192.437 844.7617,189.3159 Q844.7617,186.1865 846.0815,184.5347 Q847.4014,182.8828 849.9082,182.8828 Q850.6138,182.8828 851.2612,183.0322 Q851.9087,183.1816 852.4731,183.4805 L852.4731,186.2031 Q851.8423,185.6221 851.2488,185.3523 Q850.6553,185.0825 850.0244,185.0825 Q848.6797,185.0825 847.9949,186.1492 Q847.3101,187.2158 847.3101,189.3159 Q847.3101,191.4077 847.9949,192.4744 Q848.6797,193.541 850.0244,193.541 Q850.6553,193.541 851.2488,193.2712 Q851.8423,193.0015 852.4731,192.4204 Z " fill="#000000"/><text fill="#000000" font-family="sans-serif" font-size="14" font-weight="bold" lengthAdjust="spacing" textLength="46" x="864" y="194.291">Delete</text><line style="stroke:#181818;stroke-width:0.5;" x1="836" x2="912" y1="205" y2="205"/><line style="stroke:#181818;stroke-width:0.5;" x1="836" x2="912" y1="213" y2="213"/></g><!--MD5=[f5f17dba67d0b179398d028838e53b51]
class Retain--><g id="elem_Retain"><rect fill="#F1F1F1" height="48" id="Retain" rx="2.5" ry="2.5" style="stroke:#181818;stroke-width:0.5;" width="78" x="835" y="7"/><ellipse cx="850" cy="23" fill="#ADD1B2" rx="11" ry="11" style="stroke:#181818;stroke-width:1.0;"/><path d="M852.4731,29.1431 Q851.8921,29.4419 851.2529,29.5913 Q850.6138,29.7407 849.9082,29.7407 Q847.4014,29.7407 846.0815,28.0889 Q844.7617,26.437 844.7617,23.3159 Q844.7617,20.1865 846.0815,18.5347 Q847.4014,16.8828 849.9082,16.8828 Q850.6138,16.8828 851.2612,17.0322 Q851.9087,17.1816 852.4731,17.4805 L852.4731,20.2031 Q851.8423,19.6221 851.2488,19.3523 Q850.6553,19.0825 850.0244,19.0825 Q848.6797,19.0825 847.9949,20.1492 Q847.3101,21.2158 847.3101,23.3159 Q847.3101,25.4077 847.9949,26.4744 Q848.6797,27.541 850.0244,27.541 Q850.6553,27.541 851.2488,27.2712 Q851.8423,27.0015 852.4731,26.4204 Z " fill="#000000"/><text fill="#000000" font-family="sans-serif" font-size="14" font-weight="bold" lengthAdjust="spacing" textLength="46" x="864" y="28.291">Retain</text><line style="stroke:#181818;stroke-width:0.5;" x1="836" x2="912" y1="39" y2="39"/><line style="stroke:#181818;stroke-width:0.5;" x1="836" x2="912" y1="47" y2="47"/></g><!--MD5=[90c81c5abb68fc1cf50baa0b36284b44]
class Insert--><g id="elem_Insert"><rect fill="#F1F1F1" height="48" id="Insert" rx="2.5" ry="2.5" style="stroke:#181818;stroke-width:0.5;" width="74" x="837" y="90"/><ellipse cx="852" cy="106" fill="#ADD1B2" rx="11" ry="11" style="stroke:#181818;stroke-width:1.0;"/><path d="M854.4731,112.1431 Q853.8921,112.4419 853.2529,112.5913 Q852.6138,112.7407 851.9082,112.7407 Q849.4014,112.7407 848.0815,111.0889 Q846.7617,109.437 846.7617,106.3159 Q846.7617,103.1865 848.0815,101.5347 Q849.4014,99.8828 851.9082,99.8828 Q852.6138,99.8828 853.2612,100.0322 Q853.9087,100.1816 854.4731,100.4805 L854.4731,103.2031 Q853.8423,102.6221 853.2488,102.3523 Q852.6553,102.0825 852.0244,102.0825 Q850.6797,102.0825 849.9949,103.1492 Q849.3101,104.2158 849.3101,106.3159 Q849.3101,108.4077 849.9949,109.4744 Q850.6797,110.541 852.0244,110.541 Q852.6553,110.541 853.2488,110.2712 Q853.8423,110.0015 854.4731,109.4204 Z " fill="#000000"/><text fill="#000000" font-family="sans-serif" font-size="14" font-weight="bold" lengthAdjust="spacing" textLength="42" x="866" y="111.291">Insert</text><line style="stroke:#181818;stroke-width:0.5;" x1="838" x2="910" y1="122" y2="122"/><line style="stroke:#181818;stroke-width:0.5;" x1="838" x2="910" y1="130" y2="130"/></g><!--MD5=[e8991604ec62049a7a292e1d3857fc7a]
class DeltaIterator--><g id="elem_DeltaIterator"><rect fill="#F1F1F1" height="48" id="DeltaIterator" rx="2.5" ry="2.5" style="stroke:#181818;stroke-width:0.5;" width="124" x="7" y="325"/><ellipse cx="22" cy="341" fill="#ADD1B2" rx="11" ry="11" style="stroke:#181818;stroke-width:1.0;"/><path d="M24.4731,347.1431 Q23.8921,347.4419 23.2529,347.5913 Q22.6138,347.7407 21.9082,347.7407 Q19.4014,347.7407 18.0815,346.0889 Q16.7617,344.437 16.7617,341.3159 Q16.7617,338.1865 18.0815,336.5347 Q19.4014,334.8828 21.9082,334.8828 Q22.6138,334.8828 23.2612,335.0322 Q23.9087,335.1816 24.4731,335.4805 L24.4731,338.2031 Q23.8423,337.6221 23.2488,337.3523 Q22.6553,337.0825 22.0244,337.0825 Q20.6797,337.0825 19.9949,338.1492 Q19.3101,339.2158 19.3101,341.3159 Q19.3101,343.4077 19.9949,344.4744 Q20.6797,345.541 22.0244,345.541 Q22.6553,345.541 23.2488,345.2712 Q23.8423,345.0015 24.4731,344.4204 Z " fill="#000000"/><text fill="#000000" font-family="sans-serif" font-size="14" font-weight="bold" lengthAdjust="spacing" textLength="92" x="36" y="346.291">DeltaIterator</text><line style="stroke:#181818;stroke-width:0.5;" x1="8" x2="130" y1="357" y2="357"/><line style="stroke:#181818;stroke-width:0.5;" x1="8" x2="130" y1="365" y2="365"/></g><!--MD5=[b254c6f3e2ce5fbb5adf8bfa6acb5194]
class DeltaCursor--><g id="elem_DeltaCursor"><rect fill="#F1F1F1" height="48" id="DeltaCursor" rx="2.5" ry="2.5" style="stroke:#181818;stroke-width:0.5;" width="118" x="192.5" y="325"/><ellipse cx="207.5" cy="341" fill="#ADD1B2" rx="11" ry="11" style="stroke:#181818;stroke-width:1.0;"/><path d="M209.9731,347.1431 Q209.3921,347.4419 208.7529,347.5913 Q208.1138,347.7407 207.4082,347.7407 Q204.9014,347.7407 203.5815,346.0889 Q202.2617,344.437 202.2617,341.3159 Q202.2617,338.1865 203.5815,336.5347 Q204.9014,334.8828 207.4082,334.8828 Q208.1138,334.8828 208.7612,335.0322 Q209.4087,335.1816 209.9731,335.4805 L209.9731,338.2031 Q209.3423,337.6221 208.7488,337.3523 Q208.1553,337.0825 207.5244,337.0825 Q206.1797,337.0825 205.4949,338.1492 Q204.8101,339.2158 204.8101,341.3159 Q204.8101,343.4077 205.4949,344.4744 Q206.1797,345.541 207.5244,345.541 Q208.1553,345.541 208.7488,345.2712 Q209.3423,345.0015 209.9731,344.4204 Z " fill="#000000"/><text fill="#000000" font-family="sans-serif" font-size="14" font-weight="bold" lengthAdjust="spacing" textLength="86" x="221.5" y="346.291">DeltaCursor</text><line style="stroke:#181818;stroke-width:0.5;" x1="193.5" x2="309.5" y1="357" y2="357"/><line style="stroke:#181818;stroke-width:0.5;" x1="193.5" x2="309.5" y1="365" y2="365"/></g><!--MD5=[2e0b87f6e2908a144506d38fd4feceda]
class RichTextAttributes--><g id="elem_RichTextAttributes"><rect fill="#F1F1F1" height="48" id="RichTextAttributes" rx="2.5" ry="2.5" style="stroke:#181818;stroke-width:0.5;" width="168" x="1145" y="256"/><ellipse cx="1160" cy="272" fill="#ADD1B2" rx="11" ry="11" style="stroke:#181818;stroke-width:1.0;"/><path d="M1162.4731,278.1431 Q1161.8921,278.4419 1161.2529,278.5913 Q1160.6138,278.7407 1159.9082,278.7407 Q1157.4014,278.7407 1156.0815,277.0889 Q1154.7617,275.437 1154.7617,272.3159 Q1154.7617,269.1865 1156.0815,267.5347 Q1157.4014,265.8828 1159.9082,265.8828 Q1160.6138,265.8828 1161.2612,266.0322 Q1161.9087,266.1816 1162.4731,266.4805 L1162.4731,269.2031 Q1161.8423,268.6221 1161.2488,268.3523 Q1160.6553,268.0825 1160.0244,268.0825 Q1158.6797,268.0825 1157.9949,269.1492 Q1157.3101,270.2158 1157.3101,272.3159 Q1157.3101,274.4077 1157.9949,275.4744 Q1158.6797,276.541 1160.0244,276.541 Q1160.6553,276.541 1161.2488,276.2712 Q1161.8423,276.0015 1162.4731,275.4204 Z " fill="#000000"/><text fill="#000000" font-family="sans-serif" font-size="14" font-weight="bold" lengthAdjust="spacing" textLength="136" x="1174" y="277.291">RichTextAttributes</text><line style="stroke:#181818;stroke-width:0.5;" x1="1146" x2="1312" y1="288" y2="288"/><line style="stroke:#181818;stroke-width:0.5;" x1="1146" x2="1312" y1="296" y2="296"/></g><!--MD5=[445d0bfc45ba25b9fdbd438c1ccbc246]
link Serde to Serialize--><g id="link_Serde_Serialize"><path codeLine="17" d="M909.72,297.47 C929.8,307.58 955.43,320.48 977.69,331.68 " fill="none" id="Serde-to-Serialize" style="stroke:#181818;stroke-width:1.0;"/><polygon fill="#181818" points="982.39,334.04,976.1581,326.4135,977.9265,331.7868,972.5531,333.5551,982.39,334.04" style="stroke:#181818;stroke-width:1.0;"/></g><!--MD5=[256387c6051a0baf395e1ad452468954]
link Serde to Deserialize--><g id="link_Serde_Deserialize"><path codeLine="18" d="M909.72,262.53 C929.14,252.75 953.75,240.37 975.49,229.43 " fill="none" id="Serde-to-Deserialize" style="stroke:#181818;stroke-width:1.0;"/><polygon fill="#181818" points="980.08,227.12,970.2419,227.5798,975.6107,229.3618,973.8287,234.7306,980.08,227.12" style="stroke:#181818;stroke-width:1.0;"/></g><!--MD5=[fd0651be904b8cd51dc9729f88f16cbd]
link DeltaBuilder to Delta--><g id="link_DeltaBuilder_Delta"><path codeLine="20" d="M312.24,278.54 C344.85,285.39 384.33,293.68 413.08,299.72 " fill="none" id="DeltaBuilder-to-Delta" style="stroke:#181818;stroke-width:1.0;"/><polygon fill="#181818" points="418.32,300.82,410.3337,295.0564,413.4266,299.7928,408.6902,302.8858,418.32,300.82" style="stroke:#181818;stroke-width:1.0;"/></g><!--MD5=[61cdb8eb4c0fe53a5d5b65d80f14a3c1]
link Delta to Operation--><g id="link_Delta_Operation"><path codeLine="22" d="M488.86,290.33 C526.94,270.75 588.76,238.97 632.6,216.43 " fill="none" id="Delta-to-Operation" style="stroke:#181818;stroke-width:1.0;"/><polygon fill="#181818" points="637.06,214.14,627.2271,214.7004,632.6139,216.4274,630.8869,221.8142,637.06,214.14" style="stroke:#181818;stroke-width:1.0;"/><text fill="#000000" font-family="sans-serif" font-size="13" lengthAdjust="spacing" textLength="8" x="496.609" y="300.9267">1</text><text fill="#000000" font-family="sans-serif" font-size="13" lengthAdjust="spacing" textLength="6" x="619.2801" y="234.061">*</text></g><!--MD5=[d3be2f34b1d1ec6e5e3d450bb7975b3b]
link Delta to Serde--><g id="link_Delta_Serde"><path codeLine="23" d="M488.75,305.71 C561.17,300.86 730.38,289.54 818.09,283.67 " fill="none" id="Delta-to-Serde" style="stroke:#181818;stroke-width:1.0;"/><polygon fill="none" points="817.86,276.67,838.28,282.32,818.79,290.64,817.86,276.67" style="stroke:#181818;stroke-width:1.0;"/></g><!--MD5=[e8101d41531f103e31f6808329b61b59]
link Delta to OTString--><g id="link_Delta_OTString"><path codeLine="24" d="M488.86,313.39 C526.54,319.3 587.48,328.86 631.24,335.72 " fill="none" id="Delta-to-OTString" style="stroke:#181818;stroke-width:1.0;"/><polygon fill="#181818" points="636.22,336.5,627.9596,331.1367,631.282,335.7151,626.7036,339.0375,636.22,336.5" style="stroke:#181818;stroke-width:1.0;"/></g><!--MD5=[938e5ad8a4f8ec9e31e077b2886dc3a2]
link Delta to OperationTransform--><g id="link_Delta_OperationTransform"><path codeLine="25" d="M488.86,329.56 C515.51,346.28 553.78,370.3 589.39,392.64 " fill="none" id="Delta-to-OperationTransform" style="stroke:#181818;stroke-width:1.0;"/><polygon fill="none" points="593.37,386.87,606.59,403.43,585.93,398.73,593.37,386.87" style="stroke:#181818;stroke-width:1.0;"/></g><!--MD5=[44340b83535c7f61a258ffa5742e42f1]
link OperationsBuilder to Operation--><g id="link_OperationsBuilder_Operation"><path codeLine="27" d="M535.09,190 C565.73,190 599.95,190 627.85,190 " fill="none" id="OperationsBuilder-to-Operation" style="stroke:#181818;stroke-width:1.0;"/><polygon fill="#181818" points="632.98,190,623.98,186,627.98,190,623.98,194,632.98,190" style="stroke:#181818;stroke-width:1.0;"/></g><!--MD5=[4cf0f741f798b0e22d7684356de7b772]
reverse link Operation to Delete--><g id="link_Operation_Delete"><path codeLine="28" d="M757.47,192.68 C783.75,193.66 812.48,194.73 834.72,195.57 " fill="none" id="Operation-backto-Delete" style="stroke:#181818;stroke-width:1.0;"/><polygon fill="none" points="756.82,199.66,737.1,191.91,757.35,185.67,756.82,199.66" style="stroke:#181818;stroke-width:1.0;"/></g><!--MD5=[46203ce5e8e7b5c01743ed9bdeb467c3]
reverse link Operation to Retain--><g id="link_Operation_Retain"><path codeLine="29" d="M730.11,152.5 C765.53,122.38 814.22,80.98 844.64,55.11 " fill="none" id="Operation-backto-Retain" style="stroke:#181818;stroke-width:1.0;"/><polygon fill="none" points="734.17,158.23,714.4,165.85,725.1,147.56,734.17,158.23" style="stroke:#181818;stroke-width:1.0;"/></g><!--MD5=[bd2270dd01d7963c4502181332960c0b]
reverse link Operation to Insert--><g id="link_Operation_Insert"><path codeLine="30" d="M755.99,161.55 C783.48,150.38 813.86,138.03 836.78,128.72 " fill="none" id="Operation-backto-Insert" style="stroke:#181818;stroke-width:1.0;"/><polygon fill="none" points="758.26,168.19,737.1,169.23,752.99,155.22,758.26,168.19" style="stroke:#181818;stroke-width:1.0;"/></g><!--MD5=[5c016afa52f8b0cccd2cdf0e28d02923]
link Operation to Serde--><g id="link_Operation_Serde"><path codeLine="31" d="M736.11,214.12 C762.14,226.65 793.94,241.95 820.33,254.65 " fill="none" id="Operation-to-Serde" style="stroke:#181818;stroke-width:1.0;"/><polygon fill="none" points="823.45,248.38,838.43,263.36,817.38,261,823.45,248.38" style="stroke:#181818;stroke-width:1.0;"/></g><!--MD5=[a17528af88fc836f60a6dbafa0ce6802]
link Retain to Attributes--><g id="link_Retain_Attributes"><path codeLine="33" d="M913.21,51.73 C933.13,62.53 957.71,75.87 979,87.42 " fill="none" id="Retain-to-Attributes" style="stroke:#181818;stroke-width:1.0;"/><polygon fill="#181818" points="983.5,89.86,977.5054,82.0456,979.1078,87.4708,973.6826,89.0731,983.5,89.86" style="stroke:#181818;stroke-width:1.0;"/></g><!--MD5=[a6f71c4f3812e12ed7a75f84c34784ed]
link Insert to Attributes--><g id="link_Insert_Attributes"><path codeLine="34" d="M911.26,114 C929.18,114 951.22,114 971.31,114 " fill="none" id="Insert-to-Attributes" style="stroke:#181818;stroke-width:1.0;"/><polygon fill="#181818" points="976.37,114,967.37,110,971.37,114,967.37,118,976.37,114" style="stroke:#181818;stroke-width:1.0;"/></g><!--MD5=[611388ee0b6180bbf2c9c8ad42c8f4a2]
link DeltaIterator to DeltaCursor--><g id="link_DeltaIterator_DeltaCursor"><path codeLine="36" d="M131.11,349 C149.15,349 168.94,349 187.12,349 " fill="none" id="DeltaIterator-to-DeltaCursor" style="stroke:#181818;stroke-width:1.0;"/><polygon fill="#181818" points="192.2,349,183.2,345,187.2,349,183.2,353,192.2,349" style="stroke:#181818;stroke-width:1.0;"/></g><!--MD5=[701fccc29fd4e200176d0850d36fa306]
link DeltaCursor to Delta--><g id="link_DeltaCursor_Delta"><path codeLine="37" d="M310.62,337.09 C343.65,330.31 384.13,322.02 413.38,316.02 " fill="none" id="DeltaCursor-to-Delta" style="stroke:#181818;stroke-width:1.0;"/><polygon fill="#181818" points="418.34,315,408.7219,312.8804,413.441,315.9998,410.3216,320.7189,418.34,315" style="stroke:#181818;stroke-width:1.0;"/></g><!--MD5=[66f2e390ab2214745d7e0b04bbfbdf1e]
reverse link Attributes to RichTextAttributes--><g id="link_Attributes_RichTextAttributes"><path codeLine="40" d="M1074.32,151.15 C1112.46,183.13 1166.39,228.34 1199.17,255.83 " fill="none" id="Attributes-backto-RichTextAttributes" style="stroke:#181818;stroke-width:1.0;"/><polygon fill="none" points="1069.62,156.35,1058.79,138.14,1078.61,145.62,1069.62,156.35" style="stroke:#181818;stroke-width:1.0;"/></g><!--MD5=[baaddad676958014d1c4d2ea842d7e00]
reverse link OperationTransform to RichTextAttributes--><g id="link_OperationTransform_RichTextAttributes"><path codeLine="41" d="M795.43,453.63 C878.17,451.11 992.86,439.38 1085,399 C1134.99,377.09 1181.3,332.25 1207,304.3 " fill="none" id="OperationTransform-backto-RichTextAttributes" style="stroke:#181818;stroke-width:1.0;"/><polygon fill="none" points="795.53,460.63,775.38,454.09,795.22,446.64,795.53,460.63" style="stroke:#181818;stroke-width:1.0;"/></g><!--MD5=[9580be45fd1262f21b42175de4500325]
reverse link Serde to RichTextAttributes--><g id="link_Serde_RichTextAttributes"><path codeLine="42" d="M930.1,280 C987.62,280 1078.49,280 1144.76,280 " fill="none" id="Serde-backto-RichTextAttributes" style="stroke:#181818;stroke-width:1.0;"/><polygon fill="none" points="929.81,287,909.81,280,929.81,273,929.81,287" style="stroke:#181818;stroke-width:1.0;"/></g><!--MD5=[7948b7ff3605a5cdd3aac519fc33a126]
@startuml Delta
skinparam classFontStyle Bold
skinparam ActivityBackgroundColor Silver
skinparam ActivityBorderColor DimGray
left to right direction


interface Attributes
interface Serialize
interface Deserialize
interface OperationTransform {
 fn compose
 fn transform
 fn invert
}

interface Serde
Serde - -> Serialize
Serde - -> Deserialize

DeltaBuilder - -> Delta

Delta "1" - -> "*" Operation
Delta - -|> Serde
Delta - -> OTString
Delta - -|> OperationTransform

OperationsBuilder - -> Operation
Delete -u-|> Operation
Retain -u-|> Operation
Insert -u-|> Operation
Operation - -|> Serde

Retain - -> Attributes
Insert - -> Attributes

DeltaIterator - -> DeltaCursor
DeltaCursor - -> Delta

'rich text
RichTextAttributes -u-|> Attributes
RichTextAttributes -u-|> OperationTransform
RichTextAttributes -l-|> Serde

@enduml

@startuml Delta
skinparam classFontStyle Bold
skinparam ActivityBackgroundColor Silver
skinparam ActivityBorderColor DimGray
left to right direction


interface Attributes
interface Serialize
interface Deserialize
interface OperationTransform {
 fn compose
 fn transform
 fn invert
}

interface Serde
Serde - -> Serialize
Serde - -> Deserialize

DeltaBuilder - -> Delta

Delta "1" - -> "*" Operation
Delta - -|> Serde
Delta - -> OTString
Delta - -|> OperationTransform

OperationsBuilder - -> Operation
Delete -u-|> Operation
Retain -u-|> Operation
Insert -u-|> Operation
Operation - -|> Serde

Retain - -> Attributes
Insert - -> Attributes

DeltaIterator - -> DeltaCursor
DeltaCursor - -> Delta

RichTextAttributes -u-|> Attributes
RichTextAttributes -u-|> OperationTransform
RichTextAttributes -l-|> Serde

@enduml

PlantUML version 1.2022.5(Sat Apr 30 18:55:52 CST 2022)
(GPL source distribution)
Java Runtime: OpenJDK Runtime Environment
JVM: OpenJDK 64-Bit Server VM
Default Encoding: UTF-8
Language: en
Country: US
--></g></svg>