<?xml version="1.0" encoding="UTF-8" standalone="no"?><svg xmlns="http://www.w3.org/2000/svg" xmlns:xlink="http://www.w3.org/1999/xlink" contentScriptType="application/ecmascript" contentStyleType="text/css" height="433px" preserveAspectRatio="none" style="width:1054px;height:433px;background:#FFFFFF;" version="1.1" viewBox="0 0 1054 433" width="1054px" zoomAndPan="magnify"><defs/><g><text fill="#000000" font-family="sans-serif" font-size="18" lengthAdjust="spacing" textLength="172" x="434.5" y="19.2419">Editor2 (FlutterQuill)</text><rect fill="#FFFFFF" height="329" style="stroke:#FFFFFF;stroke-width:1.5;" width="222" x="826" y="98.5158"/><rect fill="#FFFFFF" height="80" style="stroke:#FFFFFF;stroke-width:1.5;" width="306" x="492" y="98.5158"/><!--MD5=[21f4b7fabc305fe26a91c725c8108c4a]
class _didChangeTextEditingValue--><rect codeLine="15" fill="#FEFECE" height="48" id="_didChangeTextEditingValue" style="stroke:#A80036;stroke-width:1.5;" width="190" x="842" y="114.5158"/><ellipse cx="857" cy="130.5158" fill="#ADD1B2" rx="11" ry="11" style="stroke:#A80036;stroke-width:1.0;"/><path d="M856.6875,126.844 Q855.2031,126.844 854.4219,127.9533 Q853.6406,129.0627 853.6406,130.9846 Q853.6406,132.9221 854.3594,133.9846 Q855.0781,135.0471 856.6875,135.0471 Q857.4219,135.0471 858.1563,134.8752 Q858.9063,134.7033 859.7813,134.3908 L859.7813,136.5627 Q858.9688,136.8752 858.1875,137.0315 Q857.4063,137.1877 856.4375,137.1877 Q854.5781,137.1877 853.3594,136.4221 Q852.1406,135.6408 851.5625,134.2346 Q850.9844,132.8283 850.9844,130.969 Q850.9844,129.1252 851.6406,127.719 Q852.3125,126.3127 853.5781,125.5158 Q854.8438,124.7033 856.6875,124.7033 Q857.5781,124.7033 858.4844,124.9377 Q859.4063,125.1721 860.2344,125.5627 L859.4063,127.6565 Q858.7188,127.3283 858.0313,127.094 Q857.3438,126.844 856.6875,126.844 Z " fill="#000000"/><text fill="#000000" font-family="sans-serif" font-size="12" lengthAdjust="spacing" textLength="158" x="871" y="135.1719">_didChangeTextEditingValue</text><line style="stroke:#A80036;stroke-width:1.5;" x1="843" x2="1031" y1="146.5158" y2="146.5158"/><line style="stroke:#A80036;stroke-width:1.5;" x1="843" x2="1031" y1="154.5158" y2="154.5158"/><!--MD5=[a2d95f0dbb7e21c363483a7db3133465]
class _onChangeTextEditingValue--><rect codeLine="16" fill="#FEFECE" height="48" id="_onChangeTextEditingValue" style="stroke:#A80036;stroke-width:1.5;" width="187" x="843.5" y="197.5158"/><ellipse cx="858.5" cy="213.5158" fill="#ADD1B2" rx="11" ry="11" style="stroke:#A80036;stroke-width:1.0;"/><path d="M858.1875,209.844 Q856.7031,209.844 855.9219,210.9533 Q855.1406,212.0627 855.1406,213.9846 Q855.1406,215.9221 855.8594,216.9846 Q856.5781,218.0471 858.1875,218.0471 Q858.9219,218.0471 859.6563,217.8752 Q860.4063,217.7033 861.2813,217.3908 L861.2813,219.5627 Q860.4688,219.8752 859.6875,220.0315 Q858.9063,220.1877 857.9375,220.1877 Q856.0781,220.1877 854.8594,219.4221 Q853.6406,218.6408 853.0625,217.2346 Q852.4844,215.8283 852.4844,213.969 Q852.4844,212.1252 853.1406,210.719 Q853.8125,209.3127 855.0781,208.5158 Q856.3438,207.7033 858.1875,207.7033 Q859.0781,207.7033 859.9844,207.9377 Q860.9063,208.1721 861.7344,208.5627 L860.9063,210.6565 Q860.2188,210.3283 859.5313,210.094 Q858.8438,209.844 858.1875,209.844 Z " fill="#000000"/><text fill="#000000" font-family="sans-serif" font-size="12" lengthAdjust="spacing" textLength="155" x="872.5" y="218.1719">_onChangeTextEditingValue</text><line style="stroke:#A80036;stroke-width:1.5;" x1="844.5" x2="1029.5" y1="229.5158" y2="229.5158"/><line style="stroke:#A80036;stroke-width:1.5;" x1="844.5" x2="1029.5" y1="237.5158" y2="237.5158"/><!--MD5=[2f309b533ba6edecb58909d585fb397f]
class _showCaretOnScreen--><rect codeLine="17" fill="#FEFECE" height="48" id="_showCaretOnScreen" style="stroke:#A80036;stroke-width:1.5;" width="152" x="861" y="280.5158"/><ellipse cx="876" cy="296.5158" fill="#ADD1B2" rx="11" ry="11" style="stroke:#A80036;stroke-width:1.0;"/><path d="M875.6875,292.844 Q874.2031,292.844 873.4219,293.9533 Q872.6406,295.0627 872.6406,296.9846 Q872.6406,298.9221 873.3594,299.9846 Q874.0781,301.0471 875.6875,301.0471 Q876.4219,301.0471 877.1563,300.8752 Q877.9063,300.7033 878.7813,300.3908 L878.7813,302.5627 Q877.9688,302.8752 877.1875,303.0315 Q876.4063,303.1877 875.4375,303.1877 Q873.5781,303.1877 872.3594,302.4221 Q871.1406,301.6408 870.5625,300.2346 Q869.9844,298.8283 869.9844,296.969 Q869.9844,295.1252 870.6406,293.719 Q871.3125,292.3127 872.5781,291.5158 Q873.8438,290.7033 875.6875,290.7033 Q876.5781,290.7033 877.4844,290.9377 Q878.4063,291.1721 879.2344,291.5627 L878.4063,293.6565 Q877.7188,293.3283 877.0313,293.094 Q876.3438,292.844 875.6875,292.844 Z " fill="#000000"/><text fill="#000000" font-family="sans-serif" font-size="12" lengthAdjust="spacing" textLength="120" x="890" y="301.1719">_showCaretOnScreen</text><line style="stroke:#A80036;stroke-width:1.5;" x1="862" x2="1012" y1="312.5158" y2="312.5158"/><line style="stroke:#A80036;stroke-width:1.5;" x1="862" x2="1012" y1="320.5158" y2="320.5158"/><!--MD5=[3f856c986ec048db017d1bdd32ae7041]
class ConfigCursorTimer--><rect codeLine="18" fill="#FEFECE" height="48" id="ConfigCursorTimer" style="stroke:#A80036;stroke-width:1.5;" width="145" x="864.5" y="363.5158"/><ellipse cx="879.5" cy="379.5158" fill="#ADD1B2" rx="11" ry="11" style="stroke:#A80036;stroke-width:1.0;"/><path d="M879.1875,375.844 Q877.7031,375.844 876.9219,376.9533 Q876.1406,378.0627 876.1406,379.9846 Q876.1406,381.9221 876.8594,382.9846 Q877.5781,384.0471 879.1875,384.0471 Q879.9219,384.0471 880.6563,383.8752 Q881.4063,383.7033 882.2813,383.3908 L882.2813,385.5627 Q881.4688,385.8752 880.6875,386.0315 Q879.9063,386.1877 878.9375,386.1877 Q877.0781,386.1877 875.8594,385.4221 Q874.6406,384.6408 874.0625,383.2346 Q873.4844,381.8283 873.4844,379.969 Q873.4844,378.1252 874.1406,376.719 Q874.8125,375.3127 876.0781,374.5158 Q877.3438,373.7033 879.1875,373.7033 Q880.0781,373.7033 880.9844,373.9377 Q881.9063,374.1721 882.7344,374.5627 L881.9063,376.6565 Q881.2188,376.3283 880.5313,376.094 Q879.8438,375.844 879.1875,375.844 Z " fill="#000000"/><text fill="#000000" font-family="sans-serif" font-size="12" lengthAdjust="spacing" textLength="113" x="893.5" y="384.1719">Config Cursor Timer</text><line style="stroke:#A80036;stroke-width:1.5;" x1="865.5" x2="1008.5" y1="395.5158" y2="395.5158"/><line style="stroke:#A80036;stroke-width:1.5;" x1="865.5" x2="1008.5" y1="403.5158" y2="403.5158"/><!--MD5=[f3fecd09d693ed316e1dea179e27f73d]
class QuillController--><rect codeLine="23" fill="#FEFECE" height="48" id="QuillController" style="stroke:#A80036;stroke-width:1.5;" width="113" x="508" y="114.5158"/><ellipse cx="523" cy="130.5158" fill="#ADD1B2" rx="11" ry="11" style="stroke:#A80036;stroke-width:1.0;"/><path d="M522.6875,126.844 Q521.2031,126.844 520.4219,127.9533 Q519.6406,129.0627 519.6406,130.9846 Q519.6406,132.9221 520.3594,133.9846 Q521.0781,135.0471 522.6875,135.0471 Q523.4219,135.0471 524.1563,134.8752 Q524.9063,134.7033 525.7813,134.3908 L525.7813,136.5627 Q524.9688,136.8752 524.1875,137.0315 Q523.4063,137.1877 522.4375,137.1877 Q520.5781,137.1877 519.3594,136.4221 Q518.1406,135.6408 517.5625,134.2346 Q516.9844,132.8283 516.9844,130.969 Q516.9844,129.1252 517.6406,127.719 Q518.3125,126.3127 519.5781,125.5158 Q520.8438,124.7033 522.6875,124.7033 Q523.5781,124.7033 524.4844,124.9377 Q525.4063,125.1721 526.2344,125.5627 L525.4063,127.6565 Q524.7188,127.3283 524.0313,127.094 Q523.3438,126.844 522.6875,126.844 Z " fill="#000000"/><text fill="#000000" font-family="sans-serif" font-size="12" lengthAdjust="spacing" textLength="81" x="537" y="135.1719">QuillController</text><line style="stroke:#A80036;stroke-width:1.5;" x1="509" x2="620" y1="146.5158" y2="146.5158"/><line style="stroke:#A80036;stroke-width:1.5;" x1="509" x2="620" y1="154.5158" y2="154.5158"/><!--MD5=[1770cc6a9775237e8b87c3eeb0f14312]
class RenderState--><rect codeLine="24" fill="#FEFECE" height="48" id="RenderState" style="stroke:#A80036;stroke-width:1.5;" width="101" x="681" y="114.5158"/><ellipse cx="696" cy="130.5158" fill="#ADD1B2" rx="11" ry="11" style="stroke:#A80036;stroke-width:1.0;"/><path d="M695.6875,126.844 Q694.2031,126.844 693.4219,127.9533 Q692.6406,129.0627 692.6406,130.9846 Q692.6406,132.9221 693.3594,133.9846 Q694.0781,135.0471 695.6875,135.0471 Q696.4219,135.0471 697.1563,134.8752 Q697.9063,134.7033 698.7813,134.3908 L698.7813,136.5627 Q697.9688,136.8752 697.1875,137.0315 Q696.4063,137.1877 695.4375,137.1877 Q693.5781,137.1877 692.3594,136.4221 Q691.1406,135.6408 690.5625,134.2346 Q689.9844,132.8283 689.9844,130.969 Q689.9844,129.1252 690.6406,127.719 Q691.3125,126.3127 692.5781,125.5158 Q693.8438,124.7033 695.6875,124.7033 Q696.5781,124.7033 697.4844,124.9377 Q698.4063,125.1721 699.2344,125.5627 L698.4063,127.6565 Q697.7188,127.3283 697.0313,127.094 Q696.3438,126.844 695.6875,126.844 Z " fill="#000000"/><text fill="#000000" font-family="sans-serif" font-size="12" lengthAdjust="spacing" textLength="69" x="710" y="135.1719">RenderState</text><line style="stroke:#A80036;stroke-width:1.5;" x1="682" x2="781" y1="146.5158" y2="146.5158"/><line style="stroke:#A80036;stroke-width:1.5;" x1="682" x2="781" y1="154.5158" y2="154.5158"/><!--MD5=[66f55fb596702a5a056f7dc1098b3948]
class RawGestureDetector--><rect fill="#FEFECE" height="48" id="RawGestureDetector" style="stroke:#A80036;stroke-width:1.5;" width="149" x="7" y="31.5158"/><ellipse cx="22" cy="47.5158" fill="#ADD1B2" rx="11" ry="11" style="stroke:#A80036;stroke-width:1.0;"/><path d="M21.6875,43.844 Q20.2031,43.844 19.4219,44.9533 Q18.6406,46.0627 18.6406,47.9846 Q18.6406,49.9221 19.3594,50.9846 Q20.0781,52.0471 21.6875,52.0471 Q22.4219,52.0471 23.1563,51.8752 Q23.9063,51.7033 24.7813,51.3908 L24.7813,53.5627 Q23.9688,53.8752 23.1875,54.0315 Q22.4063,54.1877 21.4375,54.1877 Q19.5781,54.1877 18.3594,53.4221 Q17.1406,52.6408 16.5625,51.2346 Q15.9844,49.8283 15.9844,47.969 Q15.9844,46.1252 16.6406,44.719 Q17.3125,43.3127 18.5781,42.5158 Q19.8438,41.7033 21.6875,41.7033 Q22.5781,41.7033 23.4844,41.9377 Q24.4063,42.1721 25.2344,42.5627 L24.4063,44.6565 Q23.7188,44.3283 23.0313,44.094 Q22.3438,43.844 21.6875,43.844 Z " fill="#000000"/><text fill="#000000" font-family="sans-serif" font-size="12" lengthAdjust="spacing" textLength="117" x="36" y="52.1719">RawGestureDetector</text><line style="stroke:#A80036;stroke-width:1.5;" x1="8" x2="155" y1="63.5158" y2="63.5158"/><line style="stroke:#A80036;stroke-width:1.5;" x1="8" x2="155" y1="71.5158" y2="71.5158"/><!--MD5=[d42c200a6e6a221a21ddb38a430d9ce7]
class RenderEditor--><rect fill="#FEFECE" height="48" id="RenderEditor" style="stroke:#A80036;stroke-width:1.5;" width="105" x="279.5" y="31.5158"/><ellipse cx="294.5" cy="47.5158" fill="#ADD1B2" rx="11" ry="11" style="stroke:#A80036;stroke-width:1.0;"/><path d="M294.1875,43.844 Q292.7031,43.844 291.9219,44.9533 Q291.1406,46.0627 291.1406,47.9846 Q291.1406,49.9221 291.8594,50.9846 Q292.5781,52.0471 294.1875,52.0471 Q294.9219,52.0471 295.6563,51.8752 Q296.4063,51.7033 297.2813,51.3908 L297.2813,53.5627 Q296.4688,53.8752 295.6875,54.0315 Q294.9063,54.1877 293.9375,54.1877 Q292.0781,54.1877 290.8594,53.4221 Q289.6406,52.6408 289.0625,51.2346 Q288.4844,49.8283 288.4844,47.969 Q288.4844,46.1252 289.1406,44.719 Q289.8125,43.3127 291.0781,42.5158 Q292.3438,41.7033 294.1875,41.7033 Q295.0781,41.7033 295.9844,41.9377 Q296.9063,42.1721 297.7344,42.5627 L296.9063,44.6565 Q296.2188,44.3283 295.5313,44.094 Q294.8438,43.844 294.1875,43.844 Z " fill="#000000"/><text fill="#000000" font-family="sans-serif" font-size="12" lengthAdjust="spacing" textLength="73" x="308.5" y="52.1719">RenderEditor</text><line style="stroke:#A80036;stroke-width:1.5;" x1="280.5" x2="383.5" y1="63.5158" y2="63.5158"/><line style="stroke:#A80036;stroke-width:1.5;" x1="280.5" x2="383.5" y1="71.5158" y2="71.5158"/><!--MD5=[586fe7ed3ddbd6318b646bc54c841e5d]
class RawEditorStateTextInputClientMixin--><rect fill="#FEFECE" height="48" id="RawEditorStateTextInputClientMixin" style="stroke:#A80036;stroke-width:1.5;" width="232" x="216" y="114.5158"/><ellipse cx="231" cy="130.5158" fill="#ADD1B2" rx="11" ry="11" style="stroke:#A80036;stroke-width:1.0;"/><path d="M230.6875,126.844 Q229.2031,126.844 228.4219,127.9533 Q227.6406,129.0627 227.6406,130.9846 Q227.6406,132.9221 228.3594,133.9846 Q229.0781,135.0471 230.6875,135.0471 Q231.4219,135.0471 232.1563,134.8752 Q232.9063,134.7033 233.7813,134.3908 L233.7813,136.5627 Q232.9688,136.8752 232.1875,137.0315 Q231.4063,137.1877 230.4375,137.1877 Q228.5781,137.1877 227.3594,136.4221 Q226.1406,135.6408 225.5625,134.2346 Q224.9844,132.8283 224.9844,130.969 Q224.9844,129.1252 225.6406,127.719 Q226.3125,126.3127 227.5781,125.5158 Q228.8438,124.7033 230.6875,124.7033 Q231.5781,124.7033 232.4844,124.9377 Q233.4063,125.1721 234.2344,125.5627 L233.4063,127.6565 Q232.7188,127.3283 232.0313,127.094 Q231.3438,126.844 230.6875,126.844 Z " fill="#000000"/><text fill="#000000" font-family="sans-serif" font-size="12" lengthAdjust="spacing" textLength="200" x="245" y="135.1719">RawEditorStateTextInputClientMixin</text><line style="stroke:#A80036;stroke-width:1.5;" x1="217" x2="447" y1="146.5158" y2="146.5158"/><line style="stroke:#A80036;stroke-width:1.5;" x1="217" x2="447" y1="154.5158" y2="154.5158"/><!--MD5=[f8c6220a32f2c18c44cb40821b33be02]
class RawEditorStateKeyboardMixin--><rect fill="#FEFECE" height="48" id="RawEditorStateKeyboardMixin" style="stroke:#A80036;stroke-width:1.5;" width="200" x="232" y="197.5158"/><ellipse cx="247" cy="213.5158" fill="#ADD1B2" rx="11" ry="11" style="stroke:#A80036;stroke-width:1.0;"/><path d="M246.6875,209.844 Q245.2031,209.844 244.4219,210.9533 Q243.6406,212.0627 243.6406,213.9846 Q243.6406,215.9221 244.3594,216.9846 Q245.0781,218.0471 246.6875,218.0471 Q247.4219,218.0471 248.1563,217.8752 Q248.9063,217.7033 249.7813,217.3908 L249.7813,219.5627 Q248.9688,219.8752 248.1875,220.0315 Q247.4063,220.1877 246.4375,220.1877 Q244.5781,220.1877 243.3594,219.4221 Q242.1406,218.6408 241.5625,217.2346 Q240.9844,215.8283 240.9844,213.969 Q240.9844,212.1252 241.6406,210.719 Q242.3125,209.3127 243.5781,208.5158 Q244.8438,207.7033 246.6875,207.7033 Q247.5781,207.7033 248.4844,207.9377 Q249.4063,208.1721 250.2344,208.5627 L249.4063,210.6565 Q248.7188,210.3283 248.0313,210.094 Q247.3438,209.844 246.6875,209.844 Z " fill="#000000"/><text fill="#000000" font-family="sans-serif" font-size="12" lengthAdjust="spacing" textLength="168" x="261" y="218.1719">RawEditorStateKeyboardMixin</text><line style="stroke:#A80036;stroke-width:1.5;" x1="233" x2="431" y1="229.5158" y2="229.5158"/><line style="stroke:#A80036;stroke-width:1.5;" x1="233" x2="431" y1="237.5158" y2="237.5158"/><!--MD5=[4c137bcd8be8d67d1058f27546d4cc7d]
link RawGestureDetector to RenderEditor--><path codeLine="28" d="M156.32,55.5158 C156.32,55.5158 274.41,55.5158 274.41,55.5158 " fill="none" id="RawGestureDetector-to-RenderEditor" style="stroke:#A80036;stroke-width:1.0;"/><polygon fill="#A80036" points="279.41,55.5158,270.41,51.5158,274.41,55.5158,270.41,59.5158,279.41,55.5158" style="stroke:#A80036;stroke-width:1.0;"/><!--MD5=[f0770e2682b850bea2993fa9973261aa]
link RenderEditor to QuillController--><path codeLine="29" d="M384.58,55.5158 C453.3,55.5158 565,55.5158 565,55.5158 C565,55.5158 565,109.5058 565,109.5058 " fill="none" id="RenderEditor-to-QuillController" style="stroke:#A80036;stroke-width:1.0;"/><polygon fill="#A80036" points="565,114.5058,569,105.5058,565,109.5058,561,105.5058,565,114.5058" style="stroke:#A80036;stroke-width:1.0;"/><!--MD5=[e85e61e0a08b79dd5779e5c406577146]
link RawEditorStateTextInputClientMixin to QuillController--><path codeLine="30" d="M448.25,138.5158 C448.25,138.5158 502.92,138.5158 502.92,138.5158 " fill="none" id="RawEditorStateTextInputClientMixin-to-QuillController" style="stroke:#A80036;stroke-width:1.0;"/><polygon fill="#A80036" points="507.92,138.5158,498.92,134.5158,502.92,138.5158,498.92,142.5158,507.92,138.5158" style="stroke:#A80036;stroke-width:1.0;"/><!--MD5=[ee8f6ac50d71e9a74b8d2923dccdb526]
link RawEditorStateKeyboardMixin to QuillController--><path codeLine="31" d="M432.17,221.5158 C495.32,221.5158 565,221.5158 565,221.5158 C565,221.5158 565,167.5258 565,167.5258 " fill="none" id="RawEditorStateKeyboardMixin-to-QuillController" style="stroke:#A80036;stroke-width:1.0;"/><polygon fill="#A80036" points="565,162.5258,561,171.5258,565,167.5258,569,171.5258,565,162.5258" style="stroke:#A80036;stroke-width:1.0;"/><!--MD5=[064698506e5d27a538ba74b1f2c2ebb2]
link QuillController to RenderState--><path codeLine="33" d="M621.04,146.5158 C621.04,146.5158 675.91,146.5158 675.91,146.5158 " fill="none" id="QuillController-to-RenderState" style="stroke:#A80036;stroke-width:1.0;"/><polygon fill="#A80036" points="680.91,146.5158,671.91,142.5158,675.91,146.5158,671.91,150.5158,680.91,146.5158" style="stroke:#A80036;stroke-width:1.0;"/><text fill="#000000" font-family="sans-serif" font-size="13" lengthAdjust="spacing" textLength="95" x="603.4372" y="184.6101">2. notify change</text><!--MD5=[4411dbd367bcfa6e015750c715b47f04]
link RenderState to QuillController--><path codeLine="34" d="M680.94,130.5158 C680.94,130.5158 626.02,130.5158 626.02,130.5158 " fill="none" id="RenderState-to-QuillController" style="stroke:#A80036;stroke-width:1.0;"/><polygon fill="#A80036" points="621.02,130.5158,630.02,134.5158,626.02,130.5158,630.02,126.5158,621.02,130.5158" style="stroke:#A80036;stroke-width:1.0;"/><text fill="#000000" font-family="sans-serif" font-size="13" lengthAdjust="spacing" textLength="32" x="628.9519" y="125.6468">listen</text><!--MD5=[814ea77042eaad47848e4b4b5b7e08f9]
link RenderState to _didChangeTextEditingValue--><path codeLine="36" d="M782.03,138.5158 C782.03,138.5158 836.69,138.5158 836.69,138.5158 " fill="none" id="RenderState-to-_didChangeTextEditingValue" style="stroke:#A80036;stroke-width:1.0;"/><polygon fill="#A80036" points="841.69,138.5158,832.69,134.5158,836.69,138.5158,832.69,142.5158,841.69,138.5158" style="stroke:#A80036;stroke-width:1.0;"/><!--MD5=[a2e5e2c239a0117bd35235d2c3c9854b]
reverse link _onChangeTextEditingValue to _didChangeTextEditingValue--><path codeLine="37" d="M937,192.5058 C937,192.5058 937,162.7558 937,162.7558 " fill="none" id="_onChangeTextEditingValue-backto-_didChangeTextEditingValue" style="stroke:#A80036;stroke-width:1.0;"/><polygon fill="#A80036" points="937,197.5058,941,188.5058,937,192.5058,933,188.5058,937,197.5058" style="stroke:#A80036;stroke-width:1.0;"/><!--MD5=[d50dee7042998ee78cc3dda079e10271]
reverse link _showCaretOnScreen to _onChangeTextEditingValue--><path codeLine="38" d="M937,275.5058 C937,275.5058 937,245.7558 937,245.7558 " fill="none" id="_showCaretOnScreen-backto-_onChangeTextEditingValue" style="stroke:#A80036;stroke-width:1.0;"/><polygon fill="#A80036" points="937,280.5058,941,271.5058,937,275.5058,933,271.5058,937,280.5058" style="stroke:#A80036;stroke-width:1.0;"/><!--MD5=[9f2f8c251641eea3c68985368639a232]
reverse link ConfigCursorTimer to _showCaretOnScreen--><path codeLine="39" d="M937,358.5058 C937,358.5058 937,328.7558 937,328.7558 " fill="none" id="ConfigCursorTimer-backto-_showCaretOnScreen" style="stroke:#A80036;stroke-width:1.0;"/><polygon fill="#A80036" points="937,363.5058,941,354.5058,937,358.5058,933,354.5058,937,363.5058" style="stroke:#A80036;stroke-width:1.0;"/><!--MD5=[98652efd3e7d91ecbe2d899e7b259016]
@startuml EditorFlutterQuill2

left to right direction
skinparam linetype ortho
skinparam shadowing false

title Editor2 (FlutterQuill)

skinparam package {
    BorderColor transparent
    BackgroundColor transparent
}

package "" <<Rectangle>>  {

    class _didChangeTextEditingValue
    class _onChangeTextEditingValue
    class _showCaretOnScreen
    class ConfigCursorTimer as "Config Cursor Timer"

}

package "" <<Rectangle>>  {
    class QuillController
    class RenderState
}


RawGestureDetector - -> RenderEditor
RenderEditor - -> QuillController
RawEditorStateTextInputClientMixin - -> QuillController
RawEditorStateKeyboardMixin - -> QuillController

QuillController - ->"2. notify change" RenderState
RenderState - ->"listen" QuillController

RenderState - -> _didChangeTextEditingValue
_didChangeTextEditingValue -left-> _onChangeTextEditingValue
_onChangeTextEditingValue -left-> _showCaretOnScreen
_showCaretOnScreen -left->ConfigCursorTimer



@enduml

PlantUML version 1.2022.0(Tue Jan 11 11:16:42 EST 2022)
(GPL source distribution)
Java Runtime: OpenJDK Runtime Environment
JVM: OpenJDK 64-Bit Server VM
Default Encoding: UTF-8
Language: en
Country: CA
--></g></svg>