<?xml version="1.0" encoding="UTF-8" standalone="no"?><svg xmlns="http://www.w3.org/2000/svg" xmlns:xlink="http://www.w3.org/1999/xlink" contentScriptType="application/ecmascript" contentStyleType="text/css" height="310px" preserveAspectRatio="none" style="width:792px;height:310px;" version="1.1" viewBox="0 0 792 310" width="792px" zoomAndPan="magnify"><defs><filter height="300%" id="f1f3vd31vcuylp" width="300%" x="-1" y="-1"><feGaussianBlur result="blurOut" stdDeviation="2.0"/><feColorMatrix in="blurOut" result="blurOut2" type="matrix" values="0 0 0 0 0 0 0 0 0 0 0 0 0 0 0 0 0 0 .4 0"/><feOffset dx="4.0" dy="4.0" in="blurOut2" result="blurOut3"/><feBlend in="SourceGraphic" in2="blurOut3" mode="normal"/></filter></defs><g><text fill="#000000" font-family="sans-serif" font-size="18" lengthAdjust="spacing" textLength="220" x="279.5" y="19.2419">Event Dispatch - Frontend</text><!--MD5=[fca8240bc233c06068545f9c8883ae88]
cluster Frontend--><polygon fill="#DDDDDD" filter="url(#f1f3vd31vcuylp)" points="16,31.1178,86,31.1178,93,56.1857,775,56.1857,775,303.1178,16,303.1178,16,31.1178" style="stroke:#000000;stroke-width:1.5;"/><line style="stroke:#000000;stroke-width:1.5;" x1="16" x2="93" y1="56.1857" y2="56.1857"/><text fill="#000000" font-family="sans-serif" font-size="14" font-weight="bold" lengthAdjust="spacing" textLength="64" x="20" y="48.0838">Frontend</text><!--MD5=[d7ef85a9d9ac667c73e3acd53ce70e4c]
entity Widget_A--><rect fill="#FEFECE" filter="url(#f1f3vd31vcuylp)" height="49.0679" style="stroke:#A80036;stroke-width:1.5;" width="101" x="33.5" y="69.6178"/><rect fill="#FEFECE" height="10" style="stroke:#A80036;stroke-width:1.5;" width="15" x="114.5" y="74.6178"/><rect fill="#FEFECE" height="2" style="stroke:#A80036;stroke-width:1.5;" width="4" x="112.5" y="76.6178"/><rect fill="#FEFECE" height="2" style="stroke:#A80036;stroke-width:1.5;" width="4" x="112.5" y="80.6178"/><text fill="#000000" font-family="sans-serif" font-size="14" lengthAdjust="spacing" textLength="61" x="48.5" y="104.5838">Widget A</text><!--MD5=[8043f4ccc7f3715571633e9caf8bdf1e]
entity Widget_B--><rect fill="#FEFECE" filter="url(#f1f3vd31vcuylp)" height="49.0679" style="stroke:#A80036;stroke-width:1.5;" width="101" x="33.5" y="153.6178"/><rect fill="#FEFECE" height="10" style="stroke:#A80036;stroke-width:1.5;" width="15" x="114.5" y="158.6178"/><rect fill="#FEFECE" height="2" style="stroke:#A80036;stroke-width:1.5;" width="4" x="112.5" y="160.6178"/><rect fill="#FEFECE" height="2" style="stroke:#A80036;stroke-width:1.5;" width="4" x="112.5" y="164.6178"/><text fill="#000000" font-family="sans-serif" font-size="14" lengthAdjust="spacing" textLength="61" x="48.5" y="188.5838">Widget B</text><!--MD5=[f1a735a69fb3679354447c50d76ccc61]
entity Widget_C--><rect fill="#FEFECE" filter="url(#f1f3vd31vcuylp)" height="49.0679" style="stroke:#A80036;stroke-width:1.5;" width="104" x="32" y="237.6178"/><rect fill="#FEFECE" height="10" style="stroke:#A80036;stroke-width:1.5;" width="15" x="116" y="242.6178"/><rect fill="#FEFECE" height="2" style="stroke:#A80036;stroke-width:1.5;" width="4" x="114" y="244.6178"/><rect fill="#FEFECE" height="2" style="stroke:#A80036;stroke-width:1.5;" width="4" x="114" y="248.6178"/><text fill="#000000" font-family="sans-serif" font-size="14" lengthAdjust="spacing" textLength="64" x="47" y="272.5838">Widget ...</text><!--MD5=[7ee372614b5c979897b7cc55177a5dab]
entity Bloc_A--><rect fill="#FEFECE" filter="url(#f1f3vd31vcuylp)" height="49.0679" style="stroke:#A80036;stroke-width:1.5;" width="81" x="206.5" y="69.6178"/><rect fill="#FEFECE" height="10" style="stroke:#A80036;stroke-width:1.5;" width="15" x="267.5" y="74.6178"/><rect fill="#FEFECE" height="2" style="stroke:#A80036;stroke-width:1.5;" width="4" x="265.5" y="76.6178"/><rect fill="#FEFECE" height="2" style="stroke:#A80036;stroke-width:1.5;" width="4" x="265.5" y="80.6178"/><text fill="#000000" font-family="sans-serif" font-size="14" lengthAdjust="spacing" textLength="41" x="221.5" y="104.5838">Bloc A</text><!--MD5=[23745280882acb1b0a45fdcbf8439228]
entity Bloc_B--><rect fill="#FEFECE" filter="url(#f1f3vd31vcuylp)" height="49.0679" style="stroke:#A80036;stroke-width:1.5;" width="81" x="206.5" y="153.6178"/><rect fill="#FEFECE" height="10" style="stroke:#A80036;stroke-width:1.5;" width="15" x="267.5" y="158.6178"/><rect fill="#FEFECE" height="2" style="stroke:#A80036;stroke-width:1.5;" width="4" x="265.5" y="160.6178"/><rect fill="#FEFECE" height="2" style="stroke:#A80036;stroke-width:1.5;" width="4" x="265.5" y="164.6178"/><text fill="#000000" font-family="sans-serif" font-size="14" lengthAdjust="spacing" textLength="41" x="221.5" y="188.5838">Bloc B</text><!--MD5=[3926e8de46034ad62dbfb36d72ca562f]
entity Bloc_C--><rect fill="#FEFECE" filter="url(#f1f3vd31vcuylp)" height="49.0679" style="stroke:#A80036;stroke-width:1.5;" width="84" x="205" y="237.6178"/><rect fill="#FEFECE" height="10" style="stroke:#A80036;stroke-width:1.5;" width="15" x="269" y="242.6178"/><rect fill="#FEFECE" height="2" style="stroke:#A80036;stroke-width:1.5;" width="4" x="267" y="244.6178"/><rect fill="#FEFECE" height="2" style="stroke:#A80036;stroke-width:1.5;" width="4" x="267" y="248.6178"/><text fill="#000000" font-family="sans-serif" font-size="14" lengthAdjust="spacing" textLength="44" x="220" y="272.5838">Bloc ...</text><!--MD5=[edccc82bdba4a765388b0a1a4a8815e4]
entity Repository_A--><rect fill="#FEFECE" filter="url(#f1f3vd31vcuylp)" height="49.0679" style="stroke:#A80036;stroke-width:1.5;" width="124" x="359.5" y="69.6178"/><rect fill="#FEFECE" height="10" style="stroke:#A80036;stroke-width:1.5;" width="15" x="463.5" y="74.6178"/><rect fill="#FEFECE" height="2" style="stroke:#A80036;stroke-width:1.5;" width="4" x="461.5" y="76.6178"/><rect fill="#FEFECE" height="2" style="stroke:#A80036;stroke-width:1.5;" width="4" x="461.5" y="80.6178"/><text fill="#000000" font-family="sans-serif" font-size="14" lengthAdjust="spacing" textLength="84" x="374.5" y="104.5838">Repository A</text><!--MD5=[2983a4d64c3053f4add7931ac11feaae]
entity Repository_B--><rect fill="#FEFECE" filter="url(#f1f3vd31vcuylp)" height="49.0679" style="stroke:#A80036;stroke-width:1.5;" width="124" x="359.5" y="153.6178"/><rect fill="#FEFECE" height="10" style="stroke:#A80036;stroke-width:1.5;" width="15" x="463.5" y="158.6178"/><rect fill="#FEFECE" height="2" style="stroke:#A80036;stroke-width:1.5;" width="4" x="461.5" y="160.6178"/><rect fill="#FEFECE" height="2" style="stroke:#A80036;stroke-width:1.5;" width="4" x="461.5" y="164.6178"/><text fill="#000000" font-family="sans-serif" font-size="14" lengthAdjust="spacing" textLength="84" x="374.5" y="188.5838">Repository B</text><!--MD5=[72b01dd6b57dd83cbdc6ef3a2a8f138e]
entity Repository_C--><rect fill="#FEFECE" filter="url(#f1f3vd31vcuylp)" height="49.0679" style="stroke:#A80036;stroke-width:1.5;" width="127" x="358" y="237.6178"/><rect fill="#FEFECE" height="10" style="stroke:#A80036;stroke-width:1.5;" width="15" x="465" y="242.6178"/><rect fill="#FEFECE" height="2" style="stroke:#A80036;stroke-width:1.5;" width="4" x="463" y="244.6178"/><rect fill="#FEFECE" height="2" style="stroke:#A80036;stroke-width:1.5;" width="4" x="463" y="248.6178"/><text fill="#000000" font-family="sans-serif" font-size="14" lengthAdjust="spacing" textLength="87" x="373" y="272.5838">Repository ...</text><!--MD5=[25c537ba92e2d55b711bbb50575381f2]
entity Event--><rect fill="#FEFECE" filter="url(#f1f3vd31vcuylp)" height="49.0679" style="stroke:#A80036;stroke-width:1.5;" width="77" x="554" y="153.6178"/><rect fill="#FEFECE" height="10" style="stroke:#A80036;stroke-width:1.5;" width="15" x="611" y="158.6178"/><rect fill="#FEFECE" height="2" style="stroke:#A80036;stroke-width:1.5;" width="4" x="609" y="160.6178"/><rect fill="#FEFECE" height="2" style="stroke:#A80036;stroke-width:1.5;" width="4" x="609" y="164.6178"/><text fill="#000000" font-family="sans-serif" font-size="14" lengthAdjust="spacing" textLength="37" x="569" y="188.5838">Event</text><!--MD5=[78e0d1133500ea5a75200a919f68dfaf]
entity FFI_Frontend--><rect fill="#FFDDDD" filter="url(#f1f3vd31vcuylp)" height="49.0679" style="stroke:#A80036;stroke-width:1.5;" width="59" x="700" y="153.6178"/><rect fill="#FFDDDD" height="10" style="stroke:#A80036;stroke-width:1.5;" width="15" x="739" y="158.6178"/><rect fill="#FFDDDD" height="2" style="stroke:#A80036;stroke-width:1.5;" width="4" x="737" y="160.6178"/><rect fill="#FFDDDD" height="2" style="stroke:#A80036;stroke-width:1.5;" width="4" x="737" y="164.6178"/><text fill="#000000" font-family="sans-serif" font-size="14" lengthAdjust="spacing" textLength="19" x="715" y="188.5838">FFI</text><!--MD5=[b46ba78c5f87270e525c39160c627c7a]
link Widget_C to Bloc_C--><path d="M136.02,262.1178 C136.02,262.1178 199.98,262.1178 199.98,262.1178 " fill="none" id="Widget_C-to-Bloc_C" style="stroke:#A80036;stroke-width:1.0;"/><polygon fill="#A80036" points="204.98,262.1178,195.98,258.1178,199.98,262.1178,195.98,266.1178,204.98,262.1178" style="stroke:#A80036;stroke-width:1.0;"/><text fill="#000000" font-family="sans-serif" font-size="13" lengthAdjust="spacing" textLength="7" x="167" y="248.0148">1</text><!--MD5=[964089debe077d5a1c654df144517010]
link Widget_B to Bloc_B--><path d="M134.68,178.1178 C134.68,178.1178 201.43,178.1178 201.43,178.1178 " fill="none" id="Widget_B-to-Bloc_B" style="stroke:#A80036;stroke-width:1.0;"/><polygon fill="#A80036" points="206.43,178.1178,197.43,174.1178,201.43,178.1178,197.43,182.1178,206.43,178.1178" style="stroke:#A80036;stroke-width:1.0;"/><text fill="#000000" font-family="sans-serif" font-size="13" lengthAdjust="spacing" textLength="7" x="167" y="174.0148">1</text><!--MD5=[d1ffce7798d6440ed66bcedb4a29100e]
link Widget_A to Bloc_A--><path d="M134.68,94.1178 C134.68,94.1178 201.43,94.1178 201.43,94.1178 " fill="none" id="Widget_A-to-Bloc_A" style="stroke:#A80036;stroke-width:1.0;"/><polygon fill="#A80036" points="206.43,94.1178,197.43,90.1178,201.43,94.1178,197.43,98.1178,206.43,94.1178" style="stroke:#A80036;stroke-width:1.0;"/><text fill="#000000" font-family="sans-serif" font-size="13" lengthAdjust="spacing" textLength="7" x="167" y="90.0148">1</text><!--MD5=[fbc8550b83207e801224e9f859945b90]
link Bloc_C to Repository_C--><path d="M289.24,262.1178 C289.24,262.1178 352.84,262.1178 352.84,262.1178 " fill="none" id="Bloc_C-to-Repository_C" style="stroke:#A80036;stroke-width:1.0;"/><polygon fill="#A80036" points="357.84,262.1178,348.84,258.1178,352.84,262.1178,348.84,266.1178,357.84,262.1178" style="stroke:#A80036;stroke-width:1.0;"/><text fill="#000000" font-family="sans-serif" font-size="13" lengthAdjust="spacing" textLength="7" x="320" y="248.0148">2</text><!--MD5=[d1dd2b855cb4b278530073b1cc51754c]
link Bloc_B to Repository_B--><path d="M287.91,178.1178 C287.91,178.1178 354.31,178.1178 354.31,178.1178 " fill="none" id="Bloc_B-to-Repository_B" style="stroke:#A80036;stroke-width:1.0;"/><polygon fill="#A80036" points="359.31,178.1178,350.31,174.1178,354.31,178.1178,350.31,182.1178,359.31,178.1178" style="stroke:#A80036;stroke-width:1.0;"/><text fill="#000000" font-family="sans-serif" font-size="13" lengthAdjust="spacing" textLength="7" x="320" y="174.0148">2</text><!--MD5=[bc7fcfe031050f0c738f014899853aea]
link Bloc_A to Repository_A--><path d="M287.91,94.1178 C287.91,94.1178 354.31,94.1178 354.31,94.1178 " fill="none" id="Bloc_A-to-Repository_A" style="stroke:#A80036;stroke-width:1.0;"/><polygon fill="#A80036" points="359.31,94.1178,350.31,90.1178,354.31,94.1178,350.31,98.1178,359.31,94.1178" style="stroke:#A80036;stroke-width:1.0;"/><text fill="#000000" font-family="sans-serif" font-size="13" lengthAdjust="spacing" textLength="7" x="320" y="90.0148">2</text><!--MD5=[41797c523d084fbb1b4966755f99687a]
link Repository_C to Event--><path d="M485.36,262.1178 C534.12,262.1178 593,262.1178 593,262.1178 C593,262.1178 593,207.8678 593,207.8678 " fill="none" id="Repository_C-to-Event" style="stroke:#A80036;stroke-width:1.0;"/><polygon fill="#A80036" points="593,202.8678,589,211.8678,593,207.8678,597,211.8678,593,202.8678" style="stroke:#A80036;stroke-width:1.0;"/><text fill="#000000" font-family="sans-serif" font-size="13" lengthAdjust="spacing" textLength="7" x="516" y="240.0148">3</text><!--MD5=[c51debf464bc92490ffd06d40aea4ac9]
link Repository_B to Event--><path d="M483.72,178.1178 C483.72,178.1178 548.95,178.1178 548.95,178.1178 " fill="none" id="Repository_B-to-Event" style="stroke:#A80036;stroke-width:1.0;"/><polygon fill="#A80036" points="553.95,178.1178,544.95,174.1178,548.95,178.1178,544.95,182.1178,553.95,178.1178" style="stroke:#A80036;stroke-width:1.0;"/><text fill="#000000" font-family="sans-serif" font-size="13" lengthAdjust="spacing" textLength="7" x="516" y="174.0148">3</text><!--MD5=[a2327e234285c5d887e7883eb9e74710]
link Repository_A to Event--><path d="M483.9,94.1178 C532.94,94.1178 593,94.1178 593,94.1178 C593,94.1178 593,148.3678 593,148.3678 " fill="none" id="Repository_A-to-Event" style="stroke:#A80036;stroke-width:1.0;"/><polygon fill="#A80036" points="593,153.3678,597,144.3678,593,148.3678,589,144.3678,593,153.3678" style="stroke:#A80036;stroke-width:1.0;"/><text fill="#000000" font-family="sans-serif" font-size="13" lengthAdjust="spacing" textLength="7" x="516" y="103.0148">3</text><!--MD5=[5acce26503de499afc81274fc3e6f000]
link Event to FFI_Frontend--><path d="M631.03,178.1178 C631.03,178.1178 694.94,178.1178 694.94,178.1178 " fill="none" id="Event-to-FFI_Frontend" style="stroke:#A80036;stroke-width:1.0;"/><polygon fill="#A80036" points="699.94,178.1178,690.94,174.1178,694.94,178.1178,690.94,182.1178,699.94,178.1178" style="stroke:#A80036;stroke-width:1.0;"/><text fill="#000000" font-family="sans-serif" font-size="13" lengthAdjust="spacing" textLength="7" x="662" y="174.0148">4</text><!--MD5=[8b4ac90f86bfeb94a8cbe32edb7d491c]
@startuml EventDispatchFrontend
title Event Dispatch - Frontend
left to right direction
skinparam linetype ortho


package "Frontend" #DDDDDD {
    component Widget_A as "Widget A"
    component Widget_B as "Widget B"
    component Widget_C as "Widget ..."
    component Bloc_A as "Bloc A"
    component Bloc_B as "Bloc B"
    component Bloc_C as "Bloc ..."
    component Repository_A as "Repository A"
    component Repository_B as "Repository B"
    component Repository_C as "Repository ..."
    component Event
    component FFI_Frontend as "FFI" #FFDDDD
}

Widget_C - -> Bloc_C : 1
Widget_B - -> Bloc_B : 1
Widget_A - -> Bloc_A : 1
Bloc_C  - -> Repository_C : 2
Bloc_B  - -> Repository_B : 2
Bloc_A  - -> Repository_A : 2
Repository_C - -> Event : 3
Repository_B - -> Event : 3
Repository_A - -> Event : 3

Event - -> FFI_Frontend : 4
@enduml

PlantUML version 1.2021.00(Sun Jan 10 05:25:05 EST 2021)
(MIT source distribution)
Java Runtime: OpenJDK Runtime Environment
JVM: OpenJDK 64-Bit Server VM
Default Encoding: UTF-8
Language: en
Country: CA
--></g></svg>