<?xml version="1.0" encoding="UTF-8" standalone="no"?><svg xmlns="http://www.w3.org/2000/svg" xmlns:xlink="http://www.w3.org/1999/xlink" contentStyleType="text/css" height="486px" preserveAspectRatio="none" style="width:1117px;height:486px;background:#FFFFFF;" version="1.1" viewBox="0 0 1117 486" width="1117px" zoomAndPan="magnify"><defs/><g><!--MD5=[c48341880989299e1afa6503a57ddb77]
class IFieldTypeOptionLoader--><g id="elem_IFieldTypeOptionLoader"><rect codeLine="6" fill="#F1F1F1" height="48" id="IFieldTypeOptionLoader" rx="2.5" ry="2.5" style="stroke:#181818;stroke-width:0.5;" width="205" x="577" y="101"/><ellipse cx="592" cy="117" fill="#B4A7E5" rx="11" ry="11" style="stroke:#181818;stroke-width:1.0;"/><path d="M588.4277,113.2651 L588.4277,111.1069 L595.8071,111.1069 L595.8071,113.2651 L593.3418,113.2651 L593.3418,121.3418 L595.8071,121.3418 L595.8071,123.5 L588.4277,123.5 L588.4277,121.3418 L590.8931,121.3418 L590.8931,113.2651 Z " fill="#000000"/><text fill="#000000" font-family="sans-serif" font-size="14" font-style="italic" font-weight="bold" lengthAdjust="spacing" textLength="173" x="606" y="122.291">IFieldTypeOptionLoader</text><line style="stroke:#181818;stroke-width:0.5;" x1="578" x2="781" y1="133" y2="133"/><line style="stroke:#181818;stroke-width:0.5;" x1="578" x2="781" y1="141" y2="141"/></g><!--MD5=[6f511a4e207be08d0d6687f6e17b9ceb]
class TypeOptionWidgetContext--><g id="elem_TypeOptionWidgetContext"><rect codeLine="7" fill="#F1F1F1" height="48" id="TypeOptionWidgetContext" rx="2.5" ry="2.5" style="stroke:#181818;stroke-width:0.5;" width="223" x="568" y="265"/><ellipse cx="583" cy="281" fill="#B4A7E5" rx="11" ry="11" style="stroke:#181818;stroke-width:1.0;"/><path d="M579.4277,277.2651 L579.4277,275.1069 L586.8071,275.1069 L586.8071,277.2651 L584.3418,277.2651 L584.3418,285.3418 L586.8071,285.3418 L586.8071,287.5 L579.4277,287.5 L579.4277,285.3418 L581.8931,285.3418 L581.8931,277.2651 Z " fill="#000000"/><text fill="#000000" font-family="sans-serif" font-size="14" font-style="italic" font-weight="bold" lengthAdjust="spacing" textLength="191" x="597" y="286.291">TypeOptionWidgetContext</text><line style="stroke:#181818;stroke-width:0.5;" x1="569" x2="790" y1="297" y2="297"/><line style="stroke:#181818;stroke-width:0.5;" x1="569" x2="790" y1="305" y2="305"/></g><!--MD5=[71a36d3d3565561984db8a056d71e9da]
class FieldEditor--><g id="elem_FieldEditor"><rect fill="#F1F1F1" height="48" id="FieldEditor" rx="2.5" ry="2.5" style="stroke:#181818;stroke-width:0.5;" width="110" x="7" y="249"/><ellipse cx="22" cy="265" fill="#ADD1B2" rx="11" ry="11" style="stroke:#181818;stroke-width:1.0;"/><path d="M24.4731,271.1431 Q23.8921,271.4419 23.2529,271.5913 Q22.6138,271.7407 21.9082,271.7407 Q19.4014,271.7407 18.0815,270.0889 Q16.7617,268.437 16.7617,265.3159 Q16.7617,262.1865 18.0815,260.5347 Q19.4014,258.8828 21.9082,258.8828 Q22.6138,258.8828 23.2612,259.0322 Q23.9087,259.1816 24.4731,259.4805 L24.4731,262.2031 Q23.8423,261.6221 23.2488,261.3523 Q22.6553,261.0825 22.0244,261.0825 Q20.6797,261.0825 19.9949,262.1492 Q19.3101,263.2158 19.3101,265.3159 Q19.3101,267.4077 19.9949,268.4744 Q20.6797,269.541 22.0244,269.541 Q22.6553,269.541 23.2488,269.2712 Q23.8423,269.0015 24.4731,268.4204 Z " fill="#000000"/><text fill="#000000" font-family="sans-serif" font-size="14" font-weight="bold" lengthAdjust="spacing" textLength="78" x="36" y="270.291">FieldEditor</text><line style="stroke:#181818;stroke-width:0.5;" x1="8" x2="116" y1="281" y2="281"/><line style="stroke:#181818;stroke-width:0.5;" x1="8" x2="116" y1="289" y2="289"/></g><!--MD5=[83e7f5f4c1b2a9d217866621c5e641ba]
class FieldEditorBloc--><g id="elem_FieldEditorBloc"><rect fill="#F1F1F1" height="48" id="FieldEditorBloc" rx="2.5" ry="2.5" style="stroke:#181818;stroke-width:0.5;" width="140" x="205.5" y="188"/><ellipse cx="220.5" cy="204" fill="#ADD1B2" rx="11" ry="11" style="stroke:#181818;stroke-width:1.0;"/><path d="M222.9731,210.1431 Q222.3921,210.4419 221.7529,210.5913 Q221.1138,210.7407 220.4082,210.7407 Q217.9014,210.7407 216.5815,209.0889 Q215.2617,207.437 215.2617,204.3159 Q215.2617,201.1865 216.5815,199.5347 Q217.9014,197.8828 220.4082,197.8828 Q221.1138,197.8828 221.7612,198.0322 Q222.4087,198.1816 222.9731,198.4805 L222.9731,201.2031 Q222.3423,200.6221 221.7488,200.3523 Q221.1553,200.0825 220.5244,200.0825 Q219.1797,200.0825 218.4949,201.1492 Q217.8101,202.2158 217.8101,204.3159 Q217.8101,206.4077 218.4949,207.4744 Q219.1797,208.541 220.5244,208.541 Q221.1553,208.541 221.7488,208.2712 Q222.3423,208.0015 222.9731,207.4204 Z " fill="#000000"/><text fill="#000000" font-family="sans-serif" font-size="14" font-weight="bold" lengthAdjust="spacing" textLength="108" x="234.5" y="209.291">FieldEditorBloc</text><line style="stroke:#181818;stroke-width:0.5;" x1="206.5" x2="344.5" y1="220" y2="220"/><line style="stroke:#181818;stroke-width:0.5;" x1="206.5" x2="344.5" y1="228" y2="228"/></g><!--MD5=[a4d57bdaaf85b889ca392328e1b476df]
class FieldTypeOptionEditor--><g id="elem_FieldTypeOptionEditor"><rect fill="#F1F1F1" height="48" id="FieldTypeOptionEditor" rx="2.5" ry="2.5" style="stroke:#181818;stroke-width:0.5;" width="195" x="178" y="290"/><ellipse cx="193" cy="306" fill="#ADD1B2" rx="11" ry="11" style="stroke:#181818;stroke-width:1.0;"/><path d="M195.4731,312.1431 Q194.8921,312.4419 194.2529,312.5913 Q193.6138,312.7407 192.9082,312.7407 Q190.4014,312.7407 189.0815,311.0889 Q187.7617,309.437 187.7617,306.3159 Q187.7617,303.1865 189.0815,301.5347 Q190.4014,299.8828 192.9082,299.8828 Q193.6138,299.8828 194.2612,300.0322 Q194.9087,300.1816 195.4731,300.4805 L195.4731,303.2031 Q194.8423,302.6221 194.2488,302.3523 Q193.6553,302.0825 193.0244,302.0825 Q191.6797,302.0825 190.9949,303.1492 Q190.3101,304.2158 190.3101,306.3159 Q190.3101,308.4077 190.9949,309.4744 Q191.6797,310.541 193.0244,310.541 Q193.6553,310.541 194.2488,310.2712 Q194.8423,310.0015 195.4731,309.4204 Z " fill="#000000"/><text fill="#000000" font-family="sans-serif" font-size="14" font-weight="bold" lengthAdjust="spacing" textLength="163" x="207" y="311.291">FieldTypeOptionEditor</text><line style="stroke:#181818;stroke-width:0.5;" x1="179" x2="372" y1="322" y2="322"/><line style="stroke:#181818;stroke-width:0.5;" x1="179" x2="372" y1="330" y2="330"/></g><!--MD5=[9ec89c83a4a09f3e13c595ccc257a96f]
class TypeOptionDataController--><g id="elem_TypeOptionDataController"><rect fill="#F1F1F1" height="48" id="TypeOptionDataController" rx="2.5" ry="2.5" style="stroke:#181818;stroke-width:0.5;" width="223" x="883" y="188"/><ellipse cx="898" cy="204" fill="#ADD1B2" rx="11" ry="11" style="stroke:#181818;stroke-width:1.0;"/><path d="M900.4731,210.1431 Q899.8921,210.4419 899.2529,210.5913 Q898.6138,210.7407 897.9082,210.7407 Q895.4014,210.7407 894.0815,209.0889 Q892.7617,207.437 892.7617,204.3159 Q892.7617,201.1865 894.0815,199.5347 Q895.4014,197.8828 897.9082,197.8828 Q898.6138,197.8828 899.2612,198.0322 Q899.9087,198.1816 900.4731,198.4805 L900.4731,201.2031 Q899.8423,200.6221 899.2488,200.3523 Q898.6553,200.0825 898.0244,200.0825 Q896.6797,200.0825 895.9949,201.1492 Q895.3101,202.2158 895.3101,204.3159 Q895.3101,206.4077 895.9949,207.4744 Q896.6797,208.541 898.0244,208.541 Q898.6553,208.541 899.2488,208.2712 Q899.8423,208.0015 900.4731,207.4204 Z " fill="#000000"/><text fill="#000000" font-family="sans-serif" font-size="14" font-weight="bold" lengthAdjust="spacing" textLength="191" x="912" y="209.291">TypeOptionDataController</text><line style="stroke:#181818;stroke-width:0.5;" x1="884" x2="1105" y1="220" y2="220"/><line style="stroke:#181818;stroke-width:0.5;" x1="884" x2="1105" y1="228" y2="228"/></g><!--MD5=[a9f273554ed57e1006b21db5dea7b54b]
class NewFieldTypeOptionLoader--><g id="elem_NewFieldTypeOptionLoader"><rect fill="#F1F1F1" height="48" id="NewFieldTypeOptionLoader" rx="2.5" ry="2.5" style="stroke:#181818;stroke-width:0.5;" width="231" x="879" y="7"/><ellipse cx="894" cy="23" fill="#ADD1B2" rx="11" ry="11" style="stroke:#181818;stroke-width:1.0;"/><path d="M896.4731,29.1431 Q895.8921,29.4419 895.2529,29.5913 Q894.6138,29.7407 893.9082,29.7407 Q891.4014,29.7407 890.0815,28.0889 Q888.7617,26.437 888.7617,23.3159 Q888.7617,20.1865 890.0815,18.5347 Q891.4014,16.8828 893.9082,16.8828 Q894.6138,16.8828 895.2612,17.0322 Q895.9087,17.1816 896.4731,17.4805 L896.4731,20.2031 Q895.8423,19.6221 895.2488,19.3523 Q894.6553,19.0825 894.0244,19.0825 Q892.6797,19.0825 891.9949,20.1492 Q891.3101,21.2158 891.3101,23.3159 Q891.3101,25.4077 891.9949,26.4744 Q892.6797,27.541 894.0244,27.541 Q894.6553,27.541 895.2488,27.2712 Q895.8423,27.0015 896.4731,26.4204 Z " fill="#000000"/><text fill="#000000" font-family="sans-serif" font-size="14" font-weight="bold" lengthAdjust="spacing" textLength="199" x="908" y="28.291">NewFieldTypeOptionLoader</text><line style="stroke:#181818;stroke-width:0.5;" x1="880" x2="1109" y1="39" y2="39"/><line style="stroke:#181818;stroke-width:0.5;" x1="880" x2="1109" y1="47" y2="47"/></g><!--MD5=[e10fe1963c377f63bec8ae9820957572]
class FieldTypeOptionLoader--><g id="elem_FieldTypeOptionLoader"><rect fill="#F1F1F1" height="48" id="FieldTypeOptionLoader" rx="2.5" ry="2.5" style="stroke:#181818;stroke-width:0.5;" width="200" x="894.5" y="90"/><ellipse cx="909.5" cy="106" fill="#ADD1B2" rx="11" ry="11" style="stroke:#181818;stroke-width:1.0;"/><path d="M911.9731,112.1431 Q911.3921,112.4419 910.7529,112.5913 Q910.1138,112.7407 909.4082,112.7407 Q906.9014,112.7407 905.5815,111.0889 Q904.2617,109.437 904.2617,106.3159 Q904.2617,103.1865 905.5815,101.5347 Q906.9014,99.8828 909.4082,99.8828 Q910.1138,99.8828 910.7612,100.0322 Q911.4087,100.1816 911.9731,100.4805 L911.9731,103.2031 Q911.3423,102.6221 910.7488,102.3523 Q910.1553,102.0825 909.5244,102.0825 Q908.1797,102.0825 907.4949,103.1492 Q906.8101,104.2158 906.8101,106.3159 Q906.8101,108.4077 907.4949,109.4744 Q908.1797,110.541 909.5244,110.541 Q910.1553,110.541 910.7488,110.2712 Q911.3423,110.0015 911.9731,109.4204 Z " fill="#000000"/><text fill="#000000" font-family="sans-serif" font-size="14" font-weight="bold" lengthAdjust="spacing" textLength="168" x="923.5" y="111.291">FieldTypeOptionLoader</text><line style="stroke:#181818;stroke-width:0.5;" x1="895.5" x2="1093.5" y1="122" y2="122"/><line style="stroke:#181818;stroke-width:0.5;" x1="895.5" x2="1093.5" y1="130" y2="130"/></g><!--MD5=[eae236ec0c79fcef893a9d6844b8e3fc]
class FieldTypeOptionEditBloc--><g id="elem_FieldTypeOptionEditBloc"><rect fill="#F1F1F1" height="48" id="FieldTypeOptionEditBloc" rx="2.5" ry="2.5" style="stroke:#181818;stroke-width:0.5;" width="210" x="574.5" y="348"/><ellipse cx="589.5" cy="364" fill="#ADD1B2" rx="11" ry="11" style="stroke:#181818;stroke-width:1.0;"/><path d="M591.9731,370.1431 Q591.3921,370.4419 590.7529,370.5913 Q590.1138,370.7407 589.4082,370.7407 Q586.9014,370.7407 585.5815,369.0889 Q584.2617,367.437 584.2617,364.3159 Q584.2617,361.1865 585.5815,359.5347 Q586.9014,357.8828 589.4082,357.8828 Q590.1138,357.8828 590.7612,358.0322 Q591.4087,358.1816 591.9731,358.4805 L591.9731,361.2031 Q591.3423,360.6221 590.7488,360.3523 Q590.1553,360.0825 589.5244,360.0825 Q588.1797,360.0825 587.4949,361.1492 Q586.8101,362.2158 586.8101,364.3159 Q586.8101,366.4077 587.4949,367.4744 Q588.1797,368.541 589.5244,368.541 Q590.1553,368.541 590.7488,368.2712 Q591.3423,368.0015 591.9731,367.4204 Z " fill="#000000"/><text fill="#000000" font-family="sans-serif" font-size="14" font-weight="bold" lengthAdjust="spacing" textLength="178" x="603.5" y="369.291">FieldTypeOptionEditBloc</text><line style="stroke:#181818;stroke-width:0.5;" x1="575.5" x2="783.5" y1="380" y2="380"/><line style="stroke:#181818;stroke-width:0.5;" x1="575.5" x2="783.5" y1="388" y2="388"/></g><!--MD5=[ed37b9d40b0ed5253360da5837823aac]
class TypeOptionWidgetBuilder--><g id="elem_TypeOptionWidgetBuilder"><rect fill="#F1F1F1" height="48" id="TypeOptionWidgetBuilder" rx="2.5" ry="2.5" style="stroke:#181818;stroke-width:0.5;" width="218" x="570.5" y="431"/><ellipse cx="585.5" cy="447" fill="#ADD1B2" rx="11" ry="11" style="stroke:#181818;stroke-width:1.0;"/><path d="M587.9731,453.1431 Q587.3921,453.4419 586.7529,453.5913 Q586.1138,453.7407 585.4082,453.7407 Q582.9014,453.7407 581.5815,452.0889 Q580.2617,450.437 580.2617,447.3159 Q580.2617,444.1865 581.5815,442.5347 Q582.9014,440.8828 585.4082,440.8828 Q586.1138,440.8828 586.7612,441.0322 Q587.4087,441.1816 587.9731,441.4805 L587.9731,444.2031 Q587.3423,443.6221 586.7488,443.3523 Q586.1553,443.0825 585.5244,443.0825 Q584.1797,443.0825 583.4949,444.1492 Q582.8101,445.2158 582.8101,447.3159 Q582.8101,449.4077 583.4949,450.4744 Q584.1797,451.541 585.5244,451.541 Q586.1553,451.541 586.7488,451.2712 Q587.3423,451.0015 587.9731,450.4204 Z " fill="#000000"/><text fill="#000000" font-family="sans-serif" font-size="14" font-weight="bold" lengthAdjust="spacing" textLength="186" x="599.5" y="452.291">TypeOptionWidgetBuilder</text><line style="stroke:#181818;stroke-width:0.5;" x1="571.5" x2="787.5" y1="463" y2="463"/><line style="stroke:#181818;stroke-width:0.5;" x1="571.5" x2="787.5" y1="471" y2="471"/></g><!--MD5=[2dfbcb9c9a8f6b44ae8354016acfed74]
link FieldEditor to FieldEditorBloc--><g id="link_FieldEditor_FieldEditorBloc"><path codeLine="9" d="M117.19,257.37 C142.43,250.09 172.84,241.32 200.18,233.44 " fill="none" id="FieldEditor-to-FieldEditorBloc" style="stroke:#181818;stroke-width:1.0;"/><polygon fill="#181818" points="205.25,231.97,195.4937,230.6232,200.4462,233.3568,197.7126,238.3093,205.25,231.97" style="stroke:#181818;stroke-width:1.0;"/></g><!--MD5=[0e053b89c226085f98b20f9d2a24e688]
link FieldEditor to FieldTypeOptionEditor--><g id="link_FieldEditor_FieldTypeOptionEditor"><path codeLine="10" d="M117.19,283.51 C134.08,286.78 153.3,290.51 172.36,294.2 " fill="none" id="FieldEditor-to-FieldTypeOptionEditor" style="stroke:#181818;stroke-width:1.0;"/><polygon fill="#181818" points="177.73,295.24,169.6607,289.5932,172.8222,294.2841,168.1313,297.4456,177.73,295.24" style="stroke:#181818;stroke-width:1.0;"/></g><!--MD5=[631248c62c91b8638de2b38ebecd6344]
link FieldEditorBloc to IFieldTypeOptionLoader--><g id="link_FieldEditorBloc_IFieldTypeOptionLoader"><path codeLine="13" d="M345.61,197.04 C407.76,183.59 500.03,163.62 571.68,148.12 " fill="none" id="FieldEditorBloc-to-IFieldTypeOptionLoader" style="stroke:#181818;stroke-width:1.0;stroke-dasharray:7.0,7.0;"/><polygon fill="#181818" points="576.8,147.01,567.1576,145.0038,571.9131,148.0674,568.8495,152.8229,576.8,147.01" style="stroke:#181818;stroke-width:1.0;"/><text fill="#000000" font-family="sans-serif" font-size="13" lengthAdjust="spacing" textLength="133" x="404" y="152.5684">pass through params</text></g><!--MD5=[bd800d9dd821a943e40d7f587bb24f71]
link FieldEditorBloc to TypeOptionDataController--><g id="link_FieldEditorBloc_TypeOptionDataController"><path codeLine="14" d="M345.57,212 C468.62,212 726.96,212 877.61,212 " fill="none" id="FieldEditorBloc-to-TypeOptionDataController" style="stroke:#181818;stroke-width:1.0;"/><polygon fill="#181818" points="882.92,212,873.92,208,877.92,212,873.92,216,882.92,212" style="stroke:#181818;stroke-width:1.0;"/></g><!--MD5=[0fbfa592ffa035d4656dd8e2dbbd1ba5]
reverse link IFieldTypeOptionLoader to TypeOptionDataController--><g id="link_IFieldTypeOptionLoader_TypeOptionDataController"><path codeLine="15" d="M771.76,150.37 C814.47,162.24 865.08,176.3 907.15,188 " fill="none" id="IFieldTypeOptionLoader-backto-TypeOptionDataController" style="stroke:#181818;stroke-width:1.0;"/><polygon fill="#181818" points="766.86,149,774.4716,155.2501,771.6798,150.3301,776.5998,147.5383,766.86,149" style="stroke:#181818;stroke-width:1.0;"/><text fill="#000000" font-family="sans-serif" font-size="13" lengthAdjust="spacing" textLength="26" x="822" y="162.5684">own</text></g><!--MD5=[b8a0f34ff5cfc0d3c4894f5187bb8a17]
reverse link IFieldTypeOptionLoader to NewFieldTypeOptionLoader--><g id="link_IFieldTypeOptionLoader_NewFieldTypeOptionLoader"><path codeLine="16" d="M779.97,95.13 C823.07,82.18 872.86,67.23 913.51,55.02 " fill="none" id="IFieldTypeOptionLoader-backto-NewFieldTypeOptionLoader" style="stroke:#181818;stroke-width:1.0;"/><polygon fill="none" points="781.87,101.87,760.7,100.91,777.84,88.46,781.87,101.87" style="stroke:#181818;stroke-width:1.0;"/></g><!--MD5=[ed8c8b1f02705392d3bcbf7f5d167e2e]
reverse link IFieldTypeOptionLoader to FieldTypeOptionLoader--><g id="link_IFieldTypeOptionLoader_FieldTypeOptionLoader"><path codeLine="17" d="M802.32,120.72 C832.77,119.65 865.05,118.51 894.26,117.49 " fill="none" id="IFieldTypeOptionLoader-backto-FieldTypeOptionLoader" style="stroke:#181818;stroke-width:1.0;"/><polygon fill="none" points="802.36,127.72,782.12,121.43,801.86,113.73,802.36,127.72" style="stroke:#181818;stroke-width:1.0;"/></g><!--MD5=[39126c2f1efca28fb6a1eae09c8b52ec]
link FieldTypeOptionEditor to FieldTypeOptionEditBloc--><g id="link_FieldTypeOptionEditor_FieldTypeOptionEditBloc"><path codeLine="20" d="M373.04,327.93 C432.13,336.45 507.89,347.39 569.18,356.23 " fill="none" id="FieldTypeOptionEditor-to-FieldTypeOptionEditBloc" style="stroke:#181818;stroke-width:1.0;"/><polygon fill="#181818" points="574.32,356.97,565.9825,351.7273,569.3711,356.2569,564.8415,359.6455,574.32,356.97" style="stroke:#181818;stroke-width:1.0;"/></g><!--MD5=[262c2b7b3608710b95927be63a8df7cf]
link FieldTypeOptionEditor to TypeOptionWidgetContext--><g id="link_FieldTypeOptionEditor_TypeOptionWidgetContext"><path codeLine="21" d="M373.04,308 C430.1,304.45 502.7,299.93 562.81,296.19 " fill="none" id="FieldTypeOptionEditor-to-TypeOptionWidgetContext" style="stroke:#181818;stroke-width:1.0;"/><polygon fill="#181818" points="567.84,295.88,558.616,292.4278,562.849,296.1803,559.0965,300.4133,567.84,295.88" style="stroke:#181818;stroke-width:1.0;"/></g><!--MD5=[9415a6a1d7de171db02baf32ba761727]
link FieldTypeOptionEditor to TypeOptionWidgetBuilder--><g id="link_FieldTypeOptionEditor_TypeOptionWidgetBuilder"><path codeLine="22" d="M343.76,338.02 C362.9,344.83 383.76,352.23 403,359 C471.06,382.96 548.68,409.98 604.15,429.24 " fill="none" id="FieldTypeOptionEditor-to-TypeOptionWidgetBuilder" style="stroke:#181818;stroke-width:1.0;stroke-dasharray:7.0,7.0;"/><polygon fill="#181818" points="609.11,430.96,601.9276,424.2211,604.3885,429.3146,599.295,431.7755,609.11,430.96" style="stroke:#181818;stroke-width:1.0;"/></g><!--MD5=[27c1a005256b7ef84f2a6ba01c05d551]
link TypeOptionWidgetContext to TypeOptionDataController--><g id="link_TypeOptionWidgetContext_TypeOptionDataController"><path codeLine="25" d="M778.25,264.95 C813.89,256.18 854.3,246.25 890.39,237.36 " fill="none" id="TypeOptionWidgetContext-to-TypeOptionDataController" style="stroke:#181818;stroke-width:1.0;"/><polygon fill="#181818" points="895.69,236.06,885.9933,234.3354,890.8359,237.2592,887.9121,242.1019,895.69,236.06" style="stroke:#181818;stroke-width:1.0;"/></g><!--MD5=[c5b5242d6f61566232027764890f62d4]
@startuml Field Editor
skinparam classFontStyle Bold
skinparam ActivityBackgroundColor Silver
skinparam ActivityBorderColor DimGray
left to right direction

interface IFieldTypeOptionLoader
interface TypeOptionWidgetContext

FieldEditor - -> FieldEditorBloc
FieldEditor - -> FieldTypeOptionEditor

'loader
FieldEditorBloc ..> IFieldTypeOptionLoader : pass through params
FieldEditorBloc - -> TypeOptionDataController
TypeOptionDataController -u-> IFieldTypeOptionLoader: own
NewFieldTypeOptionLoader -u-|> IFieldTypeOptionLoader
FieldTypeOptionLoader -u-|> IFieldTypeOptionLoader

'editor
FieldTypeOptionEditor - -> FieldTypeOptionEditBloc
FieldTypeOptionEditor - -> TypeOptionWidgetContext
FieldTypeOptionEditor ..> TypeOptionWidgetBuilder

'Context
TypeOptionWidgetContext - -> TypeOptionDataController
@enduml

@startuml Field Editor
skinparam classFontStyle Bold
skinparam ActivityBackgroundColor Silver
skinparam ActivityBorderColor DimGray
left to right direction

interface IFieldTypeOptionLoader
interface TypeOptionWidgetContext

FieldEditor - -> FieldEditorBloc
FieldEditor - -> FieldTypeOptionEditor

FieldEditorBloc ..> IFieldTypeOptionLoader : pass through params
FieldEditorBloc - -> TypeOptionDataController
TypeOptionDataController -u-> IFieldTypeOptionLoader: own
NewFieldTypeOptionLoader -u-|> IFieldTypeOptionLoader
FieldTypeOptionLoader -u-|> IFieldTypeOptionLoader

FieldTypeOptionEditor - -> FieldTypeOptionEditBloc
FieldTypeOptionEditor - -> TypeOptionWidgetContext
FieldTypeOptionEditor ..> TypeOptionWidgetBuilder

TypeOptionWidgetContext - -> TypeOptionDataController
@enduml

PlantUML version 1.2022.5(Sat Apr 30 18:55:52 CST 2022)
(GPL source distribution)
Java Runtime: OpenJDK Runtime Environment
JVM: OpenJDK 64-Bit Server VM
Default Encoding: UTF-8
Language: en
Country: US
--></g></svg>