<?xml version="1.0" encoding="UTF-8" standalone="no"?><svg xmlns="http://www.w3.org/2000/svg" xmlns:xlink="http://www.w3.org/1999/xlink" contentStyleType="text/css" height="353px" preserveAspectRatio="none" style="width:1249px;height:353px;background:#FFFFFF;" version="1.1" viewBox="0 0 1249 353" width="1249px" zoomAndPan="magnify"><defs/><g><!--MD5=[c48341880989299e1afa6503a57ddb77]
class IFieldTypeOptionLoader--><g id="elem_IFieldTypeOptionLoader"><rect codeLine="6" fill="#F1F1F1" height="48" id="IFieldTypeOptionLoader" rx="2.5" ry="2.5" style="stroke:#181818;stroke-width:0.5;" width="205" x="745" y="49"/><ellipse cx="760" cy="65" fill="#B4A7E5" rx="11" ry="11" style="stroke:#181818;stroke-width:1.0;"/><path d="M756.4277,61.2651 L756.4277,59.1069 L763.8071,59.1069 L763.8071,61.2651 L761.3418,61.2651 L761.3418,69.3418 L763.8071,69.3418 L763.8071,71.5 L756.4277,71.5 L756.4277,69.3418 L758.8931,69.3418 L758.8931,61.2651 Z " fill="#000000"/><text fill="#000000" font-family="sans-serif" font-size="14" font-style="italic" font-weight="bold" lengthAdjust="spacing" textLength="173" x="774" y="70.291">IFieldTypeOptionLoader</text><line style="stroke:#181818;stroke-width:0.5;" x1="746" x2="949" y1="81" y2="81"/><line style="stroke:#181818;stroke-width:0.5;" x1="746" x2="949" y1="89" y2="89"/></g><!--MD5=[6f511a4e207be08d0d6687f6e17b9ceb]
class TypeOptionWidgetContext--><g id="elem_TypeOptionWidgetContext"><rect codeLine="7" fill="#F1F1F1" height="48" id="TypeOptionWidgetContext" rx="2.5" ry="2.5" style="stroke:#181818;stroke-width:0.5;" width="223" x="434" y="132"/><ellipse cx="449" cy="148" fill="#B4A7E5" rx="11" ry="11" style="stroke:#181818;stroke-width:1.0;"/><path d="M445.4277,144.2651 L445.4277,142.1069 L452.8071,142.1069 L452.8071,144.2651 L450.3418,144.2651 L450.3418,152.3418 L452.8071,152.3418 L452.8071,154.5 L445.4277,154.5 L445.4277,152.3418 L447.8931,152.3418 L447.8931,144.2651 Z " fill="#000000"/><text fill="#000000" font-family="sans-serif" font-size="14" font-style="italic" font-weight="bold" lengthAdjust="spacing" textLength="191" x="463" y="153.291">TypeOptionWidgetContext</text><line style="stroke:#181818;stroke-width:0.5;" x1="435" x2="656" y1="164" y2="164"/><line style="stroke:#181818;stroke-width:0.5;" x1="435" x2="656" y1="172" y2="172"/></g><!--MD5=[71a36d3d3565561984db8a056d71e9da]
class FieldEditor--><g id="elem_FieldEditor"><rect fill="#F1F1F1" height="48" id="FieldEditor" rx="2.5" ry="2.5" style="stroke:#181818;stroke-width:0.5;" width="110" x="7" y="164"/><ellipse cx="22" cy="180" fill="#ADD1B2" rx="11" ry="11" style="stroke:#181818;stroke-width:1.0;"/><path d="M24.4731,186.1431 Q23.8921,186.4419 23.2529,186.5913 Q22.6138,186.7407 21.9082,186.7407 Q19.4014,186.7407 18.0815,185.0889 Q16.7617,183.437 16.7617,180.3159 Q16.7617,177.1865 18.0815,175.5347 Q19.4014,173.8828 21.9082,173.8828 Q22.6138,173.8828 23.2612,174.0322 Q23.9087,174.1816 24.4731,174.4805 L24.4731,177.2031 Q23.8423,176.6221 23.2488,176.3523 Q22.6553,176.0825 22.0244,176.0825 Q20.6797,176.0825 19.9949,177.1492 Q19.3101,178.2158 19.3101,180.3159 Q19.3101,182.4077 19.9949,183.4744 Q20.6797,184.541 22.0244,184.541 Q22.6553,184.541 23.2488,184.2712 Q23.8423,184.0015 24.4731,183.4204 Z " fill="#000000"/><text fill="#000000" font-family="sans-serif" font-size="14" font-weight="bold" lengthAdjust="spacing" textLength="78" x="36" y="185.291">FieldEditor</text><line style="stroke:#181818;stroke-width:0.5;" x1="8" x2="116" y1="196" y2="196"/><line style="stroke:#181818;stroke-width:0.5;" x1="8" x2="116" y1="204" y2="204"/></g><!--MD5=[83e7f5f4c1b2a9d217866621c5e641ba]
class FieldEditorBloc--><g id="elem_FieldEditorBloc"><rect fill="#F1F1F1" height="48" id="FieldEditorBloc" rx="2.5" ry="2.5" style="stroke:#181818;stroke-width:0.5;" width="140" x="205.5" y="117"/><ellipse cx="220.5" cy="133" fill="#ADD1B2" rx="11" ry="11" style="stroke:#181818;stroke-width:1.0;"/><path d="M222.9731,139.1431 Q222.3921,139.4419 221.7529,139.5913 Q221.1138,139.7407 220.4082,139.7407 Q217.9014,139.7407 216.5815,138.0889 Q215.2617,136.437 215.2617,133.3159 Q215.2617,130.1865 216.5815,128.5347 Q217.9014,126.8828 220.4082,126.8828 Q221.1138,126.8828 221.7612,127.0322 Q222.4087,127.1816 222.9731,127.4805 L222.9731,130.2031 Q222.3423,129.6221 221.7488,129.3523 Q221.1553,129.0825 220.5244,129.0825 Q219.1797,129.0825 218.4949,130.1492 Q217.8101,131.2158 217.8101,133.3159 Q217.8101,135.4077 218.4949,136.4744 Q219.1797,137.541 220.5244,137.541 Q221.1553,137.541 221.7488,137.2712 Q222.3423,137.0015 222.9731,136.4204 Z " fill="#000000"/><text fill="#000000" font-family="sans-serif" font-size="14" font-weight="bold" lengthAdjust="spacing" textLength="108" x="234.5" y="138.291">FieldEditorBloc</text><line style="stroke:#181818;stroke-width:0.5;" x1="206.5" x2="344.5" y1="149" y2="149"/><line style="stroke:#181818;stroke-width:0.5;" x1="206.5" x2="344.5" y1="157" y2="157"/></g><!--MD5=[a4d57bdaaf85b889ca392328e1b476df]
class FieldTypeOptionEditor--><g id="elem_FieldTypeOptionEditor"><rect fill="#F1F1F1" height="48" id="FieldTypeOptionEditor" rx="2.5" ry="2.5" style="stroke:#181818;stroke-width:0.5;" width="195" x="178" y="205"/><ellipse cx="193" cy="221" fill="#ADD1B2" rx="11" ry="11" style="stroke:#181818;stroke-width:1.0;"/><path d="M195.4731,227.1431 Q194.8921,227.4419 194.2529,227.5913 Q193.6138,227.7407 192.9082,227.7407 Q190.4014,227.7407 189.0815,226.0889 Q187.7617,224.437 187.7617,221.3159 Q187.7617,218.1865 189.0815,216.5347 Q190.4014,214.8828 192.9082,214.8828 Q193.6138,214.8828 194.2612,215.0322 Q194.9087,215.1816 195.4731,215.4805 L195.4731,218.2031 Q194.8423,217.6221 194.2488,217.3523 Q193.6553,217.0825 193.0244,217.0825 Q191.6797,217.0825 190.9949,218.1492 Q190.3101,219.2158 190.3101,221.3159 Q190.3101,223.4077 190.9949,224.4744 Q191.6797,225.541 193.0244,225.541 Q193.6553,225.541 194.2488,225.2712 Q194.8423,225.0015 195.4731,224.4204 Z " fill="#000000"/><text fill="#000000" font-family="sans-serif" font-size="14" font-weight="bold" lengthAdjust="spacing" textLength="163" x="207" y="226.291">FieldTypeOptionEditor</text><line style="stroke:#181818;stroke-width:0.5;" x1="179" x2="372" y1="237" y2="237"/><line style="stroke:#181818;stroke-width:0.5;" x1="179" x2="372" y1="245" y2="245"/></g><!--MD5=[9ec89c83a4a09f3e13c595ccc257a96f]
class TypeOptionDataController--><g id="elem_TypeOptionDataController"><rect fill="#F1F1F1" height="48" id="TypeOptionDataController" rx="2.5" ry="2.5" style="stroke:#181818;stroke-width:0.5;" width="223" x="434" y="49"/><ellipse cx="449" cy="65" fill="#ADD1B2" rx="11" ry="11" style="stroke:#181818;stroke-width:1.0;"/><path d="M451.4731,71.1431 Q450.8921,71.4419 450.2529,71.5913 Q449.6138,71.7407 448.9082,71.7407 Q446.4014,71.7407 445.0815,70.0889 Q443.7617,68.437 443.7617,65.3159 Q443.7617,62.1865 445.0815,60.5347 Q446.4014,58.8828 448.9082,58.8828 Q449.6138,58.8828 450.2612,59.0322 Q450.9087,59.1816 451.4731,59.4805 L451.4731,62.2031 Q450.8423,61.6221 450.2488,61.3523 Q449.6553,61.0825 449.0244,61.0825 Q447.6797,61.0825 446.9949,62.1492 Q446.3101,63.2158 446.3101,65.3159 Q446.3101,67.4077 446.9949,68.4744 Q447.6797,69.541 449.0244,69.541 Q449.6553,69.541 450.2488,69.2712 Q450.8423,69.0015 451.4731,68.4204 Z " fill="#000000"/><text fill="#000000" font-family="sans-serif" font-size="14" font-weight="bold" lengthAdjust="spacing" textLength="191" x="463" y="70.291">TypeOptionDataController</text><line style="stroke:#181818;stroke-width:0.5;" x1="435" x2="656" y1="81" y2="81"/><line style="stroke:#181818;stroke-width:0.5;" x1="435" x2="656" y1="89" y2="89"/></g><!--MD5=[a9f273554ed57e1006b21db5dea7b54b]
class NewFieldTypeOptionLoader--><g id="elem_NewFieldTypeOptionLoader"><rect fill="#F1F1F1" height="48" id="NewFieldTypeOptionLoader" rx="2.5" ry="2.5" style="stroke:#181818;stroke-width:0.5;" width="231" x="1011" y="7"/><ellipse cx="1026" cy="23" fill="#ADD1B2" rx="11" ry="11" style="stroke:#181818;stroke-width:1.0;"/><path d="M1028.4731,29.1431 Q1027.8921,29.4419 1027.2529,29.5913 Q1026.6138,29.7407 1025.9082,29.7407 Q1023.4014,29.7407 1022.0815,28.0889 Q1020.7617,26.437 1020.7617,23.3159 Q1020.7617,20.1865 1022.0815,18.5347 Q1023.4014,16.8828 1025.9082,16.8828 Q1026.6138,16.8828 1027.2612,17.0322 Q1027.9087,17.1816 1028.4731,17.4805 L1028.4731,20.2031 Q1027.8423,19.6221 1027.2488,19.3523 Q1026.6553,19.0825 1026.0244,19.0825 Q1024.6797,19.0825 1023.9949,20.1492 Q1023.3101,21.2158 1023.3101,23.3159 Q1023.3101,25.4077 1023.9949,26.4744 Q1024.6797,27.541 1026.0244,27.541 Q1026.6553,27.541 1027.2488,27.2712 Q1027.8423,27.0015 1028.4731,26.4204 Z " fill="#000000"/><text fill="#000000" font-family="sans-serif" font-size="14" font-weight="bold" lengthAdjust="spacing" textLength="199" x="1040" y="28.291">NewFieldTypeOptionLoader</text><line style="stroke:#181818;stroke-width:0.5;" x1="1012" x2="1241" y1="39" y2="39"/><line style="stroke:#181818;stroke-width:0.5;" x1="1012" x2="1241" y1="47" y2="47"/></g><!--MD5=[e10fe1963c377f63bec8ae9820957572]
class FieldTypeOptionLoader--><g id="elem_FieldTypeOptionLoader"><rect fill="#F1F1F1" height="48" id="FieldTypeOptionLoader" rx="2.5" ry="2.5" style="stroke:#181818;stroke-width:0.5;" width="200" x="1026.5" y="90"/><ellipse cx="1041.5" cy="106" fill="#ADD1B2" rx="11" ry="11" style="stroke:#181818;stroke-width:1.0;"/><path d="M1043.9731,112.1431 Q1043.3921,112.4419 1042.7529,112.5913 Q1042.1138,112.7407 1041.4082,112.7407 Q1038.9014,112.7407 1037.5815,111.0889 Q1036.2617,109.437 1036.2617,106.3159 Q1036.2617,103.1865 1037.5815,101.5347 Q1038.9014,99.8828 1041.4082,99.8828 Q1042.1138,99.8828 1042.7612,100.0322 Q1043.4087,100.1816 1043.9731,100.4805 L1043.9731,103.2031 Q1043.3423,102.6221 1042.7488,102.3523 Q1042.1553,102.0825 1041.5244,102.0825 Q1040.1797,102.0825 1039.4949,103.1492 Q1038.8101,104.2158 1038.8101,106.3159 Q1038.8101,108.4077 1039.4949,109.4744 Q1040.1797,110.541 1041.5244,110.541 Q1042.1553,110.541 1042.7488,110.2712 Q1043.3423,110.0015 1043.9731,109.4204 Z " fill="#000000"/><text fill="#000000" font-family="sans-serif" font-size="14" font-weight="bold" lengthAdjust="spacing" textLength="168" x="1055.5" y="111.291">FieldTypeOptionLoader</text><line style="stroke:#181818;stroke-width:0.5;" x1="1027.5" x2="1225.5" y1="122" y2="122"/><line style="stroke:#181818;stroke-width:0.5;" x1="1027.5" x2="1225.5" y1="130" y2="130"/></g><!--MD5=[eae236ec0c79fcef893a9d6844b8e3fc]
class FieldTypeOptionEditBloc--><g id="elem_FieldTypeOptionEditBloc"><rect fill="#F1F1F1" height="48" id="FieldTypeOptionEditBloc" rx="2.5" ry="2.5" style="stroke:#181818;stroke-width:0.5;" width="210" x="440.5" y="215"/><ellipse cx="455.5" cy="231" fill="#ADD1B2" rx="11" ry="11" style="stroke:#181818;stroke-width:1.0;"/><path d="M457.9731,237.1431 Q457.3921,237.4419 456.7529,237.5913 Q456.1138,237.7407 455.4082,237.7407 Q452.9014,237.7407 451.5815,236.0889 Q450.2617,234.437 450.2617,231.3159 Q450.2617,228.1865 451.5815,226.5347 Q452.9014,224.8828 455.4082,224.8828 Q456.1138,224.8828 456.7612,225.0322 Q457.4087,225.1816 457.9731,225.4805 L457.9731,228.2031 Q457.3423,227.6221 456.7488,227.3523 Q456.1553,227.0825 455.5244,227.0825 Q454.1797,227.0825 453.4949,228.1492 Q452.8101,229.2158 452.8101,231.3159 Q452.8101,233.4077 453.4949,234.4744 Q454.1797,235.541 455.5244,235.541 Q456.1553,235.541 456.7488,235.2712 Q457.3423,235.0015 457.9731,234.4204 Z " fill="#000000"/><text fill="#000000" font-family="sans-serif" font-size="14" font-weight="bold" lengthAdjust="spacing" textLength="178" x="469.5" y="236.291">FieldTypeOptionEditBloc</text><line style="stroke:#181818;stroke-width:0.5;" x1="441.5" x2="649.5" y1="247" y2="247"/><line style="stroke:#181818;stroke-width:0.5;" x1="441.5" x2="649.5" y1="255" y2="255"/></g><!--MD5=[ed37b9d40b0ed5253360da5837823aac]
class TypeOptionWidgetBuilder--><g id="elem_TypeOptionWidgetBuilder"><rect fill="#F1F1F1" height="48" id="TypeOptionWidgetBuilder" rx="2.5" ry="2.5" style="stroke:#181818;stroke-width:0.5;" width="218" x="436.5" y="298"/><ellipse cx="451.5" cy="314" fill="#ADD1B2" rx="11" ry="11" style="stroke:#181818;stroke-width:1.0;"/><path d="M453.9731,320.1431 Q453.3921,320.4419 452.7529,320.5913 Q452.1138,320.7407 451.4082,320.7407 Q448.9014,320.7407 447.5815,319.0889 Q446.2617,317.437 446.2617,314.3159 Q446.2617,311.1865 447.5815,309.5347 Q448.9014,307.8828 451.4082,307.8828 Q452.1138,307.8828 452.7612,308.0322 Q453.4087,308.1816 453.9731,308.4805 L453.9731,311.2031 Q453.3423,310.6221 452.7488,310.3523 Q452.1553,310.0825 451.5244,310.0825 Q450.1797,310.0825 449.4949,311.1492 Q448.8101,312.2158 448.8101,314.3159 Q448.8101,316.4077 449.4949,317.4744 Q450.1797,318.541 451.5244,318.541 Q452.1553,318.541 452.7488,318.2712 Q453.3423,318.0015 453.9731,317.4204 Z " fill="#000000"/><text fill="#000000" font-family="sans-serif" font-size="14" font-weight="bold" lengthAdjust="spacing" textLength="186" x="465.5" y="319.291">TypeOptionWidgetBuilder</text><line style="stroke:#181818;stroke-width:0.5;" x1="437.5" x2="653.5" y1="330" y2="330"/><line style="stroke:#181818;stroke-width:0.5;" x1="437.5" x2="653.5" y1="338" y2="338"/></g><!--MD5=[2dfbcb9c9a8f6b44ae8354016acfed74]
link FieldEditor to FieldEditorBloc--><g id="link_FieldEditor_FieldEditorBloc"><path codeLine="9" d="M117.19,175.96 C142.43,170.35 172.84,163.59 200.18,157.52 " fill="none" id="FieldEditor-to-FieldEditorBloc" style="stroke:#181818;stroke-width:1.0;"/><polygon fill="#181818" points="205.25,156.39,195.5954,154.4436,200.3697,157.4777,197.3357,162.252,205.25,156.39" style="stroke:#181818;stroke-width:1.0;"/></g><!--MD5=[0e053b89c226085f98b20f9d2a24e688]
link FieldEditor to FieldTypeOptionEditor--><g id="link_FieldEditor_FieldTypeOptionEditor"><path codeLine="10" d="M117.19,198.51 C134.08,201.78 153.3,205.51 172.36,209.2 " fill="none" id="FieldEditor-to-FieldTypeOptionEditor" style="stroke:#181818;stroke-width:1.0;"/><polygon fill="#181818" points="177.73,210.24,169.6607,204.5932,172.8222,209.2841,168.1313,212.4456,177.73,210.24" style="stroke:#181818;stroke-width:1.0;"/></g><!--MD5=[bd800d9dd821a943e40d7f587bb24f71]
link FieldEditorBloc to TypeOptionDataController--><g id="link_FieldEditorBloc_TypeOptionDataController"><path codeLine="13" d="M345.52,123.49 C375.75,115.82 411.8,106.67 444.86,98.28 " fill="none" id="FieldEditorBloc-to-TypeOptionDataController" style="stroke:#181818;stroke-width:1.0;"/><polygon fill="#181818" points="449.71,97.05,439.9993,95.4059,444.8661,98.2895,441.9825,103.1562,449.71,97.05" style="stroke:#181818;stroke-width:1.0;"/></g><!--MD5=[560187eecb407f968e78ae5b12ab9743]
link TypeOptionDataController to IFieldTypeOptionLoader--><g id="link_TypeOptionDataController_IFieldTypeOptionLoader"><path codeLine="14" d="M657.36,73 C684.11,73 712.66,73 739.25,73 " fill="none" id="TypeOptionDataController-to-IFieldTypeOptionLoader" style="stroke:#181818;stroke-width:1.0;"/><polygon fill="#181818" points="744.54,73,735.54,69,739.54,73,735.54,77,744.54,73" style="stroke:#181818;stroke-width:1.0;"/><text fill="#000000" font-family="sans-serif" font-size="13" lengthAdjust="spacing" textLength="26" x="688" y="69.5684">own</text></g><!--MD5=[b8a0f34ff5cfc0d3c4894f5187bb8a17]
reverse link IFieldTypeOptionLoader to NewFieldTypeOptionLoader--><g id="link_IFieldTypeOptionLoader_NewFieldTypeOptionLoader"><path codeLine="15" d="M970.29,54.53 C983.76,52.49 997.45,50.42 1010.83,48.39 " fill="none" id="IFieldTypeOptionLoader-backto-NewFieldTypeOptionLoader" style="stroke:#181818;stroke-width:1.0;"/><polygon fill="none" points="970.9,61.52,950.07,57.6,968.8,47.68,970.9,61.52" style="stroke:#181818;stroke-width:1.0;"/></g><!--MD5=[ed8c8b1f02705392d3bcbf7f5d167e2e]
reverse link IFieldTypeOptionLoader to FieldTypeOptionLoader--><g id="link_IFieldTypeOptionLoader_FieldTypeOptionLoader"><path codeLine="16" d="M969.88,90.97 C988.71,93.75 1007.98,96.61 1026.25,99.31 " fill="none" id="IFieldTypeOptionLoader-backto-FieldTypeOptionLoader" style="stroke:#181818;stroke-width:1.0;"/><polygon fill="none" points="968.83,97.89,950.07,88.03,970.88,84.04,968.83,97.89" style="stroke:#181818;stroke-width:1.0;"/></g><!--MD5=[39126c2f1efca28fb6a1eae09c8b52ec]
link FieldTypeOptionEditor to FieldTypeOptionEditBloc--><g id="link_FieldTypeOptionEditor_FieldTypeOptionEditBloc"><path codeLine="19" d="M373.25,232.61 C393.3,233.36 414.55,234.15 435.01,234.91 " fill="none" id="FieldTypeOptionEditor-to-FieldTypeOptionEditBloc" style="stroke:#181818;stroke-width:1.0;"/><polygon fill="#181818" points="440.19,235.11,431.3447,230.7787,435.1934,234.9244,431.0477,238.7732,440.19,235.11" style="stroke:#181818;stroke-width:1.0;"/></g><!--MD5=[262c2b7b3608710b95927be63a8df7cf]
link FieldTypeOptionEditor to TypeOptionWidgetContext--><g id="link_FieldTypeOptionEditor_TypeOptionWidgetContext"><path codeLine="20" d="M364.62,205 C392.46,197.41 423.3,189.01 451.46,181.34 " fill="none" id="FieldTypeOptionEditor-to-TypeOptionWidgetContext" style="stroke:#181818;stroke-width:1.0;"/><polygon fill="#181818" points="456.32,180.02,446.5854,178.5241,451.4955,181.3332,448.6865,186.2433,456.32,180.02" style="stroke:#181818;stroke-width:1.0;"/></g><!--MD5=[9415a6a1d7de171db02baf32ba761727]
link FieldTypeOptionEditor to TypeOptionWidgetBuilder--><g id="link_FieldTypeOptionEditor_TypeOptionWidgetBuilder"><path codeLine="21" d="M345.87,253.07 C383.86,266.26 430.98,282.61 469.79,296.07 " fill="none" id="FieldTypeOptionEditor-to-TypeOptionWidgetBuilder" style="stroke:#181818;stroke-width:1.0;stroke-dasharray:7.0,7.0;"/><polygon fill="#181818" points="474.96,297.87,467.7776,291.1311,470.2385,296.2246,465.145,298.6855,474.96,297.87" style="stroke:#181818;stroke-width:1.0;"/></g><!--MD5=[92d899eb6947c7500f851747c2eeec0f]
reverse link TypeOptionDataController to TypeOptionWidgetContext--><g id="link_TypeOptionDataController_TypeOptionWidgetContext"><path codeLine="24" d="M545.5,102.4 C545.5,112.16 545.5,121.92 545.5,131.68 " fill="none" id="TypeOptionDataController-backto-TypeOptionWidgetContext" style="stroke:#181818;stroke-width:1.0;"/><polygon fill="#181818" points="545.5,97.3,541.5,106.3,545.5,102.3,549.5,106.3,545.5,97.3" style="stroke:#181818;stroke-width:1.0;"/></g><!--MD5=[398b0cc945449fb9abab4dc2b35f7f87]
@startuml Field Editor
skinparam classFontStyle Bold
skinparam ActivityBackgroundColor Silver
skinparam ActivityBorderColor DimGray
left to right direction

interface IFieldTypeOptionLoader
interface TypeOptionWidgetContext

FieldEditor - -> FieldEditorBloc
FieldEditor - -> FieldTypeOptionEditor

'loader
FieldEditorBloc - -> TypeOptionDataController
TypeOptionDataController - -> IFieldTypeOptionLoader: own
NewFieldTypeOptionLoader -u-|> IFieldTypeOptionLoader
FieldTypeOptionLoader -u-|> IFieldTypeOptionLoader

'editor
FieldTypeOptionEditor - -> FieldTypeOptionEditBloc
FieldTypeOptionEditor - -> TypeOptionWidgetContext
FieldTypeOptionEditor ..> TypeOptionWidgetBuilder

'Context
TypeOptionWidgetContext -l-> TypeOptionDataController
@enduml

@startuml Field Editor
skinparam classFontStyle Bold
skinparam ActivityBackgroundColor Silver
skinparam ActivityBorderColor DimGray
left to right direction

interface IFieldTypeOptionLoader
interface TypeOptionWidgetContext

FieldEditor - -> FieldEditorBloc
FieldEditor - -> FieldTypeOptionEditor

FieldEditorBloc - -> TypeOptionDataController
TypeOptionDataController - -> IFieldTypeOptionLoader: own
NewFieldTypeOptionLoader -u-|> IFieldTypeOptionLoader
FieldTypeOptionLoader -u-|> IFieldTypeOptionLoader

FieldTypeOptionEditor - -> FieldTypeOptionEditBloc
FieldTypeOptionEditor - -> TypeOptionWidgetContext
FieldTypeOptionEditor ..> TypeOptionWidgetBuilder

TypeOptionWidgetContext -l-> TypeOptionDataController
@enduml

PlantUML version 1.2022.5(Sat Apr 30 18:55:52 CST 2022)
(GPL source distribution)
Java Runtime: OpenJDK Runtime Environment
JVM: OpenJDK 64-Bit Server VM
Default Encoding: UTF-8
Language: en
Country: US
--></g></svg>