<?xml version="1.0" encoding="UTF-8" standalone="no"?><svg xmlns="http://www.w3.org/2000/svg" xmlns:xlink="http://www.w3.org/1999/xlink" contentStyleType="text/css" height="809px" preserveAspectRatio="none" style="width:2219px;height:809px;background:#FFFFFF;" version="1.1" viewBox="0 0 2219 809" width="2219px" zoomAndPan="magnify"><defs/><g><!--MD5=[e39fd4282c549c46afbfdbd9456090b3]
class IFieldContextLoader--><g id="elem_IFieldContextLoader"><rect codeLine="6" fill="#F1F1F1" height="48" id="IFieldContextLoader" rx="2.5" ry="2.5" style="stroke:#181818;stroke-width:0.5;" width="176" x="453" y="90"/><ellipse cx="468" cy="106" fill="#B4A7E5" rx="11" ry="11" style="stroke:#181818;stroke-width:1.0;"/><path d="M464.4277,102.2651 L464.4277,100.1069 L471.8071,100.1069 L471.8071,102.2651 L469.3418,102.2651 L469.3418,110.3418 L471.8071,110.3418 L471.8071,112.5 L464.4277,112.5 L464.4277,110.3418 L466.8931,110.3418 L466.8931,102.2651 Z " fill="#000000"/><text fill="#000000" font-family="sans-serif" font-size="14" font-style="italic" font-weight="bold" lengthAdjust="spacing" textLength="144" x="482" y="111.291">IFieldContextLoader</text><line style="stroke:#181818;stroke-width:0.5;" x1="454" x2="628" y1="122" y2="122"/><line style="stroke:#181818;stroke-width:0.5;" x1="454" x2="628" y1="130" y2="130"/></g><!--MD5=[6f511a4e207be08d0d6687f6e17b9ceb]
class TypeOptionWidgetContext--><g id="elem_TypeOptionWidgetContext"><rect codeLine="7" fill="#F1F1F1" height="48" id="TypeOptionWidgetContext" rx="2.5" ry="2.5" style="stroke:#181818;stroke-width:0.5;" width="223" x="1393" y="505"/><ellipse cx="1408" cy="521" fill="#B4A7E5" rx="11" ry="11" style="stroke:#181818;stroke-width:1.0;"/><path d="M1404.4277,517.2651 L1404.4277,515.1069 L1411.8071,515.1069 L1411.8071,517.2651 L1409.3418,517.2651 L1409.3418,525.3418 L1411.8071,525.3418 L1411.8071,527.5 L1404.4277,527.5 L1404.4277,525.3418 L1406.8931,525.3418 L1406.8931,517.2651 Z " fill="#000000"/><text fill="#000000" font-family="sans-serif" font-size="14" font-style="italic" font-weight="bold" lengthAdjust="spacing" textLength="191" x="1422" y="526.291">TypeOptionWidgetContext</text><line style="stroke:#181818;stroke-width:0.5;" x1="1394" x2="1615" y1="537" y2="537"/><line style="stroke:#181818;stroke-width:0.5;" x1="1394" x2="1615" y1="545" y2="545"/></g><!--MD5=[71a36d3d3565561984db8a056d71e9da]
class FieldEditor--><g id="elem_FieldEditor"><rect fill="#F1F1F1" height="48" id="FieldEditor" rx="2.5" ry="2.5" style="stroke:#181818;stroke-width:0.5;" width="110" x="7" y="132"/><ellipse cx="22" cy="148" fill="#ADD1B2" rx="11" ry="11" style="stroke:#181818;stroke-width:1.0;"/><path d="M24.4731,154.1431 Q23.8921,154.4419 23.2529,154.5913 Q22.6138,154.7407 21.9082,154.7407 Q19.4014,154.7407 18.0815,153.0889 Q16.7617,151.437 16.7617,148.3159 Q16.7617,145.1865 18.0815,143.5347 Q19.4014,141.8828 21.9082,141.8828 Q22.6138,141.8828 23.2612,142.0322 Q23.9087,142.1816 24.4731,142.4805 L24.4731,145.2031 Q23.8423,144.6221 23.2488,144.3523 Q22.6553,144.0825 22.0244,144.0825 Q20.6797,144.0825 19.9949,145.1492 Q19.3101,146.2158 19.3101,148.3159 Q19.3101,150.4077 19.9949,151.4744 Q20.6797,152.541 22.0244,152.541 Q22.6553,152.541 23.2488,152.2712 Q23.8423,152.0015 24.4731,151.4204 Z " fill="#000000"/><text fill="#000000" font-family="sans-serif" font-size="14" font-weight="bold" lengthAdjust="spacing" textLength="78" x="36" y="153.291">FieldEditor</text><line style="stroke:#181818;stroke-width:0.5;" x1="8" x2="116" y1="164" y2="164"/><line style="stroke:#181818;stroke-width:0.5;" x1="8" x2="116" y1="172" y2="172"/></g><!--MD5=[83e7f5f4c1b2a9d217866621c5e641ba]
class FieldEditorBloc--><g id="elem_FieldEditorBloc"><rect fill="#F1F1F1" height="48" id="FieldEditorBloc" rx="2.5" ry="2.5" style="stroke:#181818;stroke-width:0.5;" width="140" x="204.5" y="90"/><ellipse cx="219.5" cy="106" fill="#ADD1B2" rx="11" ry="11" style="stroke:#181818;stroke-width:1.0;"/><path d="M221.9731,112.1431 Q221.3921,112.4419 220.7529,112.5913 Q220.1138,112.7407 219.4082,112.7407 Q216.9014,112.7407 215.5815,111.0889 Q214.2617,109.437 214.2617,106.3159 Q214.2617,103.1865 215.5815,101.5347 Q216.9014,99.8828 219.4082,99.8828 Q220.1138,99.8828 220.7612,100.0322 Q221.4087,100.1816 221.9731,100.4805 L221.9731,103.2031 Q221.3423,102.6221 220.7488,102.3523 Q220.1553,102.0825 219.5244,102.0825 Q218.1797,102.0825 217.4949,103.1492 Q216.8101,104.2158 216.8101,106.3159 Q216.8101,108.4077 217.4949,109.4744 Q218.1797,110.541 219.5244,110.541 Q220.1553,110.541 220.7488,110.2712 Q221.3423,110.0015 221.9731,109.4204 Z " fill="#000000"/><text fill="#000000" font-family="sans-serif" font-size="14" font-weight="bold" lengthAdjust="spacing" textLength="108" x="233.5" y="111.291">FieldEditorBloc</text><line style="stroke:#181818;stroke-width:0.5;" x1="205.5" x2="343.5" y1="122" y2="122"/><line style="stroke:#181818;stroke-width:0.5;" x1="205.5" x2="343.5" y1="130" y2="130"/></g><!--MD5=[a4d57bdaaf85b889ca392328e1b476df]
class FieldTypeOptionEditor--><g id="elem_FieldTypeOptionEditor"><rect fill="#F1F1F1" height="48" id="FieldTypeOptionEditor" rx="2.5" ry="2.5" style="stroke:#181818;stroke-width:0.5;" width="195" x="177" y="173"/><ellipse cx="192" cy="189" fill="#ADD1B2" rx="11" ry="11" style="stroke:#181818;stroke-width:1.0;"/><path d="M194.4731,195.1431 Q193.8921,195.4419 193.2529,195.5913 Q192.6138,195.7407 191.9082,195.7407 Q189.4014,195.7407 188.0815,194.0889 Q186.7617,192.437 186.7617,189.3159 Q186.7617,186.1865 188.0815,184.5347 Q189.4014,182.8828 191.9082,182.8828 Q192.6138,182.8828 193.2612,183.0322 Q193.9087,183.1816 194.4731,183.4805 L194.4731,186.2031 Q193.8423,185.6221 193.2488,185.3523 Q192.6553,185.0825 192.0244,185.0825 Q190.6797,185.0825 189.9949,186.1492 Q189.3101,187.2158 189.3101,189.3159 Q189.3101,191.4077 189.9949,192.4744 Q190.6797,193.541 192.0244,193.541 Q192.6553,193.541 193.2488,193.2712 Q193.8423,193.0015 194.4731,192.4204 Z " fill="#000000"/><text fill="#000000" font-family="sans-serif" font-size="14" font-weight="bold" lengthAdjust="spacing" textLength="163" x="206" y="194.291">FieldTypeOptionEditor</text><line style="stroke:#181818;stroke-width:0.5;" x1="178" x2="371" y1="205" y2="205"/><line style="stroke:#181818;stroke-width:0.5;" x1="178" x2="371" y1="213" y2="213"/></g><!--MD5=[e2f91c814de67294b6e5fb748c367ffa]
class NewFieldContextLoader--><g id="elem_NewFieldContextLoader"><rect fill="#F1F1F1" height="48" id="NewFieldContextLoader" rx="2.5" ry="2.5" style="stroke:#181818;stroke-width:0.5;" width="202" x="761" y="7"/><ellipse cx="776" cy="23" fill="#ADD1B2" rx="11" ry="11" style="stroke:#181818;stroke-width:1.0;"/><path d="M778.4731,29.1431 Q777.8921,29.4419 777.2529,29.5913 Q776.6138,29.7407 775.9082,29.7407 Q773.4014,29.7407 772.0815,28.0889 Q770.7617,26.437 770.7617,23.3159 Q770.7617,20.1865 772.0815,18.5347 Q773.4014,16.8828 775.9082,16.8828 Q776.6138,16.8828 777.2612,17.0322 Q777.9087,17.1816 778.4731,17.4805 L778.4731,20.2031 Q777.8423,19.6221 777.2488,19.3523 Q776.6553,19.0825 776.0244,19.0825 Q774.6797,19.0825 773.9949,20.1492 Q773.3101,21.2158 773.3101,23.3159 Q773.3101,25.4077 773.9949,26.4744 Q774.6797,27.541 776.0244,27.541 Q776.6553,27.541 777.2488,27.2712 Q777.8423,27.0015 778.4731,26.4204 Z " fill="#000000"/><text fill="#000000" font-family="sans-serif" font-size="14" font-weight="bold" lengthAdjust="spacing" textLength="170" x="790" y="28.291">NewFieldContextLoader</text><line style="stroke:#181818;stroke-width:0.5;" x1="762" x2="962" y1="39" y2="39"/><line style="stroke:#181818;stroke-width:0.5;" x1="762" x2="962" y1="47" y2="47"/></g><!--MD5=[ac9f4e198b1b30f08b270088e5853a6b]
class FieldContextLoader--><g id="elem_FieldContextLoader"><rect fill="#F1F1F1" height="48" id="FieldContextLoader" rx="2.5" ry="2.5" style="stroke:#181818;stroke-width:0.5;" width="171" x="776.5" y="90"/><ellipse cx="791.5" cy="106" fill="#ADD1B2" rx="11" ry="11" style="stroke:#181818;stroke-width:1.0;"/><path d="M793.9731,112.1431 Q793.3921,112.4419 792.7529,112.5913 Q792.1138,112.7407 791.4082,112.7407 Q788.9014,112.7407 787.5815,111.0889 Q786.2617,109.437 786.2617,106.3159 Q786.2617,103.1865 787.5815,101.5347 Q788.9014,99.8828 791.4082,99.8828 Q792.1138,99.8828 792.7612,100.0322 Q793.4087,100.1816 793.9731,100.4805 L793.9731,103.2031 Q793.3423,102.6221 792.7488,102.3523 Q792.1553,102.0825 791.5244,102.0825 Q790.1797,102.0825 789.4949,103.1492 Q788.8101,104.2158 788.8101,106.3159 Q788.8101,108.4077 789.4949,109.4744 Q790.1797,110.541 791.5244,110.541 Q792.1553,110.541 792.7488,110.2712 Q793.3423,110.0015 793.9731,109.4204 Z " fill="#000000"/><text fill="#000000" font-family="sans-serif" font-size="14" font-weight="bold" lengthAdjust="spacing" textLength="139" x="805.5" y="111.291">FieldContextLoader</text><line style="stroke:#181818;stroke-width:0.5;" x1="777.5" x2="946.5" y1="122" y2="122"/><line style="stroke:#181818;stroke-width:0.5;" x1="777.5" x2="946.5" y1="130" y2="130"/></g><!--MD5=[eae236ec0c79fcef893a9d6844b8e3fc]
class FieldTypeOptionEditBloc--><g id="elem_FieldTypeOptionEditBloc"><rect fill="#F1F1F1" height="48" id="FieldTypeOptionEditBloc" rx="2.5" ry="2.5" style="stroke:#181818;stroke-width:0.5;" width="210" x="436" y="173"/><ellipse cx="451" cy="189" fill="#ADD1B2" rx="11" ry="11" style="stroke:#181818;stroke-width:1.0;"/><path d="M453.4731,195.1431 Q452.8921,195.4419 452.2529,195.5913 Q451.6138,195.7407 450.9082,195.7407 Q448.4014,195.7407 447.0815,194.0889 Q445.7617,192.437 445.7617,189.3159 Q445.7617,186.1865 447.0815,184.5347 Q448.4014,182.8828 450.9082,182.8828 Q451.6138,182.8828 452.2612,183.0322 Q452.9087,183.1816 453.4731,183.4805 L453.4731,186.2031 Q452.8423,185.6221 452.2488,185.3523 Q451.6553,185.0825 451.0244,185.0825 Q449.6797,185.0825 448.9949,186.1492 Q448.3101,187.2158 448.3101,189.3159 Q448.3101,191.4077 448.9949,192.4744 Q449.6797,193.541 451.0244,193.541 Q451.6553,193.541 452.2488,193.2712 Q452.8423,193.0015 453.4731,192.4204 Z " fill="#000000"/><text fill="#000000" font-family="sans-serif" font-size="14" font-weight="bold" lengthAdjust="spacing" textLength="178" x="465" y="194.291">FieldTypeOptionEditBloc</text><line style="stroke:#181818;stroke-width:0.5;" x1="437" x2="645" y1="205" y2="205"/><line style="stroke:#181818;stroke-width:0.5;" x1="437" x2="645" y1="213" y2="213"/></g><!--MD5=[9962cc3c8f2f1f09d7ef626ea432c279]
class GridFieldContext--><g id="elem_GridFieldContext"><rect fill="#F1F1F1" height="48" id="GridFieldContext" rx="2.5" ry="2.5" style="stroke:#181818;stroke-width:0.5;" width="153" x="785.5" y="173"/><ellipse cx="800.5" cy="189" fill="#ADD1B2" rx="11" ry="11" style="stroke:#181818;stroke-width:1.0;"/><path d="M802.9731,195.1431 Q802.3921,195.4419 801.7529,195.5913 Q801.1138,195.7407 800.4082,195.7407 Q797.9014,195.7407 796.5815,194.0889 Q795.2617,192.437 795.2617,189.3159 Q795.2617,186.1865 796.5815,184.5347 Q797.9014,182.8828 800.4082,182.8828 Q801.1138,182.8828 801.7612,183.0322 Q802.4087,183.1816 802.9731,183.4805 L802.9731,186.2031 Q802.3423,185.6221 801.7488,185.3523 Q801.1553,185.0825 800.5244,185.0825 Q799.1797,185.0825 798.4949,186.1492 Q797.8101,187.2158 797.8101,189.3159 Q797.8101,191.4077 798.4949,192.4744 Q799.1797,193.541 800.5244,193.541 Q801.1553,193.541 801.7488,193.2712 Q802.3423,193.0015 802.9731,192.4204 Z " fill="#000000"/><text fill="#000000" font-family="sans-serif" font-size="14" font-weight="bold" lengthAdjust="spacing" textLength="121" x="814.5" y="194.291">GridFieldContext</text><line style="stroke:#181818;stroke-width:0.5;" x1="786.5" x2="937.5" y1="205" y2="205"/><line style="stroke:#181818;stroke-width:0.5;" x1="786.5" x2="937.5" y1="213" y2="213"/></g><!--MD5=[ed37b9d40b0ed5253360da5837823aac]
class TypeOptionWidgetBuilder--><g id="elem_TypeOptionWidgetBuilder"><rect fill="#F1F1F1" height="48" id="TypeOptionWidgetBuilder" rx="2.5" ry="2.5" style="stroke:#181818;stroke-width:0.5;" width="218" x="432" y="463"/><ellipse cx="447" cy="479" fill="#ADD1B2" rx="11" ry="11" style="stroke:#181818;stroke-width:1.0;"/><path d="M449.4731,485.1431 Q448.8921,485.4419 448.2529,485.5913 Q447.6138,485.7407 446.9082,485.7407 Q444.4014,485.7407 443.0815,484.0889 Q441.7617,482.437 441.7617,479.3159 Q441.7617,476.1865 443.0815,474.5347 Q444.4014,472.8828 446.9082,472.8828 Q447.6138,472.8828 448.2612,473.0322 Q448.9087,473.1816 449.4731,473.4805 L449.4731,476.2031 Q448.8423,475.6221 448.2488,475.3523 Q447.6553,475.0825 447.0244,475.0825 Q445.6797,475.0825 444.9949,476.1492 Q444.3101,477.2158 444.3101,479.3159 Q444.3101,481.4077 444.9949,482.4744 Q445.6797,483.541 447.0244,483.541 Q447.6553,483.541 448.2488,483.2712 Q448.8423,483.0015 449.4731,482.4204 Z " fill="#000000"/><text fill="#000000" font-family="sans-serif" font-size="14" font-weight="bold" lengthAdjust="spacing" textLength="186" x="461" y="484.291">TypeOptionWidgetBuilder</text><line style="stroke:#181818;stroke-width:0.5;" x1="433" x2="649" y1="495" y2="495"/><line style="stroke:#181818;stroke-width:0.5;" x1="433" x2="649" y1="503" y2="503"/></g><!--MD5=[1e3d5594d1ae727beaf17b6eea0499f9]
class CheckboxTypeOptionWidgetBuilder--><g id="elem_CheckboxTypeOptionWidgetBuilder"><rect fill="#F1F1F1" height="48" id="CheckboxTypeOptionWidgetBuilder" rx="2.5" ry="2.5" style="stroke:#181818;stroke-width:0.5;" width="287" x="718.5" y="256"/><ellipse cx="733.5" cy="272" fill="#ADD1B2" rx="11" ry="11" style="stroke:#181818;stroke-width:1.0;"/><path d="M735.9731,278.1431 Q735.3921,278.4419 734.7529,278.5913 Q734.1138,278.7407 733.4082,278.7407 Q730.9014,278.7407 729.5815,277.0889 Q728.2617,275.437 728.2617,272.3159 Q728.2617,269.1865 729.5815,267.5347 Q730.9014,265.8828 733.4082,265.8828 Q734.1138,265.8828 734.7612,266.0322 Q735.4087,266.1816 735.9731,266.4805 L735.9731,269.2031 Q735.3423,268.6221 734.7488,268.3523 Q734.1553,268.0825 733.5244,268.0825 Q732.1797,268.0825 731.4949,269.1492 Q730.8101,270.2158 730.8101,272.3159 Q730.8101,274.4077 731.4949,275.4744 Q732.1797,276.541 733.5244,276.541 Q734.1553,276.541 734.7488,276.2712 Q735.3423,276.0015 735.9731,275.4204 Z " fill="#000000"/><text fill="#000000" font-family="sans-serif" font-size="14" font-weight="bold" lengthAdjust="spacing" textLength="255" x="747.5" y="277.291">CheckboxTypeOptionWidgetBuilder</text><line style="stroke:#181818;stroke-width:0.5;" x1="719.5" x2="1004.5" y1="288" y2="288"/><line style="stroke:#181818;stroke-width:0.5;" x1="719.5" x2="1004.5" y1="296" y2="296"/></g><!--MD5=[055caa7fca0bb83c262ab829ac924ff0]
class CheckboxTypeOptionContext--><g id="elem_CheckboxTypeOptionContext"><rect fill="#F1F1F1" height="48" id="CheckboxTypeOptionContext" rx="2.5" ry="2.5" style="stroke:#181818;stroke-width:0.5;" width="242" x="1082.5" y="256"/><ellipse cx="1097.5" cy="272" fill="#ADD1B2" rx="11" ry="11" style="stroke:#181818;stroke-width:1.0;"/><path d="M1099.9731,278.1431 Q1099.3921,278.4419 1098.7529,278.5913 Q1098.1138,278.7407 1097.4082,278.7407 Q1094.9014,278.7407 1093.5815,277.0889 Q1092.2617,275.437 1092.2617,272.3159 Q1092.2617,269.1865 1093.5815,267.5347 Q1094.9014,265.8828 1097.4082,265.8828 Q1098.1138,265.8828 1098.7612,266.0322 Q1099.4087,266.1816 1099.9731,266.4805 L1099.9731,269.2031 Q1099.3423,268.6221 1098.7488,268.3523 Q1098.1553,268.0825 1097.5244,268.0825 Q1096.1797,268.0825 1095.4949,269.1492 Q1094.8101,270.2158 1094.8101,272.3159 Q1094.8101,274.4077 1095.4949,275.4744 Q1096.1797,276.541 1097.5244,276.541 Q1098.1553,276.541 1098.7488,276.2712 Q1099.3423,276.0015 1099.9731,275.4204 Z " fill="#000000"/><text fill="#000000" font-family="sans-serif" font-size="14" font-weight="bold" lengthAdjust="spacing" textLength="210" x="1111.5" y="277.291">CheckboxTypeOptionContext</text><line style="stroke:#181818;stroke-width:0.5;" x1="1083.5" x2="1323.5" y1="288" y2="288"/><line style="stroke:#181818;stroke-width:0.5;" x1="1083.5" x2="1323.5" y1="296" y2="296"/></g><!--MD5=[2310afca2fd34f0012aa41a6eac779d6]
class DateTypeOptionWidgetBuilder--><g id="elem_DateTypeOptionWidgetBuilder"><rect fill="#F1F1F1" height="48" id="DateTypeOptionWidgetBuilder" rx="2.5" ry="2.5" style="stroke:#181818;stroke-width:0.5;" width="251" x="736.5" y="339"/><ellipse cx="751.5" cy="355" fill="#ADD1B2" rx="11" ry="11" style="stroke:#181818;stroke-width:1.0;"/><path d="M753.9731,361.1431 Q753.3921,361.4419 752.7529,361.5913 Q752.1138,361.7407 751.4082,361.7407 Q748.9014,361.7407 747.5815,360.0889 Q746.2617,358.437 746.2617,355.3159 Q746.2617,352.1865 747.5815,350.5347 Q748.9014,348.8828 751.4082,348.8828 Q752.1138,348.8828 752.7612,349.0322 Q753.4087,349.1816 753.9731,349.4805 L753.9731,352.2031 Q753.3423,351.6221 752.7488,351.3523 Q752.1553,351.0825 751.5244,351.0825 Q750.1797,351.0825 749.4949,352.1492 Q748.8101,353.2158 748.8101,355.3159 Q748.8101,357.4077 749.4949,358.4744 Q750.1797,359.541 751.5244,359.541 Q752.1553,359.541 752.7488,359.2712 Q753.3423,359.0015 753.9731,358.4204 Z " fill="#000000"/><text fill="#000000" font-family="sans-serif" font-size="14" font-weight="bold" lengthAdjust="spacing" textLength="219" x="765.5" y="360.291">DateTypeOptionWidgetBuilder</text><line style="stroke:#181818;stroke-width:0.5;" x1="737.5" x2="986.5" y1="371" y2="371"/><line style="stroke:#181818;stroke-width:0.5;" x1="737.5" x2="986.5" y1="379" y2="379"/></g><!--MD5=[d2bceaad01e29044f89bb56c8a3d2200]
class DateTypeOptionContext--><g id="elem_DateTypeOptionContext"><rect fill="#F1F1F1" height="48" id="DateTypeOptionContext" rx="2.5" ry="2.5" style="stroke:#181818;stroke-width:0.5;" width="206" x="1100.5" y="339"/><ellipse cx="1115.5" cy="355" fill="#ADD1B2" rx="11" ry="11" style="stroke:#181818;stroke-width:1.0;"/><path d="M1117.9731,361.1431 Q1117.3921,361.4419 1116.7529,361.5913 Q1116.1138,361.7407 1115.4082,361.7407 Q1112.9014,361.7407 1111.5815,360.0889 Q1110.2617,358.437 1110.2617,355.3159 Q1110.2617,352.1865 1111.5815,350.5347 Q1112.9014,348.8828 1115.4082,348.8828 Q1116.1138,348.8828 1116.7612,349.0322 Q1117.4087,349.1816 1117.9731,349.4805 L1117.9731,352.2031 Q1117.3423,351.6221 1116.7488,351.3523 Q1116.1553,351.0825 1115.5244,351.0825 Q1114.1797,351.0825 1113.4949,352.1492 Q1112.8101,353.2158 1112.8101,355.3159 Q1112.8101,357.4077 1113.4949,358.4744 Q1114.1797,359.541 1115.5244,359.541 Q1116.1553,359.541 1116.7488,359.2712 Q1117.3423,359.0015 1117.9731,358.4204 Z " fill="#000000"/><text fill="#000000" font-family="sans-serif" font-size="14" font-weight="bold" lengthAdjust="spacing" textLength="174" x="1129.5" y="360.291">DateTypeOptionContext</text><line style="stroke:#181818;stroke-width:0.5;" x1="1101.5" x2="1305.5" y1="371" y2="371"/><line style="stroke:#181818;stroke-width:0.5;" x1="1101.5" x2="1305.5" y1="379" y2="379"/></g><!--MD5=[e65020d1479ef9bae1a9ff09cdcabe17]
class NumberTypeOptionWidgetBuilder--><g id="elem_NumberTypeOptionWidgetBuilder"><rect fill="#F1F1F1" height="48" id="NumberTypeOptionWidgetBuilder" rx="2.5" ry="2.5" style="stroke:#181818;stroke-width:0.5;" width="275" x="724.5" y="422"/><ellipse cx="739.5" cy="438" fill="#ADD1B2" rx="11" ry="11" style="stroke:#181818;stroke-width:1.0;"/><path d="M741.9731,444.1431 Q741.3921,444.4419 740.7529,444.5913 Q740.1138,444.7407 739.4082,444.7407 Q736.9014,444.7407 735.5815,443.0889 Q734.2617,441.437 734.2617,438.3159 Q734.2617,435.1865 735.5815,433.5347 Q736.9014,431.8828 739.4082,431.8828 Q740.1138,431.8828 740.7612,432.0322 Q741.4087,432.1816 741.9731,432.4805 L741.9731,435.2031 Q741.3423,434.6221 740.7488,434.3523 Q740.1553,434.0825 739.5244,434.0825 Q738.1797,434.0825 737.4949,435.1492 Q736.8101,436.2158 736.8101,438.3159 Q736.8101,440.4077 737.4949,441.4744 Q738.1797,442.541 739.5244,442.541 Q740.1553,442.541 740.7488,442.2712 Q741.3423,442.0015 741.9731,441.4204 Z " fill="#000000"/><text fill="#000000" font-family="sans-serif" font-size="14" font-weight="bold" lengthAdjust="spacing" textLength="243" x="753.5" y="443.291">NumberTypeOptionWidgetBuilder</text><line style="stroke:#181818;stroke-width:0.5;" x1="725.5" x2="998.5" y1="454" y2="454"/><line style="stroke:#181818;stroke-width:0.5;" x1="725.5" x2="998.5" y1="462" y2="462"/></g><!--MD5=[097e907c894a7474c5d2575e9d293cdf]
class NumberTypeOptionContext--><g id="elem_NumberTypeOptionContext"><rect fill="#F1F1F1" height="48" id="NumberTypeOptionContext" rx="2.5" ry="2.5" style="stroke:#181818;stroke-width:0.5;" width="230" x="1088.5" y="422"/><ellipse cx="1103.5" cy="438" fill="#ADD1B2" rx="11" ry="11" style="stroke:#181818;stroke-width:1.0;"/><path d="M1105.9731,444.1431 Q1105.3921,444.4419 1104.7529,444.5913 Q1104.1138,444.7407 1103.4082,444.7407 Q1100.9014,444.7407 1099.5815,443.0889 Q1098.2617,441.437 1098.2617,438.3159 Q1098.2617,435.1865 1099.5815,433.5347 Q1100.9014,431.8828 1103.4082,431.8828 Q1104.1138,431.8828 1104.7612,432.0322 Q1105.4087,432.1816 1105.9731,432.4805 L1105.9731,435.2031 Q1105.3423,434.6221 1104.7488,434.3523 Q1104.1553,434.0825 1103.5244,434.0825 Q1102.1797,434.0825 1101.4949,435.1492 Q1100.8101,436.2158 1100.8101,438.3159 Q1100.8101,440.4077 1101.4949,441.4744 Q1102.1797,442.541 1103.5244,442.541 Q1104.1553,442.541 1104.7488,442.2712 Q1105.3423,442.0015 1105.9731,441.4204 Z " fill="#000000"/><text fill="#000000" font-family="sans-serif" font-size="14" font-weight="bold" lengthAdjust="spacing" textLength="198" x="1117.5" y="443.291">NumberTypeOptionContext</text><line style="stroke:#181818;stroke-width:0.5;" x1="1089.5" x2="1317.5" y1="454" y2="454"/><line style="stroke:#181818;stroke-width:0.5;" x1="1089.5" x2="1317.5" y1="462" y2="462"/></g><!--MD5=[de0470c01fc216a5e23bb825a589695c]
class SingleSelectTypeOptionWidgetBuilder--><g id="elem_SingleSelectTypeOptionWidgetBuilder"><rect fill="#F1F1F1" height="48" id="SingleSelectTypeOptionWidgetBuilder" rx="2.5" ry="2.5" style="stroke:#181818;stroke-width:0.5;" width="304" x="710" y="505"/><ellipse cx="725" cy="521" fill="#ADD1B2" rx="11" ry="11" style="stroke:#181818;stroke-width:1.0;"/><path d="M727.4731,527.1431 Q726.8921,527.4419 726.2529,527.5913 Q725.6138,527.7407 724.9082,527.7407 Q722.4014,527.7407 721.0815,526.0889 Q719.7617,524.437 719.7617,521.3159 Q719.7617,518.1865 721.0815,516.5347 Q722.4014,514.8828 724.9082,514.8828 Q725.6138,514.8828 726.2612,515.0322 Q726.9087,515.1816 727.4731,515.4805 L727.4731,518.2031 Q726.8423,517.6221 726.2488,517.3523 Q725.6553,517.0825 725.0244,517.0825 Q723.6797,517.0825 722.9949,518.1492 Q722.3101,519.2158 722.3101,521.3159 Q722.3101,523.4077 722.9949,524.4744 Q723.6797,525.541 725.0244,525.541 Q725.6553,525.541 726.2488,525.2712 Q726.8423,525.0015 727.4731,524.4204 Z " fill="#000000"/><text fill="#000000" font-family="sans-serif" font-size="14" font-weight="bold" lengthAdjust="spacing" textLength="272" x="739" y="526.291">SingleSelectTypeOptionWidgetBuilder</text><line style="stroke:#181818;stroke-width:0.5;" x1="711" x2="1013" y1="537" y2="537"/><line style="stroke:#181818;stroke-width:0.5;" x1="711" x2="1013" y1="545" y2="545"/></g><!--MD5=[ff5ff67972ea7310528794b284024867]
class SingleSelectTypeOptionContext--><g id="elem_SingleSelectTypeOptionContext"><rect fill="#F1F1F1" height="48" id="SingleSelectTypeOptionContext" rx="2.5" ry="2.5" style="stroke:#181818;stroke-width:0.5;" width="259" x="1074" y="505"/><ellipse cx="1089" cy="521" fill="#ADD1B2" rx="11" ry="11" style="stroke:#181818;stroke-width:1.0;"/><path d="M1091.4731,527.1431 Q1090.8921,527.4419 1090.2529,527.5913 Q1089.6138,527.7407 1088.9082,527.7407 Q1086.4014,527.7407 1085.0815,526.0889 Q1083.7617,524.437 1083.7617,521.3159 Q1083.7617,518.1865 1085.0815,516.5347 Q1086.4014,514.8828 1088.9082,514.8828 Q1089.6138,514.8828 1090.2612,515.0322 Q1090.9087,515.1816 1091.4731,515.4805 L1091.4731,518.2031 Q1090.8423,517.6221 1090.2488,517.3523 Q1089.6553,517.0825 1089.0244,517.0825 Q1087.6797,517.0825 1086.9949,518.1492 Q1086.3101,519.2158 1086.3101,521.3159 Q1086.3101,523.4077 1086.9949,524.4744 Q1087.6797,525.541 1089.0244,525.541 Q1089.6553,525.541 1090.2488,525.2712 Q1090.8423,525.0015 1091.4731,524.4204 Z " fill="#000000"/><text fill="#000000" font-family="sans-serif" font-size="14" font-weight="bold" lengthAdjust="spacing" textLength="227" x="1103" y="526.291">SingleSelectTypeOptionContext</text><line style="stroke:#181818;stroke-width:0.5;" x1="1075" x2="1332" y1="537" y2="537"/><line style="stroke:#181818;stroke-width:0.5;" x1="1075" x2="1332" y1="545" y2="545"/></g><!--MD5=[7fb1f3e610495f5fa926d4a08253dd2c]
class MultiSelectTypeOptionWidgetBuilder--><g id="elem_MultiSelectTypeOptionWidgetBuilder"><rect fill="#F1F1F1" height="48" id="MultiSelectTypeOptionWidgetBuilder" rx="2.5" ry="2.5" style="stroke:#181818;stroke-width:0.5;" width="298" x="713" y="588"/><ellipse cx="728" cy="604" fill="#ADD1B2" rx="11" ry="11" style="stroke:#181818;stroke-width:1.0;"/><path d="M730.4731,610.1431 Q729.8921,610.4419 729.2529,610.5913 Q728.6138,610.7407 727.9082,610.7407 Q725.4014,610.7407 724.0815,609.0889 Q722.7617,607.437 722.7617,604.3159 Q722.7617,601.1865 724.0815,599.5347 Q725.4014,597.8828 727.9082,597.8828 Q728.6138,597.8828 729.2612,598.0322 Q729.9087,598.1816 730.4731,598.4805 L730.4731,601.2031 Q729.8423,600.6221 729.2488,600.3523 Q728.6553,600.0825 728.0244,600.0825 Q726.6797,600.0825 725.9949,601.1492 Q725.3101,602.2158 725.3101,604.3159 Q725.3101,606.4077 725.9949,607.4744 Q726.6797,608.541 728.0244,608.541 Q728.6553,608.541 729.2488,608.2712 Q729.8423,608.0015 730.4731,607.4204 Z " fill="#000000"/><text fill="#000000" font-family="sans-serif" font-size="14" font-weight="bold" lengthAdjust="spacing" textLength="266" x="742" y="609.291">MultiSelectTypeOptionWidgetBuilder</text><line style="stroke:#181818;stroke-width:0.5;" x1="714" x2="1010" y1="620" y2="620"/><line style="stroke:#181818;stroke-width:0.5;" x1="714" x2="1010" y1="628" y2="628"/></g><!--MD5=[82cea9635f956dc7e397dbacb4b8a4a9]
class MultiSelectTypeOptionContext--><g id="elem_MultiSelectTypeOptionContext"><rect fill="#F1F1F1" height="48" id="MultiSelectTypeOptionContext" rx="2.5" ry="2.5" style="stroke:#181818;stroke-width:0.5;" width="253" x="1077" y="588"/><ellipse cx="1092" cy="604" fill="#ADD1B2" rx="11" ry="11" style="stroke:#181818;stroke-width:1.0;"/><path d="M1094.4731,610.1431 Q1093.8921,610.4419 1093.2529,610.5913 Q1092.6138,610.7407 1091.9082,610.7407 Q1089.4014,610.7407 1088.0815,609.0889 Q1086.7617,607.437 1086.7617,604.3159 Q1086.7617,601.1865 1088.0815,599.5347 Q1089.4014,597.8828 1091.9082,597.8828 Q1092.6138,597.8828 1093.2612,598.0322 Q1093.9087,598.1816 1094.4731,598.4805 L1094.4731,601.2031 Q1093.8423,600.6221 1093.2488,600.3523 Q1092.6553,600.0825 1092.0244,600.0825 Q1090.6797,600.0825 1089.9949,601.1492 Q1089.3101,602.2158 1089.3101,604.3159 Q1089.3101,606.4077 1089.9949,607.4744 Q1090.6797,608.541 1092.0244,608.541 Q1092.6553,608.541 1093.2488,608.2712 Q1093.8423,608.0015 1094.4731,607.4204 Z " fill="#000000"/><text fill="#000000" font-family="sans-serif" font-size="14" font-weight="bold" lengthAdjust="spacing" textLength="221" x="1106" y="609.291">MultiSelectTypeOptionContext</text><line style="stroke:#181818;stroke-width:0.5;" x1="1078" x2="1329" y1="620" y2="620"/><line style="stroke:#181818;stroke-width:0.5;" x1="1078" x2="1329" y1="628" y2="628"/></g><!--MD5=[255a3d78d2b0ea1ffc9f7995dbabea8a]
class RichTextTypeOptionWidgetBuilder--><g id="elem_RichTextTypeOptionWidgetBuilder"><rect fill="#F1F1F1" height="48" id="RichTextTypeOptionWidgetBuilder" rx="2.5" ry="2.5" style="stroke:#181818;stroke-width:0.5;" width="281" x="721.5" y="671"/><ellipse cx="736.5" cy="687" fill="#ADD1B2" rx="11" ry="11" style="stroke:#181818;stroke-width:1.0;"/><path d="M738.9731,693.1431 Q738.3921,693.4419 737.7529,693.5913 Q737.1138,693.7407 736.4082,693.7407 Q733.9014,693.7407 732.5815,692.0889 Q731.2617,690.437 731.2617,687.3159 Q731.2617,684.1865 732.5815,682.5347 Q733.9014,680.8828 736.4082,680.8828 Q737.1138,680.8828 737.7612,681.0322 Q738.4087,681.1816 738.9731,681.4805 L738.9731,684.2031 Q738.3423,683.6221 737.7488,683.3523 Q737.1553,683.0825 736.5244,683.0825 Q735.1797,683.0825 734.4949,684.1492 Q733.8101,685.2158 733.8101,687.3159 Q733.8101,689.4077 734.4949,690.4744 Q735.1797,691.541 736.5244,691.541 Q737.1553,691.541 737.7488,691.2712 Q738.3423,691.0015 738.9731,690.4204 Z " fill="#000000"/><text fill="#000000" font-family="sans-serif" font-size="14" font-weight="bold" lengthAdjust="spacing" textLength="249" x="750.5" y="692.291">RichTextTypeOptionWidgetBuilder</text><line style="stroke:#181818;stroke-width:0.5;" x1="722.5" x2="1001.5" y1="703" y2="703"/><line style="stroke:#181818;stroke-width:0.5;" x1="722.5" x2="1001.5" y1="711" y2="711"/></g><!--MD5=[6ad145b231c7d0d4cf1a3ceaa758ac1e]
class RichTextTypeOptionContext--><g id="elem_RichTextTypeOptionContext"><rect fill="#F1F1F1" height="48" id="RichTextTypeOptionContext" rx="2.5" ry="2.5" style="stroke:#181818;stroke-width:0.5;" width="236" x="1085.5" y="671"/><ellipse cx="1100.5" cy="687" fill="#ADD1B2" rx="11" ry="11" style="stroke:#181818;stroke-width:1.0;"/><path d="M1102.9731,693.1431 Q1102.3921,693.4419 1101.7529,693.5913 Q1101.1138,693.7407 1100.4082,693.7407 Q1097.9014,693.7407 1096.5815,692.0889 Q1095.2617,690.437 1095.2617,687.3159 Q1095.2617,684.1865 1096.5815,682.5347 Q1097.9014,680.8828 1100.4082,680.8828 Q1101.1138,680.8828 1101.7612,681.0322 Q1102.4087,681.1816 1102.9731,681.4805 L1102.9731,684.2031 Q1102.3423,683.6221 1101.7488,683.3523 Q1101.1553,683.0825 1100.5244,683.0825 Q1099.1797,683.0825 1098.4949,684.1492 Q1097.8101,685.2158 1097.8101,687.3159 Q1097.8101,689.4077 1098.4949,690.4744 Q1099.1797,691.541 1100.5244,691.541 Q1101.1553,691.541 1101.7488,691.2712 Q1102.3423,691.0015 1102.9731,690.4204 Z " fill="#000000"/><text fill="#000000" font-family="sans-serif" font-size="14" font-weight="bold" lengthAdjust="spacing" textLength="204" x="1114.5" y="692.291">RichTextTypeOptionContext</text><line style="stroke:#181818;stroke-width:0.5;" x1="1086.5" x2="1320.5" y1="703" y2="703"/><line style="stroke:#181818;stroke-width:0.5;" x1="1086.5" x2="1320.5" y1="711" y2="711"/></g><!--MD5=[4a28a83e8e7a9e67eac5c395baf505b4]
class URLTypeOptionWidgetBuilder--><g id="elem_URLTypeOptionWidgetBuilder"><rect fill="#F1F1F1" height="48" id="URLTypeOptionWidgetBuilder" rx="2.5" ry="2.5" style="stroke:#181818;stroke-width:0.5;" width="246" x="739" y="754"/><ellipse cx="754" cy="770" fill="#ADD1B2" rx="11" ry="11" style="stroke:#181818;stroke-width:1.0;"/><path d="M756.4731,776.1431 Q755.8921,776.4419 755.2529,776.5913 Q754.6138,776.7407 753.9082,776.7407 Q751.4014,776.7407 750.0815,775.0889 Q748.7617,773.437 748.7617,770.3159 Q748.7617,767.1865 750.0815,765.5347 Q751.4014,763.8828 753.9082,763.8828 Q754.6138,763.8828 755.2612,764.0322 Q755.9087,764.1816 756.4731,764.4805 L756.4731,767.2031 Q755.8423,766.6221 755.2488,766.3523 Q754.6553,766.0825 754.0244,766.0825 Q752.6797,766.0825 751.9949,767.1492 Q751.3101,768.2158 751.3101,770.3159 Q751.3101,772.4077 751.9949,773.4744 Q752.6797,774.541 754.0244,774.541 Q754.6553,774.541 755.2488,774.2712 Q755.8423,774.0015 756.4731,773.4204 Z " fill="#000000"/><text fill="#000000" font-family="sans-serif" font-size="14" font-weight="bold" lengthAdjust="spacing" textLength="214" x="768" y="775.291">URLTypeOptionWidgetBuilder</text><line style="stroke:#181818;stroke-width:0.5;" x1="740" x2="984" y1="786" y2="786"/><line style="stroke:#181818;stroke-width:0.5;" x1="740" x2="984" y1="794" y2="794"/></g><!--MD5=[3ffc3ecdfac5cd77f902b36a9e26271e]
class URLTypeOptionContext--><g id="elem_URLTypeOptionContext"><rect fill="#F1F1F1" height="48" id="URLTypeOptionContext" rx="2.5" ry="2.5" style="stroke:#181818;stroke-width:0.5;" width="201" x="1103" y="754"/><ellipse cx="1118" cy="770" fill="#ADD1B2" rx="11" ry="11" style="stroke:#181818;stroke-width:1.0;"/><path d="M1120.4731,776.1431 Q1119.8921,776.4419 1119.2529,776.5913 Q1118.6138,776.7407 1117.9082,776.7407 Q1115.4014,776.7407 1114.0815,775.0889 Q1112.7617,773.437 1112.7617,770.3159 Q1112.7617,767.1865 1114.0815,765.5347 Q1115.4014,763.8828 1117.9082,763.8828 Q1118.6138,763.8828 1119.2612,764.0322 Q1119.9087,764.1816 1120.4731,764.4805 L1120.4731,767.2031 Q1119.8423,766.6221 1119.2488,766.3523 Q1118.6553,766.0825 1118.0244,766.0825 Q1116.6797,766.0825 1115.9949,767.1492 Q1115.3101,768.2158 1115.3101,770.3159 Q1115.3101,772.4077 1115.9949,773.4744 Q1116.6797,774.541 1118.0244,774.541 Q1118.6553,774.541 1119.2488,774.2712 Q1119.8423,774.0015 1120.4731,773.4204 Z " fill="#000000"/><text fill="#000000" font-family="sans-serif" font-size="14" font-weight="bold" lengthAdjust="spacing" textLength="169" x="1132" y="775.291">URLTypeOptionContext</text><line style="stroke:#181818;stroke-width:0.5;" x1="1104" x2="1303" y1="786" y2="786"/><line style="stroke:#181818;stroke-width:0.5;" x1="1104" x2="1303" y1="794" y2="794"/></g><!--MD5=[1f144cc092e6ed242406a8d1767211ef]
class TypeOptionDataParser--><g id="elem_TypeOptionDataParser"><rect fill="#F1F1F1" height="48" id="TypeOptionDataParser" rx="2.5" ry="2.5" style="stroke:#181818;stroke-width:0.5;" width="195" x="1676" y="505"/><ellipse cx="1691" cy="521" fill="#ADD1B2" rx="11" ry="11" style="stroke:#181818;stroke-width:1.0;"/><path d="M1693.4731,527.1431 Q1692.8921,527.4419 1692.2529,527.5913 Q1691.6138,527.7407 1690.9082,527.7407 Q1688.4014,527.7407 1687.0815,526.0889 Q1685.7617,524.437 1685.7617,521.3159 Q1685.7617,518.1865 1687.0815,516.5347 Q1688.4014,514.8828 1690.9082,514.8828 Q1691.6138,514.8828 1692.2612,515.0322 Q1692.9087,515.1816 1693.4731,515.4805 L1693.4731,518.2031 Q1692.8423,517.6221 1692.2488,517.3523 Q1691.6553,517.0825 1691.0244,517.0825 Q1689.6797,517.0825 1688.9949,518.1492 Q1688.3101,519.2158 1688.3101,521.3159 Q1688.3101,523.4077 1688.9949,524.4744 Q1689.6797,525.541 1691.0244,525.541 Q1691.6553,525.541 1692.2488,525.2712 Q1692.8423,525.0015 1693.4731,524.4204 Z " fill="#000000"/><text fill="#000000" font-family="sans-serif" font-size="14" font-weight="bold" lengthAdjust="spacing" textLength="163" x="1705" y="526.291">TypeOptionDataParser</text><line style="stroke:#181818;stroke-width:0.5;" x1="1677" x2="1870" y1="537" y2="537"/><line style="stroke:#181818;stroke-width:0.5;" x1="1677" x2="1870" y1="545" y2="545"/></g><!--MD5=[cbc27145194aa3fcbac0eac687086df1]
class DateTypeOptionDataParser--><g id="elem_DateTypeOptionDataParser"><rect fill="#F1F1F1" height="48" id="DateTypeOptionDataParser" rx="2.5" ry="2.5" style="stroke:#181818;stroke-width:0.5;" width="228" x="1957.5" y="256"/><ellipse cx="1972.5" cy="272" fill="#ADD1B2" rx="11" ry="11" style="stroke:#181818;stroke-width:1.0;"/><path d="M1974.9731,278.1431 Q1974.3921,278.4419 1973.7529,278.5913 Q1973.1138,278.7407 1972.4082,278.7407 Q1969.9014,278.7407 1968.5815,277.0889 Q1967.2617,275.437 1967.2617,272.3159 Q1967.2617,269.1865 1968.5815,267.5347 Q1969.9014,265.8828 1972.4082,265.8828 Q1973.1138,265.8828 1973.7612,266.0322 Q1974.4087,266.1816 1974.9731,266.4805 L1974.9731,269.2031 Q1974.3423,268.6221 1973.7488,268.3523 Q1973.1553,268.0825 1972.5244,268.0825 Q1971.1797,268.0825 1970.4949,269.1492 Q1969.8101,270.2158 1969.8101,272.3159 Q1969.8101,274.4077 1970.4949,275.4744 Q1971.1797,276.541 1972.5244,276.541 Q1973.1553,276.541 1973.7488,276.2712 Q1974.3423,276.0015 1974.9731,275.4204 Z " fill="#000000"/><text fill="#000000" font-family="sans-serif" font-size="14" font-weight="bold" lengthAdjust="spacing" textLength="196" x="1986.5" y="277.291">DateTypeOptionDataParser</text><line style="stroke:#181818;stroke-width:0.5;" x1="1958.5" x2="2184.5" y1="288" y2="288"/><line style="stroke:#181818;stroke-width:0.5;" x1="1958.5" x2="2184.5" y1="296" y2="296"/></g><!--MD5=[90f7d075d095bf4ea826e0e7c6101616]
class MultiSelectTypeOptionDataParser--><g id="elem_MultiSelectTypeOptionDataParser"><rect fill="#F1F1F1" height="48" id="MultiSelectTypeOptionDataParser" rx="2.5" ry="2.5" style="stroke:#181818;stroke-width:0.5;" width="275" x="1934" y="339"/><ellipse cx="1949" cy="355" fill="#ADD1B2" rx="11" ry="11" style="stroke:#181818;stroke-width:1.0;"/><path d="M1951.4731,361.1431 Q1950.8921,361.4419 1950.2529,361.5913 Q1949.6138,361.7407 1948.9082,361.7407 Q1946.4014,361.7407 1945.0815,360.0889 Q1943.7617,358.437 1943.7617,355.3159 Q1943.7617,352.1865 1945.0815,350.5347 Q1946.4014,348.8828 1948.9082,348.8828 Q1949.6138,348.8828 1950.2612,349.0322 Q1950.9087,349.1816 1951.4731,349.4805 L1951.4731,352.2031 Q1950.8423,351.6221 1950.2488,351.3523 Q1949.6553,351.0825 1949.0244,351.0825 Q1947.6797,351.0825 1946.9949,352.1492 Q1946.3101,353.2158 1946.3101,355.3159 Q1946.3101,357.4077 1946.9949,358.4744 Q1947.6797,359.541 1949.0244,359.541 Q1949.6553,359.541 1950.2488,359.2712 Q1950.8423,359.0015 1951.4731,358.4204 Z " fill="#000000"/><text fill="#000000" font-family="sans-serif" font-size="14" font-weight="bold" lengthAdjust="spacing" textLength="243" x="1963" y="360.291">MultiSelectTypeOptionDataParser</text><line style="stroke:#181818;stroke-width:0.5;" x1="1935" x2="2208" y1="371" y2="371"/><line style="stroke:#181818;stroke-width:0.5;" x1="1935" x2="2208" y1="379" y2="379"/></g><!--MD5=[2159c9d6008921ecd3bbdac97a7e41a4]
class NumberTypeOptionDataParser--><g id="elem_NumberTypeOptionDataParser"><rect fill="#F1F1F1" height="48" id="NumberTypeOptionDataParser" rx="2.5" ry="2.5" style="stroke:#181818;stroke-width:0.5;" width="252" x="1945.5" y="422"/><ellipse cx="1960.5" cy="438" fill="#ADD1B2" rx="11" ry="11" style="stroke:#181818;stroke-width:1.0;"/><path d="M1962.9731,444.1431 Q1962.3921,444.4419 1961.7529,444.5913 Q1961.1138,444.7407 1960.4082,444.7407 Q1957.9014,444.7407 1956.5815,443.0889 Q1955.2617,441.437 1955.2617,438.3159 Q1955.2617,435.1865 1956.5815,433.5347 Q1957.9014,431.8828 1960.4082,431.8828 Q1961.1138,431.8828 1961.7612,432.0322 Q1962.4087,432.1816 1962.9731,432.4805 L1962.9731,435.2031 Q1962.3423,434.6221 1961.7488,434.3523 Q1961.1553,434.0825 1960.5244,434.0825 Q1959.1797,434.0825 1958.4949,435.1492 Q1957.8101,436.2158 1957.8101,438.3159 Q1957.8101,440.4077 1958.4949,441.4744 Q1959.1797,442.541 1960.5244,442.541 Q1961.1553,442.541 1961.7488,442.2712 Q1962.3423,442.0015 1962.9731,441.4204 Z " fill="#000000"/><text fill="#000000" font-family="sans-serif" font-size="14" font-weight="bold" lengthAdjust="spacing" textLength="220" x="1974.5" y="443.291">NumberTypeOptionDataParser</text><line style="stroke:#181818;stroke-width:0.5;" x1="1946.5" x2="2196.5" y1="454" y2="454"/><line style="stroke:#181818;stroke-width:0.5;" x1="1946.5" x2="2196.5" y1="462" y2="462"/></g><!--MD5=[88bb62ad8cff7cf79e5cd424ca008444]
class SingleSelectTypeOptionDataParser--><g id="elem_SingleSelectTypeOptionDataParser"><rect fill="#F1F1F1" height="48" id="SingleSelectTypeOptionDataParser" rx="2.5" ry="2.5" style="stroke:#181818;stroke-width:0.5;" width="281" x="1931" y="505"/><ellipse cx="1946" cy="521" fill="#ADD1B2" rx="11" ry="11" style="stroke:#181818;stroke-width:1.0;"/><path d="M1948.4731,527.1431 Q1947.8921,527.4419 1947.2529,527.5913 Q1946.6138,527.7407 1945.9082,527.7407 Q1943.4014,527.7407 1942.0815,526.0889 Q1940.7617,524.437 1940.7617,521.3159 Q1940.7617,518.1865 1942.0815,516.5347 Q1943.4014,514.8828 1945.9082,514.8828 Q1946.6138,514.8828 1947.2612,515.0322 Q1947.9087,515.1816 1948.4731,515.4805 L1948.4731,518.2031 Q1947.8423,517.6221 1947.2488,517.3523 Q1946.6553,517.0825 1946.0244,517.0825 Q1944.6797,517.0825 1943.9949,518.1492 Q1943.3101,519.2158 1943.3101,521.3159 Q1943.3101,523.4077 1943.9949,524.4744 Q1944.6797,525.541 1946.0244,525.541 Q1946.6553,525.541 1947.2488,525.2712 Q1947.8423,525.0015 1948.4731,524.4204 Z " fill="#000000"/><text fill="#000000" font-family="sans-serif" font-size="14" font-weight="bold" lengthAdjust="spacing" textLength="249" x="1960" y="526.291">SingleSelectTypeOptionDataParser</text><line style="stroke:#181818;stroke-width:0.5;" x1="1932" x2="2211" y1="537" y2="537"/><line style="stroke:#181818;stroke-width:0.5;" x1="1932" x2="2211" y1="545" y2="545"/></g><!--MD5=[e83ddd0b28e4cc4d6fd0574d0d307df6]
class CheckboxTypeOptionDataParser--><g id="elem_CheckboxTypeOptionDataParser"><rect fill="#F1F1F1" height="48" id="CheckboxTypeOptionDataParser" rx="2.5" ry="2.5" style="stroke:#181818;stroke-width:0.5;" width="264" x="1939.5" y="588"/><ellipse cx="1954.5" cy="604" fill="#ADD1B2" rx="11" ry="11" style="stroke:#181818;stroke-width:1.0;"/><path d="M1956.9731,610.1431 Q1956.3921,610.4419 1955.7529,610.5913 Q1955.1138,610.7407 1954.4082,610.7407 Q1951.9014,610.7407 1950.5815,609.0889 Q1949.2617,607.437 1949.2617,604.3159 Q1949.2617,601.1865 1950.5815,599.5347 Q1951.9014,597.8828 1954.4082,597.8828 Q1955.1138,597.8828 1955.7612,598.0322 Q1956.4087,598.1816 1956.9731,598.4805 L1956.9731,601.2031 Q1956.3423,600.6221 1955.7488,600.3523 Q1955.1553,600.0825 1954.5244,600.0825 Q1953.1797,600.0825 1952.4949,601.1492 Q1951.8101,602.2158 1951.8101,604.3159 Q1951.8101,606.4077 1952.4949,607.4744 Q1953.1797,608.541 1954.5244,608.541 Q1955.1553,608.541 1955.7488,608.2712 Q1956.3423,608.0015 1956.9731,607.4204 Z " fill="#000000"/><text fill="#000000" font-family="sans-serif" font-size="14" font-weight="bold" lengthAdjust="spacing" textLength="232" x="1968.5" y="609.291">CheckboxTypeOptionDataParser</text><line style="stroke:#181818;stroke-width:0.5;" x1="1940.5" x2="2202.5" y1="620" y2="620"/><line style="stroke:#181818;stroke-width:0.5;" x1="1940.5" x2="2202.5" y1="628" y2="628"/></g><!--MD5=[6cfdeea999558e9e348651a794224b64]
class RichTextTypeOptionDataParser--><g id="elem_RichTextTypeOptionDataParser"><rect fill="#F1F1F1" height="48" id="RichTextTypeOptionDataParser" rx="2.5" ry="2.5" style="stroke:#181818;stroke-width:0.5;" width="258" x="1942.5" y="671"/><ellipse cx="1957.5" cy="687" fill="#ADD1B2" rx="11" ry="11" style="stroke:#181818;stroke-width:1.0;"/><path d="M1959.9731,693.1431 Q1959.3921,693.4419 1958.7529,693.5913 Q1958.1138,693.7407 1957.4082,693.7407 Q1954.9014,693.7407 1953.5815,692.0889 Q1952.2617,690.437 1952.2617,687.3159 Q1952.2617,684.1865 1953.5815,682.5347 Q1954.9014,680.8828 1957.4082,680.8828 Q1958.1138,680.8828 1958.7612,681.0322 Q1959.4087,681.1816 1959.9731,681.4805 L1959.9731,684.2031 Q1959.3423,683.6221 1958.7488,683.3523 Q1958.1553,683.0825 1957.5244,683.0825 Q1956.1797,683.0825 1955.4949,684.1492 Q1954.8101,685.2158 1954.8101,687.3159 Q1954.8101,689.4077 1955.4949,690.4744 Q1956.1797,691.541 1957.5244,691.541 Q1958.1553,691.541 1958.7488,691.2712 Q1959.3423,691.0015 1959.9731,690.4204 Z " fill="#000000"/><text fill="#000000" font-family="sans-serif" font-size="14" font-weight="bold" lengthAdjust="spacing" textLength="226" x="1971.5" y="692.291">RichTextTypeOptionDataParser</text><line style="stroke:#181818;stroke-width:0.5;" x1="1943.5" x2="2199.5" y1="703" y2="703"/><line style="stroke:#181818;stroke-width:0.5;" x1="1943.5" x2="2199.5" y1="711" y2="711"/></g><!--MD5=[83d97055593b23d34b316b66089e81f5]
class URLTypeOptionDataParser--><g id="elem_URLTypeOptionDataParser"><rect fill="#F1F1F1" height="48" id="URLTypeOptionDataParser" rx="2.5" ry="2.5" style="stroke:#181818;stroke-width:0.5;" width="223" x="1960" y="754"/><ellipse cx="1975" cy="770" fill="#ADD1B2" rx="11" ry="11" style="stroke:#181818;stroke-width:1.0;"/><path d="M1977.4731,776.1431 Q1976.8921,776.4419 1976.2529,776.5913 Q1975.6138,776.7407 1974.9082,776.7407 Q1972.4014,776.7407 1971.0815,775.0889 Q1969.7617,773.437 1969.7617,770.3159 Q1969.7617,767.1865 1971.0815,765.5347 Q1972.4014,763.8828 1974.9082,763.8828 Q1975.6138,763.8828 1976.2612,764.0322 Q1976.9087,764.1816 1977.4731,764.4805 L1977.4731,767.2031 Q1976.8423,766.6221 1976.2488,766.3523 Q1975.6553,766.0825 1975.0244,766.0825 Q1973.6797,766.0825 1972.9949,767.1492 Q1972.3101,768.2158 1972.3101,770.3159 Q1972.3101,772.4077 1972.9949,773.4744 Q1973.6797,774.541 1975.0244,774.541 Q1975.6553,774.541 1976.2488,774.2712 Q1976.8423,774.0015 1977.4731,773.4204 Z " fill="#000000"/><text fill="#000000" font-family="sans-serif" font-size="14" font-weight="bold" lengthAdjust="spacing" textLength="191" x="1989" y="775.291">URLTypeOptionDataParser</text><line style="stroke:#181818;stroke-width:0.5;" x1="1961" x2="2182" y1="786" y2="786"/><line style="stroke:#181818;stroke-width:0.5;" x1="1961" x2="2182" y1="794" y2="794"/></g><!--MD5=[2dfbcb9c9a8f6b44ae8354016acfed74]
link FieldEditor to FieldEditorBloc--><g id="link_FieldEditor_FieldEditorBloc"><path codeLine="9" d="M117.21,145.18 C142.21,140.2 172.28,134.2 199.34,128.8 " fill="none" id="FieldEditor-to-FieldEditorBloc" style="stroke:#181818;stroke-width:1.0;"/><polygon fill="#181818" points="204.35,127.8,194.744,125.6266,199.4455,128.7723,196.2997,133.4738,204.35,127.8" style="stroke:#181818;stroke-width:1.0;"/></g><!--MD5=[0e053b89c226085f98b20f9d2a24e688]
link FieldEditor to FieldTypeOptionEditor--><g id="link_FieldEditor_FieldTypeOptionEditor"><path codeLine="10" d="M117.21,166.56 C133.91,169.81 152.88,173.51 171.69,177.17 " fill="none" id="FieldEditor-to-FieldTypeOptionEditor" style="stroke:#181818;stroke-width:1.0;"/><polygon fill="#181818" points="177,178.2,168.9307,172.5532,172.0922,177.2441,167.4013,180.4056,177,178.2" style="stroke:#181818;stroke-width:1.0;"/></g><!--MD5=[b5477b3db325ff874624d5033ad86de9]
link FieldEditorBloc to IFieldContextLoader--><g id="link_FieldEditorBloc_IFieldContextLoader"><path codeLine="13" d="M344.65,114 C376.03,114 413.61,114 447.38,114 " fill="none" id="FieldEditorBloc-to-IFieldContextLoader" style="stroke:#181818;stroke-width:1.0;"/><polygon fill="#181818" points="452.77,114,443.77,110,447.77,114,443.77,118,452.77,114" style="stroke:#181818;stroke-width:1.0;"/></g><!--MD5=[f0dc91b30197ef990b90576e20273bb2]
reverse link IFieldContextLoader to NewFieldContextLoader--><g id="link_IFieldContextLoader_NewFieldContextLoader"><path codeLine="14" d="M648.7,86.24 C687.56,76.13 731.13,64.79 768.64,55.03 " fill="none" id="IFieldContextLoader-backto-NewFieldContextLoader" style="stroke:#181818;stroke-width:1.0;"/><polygon fill="none" points="650.29,93.06,629.17,91.32,646.76,79.51,650.29,93.06" style="stroke:#181818;stroke-width:1.0;"/></g><!--MD5=[914f6720f1b2e906fa65603b2e1f9f7f]
reverse link IFieldContextLoader to FieldContextLoader--><g id="link_IFieldContextLoader_FieldContextLoader"><path codeLine="15" d="M649.33,114 C690.75,114 737.44,114 776.42,114 " fill="none" id="IFieldContextLoader-backto-FieldContextLoader" style="stroke:#181818;stroke-width:1.0;"/><polygon fill="none" points="649.17,121,629.17,114,649.17,107,649.17,121" style="stroke:#181818;stroke-width:1.0;"/></g><!--MD5=[39126c2f1efca28fb6a1eae09c8b52ec]
link FieldTypeOptionEditor to FieldTypeOptionEditBloc--><g id="link_FieldTypeOptionEditor_FieldTypeOptionEditBloc"><path codeLine="17" d="M372.11,197 C391,197 410.93,197 430.21,197 " fill="none" id="FieldTypeOptionEditor-to-FieldTypeOptionEditBloc" style="stroke:#181818;stroke-width:1.0;"/><polygon fill="#181818" points="435.63,197,426.63,193,430.63,197,426.63,201,435.63,197" style="stroke:#181818;stroke-width:1.0;"/></g><!--MD5=[7dac0f5f8d1c79eb7b8150b91d9fd8a3]
link FieldTypeOptionEditBloc to GridFieldContext--><g id="link_FieldTypeOptionEditBloc_GridFieldContext"><path codeLine="18" d="M646.01,197 C689.51,197 739.3,197 780.01,197 " fill="none" id="FieldTypeOptionEditBloc-to-GridFieldContext" style="stroke:#181818;stroke-width:1.0;"/><polygon fill="#181818" points="785.43,197,776.43,193,780.43,197,776.43,201,785.43,197" style="stroke:#181818;stroke-width:1.0;"/></g><!--MD5=[b055aec7b2d0d45de9d81f97ab45a3f5]
reverse link IFieldContextLoader to GridFieldContext--><g id="link_IFieldContextLoader_GridFieldContext"><path codeLine="19" d="M634.07,137.96 C682.05,150.44 740,165.52 785.33,177.31 " fill="none" id="IFieldContextLoader-backto-GridFieldContext" style="stroke:#181818;stroke-width:1.0;"/><polygon fill="#181818" points="629.17,136.68,636.8718,142.8186,634.0087,137.9398,638.8875,135.0766,629.17,136.68" style="stroke:#181818;stroke-width:1.0;"/></g><!--MD5=[9415a6a1d7de171db02baf32ba761727]
link FieldTypeOptionEditor to TypeOptionWidgetBuilder--><g id="link_FieldTypeOptionEditor_TypeOptionWidgetBuilder"><path codeLine="22" d="M297.6,221.23 C346.22,274.54 462.27,401.77 514.16,458.67 " fill="none" id="FieldTypeOptionEditor-to-TypeOptionWidgetBuilder" style="stroke:#181818;stroke-width:1.0;"/><polygon fill="#181818" points="517.78,462.64,514.6767,453.2928,514.4131,458.9435,508.7624,458.6799,517.78,462.64" style="stroke:#181818;stroke-width:1.0;"/></g><!--MD5=[277baafc9fa4aa872d35c2209b8ba834]
reverse link TypeOptionWidgetBuilder to CheckboxTypeOptionWidgetBuilder--><g id="link_TypeOptionWidgetBuilder_CheckboxTypeOptionWidgetBuilder"><path codeLine="23" d="M572.52,447.05 C603.29,409.47 654.13,354.27 710,322 C722.25,314.92 735.76,308.99 749.5,304.02 " fill="none" id="TypeOptionWidgetBuilder-backto-CheckboxTypeOptionWidgetBuilder" style="stroke:#181818;stroke-width:1.0;"/><polygon fill="none" points="577.79,451.67,559.85,462.94,566.85,442.94,577.79,451.67" style="stroke:#181818;stroke-width:1.0;"/></g><!--MD5=[c2626864888a265a99dfbc13db6d1fac]
link CheckboxTypeOptionWidgetBuilder to CheckboxTypeOptionContext--><g id="link_CheckboxTypeOptionWidgetBuilder_CheckboxTypeOptionContext"><path codeLine="24" d="M1005.5,280 C1029.29,280 1053.81,280 1077.13,280 " fill="none" id="CheckboxTypeOptionWidgetBuilder-to-CheckboxTypeOptionContext" style="stroke:#181818;stroke-width:1.0;"/><polygon fill="#181818" points="1082.4,280,1073.4,276,1077.4,280,1073.4,284,1082.4,280" style="stroke:#181818;stroke-width:1.0;"/></g><!--MD5=[cbdf8ebdb6afe423383f9c56713dc103]
link CheckboxTypeOptionContext to TypeOptionWidgetContext--><g id="link_CheckboxTypeOptionContext_TypeOptionWidgetContext"><path codeLine="25" d="M1299.38,304.12 C1311.2,309.08 1322.73,314.99 1333,322 C1397.36,365.92 1450.44,440.89 1479.48,487.54 " fill="none" id="CheckboxTypeOptionContext-to-TypeOptionWidgetContext" style="stroke:#181818;stroke-width:1.0;"/><polygon fill="none" points="1485.54,484.03,1489.92,504.76,1473.57,491.28,1485.54,484.03" style="stroke:#181818;stroke-width:1.0;"/></g><!--MD5=[6b70d27887ec6494ce9624989559a78f]
reverse link TypeOptionWidgetBuilder to DateTypeOptionWidgetBuilder--><g id="link_TypeOptionWidgetBuilder_DateTypeOptionWidgetBuilder"><path codeLine="27" d="M603.51,453.62 C634.79,437.51 673.77,418.75 710,405 C727.3,398.44 746.06,392.39 764.29,387.06 " fill="none" id="TypeOptionWidgetBuilder-backto-DateTypeOptionWidgetBuilder" style="stroke:#181818;stroke-width:1.0;"/><polygon fill="none" points="606.56,459.92,585.59,462.98,600.07,447.51,606.56,459.92" style="stroke:#181818;stroke-width:1.0;"/></g><!--MD5=[1d46ea7f506bbcd458c1b1e42bee3969]
link DateTypeOptionWidgetBuilder to DateTypeOptionContext--><g id="link_DateTypeOptionWidgetBuilder_DateTypeOptionContext"><path codeLine="28" d="M987.97,363 C1023.2,363 1061.2,363 1095.29,363 " fill="none" id="DateTypeOptionWidgetBuilder-to-DateTypeOptionContext" style="stroke:#181818;stroke-width:1.0;"/><polygon fill="#181818" points="1100.29,363,1091.29,359,1095.29,363,1091.29,367,1100.29,363" style="stroke:#181818;stroke-width:1.0;"/></g><!--MD5=[257a21c571e05d329520fc823693aa45]
link DateTypeOptionContext to TypeOptionWidgetContext--><g id="link_DateTypeOptionContext_TypeOptionWidgetContext"><path codeLine="29" d="M1290.69,387.03 C1305.13,392.22 1319.73,398.22 1333,405 C1379.7,428.86 1427.54,464.86 1460.61,491.93 " fill="none" id="DateTypeOptionContext-to-TypeOptionWidgetContext" style="stroke:#181818;stroke-width:1.0;"/><polygon fill="none" points="1465.15,486.61,1476.03,504.79,1456.19,497.36,1465.15,486.61" style="stroke:#181818;stroke-width:1.0;"/></g><!--MD5=[558bb2e019e03dfe99157e37b739b3af]
reverse link TypeOptionWidgetBuilder to NumberTypeOptionWidgetBuilder--><g id="link_TypeOptionWidgetBuilder_NumberTypeOptionWidgetBuilder"><path codeLine="31" d="M670.54,470.48 C688.25,468.2 706.49,465.86 724.33,463.57 " fill="none" id="TypeOptionWidgetBuilder-backto-NumberTypeOptionWidgetBuilder" style="stroke:#181818;stroke-width:1.0;"/><polygon fill="none" points="671.17,477.46,650.44,473.06,669.39,463.57,671.17,477.46" style="stroke:#181818;stroke-width:1.0;"/></g><!--MD5=[9476ebeb84874c95f85c425466bb2afa]
link NumberTypeOptionWidgetBuilder to NumberTypeOptionContext--><g id="link_NumberTypeOptionWidgetBuilder_NumberTypeOptionContext"><path codeLine="32" d="M999.62,446 C1027.37,446 1056.36,446 1083.44,446 " fill="none" id="NumberTypeOptionWidgetBuilder-to-NumberTypeOptionContext" style="stroke:#181818;stroke-width:1.0;"/><polygon fill="#181818" points="1088.48,446,1079.48,442,1083.48,446,1079.48,450,1088.48,446" style="stroke:#181818;stroke-width:1.0;"/></g><!--MD5=[f86eeed20cf3a33fea7e20ab70f5a480]
link NumberTypeOptionContext to TypeOptionWidgetContext--><g id="link_NumberTypeOptionContext_TypeOptionWidgetContext"><path codeLine="33" d="M1290.98,470.01 C1324.23,479.24 1362.56,489.88 1397.44,499.56 " fill="none" id="NumberTypeOptionContext-to-TypeOptionWidgetContext" style="stroke:#181818;stroke-width:1.0;"/><polygon fill="none" points="1399.55,492.88,1416.95,504.98,1395.81,506.37,1399.55,492.88" style="stroke:#181818;stroke-width:1.0;"/></g><!--MD5=[65ee1396fec130ddc4080fe251a124be]
reverse link TypeOptionWidgetBuilder to SingleSelectTypeOptionWidgetBuilder--><g id="link_TypeOptionWidgetBuilder_SingleSelectTypeOptionWidgetBuilder"><path codeLine="35" d="M670.53,503.92 C683.49,505.63 696.73,507.37 709.9,509.11 " fill="none" id="TypeOptionWidgetBuilder-backto-SingleSelectTypeOptionWidgetBuilder" style="stroke:#181818;stroke-width:1.0;"/><polygon fill="none" points="669.36,510.83,650.44,501.28,671.19,496.95,669.36,510.83" style="stroke:#181818;stroke-width:1.0;"/></g><!--MD5=[4e6082c9e87cc65555179dce0db85be8]
link SingleSelectTypeOptionWidgetBuilder to SingleSelectTypeOptionContext--><g id="link_SingleSelectTypeOptionWidgetBuilder_SingleSelectTypeOptionContext"><path codeLine="36" d="M1014.38,529 C1032.56,529 1051.03,529 1068.94,529 " fill="none" id="SingleSelectTypeOptionWidgetBuilder-to-SingleSelectTypeOptionContext" style="stroke:#181818;stroke-width:1.0;"/><polygon fill="#181818" points="1073.97,529,1064.97,525,1068.97,529,1064.97,533,1073.97,529" style="stroke:#181818;stroke-width:1.0;"/></g><!--MD5=[417928045d90984bb971ce0e68c2634c]
link SingleSelectTypeOptionContext to TypeOptionWidgetContext--><g id="link_SingleSelectTypeOptionContext_TypeOptionWidgetContext"><path codeLine="37" d="M1333.04,529 C1346.13,529 1359.43,529 1372.55,529 " fill="none" id="SingleSelectTypeOptionContext-to-TypeOptionWidgetContext" style="stroke:#181818;stroke-width:1.0;"/><polygon fill="none" points="1372.93,522,1392.93,529,1372.93,536,1372.93,522" style="stroke:#181818;stroke-width:1.0;"/></g><!--MD5=[415c9acafe6eb0f657805562c8315e63]
reverse link TypeOptionWidgetBuilder to MultiSelectTypeOptionWidgetBuilder--><g id="link_TypeOptionWidgetBuilder_MultiSelectTypeOptionWidgetBuilder"><path codeLine="39" d="M602.4,520.86 C633.82,537.52 673.24,556.98 710,571 C726.37,577.24 744.08,582.94 761.41,587.98 " fill="none" id="TypeOptionWidgetBuilder-backto-MultiSelectTypeOptionWidgetBuilder" style="stroke:#181818;stroke-width:1.0;"/><polygon fill="none" points="598.73,526.83,584.45,511.18,605.37,514.51,598.73,526.83" style="stroke:#181818;stroke-width:1.0;"/></g><!--MD5=[d7c122cb4f9fe3d957f00f3fc3bee26c]
link MultiSelectTypeOptionWidgetBuilder to MultiSelectTypeOptionContext--><g id="link_MultiSelectTypeOptionWidgetBuilder_MultiSelectTypeOptionContext"><path codeLine="40" d="M1011.42,612 C1031.57,612 1052.12,612 1071.93,612 " fill="none" id="MultiSelectTypeOptionWidgetBuilder-to-MultiSelectTypeOptionContext" style="stroke:#181818;stroke-width:1.0;"/><polygon fill="#181818" points="1076.95,612,1067.95,608,1071.95,612,1067.95,616,1076.95,612" style="stroke:#181818;stroke-width:1.0;"/></g><!--MD5=[1aee405e1e61c0ee2467bcbb06a23181]
link MultiSelectTypeOptionContext to TypeOptionWidgetContext--><g id="link_MultiSelectTypeOptionContext_TypeOptionWidgetContext"><path codeLine="41" d="M1290.98,587.99 C1324.23,578.76 1362.56,568.12 1397.44,558.44 " fill="none" id="MultiSelectTypeOptionContext-to-TypeOptionWidgetContext" style="stroke:#181818;stroke-width:1.0;"/><polygon fill="none" points="1395.81,551.63,1416.95,553.02,1399.55,565.12,1395.81,551.63" style="stroke:#181818;stroke-width:1.0;"/></g><!--MD5=[894c287052dc314e808d7c085f6e5993]
reverse link TypeOptionWidgetBuilder to RichTextTypeOptionWidgetBuilder--><g id="link_TypeOptionWidgetBuilder_RichTextTypeOptionWidgetBuilder"><path codeLine="44" d="M571.91,526.95 C602.53,565.07 653.51,621.37 710,654 C721.53,660.66 734.17,666.27 747.09,670.99 " fill="none" id="TypeOptionWidgetBuilder-backto-RichTextTypeOptionWidgetBuilder" style="stroke:#181818;stroke-width:1.0;"/><polygon fill="none" points="566.33,531.18,559.52,511.11,577.36,522.55,566.33,531.18" style="stroke:#181818;stroke-width:1.0;"/></g><!--MD5=[50933f70679e4991994bfbff56ff3d0c]
link RichTextTypeOptionWidgetBuilder to RichTextTypeOptionContext--><g id="link_RichTextTypeOptionWidgetBuilder_RichTextTypeOptionContext"><path codeLine="45" d="M1002.56,695 C1028.36,695 1055.13,695 1080.37,695 " fill="none" id="RichTextTypeOptionWidgetBuilder-to-RichTextTypeOptionContext" style="stroke:#181818;stroke-width:1.0;"/><polygon fill="#181818" points="1085.39,695,1076.39,691,1080.39,695,1076.39,699,1085.39,695" style="stroke:#181818;stroke-width:1.0;"/></g><!--MD5=[b6fbbe9eec19d33b5c50ade580421fa9]
link RichTextTypeOptionContext to TypeOptionWidgetContext--><g id="link_RichTextTypeOptionContext_TypeOptionWidgetContext"><path codeLine="46" d="M1293.11,670.91 C1306.77,666.01 1320.48,660.37 1333,654 C1380.01,630.08 1427.98,593.62 1461.01,566.24 " fill="none" id="RichTextTypeOptionContext-to-TypeOptionWidgetContext" style="stroke:#181818;stroke-width:1.0;"/><polygon fill="none" points="1456.6,560.8,1476.39,553.24,1465.63,571.5,1456.6,560.8" style="stroke:#181818;stroke-width:1.0;"/></g><!--MD5=[a12c4e55d534c1d1b1798c4f8bb33be0]
reverse link TypeOptionWidgetBuilder to URLTypeOptionWidgetBuilder--><g id="link_TypeOptionWidgetBuilder_URLTypeOptionWidgetBuilder"><path codeLine="48" d="M559.29,529.79 C584.17,585.92 635.44,683.53 710,737 C719.27,743.65 729.57,749.22 740.3,753.89 " fill="none" id="TypeOptionWidgetBuilder-backto-URLTypeOptionWidgetBuilder" style="stroke:#181818;stroke-width:1.0;"/><polygon fill="none" points="552.74,532.29,551.32,511.15,565.61,526.79,552.74,532.29" style="stroke:#181818;stroke-width:1.0;"/></g><!--MD5=[67c0fa4a4d47ad4e21a3e3f9e704b711]
link URLTypeOptionWidgetBuilder to URLTypeOptionContext--><g id="link_URLTypeOptionWidgetBuilder_URLTypeOptionContext"><path codeLine="49" d="M985.09,778 C1021.96,778 1062.1,778 1097.73,778 " fill="none" id="URLTypeOptionWidgetBuilder-to-URLTypeOptionContext" style="stroke:#181818;stroke-width:1.0;"/><polygon fill="#181818" points="1102.96,778,1093.96,774,1097.96,778,1093.96,782,1102.96,778" style="stroke:#181818;stroke-width:1.0;"/></g><!--MD5=[2f4368bab4a579047d37f9511b40bff6]
link URLTypeOptionContext to TypeOptionWidgetContext--><g id="link_URLTypeOptionContext_TypeOptionWidgetContext"><path codeLine="50" d="M1301.06,754 C1312.29,749.26 1323.22,743.64 1333,737 C1397.82,692.99 1450.92,617.3 1479.81,570.38 " fill="none" id="URLTypeOptionContext-to-TypeOptionWidgetContext" style="stroke:#181818;stroke-width:1.0;"/><polygon fill="none" points="1473.9,566.63,1490.18,553.07,1485.91,573.82,1473.9,566.63" style="stroke:#181818;stroke-width:1.0;"/></g><!--MD5=[4123a6d169d11f3a7f5174e9e2cafdf7]
link TypeOptionWidgetContext to TypeOptionDataParser--><g id="link_TypeOptionWidgetContext_TypeOptionDataParser"><path codeLine="52" d="M1616.03,529 C1634.12,529 1652.8,529 1670.67,529 " fill="none" id="TypeOptionWidgetContext-to-TypeOptionDataParser" style="stroke:#181818;stroke-width:1.0;"/><polygon fill="#181818" points="1675.69,529,1666.69,525,1670.69,529,1666.69,533,1675.69,529" style="stroke:#181818;stroke-width:1.0;"/></g><!--MD5=[35110c99c5715fa5f2a429ccd5377ffc]
reverse link TypeOptionDataParser to DateTypeOptionDataParser--><g id="link_TypeOptionDataParser_DateTypeOptionDataParser"><path codeLine="53" d="M1795.67,486.97 C1821.43,440.02 1869.22,364.99 1931,322 C1941.17,314.92 1952.56,309.01 1964.33,304.09 " fill="none" id="TypeOptionDataParser-backto-DateTypeOptionDataParser" style="stroke:#181818;stroke-width:1.0;"/><polygon fill="none" points="1801.71,490.52,1786.16,504.91,1789.35,483.96,1801.71,490.52" style="stroke:#181818;stroke-width:1.0;"/></g><!--MD5=[cac6fa30373df9cda24bda57172da9d4]
reverse link TypeOptionDataParser to MultiSelectTypeOptionDataParser--><g id="link_TypeOptionDataParser_MultiSelectTypeOptionDataParser"><path codeLine="54" d="M1813.48,491.16 C1843.48,463.86 1887.11,427.92 1931,405 C1944.23,398.09 1958.77,392.14 1973.31,387.06 " fill="none" id="TypeOptionDataParser-backto-MultiSelectTypeOptionDataParser" style="stroke:#181818;stroke-width:1.0;"/><polygon fill="none" points="1818.11,496.42,1798.7,504.92,1808.57,486.17,1818.11,496.42" style="stroke:#181818;stroke-width:1.0;"/></g><!--MD5=[752a264cec522a118c76f7e55e25f9dc]
reverse link TypeOptionDataParser to NumberTypeOptionDataParser--><g id="link_TypeOptionDataParser_NumberTypeOptionDataParser"><path codeLine="55" d="M1879.43,499.58 C1913.96,489.9 1951.9,479.25 1984.82,470.02 " fill="none" id="TypeOptionDataParser-backto-NumberTypeOptionDataParser" style="stroke:#181818;stroke-width:1.0;"/><polygon fill="none" points="1881.26,506.33,1860.12,504.99,1877.48,492.85,1881.26,506.33" style="stroke:#181818;stroke-width:1.0;"/></g><!--MD5=[1164c937c2904e638de284a19dac8273]
reverse link TypeOptionDataParser to SingleSelectTypeOptionDataParser--><g id="link_TypeOptionDataParser_SingleSelectTypeOptionDataParser"><path codeLine="56" d="M1891.16,529 C1904.2,529 1917.58,529 1930.87,529 " fill="none" id="TypeOptionDataParser-backto-SingleSelectTypeOptionDataParser" style="stroke:#181818;stroke-width:1.0;"/><polygon fill="none" points="1891.01,536,1871.01,529,1891.01,522,1891.01,536" style="stroke:#181818;stroke-width:1.0;"/></g><!--MD5=[0ee9e1a1e254984a6ae8eaad0c23a67a]
reverse link TypeOptionDataParser to CheckboxTypeOptionDataParser--><g id="link_TypeOptionDataParser_CheckboxTypeOptionDataParser"><path codeLine="57" d="M1879.43,558.42 C1913.96,568.1 1951.9,578.75 1984.82,587.98 " fill="none" id="TypeOptionDataParser-backto-CheckboxTypeOptionDataParser" style="stroke:#181818;stroke-width:1.0;"/><polygon fill="none" points="1877.48,565.15,1860.12,553.01,1881.26,551.67,1877.48,565.15" style="stroke:#181818;stroke-width:1.0;"/></g><!--MD5=[2b8dc50e72b691470b569cc5ac1edd92]
reverse link TypeOptionDataParser to RichTextTypeOptionDataParser--><g id="link_TypeOptionDataParser_RichTextTypeOptionDataParser"><path codeLine="58" d="M1813.12,567 C1843.07,594.6 1886.81,631 1931,654 C1943.54,660.53 1957.27,666.16 1971.07,670.98 " fill="none" id="TypeOptionDataParser-backto-RichTextTypeOptionDataParser" style="stroke:#181818;stroke-width:1.0;"/><polygon fill="none" points="1808.12,571.91,1798.38,553.1,1817.73,561.73,1808.12,571.91" style="stroke:#181818;stroke-width:1.0;"/></g><!--MD5=[f0c0bfc0f589ae656a82864a78644eb7]
reverse link TypeOptionDataParser to URLTypeOptionDataParser--><g id="link_TypeOptionDataParser_URLTypeOptionDataParser"><path codeLine="59" d="M1795.4,570.99 C1821.02,618.21 1868.8,693.91 1931,737 C1940.65,743.68 1951.4,749.29 1962.52,754 " fill="none" id="TypeOptionDataParser-backto-URLTypeOptionDataParser" style="stroke:#181818;stroke-width:1.0;"/><polygon fill="none" points="1789.19,574.22,1786.09,553.25,1801.59,567.71,1789.19,574.22" style="stroke:#181818;stroke-width:1.0;"/></g><!--MD5=[7e05fa7511a06c568f91f87c61f7e65f]
@startuml Field Editor
skinparam classFontStyle Bold
skinparam ActivityBackgroundColor Silver
skinparam ActivityBorderColor DimGray
left to right direction

interface IFieldContextLoader
interface TypeOptionWidgetContext

FieldEditor - -> FieldEditorBloc
FieldEditor - -> FieldTypeOptionEditor

'Context loader
FieldEditorBloc - -> IFieldContextLoader
NewFieldContextLoader -u-|> IFieldContextLoader
FieldContextLoader -u-|> IFieldContextLoader

FieldTypeOptionEditor - -> FieldTypeOptionEditBloc
FieldTypeOptionEditBloc - -> GridFieldContext
GridFieldContext -u-> IFieldContextLoader

'type option builder
FieldTypeOptionEditor - -> TypeOptionWidgetBuilder
CheckboxTypeOptionWidgetBuilder -u-|> TypeOptionWidgetBuilder
CheckboxTypeOptionWidgetBuilder - -> CheckboxTypeOptionContext
CheckboxTypeOptionContext - -|> TypeOptionWidgetContext

DateTypeOptionWidgetBuilder -u-|> TypeOptionWidgetBuilder
DateTypeOptionWidgetBuilder - -> DateTypeOptionContext
DateTypeOptionContext - -|> TypeOptionWidgetContext

NumberTypeOptionWidgetBuilder -u-|> TypeOptionWidgetBuilder
NumberTypeOptionWidgetBuilder - -> NumberTypeOptionContext
NumberTypeOptionContext - -|> TypeOptionWidgetContext

SingleSelectTypeOptionWidgetBuilder -u-|> TypeOptionWidgetBuilder
SingleSelectTypeOptionWidgetBuilder - -> SingleSelectTypeOptionContext
SingleSelectTypeOptionContext - -|> TypeOptionWidgetContext

MultiSelectTypeOptionWidgetBuilder -u-|> TypeOptionWidgetBuilder
MultiSelectTypeOptionWidgetBuilder - -> MultiSelectTypeOptionContext
MultiSelectTypeOptionContext - -|> TypeOptionWidgetContext


RichTextTypeOptionWidgetBuilder -u-|> TypeOptionWidgetBuilder
RichTextTypeOptionWidgetBuilder - -> RichTextTypeOptionContext
RichTextTypeOptionContext - -|> TypeOptionWidgetContext

URLTypeOptionWidgetBuilder -u-|> TypeOptionWidgetBuilder
URLTypeOptionWidgetBuilder - ->URLTypeOptionContext
URLTypeOptionContext - -|> TypeOptionWidgetContext

TypeOptionWidgetContext - -> TypeOptionDataParser
DateTypeOptionDataParser -u-|> TypeOptionDataParser
MultiSelectTypeOptionDataParser -u-|> TypeOptionDataParser
NumberTypeOptionDataParser -u-|> TypeOptionDataParser
SingleSelectTypeOptionDataParser -u-|> TypeOptionDataParser
CheckboxTypeOptionDataParser -u-|> TypeOptionDataParser
RichTextTypeOptionDataParser -u-|> TypeOptionDataParser
URLTypeOptionDataParser -u-|> TypeOptionDataParser
@enduml

@startuml Field Editor
skinparam classFontStyle Bold
skinparam ActivityBackgroundColor Silver
skinparam ActivityBorderColor DimGray
left to right direction

interface IFieldContextLoader
interface TypeOptionWidgetContext

FieldEditor - -> FieldEditorBloc
FieldEditor - -> FieldTypeOptionEditor

FieldEditorBloc - -> IFieldContextLoader
NewFieldContextLoader -u-|> IFieldContextLoader
FieldContextLoader -u-|> IFieldContextLoader

FieldTypeOptionEditor - -> FieldTypeOptionEditBloc
FieldTypeOptionEditBloc - -> GridFieldContext
GridFieldContext -u-> IFieldContextLoader

FieldTypeOptionEditor - -> TypeOptionWidgetBuilder
CheckboxTypeOptionWidgetBuilder -u-|> TypeOptionWidgetBuilder
CheckboxTypeOptionWidgetBuilder - -> CheckboxTypeOptionContext
CheckboxTypeOptionContext - -|> TypeOptionWidgetContext

DateTypeOptionWidgetBuilder -u-|> TypeOptionWidgetBuilder
DateTypeOptionWidgetBuilder - -> DateTypeOptionContext
DateTypeOptionContext - -|> TypeOptionWidgetContext

NumberTypeOptionWidgetBuilder -u-|> TypeOptionWidgetBuilder
NumberTypeOptionWidgetBuilder - -> NumberTypeOptionContext
NumberTypeOptionContext - -|> TypeOptionWidgetContext

SingleSelectTypeOptionWidgetBuilder -u-|> TypeOptionWidgetBuilder
SingleSelectTypeOptionWidgetBuilder - -> SingleSelectTypeOptionContext
SingleSelectTypeOptionContext - -|> TypeOptionWidgetContext

MultiSelectTypeOptionWidgetBuilder -u-|> TypeOptionWidgetBuilder
MultiSelectTypeOptionWidgetBuilder - -> MultiSelectTypeOptionContext
MultiSelectTypeOptionContext - -|> TypeOptionWidgetContext


RichTextTypeOptionWidgetBuilder -u-|> TypeOptionWidgetBuilder
RichTextTypeOptionWidgetBuilder - -> RichTextTypeOptionContext
RichTextTypeOptionContext - -|> TypeOptionWidgetContext

URLTypeOptionWidgetBuilder -u-|> TypeOptionWidgetBuilder
URLTypeOptionWidgetBuilder - ->URLTypeOptionContext
URLTypeOptionContext - -|> TypeOptionWidgetContext

TypeOptionWidgetContext - -> TypeOptionDataParser
DateTypeOptionDataParser -u-|> TypeOptionDataParser
MultiSelectTypeOptionDataParser -u-|> TypeOptionDataParser
NumberTypeOptionDataParser -u-|> TypeOptionDataParser
SingleSelectTypeOptionDataParser -u-|> TypeOptionDataParser
CheckboxTypeOptionDataParser -u-|> TypeOptionDataParser
RichTextTypeOptionDataParser -u-|> TypeOptionDataParser
URLTypeOptionDataParser -u-|> TypeOptionDataParser
@enduml

PlantUML version 1.2022.5(Sat Apr 30 18:55:52 CST 2022)
(GPL source distribution)
Java Runtime: OpenJDK Runtime Environment
JVM: OpenJDK 64-Bit Server VM
Default Encoding: UTF-8
Language: en
Country: US
--></g></svg>