<?xml version="1.0" encoding="UTF-8" standalone="no"?><svg xmlns="http://www.w3.org/2000/svg" xmlns:xlink="http://www.w3.org/1999/xlink" contentStyleType="text/css" height="352px" preserveAspectRatio="none" style="width:953px;height:352px;background:#FFFFFF;" version="1.1" viewBox="0 0 953 352" width="953px" zoomAndPan="magnify"><defs/><g><!--MD5=[c48341880989299e1afa6503a57ddb77]
class IFieldTypeOptionLoader--><g id="elem_IFieldTypeOptionLoader"><rect codeLine="6" fill="#F1F1F1" height="48" id="IFieldTypeOptionLoader" rx="2.5" ry="2.5" style="stroke:#181818;stroke-width:0.5;" width="205" x="441" y="48"/><ellipse cx="456" cy="64" fill="#B4A7E5" rx="11" ry="11" style="stroke:#181818;stroke-width:1.0;"/><path d="M452.4277,60.2651 L452.4277,58.1069 L459.8071,58.1069 L459.8071,60.2651 L457.3418,60.2651 L457.3418,68.3418 L459.8071,68.3418 L459.8071,70.5 L452.4277,70.5 L452.4277,68.3418 L454.8931,68.3418 L454.8931,60.2651 Z " fill="#000000"/><text fill="#000000" font-family="sans-serif" font-size="14" font-style="italic" font-weight="bold" lengthAdjust="spacing" textLength="173" x="470" y="69.291">IFieldTypeOptionLoader</text><line style="stroke:#181818;stroke-width:0.5;" x1="442" x2="645" y1="80" y2="80"/><line style="stroke:#181818;stroke-width:0.5;" x1="442" x2="645" y1="88" y2="88"/></g><!--MD5=[6f511a4e207be08d0d6687f6e17b9ceb]
class TypeOptionWidgetContext--><g id="elem_TypeOptionWidgetContext"><rect codeLine="7" fill="#F1F1F1" height="48" id="TypeOptionWidgetContext" rx="2.5" ry="2.5" style="stroke:#181818;stroke-width:0.5;" width="223" x="432" y="214"/><ellipse cx="447" cy="230" fill="#B4A7E5" rx="11" ry="11" style="stroke:#181818;stroke-width:1.0;"/><path d="M443.4277,226.2651 L443.4277,224.1069 L450.8071,224.1069 L450.8071,226.2651 L448.3418,226.2651 L448.3418,234.3418 L450.8071,234.3418 L450.8071,236.5 L443.4277,236.5 L443.4277,234.3418 L445.8931,234.3418 L445.8931,226.2651 Z " fill="#000000"/><text fill="#000000" font-family="sans-serif" font-size="14" font-style="italic" font-weight="bold" lengthAdjust="spacing" textLength="191" x="461" y="235.291">TypeOptionWidgetContext</text><line style="stroke:#181818;stroke-width:0.5;" x1="433" x2="654" y1="246" y2="246"/><line style="stroke:#181818;stroke-width:0.5;" x1="433" x2="654" y1="254" y2="254"/></g><!--MD5=[71a36d3d3565561984db8a056d71e9da]
class FieldEditor--><g id="elem_FieldEditor"><rect fill="#F1F1F1" height="48" id="FieldEditor" rx="2.5" ry="2.5" style="stroke:#181818;stroke-width:0.5;" width="110" x="7" y="173"/><ellipse cx="22" cy="189" fill="#ADD1B2" rx="11" ry="11" style="stroke:#181818;stroke-width:1.0;"/><path d="M24.4731,195.1431 Q23.8921,195.4419 23.2529,195.5913 Q22.6138,195.7407 21.9082,195.7407 Q19.4014,195.7407 18.0815,194.0889 Q16.7617,192.437 16.7617,189.3159 Q16.7617,186.1865 18.0815,184.5347 Q19.4014,182.8828 21.9082,182.8828 Q22.6138,182.8828 23.2612,183.0322 Q23.9087,183.1816 24.4731,183.4805 L24.4731,186.2031 Q23.8423,185.6221 23.2488,185.3523 Q22.6553,185.0825 22.0244,185.0825 Q20.6797,185.0825 19.9949,186.1492 Q19.3101,187.2158 19.3101,189.3159 Q19.3101,191.4077 19.9949,192.4744 Q20.6797,193.541 22.0244,193.541 Q22.6553,193.541 23.2488,193.2712 Q23.8423,193.0015 24.4731,192.4204 Z " fill="#000000"/><text fill="#000000" font-family="sans-serif" font-size="14" font-weight="bold" lengthAdjust="spacing" textLength="78" x="36" y="194.291">FieldEditor</text><line style="stroke:#181818;stroke-width:0.5;" x1="8" x2="116" y1="205" y2="205"/><line style="stroke:#181818;stroke-width:0.5;" x1="8" x2="116" y1="213" y2="213"/></g><!--MD5=[83e7f5f4c1b2a9d217866621c5e641ba]
class FieldEditorBloc--><g id="elem_FieldEditorBloc"><rect fill="#F1F1F1" height="48" id="FieldEditorBloc" rx="2.5" ry="2.5" style="stroke:#181818;stroke-width:0.5;" width="140" x="204.5" y="131"/><ellipse cx="219.5" cy="147" fill="#ADD1B2" rx="11" ry="11" style="stroke:#181818;stroke-width:1.0;"/><path d="M221.9731,153.1431 Q221.3921,153.4419 220.7529,153.5913 Q220.1138,153.7407 219.4082,153.7407 Q216.9014,153.7407 215.5815,152.0889 Q214.2617,150.437 214.2617,147.3159 Q214.2617,144.1865 215.5815,142.5347 Q216.9014,140.8828 219.4082,140.8828 Q220.1138,140.8828 220.7612,141.0322 Q221.4087,141.1816 221.9731,141.4805 L221.9731,144.2031 Q221.3423,143.6221 220.7488,143.3523 Q220.1553,143.0825 219.5244,143.0825 Q218.1797,143.0825 217.4949,144.1492 Q216.8101,145.2158 216.8101,147.3159 Q216.8101,149.4077 217.4949,150.4744 Q218.1797,151.541 219.5244,151.541 Q220.1553,151.541 220.7488,151.2712 Q221.3423,151.0015 221.9731,150.4204 Z " fill="#000000"/><text fill="#000000" font-family="sans-serif" font-size="14" font-weight="bold" lengthAdjust="spacing" textLength="108" x="233.5" y="152.291">FieldEditorBloc</text><line style="stroke:#181818;stroke-width:0.5;" x1="205.5" x2="343.5" y1="163" y2="163"/><line style="stroke:#181818;stroke-width:0.5;" x1="205.5" x2="343.5" y1="171" y2="171"/></g><!--MD5=[a4d57bdaaf85b889ca392328e1b476df]
class FieldTypeOptionEditor--><g id="elem_FieldTypeOptionEditor"><rect fill="#F1F1F1" height="48" id="FieldTypeOptionEditor" rx="2.5" ry="2.5" style="stroke:#181818;stroke-width:0.5;" width="195" x="177" y="214"/><ellipse cx="192" cy="230" fill="#ADD1B2" rx="11" ry="11" style="stroke:#181818;stroke-width:1.0;"/><path d="M194.4731,236.1431 Q193.8921,236.4419 193.2529,236.5913 Q192.6138,236.7407 191.9082,236.7407 Q189.4014,236.7407 188.0815,235.0889 Q186.7617,233.437 186.7617,230.3159 Q186.7617,227.1865 188.0815,225.5347 Q189.4014,223.8828 191.9082,223.8828 Q192.6138,223.8828 193.2612,224.0322 Q193.9087,224.1816 194.4731,224.4805 L194.4731,227.2031 Q193.8423,226.6221 193.2488,226.3523 Q192.6553,226.0825 192.0244,226.0825 Q190.6797,226.0825 189.9949,227.1492 Q189.3101,228.2158 189.3101,230.3159 Q189.3101,232.4077 189.9949,233.4744 Q190.6797,234.541 192.0244,234.541 Q192.6553,234.541 193.2488,234.2712 Q193.8423,234.0015 194.4731,233.4204 Z " fill="#000000"/><text fill="#000000" font-family="sans-serif" font-size="14" font-weight="bold" lengthAdjust="spacing" textLength="163" x="206" y="235.291">FieldTypeOptionEditor</text><line style="stroke:#181818;stroke-width:0.5;" x1="178" x2="371" y1="246" y2="246"/><line style="stroke:#181818;stroke-width:0.5;" x1="178" x2="371" y1="254" y2="254"/></g><!--MD5=[9ec89c83a4a09f3e13c595ccc257a96f]
class TypeOptionDataController--><g id="elem_TypeOptionDataController"><rect fill="#F1F1F1" height="48" id="TypeOptionDataController" rx="2.5" ry="2.5" style="stroke:#181818;stroke-width:0.5;" width="223" x="432" y="131"/><ellipse cx="447" cy="147" fill="#ADD1B2" rx="11" ry="11" style="stroke:#181818;stroke-width:1.0;"/><path d="M449.4731,153.1431 Q448.8921,153.4419 448.2529,153.5913 Q447.6138,153.7407 446.9082,153.7407 Q444.4014,153.7407 443.0815,152.0889 Q441.7617,150.437 441.7617,147.3159 Q441.7617,144.1865 443.0815,142.5347 Q444.4014,140.8828 446.9082,140.8828 Q447.6138,140.8828 448.2612,141.0322 Q448.9087,141.1816 449.4731,141.4805 L449.4731,144.2031 Q448.8423,143.6221 448.2488,143.3523 Q447.6553,143.0825 447.0244,143.0825 Q445.6797,143.0825 444.9949,144.1492 Q444.3101,145.2158 444.3101,147.3159 Q444.3101,149.4077 444.9949,150.4744 Q445.6797,151.541 447.0244,151.541 Q447.6553,151.541 448.2488,151.2712 Q448.8423,151.0015 449.4731,150.4204 Z " fill="#000000"/><text fill="#000000" font-family="sans-serif" font-size="14" font-weight="bold" lengthAdjust="spacing" textLength="191" x="461" y="152.291">TypeOptionDataController</text><line style="stroke:#181818;stroke-width:0.5;" x1="433" x2="654" y1="163" y2="163"/><line style="stroke:#181818;stroke-width:0.5;" x1="433" x2="654" y1="171" y2="171"/></g><!--MD5=[a9f273554ed57e1006b21db5dea7b54b]
class NewFieldTypeOptionLoader--><g id="elem_NewFieldTypeOptionLoader"><rect fill="#F1F1F1" height="48" id="NewFieldTypeOptionLoader" rx="2.5" ry="2.5" style="stroke:#181818;stroke-width:0.5;" width="231" x="715" y="7"/><ellipse cx="730" cy="23" fill="#ADD1B2" rx="11" ry="11" style="stroke:#181818;stroke-width:1.0;"/><path d="M732.4731,29.1431 Q731.8921,29.4419 731.2529,29.5913 Q730.6138,29.7407 729.9082,29.7407 Q727.4014,29.7407 726.0815,28.0889 Q724.7617,26.437 724.7617,23.3159 Q724.7617,20.1865 726.0815,18.5347 Q727.4014,16.8828 729.9082,16.8828 Q730.6138,16.8828 731.2612,17.0322 Q731.9087,17.1816 732.4731,17.4805 L732.4731,20.2031 Q731.8423,19.6221 731.2488,19.3523 Q730.6553,19.0825 730.0244,19.0825 Q728.6797,19.0825 727.9949,20.1492 Q727.3101,21.2158 727.3101,23.3159 Q727.3101,25.4077 727.9949,26.4744 Q728.6797,27.541 730.0244,27.541 Q730.6553,27.541 731.2488,27.2712 Q731.8423,27.0015 732.4731,26.4204 Z " fill="#000000"/><text fill="#000000" font-family="sans-serif" font-size="14" font-weight="bold" lengthAdjust="spacing" textLength="199" x="744" y="28.291">NewFieldTypeOptionLoader</text><line style="stroke:#181818;stroke-width:0.5;" x1="716" x2="945" y1="39" y2="39"/><line style="stroke:#181818;stroke-width:0.5;" x1="716" x2="945" y1="47" y2="47"/></g><!--MD5=[e10fe1963c377f63bec8ae9820957572]
class FieldTypeOptionLoader--><g id="elem_FieldTypeOptionLoader"><rect fill="#F1F1F1" height="48" id="FieldTypeOptionLoader" rx="2.5" ry="2.5" style="stroke:#181818;stroke-width:0.5;" width="200" x="730.5" y="90"/><ellipse cx="745.5" cy="106" fill="#ADD1B2" rx="11" ry="11" style="stroke:#181818;stroke-width:1.0;"/><path d="M747.9731,112.1431 Q747.3921,112.4419 746.7529,112.5913 Q746.1138,112.7407 745.4082,112.7407 Q742.9014,112.7407 741.5815,111.0889 Q740.2617,109.437 740.2617,106.3159 Q740.2617,103.1865 741.5815,101.5347 Q742.9014,99.8828 745.4082,99.8828 Q746.1138,99.8828 746.7612,100.0322 Q747.4087,100.1816 747.9731,100.4805 L747.9731,103.2031 Q747.3423,102.6221 746.7488,102.3523 Q746.1553,102.0825 745.5244,102.0825 Q744.1797,102.0825 743.4949,103.1492 Q742.8101,104.2158 742.8101,106.3159 Q742.8101,108.4077 743.4949,109.4744 Q744.1797,110.541 745.5244,110.541 Q746.1553,110.541 746.7488,110.2712 Q747.3423,110.0015 747.9731,109.4204 Z " fill="#000000"/><text fill="#000000" font-family="sans-serif" font-size="14" font-weight="bold" lengthAdjust="spacing" textLength="168" x="759.5" y="111.291">FieldTypeOptionLoader</text><line style="stroke:#181818;stroke-width:0.5;" x1="731.5" x2="929.5" y1="122" y2="122"/><line style="stroke:#181818;stroke-width:0.5;" x1="731.5" x2="929.5" y1="130" y2="130"/></g><!--MD5=[eae236ec0c79fcef893a9d6844b8e3fc]
class FieldTypeOptionEditBloc--><g id="elem_FieldTypeOptionEditBloc"><rect fill="#F1F1F1" height="48" id="FieldTypeOptionEditBloc" rx="2.5" ry="2.5" style="stroke:#181818;stroke-width:0.5;" width="210" x="438.5" y="297"/><ellipse cx="453.5" cy="313" fill="#ADD1B2" rx="11" ry="11" style="stroke:#181818;stroke-width:1.0;"/><path d="M455.9731,319.1431 Q455.3921,319.4419 454.7529,319.5913 Q454.1138,319.7407 453.4082,319.7407 Q450.9014,319.7407 449.5815,318.0889 Q448.2617,316.437 448.2617,313.3159 Q448.2617,310.1865 449.5815,308.5347 Q450.9014,306.8828 453.4082,306.8828 Q454.1138,306.8828 454.7612,307.0322 Q455.4087,307.1816 455.9731,307.4805 L455.9731,310.2031 Q455.3423,309.6221 454.7488,309.3523 Q454.1553,309.0825 453.5244,309.0825 Q452.1797,309.0825 451.4949,310.1492 Q450.8101,311.2158 450.8101,313.3159 Q450.8101,315.4077 451.4949,316.4744 Q452.1797,317.541 453.5244,317.541 Q454.1553,317.541 454.7488,317.2712 Q455.3423,317.0015 455.9731,316.4204 Z " fill="#000000"/><text fill="#000000" font-family="sans-serif" font-size="14" font-weight="bold" lengthAdjust="spacing" textLength="178" x="467.5" y="318.291">FieldTypeOptionEditBloc</text><line style="stroke:#181818;stroke-width:0.5;" x1="439.5" x2="647.5" y1="329" y2="329"/><line style="stroke:#181818;stroke-width:0.5;" x1="439.5" x2="647.5" y1="337" y2="337"/></g><!--MD5=[2dfbcb9c9a8f6b44ae8354016acfed74]
link FieldEditor to FieldEditorBloc--><g id="link_FieldEditor_FieldEditorBloc"><path codeLine="9" d="M117.21,186.18 C142.21,181.2 172.28,175.2 199.34,169.8 " fill="none" id="FieldEditor-to-FieldEditorBloc" style="stroke:#181818;stroke-width:1.0;"/><polygon fill="#181818" points="204.35,168.8,194.744,166.6266,199.4455,169.7723,196.2997,174.4738,204.35,168.8" style="stroke:#181818;stroke-width:1.0;"/></g><!--MD5=[0e053b89c226085f98b20f9d2a24e688]
link FieldEditor to FieldTypeOptionEditor--><g id="link_FieldEditor_FieldTypeOptionEditor"><path codeLine="10" d="M117.21,207.56 C133.91,210.81 152.88,214.51 171.69,218.17 " fill="none" id="FieldEditor-to-FieldTypeOptionEditor" style="stroke:#181818;stroke-width:1.0;"/><polygon fill="#181818" points="177,219.2,168.9307,213.5532,172.0922,218.2441,167.4013,221.4056,177,219.2" style="stroke:#181818;stroke-width:1.0;"/></g><!--MD5=[631248c62c91b8638de2b38ebecd6344]
link FieldEditorBloc to IFieldTypeOptionLoader--><g id="link_FieldEditorBloc_IFieldTypeOptionLoader"><path codeLine="13" d="M344.61,133.52 C379.95,122.53 423.21,109.08 460.26,97.57 " fill="none" id="FieldEditorBloc-to-IFieldTypeOptionLoader" style="stroke:#181818;stroke-width:1.0;"/><polygon fill="#181818" points="465.21,96.03,455.4277,94.8865,460.4361,97.5165,457.8061,102.5248,465.21,96.03" style="stroke:#181818;stroke-width:1.0;"/></g><!--MD5=[bd800d9dd821a943e40d7f587bb24f71]
link FieldEditorBloc to TypeOptionDataController--><g id="link_FieldEditorBloc_TypeOptionDataController"><path codeLine="14" d="M344.61,155 C369.63,155 398.61,155 426.56,155 " fill="none" id="FieldEditorBloc-to-TypeOptionDataController" style="stroke:#181818;stroke-width:1.0;"/><polygon fill="#181818" points="431.76,155,422.76,151,426.76,155,422.76,159,431.76,155" style="stroke:#181818;stroke-width:1.0;"/></g><!--MD5=[b8a0f34ff5cfc0d3c4894f5187bb8a17]
reverse link IFieldTypeOptionLoader to NewFieldTypeOptionLoader--><g id="link_IFieldTypeOptionLoader_NewFieldTypeOptionLoader"><path codeLine="15" d="M666.03,54.52 C682.19,52.19 698.72,49.81 714.76,47.51 " fill="none" id="IFieldTypeOptionLoader-backto-NewFieldTypeOptionLoader" style="stroke:#181818;stroke-width:1.0;"/><polygon fill="none" points="666.98,61.45,646.18,57.37,664.98,47.6,666.98,61.45" style="stroke:#181818;stroke-width:1.0;"/></g><!--MD5=[ed8c8b1f02705392d3bcbf7f5d167e2e]
reverse link IFieldTypeOptionLoader to FieldTypeOptionLoader--><g id="link_IFieldTypeOptionLoader_FieldTypeOptionLoader"><path codeLine="16" d="M666.04,89.91 C687.46,93.07 709.53,96.32 730.25,99.37 " fill="none" id="IFieldTypeOptionLoader-backto-FieldTypeOptionLoader" style="stroke:#181818;stroke-width:1.0;"/><polygon fill="none" points="664.95,96.83,646.18,86.99,666.99,82.98,664.95,96.83" style="stroke:#181818;stroke-width:1.0;"/></g><!--MD5=[39126c2f1efca28fb6a1eae09c8b52ec]
link FieldTypeOptionEditor to FieldTypeOptionEditBloc--><g id="link_FieldTypeOptionEditor_FieldTypeOptionEditBloc"><path codeLine="18" d="M352.73,262.01 C386.34,272.46 425.79,284.72 459.98,295.35 " fill="none" id="FieldTypeOptionEditor-to-FieldTypeOptionEditBloc" style="stroke:#181818;stroke-width:1.0;"/><polygon fill="#181818" points="464.98,296.9,457.5761,290.4052,460.2061,295.4135,455.1977,298.0435,464.98,296.9" style="stroke:#181818;stroke-width:1.0;"/></g><!--MD5=[262c2b7b3608710b95927be63a8df7cf]
link FieldTypeOptionEditor to TypeOptionWidgetContext--><g id="link_FieldTypeOptionEditor_TypeOptionWidgetContext"><path codeLine="19" d="M372.27,238 C389.87,238 408.39,238 426.47,238 " fill="none" id="FieldTypeOptionEditor-to-TypeOptionWidgetContext" style="stroke:#181818;stroke-width:1.0;"/><polygon fill="#181818" points="431.56,238,422.56,234,426.56,238,422.56,242,431.56,238" style="stroke:#181818;stroke-width:1.0;"/></g><!--MD5=[fb1f3eb2a1eaaa8b794e77db174770f4]
link FieldTypeOptionEditor to TypeOptionDataController--><g id="link_FieldTypeOptionEditor_TypeOptionDataController"><path codeLine="20" d="M352.73,213.99 C386.34,203.54 425.79,191.28 459.98,180.65 " fill="none" id="FieldTypeOptionEditor-to-TypeOptionDataController" style="stroke:#181818;stroke-width:1.0;"/><polygon fill="#181818" points="464.98,179.1,455.1977,177.9565,460.2061,180.5865,457.5761,185.5948,464.98,179.1" style="stroke:#181818;stroke-width:1.0;"/></g><!--MD5=[0fbfa592ffa035d4656dd8e2dbbd1ba5]
reverse link IFieldTypeOptionLoader to TypeOptionDataController--><g id="link_IFieldTypeOptionLoader_TypeOptionDataController"><path codeLine="21" d="M543.5,101.4 C543.5,111.16 543.5,120.92 543.5,130.68 " fill="none" id="IFieldTypeOptionLoader-backto-TypeOptionDataController" style="stroke:#181818;stroke-width:1.0;"/><polygon fill="#181818" points="543.5,96.3,539.5,105.3,543.5,101.3,547.5,105.3,543.5,96.3" style="stroke:#181818;stroke-width:1.0;"/></g><!--MD5=[92d899eb6947c7500f851747c2eeec0f]
reverse link TypeOptionDataController to TypeOptionWidgetContext--><g id="link_TypeOptionDataController_TypeOptionWidgetContext"><path codeLine="22" d="M543.5,184.4 C543.5,194.16 543.5,203.92 543.5,213.68 " fill="none" id="TypeOptionDataController-backto-TypeOptionWidgetContext" style="stroke:#181818;stroke-width:1.0;"/><polygon fill="#181818" points="543.5,179.3,539.5,188.3,543.5,184.3,547.5,188.3,543.5,179.3" style="stroke:#181818;stroke-width:1.0;"/></g><!--MD5=[1947d727cfea815e0ca044810f3a5a42]
@startuml Field Editor
skinparam classFontStyle Bold
skinparam ActivityBackgroundColor Silver
skinparam ActivityBorderColor DimGray
left to right direction

interface IFieldTypeOptionLoader
interface TypeOptionWidgetContext

FieldEditor - -> FieldEditorBloc
FieldEditor - -> FieldTypeOptionEditor

'Context loader
FieldEditorBloc - -> IFieldTypeOptionLoader
FieldEditorBloc - -> TypeOptionDataController
NewFieldTypeOptionLoader -u-|> IFieldTypeOptionLoader
FieldTypeOptionLoader -u-|> IFieldTypeOptionLoader

FieldTypeOptionEditor - -> FieldTypeOptionEditBloc
FieldTypeOptionEditor - -> TypeOptionWidgetContext
FieldTypeOptionEditor - -> TypeOptionDataController
TypeOptionDataController -l-> IFieldTypeOptionLoader
TypeOptionWidgetContext -l-> TypeOptionDataController
@enduml

@startuml Field Editor
skinparam classFontStyle Bold
skinparam ActivityBackgroundColor Silver
skinparam ActivityBorderColor DimGray
left to right direction

interface IFieldTypeOptionLoader
interface TypeOptionWidgetContext

FieldEditor - -> FieldEditorBloc
FieldEditor - -> FieldTypeOptionEditor

FieldEditorBloc - -> IFieldTypeOptionLoader
FieldEditorBloc - -> TypeOptionDataController
NewFieldTypeOptionLoader -u-|> IFieldTypeOptionLoader
FieldTypeOptionLoader -u-|> IFieldTypeOptionLoader

FieldTypeOptionEditor - -> FieldTypeOptionEditBloc
FieldTypeOptionEditor - -> TypeOptionWidgetContext
FieldTypeOptionEditor - -> TypeOptionDataController
TypeOptionDataController -l-> IFieldTypeOptionLoader
TypeOptionWidgetContext -l-> TypeOptionDataController
@enduml

PlantUML version 1.2022.5(Sat Apr 30 18:55:52 CST 2022)
(GPL source distribution)
Java Runtime: OpenJDK Runtime Environment
JVM: OpenJDK 64-Bit Server VM
Default Encoding: UTF-8
Language: en
Country: US
--></g></svg>