<?xml version="1.0" encoding="UTF-8" standalone="no"?><svg xmlns="http://www.w3.org/2000/svg" xmlns:xlink="http://www.w3.org/1999/xlink" contentStyleType="text/css" height="560px" preserveAspectRatio="none" style="width:1152px;height:560px;background:#FFFFFF;" version="1.1" viewBox="0 0 1152 560" width="1152px" zoomAndPan="magnify"><defs/><g><!--MD5=[6f511a4e207be08d0d6687f6e17b9ceb]
class TypeOptionWidgetContext--><g id="elem_TypeOptionWidgetContext"><rect codeLine="6" fill="#F1F1F1" height="48" id="TypeOptionWidgetContext" rx="2.5" ry="2.5" style="stroke:#181818;stroke-width:0.5;" width="223" x="326" y="256"/><ellipse cx="341" cy="272" fill="#B4A7E5" rx="11" ry="11" style="stroke:#181818;stroke-width:1.0;"/><path d="M337.4277,268.2651 L337.4277,266.1069 L344.8071,266.1069 L344.8071,268.2651 L342.3418,268.2651 L342.3418,276.3418 L344.8071,276.3418 L344.8071,278.5 L337.4277,278.5 L337.4277,276.3418 L339.8931,276.3418 L339.8931,268.2651 Z " fill="#000000"/><text fill="#000000" font-family="sans-serif" font-size="14" font-style="italic" font-weight="bold" lengthAdjust="spacing" textLength="191" x="355" y="277.291">TypeOptionWidgetContext</text><line style="stroke:#181818;stroke-width:0.5;" x1="327" x2="548" y1="288" y2="288"/><line style="stroke:#181818;stroke-width:0.5;" x1="327" x2="548" y1="296" y2="296"/></g><!--MD5=[1f144cc092e6ed242406a8d1767211ef]
class TypeOptionDataParser--><g id="elem_TypeOptionDataParser"><rect codeLine="7" fill="#F1F1F1" height="48" id="TypeOptionDataParser" rx="2.5" ry="2.5" style="stroke:#181818;stroke-width:0.5;" width="195" x="609" y="256"/><ellipse cx="624" cy="272" fill="#B4A7E5" rx="11" ry="11" style="stroke:#181818;stroke-width:1.0;"/><path d="M620.4277,268.2651 L620.4277,266.1069 L627.8071,266.1069 L627.8071,268.2651 L625.3418,268.2651 L625.3418,276.3418 L627.8071,276.3418 L627.8071,278.5 L620.4277,278.5 L620.4277,276.3418 L622.8931,276.3418 L622.8931,268.2651 Z " fill="#000000"/><text fill="#000000" font-family="sans-serif" font-size="14" font-style="italic" font-weight="bold" lengthAdjust="spacing" textLength="163" x="638" y="277.291">TypeOptionDataParser</text><line style="stroke:#181818;stroke-width:0.5;" x1="610" x2="803" y1="288" y2="288"/><line style="stroke:#181818;stroke-width:0.5;" x1="610" x2="803" y1="296" y2="296"/></g><!--MD5=[055caa7fca0bb83c262ab829ac924ff0]
class CheckboxTypeOptionContext--><g id="elem_CheckboxTypeOptionContext"><rect fill="#F1F1F1" height="48" id="CheckboxTypeOptionContext" rx="2.5" ry="2.5" style="stroke:#181818;stroke-width:0.5;" width="242" x="15.5" y="7"/><ellipse cx="30.5" cy="23" fill="#ADD1B2" rx="11" ry="11" style="stroke:#181818;stroke-width:1.0;"/><path d="M32.9731,29.1431 Q32.3921,29.4419 31.7529,29.5913 Q31.1138,29.7407 30.4082,29.7407 Q27.9014,29.7407 26.5815,28.0889 Q25.2617,26.437 25.2617,23.3159 Q25.2617,20.1865 26.5815,18.5347 Q27.9014,16.8828 30.4082,16.8828 Q31.1138,16.8828 31.7612,17.0322 Q32.4087,17.1816 32.9731,17.4805 L32.9731,20.2031 Q32.3423,19.6221 31.7488,19.3523 Q31.1553,19.0825 30.5244,19.0825 Q29.1797,19.0825 28.4949,20.1492 Q27.8101,21.2158 27.8101,23.3159 Q27.8101,25.4077 28.4949,26.4744 Q29.1797,27.541 30.5244,27.541 Q31.1553,27.541 31.7488,27.2712 Q32.3423,27.0015 32.9731,26.4204 Z " fill="#000000"/><text fill="#000000" font-family="sans-serif" font-size="14" font-weight="bold" lengthAdjust="spacing" textLength="210" x="44.5" y="28.291">CheckboxTypeOptionContext</text><line style="stroke:#181818;stroke-width:0.5;" x1="16.5" x2="256.5" y1="39" y2="39"/><line style="stroke:#181818;stroke-width:0.5;" x1="16.5" x2="256.5" y1="47" y2="47"/></g><!--MD5=[d2bceaad01e29044f89bb56c8a3d2200]
class DateTypeOptionContext--><g id="elem_DateTypeOptionContext"><rect fill="#F1F1F1" height="48" id="DateTypeOptionContext" rx="2.5" ry="2.5" style="stroke:#181818;stroke-width:0.5;" width="206" x="33.5" y="90"/><ellipse cx="48.5" cy="106" fill="#ADD1B2" rx="11" ry="11" style="stroke:#181818;stroke-width:1.0;"/><path d="M50.9731,112.1431 Q50.3921,112.4419 49.7529,112.5913 Q49.1138,112.7407 48.4082,112.7407 Q45.9014,112.7407 44.5815,111.0889 Q43.2617,109.437 43.2617,106.3159 Q43.2617,103.1865 44.5815,101.5347 Q45.9014,99.8828 48.4082,99.8828 Q49.1138,99.8828 49.7612,100.0322 Q50.4087,100.1816 50.9731,100.4805 L50.9731,103.2031 Q50.3423,102.6221 49.7488,102.3523 Q49.1553,102.0825 48.5244,102.0825 Q47.1797,102.0825 46.4949,103.1492 Q45.8101,104.2158 45.8101,106.3159 Q45.8101,108.4077 46.4949,109.4744 Q47.1797,110.541 48.5244,110.541 Q49.1553,110.541 49.7488,110.2712 Q50.3423,110.0015 50.9731,109.4204 Z " fill="#000000"/><text fill="#000000" font-family="sans-serif" font-size="14" font-weight="bold" lengthAdjust="spacing" textLength="174" x="62.5" y="111.291">DateTypeOptionContext</text><line style="stroke:#181818;stroke-width:0.5;" x1="34.5" x2="238.5" y1="122" y2="122"/><line style="stroke:#181818;stroke-width:0.5;" x1="34.5" x2="238.5" y1="130" y2="130"/></g><!--MD5=[097e907c894a7474c5d2575e9d293cdf]
class NumberTypeOptionContext--><g id="elem_NumberTypeOptionContext"><rect fill="#F1F1F1" height="48" id="NumberTypeOptionContext" rx="2.5" ry="2.5" style="stroke:#181818;stroke-width:0.5;" width="230" x="21.5" y="173"/><ellipse cx="36.5" cy="189" fill="#ADD1B2" rx="11" ry="11" style="stroke:#181818;stroke-width:1.0;"/><path d="M38.9731,195.1431 Q38.3921,195.4419 37.7529,195.5913 Q37.1138,195.7407 36.4082,195.7407 Q33.9014,195.7407 32.5815,194.0889 Q31.2617,192.437 31.2617,189.3159 Q31.2617,186.1865 32.5815,184.5347 Q33.9014,182.8828 36.4082,182.8828 Q37.1138,182.8828 37.7612,183.0322 Q38.4087,183.1816 38.9731,183.4805 L38.9731,186.2031 Q38.3423,185.6221 37.7488,185.3523 Q37.1553,185.0825 36.5244,185.0825 Q35.1797,185.0825 34.4949,186.1492 Q33.8101,187.2158 33.8101,189.3159 Q33.8101,191.4077 34.4949,192.4744 Q35.1797,193.541 36.5244,193.541 Q37.1553,193.541 37.7488,193.2712 Q38.3423,193.0015 38.9731,192.4204 Z " fill="#000000"/><text fill="#000000" font-family="sans-serif" font-size="14" font-weight="bold" lengthAdjust="spacing" textLength="198" x="50.5" y="194.291">NumberTypeOptionContext</text><line style="stroke:#181818;stroke-width:0.5;" x1="22.5" x2="250.5" y1="205" y2="205"/><line style="stroke:#181818;stroke-width:0.5;" x1="22.5" x2="250.5" y1="213" y2="213"/></g><!--MD5=[ff5ff67972ea7310528794b284024867]
class SingleSelectTypeOptionContext--><g id="elem_SingleSelectTypeOptionContext"><rect fill="#F1F1F1" height="48" id="SingleSelectTypeOptionContext" rx="2.5" ry="2.5" style="stroke:#181818;stroke-width:0.5;" width="259" x="7" y="256"/><ellipse cx="22" cy="272" fill="#ADD1B2" rx="11" ry="11" style="stroke:#181818;stroke-width:1.0;"/><path d="M24.4731,278.1431 Q23.8921,278.4419 23.2529,278.5913 Q22.6138,278.7407 21.9082,278.7407 Q19.4014,278.7407 18.0815,277.0889 Q16.7617,275.437 16.7617,272.3159 Q16.7617,269.1865 18.0815,267.5347 Q19.4014,265.8828 21.9082,265.8828 Q22.6138,265.8828 23.2612,266.0322 Q23.9087,266.1816 24.4731,266.4805 L24.4731,269.2031 Q23.8423,268.6221 23.2488,268.3523 Q22.6553,268.0825 22.0244,268.0825 Q20.6797,268.0825 19.9949,269.1492 Q19.3101,270.2158 19.3101,272.3159 Q19.3101,274.4077 19.9949,275.4744 Q20.6797,276.541 22.0244,276.541 Q22.6553,276.541 23.2488,276.2712 Q23.8423,276.0015 24.4731,275.4204 Z " fill="#000000"/><text fill="#000000" font-family="sans-serif" font-size="14" font-weight="bold" lengthAdjust="spacing" textLength="227" x="36" y="277.291">SingleSelectTypeOptionContext</text><line style="stroke:#181818;stroke-width:0.5;" x1="8" x2="265" y1="288" y2="288"/><line style="stroke:#181818;stroke-width:0.5;" x1="8" x2="265" y1="296" y2="296"/></g><!--MD5=[82cea9635f956dc7e397dbacb4b8a4a9]
class MultiSelectTypeOptionContext--><g id="elem_MultiSelectTypeOptionContext"><rect fill="#F1F1F1" height="48" id="MultiSelectTypeOptionContext" rx="2.5" ry="2.5" style="stroke:#181818;stroke-width:0.5;" width="253" x="10" y="339"/><ellipse cx="25" cy="355" fill="#ADD1B2" rx="11" ry="11" style="stroke:#181818;stroke-width:1.0;"/><path d="M27.4731,361.1431 Q26.8921,361.4419 26.2529,361.5913 Q25.6138,361.7407 24.9082,361.7407 Q22.4014,361.7407 21.0815,360.0889 Q19.7617,358.437 19.7617,355.3159 Q19.7617,352.1865 21.0815,350.5347 Q22.4014,348.8828 24.9082,348.8828 Q25.6138,348.8828 26.2612,349.0322 Q26.9087,349.1816 27.4731,349.4805 L27.4731,352.2031 Q26.8423,351.6221 26.2488,351.3523 Q25.6553,351.0825 25.0244,351.0825 Q23.6797,351.0825 22.9949,352.1492 Q22.3101,353.2158 22.3101,355.3159 Q22.3101,357.4077 22.9949,358.4744 Q23.6797,359.541 25.0244,359.541 Q25.6553,359.541 26.2488,359.2712 Q26.8423,359.0015 27.4731,358.4204 Z " fill="#000000"/><text fill="#000000" font-family="sans-serif" font-size="14" font-weight="bold" lengthAdjust="spacing" textLength="221" x="39" y="360.291">MultiSelectTypeOptionContext</text><line style="stroke:#181818;stroke-width:0.5;" x1="11" x2="262" y1="371" y2="371"/><line style="stroke:#181818;stroke-width:0.5;" x1="11" x2="262" y1="379" y2="379"/></g><!--MD5=[6ad145b231c7d0d4cf1a3ceaa758ac1e]
class RichTextTypeOptionContext--><g id="elem_RichTextTypeOptionContext"><rect fill="#F1F1F1" height="48" id="RichTextTypeOptionContext" rx="2.5" ry="2.5" style="stroke:#181818;stroke-width:0.5;" width="236" x="18.5" y="422"/><ellipse cx="33.5" cy="438" fill="#ADD1B2" rx="11" ry="11" style="stroke:#181818;stroke-width:1.0;"/><path d="M35.9731,444.1431 Q35.3921,444.4419 34.7529,444.5913 Q34.1138,444.7407 33.4082,444.7407 Q30.9014,444.7407 29.5815,443.0889 Q28.2617,441.437 28.2617,438.3159 Q28.2617,435.1865 29.5815,433.5347 Q30.9014,431.8828 33.4082,431.8828 Q34.1138,431.8828 34.7612,432.0322 Q35.4087,432.1816 35.9731,432.4805 L35.9731,435.2031 Q35.3423,434.6221 34.7488,434.3523 Q34.1553,434.0825 33.5244,434.0825 Q32.1797,434.0825 31.4949,435.1492 Q30.8101,436.2158 30.8101,438.3159 Q30.8101,440.4077 31.4949,441.4744 Q32.1797,442.541 33.5244,442.541 Q34.1553,442.541 34.7488,442.2712 Q35.3423,442.0015 35.9731,441.4204 Z " fill="#000000"/><text fill="#000000" font-family="sans-serif" font-size="14" font-weight="bold" lengthAdjust="spacing" textLength="204" x="47.5" y="443.291">RichTextTypeOptionContext</text><line style="stroke:#181818;stroke-width:0.5;" x1="19.5" x2="253.5" y1="454" y2="454"/><line style="stroke:#181818;stroke-width:0.5;" x1="19.5" x2="253.5" y1="462" y2="462"/></g><!--MD5=[3ffc3ecdfac5cd77f902b36a9e26271e]
class URLTypeOptionContext--><g id="elem_URLTypeOptionContext"><rect fill="#F1F1F1" height="48" id="URLTypeOptionContext" rx="2.5" ry="2.5" style="stroke:#181818;stroke-width:0.5;" width="201" x="36" y="505"/><ellipse cx="51" cy="521" fill="#ADD1B2" rx="11" ry="11" style="stroke:#181818;stroke-width:1.0;"/><path d="M53.4731,527.1431 Q52.8921,527.4419 52.2529,527.5913 Q51.6138,527.7407 50.9082,527.7407 Q48.4014,527.7407 47.0815,526.0889 Q45.7617,524.437 45.7617,521.3159 Q45.7617,518.1865 47.0815,516.5347 Q48.4014,514.8828 50.9082,514.8828 Q51.6138,514.8828 52.2612,515.0322 Q52.9087,515.1816 53.4731,515.4805 L53.4731,518.2031 Q52.8423,517.6221 52.2488,517.3523 Q51.6553,517.0825 51.0244,517.0825 Q49.6797,517.0825 48.9949,518.1492 Q48.3101,519.2158 48.3101,521.3159 Q48.3101,523.4077 48.9949,524.4744 Q49.6797,525.541 51.0244,525.541 Q51.6553,525.541 52.2488,525.2712 Q52.8423,525.0015 53.4731,524.4204 Z " fill="#000000"/><text fill="#000000" font-family="sans-serif" font-size="14" font-weight="bold" lengthAdjust="spacing" textLength="169" x="65" y="526.291">URLTypeOptionContext</text><line style="stroke:#181818;stroke-width:0.5;" x1="37" x2="236" y1="537" y2="537"/><line style="stroke:#181818;stroke-width:0.5;" x1="37" x2="236" y1="545" y2="545"/></g><!--MD5=[cbc27145194aa3fcbac0eac687086df1]
class DateTypeOptionDataParser--><g id="elem_DateTypeOptionDataParser"><rect fill="#F1F1F1" height="48" id="DateTypeOptionDataParser" rx="2.5" ry="2.5" style="stroke:#181818;stroke-width:0.5;" width="228" x="890.5" y="7"/><ellipse cx="905.5" cy="23" fill="#ADD1B2" rx="11" ry="11" style="stroke:#181818;stroke-width:1.0;"/><path d="M907.9731,29.1431 Q907.3921,29.4419 906.7529,29.5913 Q906.1138,29.7407 905.4082,29.7407 Q902.9014,29.7407 901.5815,28.0889 Q900.2617,26.437 900.2617,23.3159 Q900.2617,20.1865 901.5815,18.5347 Q902.9014,16.8828 905.4082,16.8828 Q906.1138,16.8828 906.7612,17.0322 Q907.4087,17.1816 907.9731,17.4805 L907.9731,20.2031 Q907.3423,19.6221 906.7488,19.3523 Q906.1553,19.0825 905.5244,19.0825 Q904.1797,19.0825 903.4949,20.1492 Q902.8101,21.2158 902.8101,23.3159 Q902.8101,25.4077 903.4949,26.4744 Q904.1797,27.541 905.5244,27.541 Q906.1553,27.541 906.7488,27.2712 Q907.3423,27.0015 907.9731,26.4204 Z " fill="#000000"/><text fill="#000000" font-family="sans-serif" font-size="14" font-weight="bold" lengthAdjust="spacing" textLength="196" x="919.5" y="28.291">DateTypeOptionDataParser</text><line style="stroke:#181818;stroke-width:0.5;" x1="891.5" x2="1117.5" y1="39" y2="39"/><line style="stroke:#181818;stroke-width:0.5;" x1="891.5" x2="1117.5" y1="47" y2="47"/></g><!--MD5=[90f7d075d095bf4ea826e0e7c6101616]
class MultiSelectTypeOptionDataParser--><g id="elem_MultiSelectTypeOptionDataParser"><rect fill="#F1F1F1" height="48" id="MultiSelectTypeOptionDataParser" rx="2.5" ry="2.5" style="stroke:#181818;stroke-width:0.5;" width="275" x="867" y="90"/><ellipse cx="882" cy="106" fill="#ADD1B2" rx="11" ry="11" style="stroke:#181818;stroke-width:1.0;"/><path d="M884.4731,112.1431 Q883.8921,112.4419 883.2529,112.5913 Q882.6138,112.7407 881.9082,112.7407 Q879.4014,112.7407 878.0815,111.0889 Q876.7617,109.437 876.7617,106.3159 Q876.7617,103.1865 878.0815,101.5347 Q879.4014,99.8828 881.9082,99.8828 Q882.6138,99.8828 883.2612,100.0322 Q883.9087,100.1816 884.4731,100.4805 L884.4731,103.2031 Q883.8423,102.6221 883.2488,102.3523 Q882.6553,102.0825 882.0244,102.0825 Q880.6797,102.0825 879.9949,103.1492 Q879.3101,104.2158 879.3101,106.3159 Q879.3101,108.4077 879.9949,109.4744 Q880.6797,110.541 882.0244,110.541 Q882.6553,110.541 883.2488,110.2712 Q883.8423,110.0015 884.4731,109.4204 Z " fill="#000000"/><text fill="#000000" font-family="sans-serif" font-size="14" font-weight="bold" lengthAdjust="spacing" textLength="243" x="896" y="111.291">MultiSelectTypeOptionDataParser</text><line style="stroke:#181818;stroke-width:0.5;" x1="868" x2="1141" y1="122" y2="122"/><line style="stroke:#181818;stroke-width:0.5;" x1="868" x2="1141" y1="130" y2="130"/></g><!--MD5=[2159c9d6008921ecd3bbdac97a7e41a4]
class NumberTypeOptionDataParser--><g id="elem_NumberTypeOptionDataParser"><rect fill="#F1F1F1" height="48" id="NumberTypeOptionDataParser" rx="2.5" ry="2.5" style="stroke:#181818;stroke-width:0.5;" width="252" x="878.5" y="173"/><ellipse cx="893.5" cy="189" fill="#ADD1B2" rx="11" ry="11" style="stroke:#181818;stroke-width:1.0;"/><path d="M895.9731,195.1431 Q895.3921,195.4419 894.7529,195.5913 Q894.1138,195.7407 893.4082,195.7407 Q890.9014,195.7407 889.5815,194.0889 Q888.2617,192.437 888.2617,189.3159 Q888.2617,186.1865 889.5815,184.5347 Q890.9014,182.8828 893.4082,182.8828 Q894.1138,182.8828 894.7612,183.0322 Q895.4087,183.1816 895.9731,183.4805 L895.9731,186.2031 Q895.3423,185.6221 894.7488,185.3523 Q894.1553,185.0825 893.5244,185.0825 Q892.1797,185.0825 891.4949,186.1492 Q890.8101,187.2158 890.8101,189.3159 Q890.8101,191.4077 891.4949,192.4744 Q892.1797,193.541 893.5244,193.541 Q894.1553,193.541 894.7488,193.2712 Q895.3423,193.0015 895.9731,192.4204 Z " fill="#000000"/><text fill="#000000" font-family="sans-serif" font-size="14" font-weight="bold" lengthAdjust="spacing" textLength="220" x="907.5" y="194.291">NumberTypeOptionDataParser</text><line style="stroke:#181818;stroke-width:0.5;" x1="879.5" x2="1129.5" y1="205" y2="205"/><line style="stroke:#181818;stroke-width:0.5;" x1="879.5" x2="1129.5" y1="213" y2="213"/></g><!--MD5=[88bb62ad8cff7cf79e5cd424ca008444]
class SingleSelectTypeOptionDataParser--><g id="elem_SingleSelectTypeOptionDataParser"><rect fill="#F1F1F1" height="48" id="SingleSelectTypeOptionDataParser" rx="2.5" ry="2.5" style="stroke:#181818;stroke-width:0.5;" width="281" x="864" y="256"/><ellipse cx="879" cy="272" fill="#ADD1B2" rx="11" ry="11" style="stroke:#181818;stroke-width:1.0;"/><path d="M881.4731,278.1431 Q880.8921,278.4419 880.2529,278.5913 Q879.6138,278.7407 878.9082,278.7407 Q876.4014,278.7407 875.0815,277.0889 Q873.7617,275.437 873.7617,272.3159 Q873.7617,269.1865 875.0815,267.5347 Q876.4014,265.8828 878.9082,265.8828 Q879.6138,265.8828 880.2612,266.0322 Q880.9087,266.1816 881.4731,266.4805 L881.4731,269.2031 Q880.8423,268.6221 880.2488,268.3523 Q879.6553,268.0825 879.0244,268.0825 Q877.6797,268.0825 876.9949,269.1492 Q876.3101,270.2158 876.3101,272.3159 Q876.3101,274.4077 876.9949,275.4744 Q877.6797,276.541 879.0244,276.541 Q879.6553,276.541 880.2488,276.2712 Q880.8423,276.0015 881.4731,275.4204 Z " fill="#000000"/><text fill="#000000" font-family="sans-serif" font-size="14" font-weight="bold" lengthAdjust="spacing" textLength="249" x="893" y="277.291">SingleSelectTypeOptionDataParser</text><line style="stroke:#181818;stroke-width:0.5;" x1="865" x2="1144" y1="288" y2="288"/><line style="stroke:#181818;stroke-width:0.5;" x1="865" x2="1144" y1="296" y2="296"/></g><!--MD5=[e83ddd0b28e4cc4d6fd0574d0d307df6]
class CheckboxTypeOptionDataParser--><g id="elem_CheckboxTypeOptionDataParser"><rect fill="#F1F1F1" height="48" id="CheckboxTypeOptionDataParser" rx="2.5" ry="2.5" style="stroke:#181818;stroke-width:0.5;" width="264" x="872.5" y="339"/><ellipse cx="887.5" cy="355" fill="#ADD1B2" rx="11" ry="11" style="stroke:#181818;stroke-width:1.0;"/><path d="M889.9731,361.1431 Q889.3921,361.4419 888.7529,361.5913 Q888.1138,361.7407 887.4082,361.7407 Q884.9014,361.7407 883.5815,360.0889 Q882.2617,358.437 882.2617,355.3159 Q882.2617,352.1865 883.5815,350.5347 Q884.9014,348.8828 887.4082,348.8828 Q888.1138,348.8828 888.7612,349.0322 Q889.4087,349.1816 889.9731,349.4805 L889.9731,352.2031 Q889.3423,351.6221 888.7488,351.3523 Q888.1553,351.0825 887.5244,351.0825 Q886.1797,351.0825 885.4949,352.1492 Q884.8101,353.2158 884.8101,355.3159 Q884.8101,357.4077 885.4949,358.4744 Q886.1797,359.541 887.5244,359.541 Q888.1553,359.541 888.7488,359.2712 Q889.3423,359.0015 889.9731,358.4204 Z " fill="#000000"/><text fill="#000000" font-family="sans-serif" font-size="14" font-weight="bold" lengthAdjust="spacing" textLength="232" x="901.5" y="360.291">CheckboxTypeOptionDataParser</text><line style="stroke:#181818;stroke-width:0.5;" x1="873.5" x2="1135.5" y1="371" y2="371"/><line style="stroke:#181818;stroke-width:0.5;" x1="873.5" x2="1135.5" y1="379" y2="379"/></g><!--MD5=[6cfdeea999558e9e348651a794224b64]
class RichTextTypeOptionDataParser--><g id="elem_RichTextTypeOptionDataParser"><rect fill="#F1F1F1" height="48" id="RichTextTypeOptionDataParser" rx="2.5" ry="2.5" style="stroke:#181818;stroke-width:0.5;" width="258" x="875.5" y="422"/><ellipse cx="890.5" cy="438" fill="#ADD1B2" rx="11" ry="11" style="stroke:#181818;stroke-width:1.0;"/><path d="M892.9731,444.1431 Q892.3921,444.4419 891.7529,444.5913 Q891.1138,444.7407 890.4082,444.7407 Q887.9014,444.7407 886.5815,443.0889 Q885.2617,441.437 885.2617,438.3159 Q885.2617,435.1865 886.5815,433.5347 Q887.9014,431.8828 890.4082,431.8828 Q891.1138,431.8828 891.7612,432.0322 Q892.4087,432.1816 892.9731,432.4805 L892.9731,435.2031 Q892.3423,434.6221 891.7488,434.3523 Q891.1553,434.0825 890.5244,434.0825 Q889.1797,434.0825 888.4949,435.1492 Q887.8101,436.2158 887.8101,438.3159 Q887.8101,440.4077 888.4949,441.4744 Q889.1797,442.541 890.5244,442.541 Q891.1553,442.541 891.7488,442.2712 Q892.3423,442.0015 892.9731,441.4204 Z " fill="#000000"/><text fill="#000000" font-family="sans-serif" font-size="14" font-weight="bold" lengthAdjust="spacing" textLength="226" x="904.5" y="443.291">RichTextTypeOptionDataParser</text><line style="stroke:#181818;stroke-width:0.5;" x1="876.5" x2="1132.5" y1="454" y2="454"/><line style="stroke:#181818;stroke-width:0.5;" x1="876.5" x2="1132.5" y1="462" y2="462"/></g><!--MD5=[83d97055593b23d34b316b66089e81f5]
class URLTypeOptionDataParser--><g id="elem_URLTypeOptionDataParser"><rect fill="#F1F1F1" height="48" id="URLTypeOptionDataParser" rx="2.5" ry="2.5" style="stroke:#181818;stroke-width:0.5;" width="223" x="893" y="505"/><ellipse cx="908" cy="521" fill="#ADD1B2" rx="11" ry="11" style="stroke:#181818;stroke-width:1.0;"/><path d="M910.4731,527.1431 Q909.8921,527.4419 909.2529,527.5913 Q908.6138,527.7407 907.9082,527.7407 Q905.4014,527.7407 904.0815,526.0889 Q902.7617,524.437 902.7617,521.3159 Q902.7617,518.1865 904.0815,516.5347 Q905.4014,514.8828 907.9082,514.8828 Q908.6138,514.8828 909.2612,515.0322 Q909.9087,515.1816 910.4731,515.4805 L910.4731,518.2031 Q909.8423,517.6221 909.2488,517.3523 Q908.6553,517.0825 908.0244,517.0825 Q906.6797,517.0825 905.9949,518.1492 Q905.3101,519.2158 905.3101,521.3159 Q905.3101,523.4077 905.9949,524.4744 Q906.6797,525.541 908.0244,525.541 Q908.6553,525.541 909.2488,525.2712 Q909.8423,525.0015 910.4731,524.4204 Z " fill="#000000"/><text fill="#000000" font-family="sans-serif" font-size="14" font-weight="bold" lengthAdjust="spacing" textLength="191" x="922" y="526.291">URLTypeOptionDataParser</text><line style="stroke:#181818;stroke-width:0.5;" x1="894" x2="1115" y1="537" y2="537"/><line style="stroke:#181818;stroke-width:0.5;" x1="894" x2="1115" y1="545" y2="545"/></g><!--MD5=[cbdf8ebdb6afe423383f9c56713dc103]
link CheckboxTypeOptionContext to TypeOptionWidgetContext--><g id="link_CheckboxTypeOptionContext_TypeOptionWidgetContext"><path codeLine="11" d="M234.06,55 C245.29,59.74 256.22,65.36 266,72 C330.82,116.01 383.92,191.7 412.81,238.62 " fill="none" id="CheckboxTypeOptionContext-to-TypeOptionWidgetContext" style="stroke:#181818;stroke-width:1.0;"/><polygon fill="none" points="418.91,235.18,423.18,255.93,406.9,242.37,418.91,235.18" style="stroke:#181818;stroke-width:1.0;"/></g><!--MD5=[257a21c571e05d329520fc823693aa45]
link DateTypeOptionContext to TypeOptionWidgetContext--><g id="link_DateTypeOptionContext_TypeOptionWidgetContext"><path codeLine="13" d="M226.11,138.09 C239.77,142.99 253.48,148.63 266,155 C313.01,178.92 360.98,215.38 394.01,242.76 " fill="none" id="DateTypeOptionContext-to-TypeOptionWidgetContext" style="stroke:#181818;stroke-width:1.0;"/><polygon fill="none" points="398.63,237.5,409.39,255.76,389.6,248.2,398.63,237.5" style="stroke:#181818;stroke-width:1.0;"/></g><!--MD5=[f86eeed20cf3a33fea7e20ab70f5a480]
link NumberTypeOptionContext to TypeOptionWidgetContext--><g id="link_NumberTypeOptionContext_TypeOptionWidgetContext"><path codeLine="15" d="M223.98,221.01 C257.23,230.24 295.56,240.88 330.44,250.56 " fill="none" id="NumberTypeOptionContext-to-TypeOptionWidgetContext" style="stroke:#181818;stroke-width:1.0;"/><polygon fill="none" points="332.55,243.88,349.95,255.98,328.81,257.37,332.55,243.88" style="stroke:#181818;stroke-width:1.0;"/></g><!--MD5=[417928045d90984bb971ce0e68c2634c]
link SingleSelectTypeOptionContext to TypeOptionWidgetContext--><g id="link_SingleSelectTypeOptionContext_TypeOptionWidgetContext"><path codeLine="17" d="M266.04,280 C279.13,280 292.43,280 305.55,280 " fill="none" id="SingleSelectTypeOptionContext-to-TypeOptionWidgetContext" style="stroke:#181818;stroke-width:1.0;"/><polygon fill="none" points="305.93,273,325.93,280,305.93,287,305.93,273" style="stroke:#181818;stroke-width:1.0;"/></g><!--MD5=[1aee405e1e61c0ee2467bcbb06a23181]
link MultiSelectTypeOptionContext to TypeOptionWidgetContext--><g id="link_MultiSelectTypeOptionContext_TypeOptionWidgetContext"><path codeLine="19" d="M223.98,338.99 C257.23,329.76 295.56,319.12 330.44,309.44 " fill="none" id="MultiSelectTypeOptionContext-to-TypeOptionWidgetContext" style="stroke:#181818;stroke-width:1.0;"/><polygon fill="none" points="328.81,302.63,349.95,304.02,332.55,316.12,328.81,302.63" style="stroke:#181818;stroke-width:1.0;"/></g><!--MD5=[b6fbbe9eec19d33b5c50ade580421fa9]
link RichTextTypeOptionContext to TypeOptionWidgetContext--><g id="link_RichTextTypeOptionContext_TypeOptionWidgetContext"><path codeLine="22" d="M223.69,421.97 C238.13,416.78 252.73,410.78 266,404 C312.7,380.14 360.54,344.14 393.61,317.07 " fill="none" id="RichTextTypeOptionContext-to-TypeOptionWidgetContext" style="stroke:#181818;stroke-width:1.0;"/><polygon fill="none" points="389.19,311.64,409.03,304.21,398.15,322.39,389.19,311.64" style="stroke:#181818;stroke-width:1.0;"/></g><!--MD5=[2f4368bab4a579047d37f9511b40bff6]
link URLTypeOptionContext to TypeOptionWidgetContext--><g id="link_URLTypeOptionContext_TypeOptionWidgetContext"><path codeLine="24" d="M232.38,504.88 C244.2,499.92 255.73,494.01 266,487 C330.36,443.08 383.44,368.11 412.48,321.46 " fill="none" id="URLTypeOptionContext-to-TypeOptionWidgetContext" style="stroke:#181818;stroke-width:1.0;"/><polygon fill="none" points="406.57,317.72,422.92,304.24,418.54,324.97,406.57,317.72" style="stroke:#181818;stroke-width:1.0;"/></g><!--MD5=[4123a6d169d11f3a7f5174e9e2cafdf7]
link TypeOptionWidgetContext to TypeOptionDataParser--><g id="link_TypeOptionWidgetContext_TypeOptionDataParser"><path codeLine="26" d="M549.03,280 C567.12,280 585.8,280 603.67,280 " fill="none" id="TypeOptionWidgetContext-to-TypeOptionDataParser" style="stroke:#181818;stroke-width:1.0;"/><polygon fill="#181818" points="608.69,280,599.69,276,603.69,280,599.69,284,608.69,280" style="stroke:#181818;stroke-width:1.0;"/></g><!--MD5=[35110c99c5715fa5f2a429ccd5377ffc]
reverse link TypeOptionDataParser to DateTypeOptionDataParser--><g id="link_TypeOptionDataParser_DateTypeOptionDataParser"><path codeLine="27" d="M728.4,238.01 C754.02,190.79 801.8,115.09 864,72 C873.65,65.32 884.4,59.71 895.52,55 " fill="none" id="TypeOptionDataParser-backto-DateTypeOptionDataParser" style="stroke:#181818;stroke-width:1.0;"/><polygon fill="none" points="734.59,241.29,719.09,255.75,722.19,234.78,734.59,241.29" style="stroke:#181818;stroke-width:1.0;"/></g><!--MD5=[cac6fa30373df9cda24bda57172da9d4]
reverse link TypeOptionDataParser to MultiSelectTypeOptionDataParser--><g id="link_TypeOptionDataParser_MultiSelectTypeOptionDataParser"><path codeLine="28" d="M746.12,242 C776.07,214.4 819.81,178 864,155 C876.54,148.47 890.27,142.84 904.07,138.02 " fill="none" id="TypeOptionDataParser-backto-MultiSelectTypeOptionDataParser" style="stroke:#181818;stroke-width:1.0;"/><polygon fill="none" points="750.73,247.27,731.38,255.9,741.12,237.09,750.73,247.27" style="stroke:#181818;stroke-width:1.0;"/></g><!--MD5=[752a264cec522a118c76f7e55e25f9dc]
reverse link TypeOptionDataParser to NumberTypeOptionDataParser--><g id="link_TypeOptionDataParser_NumberTypeOptionDataParser"><path codeLine="29" d="M812.43,250.58 C846.96,240.9 884.9,230.25 917.82,221.02 " fill="none" id="TypeOptionDataParser-backto-NumberTypeOptionDataParser" style="stroke:#181818;stroke-width:1.0;"/><polygon fill="none" points="814.26,257.33,793.12,255.99,810.48,243.85,814.26,257.33" style="stroke:#181818;stroke-width:1.0;"/></g><!--MD5=[1164c937c2904e638de284a19dac8273]
reverse link TypeOptionDataParser to SingleSelectTypeOptionDataParser--><g id="link_TypeOptionDataParser_SingleSelectTypeOptionDataParser"><path codeLine="30" d="M824.16,280 C837.2,280 850.58,280 863.87,280 " fill="none" id="TypeOptionDataParser-backto-SingleSelectTypeOptionDataParser" style="stroke:#181818;stroke-width:1.0;"/><polygon fill="none" points="824.01,287,804.01,280,824.01,273,824.01,287" style="stroke:#181818;stroke-width:1.0;"/></g><!--MD5=[0ee9e1a1e254984a6ae8eaad0c23a67a]
reverse link TypeOptionDataParser to CheckboxTypeOptionDataParser--><g id="link_TypeOptionDataParser_CheckboxTypeOptionDataParser"><path codeLine="31" d="M812.43,309.42 C846.96,319.1 884.9,329.75 917.82,338.98 " fill="none" id="TypeOptionDataParser-backto-CheckboxTypeOptionDataParser" style="stroke:#181818;stroke-width:1.0;"/><polygon fill="none" points="810.48,316.15,793.12,304.01,814.26,302.67,810.48,316.15" style="stroke:#181818;stroke-width:1.0;"/></g><!--MD5=[2b8dc50e72b691470b569cc5ac1edd92]
reverse link TypeOptionDataParser to RichTextTypeOptionDataParser--><g id="link_TypeOptionDataParser_RichTextTypeOptionDataParser"><path codeLine="32" d="M746.48,317.84 C776.48,345.14 820.11,381.08 864,404 C877.23,410.91 891.77,416.86 906.31,421.94 " fill="none" id="TypeOptionDataParser-backto-RichTextTypeOptionDataParser" style="stroke:#181818;stroke-width:1.0;"/><polygon fill="none" points="741.57,322.83,731.7,304.08,751.11,312.58,741.57,322.83" style="stroke:#181818;stroke-width:1.0;"/></g><!--MD5=[f0c0bfc0f589ae656a82864a78644eb7]
reverse link TypeOptionDataParser to URLTypeOptionDataParser--><g id="link_TypeOptionDataParser_URLTypeOptionDataParser"><path codeLine="33" d="M728.67,322.03 C754.43,368.98 802.22,444.01 864,487 C874.17,494.08 885.56,499.99 897.33,504.91 " fill="none" id="TypeOptionDataParser-backto-URLTypeOptionDataParser" style="stroke:#181818;stroke-width:1.0;"/><polygon fill="none" points="722.35,325.04,719.16,304.09,734.71,318.48,722.35,325.04" style="stroke:#181818;stroke-width:1.0;"/></g><!--MD5=[9fe305084609048e51d4e2c716eb55db]
@startuml Field Type Option Editor Data Parser
skinparam classFontStyle Bold
skinparam ActivityBackgroundColor Silver
skinparam ActivityBorderColor DimGray
left to right direction

interface TypeOptionWidgetContext
interface TypeOptionDataParser


'type option builder
CheckboxTypeOptionContext - -|> TypeOptionWidgetContext

DateTypeOptionContext - -|> TypeOptionWidgetContext

NumberTypeOptionContext - -|> TypeOptionWidgetContext

SingleSelectTypeOptionContext - -|> TypeOptionWidgetContext

MultiSelectTypeOptionContext - -|> TypeOptionWidgetContext


RichTextTypeOptionContext - -|> TypeOptionWidgetContext

URLTypeOptionContext - -|> TypeOptionWidgetContext

TypeOptionWidgetContext - -> TypeOptionDataParser
DateTypeOptionDataParser -u-|> TypeOptionDataParser
MultiSelectTypeOptionDataParser -u-|> TypeOptionDataParser
NumberTypeOptionDataParser -u-|> TypeOptionDataParser
SingleSelectTypeOptionDataParser -u-|> TypeOptionDataParser
CheckboxTypeOptionDataParser -u-|> TypeOptionDataParser
RichTextTypeOptionDataParser -u-|> TypeOptionDataParser
URLTypeOptionDataParser -u-|> TypeOptionDataParser
@enduml

@startuml Field Type Option Editor Data Parser
skinparam classFontStyle Bold
skinparam ActivityBackgroundColor Silver
skinparam ActivityBorderColor DimGray
left to right direction

interface TypeOptionWidgetContext
interface TypeOptionDataParser


CheckboxTypeOptionContext - -|> TypeOptionWidgetContext

DateTypeOptionContext - -|> TypeOptionWidgetContext

NumberTypeOptionContext - -|> TypeOptionWidgetContext

SingleSelectTypeOptionContext - -|> TypeOptionWidgetContext

MultiSelectTypeOptionContext - -|> TypeOptionWidgetContext


RichTextTypeOptionContext - -|> TypeOptionWidgetContext

URLTypeOptionContext - -|> TypeOptionWidgetContext

TypeOptionWidgetContext - -> TypeOptionDataParser
DateTypeOptionDataParser -u-|> TypeOptionDataParser
MultiSelectTypeOptionDataParser -u-|> TypeOptionDataParser
NumberTypeOptionDataParser -u-|> TypeOptionDataParser
SingleSelectTypeOptionDataParser -u-|> TypeOptionDataParser
CheckboxTypeOptionDataParser -u-|> TypeOptionDataParser
RichTextTypeOptionDataParser -u-|> TypeOptionDataParser
URLTypeOptionDataParser -u-|> TypeOptionDataParser
@enduml

PlantUML version 1.2022.5(Sat Apr 30 18:55:52 CST 2022)
(GPL source distribution)
Java Runtime: OpenJDK Runtime Environment
JVM: OpenJDK 64-Bit Server VM
Default Encoding: UTF-8
Language: en
Country: US
--></g></svg>