<?xml version="1.0" encoding="UTF-8" standalone="no"?><svg xmlns="http://www.w3.org/2000/svg" xmlns:xlink="http://www.w3.org/1999/xlink" contentStyleType="text/css" height="394px" preserveAspectRatio="none" style="width:496px;height:394px;background:#FFFFFF;" version="1.1" viewBox="0 0 496 394" width="496px" zoomAndPan="magnify"><defs/><g><!--MD5=[2646570833e3883b21cf4922cdc594d9]
class TypeOptionBuilder--><g id="elem_TypeOptionBuilder"><rect codeLine="5" fill="#F1F1F1" height="48" id="TypeOptionBuilder" rx="2.5" ry="2.5" style="stroke:#181818;stroke-width:0.5;" width="168" x="321" y="173"/><ellipse cx="336" cy="189" fill="#B4A7E5" rx="11" ry="11" style="stroke:#181818;stroke-width:1.0;"/><path d="M332.4277,185.2651 L332.4277,183.1069 L339.8071,183.1069 L339.8071,185.2651 L337.3418,185.2651 L337.3418,193.3418 L339.8071,193.3418 L339.8071,195.5 L332.4277,195.5 L332.4277,193.3418 L334.8931,193.3418 L334.8931,185.2651 Z " fill="#000000"/><text fill="#000000" font-family="sans-serif" font-size="14" font-style="italic" font-weight="bold" lengthAdjust="spacing" textLength="136" x="350" y="194.291">TypeOptionBuilder</text><line style="stroke:#181818;stroke-width:0.5;" x1="322" x2="488" y1="205" y2="205"/><line style="stroke:#181818;stroke-width:0.5;" x1="322" x2="488" y1="213" y2="213"/></g><!--MD5=[fcfd0a13307d62aaacd3fe859abb7e67]
class RichTextTypeOptionBuilder--><g id="elem_RichTextTypeOptionBuilder"><rect fill="#F1F1F1" height="48" id="RichTextTypeOptionBuilder" rx="2.5" ry="2.5" style="stroke:#181818;stroke-width:0.5;" width="231" x="18.5" y="7"/><ellipse cx="33.5" cy="23" fill="#ADD1B2" rx="11" ry="11" style="stroke:#181818;stroke-width:1.0;"/><path d="M35.9731,29.1431 Q35.3921,29.4419 34.7529,29.5913 Q34.1138,29.7407 33.4082,29.7407 Q30.9014,29.7407 29.5815,28.0889 Q28.2617,26.437 28.2617,23.3159 Q28.2617,20.1865 29.5815,18.5347 Q30.9014,16.8828 33.4082,16.8828 Q34.1138,16.8828 34.7612,17.0322 Q35.4087,17.1816 35.9731,17.4805 L35.9731,20.2031 Q35.3423,19.6221 34.7488,19.3523 Q34.1553,19.0825 33.5244,19.0825 Q32.1797,19.0825 31.4949,20.1492 Q30.8101,21.2158 30.8101,23.3159 Q30.8101,25.4077 31.4949,26.4744 Q32.1797,27.541 33.5244,27.541 Q34.1553,27.541 34.7488,27.2712 Q35.3423,27.0015 35.9731,26.4204 Z " fill="#000000"/><text fill="#000000" font-family="sans-serif" font-size="14" font-weight="bold" lengthAdjust="spacing" textLength="199" x="47.5" y="28.291">RichTextTypeOptionBuilder</text><line style="stroke:#181818;stroke-width:0.5;" x1="19.5" x2="248.5" y1="39" y2="39"/><line style="stroke:#181818;stroke-width:0.5;" x1="19.5" x2="248.5" y1="47" y2="47"/></g><!--MD5=[38ab91c930d45136ab3761db33d3f4d0]
class NumberTypeOptionBuilder--><g id="elem_NumberTypeOptionBuilder"><rect fill="#F1F1F1" height="48" id="NumberTypeOptionBuilder" rx="2.5" ry="2.5" style="stroke:#181818;stroke-width:0.5;" width="225" x="21.5" y="90"/><ellipse cx="36.5" cy="106" fill="#ADD1B2" rx="11" ry="11" style="stroke:#181818;stroke-width:1.0;"/><path d="M38.9731,112.1431 Q38.3921,112.4419 37.7529,112.5913 Q37.1138,112.7407 36.4082,112.7407 Q33.9014,112.7407 32.5815,111.0889 Q31.2617,109.437 31.2617,106.3159 Q31.2617,103.1865 32.5815,101.5347 Q33.9014,99.8828 36.4082,99.8828 Q37.1138,99.8828 37.7612,100.0322 Q38.4087,100.1816 38.9731,100.4805 L38.9731,103.2031 Q38.3423,102.6221 37.7488,102.3523 Q37.1553,102.0825 36.5244,102.0825 Q35.1797,102.0825 34.4949,103.1492 Q33.8101,104.2158 33.8101,106.3159 Q33.8101,108.4077 34.4949,109.4744 Q35.1797,110.541 36.5244,110.541 Q37.1553,110.541 37.7488,110.2712 Q38.3423,110.0015 38.9731,109.4204 Z " fill="#000000"/><text fill="#000000" font-family="sans-serif" font-size="14" font-weight="bold" lengthAdjust="spacing" textLength="193" x="50.5" y="111.291">NumberTypeOptionBuilder</text><line style="stroke:#181818;stroke-width:0.5;" x1="22.5" x2="245.5" y1="122" y2="122"/><line style="stroke:#181818;stroke-width:0.5;" x1="22.5" x2="245.5" y1="130" y2="130"/></g><!--MD5=[d4b96f63885227965452af6158bd29a7]
class DateTypeOptionBuilder--><g id="elem_DateTypeOptionBuilder"><rect fill="#F1F1F1" height="48" id="DateTypeOptionBuilder" rx="2.5" ry="2.5" style="stroke:#181818;stroke-width:0.5;" width="201" x="33.5" y="173"/><ellipse cx="48.5" cy="189" fill="#ADD1B2" rx="11" ry="11" style="stroke:#181818;stroke-width:1.0;"/><path d="M50.9731,195.1431 Q50.3921,195.4419 49.7529,195.5913 Q49.1138,195.7407 48.4082,195.7407 Q45.9014,195.7407 44.5815,194.0889 Q43.2617,192.437 43.2617,189.3159 Q43.2617,186.1865 44.5815,184.5347 Q45.9014,182.8828 48.4082,182.8828 Q49.1138,182.8828 49.7612,183.0322 Q50.4087,183.1816 50.9731,183.4805 L50.9731,186.2031 Q50.3423,185.6221 49.7488,185.3523 Q49.1553,185.0825 48.5244,185.0825 Q47.1797,185.0825 46.4949,186.1492 Q45.8101,187.2158 45.8101,189.3159 Q45.8101,191.4077 46.4949,192.4744 Q47.1797,193.541 48.5244,193.541 Q49.1553,193.541 49.7488,193.2712 Q50.3423,193.0015 50.9731,192.4204 Z " fill="#000000"/><text fill="#000000" font-family="sans-serif" font-size="14" font-weight="bold" lengthAdjust="spacing" textLength="169" x="62.5" y="194.291">DateTypeOptionBuilder</text><line style="stroke:#181818;stroke-width:0.5;" x1="34.5" x2="233.5" y1="205" y2="205"/><line style="stroke:#181818;stroke-width:0.5;" x1="34.5" x2="233.5" y1="213" y2="213"/></g><!--MD5=[ea0c5ea71dbb163162460a21d0d6d898]
class SingleSelectTypeOptionBuilder--><g id="elem_SingleSelectTypeOptionBuilder"><rect fill="#F1F1F1" height="48" id="SingleSelectTypeOptionBuilder" rx="2.5" ry="2.5" style="stroke:#181818;stroke-width:0.5;" width="254" x="7" y="256"/><ellipse cx="22" cy="272" fill="#ADD1B2" rx="11" ry="11" style="stroke:#181818;stroke-width:1.0;"/><path d="M24.4731,278.1431 Q23.8921,278.4419 23.2529,278.5913 Q22.6138,278.7407 21.9082,278.7407 Q19.4014,278.7407 18.0815,277.0889 Q16.7617,275.437 16.7617,272.3159 Q16.7617,269.1865 18.0815,267.5347 Q19.4014,265.8828 21.9082,265.8828 Q22.6138,265.8828 23.2612,266.0322 Q23.9087,266.1816 24.4731,266.4805 L24.4731,269.2031 Q23.8423,268.6221 23.2488,268.3523 Q22.6553,268.0825 22.0244,268.0825 Q20.6797,268.0825 19.9949,269.1492 Q19.3101,270.2158 19.3101,272.3159 Q19.3101,274.4077 19.9949,275.4744 Q20.6797,276.541 22.0244,276.541 Q22.6553,276.541 23.2488,276.2712 Q23.8423,276.0015 24.4731,275.4204 Z " fill="#000000"/><text fill="#000000" font-family="sans-serif" font-size="14" font-weight="bold" lengthAdjust="spacing" textLength="222" x="36" y="277.291">SingleSelectTypeOptionBuilder</text><line style="stroke:#181818;stroke-width:0.5;" x1="8" x2="260" y1="288" y2="288"/><line style="stroke:#181818;stroke-width:0.5;" x1="8" x2="260" y1="296" y2="296"/></g><!--MD5=[77a4c7b47dc1a75ac75233f70f9a2d26]
class MultiSelectTypeOptionBuilder--><g id="elem_MultiSelectTypeOptionBuilder"><rect fill="#F1F1F1" height="48" id="MultiSelectTypeOptionBuilder" rx="2.5" ry="2.5" style="stroke:#181818;stroke-width:0.5;" width="248" x="10" y="339"/><ellipse cx="25" cy="355" fill="#ADD1B2" rx="11" ry="11" style="stroke:#181818;stroke-width:1.0;"/><path d="M27.4731,361.1431 Q26.8921,361.4419 26.2529,361.5913 Q25.6138,361.7407 24.9082,361.7407 Q22.4014,361.7407 21.0815,360.0889 Q19.7617,358.437 19.7617,355.3159 Q19.7617,352.1865 21.0815,350.5347 Q22.4014,348.8828 24.9082,348.8828 Q25.6138,348.8828 26.2612,349.0322 Q26.9087,349.1816 27.4731,349.4805 L27.4731,352.2031 Q26.8423,351.6221 26.2488,351.3523 Q25.6553,351.0825 25.0244,351.0825 Q23.6797,351.0825 22.9949,352.1492 Q22.3101,353.2158 22.3101,355.3159 Q22.3101,357.4077 22.9949,358.4744 Q23.6797,359.541 25.0244,359.541 Q25.6553,359.541 26.2488,359.2712 Q26.8423,359.0015 27.4731,358.4204 Z " fill="#000000"/><text fill="#000000" font-family="sans-serif" font-size="14" font-weight="bold" lengthAdjust="spacing" textLength="216" x="39" y="360.291">MultiSelectTypeOptionBuilder</text><line style="stroke:#181818;stroke-width:0.5;" x1="11" x2="257" y1="371" y2="371"/><line style="stroke:#181818;stroke-width:0.5;" x1="11" x2="257" y1="379" y2="379"/></g><!--MD5=[7bfc7ac049af221e1cf9e36e76945dfe]
link RichTextTypeOptionBuilder to TypeOptionBuilder--><g id="link_RichTextTypeOptionBuilder_TypeOptionBuilder"><path codeLine="7" d="M224.37,55.07 C237.03,59.9 249.6,65.53 261,72 C301.46,94.97 340.76,130.59 367.88,157.94 " fill="none" id="RichTextTypeOptionBuilder-to-TypeOptionBuilder" style="stroke:#181818;stroke-width:1.0;"/><polygon fill="none" points="373.13,153.3,382,172.54,363.07,163.03,373.13,153.3" style="stroke:#181818;stroke-width:1.0;"/></g><!--MD5=[0235734f43eccad747342cc71d096dd0]
link NumberTypeOptionBuilder to TypeOptionBuilder--><g id="link_NumberTypeOptionBuilder_TypeOptionBuilder"><path codeLine="8" d="M212.81,138.01 C242.09,147.04 275.77,157.43 306.62,166.95 " fill="none" id="NumberTypeOptionBuilder-to-TypeOptionBuilder" style="stroke:#181818;stroke-width:1.0;"/><polygon fill="none" points="308.86,160.32,325.9,172.9,304.73,173.7,308.86,160.32" style="stroke:#181818;stroke-width:1.0;"/></g><!--MD5=[49c883b017456a183bd7be79a107f77a]
link DateTypeOptionBuilder to TypeOptionBuilder--><g id="link_DateTypeOptionBuilder_TypeOptionBuilder"><path codeLine="9" d="M234.78,197 C256.2,197 278.87,197 300.43,197 " fill="none" id="DateTypeOptionBuilder-to-TypeOptionBuilder" style="stroke:#181818;stroke-width:1.0;"/><polygon fill="none" points="300.68,190,320.68,197,300.68,204,300.68,190" style="stroke:#181818;stroke-width:1.0;"/></g><!--MD5=[61daded45b91c4a63134fbc033fddabc]
link SingleSelectTypeOptionBuilder to TypeOptionBuilder--><g id="link_SingleSelectTypeOptionBuilder_TypeOptionBuilder"><path codeLine="10" d="M212.81,255.99 C242.09,246.96 275.77,236.57 306.62,227.05 " fill="none" id="SingleSelectTypeOptionBuilder-to-TypeOptionBuilder" style="stroke:#181818;stroke-width:1.0;"/><polygon fill="none" points="304.73,220.3,325.9,221.1,308.86,233.68,304.73,220.3" style="stroke:#181818;stroke-width:1.0;"/></g><!--MD5=[9b0b7d21c4b94a66a882302f6bf4fcd5]
link MultiSelectTypeOptionBuilder to TypeOptionBuilder--><g id="link_MultiSelectTypeOptionBuilder_TypeOptionBuilder"><path codeLine="11" d="M222.34,338.89 C235.67,333.8 248.98,327.85 261,321 C301.28,298.04 340.6,262.72 367.78,235.64 " fill="none" id="MultiSelectTypeOptionBuilder-to-TypeOptionBuilder" style="stroke:#181818;stroke-width:1.0;"/><polygon fill="none" points="362.93,230.59,381.93,221.19,372.94,240.38,362.93,230.59" style="stroke:#181818;stroke-width:1.0;"/></g><!--MD5=[3766d06fdc9ecb1eb8e82ebc24958b8f]
@startuml FieldTypeOption Builder
skinparam classFontStyle Bold
skinparam ActivityBackgroundColor Silver
skinparam ActivityBorderColor DimGray
left to right direction
interface TypeOptionBuilder

RichTextTypeOptionBuilder - -|> TypeOptionBuilder
NumberTypeOptionBuilder - -|> TypeOptionBuilder
DateTypeOptionBuilder - -|> TypeOptionBuilder
SingleSelectTypeOptionBuilder - -|> TypeOptionBuilder
MultiSelectTypeOptionBuilder - -|> TypeOptionBuilder
 
@enduml

PlantUML version 1.2022.5(Sat Apr 30 18:55:52 CST 2022)
(GPL source distribution)
Java Runtime: OpenJDK Runtime Environment
JVM: OpenJDK 64-Bit Server VM
Default Encoding: UTF-8
Language: en
Country: US
--></g></svg>