<?xml version="1.0" encoding="UTF-8" standalone="no"?><svg xmlns="http://www.w3.org/2000/svg" xmlns:xlink="http://www.w3.org/1999/xlink" contentStyleType="text/css" height="560px" preserveAspectRatio="none" style="width:596px;height:560px;background:#FFFFFF;" version="1.1" viewBox="0 0 596 560" width="596px" zoomAndPan="magnify"><defs/><g><!--MD5=[1e3d5594d1ae727beaf17b6eea0499f9]
class CheckboxTypeOptionWidgetBuilder--><g id="elem_CheckboxTypeOptionWidgetBuilder"><rect fill="#F1F1F1" height="48" id="CheckboxTypeOptionWidgetBuilder" rx="2.5" ry="2.5" style="stroke:#181818;stroke-width:0.5;" width="287" x="293.5" y="7"/><ellipse cx="308.5" cy="23" fill="#ADD1B2" rx="11" ry="11" style="stroke:#181818;stroke-width:1.0;"/><path d="M310.9731,29.1431 Q310.3921,29.4419 309.7529,29.5913 Q309.1138,29.7407 308.4082,29.7407 Q305.9014,29.7407 304.5815,28.0889 Q303.2617,26.437 303.2617,23.3159 Q303.2617,20.1865 304.5815,18.5347 Q305.9014,16.8828 308.4082,16.8828 Q309.1138,16.8828 309.7612,17.0322 Q310.4087,17.1816 310.9731,17.4805 L310.9731,20.2031 Q310.3423,19.6221 309.7488,19.3523 Q309.1553,19.0825 308.5244,19.0825 Q307.1797,19.0825 306.4949,20.1492 Q305.8101,21.2158 305.8101,23.3159 Q305.8101,25.4077 306.4949,26.4744 Q307.1797,27.541 308.5244,27.541 Q309.1553,27.541 309.7488,27.2712 Q310.3423,27.0015 310.9731,26.4204 Z " fill="#000000"/><text fill="#000000" font-family="sans-serif" font-size="14" font-weight="bold" lengthAdjust="spacing" textLength="255" x="322.5" y="28.291">CheckboxTypeOptionWidgetBuilder</text><line style="stroke:#181818;stroke-width:0.5;" x1="294.5" x2="579.5" y1="39" y2="39"/><line style="stroke:#181818;stroke-width:0.5;" x1="294.5" x2="579.5" y1="47" y2="47"/></g><!--MD5=[ed37b9d40b0ed5253360da5837823aac]
class TypeOptionWidgetBuilder--><g id="elem_TypeOptionWidgetBuilder"><rect fill="#F1F1F1" height="48" id="TypeOptionWidgetBuilder" rx="2.5" ry="2.5" style="stroke:#181818;stroke-width:0.5;" width="218" x="7" y="256"/><ellipse cx="22" cy="272" fill="#ADD1B2" rx="11" ry="11" style="stroke:#181818;stroke-width:1.0;"/><path d="M24.4731,278.1431 Q23.8921,278.4419 23.2529,278.5913 Q22.6138,278.7407 21.9082,278.7407 Q19.4014,278.7407 18.0815,277.0889 Q16.7617,275.437 16.7617,272.3159 Q16.7617,269.1865 18.0815,267.5347 Q19.4014,265.8828 21.9082,265.8828 Q22.6138,265.8828 23.2612,266.0322 Q23.9087,266.1816 24.4731,266.4805 L24.4731,269.2031 Q23.8423,268.6221 23.2488,268.3523 Q22.6553,268.0825 22.0244,268.0825 Q20.6797,268.0825 19.9949,269.1492 Q19.3101,270.2158 19.3101,272.3159 Q19.3101,274.4077 19.9949,275.4744 Q20.6797,276.541 22.0244,276.541 Q22.6553,276.541 23.2488,276.2712 Q23.8423,276.0015 24.4731,275.4204 Z " fill="#000000"/><text fill="#000000" font-family="sans-serif" font-size="14" font-weight="bold" lengthAdjust="spacing" textLength="186" x="36" y="277.291">TypeOptionWidgetBuilder</text><line style="stroke:#181818;stroke-width:0.5;" x1="8" x2="224" y1="288" y2="288"/><line style="stroke:#181818;stroke-width:0.5;" x1="8" x2="224" y1="296" y2="296"/></g><!--MD5=[2310afca2fd34f0012aa41a6eac779d6]
class DateTypeOptionWidgetBuilder--><g id="elem_DateTypeOptionWidgetBuilder"><rect fill="#F1F1F1" height="48" id="DateTypeOptionWidgetBuilder" rx="2.5" ry="2.5" style="stroke:#181818;stroke-width:0.5;" width="251" x="311.5" y="90"/><ellipse cx="326.5" cy="106" fill="#ADD1B2" rx="11" ry="11" style="stroke:#181818;stroke-width:1.0;"/><path d="M328.9731,112.1431 Q328.3921,112.4419 327.7529,112.5913 Q327.1138,112.7407 326.4082,112.7407 Q323.9014,112.7407 322.5815,111.0889 Q321.2617,109.437 321.2617,106.3159 Q321.2617,103.1865 322.5815,101.5347 Q323.9014,99.8828 326.4082,99.8828 Q327.1138,99.8828 327.7612,100.0322 Q328.4087,100.1816 328.9731,100.4805 L328.9731,103.2031 Q328.3423,102.6221 327.7488,102.3523 Q327.1553,102.0825 326.5244,102.0825 Q325.1797,102.0825 324.4949,103.1492 Q323.8101,104.2158 323.8101,106.3159 Q323.8101,108.4077 324.4949,109.4744 Q325.1797,110.541 326.5244,110.541 Q327.1553,110.541 327.7488,110.2712 Q328.3423,110.0015 328.9731,109.4204 Z " fill="#000000"/><text fill="#000000" font-family="sans-serif" font-size="14" font-weight="bold" lengthAdjust="spacing" textLength="219" x="340.5" y="111.291">DateTypeOptionWidgetBuilder</text><line style="stroke:#181818;stroke-width:0.5;" x1="312.5" x2="561.5" y1="122" y2="122"/><line style="stroke:#181818;stroke-width:0.5;" x1="312.5" x2="561.5" y1="130" y2="130"/></g><!--MD5=[e65020d1479ef9bae1a9ff09cdcabe17]
class NumberTypeOptionWidgetBuilder--><g id="elem_NumberTypeOptionWidgetBuilder"><rect fill="#F1F1F1" height="48" id="NumberTypeOptionWidgetBuilder" rx="2.5" ry="2.5" style="stroke:#181818;stroke-width:0.5;" width="275" x="299.5" y="173"/><ellipse cx="314.5" cy="189" fill="#ADD1B2" rx="11" ry="11" style="stroke:#181818;stroke-width:1.0;"/><path d="M316.9731,195.1431 Q316.3921,195.4419 315.7529,195.5913 Q315.1138,195.7407 314.4082,195.7407 Q311.9014,195.7407 310.5815,194.0889 Q309.2617,192.437 309.2617,189.3159 Q309.2617,186.1865 310.5815,184.5347 Q311.9014,182.8828 314.4082,182.8828 Q315.1138,182.8828 315.7612,183.0322 Q316.4087,183.1816 316.9731,183.4805 L316.9731,186.2031 Q316.3423,185.6221 315.7488,185.3523 Q315.1553,185.0825 314.5244,185.0825 Q313.1797,185.0825 312.4949,186.1492 Q311.8101,187.2158 311.8101,189.3159 Q311.8101,191.4077 312.4949,192.4744 Q313.1797,193.541 314.5244,193.541 Q315.1553,193.541 315.7488,193.2712 Q316.3423,193.0015 316.9731,192.4204 Z " fill="#000000"/><text fill="#000000" font-family="sans-serif" font-size="14" font-weight="bold" lengthAdjust="spacing" textLength="243" x="328.5" y="194.291">NumberTypeOptionWidgetBuilder</text><line style="stroke:#181818;stroke-width:0.5;" x1="300.5" x2="573.5" y1="205" y2="205"/><line style="stroke:#181818;stroke-width:0.5;" x1="300.5" x2="573.5" y1="213" y2="213"/></g><!--MD5=[de0470c01fc216a5e23bb825a589695c]
class SingleSelectTypeOptionWidgetBuilder--><g id="elem_SingleSelectTypeOptionWidgetBuilder"><rect fill="#F1F1F1" height="48" id="SingleSelectTypeOptionWidgetBuilder" rx="2.5" ry="2.5" style="stroke:#181818;stroke-width:0.5;" width="304" x="285" y="256"/><ellipse cx="300" cy="272" fill="#ADD1B2" rx="11" ry="11" style="stroke:#181818;stroke-width:1.0;"/><path d="M302.4731,278.1431 Q301.8921,278.4419 301.2529,278.5913 Q300.6138,278.7407 299.9082,278.7407 Q297.4014,278.7407 296.0815,277.0889 Q294.7617,275.437 294.7617,272.3159 Q294.7617,269.1865 296.0815,267.5347 Q297.4014,265.8828 299.9082,265.8828 Q300.6138,265.8828 301.2612,266.0322 Q301.9087,266.1816 302.4731,266.4805 L302.4731,269.2031 Q301.8423,268.6221 301.2488,268.3523 Q300.6553,268.0825 300.0244,268.0825 Q298.6797,268.0825 297.9949,269.1492 Q297.3101,270.2158 297.3101,272.3159 Q297.3101,274.4077 297.9949,275.4744 Q298.6797,276.541 300.0244,276.541 Q300.6553,276.541 301.2488,276.2712 Q301.8423,276.0015 302.4731,275.4204 Z " fill="#000000"/><text fill="#000000" font-family="sans-serif" font-size="14" font-weight="bold" lengthAdjust="spacing" textLength="272" x="314" y="277.291">SingleSelectTypeOptionWidgetBuilder</text><line style="stroke:#181818;stroke-width:0.5;" x1="286" x2="588" y1="288" y2="288"/><line style="stroke:#181818;stroke-width:0.5;" x1="286" x2="588" y1="296" y2="296"/></g><!--MD5=[7fb1f3e610495f5fa926d4a08253dd2c]
class MultiSelectTypeOptionWidgetBuilder--><g id="elem_MultiSelectTypeOptionWidgetBuilder"><rect fill="#F1F1F1" height="48" id="MultiSelectTypeOptionWidgetBuilder" rx="2.5" ry="2.5" style="stroke:#181818;stroke-width:0.5;" width="298" x="288" y="339"/><ellipse cx="303" cy="355" fill="#ADD1B2" rx="11" ry="11" style="stroke:#181818;stroke-width:1.0;"/><path d="M305.4731,361.1431 Q304.8921,361.4419 304.2529,361.5913 Q303.6138,361.7407 302.9082,361.7407 Q300.4014,361.7407 299.0815,360.0889 Q297.7617,358.437 297.7617,355.3159 Q297.7617,352.1865 299.0815,350.5347 Q300.4014,348.8828 302.9082,348.8828 Q303.6138,348.8828 304.2612,349.0322 Q304.9087,349.1816 305.4731,349.4805 L305.4731,352.2031 Q304.8423,351.6221 304.2488,351.3523 Q303.6553,351.0825 303.0244,351.0825 Q301.6797,351.0825 300.9949,352.1492 Q300.3101,353.2158 300.3101,355.3159 Q300.3101,357.4077 300.9949,358.4744 Q301.6797,359.541 303.0244,359.541 Q303.6553,359.541 304.2488,359.2712 Q304.8423,359.0015 305.4731,358.4204 Z " fill="#000000"/><text fill="#000000" font-family="sans-serif" font-size="14" font-weight="bold" lengthAdjust="spacing" textLength="266" x="317" y="360.291">MultiSelectTypeOptionWidgetBuilder</text><line style="stroke:#181818;stroke-width:0.5;" x1="289" x2="585" y1="371" y2="371"/><line style="stroke:#181818;stroke-width:0.5;" x1="289" x2="585" y1="379" y2="379"/></g><!--MD5=[255a3d78d2b0ea1ffc9f7995dbabea8a]
class RichTextTypeOptionWidgetBuilder--><g id="elem_RichTextTypeOptionWidgetBuilder"><rect fill="#F1F1F1" height="48" id="RichTextTypeOptionWidgetBuilder" rx="2.5" ry="2.5" style="stroke:#181818;stroke-width:0.5;" width="281" x="296.5" y="422"/><ellipse cx="311.5" cy="438" fill="#ADD1B2" rx="11" ry="11" style="stroke:#181818;stroke-width:1.0;"/><path d="M313.9731,444.1431 Q313.3921,444.4419 312.7529,444.5913 Q312.1138,444.7407 311.4082,444.7407 Q308.9014,444.7407 307.5815,443.0889 Q306.2617,441.437 306.2617,438.3159 Q306.2617,435.1865 307.5815,433.5347 Q308.9014,431.8828 311.4082,431.8828 Q312.1138,431.8828 312.7612,432.0322 Q313.4087,432.1816 313.9731,432.4805 L313.9731,435.2031 Q313.3423,434.6221 312.7488,434.3523 Q312.1553,434.0825 311.5244,434.0825 Q310.1797,434.0825 309.4949,435.1492 Q308.8101,436.2158 308.8101,438.3159 Q308.8101,440.4077 309.4949,441.4744 Q310.1797,442.541 311.5244,442.541 Q312.1553,442.541 312.7488,442.2712 Q313.3423,442.0015 313.9731,441.4204 Z " fill="#000000"/><text fill="#000000" font-family="sans-serif" font-size="14" font-weight="bold" lengthAdjust="spacing" textLength="249" x="325.5" y="443.291">RichTextTypeOptionWidgetBuilder</text><line style="stroke:#181818;stroke-width:0.5;" x1="297.5" x2="576.5" y1="454" y2="454"/><line style="stroke:#181818;stroke-width:0.5;" x1="297.5" x2="576.5" y1="462" y2="462"/></g><!--MD5=[4a28a83e8e7a9e67eac5c395baf505b4]
class URLTypeOptionWidgetBuilder--><g id="elem_URLTypeOptionWidgetBuilder"><rect fill="#F1F1F1" height="48" id="URLTypeOptionWidgetBuilder" rx="2.5" ry="2.5" style="stroke:#181818;stroke-width:0.5;" width="246" x="314" y="505"/><ellipse cx="329" cy="521" fill="#ADD1B2" rx="11" ry="11" style="stroke:#181818;stroke-width:1.0;"/><path d="M331.4731,527.1431 Q330.8921,527.4419 330.2529,527.5913 Q329.6138,527.7407 328.9082,527.7407 Q326.4014,527.7407 325.0815,526.0889 Q323.7617,524.437 323.7617,521.3159 Q323.7617,518.1865 325.0815,516.5347 Q326.4014,514.8828 328.9082,514.8828 Q329.6138,514.8828 330.2612,515.0322 Q330.9087,515.1816 331.4731,515.4805 L331.4731,518.2031 Q330.8423,517.6221 330.2488,517.3523 Q329.6553,517.0825 329.0244,517.0825 Q327.6797,517.0825 326.9949,518.1492 Q326.3101,519.2158 326.3101,521.3159 Q326.3101,523.4077 326.9949,524.4744 Q327.6797,525.541 329.0244,525.541 Q329.6553,525.541 330.2488,525.2712 Q330.8423,525.0015 331.4731,524.4204 Z " fill="#000000"/><text fill="#000000" font-family="sans-serif" font-size="14" font-weight="bold" lengthAdjust="spacing" textLength="214" x="343" y="526.291">URLTypeOptionWidgetBuilder</text><line style="stroke:#181818;stroke-width:0.5;" x1="315" x2="559" y1="537" y2="537"/><line style="stroke:#181818;stroke-width:0.5;" x1="315" x2="559" y1="545" y2="545"/></g><!--MD5=[277baafc9fa4aa872d35c2209b8ba834]
reverse link TypeOptionWidgetBuilder to CheckboxTypeOptionWidgetBuilder--><g id="link_TypeOptionWidgetBuilder_CheckboxTypeOptionWidgetBuilder"><path codeLine="5" d="M139.63,238.48 C167.6,191.1 219.6,114.69 285,72 C295.24,65.32 306.54,59.72 318.22,55.03 " fill="none" id="TypeOptionWidgetBuilder-backto-CheckboxTypeOptionWidgetBuilder" style="stroke:#181818;stroke-width:1.0;"/><polygon fill="none" points="145.64,242.07,129.63,255.95,133.49,235.12,145.64,242.07" style="stroke:#181818;stroke-width:1.0;"/></g><!--MD5=[6b70d27887ec6494ce9624989559a78f]
reverse link TypeOptionWidgetBuilder to DateTypeOptionWidgetBuilder--><g id="link_TypeOptionWidgetBuilder_DateTypeOptionWidgetBuilder"><path codeLine="7" d="M158.35,242.25 C190.7,214.53 237.94,177.87 285,155 C298.44,148.47 313.07,142.85 327.77,138.06 " fill="none" id="TypeOptionWidgetBuilder-backto-DateTypeOptionWidgetBuilder" style="stroke:#181818;stroke-width:1.0;"/><polygon fill="none" points="162.53,247.89,142.88,255.81,153.31,237.36,162.53,247.89" style="stroke:#181818;stroke-width:1.0;"/></g><!--MD5=[558bb2e019e03dfe99157e37b739b3af]
reverse link TypeOptionWidgetBuilder to NumberTypeOptionWidgetBuilder--><g id="link_TypeOptionWidgetBuilder_NumberTypeOptionWidgetBuilder"><path codeLine="9" d="M228.79,250.91 C266.34,241.14 307.78,230.36 343.66,221.02 " fill="none" id="TypeOptionWidgetBuilder-backto-NumberTypeOptionWidgetBuilder" style="stroke:#181818;stroke-width:1.0;"/><polygon fill="none" points="230.39,257.73,209.27,255.99,226.86,244.18,230.39,257.73" style="stroke:#181818;stroke-width:1.0;"/></g><!--MD5=[65ee1396fec130ddc4080fe251a124be]
reverse link TypeOptionWidgetBuilder to SingleSelectTypeOptionWidgetBuilder--><g id="link_TypeOptionWidgetBuilder_SingleSelectTypeOptionWidgetBuilder"><path codeLine="11" d="M245.53,280 C258.49,280 271.73,280 284.9,280 " fill="none" id="TypeOptionWidgetBuilder-backto-SingleSelectTypeOptionWidgetBuilder" style="stroke:#181818;stroke-width:1.0;"/><polygon fill="none" points="245.44,287,225.44,280,245.44,273,245.44,287" style="stroke:#181818;stroke-width:1.0;"/></g><!--MD5=[415c9acafe6eb0f657805562c8315e63]
reverse link TypeOptionWidgetBuilder to MultiSelectTypeOptionWidgetBuilder--><g id="link_TypeOptionWidgetBuilder_MultiSelectTypeOptionWidgetBuilder"><path codeLine="13" d="M228.79,309.09 C266.34,318.86 307.78,329.64 343.66,338.98 " fill="none" id="TypeOptionWidgetBuilder-backto-MultiSelectTypeOptionWidgetBuilder" style="stroke:#181818;stroke-width:1.0;"/><polygon fill="none" points="226.86,315.82,209.27,304.01,230.39,302.27,226.86,315.82" style="stroke:#181818;stroke-width:1.0;"/></g><!--MD5=[894c287052dc314e808d7c085f6e5993]
reverse link TypeOptionWidgetBuilder to RichTextTypeOptionWidgetBuilder--><g id="link_TypeOptionWidgetBuilder_RichTextTypeOptionWidgetBuilder"><path codeLine="15" d="M158.73,317.59 C191.12,345.01 238.24,381.21 285,404 C299.19,410.92 314.7,416.85 330.2,421.9 " fill="none" id="TypeOptionWidgetBuilder-backto-RichTextTypeOptionWidgetBuilder" style="stroke:#181818;stroke-width:1.0;"/><polygon fill="none" points="153.77,322.55,143.22,304.18,162.93,311.97,153.77,322.55" style="stroke:#181818;stroke-width:1.0;"/></g><!--MD5=[a12c4e55d534c1d1b1798c4f8bb33be0]
reverse link TypeOptionWidgetBuilder to URLTypeOptionWidgetBuilder--><g id="link_TypeOptionWidgetBuilder_URLTypeOptionWidgetBuilder"><path codeLine="17" d="M139.95,321.62 C168.06,368.73 220.04,444.43 285,487 C295.81,494.08 307.81,499.99 320.18,504.9 " fill="none" id="TypeOptionWidgetBuilder-backto-URLTypeOptionWidgetBuilder" style="stroke:#181818;stroke-width:1.0;"/><polygon fill="none" points="133.84,325.04,129.88,304.23,145.96,318.03,133.84,325.04" style="stroke:#181818;stroke-width:1.0;"/></g><!--MD5=[c596af9855c2ae742e78680c2168ea8e]
@startuml Field Type Option Widget Builder Impl
skinparam classFontStyle Bold
skinparam ActivityBackgroundColor Silver
skinparam ActivityBorderColor DimGray
left to right direction
CheckboxTypeOptionWidgetBuilder -u-|> TypeOptionWidgetBuilder

DateTypeOptionWidgetBuilder -u-|> TypeOptionWidgetBuilder

NumberTypeOptionWidgetBuilder -u-|> TypeOptionWidgetBuilder

SingleSelectTypeOptionWidgetBuilder -u-|> TypeOptionWidgetBuilder

MultiSelectTypeOptionWidgetBuilder -u-|> TypeOptionWidgetBuilder

RichTextTypeOptionWidgetBuilder -u-|> TypeOptionWidgetBuilder

URLTypeOptionWidgetBuilder -u-|> TypeOptionWidgetBuilder

@enduml

PlantUML version 1.2022.5(Sat Apr 30 18:55:52 CST 2022)
(GPL source distribution)
Java Runtime: OpenJDK Runtime Environment
JVM: OpenJDK 64-Bit Server VM
Default Encoding: UTF-8
Language: en
Country: US
--></g></svg>