<?xml version="1.0" encoding="UTF-8" standalone="no"?><svg xmlns="http://www.w3.org/2000/svg" xmlns:xlink="http://www.w3.org/1999/xlink" contentStyleType="text/css" height="145px" preserveAspectRatio="none" style="width:1063px;height:145px;background:#FFFFFF;" version="1.1" viewBox="0 0 1063 145" width="1063px" zoomAndPan="magnify"><defs/><g><!--MD5=[6f511a4e207be08d0d6687f6e17b9ceb]
class TypeOptionWidgetContext--><g id="elem_TypeOptionWidgetContext"><rect codeLine="6" fill="#F1F1F1" height="48" id="TypeOptionWidgetContext" rx="2.5" ry="2.5" style="stroke:#181818;stroke-width:0.5;" width="223" x="285" y="49"/><ellipse cx="300" cy="65" fill="#B4A7E5" rx="11" ry="11" style="stroke:#181818;stroke-width:1.0;"/><path d="M296.4277,61.2651 L296.4277,59.1069 L303.8071,59.1069 L303.8071,61.2651 L301.3418,61.2651 L301.3418,69.3418 L303.8071,69.3418 L303.8071,71.5 L296.4277,71.5 L296.4277,69.3418 L298.8931,69.3418 L298.8931,61.2651 Z " fill="#000000"/><text fill="#000000" font-family="sans-serif" font-size="14" font-style="italic" font-weight="bold" lengthAdjust="spacing" textLength="191" x="314" y="70.291">TypeOptionWidgetContext</text><line style="stroke:#181818;stroke-width:0.5;" x1="286" x2="507" y1="81" y2="81"/><line style="stroke:#181818;stroke-width:0.5;" x1="286" x2="507" y1="89" y2="89"/></g><!--MD5=[1f144cc092e6ed242406a8d1767211ef]
class TypeOptionDataParser--><g id="elem_TypeOptionDataParser"><rect codeLine="7" fill="#F1F1F1" height="48" id="TypeOptionDataParser" rx="2.5" ry="2.5" style="stroke:#181818;stroke-width:0.5;" width="195" x="582" y="7"/><ellipse cx="597" cy="23" fill="#B4A7E5" rx="11" ry="11" style="stroke:#181818;stroke-width:1.0;"/><path d="M593.4277,19.2651 L593.4277,17.1069 L600.8071,17.1069 L600.8071,19.2651 L598.3418,19.2651 L598.3418,27.3418 L600.8071,27.3418 L600.8071,29.5 L593.4277,29.5 L593.4277,27.3418 L595.8931,27.3418 L595.8931,19.2651 Z " fill="#000000"/><text fill="#000000" font-family="sans-serif" font-size="14" font-style="italic" font-weight="bold" lengthAdjust="spacing" textLength="163" x="611" y="28.291">TypeOptionDataParser</text><line style="stroke:#181818;stroke-width:0.5;" x1="583" x2="776" y1="39" y2="39"/><line style="stroke:#181818;stroke-width:0.5;" x1="583" x2="776" y1="47" y2="47"/></g><!--MD5=[c48341880989299e1afa6503a57ddb77]
class IFieldTypeOptionLoader--><g id="elem_IFieldTypeOptionLoader"><rect codeLine="8" fill="#F1F1F1" height="48" id="IFieldTypeOptionLoader" rx="2.5" ry="2.5" style="stroke:#181818;stroke-width:0.5;" width="205" x="851" y="90"/><ellipse cx="866" cy="106" fill="#B4A7E5" rx="11" ry="11" style="stroke:#181818;stroke-width:1.0;"/><path d="M862.4277,102.2651 L862.4277,100.1069 L869.8071,100.1069 L869.8071,102.2651 L867.3418,102.2651 L867.3418,110.3418 L869.8071,110.3418 L869.8071,112.5 L862.4277,112.5 L862.4277,110.3418 L864.8931,110.3418 L864.8931,102.2651 Z " fill="#000000"/><text fill="#000000" font-family="sans-serif" font-size="14" font-style="italic" font-weight="bold" lengthAdjust="spacing" textLength="173" x="880" y="111.291">IFieldTypeOptionLoader</text><line style="stroke:#181818;stroke-width:0.5;" x1="852" x2="1055" y1="122" y2="122"/><line style="stroke:#181818;stroke-width:0.5;" x1="852" x2="1055" y1="130" y2="130"/></g><!--MD5=[ed37b9d40b0ed5253360da5837823aac]
class TypeOptionWidgetBuilder--><g id="elem_TypeOptionWidgetBuilder"><rect fill="#F1F1F1" height="48" id="TypeOptionWidgetBuilder" rx="2.5" ry="2.5" style="stroke:#181818;stroke-width:0.5;" width="218" x="7" y="49"/><ellipse cx="22" cy="65" fill="#ADD1B2" rx="11" ry="11" style="stroke:#181818;stroke-width:1.0;"/><path d="M24.4731,71.1431 Q23.8921,71.4419 23.2529,71.5913 Q22.6138,71.7407 21.9082,71.7407 Q19.4014,71.7407 18.0815,70.0889 Q16.7617,68.437 16.7617,65.3159 Q16.7617,62.1865 18.0815,60.5347 Q19.4014,58.8828 21.9082,58.8828 Q22.6138,58.8828 23.2612,59.0322 Q23.9087,59.1816 24.4731,59.4805 L24.4731,62.2031 Q23.8423,61.6221 23.2488,61.3523 Q22.6553,61.0825 22.0244,61.0825 Q20.6797,61.0825 19.9949,62.1492 Q19.3101,63.2158 19.3101,65.3159 Q19.3101,67.4077 19.9949,68.4744 Q20.6797,69.541 22.0244,69.541 Q22.6553,69.541 23.2488,69.2712 Q23.8423,69.0015 24.4731,68.4204 Z " fill="#000000"/><text fill="#000000" font-family="sans-serif" font-size="14" font-weight="bold" lengthAdjust="spacing" textLength="186" x="36" y="70.291">TypeOptionWidgetBuilder</text><line style="stroke:#181818;stroke-width:0.5;" x1="8" x2="224" y1="81" y2="81"/><line style="stroke:#181818;stroke-width:0.5;" x1="8" x2="224" y1="89" y2="89"/></g><!--MD5=[9ec89c83a4a09f3e13c595ccc257a96f]
class TypeOptionDataController--><g id="elem_TypeOptionDataController"><rect fill="#F1F1F1" height="48" id="TypeOptionDataController" rx="2.5" ry="2.5" style="stroke:#181818;stroke-width:0.5;" width="223" x="568" y="90"/><ellipse cx="583" cy="106" fill="#ADD1B2" rx="11" ry="11" style="stroke:#181818;stroke-width:1.0;"/><path d="M585.4731,112.1431 Q584.8921,112.4419 584.2529,112.5913 Q583.6138,112.7407 582.9082,112.7407 Q580.4014,112.7407 579.0815,111.0889 Q577.7617,109.437 577.7617,106.3159 Q577.7617,103.1865 579.0815,101.5347 Q580.4014,99.8828 582.9082,99.8828 Q583.6138,99.8828 584.2612,100.0322 Q584.9087,100.1816 585.4731,100.4805 L585.4731,103.2031 Q584.8423,102.6221 584.2488,102.3523 Q583.6553,102.0825 583.0244,102.0825 Q581.6797,102.0825 580.9949,103.1492 Q580.3101,104.2158 580.3101,106.3159 Q580.3101,108.4077 580.9949,109.4744 Q581.6797,110.541 583.0244,110.541 Q583.6553,110.541 584.2488,110.2712 Q584.8423,110.0015 585.4731,109.4204 Z " fill="#000000"/><text fill="#000000" font-family="sans-serif" font-size="14" font-weight="bold" lengthAdjust="spacing" textLength="191" x="597" y="111.291">TypeOptionDataController</text><line style="stroke:#181818;stroke-width:0.5;" x1="569" x2="790" y1="122" y2="122"/><line style="stroke:#181818;stroke-width:0.5;" x1="569" x2="790" y1="130" y2="130"/></g><!--MD5=[d70f90063a6300a0c32d6374165eb967]
link TypeOptionWidgetBuilder to TypeOptionWidgetContext--><g id="link_TypeOptionWidgetBuilder_TypeOptionWidgetContext"><path codeLine="10" d="M225.07,73 C242.96,73 261.58,73 279.65,73 " fill="none" id="TypeOptionWidgetBuilder-to-TypeOptionWidgetContext" style="stroke:#181818;stroke-width:1.0;"/><polygon fill="#181818" points="284.73,73,275.73,69,279.73,73,275.73,77,284.73,73" style="stroke:#181818;stroke-width:1.0;"/></g><!--MD5=[27c1a005256b7ef84f2a6ba01c05d551]
link TypeOptionWidgetContext to TypeOptionDataController--><g id="link_TypeOptionWidgetContext_TypeOptionDataController"><path codeLine="11" d="M508.16,89.15 C526.12,91.77 544.78,94.49 562.86,97.13 " fill="none" id="TypeOptionWidgetContext-to-TypeOptionDataController" style="stroke:#181818;stroke-width:1.0;"/><polygon fill="#181818" points="567.95,97.87,559.6146,92.6239,563.0014,97.1549,558.4704,100.5417,567.95,97.87" style="stroke:#181818;stroke-width:1.0;"/></g><!--MD5=[560187eecb407f968e78ae5b12ab9743]
link TypeOptionDataController to IFieldTypeOptionLoader--><g id="link_TypeOptionDataController_IFieldTypeOptionLoader"><path codeLine="12" d="M791.13,114 C809.15,114 827.78,114 845.7,114 " fill="none" id="TypeOptionDataController-to-IFieldTypeOptionLoader" style="stroke:#181818;stroke-width:1.0;"/><polygon fill="#181818" points="850.73,114,841.73,110,845.73,114,841.73,118,850.73,114" style="stroke:#181818;stroke-width:1.0;"/></g><!--MD5=[4123a6d169d11f3a7f5174e9e2cafdf7]
link TypeOptionWidgetContext to TypeOptionDataParser--><g id="link_TypeOptionWidgetContext_TypeOptionDataParser"><path codeLine="13" d="M508.16,56.46 C530.72,53.09 554.35,49.56 576.59,46.23 " fill="none" id="TypeOptionWidgetContext-to-TypeOptionDataParser" style="stroke:#181818;stroke-width:1.0;"/><polygon fill="#181818" points="581.61,45.48,572.1229,42.8352,576.6634,46.2091,573.2895,50.7497,581.61,45.48" style="stroke:#181818;stroke-width:1.0;"/></g><!--MD5=[a8062626b765afd4a9dc03765a28a18a]
@startuml Field Type Option Widget Builder
skinparam classFontStyle Bold
skinparam ActivityBackgroundColor Silver
skinparam ActivityBorderColor DimGray
left to right direction

interface TypeOptionWidgetContext
interface TypeOptionDataParser
interface IFieldTypeOptionLoader

TypeOptionWidgetBuilder - -> TypeOptionWidgetContext
TypeOptionWidgetContext - -> TypeOptionDataController
TypeOptionDataController - -> IFieldTypeOptionLoader
TypeOptionWidgetContext - -> TypeOptionDataParser
@enduml

PlantUML version 1.2022.5(Sat Apr 30 18:55:52 CST 2022)
(GPL source distribution)
Java Runtime: OpenJDK Runtime Environment
JVM: OpenJDK 64-Bit Server VM
Default Encoding: UTF-8
Language: en
Country: US
--></g></svg>