<?xml version="1.0" encoding="UTF-8" standalone="no"?><svg xmlns="http://www.w3.org/2000/svg" xmlns:xlink="http://www.w3.org/1999/xlink" contentStyleType="text/css" height="145px" preserveAspectRatio="none" style="width:785px;height:145px;background:#FFFFFF;" version="1.1" viewBox="0 0 785 145" width="785px" zoomAndPan="magnify"><defs/><g><!--MD5=[6f511a4e207be08d0d6687f6e17b9ceb]
class TypeOptionWidgetContext--><g id="elem_TypeOptionWidgetContext"><rect codeLine="6" fill="#F1F1F1" height="48" id="TypeOptionWidgetContext" rx="2.5" ry="2.5" style="stroke:#181818;stroke-width:0.5;" width="223" x="7" y="49"/><ellipse cx="22" cy="65" fill="#B4A7E5" rx="11" ry="11" style="stroke:#181818;stroke-width:1.0;"/><path d="M18.4277,61.2651 L18.4277,59.1069 L25.8071,59.1069 L25.8071,61.2651 L23.3418,61.2651 L23.3418,69.3418 L25.8071,69.3418 L25.8071,71.5 L18.4277,71.5 L18.4277,69.3418 L20.8931,69.3418 L20.8931,61.2651 Z " fill="#000000"/><text fill="#000000" font-family="sans-serif" font-size="14" font-style="italic" font-weight="bold" lengthAdjust="spacing" textLength="191" x="36" y="70.291">TypeOptionWidgetContext</text><line style="stroke:#181818;stroke-width:0.5;" x1="8" x2="229" y1="81" y2="81"/><line style="stroke:#181818;stroke-width:0.5;" x1="8" x2="229" y1="89" y2="89"/></g><!--MD5=[1f144cc092e6ed242406a8d1767211ef]
class TypeOptionDataParser--><g id="elem_TypeOptionDataParser"><rect codeLine="7" fill="#F1F1F1" height="48" id="TypeOptionDataParser" rx="2.5" ry="2.5" style="stroke:#181818;stroke-width:0.5;" width="195" x="304" y="7"/><ellipse cx="319" cy="23" fill="#B4A7E5" rx="11" ry="11" style="stroke:#181818;stroke-width:1.0;"/><path d="M315.4277,19.2651 L315.4277,17.1069 L322.8071,17.1069 L322.8071,19.2651 L320.3418,19.2651 L320.3418,27.3418 L322.8071,27.3418 L322.8071,29.5 L315.4277,29.5 L315.4277,27.3418 L317.8931,27.3418 L317.8931,19.2651 Z " fill="#000000"/><text fill="#000000" font-family="sans-serif" font-size="14" font-style="italic" font-weight="bold" lengthAdjust="spacing" textLength="163" x="333" y="28.291">TypeOptionDataParser</text><line style="stroke:#181818;stroke-width:0.5;" x1="305" x2="498" y1="39" y2="39"/><line style="stroke:#181818;stroke-width:0.5;" x1="305" x2="498" y1="47" y2="47"/></g><!--MD5=[c48341880989299e1afa6503a57ddb77]
class IFieldTypeOptionLoader--><g id="elem_IFieldTypeOptionLoader"><rect codeLine="8" fill="#F1F1F1" height="48" id="IFieldTypeOptionLoader" rx="2.5" ry="2.5" style="stroke:#181818;stroke-width:0.5;" width="205" x="573" y="90"/><ellipse cx="588" cy="106" fill="#B4A7E5" rx="11" ry="11" style="stroke:#181818;stroke-width:1.0;"/><path d="M584.4277,102.2651 L584.4277,100.1069 L591.8071,100.1069 L591.8071,102.2651 L589.3418,102.2651 L589.3418,110.3418 L591.8071,110.3418 L591.8071,112.5 L584.4277,112.5 L584.4277,110.3418 L586.8931,110.3418 L586.8931,102.2651 Z " fill="#000000"/><text fill="#000000" font-family="sans-serif" font-size="14" font-style="italic" font-weight="bold" lengthAdjust="spacing" textLength="173" x="602" y="111.291">IFieldTypeOptionLoader</text><line style="stroke:#181818;stroke-width:0.5;" x1="574" x2="777" y1="122" y2="122"/><line style="stroke:#181818;stroke-width:0.5;" x1="574" x2="777" y1="130" y2="130"/></g><!--MD5=[9ec89c83a4a09f3e13c595ccc257a96f]
class TypeOptionDataController--><g id="elem_TypeOptionDataController"><rect fill="#F1F1F1" height="48" id="TypeOptionDataController" rx="2.5" ry="2.5" style="stroke:#181818;stroke-width:0.5;" width="223" x="290" y="90"/><ellipse cx="305" cy="106" fill="#ADD1B2" rx="11" ry="11" style="stroke:#181818;stroke-width:1.0;"/><path d="M307.4731,112.1431 Q306.8921,112.4419 306.2529,112.5913 Q305.6138,112.7407 304.9082,112.7407 Q302.4014,112.7407 301.0815,111.0889 Q299.7617,109.437 299.7617,106.3159 Q299.7617,103.1865 301.0815,101.5347 Q302.4014,99.8828 304.9082,99.8828 Q305.6138,99.8828 306.2612,100.0322 Q306.9087,100.1816 307.4731,100.4805 L307.4731,103.2031 Q306.8423,102.6221 306.2488,102.3523 Q305.6553,102.0825 305.0244,102.0825 Q303.6797,102.0825 302.9949,103.1492 Q302.3101,104.2158 302.3101,106.3159 Q302.3101,108.4077 302.9949,109.4744 Q303.6797,110.541 305.0244,110.541 Q305.6553,110.541 306.2488,110.2712 Q306.8423,110.0015 307.4731,109.4204 Z " fill="#000000"/><text fill="#000000" font-family="sans-serif" font-size="14" font-weight="bold" lengthAdjust="spacing" textLength="191" x="319" y="111.291">TypeOptionDataController</text><line style="stroke:#181818;stroke-width:0.5;" x1="291" x2="512" y1="122" y2="122"/><line style="stroke:#181818;stroke-width:0.5;" x1="291" x2="512" y1="130" y2="130"/></g><!--MD5=[27c1a005256b7ef84f2a6ba01c05d551]
link TypeOptionWidgetContext to TypeOptionDataController--><g id="link_TypeOptionWidgetContext_TypeOptionDataController"><path codeLine="10" d="M230.16,89.15 C248.12,91.77 266.78,94.49 284.86,97.13 " fill="none" id="TypeOptionWidgetContext-to-TypeOptionDataController" style="stroke:#181818;stroke-width:1.0;"/><polygon fill="#181818" points="289.95,97.87,281.6146,92.6239,285.0014,97.1549,280.4704,100.5417,289.95,97.87" style="stroke:#181818;stroke-width:1.0;"/></g><!--MD5=[560187eecb407f968e78ae5b12ab9743]
link TypeOptionDataController to IFieldTypeOptionLoader--><g id="link_TypeOptionDataController_IFieldTypeOptionLoader"><path codeLine="11" d="M513.13,114 C531.15,114 549.78,114 567.7,114 " fill="none" id="TypeOptionDataController-to-IFieldTypeOptionLoader" style="stroke:#181818;stroke-width:1.0;"/><polygon fill="#181818" points="572.73,114,563.73,110,567.73,114,563.73,118,572.73,114" style="stroke:#181818;stroke-width:1.0;"/></g><!--MD5=[4123a6d169d11f3a7f5174e9e2cafdf7]
link TypeOptionWidgetContext to TypeOptionDataParser--><g id="link_TypeOptionWidgetContext_TypeOptionDataParser"><path codeLine="12" d="M230.16,56.46 C252.72,53.09 276.35,49.56 298.59,46.23 " fill="none" id="TypeOptionWidgetContext-to-TypeOptionDataParser" style="stroke:#181818;stroke-width:1.0;"/><polygon fill="#181818" points="303.61,45.48,294.1229,42.8352,298.6634,46.2091,295.2895,50.7497,303.61,45.48" style="stroke:#181818;stroke-width:1.0;"/></g><!--MD5=[1e1ffdb9b336f7c0d3b5326176421719]
@startuml Field Type Option Widget Builder
skinparam classFontStyle Bold
skinparam ActivityBackgroundColor Silver
skinparam ActivityBorderColor DimGray
left to right direction

interface TypeOptionWidgetContext
interface TypeOptionDataParser
interface IFieldTypeOptionLoader

TypeOptionWidgetContext - -> TypeOptionDataController
TypeOptionDataController - -> IFieldTypeOptionLoader
TypeOptionWidgetContext - -> TypeOptionDataParser
@enduml

PlantUML version 1.2022.5(Sat Apr 30 18:55:52 CST 2022)
(GPL source distribution)
Java Runtime: OpenJDK Runtime Environment
JVM: OpenJDK 64-Bit Server VM
Default Encoding: UTF-8
Language: en
Country: US
--></g></svg>