<?xml version="1.0" encoding="UTF-8" standalone="no"?><svg xmlns="http://www.w3.org/2000/svg" xmlns:xlink="http://www.w3.org/1999/xlink" contentScriptType="application/ecmascript" contentStyleType="text/css" height="110px" preserveAspectRatio="none" style="width:892px;height:110px;background:#FFFFFF;" version="1.1" viewBox="0 0 892 110" width="892px" zoomAndPan="magnify"><defs><filter height="300%" id="f4mcv762nvseh" width="300%" x="-1" y="-1"><feGaussianBlur result="blurOut" stdDeviation="2.0"/><feColorMatrix in="blurOut" result="blurOut2" type="matrix" values="0 0 0 0 0 0 0 0 0 0 0 0 0 0 0 0 0 0 .4 0"/><feOffset dx="4.0" dy="4.0" in="blurOut2" result="blurOut3"/><feBlend in="SourceGraphic" in2="blurOut3" mode="normal"/></filter></defs><g><!--MD5=[b24267d2964530fde97dbe32f532d632]
cluster Front-end (Flutter)--><polygon fill="#DDDDDD" filter="url(#f4mcv762nvseh)" points="16,6,158,6,165,28.4883,356,28.4883,356,103,16,103,16,6" style="stroke:#000000;stroke-width:1.5;"/><line style="stroke:#000000;stroke-width:1.5;" x1="16" x2="165" y1="28.4883" y2="28.4883"/><text fill="#000000" font-family="sans-serif" font-size="14" font-weight="bold" lengthAdjust="spacing" textLength="136" x="20" y="21.5352">Front-end (Flutter)</text><!--MD5=[dda78dbc42a958268ede67472bfec7a7]
cluster Back-end (Rust)--><polygon fill="#DDDDDD" filter="url(#f4mcv762nvseh)" points="445,6,567,6,574,28.4883,875,28.4883,875,103,445,103,445,6" style="stroke:#000000;stroke-width:1.5;"/><line style="stroke:#000000;stroke-width:1.5;" x1="445" x2="574" y1="28.4883" y2="28.4883"/><text fill="#000000" font-family="sans-serif" font-size="14" font-weight="bold" lengthAdjust="spacing" textLength="116" x="449" y="21.5352">Back-end (Rust)</text><!--MD5=[edccc82bdba4a765388b0a1a4a8815e4]
entity Repository_A--><rect fill="#FEFECE" filter="url(#f4mcv762nvseh)" height="46.4883" style="stroke:#A80036;stroke-width:1.5;" width="127" x="32" y="41"/><rect fill="#FEFECE" height="10" style="stroke:#A80036;stroke-width:1.5;" width="15" x="139" y="46"/><rect fill="#FEFECE" height="2" style="stroke:#A80036;stroke-width:1.5;" width="4" x="137" y="48"/><rect fill="#FEFECE" height="2" style="stroke:#A80036;stroke-width:1.5;" width="4" x="137" y="52"/><text fill="#000000" font-family="sans-serif" font-size="14" lengthAdjust="spacing" textLength="87" x="47" y="74.5352">Repository A</text><!--MD5=[78e0d1133500ea5a75200a919f68dfaf]
entity FFI_Frontend--><rect fill="#FFDDDD" filter="url(#f4mcv762nvseh)" height="46.4883" style="stroke:#A80036;stroke-width:1.5;" width="60" x="280" y="41"/><rect fill="#FFDDDD" height="10" style="stroke:#A80036;stroke-width:1.5;" width="15" x="320" y="46"/><rect fill="#FFDDDD" height="2" style="stroke:#A80036;stroke-width:1.5;" width="4" x="318" y="48"/><rect fill="#FFDDDD" height="2" style="stroke:#A80036;stroke-width:1.5;" width="4" x="318" y="52"/><text fill="#000000" font-family="sans-serif" font-size="14" lengthAdjust="spacing" textLength="20" x="295" y="74.5352">FFI</text><!--MD5=[179e2604d0e0114e09ff0fc2b2cdbe9a]
entity FFI_Backend--><rect fill="#FFDDDD" filter="url(#f4mcv762nvseh)" height="46.4883" style="stroke:#A80036;stroke-width:1.5;" width="60" x="461" y="41"/><rect fill="#FFDDDD" height="10" style="stroke:#A80036;stroke-width:1.5;" width="15" x="501" y="46"/><rect fill="#FFDDDD" height="2" style="stroke:#A80036;stroke-width:1.5;" width="4" x="499" y="48"/><rect fill="#FFDDDD" height="2" style="stroke:#A80036;stroke-width:1.5;" width="4" x="499" y="52"/><text fill="#000000" font-family="sans-serif" font-size="14" lengthAdjust="spacing" textLength="20" x="476" y="74.5352">FFI</text><!--MD5=[8438b603195005c18d5011c1879083f4]
entity Dispatcher--><rect fill="#FEFECE" filter="url(#f4mcv762nvseh)" height="46.4883" style="stroke:#A80036;stroke-width:1.5;" width="113" x="581" y="41"/><rect fill="#FEFECE" height="10" style="stroke:#A80036;stroke-width:1.5;" width="15" x="674" y="46"/><rect fill="#FEFECE" height="2" style="stroke:#A80036;stroke-width:1.5;" width="4" x="672" y="48"/><rect fill="#FEFECE" height="2" style="stroke:#A80036;stroke-width:1.5;" width="4" x="672" y="52"/><text fill="#000000" font-family="sans-serif" font-size="14" lengthAdjust="spacing" textLength="73" x="596" y="74.5352">Dispatcher</text><!--MD5=[fc493e3577618d38670513b02ed5e2ad]
entity Module_A--><rect fill="#FEFECE" filter="url(#f4mcv762nvseh)" height="46.4883" style="stroke:#A80036;stroke-width:1.5;" width="105" x="754" y="41"/><rect fill="#FEFECE" height="10" style="stroke:#A80036;stroke-width:1.5;" width="15" x="839" y="46"/><rect fill="#FEFECE" height="2" style="stroke:#A80036;stroke-width:1.5;" width="4" x="837" y="48"/><rect fill="#FEFECE" height="2" style="stroke:#A80036;stroke-width:1.5;" width="4" x="837" y="52"/><text fill="#000000" font-family="sans-serif" font-size="14" lengthAdjust="spacing" textLength="65" x="769" y="74.5352">Module A</text><!--MD5=[d3ed70bb055e73f87b6aba5d536448df]
link Repository_A to FFI_Frontend--><path d="M159.28,64 C159.28,64 274.85,64 274.85,64 " fill="none" id="Repository_A-to-FFI_Frontend" style="stroke:#A80036;stroke-width:1.0;stroke-dasharray:7.0,7.0;"/><polygon fill="#A80036" points="279.85,64,270.85,60,274.85,64,270.85,68,279.85,64" style="stroke:#A80036;stroke-width:1.0;"/><text fill="#000000" font-family="sans-serif" font-size="13" lengthAdjust="spacing" textLength="34" x="182.07" y="77.5684">Event</text><!--MD5=[4de8113ca68441e6ab054604d393395d]
link FFI_Frontend to FFI_Backend--><path d="M345.3,64 C345.3,64 455.91,64 455.91,64 " fill="none" id="FFI_Frontend-FFI_Backend" style="stroke:#A80036;stroke-width:1.0;"/><polygon fill="#A80036" points="460.91,64,451.91,60,455.91,64,451.91,68,460.91,64" style="stroke:#A80036;stroke-width:1.0;"/><polygon fill="#A80036" points="340.3,64,349.3,68,345.3,64,349.3,60,340.3,64" style="stroke:#A80036;stroke-width:1.0;"/><text fill="#000000" font-family="sans-serif" font-size="13" lengthAdjust="spacing" textLength="54" x="345.6" y="77.5684">Protobuf</text><!--MD5=[4995e94678fa022b3b0236d8d155fc5d]
link FFI_Backend to Dispatcher--><path d="M521.35,64 C521.35,64 575.83,64 575.83,64 " fill="none" id="FFI_Backend-to-Dispatcher" style="stroke:#A80036;stroke-width:1.0;"/><polygon fill="#A80036" points="580.83,64,571.83,60,575.83,64,571.83,68,580.83,64" style="stroke:#A80036;stroke-width:1.0;"/><!--MD5=[6dd3b7f7c66a1990096cf821edf432e2]
link Dispatcher to Module_A--><path d="M694.24,64 C694.24,64 748.9,64 748.9,64 " fill="none" id="Dispatcher-to-Module_A" style="stroke:#A80036;stroke-width:1.0;"/><polygon fill="#A80036" points="753.9,64,744.9,60,748.9,64,744.9,68,753.9,64" style="stroke:#A80036;stroke-width:1.0;"/><!--MD5=[49af60654ec85ac391b072e1bd431262]
@startuml FlowySDKProtocolBuffer
left to right direction
skinparam linetype ortho

package "Front-end (Flutter)" #DDDDDD {
    component Repository_A as "Repository A"
    component FFI_Frontend as "FFI" #FFDDDD
}

package "Back-end (Rust)" #DDDDDD {
    component FFI_Backend as "FFI" #FFDDDD
    component Dispatcher
    component Module_A as "Module A"
}

Repository_A ...> FFI_Frontend : Event
FFI_Frontend <- - -> FFI_Backend : Protobuf
FFI_Backend - -> Dispatcher
Dispatcher - -> Module_A

@enduml

PlantUML version 1.2022.0(Wed Jan 12 00:16:42 CST 2022)
(GPL source distribution)
Java Runtime: OpenJDK Runtime Environment
JVM: OpenJDK 64-Bit Server VM
Default Encoding: UTF-8
Language: en
Country: US
--></g></svg>