<?xml version="1.0" encoding="UTF-8" standalone="no"?><svg xmlns="http://www.w3.org/2000/svg" xmlns:xlink="http://www.w3.org/1999/xlink" contentScriptType="application/ecmascript" contentStyleType="text/css" height="599px" preserveAspectRatio="none" style="width:1406px;height:599px;background:#FFFFFF;" version="1.1" viewBox="0 0 1406 599" width="1406px" zoomAndPan="magnify"><defs><filter height="300%" id="fx97t26i7odj3" width="300%" x="-1" y="-1"><feGaussianBlur result="blurOut" stdDeviation="2.0"/><feColorMatrix in="blurOut" result="blurOut2" type="matrix" values="0 0 0 0 0 0 0 0 0 0 0 0 0 0 0 0 0 0 .4 0"/><feOffset dx="4.0" dy="4.0" in="blurOut2" result="blurOut3"/><feBlend in="SourceGraphic" in2="blurOut3" mode="normal"/></filter></defs><g><text fill="#000000" font-family="sans-serif" font-size="18" lengthAdjust="spacing" textLength="226" x="583.5" y="17.4023">Protobuf Code Generation</text><!--MD5=[9ac7a205795c53aee153cf1f5d6f7d8a]
cluster Part_One--><rect fill="#FFFFFF" filter="url(#fx97t26i7odj3)" height="559" style="stroke:#000000;stroke-width:1.5;" width="656" x="7" y="28.1992"/><path d="M82,28.1992 L82,37.6875 L72,47.6875 L7,47.6875 " fill="none" style="stroke:#000000;stroke-width:1.5;"/><text fill="#000000" font-family="sans-serif" font-size="14" font-weight="bold" lengthAdjust="spacing" textLength="65" x="10" y="42.7344">Part_One</text><!--MD5=[7a53db9ccc194c46da066af3f6ad1ff0]
cluster Event--><polygon fill="#DDDDDD" filter="url(#fx97t26i7odj3)" points="471,81.1992,481,71.1992,639,71.1992,639,295.1992,629,305.1992,471,305.1992,471,81.1992" style="stroke:#000000;stroke-width:1.5;"/><line style="stroke:#000000;stroke-width:1.5;" x1="629" x2="639" y1="81.1992" y2="71.1992"/><line style="stroke:#000000;stroke-width:1.5;" x1="471" x2="629" y1="81.1992" y2="81.1992"/><line style="stroke:#000000;stroke-width:1.5;" x1="629" x2="629" y1="81.1992" y2="305.1992"/><text fill="#000000" font-family="sans-serif" font-size="14" font-weight="bold" lengthAdjust="spacing" textLength="39" x="531.5" y="97.7344">Event</text><!--MD5=[b44a8a9a23e117b660d0c393c238cc3d]
cluster Protobuf--><polygon fill="#DDDDDD" filter="url(#fx97t26i7odj3)" points="486,339.1992,496,329.1992,625,329.1992,625,553.1992,615,563.1992,486,563.1992,486,339.1992" style="stroke:#000000;stroke-width:1.5;"/><line style="stroke:#000000;stroke-width:1.5;" x1="615" x2="625" y1="339.1992" y2="329.1992"/><line style="stroke:#000000;stroke-width:1.5;" x1="486" x2="615" y1="339.1992" y2="339.1992"/><line style="stroke:#000000;stroke-width:1.5;" x1="615" x2="615" y1="339.1992" y2="563.1992"/><text fill="#000000" font-family="sans-serif" font-size="14" font-weight="bold" lengthAdjust="spacing" textLength="63" x="520" y="355.7344">Protobuf</text><!--MD5=[123d366420e849c8f3991dca83101960]
cluster Part_Two--><rect fill="#FFFFFF" filter="url(#fx97t26i7odj3)" height="169" style="stroke:#000000;stroke-width:1.5;" width="231" x="687" y="223.1992"/><path d="M764,223.1992 L764,232.6875 L754,242.6875 L687,242.6875 " fill="none" style="stroke:#000000;stroke-width:1.5;"/><text fill="#000000" font-family="sans-serif" font-size="14" font-weight="bold" lengthAdjust="spacing" textLength="67" x="690" y="237.7344">Part_Two</text><!--MD5=[797b0f0b9fce6e4f10568bb80a59a4d1]
cluster Build.rs--><polygon fill="#DDDDDD" filter="url(#fx97t26i7odj3)" points="711,276.1992,721,266.1992,894,266.1992,894,358.1992,884,368.1992,711,368.1992,711,276.1992" style="stroke:#000000;stroke-width:1.5;"/><line style="stroke:#000000;stroke-width:1.5;" x1="884" x2="894" y1="276.1992" y2="266.1992"/><line style="stroke:#000000;stroke-width:1.5;" x1="711" x2="884" y1="276.1992" y2="276.1992"/><line style="stroke:#000000;stroke-width:1.5;" x1="884" x2="884" y1="276.1992" y2="368.1992"/><text fill="#000000" font-family="sans-serif" font-size="14" font-weight="bold" lengthAdjust="spacing" textLength="54" x="771.5" y="292.7344">Build.rs</text><!--MD5=[95d34daf5d5b30a3db480537cb76cd6f]
cluster Part_Three--><rect fill="#FFFFFF" filter="url(#fx97t26i7odj3)" height="407" style="stroke:#000000;stroke-width:1.5;" width="228" x="942" y="86.1992"/><path d="M1029,86.1992 L1029,95.6875 L1019,105.6875 L942,105.6875 " fill="none" style="stroke:#000000;stroke-width:1.5;"/><text fill="#000000" font-family="sans-serif" font-size="14" font-weight="bold" lengthAdjust="spacing" textLength="77" x="945" y="100.7344">Part_Three</text><!--MD5=[c6cdad425a53e4290e936fe4454abfe6]
cluster Protobuf_Files_Dart--><rect fill="#DDDDDD" filter="url(#fx97t26i7odj3)" height="158" style="stroke:#000000;stroke-width:1.5;" width="180" x="966" y="129.1992"/><rect fill="#DDDDDD" height="10" style="stroke:#000000;stroke-width:1.5;" width="15" x="1126" y="134.1992"/><rect fill="#DDDDDD" height="2" style="stroke:#000000;stroke-width:1.5;" width="4" x="1124" y="136.1992"/><rect fill="#DDDDDD" height="2" style="stroke:#000000;stroke-width:1.5;" width="4" x="1124" y="140.1992"/><text fill="#000000" font-family="sans-serif" font-size="14" font-weight="bold" lengthAdjust="spacing" textLength="102" x="1005" y="155.7344">Protobuf Files</text><!--MD5=[0c3ba85bfe9d6ba64bfbae4109da567e]
cluster Protobuf_Files_Rust--><rect fill="#DDDDDD" filter="url(#fx97t26i7odj3)" height="158" style="stroke:#000000;stroke-width:1.5;" width="143" x="984.5" y="311.1992"/><rect fill="#DDDDDD" height="10" style="stroke:#000000;stroke-width:1.5;" width="15" x="1107.5" y="316.1992"/><rect fill="#DDDDDD" height="2" style="stroke:#000000;stroke-width:1.5;" width="4" x="1105.5" y="318.1992"/><rect fill="#DDDDDD" height="2" style="stroke:#000000;stroke-width:1.5;" width="4" x="1105.5" y="322.1992"/><text fill="#000000" font-family="sans-serif" font-size="14" font-weight="bold" lengthAdjust="spacing" textLength="102" x="1005" y="337.7344">Protobuf Files</text><!--MD5=[93488fcf415543107cf8dac8ebf893ba]
cluster Part_Four--><rect fill="#FFFFFF" filter="url(#fx97t26i7odj3)" height="285" style="stroke:#000000;stroke-width:1.5;" width="200" x="1194" y="147.1992"/><path d="M1272,147.1992 L1272,156.6875 L1262,166.6875 L1194,166.6875 " fill="none" style="stroke:#000000;stroke-width:1.5;"/><text fill="#000000" font-family="sans-serif" font-size="14" font-weight="bold" lengthAdjust="spacing" textLength="68" x="1197" y="161.7344">Part_Four</text><!--MD5=[b24267d2964530fde97dbe32f532d632]
cluster Front-end (Flutter)--><polygon fill="#DDDDDD" filter="url(#fx97t26i7odj3)" points="1218,190.1992,1360,190.1992,1367,212.6875,1370,212.6875,1370,287.1992,1218,287.1992,1218,190.1992" style="stroke:#000000;stroke-width:1.5;"/><line style="stroke:#000000;stroke-width:1.5;" x1="1218" x2="1367" y1="212.6875" y2="212.6875"/><text fill="#000000" font-family="sans-serif" font-size="14" font-weight="bold" lengthAdjust="spacing" textLength="136" x="1222" y="205.7344">Front-end (Flutter)</text><!--MD5=[dda78dbc42a958268ede67472bfec7a7]
cluster Back-end (Rust)--><polygon fill="#DDDDDD" filter="url(#fx97t26i7odj3)" points="1228,311.1992,1350,311.1992,1357,333.6875,1360,333.6875,1360,408.1992,1228,408.1992,1228,311.1992" style="stroke:#000000;stroke-width:1.5;"/><line style="stroke:#000000;stroke-width:1.5;" x1="1228" x2="1357" y1="333.6875" y2="333.6875"/><text fill="#000000" font-family="sans-serif" font-size="14" font-weight="bold" lengthAdjust="spacing" textLength="116" x="1232" y="326.7344">Back-end (Rust)</text><path d="M23,235.6992 L23,306.9414 A0,0 0 0 0 23,306.9414 L418,306.9414 A0,0 0 0 0 418,306.9414 L418,275.1992 L499.43,271.1992 L418,267.1992 L418,245.6992 L408,235.6992 L23,235.6992 A0,0 0 0 0 23,235.6992 " fill="#FBFB77" filter="url(#fx97t26i7odj3)" style="stroke:#A80036;stroke-width:1.0;"/><path d="M408,235.6992 L408,245.6992 L418,245.6992 L408,235.6992 " fill="#FBFB77" style="stroke:#A80036;stroke-width:1.0;"/><text fill="#000000" font-family="sans-serif" font-size="13" lengthAdjust="spacing" textLength="120" x="29" y="253.2676">enum FolderEvent {</text><text fill="#000000" font-family="sans-serif" font-size="13" lengthAdjust="spacing" textLength="358" x="45" y="268.5781">#[event(input = "ExportRequest", output = "ExportData")]</text><text fill="#000000" font-family="sans-serif" font-size="13" lengthAdjust="spacing" textLength="136" x="45" y="283.8887">ExportDocument = 0,</text><text fill="#000000" font-family="sans-serif" font-size="13" lengthAdjust="spacing" textLength="4" x="29" y="299.1992">}</text><path d="M109,453.6992 L109,570.873 A0,0 0 0 0 109,570.873 L332,570.873 A0,0 0 0 0 332,570.873 L332,521.8592 L517.48,527.3292 L332,513.8592 L332,463.6992 L322,453.6992 L109,453.6992 A0,0 0 0 0 109,453.6992 " fill="#FBFB77" filter="url(#fx97t26i7odj3)" style="stroke:#A80036;stroke-width:1.0;"/><path d="M322,453.6992 L322,463.6992 L332,463.6992 L322,453.6992 " fill="#FBFB77" style="stroke:#A80036;stroke-width:1.0;"/><text fill="#000000" font-family="sans-serif" font-size="13" lengthAdjust="spacing" textLength="119" x="115" y="471.2676">struct ExportData {</text><text fill="#000000" font-family="sans-serif" font-size="13" lengthAdjust="spacing" textLength="101" x="131" y="486.5781">#[pb(index = 1)]</text><text fill="#000000" font-family="sans-serif" font-size="13" lengthAdjust="spacing" textLength="104" x="131" y="501.8887">pub data: String,</text><text fill="#000000" font-family="sans-serif" font-size="13" lengthAdjust="spacing" textLength="0" x="119" y="517.1992"/><text fill="#000000" font-family="sans-serif" font-size="13" lengthAdjust="spacing" textLength="101" x="131" y="532.5098">#[pb(index = 2)]</text><text fill="#000000" font-family="sans-serif" font-size="13" lengthAdjust="spacing" textLength="186" x="131" y="547.8203">pub export_type: ExportType,</text><text fill="#000000" font-family="sans-serif" font-size="13" lengthAdjust="spacing" textLength="4" x="115" y="563.1309">}</text><!--MD5=[8c5837f77ad61418129a059f73895239]
entity EventSource--><polygon fill="#FFDDDD" filter="url(#fx97t26i7odj3)" points="499.5,253.1992,499.5,289.6875,610.5,289.6875,610.5,263.1992,600.5,253.1992,499.5,253.1992" style="stroke:#000000;stroke-width:1.5;"/><path d="M600.5,253.1992 L600.5,263.1992 L610.5,263.1992 " fill="#FFDDDD" style="stroke:#000000;stroke-width:1.5;"/><text fill="#000000" font-family="sans-serif" font-size="14" lengthAdjust="spacing" textLength="91" x="509.5" y="276.7344">event_map.rs</text><!--MD5=[134ad0d61f2d87d0a74460b529eb51cf]
entity EventCodeGen--><polygon fill="#FFDDDD" filter="url(#fx97t26i7odj3)" points="519,182.1992,519,218.6875,591,218.6875,591,192.1992,581,182.1992,519,182.1992" style="stroke:#000000;stroke-width:1.5;"/><path d="M581,182.1992 L581,192.1992 L591,192.1992 " fill="#FFDDDD" style="stroke:#000000;stroke-width:1.5;"/><text fill="#000000" font-family="sans-serif" font-size="14" lengthAdjust="spacing" textLength="52" x="529" y="205.7344">build.rs</text><!--MD5=[c7b7b7a44a4bb769302a0d681df827ac]
entity EventDefine--><polygon fill="#FFDDDD" filter="url(#fx97t26i7odj3)" points="487,111.1992,487,147.6875,623,147.6875,623,121.1992,613,111.1992,487,111.1992" style="stroke:#000000;stroke-width:1.5;"/><path d="M613,111.1992 L613,121.1992 L623,121.1992 " fill="#FFDDDD" style="stroke:#000000;stroke-width:1.5;"/><text fill="#000000" font-family="sans-serif" font-size="14" lengthAdjust="spacing" textLength="116" x="497" y="134.7344">event_map.proto</text><!--MD5=[0312c884275267320a5163b7df1c935b]
entity PBSource--><polygon fill="#FFDDDD" filter="url(#fx97t26i7odj3)" points="517.5,511.1992,517.5,547.6875,592.5,547.6875,592.5,521.1992,582.5,511.1992,517.5,511.1992" style="stroke:#000000;stroke-width:1.5;"/><path d="M582.5,511.1992 L582.5,521.1992 L592.5,521.1992 " fill="#FFDDDD" style="stroke:#000000;stroke-width:1.5;"/><text fill="#000000" font-family="sans-serif" font-size="14" lengthAdjust="spacing" textLength="55" x="527.5" y="534.7344">share.rs</text><!--MD5=[f6582b33e3b36b5978205c835fbee9c3]
entity PBCodeGen--><polygon fill="#FFDDDD" filter="url(#fx97t26i7odj3)" points="519,440.1992,519,476.6875,591,476.6875,591,450.1992,581,440.1992,519,440.1992" style="stroke:#000000;stroke-width:1.5;"/><path d="M581,440.1992 L581,450.1992 L591,450.1992 " fill="#FFDDDD" style="stroke:#000000;stroke-width:1.5;"/><text fill="#000000" font-family="sans-serif" font-size="14" lengthAdjust="spacing" textLength="52" x="529" y="463.7344">build.rs</text><!--MD5=[5cbde59b9862f67d0f0cd3924c8b51f0]
entity PBDefine--><polygon fill="#FFDDDD" filter="url(#fx97t26i7odj3)" points="505,369.1992,505,405.6875,605,405.6875,605,379.1992,595,369.1992,505,369.1992" style="stroke:#000000;stroke-width:1.5;"/><path d="M595,369.1992 L595,379.1992 L605,379.1992 " fill="#FFDDDD" style="stroke:#000000;stroke-width:1.5;"/><text fill="#000000" font-family="sans-serif" font-size="14" lengthAdjust="spacing" textLength="80" x="515" y="392.7344">share.proto</text><!--MD5=[6be6168b6d2c053508892e3f05d497a7]
entity Builder--><rect fill="#F7931E" filter="url(#fx97t26i7odj3)" height="46.4883" style="stroke:#A80036;stroke-width:1.5;" width="151" x="727" y="306.1992"/><rect fill="#F7931E" height="10" style="stroke:#A80036;stroke-width:1.5;" width="15" x="858" y="311.1992"/><rect fill="#F7931E" height="2" style="stroke:#A80036;stroke-width:1.5;" width="4" x="856" y="313.1992"/><rect fill="#F7931E" height="2" style="stroke:#A80036;stroke-width:1.5;" width="4" x="856" y="317.1992"/><text fill="#000000" font-family="sans-serif" font-size="14" lengthAdjust="spacing" textLength="111" x="742" y="339.7344">Protoc Compiler</text><!--MD5=[ea6b2fd6a43e9d24fce94b6e51337f9b]
entity dart_event--><polygon fill="#FFDDDD" filter="url(#fx97t26i7odj3)" points="982,235.1992,982,271.6875,1130,271.6875,1130,245.1992,1120,235.1992,982,235.1992" style="stroke:#000000;stroke-width:1.5;"/><path d="M1120,235.1992 L1120,245.1992 L1130,245.1992 " fill="#FFDDDD" style="stroke:#000000;stroke-width:1.5;"/><text fill="#000000" font-family="sans-serif" font-size="14" lengthAdjust="spacing" textLength="128" x="992" y="258.7344">event_map.pb.dart</text><!--MD5=[921fa1d0995e300241b21d7093e59f2c]
entity dart_pb--><polygon fill="#FFDDDD" filter="url(#fx97t26i7odj3)" points="1000,164.1992,1000,200.6875,1112,200.6875,1112,174.1992,1102,164.1992,1000,164.1992" style="stroke:#000000;stroke-width:1.5;"/><path d="M1102,164.1992 L1102,174.1992 L1112,174.1992 " fill="#FFDDDD" style="stroke:#000000;stroke-width:1.5;"/><text fill="#000000" font-family="sans-serif" font-size="14" lengthAdjust="spacing" textLength="92" x="1010" y="187.7344">share.pb.dart</text><!--MD5=[96e2a2c4560a7e38d83c571b1180744a]
entity rust_event--><polygon fill="#FFDDDD" filter="url(#fx97t26i7odj3)" points="1000.5,417.1992,1000.5,453.6875,1111.5,453.6875,1111.5,427.1992,1101.5,417.1992,1000.5,417.1992" style="stroke:#000000;stroke-width:1.5;"/><path d="M1101.5,417.1992 L1101.5,427.1992 L1111.5,427.1992 " fill="#FFDDDD" style="stroke:#000000;stroke-width:1.5;"/><text fill="#000000" font-family="sans-serif" font-size="14" lengthAdjust="spacing" textLength="91" x="1010.5" y="440.7344">event_map.rs</text><!--MD5=[e35d75fda48948c0c1bd5e726bdbde16]
entity rust_pb--><polygon fill="#FFDDDD" filter="url(#fx97t26i7odj3)" points="1018.5,346.1992,1018.5,382.6875,1093.5,382.6875,1093.5,356.1992,1083.5,346.1992,1018.5,346.1992" style="stroke:#000000;stroke-width:1.5;"/><path d="M1083.5,346.1992 L1083.5,356.1992 L1093.5,356.1992 " fill="#FFDDDD" style="stroke:#000000;stroke-width:1.5;"/><text fill="#000000" font-family="sans-serif" font-size="14" lengthAdjust="spacing" textLength="55" x="1028.5" y="369.7344">share.rs</text><!--MD5=[4e260e4024c27e03c495c33059d2b5ff]
entity Repository--><rect fill="#FEFECE" filter="url(#fx97t26i7odj3)" height="46.4883" style="stroke:#A80036;stroke-width:1.5;" width="113" x="1237" y="225.1992"/><rect fill="#FEFECE" height="10" style="stroke:#A80036;stroke-width:1.5;" width="15" x="1330" y="230.1992"/><rect fill="#FEFECE" height="2" style="stroke:#A80036;stroke-width:1.5;" width="4" x="1328" y="232.1992"/><rect fill="#FEFECE" height="2" style="stroke:#A80036;stroke-width:1.5;" width="4" x="1328" y="236.1992"/><text fill="#000000" font-family="sans-serif" font-size="14" lengthAdjust="spacing" textLength="73" x="1252" y="258.7344">Repository</text><!--MD5=[32a6d3b508021f5875dd65aaa7b12f72]
entity Module--><rect fill="#FEFECE" filter="url(#fx97t26i7odj3)" height="46.4883" style="stroke:#A80036;stroke-width:1.5;" width="91" x="1248" y="346.1992"/><rect fill="#FEFECE" height="10" style="stroke:#A80036;stroke-width:1.5;" width="15" x="1319" y="351.1992"/><rect fill="#FEFECE" height="2" style="stroke:#A80036;stroke-width:1.5;" width="4" x="1317" y="353.1992"/><rect fill="#FEFECE" height="2" style="stroke:#A80036;stroke-width:1.5;" width="4" x="1317" y="357.1992"/><text fill="#000000" font-family="sans-serif" font-size="14" lengthAdjust="spacing" textLength="51" x="1263" y="379.7344">Module</text><!--MD5=[7bbae99804f933e2cfd5635508782a18]
link EventSource to EventCodeGen--><path d="M555,253.0192 C555,249.8392 555,247.5292 555,247.5292 C555,247.5292 555,223.8692 555,223.8692 C555,223.8692 555,223.7192 555,223.4592 " fill="none" id="EventSource-to-EventCodeGen" style="stroke:#A80036;stroke-width:1.0;"/><polygon fill="#A80036" points="555,218.3792,551,227.3792,555,223.3792,559,227.3792,555,218.3792" style="stroke:#A80036;stroke-width:1.0;"/><!--MD5=[a5bef84aceeb31fda65b127336877e97]
link EventCodeGen to EventDefine--><path d="M555,182.0192 C555,178.8392 555,176.5292 555,176.5292 C555,176.5292 555,152.8692 555,152.8692 C555,152.8692 555,152.7192 555,152.4592 " fill="none" id="EventCodeGen-to-EventDefine" style="stroke:#A80036;stroke-width:1.0;"/><polygon fill="#A80036" points="555,147.3792,551,156.3792,555,152.3792,559,156.3792,555,147.3792" style="stroke:#A80036;stroke-width:1.0;"/><!--MD5=[52c76e1142e682dc8fde9e5c46afeaed]
link PBSource to PBCodeGen--><path d="M555,511.0192 C555,507.8392 555,505.5292 555,505.5292 C555,505.5292 555,481.8692 555,481.8692 C555,481.8692 555,481.7192 555,481.4592 " fill="none" id="PBSource-to-PBCodeGen" style="stroke:#A80036;stroke-width:1.0;"/><polygon fill="#A80036" points="555,476.3792,551,485.3792,555,481.3792,559,485.3792,555,476.3792" style="stroke:#A80036;stroke-width:1.0;"/><!--MD5=[fab9561cc20a7121af96a687619ac95d]
link PBCodeGen to PBDefine--><path d="M555,440.0192 C555,436.8392 555,434.5292 555,434.5292 C555,434.5292 555,410.8692 555,410.8692 C555,410.8692 555,410.7192 555,410.4592 " fill="none" id="PBCodeGen-to-PBDefine" style="stroke:#A80036;stroke-width:1.0;"/><polygon fill="#A80036" points="555,405.3792,551,414.3792,555,410.3792,559,414.3792,555,405.3792" style="stroke:#A80036;stroke-width:1.0;"/><!--MD5=[c2e39d4ff537e18da74a6578ed55c362]
link EventDefine to Builder--><path d="M615.18,147.2092 C643.36,155.7892 671,164.1992 671,164.1992 C671,164.1992 742.71,254.8692 779.82,301.7892 " fill="none" id="EventDefine-to-Builder" style="stroke:#0000FF;stroke-width:1.0;"/><polygon fill="#0000FF" points="783.08,305.9092,780.6281,296.3705,779.9758,301.9896,774.3566,301.3372,783.08,305.9092" style="stroke:#0000FF;stroke-width:1.0;"/><!--MD5=[8ed024b506e73e2349a03bc4b3c9c30e]
link PBDefine to Builder--><path d="M605.09,375.5992 C638.44,367.7192 683.29,357.1292 721.71,348.0492 " fill="none" id="PBDefine-to-Builder" style="stroke:#0000FF;stroke-width:1.0;"/><polygon fill="#0000FF" points="726.85,346.8392,717.1743,345.0006,721.9822,347.9812,719.0015,352.7891,726.85,346.8392" style="stroke:#0000FF;stroke-width:1.0;"/><!--MD5=[dda8f60c1bfc94240aa6d1cd68dce6b6]
link Builder to dart_event--><path d="M878.28,306.5992 C913.88,295.8392 956.05,283.0992 990.27,272.7592 " fill="none" id="Builder-to-dart_event" style="stroke:#006400;stroke-width:1.0;"/><polygon fill="#006400" points="995.26,271.2492,985.4851,270.0441,990.4768,272.7056,987.8153,277.6973,995.26,271.2492" style="stroke:#006400;stroke-width:1.0;"/><!--MD5=[381d622b62bac85a781fb70a156c5243]
link Builder to dart_pb--><path d="M830.54,305.9892 C868.76,273.1892 934,217.1992 934,217.1992 C934,217.1992 964.54,208.3692 994.94,199.5692 " fill="none" id="Builder-to-dart_pb" style="stroke:#006400;stroke-width:1.0;"/><polygon fill="#006400" points="999.81,198.1592,990.0537,196.8124,995.0062,199.546,992.2726,204.4986,999.81,198.1592" style="stroke:#006400;stroke-width:1.0;"/><!--MD5=[9d692fe468d7a50906bff258aa02f74e]
link Builder to rust_event--><path d="M846.59,352.3092 C884.6,372.6992 934,399.1992 934,399.1992 C934,399.1992 964.77,408.3492 995.28,417.4292 " fill="none" id="Builder-to-rust_event" style="stroke:#006400;stroke-width:1.0;"/><polygon fill="#006400" points="1000.16,418.8892,992.6749,412.4881,995.3677,417.463,990.3929,420.1557,1000.16,418.8892" style="stroke:#006400;stroke-width:1.0;"/><!--MD5=[e4f418de7b4ae6b949bf61615faea6dd]
link Builder to rust_pb--><path d="M878.28,339.6092 C922.3,345.7292 976.36,353.2592 1013.01,358.3592 " fill="none" id="Builder-to-rust_pb" style="stroke:#006400;stroke-width:1.0;"/><polygon fill="#006400" points="1018.29,359.0892,1009.9398,353.8668,1013.3394,358.3881,1008.818,361.7877,1018.29,359.0892" style="stroke:#006400;stroke-width:1.0;"/><!--MD5=[3a3f657ba63bb7d594eed8a875d92521]
reverse link dart_event to Repository--><path d="M1135.51,251.5292 C1168.73,250.8292 1206.66,250.0192 1236.91,249.3792 " fill="none" id="dart_event-backto-Repository" style="stroke:#A80036;stroke-width:2.0;"/><polygon fill="#A80036" points="1130.22,251.6492,1139.3091,255.4425,1135.2187,251.535,1139.1262,247.4446,1130.22,251.6492" style="stroke:#A80036;stroke-width:2.0;"/><!--MD5=[10894b4d16423c22d8d90c96136e793c]
reverse link dart_pb to Repository--><path d="M1117.12,199.0492 C1153.97,209.3692 1200.81,222.4992 1236.82,232.5892 " fill="none" id="dart_pb-backto-Repository" style="stroke:#A80036;stroke-width:2.0;"/><polygon fill="#A80036" points="1112.21,197.6692,1119.8044,203.9402,1117.0262,199.0126,1121.9538,196.2344,1112.21,197.6692" style="stroke:#A80036;stroke-width:2.0;"/><!--MD5=[03ae0a5b8d78032acf76b2393aac8724]
reverse link rust_event to Module--><path d="M1116.53,418.5192 C1157.28,407.0992 1210.46,392.1892 1247.65,381.7692 " fill="none" id="rust_event-backto-Module" style="stroke:#A80036;stroke-width:2.0;"/><polygon fill="#A80036" points="1111.62,419.8892,1121.3677,421.2973,1116.4324,418.5326,1119.1971,413.5973,1111.62,419.8892" style="stroke:#A80036;stroke-width:2.0;"/><!--MD5=[b2a71739254d6b495e660bbeca61bff5]
reverse link rust_pb to Module--><path d="M1098.79,365.0892 C1140.68,365.9792 1204.94,367.3392 1247.82,368.2492 " fill="none" id="rust_pb-backto-Module" style="stroke:#A80036;stroke-width:2.0;"/><polygon fill="#A80036" points="1093.54,364.9792,1102.4582,369.1584,1098.539,365.0792,1102.6182,361.16,1093.54,364.9792" style="stroke:#A80036;stroke-width:2.0;"/><!--MD5=[6d9376d1415de6f12b6cb32b92b32758]
@startuml FlowySDK
title Protobuf Code Generation
left to right direction
skinparam linetype polyline
'skinparam monochrome reverse

frame Part_One {
    node "Event" #DDDDDD {
        file EventSource as "event_map.rs" #FFDDDD
        file EventCodeGen as "build.rs" #FFDDDD
        file EventDefine as "event_map.proto" #FFDDDD
    }
    note left of EventSource
    enum FolderEvent {
        #[event(input = "ExportRequest", output = "ExportData")]
        ExportDocument = 0,
    }
    end note

    node "Protobuf" #DDDDDD {
        file PBSource as "share.rs" #FFDDDD
        file PBCodeGen as "build.rs" #FFDDDD
        file PBDefine as "share.proto" #FFDDDD
    }
    note left of PBSource
    struct ExportData {
        #[pb(index = 1)]
        pub data: String,

        #[pb(index = 2)]
        pub export_type: ExportType,
    }
    end note

    EventSource -> EventCodeGen
        EventCodeGen -> EventDefine
        PBSource -> PBCodeGen
        PBCodeGen -> PBDefine
}

frame Part_Two {
    node "Build.rs" #DDDDDD {
        component Builder as "Protoc Compiler" #F7931E
    }
}


frame Part_Three {
    component Protobuf_Files_Dart as "Protobuf Files" #DDDDDD {
        file dart_event as "event_map.pb.dart" #FFDDDD
        file dart_pb as "share.pb.dart" #FFDDDD
    }

    component Protobuf_Files_Rust as "Protobuf Files" #DDDDDD {
        file rust_event as "event_map.rs" #FFDDDD
        file rust_pb as "share.rs" #FFDDDD
    }
}

frame Part_Four {
    package "Front-end (Flutter)" #DDDDDD {
        component Repository
    }

    package "Back-end (Rust)" #DDDDDD {
        component Module
    }
}

EventDefine -[#blue]-> Builder
PBDefine -[#blue]-> Builder

Builder -[#DarkGreen]-> dart_event
Builder -[#DarkGreen]-> dart_pb
Builder -[#DarkGreen]-> rust_event
Builder -[#DarkGreen]-> rust_pb

Repository -[bold]up-> dart_event
Repository -[bold]up-> dart_pb

Module -[bold]up-> rust_event
Module -[bold]up-> rust_pb
@enduml

@startuml FlowySDK
title Protobuf Code Generation
left to right direction
skinparam linetype polyline

frame Part_One {
    node "Event" #DDDDDD {
        file EventSource as "event_map.rs" #FFDDDD
        file EventCodeGen as "build.rs" #FFDDDD
        file EventDefine as "event_map.proto" #FFDDDD
    }
    note left of EventSource
    enum FolderEvent {
        #[event(input = "ExportRequest", output = "ExportData")]
        ExportDocument = 0,
    }
    end note

    node "Protobuf" #DDDDDD {
        file PBSource as "share.rs" #FFDDDD
        file PBCodeGen as "build.rs" #FFDDDD
        file PBDefine as "share.proto" #FFDDDD
    }
    note left of PBSource
    struct ExportData {
        #[pb(index = 1)]
        pub data: String,

        #[pb(index = 2)]
        pub export_type: ExportType,
    }
    end note

    EventSource -> EventCodeGen
        EventCodeGen -> EventDefine
        PBSource -> PBCodeGen
        PBCodeGen -> PBDefine
}

frame Part_Two {
    node "Build.rs" #DDDDDD {
        component Builder as "Protoc Compiler" #F7931E
    }
}


frame Part_Three {
    component Protobuf_Files_Dart as "Protobuf Files" #DDDDDD {
        file dart_event as "event_map.pb.dart" #FFDDDD
        file dart_pb as "share.pb.dart" #FFDDDD
    }

    component Protobuf_Files_Rust as "Protobuf Files" #DDDDDD {
        file rust_event as "event_map.rs" #FFDDDD
        file rust_pb as "share.rs" #FFDDDD
    }
}

frame Part_Four {
    package "Front-end (Flutter)" #DDDDDD {
        component Repository
    }

    package "Back-end (Rust)" #DDDDDD {
        component Module
    }
}

EventDefine -[#blue]-> Builder
PBDefine -[#blue]-> Builder

Builder -[#DarkGreen]-> dart_event
Builder -[#DarkGreen]-> dart_pb
Builder -[#DarkGreen]-> rust_event
Builder -[#DarkGreen]-> rust_pb

Repository -[bold]up-> dart_event
Repository -[bold]up-> dart_pb

Module -[bold]up-> rust_event
Module -[bold]up-> rust_pb
@enduml

PlantUML version 1.2022.0(Wed Jan 12 00:16:42 CST 2022)
(GPL source distribution)
Java Runtime: OpenJDK Runtime Environment
JVM: OpenJDK 64-Bit Server VM
Default Encoding: UTF-8
Language: en
Country: US
--></g></svg>