<?xml version="1.0" encoding="UTF-8" standalone="no"?><svg xmlns="http://www.w3.org/2000/svg" xmlns:xlink="http://www.w3.org/1999/xlink" contentScriptType="application/ecmascript" contentStyleType="text/css" height="460px" preserveAspectRatio="none" style="width:666px;height:460px;background:#FFFFFF;" version="1.1" viewBox="0 0 666 460" width="666px" zoomAndPan="magnify"><defs><filter height="300%" id="fs0spi4vurczd" width="300%" x="-1" y="-1"><feGaussianBlur result="blurOut" stdDeviation="2.0"/><feColorMatrix in="blurOut" result="blurOut2" type="matrix" values="0 0 0 0 0 0 0 0 0 0 0 0 0 0 0 0 0 0 .4 0"/><feOffset dx="4.0" dy="4.0" in="blurOut2" result="blurOut3"/><feBlend in="SourceGraphic" in2="blurOut3" mode="normal"/></filter></defs><g><text fill="#000000" font-family="sans-serif" font-size="18" lengthAdjust="spacing" textLength="107" x="277" y="29.4023">Initialization</text><rect fill="#DDDDDD" height="413.4609" style="stroke:#A80036;stroke-width:1.0;" width="136" x="180" y="41.1992"/><text fill="#000000" font-family="sans-serif" font-size="13" font-weight="bold" lengthAdjust="spacing" textLength="122" x="187" y="53.7676">1.InitRustSDKTask</text><rect fill="#DDDDDD" height="413.4609" style="stroke:#A80036;stroke-width:1.0;" width="155" x="318" y="41.1992"/><text fill="#000000" font-family="sans-serif" font-size="13" font-weight="bold" lengthAdjust="spacing" textLength="141" x="325" y="53.7676">2.InitAppWidgetTask</text><rect fill="#DDDDDD" height="413.4609" style="stroke:#A80036;stroke-width:1.0;" width="185" x="475" y="41.1992"/><text fill="#000000" font-family="sans-serif" font-size="13" font-weight="bold" lengthAdjust="spacing" textLength="171" x="482" y="53.7676">3.InitPlatformServiceTask</text><rect fill="#FFFFFF" filter="url(#fs0spi4vurczd)" height="265.8633" style="stroke:#A80036;stroke-width:1.0;" width="10" x="115.5" y="141.3086"/><rect fill="#FFFFFF" filter="url(#fs0spi4vurczd)" height="56.3105" style="stroke:#A80036;stroke-width:1.0;" width="10" x="243" y="170.6191"/><rect fill="#FFFFFF" filter="url(#fs0spi4vurczd)" height="56.3105" style="stroke:#A80036;stroke-width:1.0;" width="10" x="390.5" y="256.2402"/><rect fill="#FFFFFF" filter="url(#fs0spi4vurczd)" height="56.3105" style="stroke:#A80036;stroke-width:1.0;" width="10" x="562.5" y="341.8613"/><line style="stroke:#A80036;stroke-width:1.0;stroke-dasharray:5.0,5.0;" x1="31" x2="31" y1="95.998" y2="416.1719"/><line style="stroke:#A80036;stroke-width:1.0;stroke-dasharray:5.0,5.0;" x1="120" x2="120" y1="95.998" y2="416.1719"/><line style="stroke:#A80036;stroke-width:1.0;stroke-dasharray:5.0,5.0;" x1="248" x2="248" y1="95.998" y2="416.1719"/><line style="stroke:#A80036;stroke-width:1.0;stroke-dasharray:5.0,5.0;" x1="395" x2="395" y1="95.998" y2="416.1719"/><line style="stroke:#A80036;stroke-width:1.0;stroke-dasharray:5.0,5.0;" x1="567" x2="567" y1="95.998" y2="416.1719"/><rect fill="#FEFECE" filter="url(#fs0spi4vurczd)" height="30.4883" style="stroke:#A80036;stroke-width:1.5;" width="48" x="5" y="60.5098"/><text fill="#000000" font-family="sans-serif" font-size="14" lengthAdjust="spacing" textLength="34" x="12" y="81.0449">main</text><rect fill="#FEFECE" filter="url(#fs0spi4vurczd)" height="30.4883" style="stroke:#A80036;stroke-width:1.5;" width="48" x="5" y="415.1719"/><text fill="#000000" font-family="sans-serif" font-size="14" lengthAdjust="spacing" textLength="34" x="12" y="435.707">main</text><rect fill="#FEFECE" filter="url(#fs0spi4vurczd)" height="30.4883" style="stroke:#A80036;stroke-width:1.5;" width="103" x="67" y="60.5098"/><text fill="#000000" font-family="sans-serif" font-size="14" lengthAdjust="spacing" textLength="89" x="74" y="81.0449">FlowyRunner</text><rect fill="#FEFECE" filter="url(#fs0spi4vurczd)" height="30.4883" style="stroke:#A80036;stroke-width:1.5;" width="103" x="67" y="415.1719"/><text fill="#000000" font-family="sans-serif" font-size="14" lengthAdjust="spacing" textLength="89" x="74" y="435.707">FlowyRunner</text><rect fill="#FEFECE" filter="url(#fs0spi4vurczd)" height="30.4883" style="stroke:#A80036;stroke-width:1.5;" width="80" x="206" y="60.5098"/><text fill="#000000" font-family="sans-serif" font-size="14" lengthAdjust="spacing" textLength="66" x="213" y="81.0449">FlowySDK</text><rect fill="#FEFECE" filter="url(#fs0spi4vurczd)" height="30.4883" style="stroke:#A80036;stroke-width:1.5;" width="80" x="206" y="415.1719"/><text fill="#000000" font-family="sans-serif" font-size="14" lengthAdjust="spacing" textLength="66" x="213" y="435.707">FlowySDK</text><rect fill="#FEFECE" filter="url(#fs0spi4vurczd)" height="30.4883" style="stroke:#A80036;stroke-width:1.5;" width="139" x="324" y="60.5098"/><text fill="#000000" font-family="sans-serif" font-size="14" lengthAdjust="spacing" textLength="125" x="331" y="81.0449">ApplicationWidget</text><rect fill="#FEFECE" filter="url(#fs0spi4vurczd)" height="30.4883" style="stroke:#A80036;stroke-width:1.5;" width="139" x="324" y="415.1719"/><text fill="#000000" font-family="sans-serif" font-size="14" lengthAdjust="spacing" textLength="125" x="331" y="435.707">ApplicationWidget</text><rect fill="#FEFECE" filter="url(#fs0spi4vurczd)" height="30.4883" style="stroke:#A80036;stroke-width:1.5;" width="125" x="503" y="60.5098"/><text fill="#000000" font-family="sans-serif" font-size="14" lengthAdjust="spacing" textLength="111" x="510" y="81.0449">NetworkListener</text><rect fill="#FEFECE" filter="url(#fs0spi4vurczd)" height="30.4883" style="stroke:#A80036;stroke-width:1.5;" width="125" x="503" y="415.1719"/><text fill="#000000" font-family="sans-serif" font-size="14" lengthAdjust="spacing" textLength="111" x="510" y="435.707">NetworkListener</text><rect fill="#FFFFFF" filter="url(#fs0spi4vurczd)" height="265.8633" style="stroke:#A80036;stroke-width:1.0;" width="10" x="115.5" y="141.3086"/><rect fill="#FFFFFF" filter="url(#fs0spi4vurczd)" height="56.3105" style="stroke:#A80036;stroke-width:1.0;" width="10" x="243" y="170.6191"/><rect fill="#FFFFFF" filter="url(#fs0spi4vurczd)" height="56.3105" style="stroke:#A80036;stroke-width:1.0;" width="10" x="390.5" y="256.2402"/><rect fill="#FFFFFF" filter="url(#fs0spi4vurczd)" height="56.3105" style="stroke:#A80036;stroke-width:1.0;" width="10" x="562.5" y="341.8613"/><polygon fill="#A80036" points="19,107.998,29,111.998,19,115.998,23,111.998" style="stroke:#A80036;stroke-width:1.0;"/><line style="stroke:#A80036;stroke-width:1.0;" x1="0" x2="25" y1="111.998" y2="111.998"/><polygon fill="#A80036" points="103.5,137.3086,113.5,141.3086,103.5,145.3086,107.5,141.3086" style="stroke:#A80036;stroke-width:1.0;"/><line style="stroke:#A80036;stroke-width:1.0;" x1="31" x2="109.5" y1="141.3086" y2="141.3086"/><text fill="#000000" font-family="sans-serif" font-size="13" lengthAdjust="spacing" textLength="49" x="38" y="136.5664">Call run</text><polygon fill="#A80036" points="231,166.6191,241,170.6191,231,174.6191,235,170.6191" style="stroke:#A80036;stroke-width:1.0;"/><line style="stroke:#A80036;stroke-width:1.0;" x1="125.5" x2="237" y1="170.6191" y2="170.6191"/><text fill="#000000" font-family="sans-serif" font-size="13" lengthAdjust="spacing" textLength="54" x="132.5" y="165.877">initialize</text><line style="stroke:#A80036;stroke-width:1.0;" x1="253" x2="295" y1="199.9297" y2="199.9297"/><line style="stroke:#A80036;stroke-width:1.0;" x1="295" x2="295" y1="199.9297" y2="212.9297"/><line style="stroke:#A80036;stroke-width:1.0;" x1="254" x2="295" y1="212.9297" y2="212.9297"/><polygon fill="#A80036" points="264,208.9297,254,212.9297,264,216.9297,260,212.9297" style="stroke:#A80036;stroke-width:1.0;"/><text fill="#000000" font-family="sans-serif" font-size="13" lengthAdjust="spacing" textLength="49" x="260" y="195.1875">Call init</text><polygon fill="#A80036" points="136.5,222.9297,126.5,226.9297,136.5,230.9297,132.5,226.9297" style="stroke:#A80036;stroke-width:1.0;"/><line style="stroke:#A80036;stroke-width:1.0;" x1="130.5" x2="247" y1="226.9297" y2="226.9297"/><polygon fill="#A80036" points="378.5,252.2402,388.5,256.2402,378.5,260.2402,382.5,256.2402" style="stroke:#A80036;stroke-width:1.0;"/><line style="stroke:#A80036;stroke-width:1.0;" x1="125.5" x2="384.5" y1="256.2402" y2="256.2402"/><text fill="#000000" font-family="sans-serif" font-size="13" lengthAdjust="spacing" textLength="54" x="132.5" y="251.498">initialize</text><line style="stroke:#A80036;stroke-width:1.0;" x1="400.5" x2="442.5" y1="285.5508" y2="285.5508"/><line style="stroke:#A80036;stroke-width:1.0;" x1="442.5" x2="442.5" y1="285.5508" y2="298.5508"/><line style="stroke:#A80036;stroke-width:1.0;" x1="401.5" x2="442.5" y1="298.5508" y2="298.5508"/><polygon fill="#A80036" points="411.5,294.5508,401.5,298.5508,411.5,302.5508,407.5,298.5508" style="stroke:#A80036;stroke-width:1.0;"/><text fill="#000000" font-family="sans-serif" font-size="13" lengthAdjust="spacing" textLength="46" x="407.5" y="280.8086">runApp</text><polygon fill="#A80036" points="136.5,308.5508,126.5,312.5508,136.5,316.5508,132.5,312.5508" style="stroke:#A80036;stroke-width:1.0;"/><line style="stroke:#A80036;stroke-width:1.0;" x1="130.5" x2="394.5" y1="312.5508" y2="312.5508"/><polygon fill="#A80036" points="550.5,337.8613,560.5,341.8613,550.5,345.8613,554.5,341.8613" style="stroke:#A80036;stroke-width:1.0;"/><line style="stroke:#A80036;stroke-width:1.0;" x1="125.5" x2="556.5" y1="341.8613" y2="341.8613"/><text fill="#000000" font-family="sans-serif" font-size="13" lengthAdjust="spacing" textLength="54" x="132.5" y="337.1191">initialize</text><line style="stroke:#A80036;stroke-width:1.0;" x1="572.5" x2="614.5" y1="371.1719" y2="371.1719"/><line style="stroke:#A80036;stroke-width:1.0;" x1="614.5" x2="614.5" y1="371.1719" y2="384.1719"/><line style="stroke:#A80036;stroke-width:1.0;" x1="573.5" x2="614.5" y1="384.1719" y2="384.1719"/><polygon fill="#A80036" points="583.5,380.1719,573.5,384.1719,583.5,388.1719,579.5,384.1719" style="stroke:#A80036;stroke-width:1.0;"/><text fill="#000000" font-family="sans-serif" font-size="13" lengthAdjust="spacing" textLength="29" x="579.5" y="366.4297">start</text><polygon fill="#A80036" points="136.5,394.1719,126.5,398.1719,136.5,402.1719,132.5,398.1719" style="stroke:#A80036;stroke-width:1.0;"/><line style="stroke:#A80036;stroke-width:1.0;" x1="130.5" x2="566.5" y1="398.1719" y2="398.1719"/><!--MD5=[399d8c59b6ae48e63bc81eb3a1b9628a]
@startuml FlowySDK
title Initialization
[-> main
main -> FlowyRunner ++ : Call run
box " 1.InitRustSDKTask "
FlowyRunner -> FlowySDK ++: initialize
FlowySDK -> FlowySDK: Call init
FlowySDK -> FlowyRunner - -
end box


box " 2.InitAppWidgetTask "
FlowyRunner -> ApplicationWidget ++: initialize
ApplicationWidget -> ApplicationWidget: runApp
ApplicationWidget -> FlowyRunner - -
end box


box " 3.InitPlatformServiceTask "
FlowyRunner -> NetworkListener ++: initialize
NetworkListener -> NetworkListener: start
NetworkListener -> FlowyRunner - -
end box

@enduml

PlantUML version 1.2022.0(Wed Jan 12 00:16:42 CST 2022)
(GPL source distribution)
Java Runtime: OpenJDK Runtime Environment
JVM: OpenJDK 64-Bit Server VM
Default Encoding: UTF-8
Language: en
Country: US
--></g></svg>