<?xml version="1.0" encoding="UTF-8" standalone="no"?><svg xmlns="http://www.w3.org/2000/svg" xmlns:xlink="http://www.w3.org/1999/xlink" contentScriptType="application/ecmascript" contentStyleType="text/css" height="137px" preserveAspectRatio="none" style="width:1101px;height:137px;background:#FFFFFF;" version="1.1" viewBox="0 0 1101 137" width="1101px" zoomAndPan="magnify"><defs><filter height="300%" id="f1ve4c4fkcpjey" width="300%" x="-1" y="-1"><feGaussianBlur result="blurOut" stdDeviation="2.0"/><feColorMatrix in="blurOut" result="blurOut2" type="matrix" values="0 0 0 0 0 0 0 0 0 0 0 0 0 0 0 0 0 0 .4 0"/><feOffset dx="4.0" dy="4.0" in="blurOut2" result="blurOut3"/><feBlend in="SourceGraphic" in2="blurOut3" mode="normal"/></filter></defs><g><text fill="#000000" font-family="sans-serif" font-size="18" lengthAdjust="spacing" textLength="25" x="531.5" y="17.4023">FFI</text><!--MD5=[b24267d2964530fde97dbe32f532d632]
cluster Front-end (Flutter)--><polygon fill="#DDDDDD" filter="url(#f1ve4c4fkcpjey)" points="16,27.1992,158,27.1992,165,49.6875,401,49.6875,401,130.1992,16,130.1992,16,27.1992" style="stroke:#000000;stroke-width:1.5;"/><line style="stroke:#000000;stroke-width:1.5;" x1="16" x2="165" y1="49.6875" y2="49.6875"/><text fill="#000000" font-family="sans-serif" font-size="14" font-weight="bold" lengthAdjust="spacing" textLength="136" x="20" y="42.7344">Front-end (Flutter)</text><!--MD5=[dda78dbc42a958268ede67472bfec7a7]
cluster Back-end (Rust)--><polygon fill="#DDDDDD" filter="url(#f1ve4c4fkcpjey)" points="480,27.1992,602,27.1992,609,49.6875,1084,49.6875,1084,130.1992,480,130.1992,480,27.1992" style="stroke:#000000;stroke-width:1.5;"/><line style="stroke:#000000;stroke-width:1.5;" x1="480" x2="609" y1="49.6875" y2="49.6875"/><text fill="#000000" font-family="sans-serif" font-size="14" font-weight="bold" lengthAdjust="spacing" textLength="116" x="484" y="42.7344">Back-end (Rust)</text><!--MD5=[edccc82bdba4a765388b0a1a4a8815e4]
entity Repository_A--><rect fill="#FEFECE" filter="url(#f1ve4c4fkcpjey)" height="46.4883" style="stroke:#A80036;stroke-width:1.5;" width="113" x="32" y="62.1992"/><rect fill="#FEFECE" height="10" style="stroke:#A80036;stroke-width:1.5;" width="15" x="125" y="67.1992"/><rect fill="#FEFECE" height="2" style="stroke:#A80036;stroke-width:1.5;" width="4" x="123" y="69.1992"/><rect fill="#FEFECE" height="2" style="stroke:#A80036;stroke-width:1.5;" width="4" x="123" y="73.1992"/><text fill="#000000" font-family="sans-serif" font-size="14" lengthAdjust="spacing" textLength="73" x="47" y="95.7344">Repository</text><!--MD5=[78e0d1133500ea5a75200a919f68dfaf]
entity FFI_Frontend--><rect fill="#FFDDDD" filter="url(#f1ve4c4fkcpjey)" height="46.4883" style="stroke:#A80036;stroke-width:1.5;" width="60" x="325" y="62.1992"/><rect fill="#FFDDDD" height="10" style="stroke:#A80036;stroke-width:1.5;" width="15" x="365" y="67.1992"/><rect fill="#FFDDDD" height="2" style="stroke:#A80036;stroke-width:1.5;" width="4" x="363" y="69.1992"/><rect fill="#FFDDDD" height="2" style="stroke:#A80036;stroke-width:1.5;" width="4" x="363" y="73.1992"/><text fill="#000000" font-family="sans-serif" font-size="14" lengthAdjust="spacing" textLength="20" x="340" y="95.7344">FFI</text><!--MD5=[179e2604d0e0114e09ff0fc2b2cdbe9a]
entity FFI_Backend--><rect fill="#FFDDDD" filter="url(#f1ve4c4fkcpjey)" height="46.4883" style="stroke:#A80036;stroke-width:1.5;" width="60" x="496" y="62.1992"/><rect fill="#FFDDDD" height="10" style="stroke:#A80036;stroke-width:1.5;" width="15" x="536" y="67.1992"/><rect fill="#FFDDDD" height="2" style="stroke:#A80036;stroke-width:1.5;" width="4" x="534" y="69.1992"/><rect fill="#FFDDDD" height="2" style="stroke:#A80036;stroke-width:1.5;" width="4" x="534" y="73.1992"/><text fill="#000000" font-family="sans-serif" font-size="14" lengthAdjust="spacing" textLength="20" x="511" y="95.7344">FFI</text><!--MD5=[8438b603195005c18d5011c1879083f4]
entity Dispatcher--><rect fill="#FEFECE" filter="url(#f1ve4c4fkcpjey)" height="46.4883" style="stroke:#A80036;stroke-width:1.5;" width="113" x="736" y="62.1992"/><rect fill="#FEFECE" height="10" style="stroke:#A80036;stroke-width:1.5;" width="15" x="829" y="67.1992"/><rect fill="#FEFECE" height="2" style="stroke:#A80036;stroke-width:1.5;" width="4" x="827" y="69.1992"/><rect fill="#FEFECE" height="2" style="stroke:#A80036;stroke-width:1.5;" width="4" x="827" y="73.1992"/><text fill="#000000" font-family="sans-serif" font-size="14" lengthAdjust="spacing" textLength="73" x="751" y="95.7344">Dispatcher</text><!--MD5=[32a6d3b508021f5875dd65aaa7b12f72]
entity Module--><rect fill="#FEFECE" filter="url(#f1ve4c4fkcpjey)" height="46.4883" style="stroke:#A80036;stroke-width:1.5;" width="91" x="977" y="62.1992"/><rect fill="#FEFECE" height="10" style="stroke:#A80036;stroke-width:1.5;" width="15" x="1048" y="67.1992"/><rect fill="#FEFECE" height="2" style="stroke:#A80036;stroke-width:1.5;" width="4" x="1046" y="69.1992"/><rect fill="#FEFECE" height="2" style="stroke:#A80036;stroke-width:1.5;" width="4" x="1046" y="73.1992"/><text fill="#000000" font-family="sans-serif" font-size="14" lengthAdjust="spacing" textLength="51" x="992" y="95.7344">Module</text><!--MD5=[d3ed70bb055e73f87b6aba5d536448df]
link Repository_A to FFI_Frontend--><path d="M145.27,85.1992 C197.99,85.1992 275.43,85.1992 319.65,85.1992 " fill="none" id="Repository_A-to-FFI_Frontend" style="stroke:#A80036;stroke-width:1.0;stroke-dasharray:7.0,7.0;"/><polygon fill="#A80036" points="324.88,85.1992,315.88,81.1992,319.88,85.1992,315.88,89.1992,324.88,85.1992" style="stroke:#A80036;stroke-width:1.0;"/><text fill="#000000" font-family="sans-serif" font-size="13" lengthAdjust="spacing" textLength="118" x="176" y="81.7676">1.Event + Protobuf</text><!--MD5=[4de8113ca68441e6ab054604d393395d]
link FFI_Frontend to FFI_Backend--><path d="M385.05,85.1992 C414.31,85.1992 459.46,85.1992 490.52,85.1992 " fill="none" id="FFI_Frontend-to-FFI_Backend" style="stroke:#A80036;stroke-width:1.0;"/><polygon fill="#A80036" points="495.76,85.1992,486.76,81.1992,490.76,85.1992,486.76,89.1992,495.76,85.1992" style="stroke:#A80036;stroke-width:1.0;"/><text fill="#000000" font-family="sans-serif" font-size="13" lengthAdjust="spacing" textLength="45" x="418" y="81.7676">2.Bytes</text><!--MD5=[4995e94678fa022b3b0236d8d155fc5d]
link FFI_Backend to Dispatcher--><path d="M556.06,85.1992 C597.86,85.1992 675.93,85.1992 730.67,85.1992 " fill="none" id="FFI_Backend-to-Dispatcher" style="stroke:#A80036;stroke-width:1.0;"/><polygon fill="#A80036" points="735.89,85.1992,726.89,81.1992,730.89,85.1992,726.89,89.1992,735.89,85.1992" style="stroke:#A80036;stroke-width:1.0;"/><text fill="#000000" font-family="sans-serif" font-size="13" lengthAdjust="spacing" textLength="118" x="587" y="81.7676">3.Event + Protobuf</text><!--MD5=[b7fb86ef4098194ef634f4b8ec52f618]
link Dispatcher to Module--><path d="M849.28,85.1992 C886.72,85.1992 935.62,85.1992 971.74,85.1992 " fill="none" id="Dispatcher-to-Module" style="stroke:#A80036;stroke-width:1.0;"/><polygon fill="#A80036" points="976.98,85.1992,967.98,81.1992,971.98,85.1992,967.98,89.1992,976.98,85.1992" style="stroke:#A80036;stroke-width:1.0;"/><text fill="#000000" font-family="sans-serif" font-size="13" lengthAdjust="spacing" textLength="66" x="880" y="81.7676">4.Protobuf</text><!--MD5=[0d06bd7394176d72d01b1c6cbc3f0633]
@startuml FlowySDK
title FFI
left to right direction
skinparam linetype polyline

package "Front-end (Flutter)" #DDDDDD {
    component Repository_A as "Repository"
    component FFI_Frontend as "FFI" #FFDDDD
}

package "Back-end (Rust)" #DDDDDD {
    component FFI_Backend as "FFI" #FFDDDD
    component Dispatcher
    component Module
}

Repository_A ..> FFI_Frontend : 1.Event + Protobuf
FFI_Frontend - -> FFI_Backend : 2.Bytes
FFI_Backend - -> Dispatcher : 3.Event + Protobuf
Dispatcher - -> Module: 4.Protobuf
@enduml

PlantUML version 1.2022.0(Wed Jan 12 00:16:42 CST 2022)
(GPL source distribution)
Java Runtime: OpenJDK Runtime Environment
JVM: OpenJDK 64-Bit Server VM
Default Encoding: UTF-8
Language: en
Country: US
--></g></svg>