<?xml version="1.0" encoding="UTF-8" standalone="no"?><svg xmlns="http://www.w3.org/2000/svg" xmlns:xlink="http://www.w3.org/1999/xlink" contentStyleType="text/css" height="560px" preserveAspectRatio="none" style="width:1000px;height:560px;background:#FFFFFF;" version="1.1" viewBox="0 0 1000 560" width="1000px" zoomAndPan="magnify"><defs/><g><!--MD5=[5d285d44bd58898764e8d770956e6630]
class GridCellDataPersistence--><g id="elem_GridCellDataPersistence"><rect codeLine="6" fill="#F1F1F1" height="48" id="GridCellDataPersistence" rx="2.5" ry="2.5" style="stroke:#181818;stroke-width:0.5;" width="205" x="230" y="7"/><ellipse cx="245" cy="23" fill="#B4A7E5" rx="11" ry="11" style="stroke:#181818;stroke-width:1.0;"/><path d="M240.9277,18.7651 L240.9277,16.6069 L248.3071,16.6069 L248.3071,18.7651 L245.8418,18.7651 L245.8418,26.8418 L248.3071,26.8418 L248.3071,29 L240.9277,29 L240.9277,26.8418 L243.3931,26.8418 L243.3931,18.7651 Z " fill="#000000"/><text fill="#000000" font-family="sans-serif" font-size="14" font-style="italic" font-weight="bold" lengthAdjust="spacing" textLength="173" x="259" y="28.291">GridCellDataPersistence</text><line style="stroke:#181818;stroke-width:0.5;" x1="231" x2="434" y1="39" y2="39"/><line style="stroke:#181818;stroke-width:0.5;" x1="231" x2="434" y1="47" y2="47"/></g><!--MD5=[fadf9ef6471170e89dc98c6709a03f6e]
class GridCellController--><g id="elem_GridCellController"><rect codeLine="7" fill="#F1F1F1" height="48" id="GridCellController" rx="2.5" ry="2.5" style="stroke:#181818;stroke-width:0.5;" width="163" x="7" y="256"/><ellipse cx="22" cy="272" fill="#B4A7E5" rx="11" ry="11" style="stroke:#181818;stroke-width:1.0;"/><path d="M17.9277,267.7651 L17.9277,265.6069 L25.3071,265.6069 L25.3071,267.7651 L22.8418,267.7651 L22.8418,275.8418 L25.3071,275.8418 L25.3071,278 L17.9277,278 L17.9277,275.8418 L20.3931,275.8418 L20.3931,267.7651 Z " fill="#000000"/><text fill="#000000" font-family="sans-serif" font-size="14" font-style="italic" font-weight="bold" lengthAdjust="spacing" textLength="131" x="36" y="277.291">GridCellController</text><line style="stroke:#181818;stroke-width:0.5;" x1="8" x2="169" y1="288" y2="288"/><line style="stroke:#181818;stroke-width:0.5;" x1="8" x2="169" y1="296" y2="296"/></g><!--MD5=[b15eed7a2f80254220207a9239c0a5bb]
class GridCellDataParser--><g id="elem_GridCellDataParser"><rect codeLine="8" fill="#F1F1F1" height="48" id="GridCellDataParser" rx="2.5" ry="2.5" style="stroke:#181818;stroke-width:0.5;" width="168" x="515" y="339"/><ellipse cx="530" cy="355" fill="#B4A7E5" rx="11" ry="11" style="stroke:#181818;stroke-width:1.0;"/><path d="M525.9277,350.7651 L525.9277,348.6069 L533.3071,348.6069 L533.3071,350.7651 L530.8418,350.7651 L530.8418,358.8418 L533.3071,358.8418 L533.3071,361 L525.9277,361 L525.9277,358.8418 L528.3931,358.8418 L528.3931,350.7651 Z " fill="#000000"/><text fill="#000000" font-family="sans-serif" font-size="14" font-style="italic" font-weight="bold" lengthAdjust="spacing" textLength="136" x="544" y="360.291">GridCellDataParser</text><line style="stroke:#181818;stroke-width:0.5;" x1="516" x2="682" y1="371" y2="371"/><line style="stroke:#181818;stroke-width:0.5;" x1="516" x2="682" y1="379" y2="379"/></g><!--MD5=[1f144cc092e6ed242406a8d1767211ef]
class TypeOptionDataParser--><g id="elem_TypeOptionDataParser"><rect codeLine="9" fill="#F1F1F1" height="48" id="TypeOptionDataParser" rx="2.5" ry="2.5" style="stroke:#181818;stroke-width:0.5;" width="195" x="235" y="90"/><ellipse cx="250" cy="106" fill="#B4A7E5" rx="11" ry="11" style="stroke:#181818;stroke-width:1.0;"/><path d="M245.9277,101.7651 L245.9277,99.6069 L253.3071,99.6069 L253.3071,101.7651 L250.8418,101.7651 L250.8418,109.8418 L253.3071,109.8418 L253.3071,112 L245.9277,112 L245.9277,109.8418 L248.3931,109.8418 L248.3931,101.7651 Z " fill="#000000"/><text fill="#000000" font-family="sans-serif" font-size="14" font-style="italic" font-weight="bold" lengthAdjust="spacing" textLength="163" x="264" y="111.291">TypeOptionDataParser</text><line style="stroke:#181818;stroke-width:0.5;" x1="236" x2="429" y1="122" y2="122"/><line style="stroke:#181818;stroke-width:0.5;" x1="236" x2="429" y1="130" y2="130"/></g><!--MD5=[d74a993f36f6cd7de80cff0e6a8c0936]
class GridCellIdentifier--><g id="elem_GridCellIdentifier"><rect fill="#F1F1F1" height="48" id="GridCellIdentifier" rx="2.5" ry="2.5" style="stroke:#181818;stroke-width:0.5;" width="157" x="254" y="173"/><ellipse cx="269" cy="189" fill="#ADD1B2" rx="11" ry="11" style="stroke:#181818;stroke-width:1.0;"/><path d="M271.9731,194.6431 Q271.3921,194.9419 270.7529,195.0913 Q270.1138,195.2407 269.4082,195.2407 Q266.9014,195.2407 265.5815,193.5889 Q264.2617,191.937 264.2617,188.8159 Q264.2617,185.6865 265.5815,184.0347 Q266.9014,182.3828 269.4082,182.3828 Q270.1138,182.3828 270.7612,182.5322 Q271.4087,182.6816 271.9731,182.9805 L271.9731,185.7031 Q271.3423,185.1221 270.7488,184.8523 Q270.1553,184.5825 269.5244,184.5825 Q268.1797,184.5825 267.4949,185.6492 Q266.8101,186.7158 266.8101,188.8159 Q266.8101,190.9077 267.4949,191.9744 Q268.1797,193.041 269.5244,193.041 Q270.1553,193.041 270.7488,192.7712 Q271.3423,192.5015 271.9731,191.9204 Z " fill="#000000"/><text fill="#000000" font-family="sans-serif" font-size="14" font-weight="bold" lengthAdjust="spacing" textLength="125" x="283" y="194.291">GridCellIdentifier</text><line style="stroke:#181818;stroke-width:0.5;" x1="255" x2="410" y1="205" y2="205"/><line style="stroke:#181818;stroke-width:0.5;" x1="255" x2="410" y1="213" y2="213"/></g><!--MD5=[272d7f24d25ec9e876b4c4bcbecd9e8b]
class CellListener--><g id="elem_CellListener"><rect fill="#F1F1F1" height="48" id="CellListener" rx="2.5" ry="2.5" style="stroke:#181818;stroke-width:0.5;" width="118" x="273.5" y="256"/><ellipse cx="288.5" cy="272" fill="#ADD1B2" rx="11" ry="11" style="stroke:#181818;stroke-width:1.0;"/><path d="M291.4731,277.6431 Q290.8921,277.9419 290.2529,278.0913 Q289.6138,278.2407 288.9082,278.2407 Q286.4014,278.2407 285.0815,276.5889 Q283.7617,274.937 283.7617,271.8159 Q283.7617,268.6865 285.0815,267.0347 Q286.4014,265.3828 288.9082,265.3828 Q289.6138,265.3828 290.2612,265.5322 Q290.9087,265.6816 291.4731,265.9805 L291.4731,268.7031 Q290.8423,268.1221 290.2488,267.8523 Q289.6553,267.5825 289.0244,267.5825 Q287.6797,267.5825 286.9949,268.6492 Q286.3101,269.7158 286.3101,271.8159 Q286.3101,273.9077 286.9949,274.9744 Q287.6797,276.041 289.0244,276.041 Q289.6553,276.041 290.2488,275.7712 Q290.8423,275.5015 291.4731,274.9204 Z " fill="#000000"/><text fill="#000000" font-family="sans-serif" font-size="14" font-weight="bold" lengthAdjust="spacing" textLength="86" x="302.5" y="277.291">CellListener</text><line style="stroke:#181818;stroke-width:0.5;" x1="274.5" x2="390.5" y1="288" y2="288"/><line style="stroke:#181818;stroke-width:0.5;" x1="274.5" x2="390.5" y1="296" y2="296"/></g><!--MD5=[fa71891c247244992351c586d176dece]
class GridCellDataLoader--><g id="elem_GridCellDataLoader"><rect fill="#F1F1F1" height="48" id="GridCellDataLoader" rx="2.5" ry="2.5" style="stroke:#181818;stroke-width:0.5;" width="171" x="247" y="339"/><ellipse cx="262" cy="355" fill="#ADD1B2" rx="11" ry="11" style="stroke:#181818;stroke-width:1.0;"/><path d="M264.9731,360.6431 Q264.3921,360.9419 263.7529,361.0913 Q263.1138,361.2407 262.4082,361.2407 Q259.9014,361.2407 258.5815,359.5889 Q257.2617,357.937 257.2617,354.8159 Q257.2617,351.6865 258.5815,350.0347 Q259.9014,348.3828 262.4082,348.3828 Q263.1138,348.3828 263.7612,348.5322 Q264.4087,348.6816 264.9731,348.9805 L264.9731,351.7031 Q264.3423,351.1221 263.7488,350.8523 Q263.1553,350.5825 262.5244,350.5825 Q261.1797,350.5825 260.4949,351.6492 Q259.8101,352.7158 259.8101,354.8159 Q259.8101,356.9077 260.4949,357.9744 Q261.1797,359.041 262.5244,359.041 Q263.1553,359.041 263.7488,358.7712 Q264.3423,358.5015 264.9731,357.9204 Z " fill="#000000"/><text fill="#000000" font-family="sans-serif" font-size="14" font-weight="bold" lengthAdjust="spacing" textLength="139" x="276" y="360.291">GridCellDataLoader</text><line style="stroke:#181818;stroke-width:0.5;" x1="248" x2="417" y1="371" y2="371"/><line style="stroke:#181818;stroke-width:0.5;" x1="248" x2="417" y1="379" y2="379"/></g><!--MD5=[0140f3a471e40892f7cdf89be4123193]
class CellService--><g id="elem_CellService"><rect fill="#F1F1F1" height="48" id="CellService" rx="2.5" ry="2.5" style="stroke:#181818;stroke-width:0.5;" width="110" x="823" y="90"/><ellipse cx="838" cy="106" fill="#ADD1B2" rx="11" ry="11" style="stroke:#181818;stroke-width:1.0;"/><path d="M840.9731,111.6431 Q840.3921,111.9419 839.7529,112.0913 Q839.1138,112.2407 838.4082,112.2407 Q835.9014,112.2407 834.5815,110.5889 Q833.2617,108.937 833.2617,105.8159 Q833.2617,102.6865 834.5815,101.0347 Q835.9014,99.3828 838.4082,99.3828 Q839.1138,99.3828 839.7612,99.5322 Q840.4087,99.6816 840.9731,99.9805 L840.9731,102.7031 Q840.3423,102.1221 839.7488,101.8523 Q839.1553,101.5825 838.5244,101.5825 Q837.1797,101.5825 836.4949,102.6492 Q835.8101,103.7158 835.8101,105.8159 Q835.8101,107.9077 836.4949,108.9744 Q837.1797,110.041 838.5244,110.041 Q839.1553,110.041 839.7488,109.7712 Q840.3423,109.5015 840.9731,108.9204 Z " fill="#000000"/><text fill="#000000" font-family="sans-serif" font-size="14" font-weight="bold" lengthAdjust="spacing" textLength="78" x="852" y="111.291">CellService</text><line style="stroke:#181818;stroke-width:0.5;" x1="824" x2="932" y1="122" y2="122"/><line style="stroke:#181818;stroke-width:0.5;" x1="824" x2="932" y1="130" y2="130"/></g><!--MD5=[432129e6c975dc90a251b9986ad04181]
class StringCellDataParser--><g id="elem_StringCellDataParser"><rect fill="#F1F1F1" height="48" id="StringCellDataParser" rx="2.5" ry="2.5" style="stroke:#181818;stroke-width:0.5;" width="181" x="787.5" y="214"/><ellipse cx="802.5" cy="230" fill="#ADD1B2" rx="11" ry="11" style="stroke:#181818;stroke-width:1.0;"/><path d="M805.4731,235.6431 Q804.8921,235.9419 804.2529,236.0913 Q803.6138,236.2407 802.9082,236.2407 Q800.4014,236.2407 799.0815,234.5889 Q797.7617,232.937 797.7617,229.8159 Q797.7617,226.6865 799.0815,225.0347 Q800.4014,223.3828 802.9082,223.3828 Q803.6138,223.3828 804.2612,223.5322 Q804.9087,223.6816 805.4731,223.9805 L805.4731,226.7031 Q804.8423,226.1221 804.2488,225.8523 Q803.6553,225.5825 803.0244,225.5825 Q801.6797,225.5825 800.9949,226.6492 Q800.3101,227.7158 800.3101,229.8159 Q800.3101,231.9077 800.9949,232.9744 Q801.6797,234.041 803.0244,234.041 Q803.6553,234.041 804.2488,233.7712 Q804.8423,233.5015 805.4731,232.9204 Z " fill="#000000"/><text fill="#000000" font-family="sans-serif" font-size="14" font-weight="bold" lengthAdjust="spacing" textLength="149" x="816.5" y="235.291">StringCellDataParser</text><line style="stroke:#181818;stroke-width:0.5;" x1="788.5" x2="967.5" y1="246" y2="246"/><line style="stroke:#181818;stroke-width:0.5;" x1="788.5" x2="967.5" y1="254" y2="254"/></g><!--MD5=[6503916b4c83aa9adbbc828e7376dc28]
class DateCellDataParser--><g id="elem_DateCellDataParser"><rect fill="#F1F1F1" height="48" id="DateCellDataParser" rx="2.5" ry="2.5" style="stroke:#181818;stroke-width:0.5;" width="171" x="792.5" y="297"/><ellipse cx="807.5" cy="313" fill="#ADD1B2" rx="11" ry="11" style="stroke:#181818;stroke-width:1.0;"/><path d="M810.4731,318.6431 Q809.8921,318.9419 809.2529,319.0913 Q808.6138,319.2407 807.9082,319.2407 Q805.4014,319.2407 804.0815,317.5889 Q802.7617,315.937 802.7617,312.8159 Q802.7617,309.6865 804.0815,308.0347 Q805.4014,306.3828 807.9082,306.3828 Q808.6138,306.3828 809.2612,306.5322 Q809.9087,306.6816 810.4731,306.9805 L810.4731,309.7031 Q809.8423,309.1221 809.2488,308.8523 Q808.6553,308.5825 808.0244,308.5825 Q806.6797,308.5825 805.9949,309.6492 Q805.3101,310.7158 805.3101,312.8159 Q805.3101,314.9077 805.9949,315.9744 Q806.6797,317.041 808.0244,317.041 Q808.6553,317.041 809.2488,316.7712 Q809.8423,316.5015 810.4731,315.9204 Z " fill="#000000"/><text fill="#000000" font-family="sans-serif" font-size="14" font-weight="bold" lengthAdjust="spacing" textLength="139" x="821.5" y="318.291">DateCellDataParser</text><line style="stroke:#181818;stroke-width:0.5;" x1="793.5" x2="962.5" y1="329" y2="329"/><line style="stroke:#181818;stroke-width:0.5;" x1="793.5" x2="962.5" y1="337" y2="337"/></g><!--MD5=[ca46ad8f0a3aa65975b9c10fb34e7c11]
class SelectOptionCellDataParser--><g id="elem_SelectOptionCellDataParser"><rect fill="#F1F1F1" height="48" id="SelectOptionCellDataParser" rx="2.5" ry="2.5" style="stroke:#181818;stroke-width:0.5;" width="230" x="763" y="380"/><ellipse cx="778" cy="396" fill="#ADD1B2" rx="11" ry="11" style="stroke:#181818;stroke-width:1.0;"/><path d="M780.9731,401.6431 Q780.3921,401.9419 779.7529,402.0913 Q779.1138,402.2407 778.4082,402.2407 Q775.9014,402.2407 774.5815,400.5889 Q773.2617,398.937 773.2617,395.8159 Q773.2617,392.6865 774.5815,391.0347 Q775.9014,389.3828 778.4082,389.3828 Q779.1138,389.3828 779.7612,389.5322 Q780.4087,389.6816 780.9731,389.9805 L780.9731,392.7031 Q780.3423,392.1221 779.7488,391.8523 Q779.1553,391.5825 778.5244,391.5825 Q777.1797,391.5825 776.4949,392.6492 Q775.8101,393.7158 775.8101,395.8159 Q775.8101,397.9077 776.4949,398.9744 Q777.1797,400.041 778.5244,400.041 Q779.1553,400.041 779.7488,399.7712 Q780.3423,399.5015 780.9731,398.9204 Z " fill="#000000"/><text fill="#000000" font-family="sans-serif" font-size="14" font-weight="bold" lengthAdjust="spacing" textLength="198" x="792" y="401.291">SelectOptionCellDataParser</text><line style="stroke:#181818;stroke-width:0.5;" x1="764" x2="992" y1="412" y2="412"/><line style="stroke:#181818;stroke-width:0.5;" x1="764" x2="992" y1="420" y2="420"/></g><!--MD5=[96abf0086336e78566c8898c90965bb1]
class URLCellDataParser--><g id="elem_URLCellDataParser"><rect fill="#F1F1F1" height="48" id="URLCellDataParser" rx="2.5" ry="2.5" style="stroke:#181818;stroke-width:0.5;" width="166" x="795" y="463"/><ellipse cx="810" cy="479" fill="#ADD1B2" rx="11" ry="11" style="stroke:#181818;stroke-width:1.0;"/><path d="M812.9731,484.6431 Q812.3921,484.9419 811.7529,485.0913 Q811.1138,485.2407 810.4082,485.2407 Q807.9014,485.2407 806.5815,483.5889 Q805.2617,481.937 805.2617,478.8159 Q805.2617,475.6865 806.5815,474.0347 Q807.9014,472.3828 810.4082,472.3828 Q811.1138,472.3828 811.7612,472.5322 Q812.4087,472.6816 812.9731,472.9805 L812.9731,475.7031 Q812.3423,475.1221 811.7488,474.8523 Q811.1553,474.5825 810.5244,474.5825 Q809.1797,474.5825 808.4949,475.6492 Q807.8101,476.7158 807.8101,478.8159 Q807.8101,480.9077 808.4949,481.9744 Q809.1797,483.041 810.5244,483.041 Q811.1553,483.041 811.7488,482.7712 Q812.3423,482.5015 812.9731,481.9204 Z " fill="#000000"/><text fill="#000000" font-family="sans-serif" font-size="14" font-weight="bold" lengthAdjust="spacing" textLength="134" x="824" y="484.291">URLCellDataParser</text><line style="stroke:#181818;stroke-width:0.5;" x1="796" x2="960" y1="495" y2="495"/><line style="stroke:#181818;stroke-width:0.5;" x1="796" x2="960" y1="503" y2="503"/></g><!--MD5=[64596bf797181233ea1f132a2228edec]
class GridCellCache--><g id="elem_GridCellCache"><rect fill="#F1F1F1" height="48" id="GridCellCache" rx="2.5" ry="2.5" style="stroke:#181818;stroke-width:0.5;" width="132" x="266.5" y="422"/><ellipse cx="281.5" cy="438" fill="#ADD1B2" rx="11" ry="11" style="stroke:#181818;stroke-width:1.0;"/><path d="M284.4731,443.6431 Q283.8921,443.9419 283.2529,444.0913 Q282.6138,444.2407 281.9082,444.2407 Q279.4014,444.2407 278.0815,442.5889 Q276.7617,440.937 276.7617,437.8159 Q276.7617,434.6865 278.0815,433.0347 Q279.4014,431.3828 281.9082,431.3828 Q282.6138,431.3828 283.2612,431.5322 Q283.9087,431.6816 284.4731,431.9805 L284.4731,434.7031 Q283.8423,434.1221 283.2488,433.8523 Q282.6553,433.5825 282.0244,433.5825 Q280.6797,433.5825 279.9949,434.6492 Q279.3101,435.7158 279.3101,437.8159 Q279.3101,439.9077 279.9949,440.9744 Q280.6797,442.041 282.0244,442.041 Q282.6553,442.041 283.2488,441.7712 Q283.8423,441.5015 284.4731,440.9204 Z " fill="#000000"/><text fill="#000000" font-family="sans-serif" font-size="14" font-weight="bold" lengthAdjust="spacing" textLength="100" x="295.5" y="443.291">GridCellCache</text><line style="stroke:#181818;stroke-width:0.5;" x1="267.5" x2="397.5" y1="454" y2="454"/><line style="stroke:#181818;stroke-width:0.5;" x1="267.5" x2="397.5" y1="462" y2="462"/></g><!--MD5=[2c4a8191934d89a09f3712c9f5e0e5b0]
class DateCellDataPersistence--><g id="elem_DateCellDataPersistence"><rect fill="#F1F1F1" height="48" id="DateCellDataPersistence" rx="2.5" ry="2.5" style="stroke:#181818;stroke-width:0.5;" width="208" x="495" y="7"/><ellipse cx="510" cy="23" fill="#ADD1B2" rx="11" ry="11" style="stroke:#181818;stroke-width:1.0;"/><path d="M512.9731,28.6431 Q512.3921,28.9419 511.7529,29.0913 Q511.1138,29.2407 510.4082,29.2407 Q507.9014,29.2407 506.5815,27.5889 Q505.2617,25.937 505.2617,22.8159 Q505.2617,19.6865 506.5815,18.0347 Q507.9014,16.3828 510.4082,16.3828 Q511.1138,16.3828 511.7612,16.5322 Q512.4087,16.6816 512.9731,16.9805 L512.9731,19.7031 Q512.3423,19.1221 511.7488,18.8523 Q511.1553,18.5825 510.5244,18.5825 Q509.1797,18.5825 508.4949,19.6492 Q507.8101,20.7158 507.8101,22.8159 Q507.8101,24.9077 508.4949,25.9744 Q509.1797,27.041 510.5244,27.041 Q511.1553,27.041 511.7488,26.7712 Q512.3423,26.5015 512.9731,25.9204 Z " fill="#000000"/><text fill="#000000" font-family="sans-serif" font-size="14" font-weight="bold" lengthAdjust="spacing" textLength="176" x="524" y="28.291">DateCellDataPersistence</text><line style="stroke:#181818;stroke-width:0.5;" x1="496" x2="702" y1="39" y2="39"/><line style="stroke:#181818;stroke-width:0.5;" x1="496" x2="702" y1="47" y2="47"/></g><!--MD5=[6ae7055979c2d90b52b3f1c431a9fa04]
class CellDataPersistence--><g id="elem_CellDataPersistence"><rect fill="#F1F1F1" height="48" id="CellDataPersistence" rx="2.5" ry="2.5" style="stroke:#181818;stroke-width:0.5;" width="175" x="511.5" y="90"/><ellipse cx="526.5" cy="106" fill="#ADD1B2" rx="11" ry="11" style="stroke:#181818;stroke-width:1.0;"/><path d="M529.4731,111.6431 Q528.8921,111.9419 528.2529,112.0913 Q527.6138,112.2407 526.9082,112.2407 Q524.4014,112.2407 523.0815,110.5889 Q521.7617,108.937 521.7617,105.8159 Q521.7617,102.6865 523.0815,101.0347 Q524.4014,99.3828 526.9082,99.3828 Q527.6138,99.3828 528.2612,99.5322 Q528.9087,99.6816 529.4731,99.9805 L529.4731,102.7031 Q528.8423,102.1221 528.2488,101.8523 Q527.6553,101.5825 527.0244,101.5825 Q525.6797,101.5825 524.9949,102.6492 Q524.3101,103.7158 524.3101,105.8159 Q524.3101,107.9077 524.9949,108.9744 Q525.6797,110.041 527.0244,110.041 Q527.6553,110.041 528.2488,109.7712 Q528.8423,109.5015 529.4731,108.9204 Z " fill="#000000"/><text fill="#000000" font-family="sans-serif" font-size="14" font-weight="bold" lengthAdjust="spacing" textLength="143" x="540.5" y="111.291">CellDataPersistence</text><line style="stroke:#181818;stroke-width:0.5;" x1="512.5" x2="685.5" y1="122" y2="122"/><line style="stroke:#181818;stroke-width:0.5;" x1="512.5" x2="685.5" y1="130" y2="130"/></g><!--MD5=[f696e707fdca492a2603bf38737624db]
class GridCellFieldNotifier--><g id="elem_GridCellFieldNotifier"><rect fill="#F1F1F1" height="48" id="GridCellFieldNotifier" rx="2.5" ry="2.5" style="stroke:#181818;stroke-width:0.5;" width="181" x="242" y="505"/><ellipse cx="257" cy="521" fill="#ADD1B2" rx="11" ry="11" style="stroke:#181818;stroke-width:1.0;"/><path d="M259.9731,526.6431 Q259.3921,526.9419 258.7529,527.0913 Q258.1138,527.2407 257.4082,527.2407 Q254.9014,527.2407 253.5815,525.5889 Q252.2617,523.937 252.2617,520.8159 Q252.2617,517.6865 253.5815,516.0347 Q254.9014,514.3828 257.4082,514.3828 Q258.1138,514.3828 258.7612,514.5322 Q259.4087,514.6816 259.9731,514.9805 L259.9731,517.7031 Q259.3423,517.1221 258.7488,516.8523 Q258.1553,516.5825 257.5244,516.5825 Q256.1797,516.5825 255.4949,517.6492 Q254.8101,518.7158 254.8101,520.8159 Q254.8101,522.9077 255.4949,523.9744 Q256.1797,525.041 257.5244,525.041 Q258.1553,525.041 258.7488,524.7712 Q259.3423,524.5015 259.9731,523.9204 Z " fill="#000000"/><text fill="#000000" font-family="sans-serif" font-size="14" font-weight="bold" lengthAdjust="spacing" textLength="149" x="271" y="526.291">GridCellFieldNotifier</text><line style="stroke:#181818;stroke-width:0.5;" x1="243" x2="422" y1="537" y2="537"/><line style="stroke:#181818;stroke-width:0.5;" x1="243" x2="422" y1="545" y2="545"/></g><!--MD5=[fbc041d9334774ce2c69a950796e90cf]
link GridCellController to GridCellIdentifier--><g id="link_GridCellController_GridCellIdentifier"><path codeLine="11" d="M159.5,255.99 C189.84,245.59 225.42,233.38 256.32,222.78 " fill="none" id="GridCellController-to-GridCellIdentifier" style="stroke:#181818;stroke-width:1.0;"/><polygon fill="#181818" points="261.24,221.1,251.428,220.2488,256.5125,222.7282,254.0331,227.8127,261.24,221.1" style="stroke:#181818;stroke-width:1.0;"/></g><!--MD5=[8c858d6bedcd63df1ebce998b8696a17]
link GridCellController to CellListener--><g id="link_GridCellController_CellListener"><path codeLine="12" d="M170.08,280 C202.06,280 238.29,280 268.31,280 " fill="none" id="GridCellController-to-CellListener" style="stroke:#181818;stroke-width:1.0;"/><polygon fill="#181818" points="273.45,280,264.45,276,268.45,280,264.45,284,273.45,280" style="stroke:#181818;stroke-width:1.0;"/></g><!--MD5=[6bc274305d6fe078c635db17611059b5]
link GridCellController to TypeOptionDataParser--><g id="link_GridCellController_TypeOptionDataParser"><path codeLine="13" d="M111.84,255.61 C138,228.19 183.67,183.75 230,155 C238.74,149.57 248.33,144.61 258.01,140.15 " fill="none" id="GridCellController-to-TypeOptionDataParser" style="stroke:#181818;stroke-width:1.0;"/><polygon fill="#181818" points="262.76,138.01,252.9113,138.0671,258.2028,140.0672,256.2028,145.3587,262.76,138.01" style="stroke:#181818;stroke-width:1.0;"/></g><!--MD5=[6c375e25241920744598dd8484fa030e]
link GridCellController to GridCellDataLoader--><g id="link_GridCellController_GridCellDataLoader"><path codeLine="16" d="M159.5,304.01 C189.84,314.41 225.42,326.62 256.32,337.22 " fill="none" id="GridCellController-to-GridCellDataLoader" style="stroke:#181818;stroke-width:1.0;"/><polygon fill="#181818" points="261.24,338.9,254.0331,332.1873,256.5125,337.2718,251.428,339.7512,261.24,338.9" style="stroke:#181818;stroke-width:1.0;"/></g><!--MD5=[64d7cb58ac0c0d29756a610b560d1210]
link GridCellDataLoader to GridCellDataParser--><g id="link_GridCellDataLoader_GridCellDataParser"><path codeLine="17" d="M418.28,363 C447.42,363 480.1,363 509.53,363 " fill="none" id="GridCellDataLoader-to-GridCellDataParser" style="stroke:#181818;stroke-width:1.0;"/><polygon fill="#181818" points="514.6,363,505.6,359,509.6,363,505.6,367,514.6,363" style="stroke:#181818;stroke-width:1.0;"/></g><!--MD5=[854baced14298a05c788cef7c261871e]
link GridCellDataLoader to CellService--><g id="link_GridCellDataLoader_CellService"><path codeLine="18" d="M393,338.91 C406.84,333.16 421.48,326.96 435,321 C576.02,258.84 739.76,180.52 822.76,140.38 " fill="none" id="GridCellDataLoader-to-CellService" style="stroke:#181818;stroke-width:1.0;"/><polygon fill="#181818" points="827.62,138.03,817.776,138.3388,823.1169,140.2029,821.2527,145.5438,827.62,138.03" style="stroke:#181818;stroke-width:1.0;"/></g><!--MD5=[d4a77e27ae845d3c59c057009d64d397]
reverse link GridCellDataParser to StringCellDataParser--><g id="link_GridCellDataParser_StringCellDataParser"><path codeLine="21" d="M660.68,329.33 C690.97,313.15 728.43,294.05 763,279 C776.6,273.08 791.35,267.31 805.59,262.06 " fill="none" id="GridCellDataParser-backto-StringCellDataParser" style="stroke:#181818;stroke-width:1.0;"/><polygon fill="none" points="663.76,335.62,642.84,338.97,657.11,323.3,663.76,335.62" style="stroke:#181818;stroke-width:1.0;"/></g><!--MD5=[604c785d77932438d3194175b11275b5]
reverse link GridCellDataParser to DateCellDataParser--><g id="link_GridCellDataParser_DateCellDataParser"><path codeLine="22" d="M702.98,347.39 C732.3,342.94 763.91,338.15 792.03,333.88 " fill="none" id="GridCellDataParser-backto-DateCellDataParser" style="stroke:#181818;stroke-width:1.0;"/><polygon fill="none" points="703.93,354.32,683.11,350.4,701.83,340.48,703.93,354.32" style="stroke:#181818;stroke-width:1.0;"/></g><!--MD5=[92f725f907930169b7c50fc8e4ded037]
reverse link GridCellDataParser to SelectOptionCellDataParser--><g id="link_GridCellDataParser_SelectOptionCellDataParser"><path codeLine="23" d="M703.03,378.25 C722.56,381.14 743.11,384.18 762.96,387.12 " fill="none" id="GridCellDataParser-backto-SelectOptionCellDataParser" style="stroke:#181818;stroke-width:1.0;"/><polygon fill="none" points="701.87,385.15,683.11,375.3,703.92,371.31,701.87,385.15" style="stroke:#181818;stroke-width:1.0;"/></g><!--MD5=[8fcc232f5568bb4b4a168bf8e7fe1b06]
reverse link GridCellDataParser to URLCellDataParser--><g id="link_GridCellDataParser_URLCellDataParser"><path codeLine="24" d="M661.36,396.55 C691.54,412.46 728.72,431.18 763,446 C776.71,451.93 791.58,457.72 805.92,463 " fill="none" id="GridCellDataParser-backto-URLCellDataParser" style="stroke:#181818;stroke-width:1.0;"/><polygon fill="none" points="657.92,402.65,643.56,387.07,664.5,390.3,657.92,402.65" style="stroke:#181818;stroke-width:1.0;"/></g><!--MD5=[56b60d79d946fdde3fc3910305868c70]
link GridCellController to GridCellCache--><g id="link_GridCellController_GridCellCache"><path codeLine="27" d="M111.84,304.39 C138,331.81 183.67,376.25 230,405 C239.82,411.09 250.7,416.61 261.59,421.47 " fill="none" id="GridCellController-to-GridCellCache" style="stroke:#181818;stroke-width:1.0;"/><polygon fill="#181818" points="266.25,423.52,259.5995,416.2556,261.6669,421.5212,256.4014,423.5885,266.25,423.52" style="stroke:#181818;stroke-width:1.0;"/></g><!--MD5=[a0dfa9d94f9ff13a6058085849b3eb8a]
link GridCellController to GridCellDataPersistence--><g id="link_GridCellController_GridCellDataPersistence"><path codeLine="31" d="M100.02,255.7 C119.66,212.96 165.8,123.95 230,72 C236.79,66.5 244.42,61.66 252.37,57.41 " fill="none" id="GridCellController-to-GridCellDataPersistence" style="stroke:#181818;stroke-width:1.0;"/><polygon fill="#181818" points="256.81,55.11,246.9786,55.6954,252.3697,57.4087,250.6564,62.7998,256.81,55.11" style="stroke:#181818;stroke-width:1.0;"/></g><!--MD5=[6b73711a4a9516a3addf95b1624c8952]
reverse link GridCellDataPersistence to DateCellDataPersistence--><g id="link_GridCellDataPersistence_DateCellDataPersistence"><path codeLine="32" d="M455.4,31 C468.49,31 481.73,31 494.58,31 " fill="none" id="GridCellDataPersistence-backto-DateCellDataPersistence" style="stroke:#181818;stroke-width:1.0;"/><polygon fill="none" points="455.01,38,435.01,31,455.01,24,455.01,38" style="stroke:#181818;stroke-width:1.0;"/></g><!--MD5=[ccef841d943a4343d32402bdf7fdccb9]
reverse link GridCellDataPersistence to CellDataPersistence--><g id="link_GridCellDataPersistence_CellDataPersistence"><path codeLine="33" d="M429.38,61.09 C459.58,70.56 492.52,80.9 521.21,89.9 " fill="none" id="GridCellDataPersistence-backto-CellDataPersistence" style="stroke:#181818;stroke-width:1.0;"/><polygon fill="none" points="426.99,67.67,410,55.01,431.18,54.32,426.99,67.67" style="stroke:#181818;stroke-width:1.0;"/></g><!--MD5=[464ba975be027d4b90e9268a48d445eb]
link DateCellDataPersistence to CellService--><g id="link_DateCellDataPersistence_CellService"><path codeLine="35" d="M680.12,55.01 C724.19,68.21 777.9,84.31 818.09,96.35 " fill="none" id="DateCellDataPersistence-to-CellService" style="stroke:#181818;stroke-width:1.0;"/><polygon fill="#181818" points="822.92,97.8,815.4349,91.3989,818.1277,96.3737,813.1529,99.0665,822.92,97.8" style="stroke:#181818;stroke-width:1.0;"/></g><!--MD5=[843954b632355f47e3e49bbd8fe9666e]
link CellDataPersistence to CellService--><g id="link_CellDataPersistence_CellService"><path codeLine="36" d="M686.51,114 C729.19,114 779.59,114 817.83,114 " fill="none" id="CellDataPersistence-to-CellService" style="stroke:#181818;stroke-width:1.0;"/><polygon fill="#181818" points="822.9,114,813.9,110,817.9,114,813.9,118,822.9,114" style="stroke:#181818;stroke-width:1.0;"/></g><!--MD5=[58f218334d3044c52bae76ad36eb7944]
link GridCellController to GridCellFieldNotifier--><g id="link_GridCellController_GridCellFieldNotifier"><path codeLine="39" d="M100.02,304.3 C119.66,347.04 165.8,436.05 230,488 C236.79,493.5 244.42,498.34 252.37,502.59 " fill="none" id="GridCellController-to-GridCellFieldNotifier" style="stroke:#181818;stroke-width:1.0;"/><polygon fill="#181818" points="256.81,504.89,250.6564,497.2002,252.3697,502.5913,246.9786,504.3046,256.81,504.89" style="stroke:#181818;stroke-width:1.0;"/></g><!--MD5=[c8c12bbe138495c1d449ee8096fffbe2]
@startuml Grid Cell Controller
skinparam classFontStyle Bold
skinparam ActivityBackgroundColor Silver
skinparam ActivityBorderColor DimGray
left to right direction

interface GridCellDataPersistence
interface GridCellController
interface GridCellDataParser
interface TypeOptionDataParser

GridCellController - -> GridCellIdentifier
GridCellController - -> CellListener
GridCellController - -> TypeOptionDataParser

'Data loader
GridCellController - -> GridCellDataLoader
GridCellDataLoader - -> GridCellDataParser
GridCellDataLoader - -> CellService

'Data parser
StringCellDataParser -u-|> GridCellDataParser
DateCellDataParser -u-|> GridCellDataParser
SelectOptionCellDataParser -u-|> GridCellDataParser
URLCellDataParser -u-|> GridCellDataParser

'Cache
GridCellController - -> GridCellCache


'Persistence
GridCellController - -> GridCellDataPersistence
DateCellDataPersistence -u-|> GridCellDataPersistence
CellDataPersistence -u-|> GridCellDataPersistence

DateCellDataPersistence - -> CellService
CellDataPersistence - -> CellService

'Field
GridCellController - -> GridCellFieldNotifier

@enduml

@startuml Grid Cell Controller
skinparam classFontStyle Bold
skinparam ActivityBackgroundColor Silver
skinparam ActivityBorderColor DimGray
left to right direction

interface GridCellDataPersistence
interface GridCellController
interface GridCellDataParser
interface TypeOptionDataParser

GridCellController - -> GridCellIdentifier
GridCellController - -> CellListener
GridCellController - -> TypeOptionDataParser

GridCellController - -> GridCellDataLoader
GridCellDataLoader - -> GridCellDataParser
GridCellDataLoader - -> CellService

StringCellDataParser -u-|> GridCellDataParser
DateCellDataParser -u-|> GridCellDataParser
SelectOptionCellDataParser -u-|> GridCellDataParser
URLCellDataParser -u-|> GridCellDataParser

GridCellController - -> GridCellCache


GridCellController - -> GridCellDataPersistence
DateCellDataPersistence -u-|> GridCellDataPersistence
CellDataPersistence -u-|> GridCellDataPersistence

DateCellDataPersistence - -> CellService
CellDataPersistence - -> CellService

GridCellController - -> GridCellFieldNotifier

@enduml

PlantUML version 1.2022.7(Tue Aug 23 01:01:30 CST 2022)
(GPL source distribution)
Java Runtime: OpenJDK Runtime Environment
JVM: OpenJDK 64-Bit Server VM
Default Encoding: UTF-8
Language: en
Country: US
--></g></svg>