<?xml version="1.0" encoding="UTF-8" standalone="no"?><svg xmlns="http://www.w3.org/2000/svg" xmlns:xlink="http://www.w3.org/1999/xlink" contentStyleType="text/css" height="255px" preserveAspectRatio="none" style="width:951px;height:255px;background:#FFFFFF;" version="1.1" viewBox="0 0 951 255" width="951px" zoomAndPan="magnify"><defs/><g><!--MD5=[5b94ec8925bfa2f4b2693e268f6c1bc2]
class GridRowWidget--><g id="elem_GridRowWidget"><rect fill="#F1F1F1" height="48" id="GridRowWidget" rx="2.5" ry="2.5" style="stroke:#181818;stroke-width:0.5;" width="143" x="7" y="153"/><ellipse cx="22" cy="169" fill="#ADD1B2" rx="11" ry="11" style="stroke:#181818;stroke-width:1.0;"/><path d="M24.4731,175.1431 Q23.8921,175.4419 23.2529,175.5913 Q22.6138,175.7407 21.9082,175.7407 Q19.4014,175.7407 18.0815,174.0889 Q16.7617,172.437 16.7617,169.3159 Q16.7617,166.1865 18.0815,164.5347 Q19.4014,162.8828 21.9082,162.8828 Q22.6138,162.8828 23.2612,163.0322 Q23.9087,163.1816 24.4731,163.4805 L24.4731,166.2031 Q23.8423,165.6221 23.2488,165.3523 Q22.6553,165.0825 22.0244,165.0825 Q20.6797,165.0825 19.9949,166.1492 Q19.3101,167.2158 19.3101,169.3159 Q19.3101,171.4077 19.9949,172.4744 Q20.6797,173.541 22.0244,173.541 Q22.6553,173.541 23.2488,173.2712 Q23.8423,173.0015 24.4731,172.4204 Z " fill="#000000"/><text fill="#000000" font-family="sans-serif" font-size="14" font-weight="bold" lengthAdjust="spacing" textLength="111" x="36" y="174.291">GridRowWidget</text><line style="stroke:#181818;stroke-width:0.5;" x1="8" x2="149" y1="185" y2="185"/><line style="stroke:#181818;stroke-width:0.5;" x1="8" x2="149" y1="193" y2="193"/></g><!--MD5=[e9a331232edddcf3f9d7d0915d3ce29f]
class RowBloc--><g id="elem_RowBloc"><rect fill="#F1F1F1" height="48" id="RowBloc" rx="2.5" ry="2.5" style="stroke:#181818;stroke-width:0.5;" width="93" x="235" y="90"/><ellipse cx="250" cy="106" fill="#ADD1B2" rx="11" ry="11" style="stroke:#181818;stroke-width:1.0;"/><path d="M252.4731,112.1431 Q251.8921,112.4419 251.2529,112.5913 Q250.6138,112.7407 249.9082,112.7407 Q247.4014,112.7407 246.0815,111.0889 Q244.7617,109.437 244.7617,106.3159 Q244.7617,103.1865 246.0815,101.5347 Q247.4014,99.8828 249.9082,99.8828 Q250.6138,99.8828 251.2612,100.0322 Q251.9087,100.1816 252.4731,100.4805 L252.4731,103.2031 Q251.8423,102.6221 251.2488,102.3523 Q250.6553,102.0825 250.0244,102.0825 Q248.6797,102.0825 247.9949,103.1492 Q247.3101,104.2158 247.3101,106.3159 Q247.3101,108.4077 247.9949,109.4744 Q248.6797,110.541 250.0244,110.541 Q250.6553,110.541 251.2488,110.2712 Q251.8423,110.0015 252.4731,109.4204 Z " fill="#000000"/><text fill="#000000" font-family="sans-serif" font-size="14" font-weight="bold" lengthAdjust="spacing" textLength="61" x="264" y="111.291">RowBloc</text><line style="stroke:#181818;stroke-width:0.5;" x1="236" x2="327" y1="122" y2="122"/><line style="stroke:#181818;stroke-width:0.5;" x1="236" x2="327" y1="130" y2="130"/></g><!--MD5=[79b03f48159234f16d17aaca0290e5ca]
class GridCellBuilder--><g id="elem_GridCellBuilder"><rect fill="#F1F1F1" height="48" id="GridCellBuilder" rx="2.5" ry="2.5" style="stroke:#181818;stroke-width:0.5;" width="141" x="211" y="173"/><ellipse cx="226" cy="189" fill="#ADD1B2" rx="11" ry="11" style="stroke:#181818;stroke-width:1.0;"/><path d="M228.4731,195.1431 Q227.8921,195.4419 227.2529,195.5913 Q226.6138,195.7407 225.9082,195.7407 Q223.4014,195.7407 222.0815,194.0889 Q220.7617,192.437 220.7617,189.3159 Q220.7617,186.1865 222.0815,184.5347 Q223.4014,182.8828 225.9082,182.8828 Q226.6138,182.8828 227.2612,183.0322 Q227.9087,183.1816 228.4731,183.4805 L228.4731,186.2031 Q227.8423,185.6221 227.2488,185.3523 Q226.6553,185.0825 226.0244,185.0825 Q224.6797,185.0825 223.9949,186.1492 Q223.3101,187.2158 223.3101,189.3159 Q223.3101,191.4077 223.9949,192.4744 Q224.6797,193.541 226.0244,193.541 Q226.6553,193.541 227.2488,193.2712 Q227.8423,193.0015 228.4731,192.4204 Z " fill="#000000"/><text fill="#000000" font-family="sans-serif" font-size="14" font-weight="bold" lengthAdjust="spacing" textLength="109" x="240" y="194.291">GridCellBuilder</text><line style="stroke:#181818;stroke-width:0.5;" x1="212" x2="351" y1="205" y2="205"/><line style="stroke:#181818;stroke-width:0.5;" x1="212" x2="351" y1="213" y2="213"/></g><!--MD5=[f5613a549a2487265f13de4624667021]
class RowService--><g id="elem_RowService"><rect fill="#F1F1F1" height="48" id="RowService" rx="2.5" ry="2.5" style="stroke:#181818;stroke-width:0.5;" width="113" x="424" y="7"/><ellipse cx="439" cy="23" fill="#ADD1B2" rx="11" ry="11" style="stroke:#181818;stroke-width:1.0;"/><path d="M441.4731,29.1431 Q440.8921,29.4419 440.2529,29.5913 Q439.6138,29.7407 438.9082,29.7407 Q436.4014,29.7407 435.0815,28.0889 Q433.7617,26.437 433.7617,23.3159 Q433.7617,20.1865 435.0815,18.5347 Q436.4014,16.8828 438.9082,16.8828 Q439.6138,16.8828 440.2612,17.0322 Q440.9087,17.1816 441.4731,17.4805 L441.4731,20.2031 Q440.8423,19.6221 440.2488,19.3523 Q439.6553,19.0825 439.0244,19.0825 Q437.6797,19.0825 436.9949,20.1492 Q436.3101,21.2158 436.3101,23.3159 Q436.3101,25.4077 436.9949,26.4744 Q437.6797,27.541 439.0244,27.541 Q439.6553,27.541 440.2488,27.2712 Q440.8423,27.0015 441.4731,26.4204 Z " fill="#000000"/><text fill="#000000" font-family="sans-serif" font-size="14" font-weight="bold" lengthAdjust="spacing" textLength="81" x="453" y="28.291">RowService</text><line style="stroke:#181818;stroke-width:0.5;" x1="425" x2="536" y1="39" y2="39"/><line style="stroke:#181818;stroke-width:0.5;" x1="425" x2="536" y1="47" y2="47"/></g><!--MD5=[c6748457c4a15219a60a81b35778ca8c]
class GridRowCache--><g id="elem_GridRowCache"><rect fill="#F1F1F1" height="48" id="GridRowCache" rx="2.5" ry="2.5" style="stroke:#181818;stroke-width:0.5;" width="135" x="413" y="90"/><ellipse cx="428" cy="106" fill="#ADD1B2" rx="11" ry="11" style="stroke:#181818;stroke-width:1.0;"/><path d="M430.4731,112.1431 Q429.8921,112.4419 429.2529,112.5913 Q428.6138,112.7407 427.9082,112.7407 Q425.4014,112.7407 424.0815,111.0889 Q422.7617,109.437 422.7617,106.3159 Q422.7617,103.1865 424.0815,101.5347 Q425.4014,99.8828 427.9082,99.8828 Q428.6138,99.8828 429.2612,100.0322 Q429.9087,100.1816 430.4731,100.4805 L430.4731,103.2031 Q429.8423,102.6221 429.2488,102.3523 Q428.6553,102.0825 428.0244,102.0825 Q426.6797,102.0825 425.9949,103.1492 Q425.3101,104.2158 425.3101,106.3159 Q425.3101,108.4077 425.9949,109.4744 Q426.6797,110.541 428.0244,110.541 Q428.6553,110.541 429.2488,110.2712 Q429.8423,110.0015 430.4731,109.4204 Z " fill="#000000"/><text fill="#000000" font-family="sans-serif" font-size="14" font-weight="bold" lengthAdjust="spacing" textLength="103" x="442" y="111.291">GridRowCache</text><line style="stroke:#181818;stroke-width:0.5;" x1="414" x2="547" y1="122" y2="122"/><line style="stroke:#181818;stroke-width:0.5;" x1="414" x2="547" y1="130" y2="130"/></g><!--MD5=[64596bf797181233ea1f132a2228edec]
class GridCellCache--><g id="elem_GridCellCache"><rect fill="#F1F1F1" height="48" id="GridCellCache" rx="2.5" ry="2.5" style="stroke:#181818;stroke-width:0.5;" width="132" x="636" y="68"/><ellipse cx="651" cy="84" fill="#ADD1B2" rx="11" ry="11" style="stroke:#181818;stroke-width:1.0;"/><path d="M653.4731,90.1431 Q652.8921,90.4419 652.2529,90.5913 Q651.6138,90.7407 650.9082,90.7407 Q648.4014,90.7407 647.0815,89.0889 Q645.7617,87.437 645.7617,84.3159 Q645.7617,81.1865 647.0815,79.5347 Q648.4014,77.8828 650.9082,77.8828 Q651.6138,77.8828 652.2612,78.0322 Q652.9087,78.1816 653.4731,78.4805 L653.4731,81.2031 Q652.8423,80.6221 652.2488,80.3523 Q651.6553,80.0825 651.0244,80.0825 Q649.6797,80.0825 648.9949,81.1492 Q648.3101,82.2158 648.3101,84.3159 Q648.3101,86.4077 648.9949,87.4744 Q649.6797,88.541 651.0244,88.541 Q651.6553,88.541 652.2488,88.2712 Q652.8423,88.0015 653.4731,87.4204 Z " fill="#000000"/><text fill="#000000" font-family="sans-serif" font-size="14" font-weight="bold" lengthAdjust="spacing" textLength="100" x="665" y="89.291">GridCellCache</text><line style="stroke:#181818;stroke-width:0.5;" x1="637" x2="767" y1="100" y2="100"/><line style="stroke:#181818;stroke-width:0.5;" x1="637" x2="767" y1="108" y2="108"/></g><!--MD5=[c6047ee4a68c20da966445c4fab6ff4f]
class GridRowInfo--><g id="elem_GridRowInfo"><rect fill="#F1F1F1" height="48" id="GridRowInfo" rx="2.5" ry="2.5" style="stroke:#181818;stroke-width:0.5;" width="122" x="641" y="159"/><ellipse cx="656" cy="175" fill="#ADD1B2" rx="11" ry="11" style="stroke:#181818;stroke-width:1.0;"/><path d="M658.4731,181.1431 Q657.8921,181.4419 657.2529,181.5913 Q656.6138,181.7407 655.9082,181.7407 Q653.4014,181.7407 652.0815,180.0889 Q650.7617,178.437 650.7617,175.3159 Q650.7617,172.1865 652.0815,170.5347 Q653.4014,168.8828 655.9082,168.8828 Q656.6138,168.8828 657.2612,169.0322 Q657.9087,169.1816 658.4731,169.4805 L658.4731,172.2031 Q657.8423,171.6221 657.2488,171.3523 Q656.6553,171.0825 656.0244,171.0825 Q654.6797,171.0825 653.9949,172.1492 Q653.3101,173.2158 653.3101,175.3159 Q653.3101,177.4077 653.9949,178.4744 Q654.6797,179.541 656.0244,179.541 Q656.6553,179.541 657.2488,179.2712 Q657.8423,179.0015 658.4731,178.4204 Z " fill="#000000"/><text fill="#000000" font-family="sans-serif" font-size="14" font-weight="bold" lengthAdjust="spacing" textLength="90" x="670" y="180.291">GridRowInfo</text><line style="stroke:#181818;stroke-width:0.5;" x1="642" x2="762" y1="191" y2="191"/><line style="stroke:#181818;stroke-width:0.5;" x1="642" x2="762" y1="199" y2="199"/></g><!--MD5=[3ccf0c413f3079b5ec7dd83f316c918f]
class GridRowPB--><g id="elem_GridRowPB"><rect fill="#F1F1F1" height="48" id="GridRowPB" rx="2.5" ry="2.5" style="stroke:#181818;stroke-width:0.5;" width="111" x="831" y="117"/><ellipse cx="846" cy="133" fill="#ADD1B2" rx="11" ry="11" style="stroke:#181818;stroke-width:1.0;"/><path d="M848.4731,139.1431 Q847.8921,139.4419 847.2529,139.5913 Q846.6138,139.7407 845.9082,139.7407 Q843.4014,139.7407 842.0815,138.0889 Q840.7617,136.437 840.7617,133.3159 Q840.7617,130.1865 842.0815,128.5347 Q843.4014,126.8828 845.9082,126.8828 Q846.6138,126.8828 847.2612,127.0322 Q847.9087,127.1816 848.4731,127.4805 L848.4731,130.2031 Q847.8423,129.6221 847.2488,129.3523 Q846.6553,129.0825 846.0244,129.0825 Q844.6797,129.0825 843.9949,130.1492 Q843.3101,131.2158 843.3101,133.3159 Q843.3101,135.4077 843.9949,136.4744 Q844.6797,137.541 846.0244,137.541 Q846.6553,137.541 847.2488,137.2712 Q847.8423,137.0015 848.4731,136.4204 Z " fill="#000000"/><text fill="#000000" font-family="sans-serif" font-size="14" font-weight="bold" lengthAdjust="spacing" textLength="79" x="860" y="138.291">GridRowPB</text><line style="stroke:#181818;stroke-width:0.5;" x1="832" x2="941" y1="149" y2="149"/><line style="stroke:#181818;stroke-width:0.5;" x1="832" x2="941" y1="157" y2="157"/></g><!--MD5=[65b228fdf92ef8cdc8129bacccaf028a]
class GridFieldPB--><g id="elem_GridFieldPB"><rect fill="#F1F1F1" height="48" id="GridFieldPB" rx="2.5" ry="2.5" style="stroke:#181818;stroke-width:0.5;" width="115" x="829" y="200"/><ellipse cx="844" cy="216" fill="#ADD1B2" rx="11" ry="11" style="stroke:#181818;stroke-width:1.0;"/><path d="M846.4731,222.1431 Q845.8921,222.4419 845.2529,222.5913 Q844.6138,222.7407 843.9082,222.7407 Q841.4014,222.7407 840.0815,221.0889 Q838.7617,219.437 838.7617,216.3159 Q838.7617,213.1865 840.0815,211.5347 Q841.4014,209.8828 843.9082,209.8828 Q844.6138,209.8828 845.2612,210.0322 Q845.9087,210.1816 846.4731,210.4805 L846.4731,213.2031 Q845.8423,212.6221 845.2488,212.3523 Q844.6553,212.0825 844.0244,212.0825 Q842.6797,212.0825 841.9949,213.1492 Q841.3101,214.2158 841.3101,216.3159 Q841.3101,218.4077 841.9949,219.4744 Q842.6797,220.541 844.0244,220.541 Q844.6553,220.541 845.2488,220.2712 Q845.8423,220.0015 846.4731,219.4204 Z " fill="#000000"/><text fill="#000000" font-family="sans-serif" font-size="14" font-weight="bold" lengthAdjust="spacing" textLength="83" x="858" y="221.291">GridFieldPB</text><line style="stroke:#181818;stroke-width:0.5;" x1="830" x2="943" y1="232" y2="232"/><line style="stroke:#181818;stroke-width:0.5;" x1="830" x2="943" y1="240" y2="240"/></g><!--MD5=[f5815549071b8b303ac8e9bf18f6cb29]
link GridRowWidget to RowBloc--><g id="link_GridRowWidget_RowBloc"><path codeLine="6" d="M150.08,154.88 C176.38,146.64 205.68,137.45 229.84,129.88 " fill="none" id="GridRowWidget-to-RowBloc" style="stroke:#181818;stroke-width:1.0;"/><polygon fill="#181818" points="234.91,128.29,225.1247,127.1732,230.1401,129.7895,227.5239,134.805,234.91,128.29" style="stroke:#181818;stroke-width:1.0;"/></g><!--MD5=[96dc08691d67541d8ac5f8d219b3833c]
link GridRowWidget to GridCellBuilder--><g id="link_GridRowWidget_GridCellBuilder"><path codeLine="7" d="M150.08,184.02 C168.07,185.81 187.47,187.74 205.67,189.55 " fill="none" id="GridRowWidget-to-GridCellBuilder" style="stroke:#181818;stroke-width:1.0;"/><polygon fill="#181818" points="210.77,190.06,202.2003,185.2062,205.7936,189.5752,201.4246,193.1685,210.77,190.06" style="stroke:#181818;stroke-width:1.0;"/></g><!--MD5=[e3ce3a0eaceae0d3a253126d5d3b781f]
link RowBloc to RowService--><g id="link_RowBloc_RowService"><path codeLine="9" d="M328.19,94.75 C355.27,83.34 389.91,68.74 419.22,56.4 " fill="none" id="RowBloc-to-RowService" style="stroke:#181818;stroke-width:1.0;"/><polygon fill="#181818" points="423.87,54.44,414.0228,54.2569,419.264,56.3854,417.1355,61.6265,423.87,54.44" style="stroke:#181818;stroke-width:1.0;"/></g><!--MD5=[dadadf11dc7d7eadf218704633c1b448]
link RowBloc to GridRowCache--><g id="link_RowBloc_GridRowCache"><path codeLine="12" d="M328.19,114 C351.74,114 381.01,114 407.51,114 " fill="none" id="RowBloc-to-GridRowCache" style="stroke:#181818;stroke-width:1.0;"/><polygon fill="#181818" points="412.77,114,403.77,110,407.77,114,403.77,118,412.77,114" style="stroke:#181818;stroke-width:1.0;"/></g><!--MD5=[3aaa1c5f4e3b25319e224dd5fca3b1a5]
link GridRowCache to GridCellCache--><g id="link_GridRowCache_GridCellCache"><path codeLine="13" d="M548.25,107.31 C574.27,104.7 604.11,101.71 630.47,99.07 " fill="none" id="GridRowCache-to-GridCellCache" style="stroke:#181818;stroke-width:1.0;"/><polygon fill="#181818" points="635.7,98.55,626.3458,95.468,630.725,99.0489,627.1441,103.4281,635.7,98.55" style="stroke:#181818;stroke-width:1.0;"/><text fill="#000000" font-family="sans-serif" font-size="13" lengthAdjust="spacing" textLength="26" x="579" y="98.5684">own</text></g><!--MD5=[7cdff14a09148f186fe944e0c0f9d0e0]
reverse link GridRowCache to GridRowInfo--><g id="link_GridRowCache_GridRowInfo"><path codeLine="14" d="M560.97,138.98 C587.34,147.27 616.24,156.36 640.91,164.11 " fill="none" id="GridRowCache-backto-GridRowInfo" style="stroke:#181818;stroke-width:1.0;"/><polygon fill="#181818" points="548.25,134.98,552.7735,140.5959,559.6972,138.5803,555.1737,132.9644,548.25,134.98" style="stroke:#181818;stroke-width:1.0;"/><text fill="#000000" font-family="sans-serif" font-size="13" lengthAdjust="spacing" textLength="8" x="556.0977" y="150.6803">1</text><text fill="#000000" font-family="sans-serif" font-size="13" lengthAdjust="spacing" textLength="6" x="627.099" y="175.3091">*</text></g><!--MD5=[07e7b0872d0c64468f9addda02b6bf2c]
link GridRowInfo to GridRowPB--><g id="link_GridRowInfo_GridRowPB"><path codeLine="15" d="M763.01,169.19 C783.12,164.56 805.54,159.4 825.64,154.78 " fill="none" id="GridRowInfo-to-GridRowPB" style="stroke:#181818;stroke-width:1.0;"/><polygon fill="#181818" points="830.7,153.61,821.0294,151.7445,825.829,154.7385,822.835,159.538,830.7,153.61" style="stroke:#181818;stroke-width:1.0;"/></g><!--MD5=[8fede6e329e7682fb2a9ae4ade228322]
reverse link GridRowInfo to GridFieldPB--><g id="link_GridRowInfo_GridFieldPB"><path codeLine="16" d="M775.94,199.39 C793.55,203.34 812.12,207.51 828.86,211.28 " fill="none" id="GridRowInfo-backto-GridFieldPB" style="stroke:#181818;stroke-width:1.0;"/><polygon fill="none" points="763.01,196.48,767.9901,201.6952,774.7196,199.1041,769.7395,193.8889,763.01,196.48" style="stroke:#181818;stroke-width:1.0;"/><text fill="#000000" font-family="sans-serif" font-size="13" lengthAdjust="spacing" textLength="8" x="770.9331" y="211.6242">1</text><text fill="#000000" font-family="sans-serif" font-size="13" lengthAdjust="spacing" textLength="6" x="815.0905" y="223.1994">*</text></g><!--MD5=[70a0635c489a62062fece38f8e1bb82a]
link RowBloc to GridRowInfo--><g id="link_RowBloc_GridRowInfo"><path codeLine="17" d="M328.09,130.88 C352.88,139.41 384.26,149.15 413,155 C488.5,170.36 576.91,177.36 635.66,180.51 " fill="none" id="RowBloc-to-GridRowInfo" style="stroke:#181818;stroke-width:1.0;"/><polygon fill="#181818" points="640.89,180.79,632.108,176.3317,635.8966,180.5325,631.6959,184.3211,640.89,180.79" style="stroke:#181818;stroke-width:1.0;"/></g><!--MD5=[a9c99bdd4606f88b1f65823cfb7dd74e]
@startuml
skinparam classFontStyle Bold
skinparam ActivityBackgroundColor Silver
skinparam ActivityBorderColor DimGray
left to right direction

GridRowWidget - -> RowBloc
GridRowWidget - -> GridCellBuilder

RowBloc - -> RowService

'cache
RowBloc - -> GridRowCache
GridRowCache - -> GridCellCache: own
GridRowCache "1" *- - "*" GridRowInfo
GridRowInfo - -> GridRowPB
GridRowInfo "1" o- - "*" GridFieldPB
RowBloc - -> GridRowInfo
@enduml

@startuml
skinparam classFontStyle Bold
skinparam ActivityBackgroundColor Silver
skinparam ActivityBorderColor DimGray
left to right direction

GridRowWidget - -> RowBloc
GridRowWidget - -> GridCellBuilder

RowBloc - -> RowService

RowBloc - -> GridRowCache
GridRowCache - -> GridCellCache: own
GridRowCache "1" *- - "*" GridRowInfo
GridRowInfo - -> GridRowPB
GridRowInfo "1" o- - "*" GridFieldPB
RowBloc - -> GridRowInfo
@enduml

PlantUML version 1.2022.5(Sat Apr 30 18:55:52 CST 2022)
(GPL source distribution)
Java Runtime: OpenJDK Runtime Environment
JVM: OpenJDK 64-Bit Server VM
Default Encoding: UTF-8
Language: en
Country: US
--></g></svg>