<?xml version="1.0" encoding="UTF-8" standalone="no"?><svg xmlns="http://www.w3.org/2000/svg" xmlns:xlink="http://www.w3.org/1999/xlink" contentStyleType="text/css" height="560px" preserveAspectRatio="none" style="width:591px;height:560px;background:#FFFFFF;" version="1.1" viewBox="0 0 591 560" width="591px" zoomAndPan="magnify"><defs/><g><!--MD5=[452fe8c2451e49a9a15fe43259853492]
class GridCellWidget--><g id="elem_GridCellWidget"><rect codeLine="6" fill="#F1F1F1" height="48" id="GridCellWidget" rx="2.5" ry="2.5" style="stroke:#181818;stroke-width:0.5;" width="140" x="208" y="256"/><ellipse cx="223" cy="272" fill="#B4A7E5" rx="11" ry="11" style="stroke:#181818;stroke-width:1.0;"/><path d="M218.9277,267.7651 L218.9277,265.6069 L226.3071,265.6069 L226.3071,267.7651 L223.8418,267.7651 L223.8418,275.8418 L226.3071,275.8418 L226.3071,278 L218.9277,278 L218.9277,275.8418 L221.3931,275.8418 L221.3931,267.7651 Z " fill="#000000"/><text fill="#000000" font-family="sans-serif" font-size="14" font-style="italic" font-weight="bold" lengthAdjust="spacing" textLength="108" x="237" y="277.291">GridCellWidget</text><line style="stroke:#181818;stroke-width:0.5;" x1="209" x2="347" y1="288" y2="288"/><line style="stroke:#181818;stroke-width:0.5;" x1="209" x2="347" y1="296" y2="296"/></g><!--MD5=[79b03f48159234f16d17aaca0290e5ca]
class GridCellBuilder--><g id="elem_GridCellBuilder"><rect fill="#F1F1F1" height="48" id="GridCellBuilder" rx="2.5" ry="2.5" style="stroke:#181818;stroke-width:0.5;" width="141" x="7" y="256"/><ellipse cx="22" cy="272" fill="#ADD1B2" rx="11" ry="11" style="stroke:#181818;stroke-width:1.0;"/><path d="M24.9731,277.6431 Q24.3921,277.9419 23.7529,278.0913 Q23.1138,278.2407 22.4082,278.2407 Q19.9014,278.2407 18.5815,276.5889 Q17.2617,274.937 17.2617,271.8159 Q17.2617,268.6865 18.5815,267.0347 Q19.9014,265.3828 22.4082,265.3828 Q23.1138,265.3828 23.7612,265.5322 Q24.4087,265.6816 24.9731,265.9805 L24.9731,268.7031 Q24.3423,268.1221 23.7488,267.8523 Q23.1553,267.5825 22.5244,267.5825 Q21.1797,267.5825 20.4949,268.6492 Q19.8101,269.7158 19.8101,271.8159 Q19.8101,273.9077 20.4949,274.9744 Q21.1797,276.041 22.5244,276.041 Q23.1553,276.041 23.7488,275.7712 Q24.3423,275.5015 24.9731,274.9204 Z " fill="#000000"/><text fill="#000000" font-family="sans-serif" font-size="14" font-weight="bold" lengthAdjust="spacing" textLength="109" x="36" y="277.291">GridCellBuilder</text><line style="stroke:#181818;stroke-width:0.5;" x1="8" x2="147" y1="288" y2="288"/><line style="stroke:#181818;stroke-width:0.5;" x1="8" x2="147" y1="296" y2="296"/></g><!--MD5=[5d641b6100d9a5b130aab51ebd1972ca]
class GridSingleSelectCell--><g id="elem_GridSingleSelectCell"><rect fill="#F1F1F1" height="48" id="GridSingleSelectCell" rx="2.5" ry="2.5" style="stroke:#181818;stroke-width:0.5;" width="176" x="408" y="7"/><ellipse cx="423" cy="23" fill="#ADD1B2" rx="11" ry="11" style="stroke:#181818;stroke-width:1.0;"/><path d="M425.9731,28.6431 Q425.3921,28.9419 424.7529,29.0913 Q424.1138,29.2407 423.4082,29.2407 Q420.9014,29.2407 419.5815,27.5889 Q418.2617,25.937 418.2617,22.8159 Q418.2617,19.6865 419.5815,18.0347 Q420.9014,16.3828 423.4082,16.3828 Q424.1138,16.3828 424.7612,16.5322 Q425.4087,16.6816 425.9731,16.9805 L425.9731,19.7031 Q425.3423,19.1221 424.7488,18.8523 Q424.1553,18.5825 423.5244,18.5825 Q422.1797,18.5825 421.4949,19.6492 Q420.8101,20.7158 420.8101,22.8159 Q420.8101,24.9077 421.4949,25.9744 Q422.1797,27.041 423.5244,27.041 Q424.1553,27.041 424.7488,26.7712 Q425.3423,26.5015 425.9731,25.9204 Z " fill="#000000"/><text fill="#000000" font-family="sans-serif" font-size="14" font-weight="bold" lengthAdjust="spacing" textLength="144" x="437" y="28.291">GridSingleSelectCell</text><line style="stroke:#181818;stroke-width:0.5;" x1="409" x2="583" y1="39" y2="39"/><line style="stroke:#181818;stroke-width:0.5;" x1="409" x2="583" y1="47" y2="47"/></g><!--MD5=[760c62e5fd4dc9038baa6c5bfda1c5f1]
class GridMultiSelectCell--><g id="elem_GridMultiSelectCell"><rect fill="#F1F1F1" height="48" id="GridMultiSelectCell" rx="2.5" ry="2.5" style="stroke:#181818;stroke-width:0.5;" width="170" x="411" y="90"/><ellipse cx="426" cy="106" fill="#ADD1B2" rx="11" ry="11" style="stroke:#181818;stroke-width:1.0;"/><path d="M428.9731,111.6431 Q428.3921,111.9419 427.7529,112.0913 Q427.1138,112.2407 426.4082,112.2407 Q423.9014,112.2407 422.5815,110.5889 Q421.2617,108.937 421.2617,105.8159 Q421.2617,102.6865 422.5815,101.0347 Q423.9014,99.3828 426.4082,99.3828 Q427.1138,99.3828 427.7612,99.5322 Q428.4087,99.6816 428.9731,99.9805 L428.9731,102.7031 Q428.3423,102.1221 427.7488,101.8523 Q427.1553,101.5825 426.5244,101.5825 Q425.1797,101.5825 424.4949,102.6492 Q423.8101,103.7158 423.8101,105.8159 Q423.8101,107.9077 424.4949,108.9744 Q425.1797,110.041 426.5244,110.041 Q427.1553,110.041 427.7488,109.7712 Q428.3423,109.5015 428.9731,108.9204 Z " fill="#000000"/><text fill="#000000" font-family="sans-serif" font-size="14" font-weight="bold" lengthAdjust="spacing" textLength="138" x="440" y="111.291">GridMultiSelectCell</text><line style="stroke:#181818;stroke-width:0.5;" x1="412" x2="580" y1="122" y2="122"/><line style="stroke:#181818;stroke-width:0.5;" x1="412" x2="580" y1="130" y2="130"/></g><!--MD5=[6cb825483ff74590f7d9cb7c7f6c5ced]
class GridDateCell--><g id="elem_GridDateCell"><rect fill="#F1F1F1" height="48" id="GridDateCell" rx="2.5" ry="2.5" style="stroke:#181818;stroke-width:0.5;" width="123" x="434.5" y="173"/><ellipse cx="449.5" cy="189" fill="#ADD1B2" rx="11" ry="11" style="stroke:#181818;stroke-width:1.0;"/><path d="M452.4731,194.6431 Q451.8921,194.9419 451.2529,195.0913 Q450.6138,195.2407 449.9082,195.2407 Q447.4014,195.2407 446.0815,193.5889 Q444.7617,191.937 444.7617,188.8159 Q444.7617,185.6865 446.0815,184.0347 Q447.4014,182.3828 449.9082,182.3828 Q450.6138,182.3828 451.2612,182.5322 Q451.9087,182.6816 452.4731,182.9805 L452.4731,185.7031 Q451.8423,185.1221 451.2488,184.8523 Q450.6553,184.5825 450.0244,184.5825 Q448.6797,184.5825 447.9949,185.6492 Q447.3101,186.7158 447.3101,188.8159 Q447.3101,190.9077 447.9949,191.9744 Q448.6797,193.041 450.0244,193.041 Q450.6553,193.041 451.2488,192.7712 Q451.8423,192.5015 452.4731,191.9204 Z " fill="#000000"/><text fill="#000000" font-family="sans-serif" font-size="14" font-weight="bold" lengthAdjust="spacing" textLength="91" x="463.5" y="194.291">GridDateCell</text><line style="stroke:#181818;stroke-width:0.5;" x1="435.5" x2="556.5" y1="205" y2="205"/><line style="stroke:#181818;stroke-width:0.5;" x1="435.5" x2="556.5" y1="213" y2="213"/></g><!--MD5=[1c89fbbb509dd1867fdc364e44742f72]
class GridURLCell--><g id="elem_GridURLCell"><rect fill="#F1F1F1" height="48" id="GridURLCell" rx="2.5" ry="2.5" style="stroke:#181818;stroke-width:0.5;" width="118" x="437" y="256"/><ellipse cx="452" cy="272" fill="#ADD1B2" rx="11" ry="11" style="stroke:#181818;stroke-width:1.0;"/><path d="M454.9731,277.6431 Q454.3921,277.9419 453.7529,278.0913 Q453.1138,278.2407 452.4082,278.2407 Q449.9014,278.2407 448.5815,276.5889 Q447.2617,274.937 447.2617,271.8159 Q447.2617,268.6865 448.5815,267.0347 Q449.9014,265.3828 452.4082,265.3828 Q453.1138,265.3828 453.7612,265.5322 Q454.4087,265.6816 454.9731,265.9805 L454.9731,268.7031 Q454.3423,268.1221 453.7488,267.8523 Q453.1553,267.5825 452.5244,267.5825 Q451.1797,267.5825 450.4949,268.6492 Q449.8101,269.7158 449.8101,271.8159 Q449.8101,273.9077 450.4949,274.9744 Q451.1797,276.041 452.5244,276.041 Q453.1553,276.041 453.7488,275.7712 Q454.3423,275.5015 454.9731,274.9204 Z " fill="#000000"/><text fill="#000000" font-family="sans-serif" font-size="14" font-weight="bold" lengthAdjust="spacing" textLength="86" x="466" y="277.291">GridURLCell</text><line style="stroke:#181818;stroke-width:0.5;" x1="438" x2="554" y1="288" y2="288"/><line style="stroke:#181818;stroke-width:0.5;" x1="438" x2="554" y1="296" y2="296"/></g><!--MD5=[e631ee099a2c321bf5ce3841064d9236]
class GridCheckboxCell--><g id="elem_GridCheckboxCell"><rect fill="#F1F1F1" height="48" id="GridCheckboxCell" rx="2.5" ry="2.5" style="stroke:#181818;stroke-width:0.5;" width="159" x="416.5" y="339"/><ellipse cx="431.5" cy="355" fill="#ADD1B2" rx="11" ry="11" style="stroke:#181818;stroke-width:1.0;"/><path d="M434.4731,360.6431 Q433.8921,360.9419 433.2529,361.0913 Q432.6138,361.2407 431.9082,361.2407 Q429.4014,361.2407 428.0815,359.5889 Q426.7617,357.937 426.7617,354.8159 Q426.7617,351.6865 428.0815,350.0347 Q429.4014,348.3828 431.9082,348.3828 Q432.6138,348.3828 433.2612,348.5322 Q433.9087,348.6816 434.4731,348.9805 L434.4731,351.7031 Q433.8423,351.1221 433.2488,350.8523 Q432.6553,350.5825 432.0244,350.5825 Q430.6797,350.5825 429.9949,351.6492 Q429.3101,352.7158 429.3101,354.8159 Q429.3101,356.9077 429.9949,357.9744 Q430.6797,359.041 432.0244,359.041 Q432.6553,359.041 433.2488,358.7712 Q433.8423,358.5015 434.4731,357.9204 Z " fill="#000000"/><text fill="#000000" font-family="sans-serif" font-size="14" font-weight="bold" lengthAdjust="spacing" textLength="127" x="445.5" y="360.291">GridCheckboxCell</text><line style="stroke:#181818;stroke-width:0.5;" x1="417.5" x2="574.5" y1="371" y2="371"/><line style="stroke:#181818;stroke-width:0.5;" x1="417.5" x2="574.5" y1="379" y2="379"/></g><!--MD5=[9b69a4d744f4be502882e73e6cd7f6fa]
class GridNumberCell--><g id="elem_GridNumberCell"><rect fill="#F1F1F1" height="48" id="GridNumberCell" rx="2.5" ry="2.5" style="stroke:#181818;stroke-width:0.5;" width="147" x="422.5" y="422"/><ellipse cx="437.5" cy="438" fill="#ADD1B2" rx="11" ry="11" style="stroke:#181818;stroke-width:1.0;"/><path d="M440.4731,443.6431 Q439.8921,443.9419 439.2529,444.0913 Q438.6138,444.2407 437.9082,444.2407 Q435.4014,444.2407 434.0815,442.5889 Q432.7617,440.937 432.7617,437.8159 Q432.7617,434.6865 434.0815,433.0347 Q435.4014,431.3828 437.9082,431.3828 Q438.6138,431.3828 439.2612,431.5322 Q439.9087,431.6816 440.4731,431.9805 L440.4731,434.7031 Q439.8423,434.1221 439.2488,433.8523 Q438.6553,433.5825 438.0244,433.5825 Q436.6797,433.5825 435.9949,434.6492 Q435.3101,435.7158 435.3101,437.8159 Q435.3101,439.9077 435.9949,440.9744 Q436.6797,442.041 438.0244,442.041 Q438.6553,442.041 439.2488,441.7712 Q439.8423,441.5015 440.4731,440.9204 Z " fill="#000000"/><text fill="#000000" font-family="sans-serif" font-size="14" font-weight="bold" lengthAdjust="spacing" textLength="115" x="451.5" y="443.291">GridNumberCell</text><line style="stroke:#181818;stroke-width:0.5;" x1="423.5" x2="568.5" y1="454" y2="454"/><line style="stroke:#181818;stroke-width:0.5;" x1="423.5" x2="568.5" y1="462" y2="462"/></g><!--MD5=[e6189f34023e1a2b4fe1c6df4bfb8a1b]
class GridTextCell--><g id="elem_GridTextCell"><rect fill="#F1F1F1" height="48" id="GridTextCell" rx="2.5" ry="2.5" style="stroke:#181818;stroke-width:0.5;" width="122" x="435" y="505"/><ellipse cx="450" cy="521" fill="#ADD1B2" rx="11" ry="11" style="stroke:#181818;stroke-width:1.0;"/><path d="M452.9731,526.6431 Q452.3921,526.9419 451.7529,527.0913 Q451.1138,527.2407 450.4082,527.2407 Q447.9014,527.2407 446.5815,525.5889 Q445.2617,523.937 445.2617,520.8159 Q445.2617,517.6865 446.5815,516.0347 Q447.9014,514.3828 450.4082,514.3828 Q451.1138,514.3828 451.7612,514.5322 Q452.4087,514.6816 452.9731,514.9805 L452.9731,517.7031 Q452.3423,517.1221 451.7488,516.8523 Q451.1553,516.5825 450.5244,516.5825 Q449.1797,516.5825 448.4949,517.6492 Q447.8101,518.7158 447.8101,520.8159 Q447.8101,522.9077 448.4949,523.9744 Q449.1797,525.041 450.5244,525.041 Q451.1553,525.041 451.7488,524.7712 Q452.3423,524.5015 452.9731,523.9204 Z " fill="#000000"/><text fill="#000000" font-family="sans-serif" font-size="14" font-weight="bold" lengthAdjust="spacing" textLength="90" x="464" y="526.291">GridTextCell</text><line style="stroke:#181818;stroke-width:0.5;" x1="436" x2="556" y1="537" y2="537"/><line style="stroke:#181818;stroke-width:0.5;" x1="436" x2="556" y1="545" y2="545"/></g><!--MD5=[d9021eaf5a75c8bb3af51c025e60e82c]
link GridCellBuilder to GridCellWidget--><g id="link_GridCellBuilder_GridCellWidget"><path codeLine="7" d="M148.2,280 C165.87,280 184.91,280 202.79,280 " fill="none" id="GridCellBuilder-to-GridCellWidget" style="stroke:#181818;stroke-width:1.0;"/><polygon fill="#181818" points="207.8,280,198.8,276,202.8,280,198.8,284,207.8,280" style="stroke:#181818;stroke-width:1.0;"/></g><!--MD5=[6ffa70f26a64add11a86a10b084eda93]
reverse link GridCellWidget to GridSingleSelectCell--><g id="link_GridCellWidget_GridSingleSelectCell"><path codeLine="9" d="M296.61,237.22 C317.37,191.25 355.78,118.55 408,72 C415.23,65.56 423.65,59.93 432.35,55.08 " fill="none" id="GridCellWidget-backto-GridSingleSelectCell" style="stroke:#181818;stroke-width:1.0;"/><polygon fill="none" points="302.97,240.15,288.56,255.7,290.13,234.57,302.97,240.15" style="stroke:#181818;stroke-width:1.0;"/></g><!--MD5=[24a57e96080377ba742e20037ba5e2f8]
reverse link GridCellWidget to GridMultiSelectCell--><g id="link_GridCellWidget_GridMultiSelectCell"><path codeLine="10" d="M312.89,240.96 C337.41,214.36 372.36,179.65 408,155 C416.93,148.83 426.93,143.15 436.89,138.1 " fill="none" id="GridCellWidget-backto-GridMultiSelectCell" style="stroke:#181818;stroke-width:1.0;"/><polygon fill="none" points="317.99,245.75,299.4,255.92,307.59,236.38,317.99,245.75" style="stroke:#181818;stroke-width:1.0;"/></g><!--MD5=[edcb9f0423053d4b9c0e6383c279b43c]
reverse link GridCellWidget to GridDateCell--><g id="link_GridCellWidget_GridDateCell"><path codeLine="11" d="M360.18,248.8 C384.71,239.38 411.2,229.2 434.15,220.38 " fill="none" id="GridCellWidget-backto-GridDateCell" style="stroke:#181818;stroke-width:1.0;"/><polygon fill="none" points="362.66,255.35,341.48,255.99,357.63,242.28,362.66,255.35" style="stroke:#181818;stroke-width:1.0;"/></g><!--MD5=[a509d659631a4dc319f39aa89fa45a73]
reverse link GridCellWidget to GridURLCell--><g id="link_GridCellWidget_GridURLCell"><path codeLine="12" d="M368.49,280 C391.51,280 415.68,280 436.66,280 " fill="none" id="GridCellWidget-backto-GridURLCell" style="stroke:#181818;stroke-width:1.0;"/><polygon fill="none" points="368.24,287,348.24,280,368.23,273,368.24,287" style="stroke:#181818;stroke-width:1.0;"/></g><!--MD5=[7ec44cbc3f7120d52a7b704532a1ad8f]
reverse link GridCellWidget to GridCheckboxCell--><g id="link_GridCellWidget_GridCheckboxCell"><path codeLine="13" d="M360.48,311.31 C384.26,320.45 409.87,330.29 432.29,338.9 " fill="none" id="GridCellWidget-backto-GridCheckboxCell" style="stroke:#181818;stroke-width:1.0;"/><polygon fill="none" points="357.63,317.72,341.48,304.01,362.66,304.65,357.63,317.72" style="stroke:#181818;stroke-width:1.0;"/></g><!--MD5=[8afe582b9bc7a39e99a9e171003c8571]
reverse link GridCellWidget to GridNumberCell--><g id="link_GridCellWidget_GridNumberCell"><path codeLine="14" d="M312.89,319.04 C337.41,345.64 372.36,380.35 408,405 C416.93,411.17 426.93,416.85 436.89,421.9 " fill="none" id="GridCellWidget-backto-GridNumberCell" style="stroke:#181818;stroke-width:1.0;"/><polygon fill="none" points="307.59,323.62,299.4,304.08,317.99,314.25,307.59,323.62" style="stroke:#181818;stroke-width:1.0;"/></g><!--MD5=[119f79e2ff144b36feaf6e26c51c2203]
reverse link GridCellWidget to GridTextCell--><g id="link_GridCellWidget_GridTextCell"><path codeLine="15" d="M296.61,322.78 C317.37,368.75 355.78,441.45 408,488 C415.85,495 425.11,501.04 434.6,506.16 " fill="none" id="GridCellWidget-backto-GridTextCell" style="stroke:#181818;stroke-width:1.0;"/><polygon fill="none" points="290.13,325.43,288.56,304.3,302.97,319.85,290.13,325.43" style="stroke:#181818;stroke-width:1.0;"/></g><!--MD5=[8d59820f8a90f30aa34dfe8b24b0a789]
@startuml Grid Cell Builder
skinparam classFontStyle Bold
skinparam ActivityBackgroundColor Silver
skinparam ActivityBorderColor DimGray
left to right direction

interface GridCellWidget
GridCellBuilder - -> GridCellWidget

GridSingleSelectCell -u-|> GridCellWidget
GridMultiSelectCell -u-|> GridCellWidget
GridDateCell -u-|> GridCellWidget
GridURLCell -u-|> GridCellWidget
GridCheckboxCell -u-|> GridCellWidget
GridNumberCell -u-|> GridCellWidget
GridTextCell -u-|> GridCellWidget

@enduml

PlantUML version 1.2022.7(Tue Aug 23 01:01:30 CST 2022)
(GPL source distribution)
Java Runtime: OpenJDK Runtime Environment
JVM: OpenJDK 64-Bit Server VM
Default Encoding: UTF-8
Language: en
Country: US
--></g></svg>