<?xml version="1.0" encoding="UTF-8" standalone="no"?><svg xmlns="http://www.w3.org/2000/svg" xmlns:xlink="http://www.w3.org/1999/xlink" contentStyleType="text/css" height="311px" preserveAspectRatio="none" style="width:1243px;height:311px;background:#FFFFFF;" version="1.1" viewBox="0 0 1243 311" width="1243px" zoomAndPan="magnify"><defs/><g><!--MD5=[2d22fe2009dbe3b2c91443c02af50e17]
class SelectOptionService--><g id="elem_SelectOptionService"><rect codeLine="6" fill="#F1F1F1" height="48" id="SelectOptionService" rx="2.5" ry="2.5" style="stroke:#181818;stroke-width:0.5;" width="174" x="793.5" y="173"/><ellipse cx="808.5" cy="189" fill="#ADD1B2" rx="11" ry="11" style="stroke:#181818;stroke-width:1.0;"/><path d="M810.9731,195.1431 Q810.3921,195.4419 809.7529,195.5913 Q809.1138,195.7407 808.4082,195.7407 Q805.9014,195.7407 804.5815,194.0889 Q803.2617,192.437 803.2617,189.3159 Q803.2617,186.1865 804.5815,184.5347 Q805.9014,182.8828 808.4082,182.8828 Q809.1138,182.8828 809.7612,183.0322 Q810.4087,183.1816 810.9731,183.4805 L810.9731,186.2031 Q810.3423,185.6221 809.7488,185.3523 Q809.1553,185.0825 808.5244,185.0825 Q807.1797,185.0825 806.4949,186.1492 Q805.8101,187.2158 805.8101,189.3159 Q805.8101,191.4077 806.4949,192.4744 Q807.1797,193.541 808.5244,193.541 Q809.1553,193.541 809.7488,193.2712 Q810.3423,193.0015 810.9731,192.4204 Z " fill="#000000"/><text fill="#000000" font-family="sans-serif" font-size="14" font-weight="bold" lengthAdjust="spacing" textLength="142" x="822.5" y="194.291">SelectOptionService</text><line style="stroke:#181818;stroke-width:0.5;" x1="794.5" x2="966.5" y1="205" y2="205"/><line style="stroke:#181818;stroke-width:0.5;" x1="794.5" x2="966.5" y1="213" y2="213"/></g><!--MD5=[907cc96a340d5e10d8a61de7d127c7cf]
class SelectOptionCellEditorBloc--><g id="elem_SelectOptionCellEditorBloc"><rect codeLine="7" fill="#F1F1F1" height="48" id="SelectOptionCellEditorBloc" rx="2.5" ry="2.5" style="stroke:#181818;stroke-width:0.5;" width="225" x="468" y="214"/><ellipse cx="483" cy="230" fill="#ADD1B2" rx="11" ry="11" style="stroke:#181818;stroke-width:1.0;"/><path d="M485.4731,236.1431 Q484.8921,236.4419 484.2529,236.5913 Q483.6138,236.7407 482.9082,236.7407 Q480.4014,236.7407 479.0815,235.0889 Q477.7617,233.437 477.7617,230.3159 Q477.7617,227.1865 479.0815,225.5347 Q480.4014,223.8828 482.9082,223.8828 Q483.6138,223.8828 484.2612,224.0322 Q484.9087,224.1816 485.4731,224.4805 L485.4731,227.2031 Q484.8423,226.6221 484.2488,226.3523 Q483.6553,226.0825 483.0244,226.0825 Q481.6797,226.0825 480.9949,227.1492 Q480.3101,228.2158 480.3101,230.3159 Q480.3101,232.4077 480.9949,233.4744 Q481.6797,234.541 483.0244,234.541 Q483.6553,234.541 484.2488,234.2712 Q484.8423,234.0015 485.4731,233.4204 Z " fill="#000000"/><text fill="#000000" font-family="sans-serif" font-size="14" font-weight="bold" lengthAdjust="spacing" textLength="193" x="497" y="235.291">SelectOptionCellEditorBloc</text><line style="stroke:#181818;stroke-width:0.5;" x1="469" x2="692" y1="246" y2="246"/><line style="stroke:#181818;stroke-width:0.5;" x1="469" x2="692" y1="254" y2="254"/></g><!--MD5=[51cd598af29de75b3ea2e5bc536ca08a]
class GridCellController--><g id="elem_GridCellController"><rect codeLine="8" fill="#F1F1F1" height="48" id="GridCellController" rx="2.5" ry="2.5" style="stroke:#181818;stroke-width:0.5;" width="168" x="1068" y="90"/><ellipse cx="1083" cy="106" fill="#B4A7E5" rx="11" ry="11" style="stroke:#181818;stroke-width:1.0;"/><path d="M1079.4277,102.2651 L1079.4277,100.1069 L1086.8071,100.1069 L1086.8071,102.2651 L1084.3418,102.2651 L1084.3418,110.3418 L1086.8071,110.3418 L1086.8071,112.5 L1079.4277,112.5 L1079.4277,110.3418 L1081.8931,110.3418 L1081.8931,102.2651 Z " fill="#000000"/><text fill="#000000" font-family="sans-serif" font-size="14" font-style="italic" font-weight="bold" lengthAdjust="spacing" textLength="136" x="1097" y="111.291">GridCellController</text><line style="stroke:#181818;stroke-width:0.5;" x1="1069" x2="1235" y1="122" y2="122"/><line style="stroke:#181818;stroke-width:0.5;" x1="1069" x2="1235" y1="130" y2="130"/></g><!--MD5=[8ecd7586f2a55ef3e908119f723610db]
class SingleSelectCell--><g id="elem_SingleSelectCell"><rect fill="#F1F1F1" height="48" id="SingleSelectCell" rx="2.5" ry="2.5" style="stroke:#181818;stroke-width:0.5;" width="146" x="7" y="214"/><ellipse cx="22" cy="230" fill="#ADD1B2" rx="11" ry="11" style="stroke:#181818;stroke-width:1.0;"/><path d="M24.4731,236.1431 Q23.8921,236.4419 23.2529,236.5913 Q22.6138,236.7407 21.9082,236.7407 Q19.4014,236.7407 18.0815,235.0889 Q16.7617,233.437 16.7617,230.3159 Q16.7617,227.1865 18.0815,225.5347 Q19.4014,223.8828 21.9082,223.8828 Q22.6138,223.8828 23.2612,224.0322 Q23.9087,224.1816 24.4731,224.4805 L24.4731,227.2031 Q23.8423,226.6221 23.2488,226.3523 Q22.6553,226.0825 22.0244,226.0825 Q20.6797,226.0825 19.9949,227.1492 Q19.3101,228.2158 19.3101,230.3159 Q19.3101,232.4077 19.9949,233.4744 Q20.6797,234.541 22.0244,234.541 Q22.6553,234.541 23.2488,234.2712 Q23.8423,234.0015 24.4731,233.4204 Z " fill="#000000"/><text fill="#000000" font-family="sans-serif" font-size="14" font-weight="bold" lengthAdjust="spacing" textLength="114" x="36" y="235.291">SingleSelectCell</text><line style="stroke:#181818;stroke-width:0.5;" x1="8" x2="152" y1="246" y2="246"/><line style="stroke:#181818;stroke-width:0.5;" x1="8" x2="152" y1="254" y2="254"/></g><!--MD5=[2596b26a88eba69d893c8d72b1e3b0b5]
class SelectOptionCellEditor--><g id="elem_SelectOptionCellEditor"><rect fill="#F1F1F1" height="48" id="SelectOptionCellEditor" rx="2.5" ry="2.5" style="stroke:#181818;stroke-width:0.5;" width="195" x="213" y="214"/><ellipse cx="228" cy="230" fill="#ADD1B2" rx="11" ry="11" style="stroke:#181818;stroke-width:1.0;"/><path d="M230.4731,236.1431 Q229.8921,236.4419 229.2529,236.5913 Q228.6138,236.7407 227.9082,236.7407 Q225.4014,236.7407 224.0815,235.0889 Q222.7617,233.437 222.7617,230.3159 Q222.7617,227.1865 224.0815,225.5347 Q225.4014,223.8828 227.9082,223.8828 Q228.6138,223.8828 229.2612,224.0322 Q229.9087,224.1816 230.4731,224.4805 L230.4731,227.2031 Q229.8423,226.6221 229.2488,226.3523 Q228.6553,226.0825 228.0244,226.0825 Q226.6797,226.0825 225.9949,227.1492 Q225.3101,228.2158 225.3101,230.3159 Q225.3101,232.4077 225.9949,233.4744 Q226.6797,234.541 228.0244,234.541 Q228.6553,234.541 229.2488,234.2712 Q229.8423,234.0015 230.4731,233.4204 Z " fill="#000000"/><text fill="#000000" font-family="sans-serif" font-size="14" font-weight="bold" lengthAdjust="spacing" textLength="163" x="242" y="235.291">SelectOptionCellEditor</text><line style="stroke:#181818;stroke-width:0.5;" x1="214" x2="407" y1="246" y2="246"/><line style="stroke:#181818;stroke-width:0.5;" x1="214" x2="407" y1="254" y2="254"/></g><!--MD5=[51664bfd7939bcc7807b4e78d4768bfa]
class GridSelectOptionCellController--><g id="elem_GridSelectOptionCellController"><rect fill="#F1F1F1" height="48" id="GridSelectOptionCellController" rx="2.5" ry="2.5" style="stroke:#181818;stroke-width:0.5;" width="255" x="753" y="256"/><ellipse cx="768" cy="272" fill="#ADD1B2" rx="11" ry="11" style="stroke:#181818;stroke-width:1.0;"/><path d="M770.4731,278.1431 Q769.8921,278.4419 769.2529,278.5913 Q768.6138,278.7407 767.9082,278.7407 Q765.4014,278.7407 764.0815,277.0889 Q762.7617,275.437 762.7617,272.3159 Q762.7617,269.1865 764.0815,267.5347 Q765.4014,265.8828 767.9082,265.8828 Q768.6138,265.8828 769.2612,266.0322 Q769.9087,266.1816 770.4731,266.4805 L770.4731,269.2031 Q769.8423,268.6221 769.2488,268.3523 Q768.6553,268.0825 768.0244,268.0825 Q766.6797,268.0825 765.9949,269.1492 Q765.3101,270.2158 765.3101,272.3159 Q765.3101,274.4077 765.9949,275.4744 Q766.6797,276.541 768.0244,276.541 Q768.6553,276.541 769.2488,276.2712 Q769.8423,276.0015 770.4731,275.4204 Z " fill="#000000"/><text fill="#000000" font-family="sans-serif" font-size="14" font-weight="bold" lengthAdjust="spacing" textLength="223" x="782" y="277.291">GridSelectOptionCellController</text><line style="stroke:#181818;stroke-width:0.5;" x1="754" x2="1007" y1="288" y2="288"/><line style="stroke:#181818;stroke-width:0.5;" x1="754" x2="1007" y1="296" y2="296"/></g><!--MD5=[39d5df1df030e831d4de2469ae212dd1]
class DateCell--><g id="elem_DateCell"><rect fill="#F1F1F1" height="48" id="DateCell" rx="2.5" ry="2.5" style="stroke:#181818;stroke-width:0.5;" width="93" x="264" y="7"/><ellipse cx="279" cy="23" fill="#ADD1B2" rx="11" ry="11" style="stroke:#181818;stroke-width:1.0;"/><path d="M281.4731,29.1431 Q280.8921,29.4419 280.2529,29.5913 Q279.6138,29.7407 278.9082,29.7407 Q276.4014,29.7407 275.0815,28.0889 Q273.7617,26.437 273.7617,23.3159 Q273.7617,20.1865 275.0815,18.5347 Q276.4014,16.8828 278.9082,16.8828 Q279.6138,16.8828 280.2612,17.0322 Q280.9087,17.1816 281.4731,17.4805 L281.4731,20.2031 Q280.8423,19.6221 280.2488,19.3523 Q279.6553,19.0825 279.0244,19.0825 Q277.6797,19.0825 276.9949,20.1492 Q276.3101,21.2158 276.3101,23.3159 Q276.3101,25.4077 276.9949,26.4744 Q277.6797,27.541 279.0244,27.541 Q279.6553,27.541 280.2488,27.2712 Q280.8423,27.0015 281.4731,26.4204 Z " fill="#000000"/><text fill="#000000" font-family="sans-serif" font-size="14" font-weight="bold" lengthAdjust="spacing" textLength="61" x="293" y="28.291">DateCell</text><line style="stroke:#181818;stroke-width:0.5;" x1="265" x2="356" y1="39" y2="39"/><line style="stroke:#181818;stroke-width:0.5;" x1="265" x2="356" y1="47" y2="47"/></g><!--MD5=[284ffae213cd7240f6069514c5d9cc92]
class DateCellEditor--><g id="elem_DateCellEditor"><rect fill="#F1F1F1" height="48" id="DateCellEditor" rx="2.5" ry="2.5" style="stroke:#181818;stroke-width:0.5;" width="136" x="512.5" y="7"/><ellipse cx="527.5" cy="23" fill="#ADD1B2" rx="11" ry="11" style="stroke:#181818;stroke-width:1.0;"/><path d="M529.9731,29.1431 Q529.3921,29.4419 528.7529,29.5913 Q528.1138,29.7407 527.4082,29.7407 Q524.9014,29.7407 523.5815,28.0889 Q522.2617,26.437 522.2617,23.3159 Q522.2617,20.1865 523.5815,18.5347 Q524.9014,16.8828 527.4082,16.8828 Q528.1138,16.8828 528.7612,17.0322 Q529.4087,17.1816 529.9731,17.4805 L529.9731,20.2031 Q529.3423,19.6221 528.7488,19.3523 Q528.1553,19.0825 527.5244,19.0825 Q526.1797,19.0825 525.4949,20.1492 Q524.8101,21.2158 524.8101,23.3159 Q524.8101,25.4077 525.4949,26.4744 Q526.1797,27.541 527.5244,27.541 Q528.1553,27.541 528.7488,27.2712 Q529.3423,27.0015 529.9731,26.4204 Z " fill="#000000"/><text fill="#000000" font-family="sans-serif" font-size="14" font-weight="bold" lengthAdjust="spacing" textLength="104" x="541.5" y="28.291">DateCellEditor</text><line style="stroke:#181818;stroke-width:0.5;" x1="513.5" x2="647.5" y1="39" y2="39"/><line style="stroke:#181818;stroke-width:0.5;" x1="513.5" x2="647.5" y1="47" y2="47"/></g><!--MD5=[b690d5e1902694d6abf5dbe6c1d7ad29]
class GridDateCellController--><g id="elem_GridDateCellController"><rect fill="#F1F1F1" height="48" id="GridDateCellController" rx="2.5" ry="2.5" style="stroke:#181818;stroke-width:0.5;" width="196" x="782.5" y="7"/><ellipse cx="797.5" cy="23" fill="#ADD1B2" rx="11" ry="11" style="stroke:#181818;stroke-width:1.0;"/><path d="M799.9731,29.1431 Q799.3921,29.4419 798.7529,29.5913 Q798.1138,29.7407 797.4082,29.7407 Q794.9014,29.7407 793.5815,28.0889 Q792.2617,26.437 792.2617,23.3159 Q792.2617,20.1865 793.5815,18.5347 Q794.9014,16.8828 797.4082,16.8828 Q798.1138,16.8828 798.7612,17.0322 Q799.4087,17.1816 799.9731,17.4805 L799.9731,20.2031 Q799.3423,19.6221 798.7488,19.3523 Q798.1553,19.0825 797.5244,19.0825 Q796.1797,19.0825 795.4949,20.1492 Q794.8101,21.2158 794.8101,23.3159 Q794.8101,25.4077 795.4949,26.4744 Q796.1797,27.541 797.5244,27.541 Q798.1553,27.541 798.7488,27.2712 Q799.3423,27.0015 799.9731,26.4204 Z " fill="#000000"/><text fill="#000000" font-family="sans-serif" font-size="14" font-weight="bold" lengthAdjust="spacing" textLength="164" x="811.5" y="28.291">GridDateCellController</text><line style="stroke:#181818;stroke-width:0.5;" x1="783.5" x2="977.5" y1="39" y2="39"/><line style="stroke:#181818;stroke-width:0.5;" x1="783.5" x2="977.5" y1="47" y2="47"/></g><!--MD5=[1c89fbbb509dd1867fdc364e44742f72]
class GridURLCell--><g id="elem_GridURLCell"><rect fill="#F1F1F1" height="48" id="GridURLCell" rx="2.5" ry="2.5" style="stroke:#181818;stroke-width:0.5;" width="118" x="251.5" y="90"/><ellipse cx="266.5" cy="106" fill="#ADD1B2" rx="11" ry="11" style="stroke:#181818;stroke-width:1.0;"/><path d="M268.9731,112.1431 Q268.3921,112.4419 267.7529,112.5913 Q267.1138,112.7407 266.4082,112.7407 Q263.9014,112.7407 262.5815,111.0889 Q261.2617,109.437 261.2617,106.3159 Q261.2617,103.1865 262.5815,101.5347 Q263.9014,99.8828 266.4082,99.8828 Q267.1138,99.8828 267.7612,100.0322 Q268.4087,100.1816 268.9731,100.4805 L268.9731,103.2031 Q268.3423,102.6221 267.7488,102.3523 Q267.1553,102.0825 266.5244,102.0825 Q265.1797,102.0825 264.4949,103.1492 Q263.8101,104.2158 263.8101,106.3159 Q263.8101,108.4077 264.4949,109.4744 Q265.1797,110.541 266.5244,110.541 Q267.1553,110.541 267.7488,110.2712 Q268.3423,110.0015 268.9731,109.4204 Z " fill="#000000"/><text fill="#000000" font-family="sans-serif" font-size="14" font-weight="bold" lengthAdjust="spacing" textLength="86" x="280.5" y="111.291">GridURLCell</text><line style="stroke:#181818;stroke-width:0.5;" x1="252.5" x2="368.5" y1="122" y2="122"/><line style="stroke:#181818;stroke-width:0.5;" x1="252.5" x2="368.5" y1="130" y2="130"/></g><!--MD5=[8cc4d5ad9a494a00c048a782868ffda8]
class URLCellEditor--><g id="elem_URLCellEditor"><rect fill="#F1F1F1" height="48" id="URLCellEditor" rx="2.5" ry="2.5" style="stroke:#181818;stroke-width:0.5;" width="131" x="515" y="90"/><ellipse cx="530" cy="106" fill="#ADD1B2" rx="11" ry="11" style="stroke:#181818;stroke-width:1.0;"/><path d="M532.4731,112.1431 Q531.8921,112.4419 531.2529,112.5913 Q530.6138,112.7407 529.9082,112.7407 Q527.4014,112.7407 526.0815,111.0889 Q524.7617,109.437 524.7617,106.3159 Q524.7617,103.1865 526.0815,101.5347 Q527.4014,99.8828 529.9082,99.8828 Q530.6138,99.8828 531.2612,100.0322 Q531.9087,100.1816 532.4731,100.4805 L532.4731,103.2031 Q531.8423,102.6221 531.2488,102.3523 Q530.6553,102.0825 530.0244,102.0825 Q528.6797,102.0825 527.9949,103.1492 Q527.3101,104.2158 527.3101,106.3159 Q527.3101,108.4077 527.9949,109.4744 Q528.6797,110.541 530.0244,110.541 Q530.6553,110.541 531.2488,110.2712 Q531.8423,110.0015 532.4731,109.4204 Z " fill="#000000"/><text fill="#000000" font-family="sans-serif" font-size="14" font-weight="bold" lengthAdjust="spacing" textLength="99" x="544" y="111.291">URLCellEditor</text><line style="stroke:#181818;stroke-width:0.5;" x1="516" x2="645" y1="122" y2="122"/><line style="stroke:#181818;stroke-width:0.5;" x1="516" x2="645" y1="130" y2="130"/></g><!--MD5=[b1f17cde20c68719e872f98458950d62]
class GridURLCellController--><g id="elem_GridURLCellController"><rect fill="#F1F1F1" height="48" id="GridURLCellController" rx="2.5" ry="2.5" style="stroke:#181818;stroke-width:0.5;" width="191" x="785" y="90"/><ellipse cx="800" cy="106" fill="#ADD1B2" rx="11" ry="11" style="stroke:#181818;stroke-width:1.0;"/><path d="M802.4731,112.1431 Q801.8921,112.4419 801.2529,112.5913 Q800.6138,112.7407 799.9082,112.7407 Q797.4014,112.7407 796.0815,111.0889 Q794.7617,109.437 794.7617,106.3159 Q794.7617,103.1865 796.0815,101.5347 Q797.4014,99.8828 799.9082,99.8828 Q800.6138,99.8828 801.2612,100.0322 Q801.9087,100.1816 802.4731,100.4805 L802.4731,103.2031 Q801.8423,102.6221 801.2488,102.3523 Q800.6553,102.0825 800.0244,102.0825 Q798.6797,102.0825 797.9949,103.1492 Q797.3101,104.2158 797.3101,106.3159 Q797.3101,108.4077 797.9949,109.4744 Q798.6797,110.541 800.0244,110.541 Q800.6553,110.541 801.2488,110.2712 Q801.8423,110.0015 802.4731,109.4204 Z " fill="#000000"/><text fill="#000000" font-family="sans-serif" font-size="14" font-weight="bold" lengthAdjust="spacing" textLength="159" x="814" y="111.291">GridURLCellController</text><line style="stroke:#181818;stroke-width:0.5;" x1="786" x2="975" y1="122" y2="122"/><line style="stroke:#181818;stroke-width:0.5;" x1="786" x2="975" y1="130" y2="130"/></g><!--MD5=[20009c252533d277b9ff486ff92c828a]
link SingleSelectCell to SelectOptionCellEditor--><g id="link_SingleSelectCell_SelectOptionCellEditor"><path codeLine="12" d="M153.3,238 C170.51,238 189.19,238 207.46,238 " fill="none" id="SingleSelectCell-to-SelectOptionCellEditor" style="stroke:#181818;stroke-width:1.0;"/><polygon fill="#181818" points="212.6,238,203.6,234,207.6,238,203.6,242,212.6,238" style="stroke:#181818;stroke-width:1.0;"/></g><!--MD5=[9915e2495ff3a0d2ef9a34cffa2b4470]
link SelectOptionCellEditor to SelectOptionCellEditorBloc--><g id="link_SelectOptionCellEditor_SelectOptionCellEditorBloc"><path codeLine="13" d="M408.25,238 C425.93,238 444.55,238 462.74,238 " fill="none" id="SelectOptionCellEditor-to-SelectOptionCellEditorBloc" style="stroke:#181818;stroke-width:1.0;"/><polygon fill="#181818" points="467.86,238,458.86,234,462.86,238,458.86,242,467.86,238" style="stroke:#181818;stroke-width:1.0;"/></g><!--MD5=[6ce009b46c2bb66b57b79bfd8917ca78]
link SelectOptionCellEditorBloc to SelectOptionService--><g id="link_SelectOptionCellEditorBloc_SelectOptionService"><path codeLine="15" d="M693.31,222.62 C724.54,218.32 758.09,213.7 787.99,209.59 " fill="none" id="SelectOptionCellEditorBloc-to-SelectOptionService" style="stroke:#181818;stroke-width:1.0;"/><polygon fill="#181818" points="793.14,208.88,783.6768,206.1509,788.1872,209.5651,784.773,214.0755,793.14,208.88" style="stroke:#181818;stroke-width:1.0;"/></g><!--MD5=[c38e7c21a139cd03c74e4b6dc07a7b9a]
link SelectOptionCellEditorBloc to GridSelectOptionCellController--><g id="link_SelectOptionCellEditorBloc_GridSelectOptionCellController"><path codeLine="16" d="M693.31,253.76 C711.05,256.26 729.54,258.86 747.68,261.42 " fill="none" id="SelectOptionCellEditorBloc-to-GridSelectOptionCellController" style="stroke:#181818;stroke-width:1.0;"/><polygon fill="#181818" points="752.79,262.14,744.423,256.9445,747.8372,261.4549,743.3268,264.8691,752.79,262.14" style="stroke:#181818;stroke-width:1.0;"/></g><!--MD5=[260ef70366807cf579138e79b5103750]
link GridSelectOptionCellController to GridCellController--><g id="link_GridSelectOptionCellController_GridCellController"><path codeLine="17" d="M971.23,255.96 C983.93,251.12 996.55,245.49 1008,239 C1048.47,216.05 1087.77,180.43 1114.89,153.07 " fill="none" id="GridSelectOptionCellController-to-GridCellController" style="stroke:#181818;stroke-width:1.0;"/><polygon fill="none" points="1110.07,147.99,1129.01,138.47,1120.14,157.72,1110.07,147.99" style="stroke:#181818;stroke-width:1.0;"/></g><!--MD5=[cfce68b77d8c2a1b08344911787971fe]
link DateCell to DateCellEditor--><g id="link_DateCell_DateCellEditor"><path codeLine="21" d="M357.27,31 C398.38,31 459.43,31 507.15,31 " fill="none" id="DateCell-to-DateCellEditor" style="stroke:#181818;stroke-width:1.0;"/><polygon fill="#181818" points="512.31,31,503.31,27,507.31,31,503.31,35,512.31,31" style="stroke:#181818;stroke-width:1.0;"/></g><!--MD5=[4df5bdf86918061e3393edea908b474b]
link DateCellEditor to GridDateCellController--><g id="link_DateCellEditor_GridDateCellController"><path codeLine="22" d="M648.75,31 C686.61,31 734.66,31 777.11,31 " fill="none" id="DateCellEditor-to-GridDateCellController" style="stroke:#181818;stroke-width:1.0;"/><polygon fill="#181818" points="782.26,31,773.26,27,777.26,31,773.26,35,782.26,31" style="stroke:#181818;stroke-width:1.0;"/></g><!--MD5=[5649d09e599aecb77710925748289a35]
link GridDateCellController to GridCellController--><g id="link_GridDateCellController_GridCellController"><path codeLine="23" d="M959.45,55.01 C988.79,64.04 1022.53,74.43 1053.44,83.95 " fill="none" id="GridDateCellController-to-GridCellController" style="stroke:#181818;stroke-width:1.0;"/><polygon fill="none" points="1055.7,77.33,1072.76,89.9,1051.58,90.71,1055.7,77.33" style="stroke:#181818;stroke-width:1.0;"/></g><!--MD5=[8cdcf74340dfbd1a6d0651e56830bac6]
link GridURLCell to URLCellEditor--><g id="link_GridURLCell_URLCellEditor"><path codeLine="26" d="M369.65,114 C410.78,114 466.12,114 509.64,114 " fill="none" id="GridURLCell-to-URLCellEditor" style="stroke:#181818;stroke-width:1.0;"/><polygon fill="#181818" points="514.89,114,505.89,110,509.89,114,505.89,118,514.89,114" style="stroke:#181818;stroke-width:1.0;"/></g><!--MD5=[38813ba865b56bfd4781b2a68d28cf8e]
link URLCellEditor to GridURLCellController--><g id="link_URLCellEditor_GridURLCellController"><path codeLine="27" d="M646.16,114 C685.23,114 735.82,114 779.91,114 " fill="none" id="URLCellEditor-to-GridURLCellController" style="stroke:#181818;stroke-width:1.0;"/><polygon fill="#181818" points="784.98,114,775.98,110,779.98,114,775.98,118,784.98,114" style="stroke:#181818;stroke-width:1.0;"/></g><!--MD5=[bacea9f5ac62af2fa10193bbac55c79a]
link GridURLCellController to GridCellController--><g id="link_GridURLCellController_GridCellController"><path codeLine="28" d="M976.14,114 C999.25,114 1024.09,114 1047.58,114 " fill="none" id="GridURLCellController-to-GridCellController" style="stroke:#181818;stroke-width:1.0;"/><polygon fill="none" points="1047.81,107,1067.81,114,1047.81,121,1047.81,107" style="stroke:#181818;stroke-width:1.0;"/></g><!--MD5=[cec0b60d6695f8108e622b14131a1ecc]
@startuml Grid Cell Edit
skinparam classFontStyle Bold
skinparam ActivityBackgroundColor Silver
skinparam ActivityBorderColor DimGray
left to right direction

class SelectOptionService
class SelectOptionCellEditorBloc
interface GridCellController


'SingleSelectCell
SingleSelectCell - -> SelectOptionCellEditor
SelectOptionCellEditor - -> SelectOptionCellEditorBloc

SelectOptionCellEditorBloc - -> SelectOptionService
SelectOptionCellEditorBloc - -> GridSelectOptionCellController
GridSelectOptionCellController - -|> GridCellController


'DateCell
DateCell - -> DateCellEditor
DateCellEditor - -> GridDateCellController
GridDateCellController - -|> GridCellController

'URLCell
GridURLCell - -> URLCellEditor
URLCellEditor - -> GridURLCellController
GridURLCellController - -|> GridCellController

@enduml

@startuml Grid Cell Edit
skinparam classFontStyle Bold
skinparam ActivityBackgroundColor Silver
skinparam ActivityBorderColor DimGray
left to right direction

class SelectOptionService
class SelectOptionCellEditorBloc
interface GridCellController


SingleSelectCell - -> SelectOptionCellEditor
SelectOptionCellEditor - -> SelectOptionCellEditorBloc

SelectOptionCellEditorBloc - -> SelectOptionService
SelectOptionCellEditorBloc - -> GridSelectOptionCellController
GridSelectOptionCellController - -|> GridCellController


DateCell - -> DateCellEditor
DateCellEditor - -> GridDateCellController
GridDateCellController - -|> GridCellController

GridURLCell - -> URLCellEditor
URLCellEditor - -> GridURLCellController
GridURLCellController - -|> GridCellController

@enduml

PlantUML version 1.2022.5(Sat Apr 30 18:55:52 CST 2022)
(GPL source distribution)
Java Runtime: OpenJDK Runtime Environment
JVM: OpenJDK 64-Bit Server VM
Default Encoding: UTF-8
Language: en
Country: US
--></g></svg>