<?xml version="1.0" encoding="UTF-8" standalone="no"?><svg xmlns="http://www.w3.org/2000/svg" xmlns:xlink="http://www.w3.org/1999/xlink" contentStyleType="text/css" height="145px" preserveAspectRatio="none" style="width:1045px;height:145px;background:#FFFFFF;" version="1.1" viewBox="0 0 1045 145" width="1045px" zoomAndPan="magnify"><defs/><g><!--MD5=[2d22fe2009dbe3b2c91443c02af50e17]
class SelectOptionService--><g id="elem_SelectOptionService"><rect codeLine="6" fill="#F1F1F1" height="48" id="SelectOptionService" rx="2.5" ry="2.5" style="stroke:#181818;stroke-width:0.5;" width="174" x="823.5" y="7"/><ellipse cx="838.5" cy="23" fill="#ADD1B2" rx="11" ry="11" style="stroke:#181818;stroke-width:1.0;"/><path d="M840.9731,29.1431 Q840.3921,29.4419 839.7529,29.5913 Q839.1138,29.7407 838.4082,29.7407 Q835.9014,29.7407 834.5815,28.0889 Q833.2617,26.437 833.2617,23.3159 Q833.2617,20.1865 834.5815,18.5347 Q835.9014,16.8828 838.4082,16.8828 Q839.1138,16.8828 839.7612,17.0322 Q840.4087,17.1816 840.9731,17.4805 L840.9731,20.2031 Q840.3423,19.6221 839.7488,19.3523 Q839.1553,19.0825 838.5244,19.0825 Q837.1797,19.0825 836.4949,20.1492 Q835.8101,21.2158 835.8101,23.3159 Q835.8101,25.4077 836.4949,26.4744 Q837.1797,27.541 838.5244,27.541 Q839.1553,27.541 839.7488,27.2712 Q840.3423,27.0015 840.9731,26.4204 Z " fill="#000000"/><text fill="#000000" font-family="sans-serif" font-size="14" font-weight="bold" lengthAdjust="spacing" textLength="142" x="852.5" y="28.291">SelectOptionService</text><line style="stroke:#181818;stroke-width:0.5;" x1="824.5" x2="996.5" y1="39" y2="39"/><line style="stroke:#181818;stroke-width:0.5;" x1="824.5" x2="996.5" y1="47" y2="47"/></g><!--MD5=[907cc96a340d5e10d8a61de7d127c7cf]
class SelectOptionCellEditorBloc--><g id="elem_SelectOptionCellEditorBloc"><rect codeLine="7" fill="#F1F1F1" height="48" id="SelectOptionCellEditorBloc" rx="2.5" ry="2.5" style="stroke:#181818;stroke-width:0.5;" width="225" x="498" y="49"/><ellipse cx="513" cy="65" fill="#ADD1B2" rx="11" ry="11" style="stroke:#181818;stroke-width:1.0;"/><path d="M515.4731,71.1431 Q514.8921,71.4419 514.2529,71.5913 Q513.6138,71.7407 512.9082,71.7407 Q510.4014,71.7407 509.0815,70.0889 Q507.7617,68.437 507.7617,65.3159 Q507.7617,62.1865 509.0815,60.5347 Q510.4014,58.8828 512.9082,58.8828 Q513.6138,58.8828 514.2612,59.0322 Q514.9087,59.1816 515.4731,59.4805 L515.4731,62.2031 Q514.8423,61.6221 514.2488,61.3523 Q513.6553,61.0825 513.0244,61.0825 Q511.6797,61.0825 510.9949,62.1492 Q510.3101,63.2158 510.3101,65.3159 Q510.3101,67.4077 510.9949,68.4744 Q511.6797,69.541 513.0244,69.541 Q513.6553,69.541 514.2488,69.2712 Q514.8423,69.0015 515.4731,68.4204 Z " fill="#000000"/><text fill="#000000" font-family="sans-serif" font-size="14" font-weight="bold" lengthAdjust="spacing" textLength="193" x="527" y="70.291">SelectOptionCellEditorBloc</text><line style="stroke:#181818;stroke-width:0.5;" x1="499" x2="722" y1="81" y2="81"/><line style="stroke:#181818;stroke-width:0.5;" x1="499" x2="722" y1="89" y2="89"/></g><!--MD5=[5d641b6100d9a5b130aab51ebd1972ca]
class GridSingleSelectCell--><g id="elem_GridSingleSelectCell"><rect fill="#F1F1F1" height="48" id="GridSingleSelectCell" rx="2.5" ry="2.5" style="stroke:#181818;stroke-width:0.5;" width="176" x="7" y="49"/><ellipse cx="22" cy="65" fill="#ADD1B2" rx="11" ry="11" style="stroke:#181818;stroke-width:1.0;"/><path d="M24.4731,71.1431 Q23.8921,71.4419 23.2529,71.5913 Q22.6138,71.7407 21.9082,71.7407 Q19.4014,71.7407 18.0815,70.0889 Q16.7617,68.437 16.7617,65.3159 Q16.7617,62.1865 18.0815,60.5347 Q19.4014,58.8828 21.9082,58.8828 Q22.6138,58.8828 23.2612,59.0322 Q23.9087,59.1816 24.4731,59.4805 L24.4731,62.2031 Q23.8423,61.6221 23.2488,61.3523 Q22.6553,61.0825 22.0244,61.0825 Q20.6797,61.0825 19.9949,62.1492 Q19.3101,63.2158 19.3101,65.3159 Q19.3101,67.4077 19.9949,68.4744 Q20.6797,69.541 22.0244,69.541 Q22.6553,69.541 23.2488,69.2712 Q23.8423,69.0015 24.4731,68.4204 Z " fill="#000000"/><text fill="#000000" font-family="sans-serif" font-size="14" font-weight="bold" lengthAdjust="spacing" textLength="144" x="36" y="70.291">GridSingleSelectCell</text><line style="stroke:#181818;stroke-width:0.5;" x1="8" x2="182" y1="81" y2="81"/><line style="stroke:#181818;stroke-width:0.5;" x1="8" x2="182" y1="89" y2="89"/></g><!--MD5=[2596b26a88eba69d893c8d72b1e3b0b5]
class SelectOptionCellEditor--><g id="elem_SelectOptionCellEditor"><rect fill="#F1F1F1" height="48" id="SelectOptionCellEditor" rx="2.5" ry="2.5" style="stroke:#181818;stroke-width:0.5;" width="195" x="243" y="49"/><ellipse cx="258" cy="65" fill="#ADD1B2" rx="11" ry="11" style="stroke:#181818;stroke-width:1.0;"/><path d="M260.4731,71.1431 Q259.8921,71.4419 259.2529,71.5913 Q258.6138,71.7407 257.9082,71.7407 Q255.4014,71.7407 254.0815,70.0889 Q252.7617,68.437 252.7617,65.3159 Q252.7617,62.1865 254.0815,60.5347 Q255.4014,58.8828 257.9082,58.8828 Q258.6138,58.8828 259.2612,59.0322 Q259.9087,59.1816 260.4731,59.4805 L260.4731,62.2031 Q259.8423,61.6221 259.2488,61.3523 Q258.6553,61.0825 258.0244,61.0825 Q256.6797,61.0825 255.9949,62.1492 Q255.3101,63.2158 255.3101,65.3159 Q255.3101,67.4077 255.9949,68.4744 Q256.6797,69.541 258.0244,69.541 Q258.6553,69.541 259.2488,69.2712 Q259.8423,69.0015 260.4731,68.4204 Z " fill="#000000"/><text fill="#000000" font-family="sans-serif" font-size="14" font-weight="bold" lengthAdjust="spacing" textLength="163" x="272" y="70.291">SelectOptionCellEditor</text><line style="stroke:#181818;stroke-width:0.5;" x1="244" x2="437" y1="81" y2="81"/><line style="stroke:#181818;stroke-width:0.5;" x1="244" x2="437" y1="89" y2="89"/></g><!--MD5=[51664bfd7939bcc7807b4e78d4768bfa]
class GridSelectOptionCellController--><g id="elem_GridSelectOptionCellController"><rect fill="#F1F1F1" height="48" id="GridSelectOptionCellController" rx="2.5" ry="2.5" style="stroke:#181818;stroke-width:0.5;" width="255" x="783" y="90"/><ellipse cx="798" cy="106" fill="#ADD1B2" rx="11" ry="11" style="stroke:#181818;stroke-width:1.0;"/><path d="M800.4731,112.1431 Q799.8921,112.4419 799.2529,112.5913 Q798.6138,112.7407 797.9082,112.7407 Q795.4014,112.7407 794.0815,111.0889 Q792.7617,109.437 792.7617,106.3159 Q792.7617,103.1865 794.0815,101.5347 Q795.4014,99.8828 797.9082,99.8828 Q798.6138,99.8828 799.2612,100.0322 Q799.9087,100.1816 800.4731,100.4805 L800.4731,103.2031 Q799.8423,102.6221 799.2488,102.3523 Q798.6553,102.0825 798.0244,102.0825 Q796.6797,102.0825 795.9949,103.1492 Q795.3101,104.2158 795.3101,106.3159 Q795.3101,108.4077 795.9949,109.4744 Q796.6797,110.541 798.0244,110.541 Q798.6553,110.541 799.2488,110.2712 Q799.8423,110.0015 800.4731,109.4204 Z " fill="#000000"/><text fill="#000000" font-family="sans-serif" font-size="14" font-weight="bold" lengthAdjust="spacing" textLength="223" x="812" y="111.291">GridSelectOptionCellController</text><line style="stroke:#181818;stroke-width:0.5;" x1="784" x2="1037" y1="122" y2="122"/><line style="stroke:#181818;stroke-width:0.5;" x1="784" x2="1037" y1="130" y2="130"/></g><!--MD5=[05f1100755e41e1e0deda947909187eb]
link GridSingleSelectCell to SelectOptionCellEditor--><g id="link_GridSingleSelectCell_SelectOptionCellEditor"><path codeLine="10" d="M183.22,73 C200.93,73 219.71,73 237.87,73 " fill="none" id="GridSingleSelectCell-to-SelectOptionCellEditor" style="stroke:#181818;stroke-width:1.0;"/><polygon fill="#181818" points="242.98,73,233.98,69,237.98,73,233.98,77,242.98,73" style="stroke:#181818;stroke-width:1.0;"/></g><!--MD5=[9915e2495ff3a0d2ef9a34cffa2b4470]
link SelectOptionCellEditor to SelectOptionCellEditorBloc--><g id="link_SelectOptionCellEditor_SelectOptionCellEditorBloc"><path codeLine="11" d="M438.25,73 C455.93,73 474.55,73 492.74,73 " fill="none" id="SelectOptionCellEditor-to-SelectOptionCellEditorBloc" style="stroke:#181818;stroke-width:1.0;"/><polygon fill="#181818" points="497.86,73,488.86,69,492.86,73,488.86,77,497.86,73" style="stroke:#181818;stroke-width:1.0;"/></g><!--MD5=[6ce009b46c2bb66b57b79bfd8917ca78]
link SelectOptionCellEditorBloc to SelectOptionService--><g id="link_SelectOptionCellEditorBloc_SelectOptionService"><path codeLine="13" d="M723.31,57.24 C754.54,52.84 788.09,48.11 817.99,43.9 " fill="none" id="SelectOptionCellEditorBloc-to-SelectOptionService" style="stroke:#181818;stroke-width:1.0;"/><polygon fill="#181818" points="823.14,43.17,813.668,40.4715,818.1894,43.8711,814.7898,48.3925,823.14,43.17" style="stroke:#181818;stroke-width:1.0;"/></g><!--MD5=[c38e7c21a139cd03c74e4b6dc07a7b9a]
link SelectOptionCellEditorBloc to GridSelectOptionCellController--><g id="link_SelectOptionCellEditorBloc_GridSelectOptionCellController"><path codeLine="14" d="M723.31,88.38 C741.05,90.82 759.54,93.37 777.68,95.86 " fill="none" id="SelectOptionCellEditorBloc-to-GridSelectOptionCellController" style="stroke:#181818;stroke-width:1.0;"/><polygon fill="#181818" points="782.79,96.57,774.423,91.3745,777.8372,95.8849,773.3268,99.2991,782.79,96.57" style="stroke:#181818;stroke-width:1.0;"/></g><!--MD5=[f54bd4b7a02763d59ee350b850eca952]
@startuml Grid Selection Cell Edit
skinparam classFontStyle Bold
skinparam ActivityBackgroundColor Silver
skinparam ActivityBorderColor DimGray
left to right direction

class SelectOptionService
class SelectOptionCellEditorBloc

'SingleSelectCell
GridSingleSelectCell - -> SelectOptionCellEditor
SelectOptionCellEditor - -> SelectOptionCellEditorBloc

SelectOptionCellEditorBloc - -> SelectOptionService
SelectOptionCellEditorBloc - -> GridSelectOptionCellController



@enduml

@startuml Grid Selection Cell Edit
skinparam classFontStyle Bold
skinparam ActivityBackgroundColor Silver
skinparam ActivityBorderColor DimGray
left to right direction

class SelectOptionService
class SelectOptionCellEditorBloc

GridSingleSelectCell - -> SelectOptionCellEditor
SelectOptionCellEditor - -> SelectOptionCellEditorBloc

SelectOptionCellEditorBloc - -> SelectOptionService
SelectOptionCellEditorBloc - -> GridSelectOptionCellController



@enduml

PlantUML version 1.2022.5(Sat Apr 30 18:55:52 CST 2022)
(GPL source distribution)
Java Runtime: OpenJDK Runtime Environment
JVM: OpenJDK 64-Bit Server VM
Default Encoding: UTF-8
Language: en
Country: US
--></g></svg>