<?xml version="1.0" encoding="UTF-8" standalone="no"?><svg xmlns="http://www.w3.org/2000/svg" xmlns:xlink="http://www.w3.org/1999/xlink" contentStyleType="text/css" height="266px" preserveAspectRatio="none" style="width:1450px;height:266px;background:#FFFFFF;" version="1.1" viewBox="0 0 1450 266" width="1450px" zoomAndPan="magnify"><defs/><g><!--MD5=[2d22fe2009dbe3b2c91443c02af50e17]
class SelectOptionService--><g id="elem_SelectOptionService"><rect codeLine="6" fill="#F1F1F1" height="48" id="SelectOptionService" rx="2.5" ry="2.5" style="stroke:#181818;stroke-width:0.5;" width="174" x="1269" y="7"/><ellipse cx="1284" cy="23" fill="#ADD1B2" rx="11" ry="11" style="stroke:#181818;stroke-width:1.0;"/><path d="M1286.4731,29.1431 Q1285.8921,29.4419 1285.2529,29.5913 Q1284.6138,29.7407 1283.9082,29.7407 Q1281.4014,29.7407 1280.0815,28.0889 Q1278.7617,26.437 1278.7617,23.3159 Q1278.7617,20.1865 1280.0815,18.5347 Q1281.4014,16.8828 1283.9082,16.8828 Q1284.6138,16.8828 1285.2612,17.0322 Q1285.9087,17.1816 1286.4731,17.4805 L1286.4731,20.2031 Q1285.8423,19.6221 1285.2488,19.3523 Q1284.6553,19.0825 1284.0244,19.0825 Q1282.6797,19.0825 1281.9949,20.1492 Q1281.3101,21.2158 1281.3101,23.3159 Q1281.3101,25.4077 1281.9949,26.4744 Q1282.6797,27.541 1284.0244,27.541 Q1284.6553,27.541 1285.2488,27.2712 Q1285.8423,27.0015 1286.4731,26.4204 Z " fill="#000000"/><text fill="#000000" font-family="sans-serif" font-size="14" font-weight="bold" lengthAdjust="spacing" textLength="142" x="1298" y="28.291">SelectOptionService</text><line style="stroke:#181818;stroke-width:0.5;" x1="1270" x2="1442" y1="39" y2="39"/><line style="stroke:#181818;stroke-width:0.5;" x1="1270" x2="1442" y1="47" y2="47"/></g><!--MD5=[907cc96a340d5e10d8a61de7d127c7cf]
class SelectOptionCellEditorBloc--><g id="elem_SelectOptionCellEditorBloc"><rect codeLine="7" fill="#F1F1F1" height="48" id="SelectOptionCellEditorBloc" rx="2.5" ry="2.5" style="stroke:#181818;stroke-width:0.5;" width="225" x="984" y="7"/><ellipse cx="999" cy="23" fill="#ADD1B2" rx="11" ry="11" style="stroke:#181818;stroke-width:1.0;"/><path d="M1001.4731,29.1431 Q1000.8921,29.4419 1000.2529,29.5913 Q999.6138,29.7407 998.9082,29.7407 Q996.4014,29.7407 995.0815,28.0889 Q993.7617,26.437 993.7617,23.3159 Q993.7617,20.1865 995.0815,18.5347 Q996.4014,16.8828 998.9082,16.8828 Q999.6138,16.8828 1000.2612,17.0322 Q1000.9087,17.1816 1001.4731,17.4805 L1001.4731,20.2031 Q1000.8423,19.6221 1000.2488,19.3523 Q999.6553,19.0825 999.0244,19.0825 Q997.6797,19.0825 996.9949,20.1492 Q996.3101,21.2158 996.3101,23.3159 Q996.3101,25.4077 996.9949,26.4744 Q997.6797,27.541 999.0244,27.541 Q999.6553,27.541 1000.2488,27.2712 Q1000.8423,27.0015 1001.4731,26.4204 Z " fill="#000000"/><text fill="#000000" font-family="sans-serif" font-size="14" font-weight="bold" lengthAdjust="spacing" textLength="193" x="1013" y="28.291">SelectOptionCellEditorBloc</text><line style="stroke:#181818;stroke-width:0.5;" x1="985" x2="1208" y1="39" y2="39"/><line style="stroke:#181818;stroke-width:0.5;" x1="985" x2="1208" y1="47" y2="47"/></g><!--MD5=[51cd598af29de75b3ea2e5bc536ca08a]
class IGridCellController--><g id="elem_IGridCellController"><rect codeLine="8" fill="#F1F1F1" height="48" id="IGridCellController" rx="2.5" ry="2.5" style="stroke:#181818;stroke-width:0.5;" width="168" x="1012.5" y="128"/><ellipse cx="1027.5" cy="144" fill="#B4A7E5" rx="11" ry="11" style="stroke:#181818;stroke-width:1.0;"/><path d="M1023.9277,140.2651 L1023.9277,138.1069 L1031.3071,138.1069 L1031.3071,140.2651 L1028.8418,140.2651 L1028.8418,148.3418 L1031.3071,148.3418 L1031.3071,150.5 L1023.9277,150.5 L1023.9277,148.3418 L1026.3931,148.3418 L1026.3931,140.2651 Z " fill="#000000"/><text fill="#000000" font-family="sans-serif" font-size="14" font-style="italic" font-weight="bold" lengthAdjust="spacing" textLength="136" x="1041.5" y="149.291">IGridCellController</text><line style="stroke:#181818;stroke-width:0.5;" x1="1013.5" x2="1179.5" y1="160" y2="160"/><line style="stroke:#181818;stroke-width:0.5;" x1="1013.5" x2="1179.5" y1="168" y2="168"/></g><!--MD5=[79b03f48159234f16d17aaca0290e5ca]
class GridCellBuilder--><g id="elem_GridCellBuilder"><rect fill="#F1F1F1" height="48" id="GridCellBuilder" rx="2.5" ry="2.5" style="stroke:#181818;stroke-width:0.5;" width="141" x="7" y="128"/><ellipse cx="22" cy="144" fill="#ADD1B2" rx="11" ry="11" style="stroke:#181818;stroke-width:1.0;"/><path d="M24.4731,150.1431 Q23.8921,150.4419 23.2529,150.5913 Q22.6138,150.7407 21.9082,150.7407 Q19.4014,150.7407 18.0815,149.0889 Q16.7617,147.437 16.7617,144.3159 Q16.7617,141.1865 18.0815,139.5347 Q19.4014,137.8828 21.9082,137.8828 Q22.6138,137.8828 23.2612,138.0322 Q23.9087,138.1816 24.4731,138.4805 L24.4731,141.2031 Q23.8423,140.6221 23.2488,140.3523 Q22.6553,140.0825 22.0244,140.0825 Q20.6797,140.0825 19.9949,141.1492 Q19.3101,142.2158 19.3101,144.3159 Q19.3101,146.4077 19.9949,147.4744 Q20.6797,148.541 22.0244,148.541 Q22.6553,148.541 23.2488,148.2712 Q23.8423,148.0015 24.4731,147.4204 Z " fill="#000000"/><text fill="#000000" font-family="sans-serif" font-size="14" font-weight="bold" lengthAdjust="spacing" textLength="109" x="36" y="149.291">GridCellBuilder</text><line style="stroke:#181818;stroke-width:0.5;" x1="8" x2="147" y1="160" y2="160"/><line style="stroke:#181818;stroke-width:0.5;" x1="8" x2="147" y1="168" y2="168"/></g><!--MD5=[8ecd7586f2a55ef3e908119f723610db]
class SingleSelectCell--><g id="elem_SingleSelectCell"><rect fill="#F1F1F1" height="48" id="SingleSelectCell" rx="2.5" ry="2.5" style="stroke:#181818;stroke-width:0.5;" width="146" x="208" y="45"/><ellipse cx="223" cy="61" fill="#ADD1B2" rx="11" ry="11" style="stroke:#181818;stroke-width:1.0;"/><path d="M225.4731,67.1431 Q224.8921,67.4419 224.2529,67.5913 Q223.6138,67.7407 222.9082,67.7407 Q220.4014,67.7407 219.0815,66.0889 Q217.7617,64.437 217.7617,61.3159 Q217.7617,58.1865 219.0815,56.5347 Q220.4014,54.8828 222.9082,54.8828 Q223.6138,54.8828 224.2612,55.0322 Q224.9087,55.1816 225.4731,55.4805 L225.4731,58.2031 Q224.8423,57.6221 224.2488,57.3523 Q223.6553,57.0825 223.0244,57.0825 Q221.6797,57.0825 220.9949,58.1492 Q220.3101,59.2158 220.3101,61.3159 Q220.3101,63.4077 220.9949,64.4744 Q221.6797,65.541 223.0244,65.541 Q223.6553,65.541 224.2488,65.2712 Q224.8423,65.0015 225.4731,64.4204 Z " fill="#000000"/><text fill="#000000" font-family="sans-serif" font-size="14" font-weight="bold" lengthAdjust="spacing" textLength="114" x="237" y="66.291">SingleSelectCell</text><line style="stroke:#181818;stroke-width:0.5;" x1="209" x2="353" y1="77" y2="77"/><line style="stroke:#181818;stroke-width:0.5;" x1="209" x2="353" y1="85" y2="85"/></g><!--MD5=[39d5df1df030e831d4de2469ae212dd1]
class DateCell--><g id="elem_DateCell"><rect fill="#F1F1F1" height="48" id="DateCell" rx="2.5" ry="2.5" style="stroke:#181818;stroke-width:0.5;" width="93" x="234.5" y="128"/><ellipse cx="249.5" cy="144" fill="#ADD1B2" rx="11" ry="11" style="stroke:#181818;stroke-width:1.0;"/><path d="M251.9731,150.1431 Q251.3921,150.4419 250.7529,150.5913 Q250.1138,150.7407 249.4082,150.7407 Q246.9014,150.7407 245.5815,149.0889 Q244.2617,147.437 244.2617,144.3159 Q244.2617,141.1865 245.5815,139.5347 Q246.9014,137.8828 249.4082,137.8828 Q250.1138,137.8828 250.7612,138.0322 Q251.4087,138.1816 251.9731,138.4805 L251.9731,141.2031 Q251.3423,140.6221 250.7488,140.3523 Q250.1553,140.0825 249.5244,140.0825 Q248.1797,140.0825 247.4949,141.1492 Q246.8101,142.2158 246.8101,144.3159 Q246.8101,146.4077 247.4949,147.4744 Q248.1797,148.541 249.5244,148.541 Q250.1553,148.541 250.7488,148.2712 Q251.3423,148.0015 251.9731,147.4204 Z " fill="#000000"/><text fill="#000000" font-family="sans-serif" font-size="14" font-weight="bold" lengthAdjust="spacing" textLength="61" x="263.5" y="149.291">DateCell</text><line style="stroke:#181818;stroke-width:0.5;" x1="235.5" x2="326.5" y1="160" y2="160"/><line style="stroke:#181818;stroke-width:0.5;" x1="235.5" x2="326.5" y1="168" y2="168"/></g><!--MD5=[1c89fbbb509dd1867fdc364e44742f72]
class GridURLCell--><g id="elem_GridURLCell"><rect fill="#F1F1F1" height="48" id="GridURLCell" rx="2.5" ry="2.5" style="stroke:#181818;stroke-width:0.5;" width="118" x="222" y="211"/><ellipse cx="237" cy="227" fill="#ADD1B2" rx="11" ry="11" style="stroke:#181818;stroke-width:1.0;"/><path d="M239.4731,233.1431 Q238.8921,233.4419 238.2529,233.5913 Q237.6138,233.7407 236.9082,233.7407 Q234.4014,233.7407 233.0815,232.0889 Q231.7617,230.437 231.7617,227.3159 Q231.7617,224.1865 233.0815,222.5347 Q234.4014,220.8828 236.9082,220.8828 Q237.6138,220.8828 238.2612,221.0322 Q238.9087,221.1816 239.4731,221.4805 L239.4731,224.2031 Q238.8423,223.6221 238.2488,223.3523 Q237.6553,223.0825 237.0244,223.0825 Q235.6797,223.0825 234.9949,224.1492 Q234.3101,225.2158 234.3101,227.3159 Q234.3101,229.4077 234.9949,230.4744 Q235.6797,231.541 237.0244,231.541 Q237.6553,231.541 238.2488,231.2712 Q238.8423,231.0015 239.4731,230.4204 Z " fill="#000000"/><text fill="#000000" font-family="sans-serif" font-size="14" font-weight="bold" lengthAdjust="spacing" textLength="86" x="251" y="232.291">GridURLCell</text><line style="stroke:#181818;stroke-width:0.5;" x1="223" x2="339" y1="243" y2="243"/><line style="stroke:#181818;stroke-width:0.5;" x1="223" x2="339" y1="251" y2="251"/></g><!--MD5=[2596b26a88eba69d893c8d72b1e3b0b5]
class SelectOptionCellEditor--><g id="elem_SelectOptionCellEditor"><rect fill="#F1F1F1" height="48" id="SelectOptionCellEditor" rx="2.5" ry="2.5" style="stroke:#181818;stroke-width:0.5;" width="195" x="414" y="45"/><ellipse cx="429" cy="61" fill="#ADD1B2" rx="11" ry="11" style="stroke:#181818;stroke-width:1.0;"/><path d="M431.4731,67.1431 Q430.8921,67.4419 430.2529,67.5913 Q429.6138,67.7407 428.9082,67.7407 Q426.4014,67.7407 425.0815,66.0889 Q423.7617,64.437 423.7617,61.3159 Q423.7617,58.1865 425.0815,56.5347 Q426.4014,54.8828 428.9082,54.8828 Q429.6138,54.8828 430.2612,55.0322 Q430.9087,55.1816 431.4731,55.4805 L431.4731,58.2031 Q430.8423,57.6221 430.2488,57.3523 Q429.6553,57.0825 429.0244,57.0825 Q427.6797,57.0825 426.9949,58.1492 Q426.3101,59.2158 426.3101,61.3159 Q426.3101,63.4077 426.9949,64.4744 Q427.6797,65.541 429.0244,65.541 Q429.6553,65.541 430.2488,65.2712 Q430.8423,65.0015 431.4731,64.4204 Z " fill="#000000"/><text fill="#000000" font-family="sans-serif" font-size="14" font-weight="bold" lengthAdjust="spacing" textLength="163" x="443" y="66.291">SelectOptionCellEditor</text><line style="stroke:#181818;stroke-width:0.5;" x1="415" x2="608" y1="77" y2="77"/><line style="stroke:#181818;stroke-width:0.5;" x1="415" x2="608" y1="85" y2="85"/></g><!--MD5=[51664bfd7939bcc7807b4e78d4768bfa]
class GridSelectOptionCellController--><g id="elem_GridSelectOptionCellController"><rect fill="#F1F1F1" height="48" id="GridSelectOptionCellController" rx="2.5" ry="2.5" style="stroke:#181818;stroke-width:0.5;" width="255" x="669" y="45"/><ellipse cx="684" cy="61" fill="#ADD1B2" rx="11" ry="11" style="stroke:#181818;stroke-width:1.0;"/><path d="M686.4731,67.1431 Q685.8921,67.4419 685.2529,67.5913 Q684.6138,67.7407 683.9082,67.7407 Q681.4014,67.7407 680.0815,66.0889 Q678.7617,64.437 678.7617,61.3159 Q678.7617,58.1865 680.0815,56.5347 Q681.4014,54.8828 683.9082,54.8828 Q684.6138,54.8828 685.2612,55.0322 Q685.9087,55.1816 686.4731,55.4805 L686.4731,58.2031 Q685.8423,57.6221 685.2488,57.3523 Q684.6553,57.0825 684.0244,57.0825 Q682.6797,57.0825 681.9949,58.1492 Q681.3101,59.2158 681.3101,61.3159 Q681.3101,63.4077 681.9949,64.4744 Q682.6797,65.541 684.0244,65.541 Q684.6553,65.541 685.2488,65.2712 Q685.8423,65.0015 686.4731,64.4204 Z " fill="#000000"/><text fill="#000000" font-family="sans-serif" font-size="14" font-weight="bold" lengthAdjust="spacing" textLength="223" x="698" y="66.291">GridSelectOptionCellController</text><line style="stroke:#181818;stroke-width:0.5;" x1="670" x2="923" y1="77" y2="77"/><line style="stroke:#181818;stroke-width:0.5;" x1="670" x2="923" y1="85" y2="85"/></g><!--MD5=[284ffae213cd7240f6069514c5d9cc92]
class DateCellEditor--><g id="elem_DateCellEditor"><rect fill="#F1F1F1" height="48" id="DateCellEditor" rx="2.5" ry="2.5" style="stroke:#181818;stroke-width:0.5;" width="136" x="443.5" y="128"/><ellipse cx="458.5" cy="144" fill="#ADD1B2" rx="11" ry="11" style="stroke:#181818;stroke-width:1.0;"/><path d="M460.9731,150.1431 Q460.3921,150.4419 459.7529,150.5913 Q459.1138,150.7407 458.4082,150.7407 Q455.9014,150.7407 454.5815,149.0889 Q453.2617,147.437 453.2617,144.3159 Q453.2617,141.1865 454.5815,139.5347 Q455.9014,137.8828 458.4082,137.8828 Q459.1138,137.8828 459.7612,138.0322 Q460.4087,138.1816 460.9731,138.4805 L460.9731,141.2031 Q460.3423,140.6221 459.7488,140.3523 Q459.1553,140.0825 458.5244,140.0825 Q457.1797,140.0825 456.4949,141.1492 Q455.8101,142.2158 455.8101,144.3159 Q455.8101,146.4077 456.4949,147.4744 Q457.1797,148.541 458.5244,148.541 Q459.1553,148.541 459.7488,148.2712 Q460.3423,148.0015 460.9731,147.4204 Z " fill="#000000"/><text fill="#000000" font-family="sans-serif" font-size="14" font-weight="bold" lengthAdjust="spacing" textLength="104" x="472.5" y="149.291">DateCellEditor</text><line style="stroke:#181818;stroke-width:0.5;" x1="444.5" x2="578.5" y1="160" y2="160"/><line style="stroke:#181818;stroke-width:0.5;" x1="444.5" x2="578.5" y1="168" y2="168"/></g><!--MD5=[b690d5e1902694d6abf5dbe6c1d7ad29]
class GridDateCellController--><g id="elem_GridDateCellController"><rect fill="#F1F1F1" height="48" id="GridDateCellController" rx="2.5" ry="2.5" style="stroke:#181818;stroke-width:0.5;" width="196" x="698.5" y="128"/><ellipse cx="713.5" cy="144" fill="#ADD1B2" rx="11" ry="11" style="stroke:#181818;stroke-width:1.0;"/><path d="M715.9731,150.1431 Q715.3921,150.4419 714.7529,150.5913 Q714.1138,150.7407 713.4082,150.7407 Q710.9014,150.7407 709.5815,149.0889 Q708.2617,147.437 708.2617,144.3159 Q708.2617,141.1865 709.5815,139.5347 Q710.9014,137.8828 713.4082,137.8828 Q714.1138,137.8828 714.7612,138.0322 Q715.4087,138.1816 715.9731,138.4805 L715.9731,141.2031 Q715.3423,140.6221 714.7488,140.3523 Q714.1553,140.0825 713.5244,140.0825 Q712.1797,140.0825 711.4949,141.1492 Q710.8101,142.2158 710.8101,144.3159 Q710.8101,146.4077 711.4949,147.4744 Q712.1797,148.541 713.5244,148.541 Q714.1553,148.541 714.7488,148.2712 Q715.3423,148.0015 715.9731,147.4204 Z " fill="#000000"/><text fill="#000000" font-family="sans-serif" font-size="14" font-weight="bold" lengthAdjust="spacing" textLength="164" x="727.5" y="149.291">GridDateCellController</text><line style="stroke:#181818;stroke-width:0.5;" x1="699.5" x2="893.5" y1="160" y2="160"/><line style="stroke:#181818;stroke-width:0.5;" x1="699.5" x2="893.5" y1="168" y2="168"/></g><!--MD5=[8cc4d5ad9a494a00c048a782868ffda8]
class URLCellEditor--><g id="elem_URLCellEditor"><rect fill="#F1F1F1" height="48" id="URLCellEditor" rx="2.5" ry="2.5" style="stroke:#181818;stroke-width:0.5;" width="131" x="446" y="211"/><ellipse cx="461" cy="227" fill="#ADD1B2" rx="11" ry="11" style="stroke:#181818;stroke-width:1.0;"/><path d="M463.4731,233.1431 Q462.8921,233.4419 462.2529,233.5913 Q461.6138,233.7407 460.9082,233.7407 Q458.4014,233.7407 457.0815,232.0889 Q455.7617,230.437 455.7617,227.3159 Q455.7617,224.1865 457.0815,222.5347 Q458.4014,220.8828 460.9082,220.8828 Q461.6138,220.8828 462.2612,221.0322 Q462.9087,221.1816 463.4731,221.4805 L463.4731,224.2031 Q462.8423,223.6221 462.2488,223.3523 Q461.6553,223.0825 461.0244,223.0825 Q459.6797,223.0825 458.9949,224.1492 Q458.3101,225.2158 458.3101,227.3159 Q458.3101,229.4077 458.9949,230.4744 Q459.6797,231.541 461.0244,231.541 Q461.6553,231.541 462.2488,231.2712 Q462.8423,231.0015 463.4731,230.4204 Z " fill="#000000"/><text fill="#000000" font-family="sans-serif" font-size="14" font-weight="bold" lengthAdjust="spacing" textLength="99" x="475" y="232.291">URLCellEditor</text><line style="stroke:#181818;stroke-width:0.5;" x1="447" x2="576" y1="243" y2="243"/><line style="stroke:#181818;stroke-width:0.5;" x1="447" x2="576" y1="251" y2="251"/></g><!--MD5=[b1f17cde20c68719e872f98458950d62]
class GridURLCellController--><g id="elem_GridURLCellController"><rect fill="#F1F1F1" height="48" id="GridURLCellController" rx="2.5" ry="2.5" style="stroke:#181818;stroke-width:0.5;" width="191" x="701" y="211"/><ellipse cx="716" cy="227" fill="#ADD1B2" rx="11" ry="11" style="stroke:#181818;stroke-width:1.0;"/><path d="M718.4731,233.1431 Q717.8921,233.4419 717.2529,233.5913 Q716.6138,233.7407 715.9082,233.7407 Q713.4014,233.7407 712.0815,232.0889 Q710.7617,230.437 710.7617,227.3159 Q710.7617,224.1865 712.0815,222.5347 Q713.4014,220.8828 715.9082,220.8828 Q716.6138,220.8828 717.2612,221.0322 Q717.9087,221.1816 718.4731,221.4805 L718.4731,224.2031 Q717.8423,223.6221 717.2488,223.3523 Q716.6553,223.0825 716.0244,223.0825 Q714.6797,223.0825 713.9949,224.1492 Q713.3101,225.2158 713.3101,227.3159 Q713.3101,229.4077 713.9949,230.4744 Q714.6797,231.541 716.0244,231.541 Q716.6553,231.541 717.2488,231.2712 Q717.8423,231.0015 718.4731,230.4204 Z " fill="#000000"/><text fill="#000000" font-family="sans-serif" font-size="14" font-weight="bold" lengthAdjust="spacing" textLength="159" x="730" y="232.291">GridURLCellController</text><line style="stroke:#181818;stroke-width:0.5;" x1="702" x2="891" y1="243" y2="243"/><line style="stroke:#181818;stroke-width:0.5;" x1="702" x2="891" y1="251" y2="251"/></g><!--MD5=[ec28b18c1a5182844f2ad008e7cf6406]
link GridCellBuilder to SingleSelectCell--><g id="link_GridCellBuilder_SingleSelectCell"><path codeLine="10" d="M136.78,127.99 C161.84,117.67 191.19,105.58 216.77,95.05 " fill="none" id="GridCellBuilder-to-SingleSelectCell" style="stroke:#181818;stroke-width:1.0;"/><polygon fill="#181818" points="221.5,93.1,211.6552,92.8173,216.8745,94.9987,214.6932,100.2181,221.5,93.1" style="stroke:#181818;stroke-width:1.0;"/></g><!--MD5=[1e862c678317ab0a15a45ba144e10743]
link GridCellBuilder to DateCell--><g id="link_GridCellBuilder_DateCell"><path codeLine="11" d="M148.13,152 C174.78,152 204.66,152 229.23,152 " fill="none" id="GridCellBuilder-to-DateCell" style="stroke:#181818;stroke-width:1.0;"/><polygon fill="#181818" points="234.39,152,225.39,148,229.39,152,225.39,156,234.39,152" style="stroke:#181818;stroke-width:1.0;"/></g><!--MD5=[836f4a15886b33e17ea713301ea65842]
link GridCellBuilder to GridURLCell--><g id="link_GridCellBuilder_GridURLCell"><path codeLine="12" d="M136.78,176.01 C161.95,186.37 191.44,198.52 217.1,209.09 " fill="none" id="GridCellBuilder-to-GridURLCell" style="stroke:#181818;stroke-width:1.0;"/><polygon fill="#181818" points="221.85,211.05,215.0432,203.9319,217.2245,209.1513,212.0052,211.3327,221.85,211.05" style="stroke:#181818;stroke-width:1.0;"/></g><!--MD5=[20009c252533d277b9ff486ff92c828a]
link SingleSelectCell to SelectOptionCellEditor--><g id="link_SingleSelectCell_SelectOptionCellEditor"><path codeLine="15" d="M354.3,69 C371.51,69 390.19,69 408.46,69 " fill="none" id="SingleSelectCell-to-SelectOptionCellEditor" style="stroke:#181818;stroke-width:1.0;"/><polygon fill="#181818" points="413.6,69,404.6,65,408.6,69,404.6,73,413.6,69" style="stroke:#181818;stroke-width:1.0;"/></g><!--MD5=[6126efa41f8e38792a10b1369bcdf531]
link SelectOptionCellEditor to GridSelectOptionCellController--><g id="link_SelectOptionCellEditor_GridSelectOptionCellController"><path codeLine="16" d="M609.1,69 C626.66,69 645.26,69 663.63,69 " fill="none" id="SelectOptionCellEditor-to-GridSelectOptionCellController" style="stroke:#181818;stroke-width:1.0;"/><polygon fill="#181818" points="668.81,69,659.81,65,663.81,69,659.81,73,668.81,69" style="stroke:#181818;stroke-width:1.0;"/></g><!--MD5=[9915e2495ff3a0d2ef9a34cffa2b4470]
link SelectOptionCellEditor to SelectOptionCellEditorBloc--><g id="link_SelectOptionCellEditor_SelectOptionCellEditorBloc"><path codeLine="17" d="M586.13,44.98 C612.03,37.67 641.53,30.62 669,27 C773.01,13.29 892.53,15.98 978.53,21.11 " fill="none" id="SelectOptionCellEditor-to-SelectOptionCellEditorBloc" style="stroke:#181818;stroke-width:1.0;"/><polygon fill="#181818" points="983.63,21.42,974.8857,16.8882,978.639,21.1205,974.4066,24.8738,983.63,21.42" style="stroke:#181818;stroke-width:1.0;"/></g><!--MD5=[6ce009b46c2bb66b57b79bfd8917ca78]
link SelectOptionCellEditorBloc to SelectOptionService--><g id="link_SelectOptionCellEditorBloc_SelectOptionService"><path codeLine="19" d="M1209.32,31 C1227.4,31 1245.94,31 1263.46,31 " fill="none" id="SelectOptionCellEditorBloc-to-SelectOptionService" style="stroke:#181818;stroke-width:1.0;"/><polygon fill="#181818" points="1268.87,31,1259.87,27,1263.87,31,1259.87,35,1268.87,31" style="stroke:#181818;stroke-width:1.0;"/></g><!--MD5=[279883c2c7437f38a7777ae64403e54a]
reverse link GridSelectOptionCellController to SelectOptionCellEditorBloc--><g id="link_GridSelectOptionCellController_SelectOptionCellEditorBloc"><path codeLine="20" d="M929.43,52.18 C947.6,49.86 966.12,47.5 983.88,45.23 " fill="none" id="GridSelectOptionCellController-backto-SelectOptionCellEditorBloc" style="stroke:#181818;stroke-width:1.0;"/><polygon fill="#181818" points="924.31,52.83,933.7417,55.6661,929.2703,52.201,932.7353,47.7296,924.31,52.83" style="stroke:#181818;stroke-width:1.0;"/></g><!--MD5=[260ef70366807cf579138e79b5103750]
link GridSelectOptionCellController to IGridCellController--><g id="link_GridSelectOptionCellController_IGridCellController"><path codeLine="21" d="M883.69,93.01 C917.85,102.52 957.4,113.53 993,123.45 " fill="none" id="GridSelectOptionCellController-to-IGridCellController" style="stroke:#181818;stroke-width:1.0;"/><polygon fill="none" points="994.93,116.72,1012.32,128.83,991.18,130.21,994.93,116.72" style="stroke:#181818;stroke-width:1.0;"/></g><!--MD5=[cfce68b77d8c2a1b08344911787971fe]
link DateCell to DateCellEditor--><g id="link_DateCell_DateCellEditor"><path codeLine="25" d="M327.69,152 C359.22,152 401.81,152 437.94,152 " fill="none" id="DateCell-to-DateCellEditor" style="stroke:#181818;stroke-width:1.0;"/><polygon fill="#181818" points="443.22,152,434.22,148,438.22,152,434.22,156,443.22,152" style="stroke:#181818;stroke-width:1.0;"/></g><!--MD5=[4df5bdf86918061e3393edea908b474b]
link DateCellEditor to GridDateCellController--><g id="link_DateCellEditor_GridDateCellController"><path codeLine="26" d="M579.57,152 C613.51,152 655.45,152 693.3,152 " fill="none" id="DateCellEditor-to-GridDateCellController" style="stroke:#181818;stroke-width:1.0;"/><polygon fill="#181818" points="698.38,152,689.38,148,693.38,152,689.38,156,698.38,152" style="stroke:#181818;stroke-width:1.0;"/></g><!--MD5=[5649d09e599aecb77710925748289a35]
link GridDateCellController to IGridCellController--><g id="link_GridDateCellController_IGridCellController"><path codeLine="27" d="M894.66,152 C925.87,152 960.55,152 992.18,152 " fill="none" id="GridDateCellController-to-IGridCellController" style="stroke:#181818;stroke-width:1.0;"/><polygon fill="none" points="992.47,145,1012.47,152,992.47,159,992.47,145" style="stroke:#181818;stroke-width:1.0;"/></g><!--MD5=[8cdcf74340dfbd1a6d0651e56830bac6]
link GridURLCell to URLCellEditor--><g id="link_GridURLCell_URLCellEditor"><path codeLine="30" d="M340.25,235 C370.88,235 408.63,235 440.8,235 " fill="none" id="GridURLCell-to-URLCellEditor" style="stroke:#181818;stroke-width:1.0;"/><polygon fill="#181818" points="445.91,235,436.91,231,440.91,235,436.91,239,445.91,235" style="stroke:#181818;stroke-width:1.0;"/></g><!--MD5=[38813ba865b56bfd4781b2a68d28cf8e]
link URLCellEditor to GridURLCellController--><g id="link_URLCellEditor_GridURLCellController"><path codeLine="31" d="M577.07,235 C612.12,235 656.22,235 695.6,235 " fill="none" id="URLCellEditor-to-GridURLCellController" style="stroke:#181818;stroke-width:1.0;"/><polygon fill="#181818" points="700.87,235,691.87,231,695.87,235,691.87,239,700.87,235" style="stroke:#181818;stroke-width:1.0;"/></g><!--MD5=[bacea9f5ac62af2fa10193bbac55c79a]
link GridURLCellController to IGridCellController--><g id="link_GridURLCellController_IGridCellController"><path codeLine="32" d="M883.69,210.99 C917.85,201.48 957.4,190.47 993,180.55 " fill="none" id="GridURLCellController-to-IGridCellController" style="stroke:#181818;stroke-width:1.0;"/><polygon fill="none" points="991.18,173.79,1012.32,175.17,994.93,187.28,991.18,173.79" style="stroke:#181818;stroke-width:1.0;"/></g><!--MD5=[56b1bc173c23fecebb9c969f9dbac9b1]
@startuml Grid Cell Builder
skinparam classFontStyle Bold
skinparam ActivityBackgroundColor Silver
skinparam ActivityBorderColor DimGray
left to right direction

class SelectOptionService
class SelectOptionCellEditorBloc
interface IGridCellController

GridCellBuilder - -> SingleSelectCell
GridCellBuilder - -> DateCell
GridCellBuilder - -> GridURLCell

'SingleSelectCell
SingleSelectCell - -> SelectOptionCellEditor
SelectOptionCellEditor - -> GridSelectOptionCellController
SelectOptionCellEditor - -> SelectOptionCellEditorBloc

SelectOptionCellEditorBloc - -> SelectOptionService
SelectOptionCellEditorBloc -u-> GridSelectOptionCellController
GridSelectOptionCellController - -|> IGridCellController


'DateCell
DateCell - -> DateCellEditor
DateCellEditor - -> GridDateCellController
GridDateCellController - -|> IGridCellController

'URLCell
GridURLCell - -> URLCellEditor
URLCellEditor - -> GridURLCellController
GridURLCellController - -|> IGridCellController

@enduml

@startuml Grid Cell Builder
skinparam classFontStyle Bold
skinparam ActivityBackgroundColor Silver
skinparam ActivityBorderColor DimGray
left to right direction

class SelectOptionService
class SelectOptionCellEditorBloc
interface IGridCellController

GridCellBuilder - -> SingleSelectCell
GridCellBuilder - -> DateCell
GridCellBuilder - -> GridURLCell

SingleSelectCell - -> SelectOptionCellEditor
SelectOptionCellEditor - -> GridSelectOptionCellController
SelectOptionCellEditor - -> SelectOptionCellEditorBloc

SelectOptionCellEditorBloc - -> SelectOptionService
SelectOptionCellEditorBloc -u-> GridSelectOptionCellController
GridSelectOptionCellController - -|> IGridCellController


DateCell - -> DateCellEditor
DateCellEditor - -> GridDateCellController
GridDateCellController - -|> IGridCellController

GridURLCell - -> URLCellEditor
URLCellEditor - -> GridURLCellController
GridURLCellController - -|> IGridCellController

@enduml

PlantUML version 1.2022.5(Sat Apr 30 18:55:52 CST 2022)
(GPL source distribution)
Java Runtime: OpenJDK Runtime Environment
JVM: OpenJDK 64-Bit Server VM
Default Encoding: UTF-8
Language: en
Country: US
--></g></svg>