<?xml version="1.0" encoding="UTF-8" standalone="no"?><svg xmlns="http://www.w3.org/2000/svg" xmlns:xlink="http://www.w3.org/1999/xlink" contentStyleType="text/css" height="560px" preserveAspectRatio="none" style="width:391px;height:560px;background:#FFFFFF;" version="1.1" viewBox="0 0 391 560" width="391px" zoomAndPan="magnify"><defs/><g><!--MD5=[79b03f48159234f16d17aaca0290e5ca]
class GridCellBuilder--><g id="elem_GridCellBuilder"><rect fill="#F1F1F1" height="48" id="GridCellBuilder" rx="2.5" ry="2.5" style="stroke:#181818;stroke-width:0.5;" width="141" x="7" y="256"/><ellipse cx="22" cy="272" fill="#ADD1B2" rx="11" ry="11" style="stroke:#181818;stroke-width:1.0;"/><path d="M24.4731,278.1431 Q23.8921,278.4419 23.2529,278.5913 Q22.6138,278.7407 21.9082,278.7407 Q19.4014,278.7407 18.0815,277.0889 Q16.7617,275.437 16.7617,272.3159 Q16.7617,269.1865 18.0815,267.5347 Q19.4014,265.8828 21.9082,265.8828 Q22.6138,265.8828 23.2612,266.0322 Q23.9087,266.1816 24.4731,266.4805 L24.4731,269.2031 Q23.8423,268.6221 23.2488,268.3523 Q22.6553,268.0825 22.0244,268.0825 Q20.6797,268.0825 19.9949,269.1492 Q19.3101,270.2158 19.3101,272.3159 Q19.3101,274.4077 19.9949,275.4744 Q20.6797,276.541 22.0244,276.541 Q22.6553,276.541 23.2488,276.2712 Q23.8423,276.0015 24.4731,275.4204 Z " fill="#000000"/><text fill="#000000" font-family="sans-serif" font-size="14" font-weight="bold" lengthAdjust="spacing" textLength="109" x="36" y="277.291">GridCellBuilder</text><line style="stroke:#181818;stroke-width:0.5;" x1="8" x2="147" y1="288" y2="288"/><line style="stroke:#181818;stroke-width:0.5;" x1="8" x2="147" y1="296" y2="296"/></g><!--MD5=[5d641b6100d9a5b130aab51ebd1972ca]
class GridSingleSelectCell--><g id="elem_GridSingleSelectCell"><rect fill="#F1F1F1" height="48" id="GridSingleSelectCell" rx="2.5" ry="2.5" style="stroke:#181818;stroke-width:0.5;" width="176" x="208" y="7"/><ellipse cx="223" cy="23" fill="#ADD1B2" rx="11" ry="11" style="stroke:#181818;stroke-width:1.0;"/><path d="M225.4731,29.1431 Q224.8921,29.4419 224.2529,29.5913 Q223.6138,29.7407 222.9082,29.7407 Q220.4014,29.7407 219.0815,28.0889 Q217.7617,26.437 217.7617,23.3159 Q217.7617,20.1865 219.0815,18.5347 Q220.4014,16.8828 222.9082,16.8828 Q223.6138,16.8828 224.2612,17.0322 Q224.9087,17.1816 225.4731,17.4805 L225.4731,20.2031 Q224.8423,19.6221 224.2488,19.3523 Q223.6553,19.0825 223.0244,19.0825 Q221.6797,19.0825 220.9949,20.1492 Q220.3101,21.2158 220.3101,23.3159 Q220.3101,25.4077 220.9949,26.4744 Q221.6797,27.541 223.0244,27.541 Q223.6553,27.541 224.2488,27.2712 Q224.8423,27.0015 225.4731,26.4204 Z " fill="#000000"/><text fill="#000000" font-family="sans-serif" font-size="14" font-weight="bold" lengthAdjust="spacing" textLength="144" x="237" y="28.291">GridSingleSelectCell</text><line style="stroke:#181818;stroke-width:0.5;" x1="209" x2="383" y1="39" y2="39"/><line style="stroke:#181818;stroke-width:0.5;" x1="209" x2="383" y1="47" y2="47"/></g><!--MD5=[760c62e5fd4dc9038baa6c5bfda1c5f1]
class GridMultiSelectCell--><g id="elem_GridMultiSelectCell"><rect fill="#F1F1F1" height="48" id="GridMultiSelectCell" rx="2.5" ry="2.5" style="stroke:#181818;stroke-width:0.5;" width="170" x="211" y="90"/><ellipse cx="226" cy="106" fill="#ADD1B2" rx="11" ry="11" style="stroke:#181818;stroke-width:1.0;"/><path d="M228.4731,112.1431 Q227.8921,112.4419 227.2529,112.5913 Q226.6138,112.7407 225.9082,112.7407 Q223.4014,112.7407 222.0815,111.0889 Q220.7617,109.437 220.7617,106.3159 Q220.7617,103.1865 222.0815,101.5347 Q223.4014,99.8828 225.9082,99.8828 Q226.6138,99.8828 227.2612,100.0322 Q227.9087,100.1816 228.4731,100.4805 L228.4731,103.2031 Q227.8423,102.6221 227.2488,102.3523 Q226.6553,102.0825 226.0244,102.0825 Q224.6797,102.0825 223.9949,103.1492 Q223.3101,104.2158 223.3101,106.3159 Q223.3101,108.4077 223.9949,109.4744 Q224.6797,110.541 226.0244,110.541 Q226.6553,110.541 227.2488,110.2712 Q227.8423,110.0015 228.4731,109.4204 Z " fill="#000000"/><text fill="#000000" font-family="sans-serif" font-size="14" font-weight="bold" lengthAdjust="spacing" textLength="138" x="240" y="111.291">GridMultiSelectCell</text><line style="stroke:#181818;stroke-width:0.5;" x1="212" x2="380" y1="122" y2="122"/><line style="stroke:#181818;stroke-width:0.5;" x1="212" x2="380" y1="130" y2="130"/></g><!--MD5=[6cb825483ff74590f7d9cb7c7f6c5ced]
class GridDateCell--><g id="elem_GridDateCell"><rect fill="#F1F1F1" height="48" id="GridDateCell" rx="2.5" ry="2.5" style="stroke:#181818;stroke-width:0.5;" width="123" x="234.5" y="173"/><ellipse cx="249.5" cy="189" fill="#ADD1B2" rx="11" ry="11" style="stroke:#181818;stroke-width:1.0;"/><path d="M251.9731,195.1431 Q251.3921,195.4419 250.7529,195.5913 Q250.1138,195.7407 249.4082,195.7407 Q246.9014,195.7407 245.5815,194.0889 Q244.2617,192.437 244.2617,189.3159 Q244.2617,186.1865 245.5815,184.5347 Q246.9014,182.8828 249.4082,182.8828 Q250.1138,182.8828 250.7612,183.0322 Q251.4087,183.1816 251.9731,183.4805 L251.9731,186.2031 Q251.3423,185.6221 250.7488,185.3523 Q250.1553,185.0825 249.5244,185.0825 Q248.1797,185.0825 247.4949,186.1492 Q246.8101,187.2158 246.8101,189.3159 Q246.8101,191.4077 247.4949,192.4744 Q248.1797,193.541 249.5244,193.541 Q250.1553,193.541 250.7488,193.2712 Q251.3423,193.0015 251.9731,192.4204 Z " fill="#000000"/><text fill="#000000" font-family="sans-serif" font-size="14" font-weight="bold" lengthAdjust="spacing" textLength="91" x="263.5" y="194.291">GridDateCell</text><line style="stroke:#181818;stroke-width:0.5;" x1="235.5" x2="356.5" y1="205" y2="205"/><line style="stroke:#181818;stroke-width:0.5;" x1="235.5" x2="356.5" y1="213" y2="213"/></g><!--MD5=[1c89fbbb509dd1867fdc364e44742f72]
class GridURLCell--><g id="elem_GridURLCell"><rect fill="#F1F1F1" height="48" id="GridURLCell" rx="2.5" ry="2.5" style="stroke:#181818;stroke-width:0.5;" width="118" x="237" y="256"/><ellipse cx="252" cy="272" fill="#ADD1B2" rx="11" ry="11" style="stroke:#181818;stroke-width:1.0;"/><path d="M254.4731,278.1431 Q253.8921,278.4419 253.2529,278.5913 Q252.6138,278.7407 251.9082,278.7407 Q249.4014,278.7407 248.0815,277.0889 Q246.7617,275.437 246.7617,272.3159 Q246.7617,269.1865 248.0815,267.5347 Q249.4014,265.8828 251.9082,265.8828 Q252.6138,265.8828 253.2612,266.0322 Q253.9087,266.1816 254.4731,266.4805 L254.4731,269.2031 Q253.8423,268.6221 253.2488,268.3523 Q252.6553,268.0825 252.0244,268.0825 Q250.6797,268.0825 249.9949,269.1492 Q249.3101,270.2158 249.3101,272.3159 Q249.3101,274.4077 249.9949,275.4744 Q250.6797,276.541 252.0244,276.541 Q252.6553,276.541 253.2488,276.2712 Q253.8423,276.0015 254.4731,275.4204 Z " fill="#000000"/><text fill="#000000" font-family="sans-serif" font-size="14" font-weight="bold" lengthAdjust="spacing" textLength="86" x="266" y="277.291">GridURLCell</text><line style="stroke:#181818;stroke-width:0.5;" x1="238" x2="354" y1="288" y2="288"/><line style="stroke:#181818;stroke-width:0.5;" x1="238" x2="354" y1="296" y2="296"/></g><!--MD5=[e631ee099a2c321bf5ce3841064d9236]
class GridCheckboxCell--><g id="elem_GridCheckboxCell"><rect fill="#F1F1F1" height="48" id="GridCheckboxCell" rx="2.5" ry="2.5" style="stroke:#181818;stroke-width:0.5;" width="159" x="216.5" y="339"/><ellipse cx="231.5" cy="355" fill="#ADD1B2" rx="11" ry="11" style="stroke:#181818;stroke-width:1.0;"/><path d="M233.9731,361.1431 Q233.3921,361.4419 232.7529,361.5913 Q232.1138,361.7407 231.4082,361.7407 Q228.9014,361.7407 227.5815,360.0889 Q226.2617,358.437 226.2617,355.3159 Q226.2617,352.1865 227.5815,350.5347 Q228.9014,348.8828 231.4082,348.8828 Q232.1138,348.8828 232.7612,349.0322 Q233.4087,349.1816 233.9731,349.4805 L233.9731,352.2031 Q233.3423,351.6221 232.7488,351.3523 Q232.1553,351.0825 231.5244,351.0825 Q230.1797,351.0825 229.4949,352.1492 Q228.8101,353.2158 228.8101,355.3159 Q228.8101,357.4077 229.4949,358.4744 Q230.1797,359.541 231.5244,359.541 Q232.1553,359.541 232.7488,359.2712 Q233.3423,359.0015 233.9731,358.4204 Z " fill="#000000"/><text fill="#000000" font-family="sans-serif" font-size="14" font-weight="bold" lengthAdjust="spacing" textLength="127" x="245.5" y="360.291">GridCheckboxCell</text><line style="stroke:#181818;stroke-width:0.5;" x1="217.5" x2="374.5" y1="371" y2="371"/><line style="stroke:#181818;stroke-width:0.5;" x1="217.5" x2="374.5" y1="379" y2="379"/></g><!--MD5=[9b69a4d744f4be502882e73e6cd7f6fa]
class GridNumberCell--><g id="elem_GridNumberCell"><rect fill="#F1F1F1" height="48" id="GridNumberCell" rx="2.5" ry="2.5" style="stroke:#181818;stroke-width:0.5;" width="147" x="222.5" y="422"/><ellipse cx="237.5" cy="438" fill="#ADD1B2" rx="11" ry="11" style="stroke:#181818;stroke-width:1.0;"/><path d="M239.9731,444.1431 Q239.3921,444.4419 238.7529,444.5913 Q238.1138,444.7407 237.4082,444.7407 Q234.9014,444.7407 233.5815,443.0889 Q232.2617,441.437 232.2617,438.3159 Q232.2617,435.1865 233.5815,433.5347 Q234.9014,431.8828 237.4082,431.8828 Q238.1138,431.8828 238.7612,432.0322 Q239.4087,432.1816 239.9731,432.4805 L239.9731,435.2031 Q239.3423,434.6221 238.7488,434.3523 Q238.1553,434.0825 237.5244,434.0825 Q236.1797,434.0825 235.4949,435.1492 Q234.8101,436.2158 234.8101,438.3159 Q234.8101,440.4077 235.4949,441.4744 Q236.1797,442.541 237.5244,442.541 Q238.1553,442.541 238.7488,442.2712 Q239.3423,442.0015 239.9731,441.4204 Z " fill="#000000"/><text fill="#000000" font-family="sans-serif" font-size="14" font-weight="bold" lengthAdjust="spacing" textLength="115" x="251.5" y="443.291">GridNumberCell</text><line style="stroke:#181818;stroke-width:0.5;" x1="223.5" x2="368.5" y1="454" y2="454"/><line style="stroke:#181818;stroke-width:0.5;" x1="223.5" x2="368.5" y1="462" y2="462"/></g><!--MD5=[e6189f34023e1a2b4fe1c6df4bfb8a1b]
class GridTextCell--><g id="elem_GridTextCell"><rect fill="#F1F1F1" height="48" id="GridTextCell" rx="2.5" ry="2.5" style="stroke:#181818;stroke-width:0.5;" width="122" x="235" y="505"/><ellipse cx="250" cy="521" fill="#ADD1B2" rx="11" ry="11" style="stroke:#181818;stroke-width:1.0;"/><path d="M252.4731,527.1431 Q251.8921,527.4419 251.2529,527.5913 Q250.6138,527.7407 249.9082,527.7407 Q247.4014,527.7407 246.0815,526.0889 Q244.7617,524.437 244.7617,521.3159 Q244.7617,518.1865 246.0815,516.5347 Q247.4014,514.8828 249.9082,514.8828 Q250.6138,514.8828 251.2612,515.0322 Q251.9087,515.1816 252.4731,515.4805 L252.4731,518.2031 Q251.8423,517.6221 251.2488,517.3523 Q250.6553,517.0825 250.0244,517.0825 Q248.6797,517.0825 247.9949,518.1492 Q247.3101,519.2158 247.3101,521.3159 Q247.3101,523.4077 247.9949,524.4744 Q248.6797,525.541 250.0244,525.541 Q250.6553,525.541 251.2488,525.2712 Q251.8423,525.0015 252.4731,524.4204 Z " fill="#000000"/><text fill="#000000" font-family="sans-serif" font-size="14" font-weight="bold" lengthAdjust="spacing" textLength="90" x="264" y="526.291">GridTextCell</text><line style="stroke:#181818;stroke-width:0.5;" x1="236" x2="356" y1="537" y2="537"/><line style="stroke:#181818;stroke-width:0.5;" x1="236" x2="356" y1="545" y2="545"/></g><!--MD5=[fa06bfa023f464a92df508447abf9537]
link GridCellBuilder to GridSingleSelectCell--><g id="link_GridCellBuilder_GridSingleSelectCell"><path codeLine="6" d="M88.13,255.7 C105.98,213.35 147.94,125.44 208,72 C213.99,66.67 220.8,61.89 227.9,57.66 " fill="none" id="GridCellBuilder-to-GridSingleSelectCell" style="stroke:#181818;stroke-width:1.0;"/><polygon fill="#181818" points="232.36,55.09,222.5659,56.1274,228.0303,57.5907,226.567,63.055,232.36,55.09" style="stroke:#181818;stroke-width:1.0;"/></g><!--MD5=[e87a40be6c76df80bbc3e5107d4c93d5]
link GridCellBuilder to GridMultiSelectCell--><g id="link_GridCellBuilder_GridMultiSelectCell"><path codeLine="7" d="M99,255.93 C123.03,228.8 165.05,184.64 208,155 C215.54,149.8 223.84,144.94 232.23,140.53 " fill="none" id="GridCellBuilder-to-GridMultiSelectCell" style="stroke:#181818;stroke-width:1.0;"/><polygon fill="#181818" points="236.9,138.12,227.0671,138.6804,232.4539,140.4074,230.7269,145.7942,236.9,138.12" style="stroke:#181818;stroke-width:1.0;"/></g><!--MD5=[7f168f3b7808fdd761bd4c7bcbf30f86]
link GridCellBuilder to GridDateCell--><g id="link_GridCellBuilder_GridDateCell"><path codeLine="8" d="M141.12,255.99 C168.86,245.36 201.5,232.85 229.56,222.09 " fill="none" id="GridCellBuilder-to-GridDateCell" style="stroke:#181818;stroke-width:1.0;"/><polygon fill="#181818" points="234.38,220.24,224.545,219.7173,229.7096,222.0253,227.4015,227.1899,234.38,220.24" style="stroke:#181818;stroke-width:1.0;"/></g><!--MD5=[836f4a15886b33e17ea713301ea65842]
link GridCellBuilder to GridURLCell--><g id="link_GridCellBuilder_GridURLCell"><path codeLine="9" d="M148.19,280 C174.96,280 205.35,280 231.51,280 " fill="none" id="GridCellBuilder-to-GridURLCell" style="stroke:#181818;stroke-width:1.0;"/><polygon fill="#181818" points="236.68,280,227.68,276,231.68,280,227.68,284,236.68,280" style="stroke:#181818;stroke-width:1.0;"/></g><!--MD5=[31151fbdd21ab652673d80dd80345d05]
link GridCellBuilder to GridCheckboxCell--><g id="link_GridCellBuilder_GridCheckboxCell"><path codeLine="10" d="M141.12,304.01 C168.16,314.37 199.84,326.52 227.4,337.09 " fill="none" id="GridCellBuilder-to-GridCheckboxCell" style="stroke:#181818;stroke-width:1.0;"/><polygon fill="#181818" points="232.15,338.9,225.1715,331.9501,227.4796,337.1147,222.315,339.4227,232.15,338.9" style="stroke:#181818;stroke-width:1.0;"/></g><!--MD5=[ff137d32d5802024a67fdaa4acec92dd]
link GridCellBuilder to GridNumberCell--><g id="link_GridCellBuilder_GridNumberCell"><path codeLine="11" d="M99.52,304.28 C123.7,331.15 165.55,374.54 208,404 C215.91,409.49 224.64,414.62 233.43,419.29 " fill="none" id="GridCellBuilder-to-GridNumberCell" style="stroke:#181818;stroke-width:1.0;"/><polygon fill="#181818" points="238.31,421.84,232.1861,414.1265,233.8786,419.5242,228.4809,421.2167,238.31,421.84" style="stroke:#181818;stroke-width:1.0;"/></g><!--MD5=[988e53dce061b3f65044b5501885ad28]
link GridCellBuilder to GridTextCell--><g id="link_GridCellBuilder_GridTextCell"><path codeLine="12" d="M88.21,304.13 C106.19,346.18 148.34,433.53 208,487 C214.64,492.95 222.27,498.24 230.2,502.89 " fill="none" id="GridCellBuilder-to-GridTextCell" style="stroke:#181818;stroke-width:1.0;"/><polygon fill="#181818" points="234.63,505.4,228.7751,497.4804,230.2809,502.9331,224.8281,504.4389,234.63,505.4" style="stroke:#181818;stroke-width:1.0;"/></g><!--MD5=[f70a3ee9c286321397c766ca72b09a2d]
@startuml Grid Cell Builder
skinparam classFontStyle Bold
skinparam ActivityBackgroundColor Silver
skinparam ActivityBorderColor DimGray
left to right direction

GridCellBuilder - -> GridSingleSelectCell
GridCellBuilder - -> GridMultiSelectCell
GridCellBuilder - -> GridDateCell
GridCellBuilder - -> GridURLCell
GridCellBuilder - -> GridCheckboxCell
GridCellBuilder - -> GridNumberCell
GridCellBuilder - -> GridTextCell

@enduml

PlantUML version 1.2022.5(Sat Apr 30 18:55:52 CST 2022)
(GPL source distribution)
Java Runtime: OpenJDK Runtime Environment
JVM: OpenJDK 64-Bit Server VM
Default Encoding: UTF-8
Language: en
Country: US
--></g></svg>