<?xml version="1.0" encoding="UTF-8" standalone="no"?><svg xmlns="http://www.w3.org/2000/svg" xmlns:xlink="http://www.w3.org/1999/xlink" contentStyleType="text/css" height="343px" preserveAspectRatio="none" style="width:817px;height:343px;background:#FFFFFF;" version="1.1" viewBox="0 0 817 343" width="817px" zoomAndPan="magnify"><defs/><g><!--MD5=[5b94ec8925bfa2f4b2693e268f6c1bc2]
class GridRowWidget--><g id="elem_GridRowWidget"><rect fill="#F1F1F1" height="48" id="GridRowWidget" rx="2.5" ry="2.5" style="stroke:#181818;stroke-width:0.5;" width="143" x="7" y="117"/><ellipse cx="22" cy="133" fill="#ADD1B2" rx="11" ry="11" style="stroke:#181818;stroke-width:1.0;"/><path d="M24.9731,138.6431 Q24.3921,138.9419 23.7529,139.0913 Q23.1138,139.2407 22.4082,139.2407 Q19.9014,139.2407 18.5815,137.5889 Q17.2617,135.937 17.2617,132.8159 Q17.2617,129.6865 18.5815,128.0347 Q19.9014,126.3828 22.4082,126.3828 Q23.1138,126.3828 23.7612,126.5322 Q24.4087,126.6816 24.9731,126.9805 L24.9731,129.7031 Q24.3423,129.1221 23.7488,128.8523 Q23.1553,128.5825 22.5244,128.5825 Q21.1797,128.5825 20.4949,129.6492 Q19.8101,130.7158 19.8101,132.8159 Q19.8101,134.9077 20.4949,135.9744 Q21.1797,137.041 22.5244,137.041 Q23.1553,137.041 23.7488,136.7712 Q24.3423,136.5015 24.9731,135.9204 Z " fill="#000000"/><text fill="#000000" font-family="sans-serif" font-size="14" font-weight="bold" lengthAdjust="spacing" textLength="111" x="36" y="138.291">GridRowWidget</text><line style="stroke:#181818;stroke-width:0.5;" x1="8" x2="149" y1="149" y2="149"/><line style="stroke:#181818;stroke-width:0.5;" x1="8" x2="149" y1="157" y2="157"/></g><!--MD5=[e6c0560f0f9aedb6193c4a028902be99]
class RowInfo--><g id="elem_RowInfo"><rect fill="#F1F1F1" height="48" id="RowInfo" rx="2.5" ry="2.5" style="stroke:#181818;stroke-width:0.5;" width="92" x="679" y="7"/><ellipse cx="694" cy="23" fill="#ADD1B2" rx="11" ry="11" style="stroke:#181818;stroke-width:1.0;"/><path d="M696.9731,28.6431 Q696.3921,28.9419 695.7529,29.0913 Q695.1138,29.2407 694.4082,29.2407 Q691.9014,29.2407 690.5815,27.5889 Q689.2617,25.937 689.2617,22.8159 Q689.2617,19.6865 690.5815,18.0347 Q691.9014,16.3828 694.4082,16.3828 Q695.1138,16.3828 695.7612,16.5322 Q696.4087,16.6816 696.9731,16.9805 L696.9731,19.7031 Q696.3423,19.1221 695.7488,18.8523 Q695.1553,18.5825 694.5244,18.5825 Q693.1797,18.5825 692.4949,19.6492 Q691.8101,20.7158 691.8101,22.8159 Q691.8101,24.9077 692.4949,25.9744 Q693.1797,27.041 694.5244,27.041 Q695.1553,27.041 695.7488,26.7712 Q696.3423,26.5015 696.9731,25.9204 Z " fill="#000000"/><text fill="#000000" font-family="sans-serif" font-size="14" font-weight="bold" lengthAdjust="spacing" textLength="60" x="708" y="28.291">RowInfo</text><line style="stroke:#181818;stroke-width:0.5;" x1="680" x2="770" y1="39" y2="39"/><line style="stroke:#181818;stroke-width:0.5;" x1="680" x2="770" y1="47" y2="47"/></g><!--MD5=[58c5a98c6b9119c39648903fa5aa350b]
class RowDataController--><g id="elem_RowDataController"><rect fill="#F1F1F1" height="48" id="RowDataController" rx="2.5" ry="2.5" style="stroke:#181818;stroke-width:0.5;" width="169" x="411" y="90"/><ellipse cx="426" cy="106" fill="#ADD1B2" rx="11" ry="11" style="stroke:#181818;stroke-width:1.0;"/><path d="M428.9731,111.6431 Q428.3921,111.9419 427.7529,112.0913 Q427.1138,112.2407 426.4082,112.2407 Q423.9014,112.2407 422.5815,110.5889 Q421.2617,108.937 421.2617,105.8159 Q421.2617,102.6865 422.5815,101.0347 Q423.9014,99.3828 426.4082,99.3828 Q427.1138,99.3828 427.7612,99.5322 Q428.4087,99.6816 428.9731,99.9805 L428.9731,102.7031 Q428.3423,102.1221 427.7488,101.8523 Q427.1553,101.5825 426.5244,101.5825 Q425.1797,101.5825 424.4949,102.6492 Q423.8101,103.7158 423.8101,105.8159 Q423.8101,107.9077 424.4949,108.9744 Q425.1797,110.041 426.5244,110.041 Q427.1553,110.041 427.7488,109.7712 Q428.3423,109.5015 428.9731,108.9204 Z " fill="#000000"/><text fill="#000000" font-family="sans-serif" font-size="14" font-weight="bold" lengthAdjust="spacing" textLength="137" x="440" y="111.291">RowDataController</text><line style="stroke:#181818;stroke-width:0.5;" x1="412" x2="579" y1="122" y2="122"/><line style="stroke:#181818;stroke-width:0.5;" x1="412" x2="579" y1="130" y2="130"/></g><!--MD5=[79b03f48159234f16d17aaca0290e5ca]
class GridCellBuilder--><g id="elem_GridCellBuilder"><rect fill="#F1F1F1" height="48" id="GridCellBuilder" rx="2.5" ry="2.5" style="stroke:#181818;stroke-width:0.5;" width="141" x="210" y="155"/><ellipse cx="225" cy="171" fill="#ADD1B2" rx="11" ry="11" style="stroke:#181818;stroke-width:1.0;"/><path d="M227.9731,176.6431 Q227.3921,176.9419 226.7529,177.0913 Q226.1138,177.2407 225.4082,177.2407 Q222.9014,177.2407 221.5815,175.5889 Q220.2617,173.937 220.2617,170.8159 Q220.2617,167.6865 221.5815,166.0347 Q222.9014,164.3828 225.4082,164.3828 Q226.1138,164.3828 226.7612,164.5322 Q227.4087,164.6816 227.9731,164.9805 L227.9731,167.7031 Q227.3423,167.1221 226.7488,166.8523 Q226.1553,166.5825 225.5244,166.5825 Q224.1797,166.5825 223.4949,167.6492 Q222.8101,168.7158 222.8101,170.8159 Q222.8101,172.9077 223.4949,173.9744 Q224.1797,175.041 225.5244,175.041 Q226.1553,175.041 226.7488,174.7712 Q227.3423,174.5015 227.9731,173.9204 Z " fill="#000000"/><text fill="#000000" font-family="sans-serif" font-size="14" font-weight="bold" lengthAdjust="spacing" textLength="109" x="239" y="176.291">GridCellBuilder</text><line style="stroke:#181818;stroke-width:0.5;" x1="211" x2="350" y1="187" y2="187"/><line style="stroke:#181818;stroke-width:0.5;" x1="211" x2="350" y1="195" y2="195"/></g><!--MD5=[e9a331232edddcf3f9d7d0915d3ce29f]
class RowBloc--><g id="elem_RowBloc"><rect fill="#F1F1F1" height="48" id="RowBloc" rx="2.5" ry="2.5" style="stroke:#181818;stroke-width:0.5;" width="93" x="234" y="238"/><ellipse cx="249" cy="254" fill="#ADD1B2" rx="11" ry="11" style="stroke:#181818;stroke-width:1.0;"/><path d="M251.9731,259.6431 Q251.3921,259.9419 250.7529,260.0913 Q250.1138,260.2407 249.4082,260.2407 Q246.9014,260.2407 245.5815,258.5889 Q244.2617,256.937 244.2617,253.8159 Q244.2617,250.6865 245.5815,249.0347 Q246.9014,247.3828 249.4082,247.3828 Q250.1138,247.3828 250.7612,247.5322 Q251.4087,247.6816 251.9731,247.9805 L251.9731,250.7031 Q251.3423,250.1221 250.7488,249.8523 Q250.1553,249.5825 249.5244,249.5825 Q248.1797,249.5825 247.4949,250.6492 Q246.8101,251.7158 246.8101,253.8159 Q246.8101,255.9077 247.4949,256.9744 Q248.1797,258.041 249.5244,258.041 Q250.1553,258.041 250.7488,257.7712 Q251.3423,257.5015 251.9731,256.9204 Z " fill="#000000"/><text fill="#000000" font-family="sans-serif" font-size="14" font-weight="bold" lengthAdjust="spacing" textLength="61" x="263" y="259.291">RowBloc</text><line style="stroke:#181818;stroke-width:0.5;" x1="235" x2="326" y1="270" y2="270"/><line style="stroke:#181818;stroke-width:0.5;" x1="235" x2="326" y1="278" y2="278"/></g><!--MD5=[f5613a549a2487265f13de4624667021]
class RowService--><g id="elem_RowService"><rect fill="#F1F1F1" height="48" id="RowService" rx="2.5" ry="2.5" style="stroke:#181818;stroke-width:0.5;" width="113" x="439" y="205"/><ellipse cx="454" cy="221" fill="#ADD1B2" rx="11" ry="11" style="stroke:#181818;stroke-width:1.0;"/><path d="M456.9731,226.6431 Q456.3921,226.9419 455.7529,227.0913 Q455.1138,227.2407 454.4082,227.2407 Q451.9014,227.2407 450.5815,225.5889 Q449.2617,223.937 449.2617,220.8159 Q449.2617,217.6865 450.5815,216.0347 Q451.9014,214.3828 454.4082,214.3828 Q455.1138,214.3828 455.7612,214.5322 Q456.4087,214.6816 456.9731,214.9805 L456.9731,217.7031 Q456.3423,217.1221 455.7488,216.8523 Q455.1553,216.5825 454.5244,216.5825 Q453.1797,216.5825 452.4949,217.6492 Q451.8101,218.7158 451.8101,220.8159 Q451.8101,222.9077 452.4949,223.9744 Q453.1797,225.041 454.5244,225.041 Q455.1553,225.041 455.7488,224.7712 Q456.3423,224.5015 456.9731,223.9204 Z " fill="#000000"/><text fill="#000000" font-family="sans-serif" font-size="14" font-weight="bold" lengthAdjust="spacing" textLength="81" x="468" y="226.291">RowService</text><line style="stroke:#181818;stroke-width:0.5;" x1="440" x2="551" y1="237" y2="237"/><line style="stroke:#181818;stroke-width:0.5;" x1="440" x2="551" y1="245" y2="245"/></g><!--MD5=[8c13e372bdb0d0bf025a1423911c4b2b]
class RowFFIService--><g id="elem_RowFFIService"><rect fill="#F1F1F1" height="48" id="RowFFIService" rx="2.5" ry="2.5" style="stroke:#181818;stroke-width:0.5;" width="134" x="428.5" y="288"/><ellipse cx="443.5" cy="304" fill="#ADD1B2" rx="11" ry="11" style="stroke:#181818;stroke-width:1.0;"/><path d="M446.4731,309.6431 Q445.8921,309.9419 445.2529,310.0913 Q444.6138,310.2407 443.9082,310.2407 Q441.4014,310.2407 440.0815,308.5889 Q438.7617,306.937 438.7617,303.8159 Q438.7617,300.6865 440.0815,299.0347 Q441.4014,297.3828 443.9082,297.3828 Q444.6138,297.3828 445.2612,297.5322 Q445.9087,297.6816 446.4731,297.9805 L446.4731,300.7031 Q445.8423,300.1221 445.2488,299.8523 Q444.6553,299.5825 444.0244,299.5825 Q442.6797,299.5825 441.9949,300.6492 Q441.3101,301.7158 441.3101,303.8159 Q441.3101,305.9077 441.9949,306.9744 Q442.6797,308.041 444.0244,308.041 Q444.6553,308.041 445.2488,307.7712 Q445.8423,307.5015 446.4731,306.9204 Z " fill="#000000"/><text fill="#000000" font-family="sans-serif" font-size="14" font-weight="bold" lengthAdjust="spacing" textLength="102" x="457.5" y="309.291">RowFFIService</text><line style="stroke:#181818;stroke-width:0.5;" x1="429.5" x2="561.5" y1="320" y2="320"/><line style="stroke:#181818;stroke-width:0.5;" x1="429.5" x2="561.5" y1="328" y2="328"/></g><!--MD5=[4e4949d787cb942098b6e0d58dce1c8f]
class GridFieldController--><g id="elem_GridFieldController"><rect fill="#F1F1F1" height="48" id="GridFieldController" rx="2.5" ry="2.5" style="stroke:#181818;stroke-width:0.5;" width="170" x="640" y="90"/><ellipse cx="655" cy="106" fill="#ADD1B2" rx="11" ry="11" style="stroke:#181818;stroke-width:1.0;"/><path d="M657.9731,111.6431 Q657.3921,111.9419 656.7529,112.0913 Q656.1138,112.2407 655.4082,112.2407 Q652.9014,112.2407 651.5815,110.5889 Q650.2617,108.937 650.2617,105.8159 Q650.2617,102.6865 651.5815,101.0347 Q652.9014,99.3828 655.4082,99.3828 Q656.1138,99.3828 656.7612,99.5322 Q657.4087,99.6816 657.9731,99.9805 L657.9731,102.7031 Q657.3423,102.1221 656.7488,101.8523 Q656.1553,101.5825 655.5244,101.5825 Q654.1797,101.5825 653.4949,102.6492 Q652.8101,103.7158 652.8101,105.8159 Q652.8101,107.9077 653.4949,108.9744 Q654.1797,110.041 655.5244,110.041 Q656.1553,110.041 656.7488,109.7712 Q657.3423,109.5015 657.9731,108.9204 Z " fill="#000000"/><text fill="#000000" font-family="sans-serif" font-size="14" font-weight="bold" lengthAdjust="spacing" textLength="138" x="669" y="111.291">GridFieldController</text><line style="stroke:#181818;stroke-width:0.5;" x1="641" x2="809" y1="122" y2="122"/><line style="stroke:#181818;stroke-width:0.5;" x1="641" x2="809" y1="130" y2="130"/></g><!--MD5=[c6748457c4a15219a60a81b35778ca8c]
class GridRowCache--><g id="elem_GridRowCache"><rect fill="#F1F1F1" height="48" id="GridRowCache" rx="2.5" ry="2.5" style="stroke:#181818;stroke-width:0.5;" width="135" x="657.5" y="173"/><ellipse cx="672.5" cy="189" fill="#ADD1B2" rx="11" ry="11" style="stroke:#181818;stroke-width:1.0;"/><path d="M675.4731,194.6431 Q674.8921,194.9419 674.2529,195.0913 Q673.6138,195.2407 672.9082,195.2407 Q670.4014,195.2407 669.0815,193.5889 Q667.7617,191.937 667.7617,188.8159 Q667.7617,185.6865 669.0815,184.0347 Q670.4014,182.3828 672.9082,182.3828 Q673.6138,182.3828 674.2612,182.5322 Q674.9087,182.6816 675.4731,182.9805 L675.4731,185.7031 Q674.8423,185.1221 674.2488,184.8523 Q673.6553,184.5825 673.0244,184.5825 Q671.6797,184.5825 670.9949,185.6492 Q670.3101,186.7158 670.3101,188.8159 Q670.3101,190.9077 670.9949,191.9744 Q671.6797,193.041 673.0244,193.041 Q673.6553,193.041 674.2488,192.7712 Q674.8423,192.5015 675.4731,191.9204 Z " fill="#000000"/><text fill="#000000" font-family="sans-serif" font-size="14" font-weight="bold" lengthAdjust="spacing" textLength="103" x="686.5" y="194.291">GridRowCache</text><line style="stroke:#181818;stroke-width:0.5;" x1="658.5" x2="791.5" y1="205" y2="205"/><line style="stroke:#181818;stroke-width:0.5;" x1="658.5" x2="791.5" y1="213" y2="213"/></g><!--MD5=[77f027dc4d324db8f780a3c3c69e50f7]
link GridRowWidget to RowInfo--><g id="link_GridRowWidget_RowInfo"><path codeLine="6" d="M150.13,117.9 C169.4,112.14 190.38,106.37 210,102 C377.84,64.59 581.17,43.5 673.74,35.18 " fill="none" id="GridRowWidget-to-RowInfo" style="stroke:#181818;stroke-width:1.0;"/><polygon fill="#181818" points="678.87,34.73,669.5506,31.5443,673.8897,35.1736,670.2604,39.5128,678.87,34.73" style="stroke:#181818;stroke-width:1.0;"/></g><!--MD5=[f8bcbae3dc036c6362398a5d9bc15cbc]
link GridRowWidget to RowDataController--><g id="link_GridRowWidget_RowDataController"><path codeLine="7" d="M150.37,136.39 C220.79,131.81 329.01,124.77 405.26,119.81 " fill="none" id="GridRowWidget-to-RowDataController" style="stroke:#181818;stroke-width:1.0;"/><polygon fill="#181818" points="410.69,119.45,401.4562,116.0241,405.6999,119.7646,401.9595,124.0083,410.69,119.45" style="stroke:#181818;stroke-width:1.0;"/></g><!--MD5=[96dc08691d67541d8ac5f8d219b3833c]
link GridRowWidget to GridCellBuilder--><g id="link_GridRowWidget_GridCellBuilder"><path codeLine="8" d="M150.01,154.4 C167.8,157.78 186.95,161.41 204.92,164.83 " fill="none" id="GridRowWidget-to-GridCellBuilder" style="stroke:#181818;stroke-width:1.0;"/><polygon fill="#181818" points="209.96,165.79,201.8749,160.1658,205.0496,164.8479,200.3675,168.0225,209.96,165.79" style="stroke:#181818;stroke-width:1.0;"/></g><!--MD5=[f5815549071b8b303ac8e9bf18f6cb29]
link GridRowWidget to RowBloc--><g id="link_GridRowWidget_RowBloc"><path codeLine="9" d="M119.19,165.04 C145.05,180.69 179.52,201.56 210,220 C218.04,224.86 226.61,230.04 234.88,235.04 " fill="none" id="GridRowWidget-to-RowBloc" style="stroke:#181818;stroke-width:1.0;"/><polygon fill="#181818" points="239.44,237.8,233.8003,229.7257,235.1588,235.217,229.6675,236.5756,239.44,237.8" style="stroke:#181818;stroke-width:1.0;"/></g><!--MD5=[e3ce3a0eaceae0d3a253126d5d3b781f]
link RowBloc to RowService--><g id="link_RowBloc_RowService"><path codeLine="11" d="M327.19,254.92 C358.3,250.1 399.82,243.67 433.71,238.42 " fill="none" id="RowBloc-to-RowService" style="stroke:#181818;stroke-width:1.0;"/><polygon fill="#181818" points="438.66,237.65,429.1581,235.0588,433.7176,238.4071,430.3694,242.9666,438.66,237.65" style="stroke:#181818;stroke-width:1.0;"/></g><!--MD5=[78025521f05cebbd5803d3930ff9da2c]
link RowBloc to RowFFIService--><g id="link_RowBloc_RowFFIService"><path codeLine="14" d="M327.19,272.73 C355.16,279.29 391.53,287.83 423.22,295.27 " fill="none" id="RowBloc-to-RowFFIService" style="stroke:#181818;stroke-width:1.0;"/><polygon fill="#181818" points="428.26,296.45,420.4115,290.5001,423.3922,295.308,418.5843,298.2886,428.26,296.45" style="stroke:#181818;stroke-width:1.0;"/></g><!--MD5=[83a926751151c30c09c9c4bdf6da3aad]
link RowBloc to RowDataController--><g id="link_RowBloc_RowDataController"><path codeLine="15" d="M322.69,237.97 C332.1,232.24 341.98,226.04 351,220 C389.02,194.55 430.95,163.17 459.61,141.18 " fill="none" id="RowBloc-to-RowDataController" style="stroke:#181818;stroke-width:1.0;"/><polygon fill="#181818" points="463.74,138.01,454.1724,140.3469,459.7833,141.0668,459.0633,146.6777,463.74,138.01" style="stroke:#181818;stroke-width:1.0;"/></g><!--MD5=[ce8a82ddfe264ad94650246b69d3d5b7]
link RowDataController to RowInfo--><g id="link_RowDataController_RowInfo"><path codeLine="18" d="M562.3,89.99 C597.95,76.99 641.29,61.18 674.12,49.2 " fill="none" id="RowDataController-to-RowInfo" style="stroke:#181818;stroke-width:1.0;"/><polygon fill="#181818" points="678.89,47.46,669.0642,46.7861,674.1927,49.1733,671.8055,54.3018,678.89,47.46" style="stroke:#181818;stroke-width:1.0;"/></g><!--MD5=[1db04ec04a94ab100d27b68279221e76]
link RowDataController to GridFieldController--><g id="link_RowDataController_GridFieldController"><path codeLine="19" d="M580.24,114 C597.96,114 616.73,114 634.64,114 " fill="none" id="RowDataController-to-GridFieldController" style="stroke:#181818;stroke-width:1.0;"/><polygon fill="#181818" points="639.67,114,630.67,110,634.67,114,630.67,118,639.67,114" style="stroke:#181818;stroke-width:1.0;"/></g><!--MD5=[7ffeb7dd61e667e5e714535fa5be0a20]
link RowDataController to GridRowCache--><g id="link_RowDataController_GridRowCache"><path codeLine="20" d="M562.3,138.01 C590.71,148.37 624,160.52 652.97,171.09 " fill="none" id="RowDataController-to-GridRowCache" style="stroke:#181818;stroke-width:1.0;"/><polygon fill="#181818" points="657.95,172.9,650.8722,166.0513,653.2544,171.1821,648.1236,173.5643,657.95,172.9" style="stroke:#181818;stroke-width:1.0;"/></g><!--MD5=[f0ee12229f319bac1d084560f64f0050]
@startuml
skinparam classFontStyle Bold
skinparam ActivityBackgroundColor Silver
skinparam ActivityBorderColor DimGray
left to right direction

GridRowWidget - -> RowInfo
GridRowWidget - -> RowDataController
GridRowWidget - -> GridCellBuilder
GridRowWidget - -> RowBloc

RowBloc - -> RowService

'RowBloc
RowBloc - -> RowFFIService
RowBloc - -> RowDataController

'cache
RowDataController - -> RowInfo
RowDataController - -> GridFieldController
RowDataController - -> GridRowCache

@enduml

@startuml
skinparam classFontStyle Bold
skinparam ActivityBackgroundColor Silver
skinparam ActivityBorderColor DimGray
left to right direction

GridRowWidget - -> RowInfo
GridRowWidget - -> RowDataController
GridRowWidget - -> GridCellBuilder
GridRowWidget - -> RowBloc

RowBloc - -> RowService

RowBloc - -> RowFFIService
RowBloc - -> RowDataController

RowDataController - -> RowInfo
RowDataController - -> GridFieldController
RowDataController - -> GridRowCache

@enduml

PlantUML version 1.2022.7(Tue Aug 23 01:01:30 CST 2022)
(GPL source distribution)
Java Runtime: OpenJDK Runtime Environment
JVM: OpenJDK 64-Bit Server VM
Default Encoding: UTF-8
Language: en
Country: US
--></g></svg>