<?xml version="1.0" encoding="UTF-8" standalone="no"?><svg xmlns="http://www.w3.org/2000/svg" xmlns:xlink="http://www.w3.org/1999/xlink" contentStyleType="text/css" height="560px" preserveAspectRatio="none" style="width:591px;height:560px;background:#FFFFFF;" version="1.1" viewBox="0 0 591 560" width="591px" zoomAndPan="magnify"><defs/><g><!--MD5=[452fe8c2451e49a9a15fe43259853492]
class GridCellWidget--><g id="elem_GridCellWidget"><rect codeLine="6" fill="#F1F1F1" height="48" id="GridCellWidget" rx="2.5" ry="2.5" style="stroke:#181818;stroke-width:0.5;" width="140" x="208" y="256"/><ellipse cx="223" cy="272" fill="#B4A7E5" rx="11" ry="11" style="stroke:#181818;stroke-width:1.0;"/><path d="M219.4277,268.2651 L219.4277,266.1069 L226.8071,266.1069 L226.8071,268.2651 L224.3418,268.2651 L224.3418,276.3418 L226.8071,276.3418 L226.8071,278.5 L219.4277,278.5 L219.4277,276.3418 L221.8931,276.3418 L221.8931,268.2651 Z " fill="#000000"/><text fill="#000000" font-family="sans-serif" font-size="14" font-style="italic" font-weight="bold" lengthAdjust="spacing" textLength="108" x="237" y="277.291">GridCellWidget</text><line style="stroke:#181818;stroke-width:0.5;" x1="209" x2="347" y1="288" y2="288"/><line style="stroke:#181818;stroke-width:0.5;" x1="209" x2="347" y1="296" y2="296"/></g><!--MD5=[79b03f48159234f16d17aaca0290e5ca]
class GridCellBuilder--><g id="elem_GridCellBuilder"><rect fill="#F1F1F1" height="48" id="GridCellBuilder" rx="2.5" ry="2.5" style="stroke:#181818;stroke-width:0.5;" width="141" x="7" y="256"/><ellipse cx="22" cy="272" fill="#ADD1B2" rx="11" ry="11" style="stroke:#181818;stroke-width:1.0;"/><path d="M24.4731,278.1431 Q23.8921,278.4419 23.2529,278.5913 Q22.6138,278.7407 21.9082,278.7407 Q19.4014,278.7407 18.0815,277.0889 Q16.7617,275.437 16.7617,272.3159 Q16.7617,269.1865 18.0815,267.5347 Q19.4014,265.8828 21.9082,265.8828 Q22.6138,265.8828 23.2612,266.0322 Q23.9087,266.1816 24.4731,266.4805 L24.4731,269.2031 Q23.8423,268.6221 23.2488,268.3523 Q22.6553,268.0825 22.0244,268.0825 Q20.6797,268.0825 19.9949,269.1492 Q19.3101,270.2158 19.3101,272.3159 Q19.3101,274.4077 19.9949,275.4744 Q20.6797,276.541 22.0244,276.541 Q22.6553,276.541 23.2488,276.2712 Q23.8423,276.0015 24.4731,275.4204 Z " fill="#000000"/><text fill="#000000" font-family="sans-serif" font-size="14" font-weight="bold" lengthAdjust="spacing" textLength="109" x="36" y="277.291">GridCellBuilder</text><line style="stroke:#181818;stroke-width:0.5;" x1="8" x2="147" y1="288" y2="288"/><line style="stroke:#181818;stroke-width:0.5;" x1="8" x2="147" y1="296" y2="296"/></g><!--MD5=[5d641b6100d9a5b130aab51ebd1972ca]
class GridSingleSelectCell--><g id="elem_GridSingleSelectCell"><rect fill="#F1F1F1" height="48" id="GridSingleSelectCell" rx="2.5" ry="2.5" style="stroke:#181818;stroke-width:0.5;" width="176" x="408" y="7"/><ellipse cx="423" cy="23" fill="#ADD1B2" rx="11" ry="11" style="stroke:#181818;stroke-width:1.0;"/><path d="M425.4731,29.1431 Q424.8921,29.4419 424.2529,29.5913 Q423.6138,29.7407 422.9082,29.7407 Q420.4014,29.7407 419.0815,28.0889 Q417.7617,26.437 417.7617,23.3159 Q417.7617,20.1865 419.0815,18.5347 Q420.4014,16.8828 422.9082,16.8828 Q423.6138,16.8828 424.2612,17.0322 Q424.9087,17.1816 425.4731,17.4805 L425.4731,20.2031 Q424.8423,19.6221 424.2488,19.3523 Q423.6553,19.0825 423.0244,19.0825 Q421.6797,19.0825 420.9949,20.1492 Q420.3101,21.2158 420.3101,23.3159 Q420.3101,25.4077 420.9949,26.4744 Q421.6797,27.541 423.0244,27.541 Q423.6553,27.541 424.2488,27.2712 Q424.8423,27.0015 425.4731,26.4204 Z " fill="#000000"/><text fill="#000000" font-family="sans-serif" font-size="14" font-weight="bold" lengthAdjust="spacing" textLength="144" x="437" y="28.291">GridSingleSelectCell</text><line style="stroke:#181818;stroke-width:0.5;" x1="409" x2="583" y1="39" y2="39"/><line style="stroke:#181818;stroke-width:0.5;" x1="409" x2="583" y1="47" y2="47"/></g><!--MD5=[760c62e5fd4dc9038baa6c5bfda1c5f1]
class GridMultiSelectCell--><g id="elem_GridMultiSelectCell"><rect fill="#F1F1F1" height="48" id="GridMultiSelectCell" rx="2.5" ry="2.5" style="stroke:#181818;stroke-width:0.5;" width="170" x="411" y="90"/><ellipse cx="426" cy="106" fill="#ADD1B2" rx="11" ry="11" style="stroke:#181818;stroke-width:1.0;"/><path d="M428.4731,112.1431 Q427.8921,112.4419 427.2529,112.5913 Q426.6138,112.7407 425.9082,112.7407 Q423.4014,112.7407 422.0815,111.0889 Q420.7617,109.437 420.7617,106.3159 Q420.7617,103.1865 422.0815,101.5347 Q423.4014,99.8828 425.9082,99.8828 Q426.6138,99.8828 427.2612,100.0322 Q427.9087,100.1816 428.4731,100.4805 L428.4731,103.2031 Q427.8423,102.6221 427.2488,102.3523 Q426.6553,102.0825 426.0244,102.0825 Q424.6797,102.0825 423.9949,103.1492 Q423.3101,104.2158 423.3101,106.3159 Q423.3101,108.4077 423.9949,109.4744 Q424.6797,110.541 426.0244,110.541 Q426.6553,110.541 427.2488,110.2712 Q427.8423,110.0015 428.4731,109.4204 Z " fill="#000000"/><text fill="#000000" font-family="sans-serif" font-size="14" font-weight="bold" lengthAdjust="spacing" textLength="138" x="440" y="111.291">GridMultiSelectCell</text><line style="stroke:#181818;stroke-width:0.5;" x1="412" x2="580" y1="122" y2="122"/><line style="stroke:#181818;stroke-width:0.5;" x1="412" x2="580" y1="130" y2="130"/></g><!--MD5=[6cb825483ff74590f7d9cb7c7f6c5ced]
class GridDateCell--><g id="elem_GridDateCell"><rect fill="#F1F1F1" height="48" id="GridDateCell" rx="2.5" ry="2.5" style="stroke:#181818;stroke-width:0.5;" width="123" x="434.5" y="173"/><ellipse cx="449.5" cy="189" fill="#ADD1B2" rx="11" ry="11" style="stroke:#181818;stroke-width:1.0;"/><path d="M451.9731,195.1431 Q451.3921,195.4419 450.7529,195.5913 Q450.1138,195.7407 449.4082,195.7407 Q446.9014,195.7407 445.5815,194.0889 Q444.2617,192.437 444.2617,189.3159 Q444.2617,186.1865 445.5815,184.5347 Q446.9014,182.8828 449.4082,182.8828 Q450.1138,182.8828 450.7612,183.0322 Q451.4087,183.1816 451.9731,183.4805 L451.9731,186.2031 Q451.3423,185.6221 450.7488,185.3523 Q450.1553,185.0825 449.5244,185.0825 Q448.1797,185.0825 447.4949,186.1492 Q446.8101,187.2158 446.8101,189.3159 Q446.8101,191.4077 447.4949,192.4744 Q448.1797,193.541 449.5244,193.541 Q450.1553,193.541 450.7488,193.2712 Q451.3423,193.0015 451.9731,192.4204 Z " fill="#000000"/><text fill="#000000" font-family="sans-serif" font-size="14" font-weight="bold" lengthAdjust="spacing" textLength="91" x="463.5" y="194.291">GridDateCell</text><line style="stroke:#181818;stroke-width:0.5;" x1="435.5" x2="556.5" y1="205" y2="205"/><line style="stroke:#181818;stroke-width:0.5;" x1="435.5" x2="556.5" y1="213" y2="213"/></g><!--MD5=[1c89fbbb509dd1867fdc364e44742f72]
class GridURLCell--><g id="elem_GridURLCell"><rect fill="#F1F1F1" height="48" id="GridURLCell" rx="2.5" ry="2.5" style="stroke:#181818;stroke-width:0.5;" width="118" x="437" y="256"/><ellipse cx="452" cy="272" fill="#ADD1B2" rx="11" ry="11" style="stroke:#181818;stroke-width:1.0;"/><path d="M454.4731,278.1431 Q453.8921,278.4419 453.2529,278.5913 Q452.6138,278.7407 451.9082,278.7407 Q449.4014,278.7407 448.0815,277.0889 Q446.7617,275.437 446.7617,272.3159 Q446.7617,269.1865 448.0815,267.5347 Q449.4014,265.8828 451.9082,265.8828 Q452.6138,265.8828 453.2612,266.0322 Q453.9087,266.1816 454.4731,266.4805 L454.4731,269.2031 Q453.8423,268.6221 453.2488,268.3523 Q452.6553,268.0825 452.0244,268.0825 Q450.6797,268.0825 449.9949,269.1492 Q449.3101,270.2158 449.3101,272.3159 Q449.3101,274.4077 449.9949,275.4744 Q450.6797,276.541 452.0244,276.541 Q452.6553,276.541 453.2488,276.2712 Q453.8423,276.0015 454.4731,275.4204 Z " fill="#000000"/><text fill="#000000" font-family="sans-serif" font-size="14" font-weight="bold" lengthAdjust="spacing" textLength="86" x="466" y="277.291">GridURLCell</text><line style="stroke:#181818;stroke-width:0.5;" x1="438" x2="554" y1="288" y2="288"/><line style="stroke:#181818;stroke-width:0.5;" x1="438" x2="554" y1="296" y2="296"/></g><!--MD5=[e631ee099a2c321bf5ce3841064d9236]
class GridCheckboxCell--><g id="elem_GridCheckboxCell"><rect fill="#F1F1F1" height="48" id="GridCheckboxCell" rx="2.5" ry="2.5" style="stroke:#181818;stroke-width:0.5;" width="159" x="416.5" y="339"/><ellipse cx="431.5" cy="355" fill="#ADD1B2" rx="11" ry="11" style="stroke:#181818;stroke-width:1.0;"/><path d="M433.9731,361.1431 Q433.3921,361.4419 432.7529,361.5913 Q432.1138,361.7407 431.4082,361.7407 Q428.9014,361.7407 427.5815,360.0889 Q426.2617,358.437 426.2617,355.3159 Q426.2617,352.1865 427.5815,350.5347 Q428.9014,348.8828 431.4082,348.8828 Q432.1138,348.8828 432.7612,349.0322 Q433.4087,349.1816 433.9731,349.4805 L433.9731,352.2031 Q433.3423,351.6221 432.7488,351.3523 Q432.1553,351.0825 431.5244,351.0825 Q430.1797,351.0825 429.4949,352.1492 Q428.8101,353.2158 428.8101,355.3159 Q428.8101,357.4077 429.4949,358.4744 Q430.1797,359.541 431.5244,359.541 Q432.1553,359.541 432.7488,359.2712 Q433.3423,359.0015 433.9731,358.4204 Z " fill="#000000"/><text fill="#000000" font-family="sans-serif" font-size="14" font-weight="bold" lengthAdjust="spacing" textLength="127" x="445.5" y="360.291">GridCheckboxCell</text><line style="stroke:#181818;stroke-width:0.5;" x1="417.5" x2="574.5" y1="371" y2="371"/><line style="stroke:#181818;stroke-width:0.5;" x1="417.5" x2="574.5" y1="379" y2="379"/></g><!--MD5=[9b69a4d744f4be502882e73e6cd7f6fa]
class GridNumberCell--><g id="elem_GridNumberCell"><rect fill="#F1F1F1" height="48" id="GridNumberCell" rx="2.5" ry="2.5" style="stroke:#181818;stroke-width:0.5;" width="147" x="422.5" y="422"/><ellipse cx="437.5" cy="438" fill="#ADD1B2" rx="11" ry="11" style="stroke:#181818;stroke-width:1.0;"/><path d="M439.9731,444.1431 Q439.3921,444.4419 438.7529,444.5913 Q438.1138,444.7407 437.4082,444.7407 Q434.9014,444.7407 433.5815,443.0889 Q432.2617,441.437 432.2617,438.3159 Q432.2617,435.1865 433.5815,433.5347 Q434.9014,431.8828 437.4082,431.8828 Q438.1138,431.8828 438.7612,432.0322 Q439.4087,432.1816 439.9731,432.4805 L439.9731,435.2031 Q439.3423,434.6221 438.7488,434.3523 Q438.1553,434.0825 437.5244,434.0825 Q436.1797,434.0825 435.4949,435.1492 Q434.8101,436.2158 434.8101,438.3159 Q434.8101,440.4077 435.4949,441.4744 Q436.1797,442.541 437.5244,442.541 Q438.1553,442.541 438.7488,442.2712 Q439.3423,442.0015 439.9731,441.4204 Z " fill="#000000"/><text fill="#000000" font-family="sans-serif" font-size="14" font-weight="bold" lengthAdjust="spacing" textLength="115" x="451.5" y="443.291">GridNumberCell</text><line style="stroke:#181818;stroke-width:0.5;" x1="423.5" x2="568.5" y1="454" y2="454"/><line style="stroke:#181818;stroke-width:0.5;" x1="423.5" x2="568.5" y1="462" y2="462"/></g><!--MD5=[e6189f34023e1a2b4fe1c6df4bfb8a1b]
class GridTextCell--><g id="elem_GridTextCell"><rect fill="#F1F1F1" height="48" id="GridTextCell" rx="2.5" ry="2.5" style="stroke:#181818;stroke-width:0.5;" width="122" x="435" y="505"/><ellipse cx="450" cy="521" fill="#ADD1B2" rx="11" ry="11" style="stroke:#181818;stroke-width:1.0;"/><path d="M452.4731,527.1431 Q451.8921,527.4419 451.2529,527.5913 Q450.6138,527.7407 449.9082,527.7407 Q447.4014,527.7407 446.0815,526.0889 Q444.7617,524.437 444.7617,521.3159 Q444.7617,518.1865 446.0815,516.5347 Q447.4014,514.8828 449.9082,514.8828 Q450.6138,514.8828 451.2612,515.0322 Q451.9087,515.1816 452.4731,515.4805 L452.4731,518.2031 Q451.8423,517.6221 451.2488,517.3523 Q450.6553,517.0825 450.0244,517.0825 Q448.6797,517.0825 447.9949,518.1492 Q447.3101,519.2158 447.3101,521.3159 Q447.3101,523.4077 447.9949,524.4744 Q448.6797,525.541 450.0244,525.541 Q450.6553,525.541 451.2488,525.2712 Q451.8423,525.0015 452.4731,524.4204 Z " fill="#000000"/><text fill="#000000" font-family="sans-serif" font-size="14" font-weight="bold" lengthAdjust="spacing" textLength="90" x="464" y="526.291">GridTextCell</text><line style="stroke:#181818;stroke-width:0.5;" x1="436" x2="556" y1="537" y2="537"/><line style="stroke:#181818;stroke-width:0.5;" x1="436" x2="556" y1="545" y2="545"/></g><!--MD5=[d9021eaf5a75c8bb3af51c025e60e82c]
link GridCellBuilder to GridCellWidget--><g id="link_GridCellBuilder_GridCellWidget"><path codeLine="7" d="M148.2,280 C165.87,280 184.91,280 202.79,280 " fill="none" id="GridCellBuilder-to-GridCellWidget" style="stroke:#181818;stroke-width:1.0;"/><polygon fill="#181818" points="207.8,280,198.8,276,202.8,280,198.8,284,207.8,280" style="stroke:#181818;stroke-width:1.0;"/></g><!--MD5=[6ffa70f26a64add11a86a10b084eda93]
reverse link GridCellWidget to GridSingleSelectCell--><g id="link_GridCellWidget_GridSingleSelectCell"><path codeLine="9" d="M296.61,237.22 C317.37,191.25 355.78,118.55 408,72 C415.23,65.56 423.65,59.93 432.35,55.08 " fill="none" id="GridCellWidget-backto-GridSingleSelectCell" style="stroke:#181818;stroke-width:1.0;"/><polygon fill="none" points="302.97,240.15,288.56,255.7,290.13,234.57,302.97,240.15" style="stroke:#181818;stroke-width:1.0;"/></g><!--MD5=[24a57e96080377ba742e20037ba5e2f8]
reverse link GridCellWidget to GridMultiSelectCell--><g id="link_GridCellWidget_GridMultiSelectCell"><path codeLine="10" d="M312.89,240.96 C337.41,214.36 372.36,179.65 408,155 C416.93,148.83 426.93,143.15 436.89,138.1 " fill="none" id="GridCellWidget-backto-GridMultiSelectCell" style="stroke:#181818;stroke-width:1.0;"/><polygon fill="none" points="317.99,245.75,299.4,255.92,307.59,236.38,317.99,245.75" style="stroke:#181818;stroke-width:1.0;"/></g><!--MD5=[edcb9f0423053d4b9c0e6383c279b43c]
reverse link GridCellWidget to GridDateCell--><g id="link_GridCellWidget_GridDateCell"><path codeLine="11" d="M360.18,248.8 C384.71,239.38 411.2,229.2 434.15,220.38 " fill="none" id="GridCellWidget-backto-GridDateCell" style="stroke:#181818;stroke-width:1.0;"/><polygon fill="none" points="362.66,255.35,341.48,255.99,357.63,242.28,362.66,255.35" style="stroke:#181818;stroke-width:1.0;"/></g><!--MD5=[a509d659631a4dc319f39aa89fa45a73]
reverse link GridCellWidget to GridURLCell--><g id="link_GridCellWidget_GridURLCell"><path codeLine="12" d="M368.49,280 C391.51,280 415.68,280 436.66,280 " fill="none" id="GridCellWidget-backto-GridURLCell" style="stroke:#181818;stroke-width:1.0;"/><polygon fill="none" points="368.24,287,348.24,280,368.23,273,368.24,287" style="stroke:#181818;stroke-width:1.0;"/></g><!--MD5=[7ec44cbc3f7120d52a7b704532a1ad8f]
reverse link GridCellWidget to GridCheckboxCell--><g id="link_GridCellWidget_GridCheckboxCell"><path codeLine="13" d="M360.48,311.31 C384.26,320.45 409.87,330.29 432.29,338.9 " fill="none" id="GridCellWidget-backto-GridCheckboxCell" style="stroke:#181818;stroke-width:1.0;"/><polygon fill="none" points="357.63,317.72,341.48,304.01,362.66,304.65,357.63,317.72" style="stroke:#181818;stroke-width:1.0;"/></g><!--MD5=[8afe582b9bc7a39e99a9e171003c8571]
reverse link GridCellWidget to GridNumberCell--><g id="link_GridCellWidget_GridNumberCell"><path codeLine="14" d="M312.89,319.04 C337.41,345.64 372.36,380.35 408,405 C416.93,411.17 426.93,416.85 436.89,421.9 " fill="none" id="GridCellWidget-backto-GridNumberCell" style="stroke:#181818;stroke-width:1.0;"/><polygon fill="none" points="307.59,323.62,299.4,304.08,317.99,314.25,307.59,323.62" style="stroke:#181818;stroke-width:1.0;"/></g><!--MD5=[119f79e2ff144b36feaf6e26c51c2203]
reverse link GridCellWidget to GridTextCell--><g id="link_GridCellWidget_GridTextCell"><path codeLine="15" d="M296.61,322.78 C317.37,368.75 355.78,441.45 408,488 C415.85,495 425.11,501.04 434.6,506.16 " fill="none" id="GridCellWidget-backto-GridTextCell" style="stroke:#181818;stroke-width:1.0;"/><polygon fill="none" points="290.13,325.43,288.56,304.3,302.97,319.85,290.13,325.43" style="stroke:#181818;stroke-width:1.0;"/></g><!--MD5=[3c412317364c75a410f5fb57bdce9cfa]
@startuml Grid Cell Builder
skinparam classFontStyle Bold
skinparam ActivityBackgroundColor Silver
skinparam ActivityBorderColor DimGray
left to right direction

interface GridCellWidget
GridCellBuilder - -> GridCellWidget

GridSingleSelectCell -u-|> GridCellWidget
GridMultiSelectCell -u-|> GridCellWidget
GridDateCell -u-|> GridCellWidget
GridURLCell -u-|> GridCellWidget
GridCheckboxCell -u-|> GridCellWidget
GridNumberCell -u-|> GridCellWidget
GridTextCell -u-|> GridCellWidget

@enduml

PlantUML version 1.2022.5(Sat Apr 30 18:55:52 CST 2022)
(GPL source distribution)
Java Runtime: OpenJDK Runtime Environment
JVM: OpenJDK 64-Bit Server VM
Default Encoding: UTF-8
Language: en
Country: US
--></g></svg>