<?xml version="1.0" encoding="UTF-8" standalone="no"?><svg xmlns="http://www.w3.org/2000/svg" xmlns:xlink="http://www.w3.org/1999/xlink" contentStyleType="text/css" height="156px" preserveAspectRatio="none" style="width:325px;height:156px;background:#FFFFFF;" version="1.1" viewBox="0 0 325 156" width="325px" zoomAndPan="magnify"><defs/><g><rect fill="none" height="29.1201" id="_title" style="stroke:none;stroke-width:1.0;" width="98" x="106.5" y="5"/><text fill="#000000" font-family="sans-serif" font-size="14" font-weight="bold" lengthAdjust="spacing" textLength="88" x="111.5" y="26.0439">Notifications</text><!--MD5=[23cbaadc18b1780d966e07254adaec4d]
cluster frontend--><g id="cluster_frontend"><path d="M8.5,46.1201 L70.5,46.1201 A3.75,3.75 0 0 1 73,48.6201 L80,71.2402 L151.5,71.2402 A2.5,2.5 0 0 1 154,73.7402 L154,146.6201 A2.5,2.5 0 0 1 151.5,149.1201 L8.5,149.1201 A2.5,2.5 0 0 1 6,146.6201 L6,48.6201 A2.5,2.5 0 0 1 8.5,46.1201 " fill="#DDDDDD" style="stroke:#000000;stroke-width:1.5;"/><line style="stroke:#000000;stroke-width:1.5;" x1="6" x2="80" y1="71.2402" y2="71.2402"/><text fill="#000000" font-family="sans-serif" font-size="14" font-weight="bold" lengthAdjust="spacing" textLength="61" x="10" y="64.1641">frontend</text></g><!--MD5=[b4e09d266be9964199f2622adcc056fa]
cluster Backend--><g id="cluster_Backend"><path d="M180.5,46.1201 L242.5,46.1201 A3.75,3.75 0 0 1 245,48.6201 L252,71.2402 L315.5,71.2402 A2.5,2.5 0 0 1 318,73.7402 L318,146.6201 A2.5,2.5 0 0 1 315.5,149.1201 L180.5,149.1201 A2.5,2.5 0 0 1 178,146.6201 L178,48.6201 A2.5,2.5 0 0 1 180.5,46.1201 " fill="#DDDDDD" style="stroke:#000000;stroke-width:1.5;"/><line style="stroke:#000000;stroke-width:1.5;" x1="178" x2="252" y1="71.2402" y2="71.2402"/><text fill="#000000" font-family="sans-serif" font-size="14" font-weight="bold" lengthAdjust="spacing" textLength="61" x="182" y="64.1641">Backend</text></g><!--MD5=[517b598320f5bedcf68bf0ad94f223c8]
entity Notifications--><g id="elem_Notifications"><rect fill="#F1F1F1" height="49.1201" rx="2.5" ry="2.5" style="stroke:#181818;stroke-width:0.5;" width="116" x="22" y="84.1201"/><rect fill="#F1F1F1" height="10" style="stroke:#181818;stroke-width:0.5;" width="15" x="118" y="89.1201"/><rect fill="#F1F1F1" height="2" style="stroke:#181818;stroke-width:0.5;" width="4" x="116" y="91.1201"/><rect fill="#F1F1F1" height="2" style="stroke:#181818;stroke-width:0.5;" width="4" x="116" y="95.1201"/><text fill="#000000" font-family="sans-serif" font-size="14" lengthAdjust="spacing" textLength="76" x="37" y="120.1641">Notifications</text></g><!--MD5=[8f6c8d1b3bcb28492cac523aec9f6fb2]
entity FlowyCore--><g id="elem_FlowyCore"><rect fill="#F1F1F1" height="49.1201" rx="2.5" ry="2.5" style="stroke:#181818;stroke-width:0.5;" width="107" x="194.5" y="84.1201"/><rect fill="#F1F1F1" height="10" style="stroke:#181818;stroke-width:0.5;" width="15" x="281.5" y="89.1201"/><rect fill="#F1F1F1" height="2" style="stroke:#181818;stroke-width:0.5;" width="4" x="279.5" y="91.1201"/><rect fill="#F1F1F1" height="2" style="stroke:#181818;stroke-width:0.5;" width="4" x="279.5" y="95.1201"/><text fill="#000000" font-family="sans-serif" font-size="14" lengthAdjust="spacing" textLength="67" x="209.5" y="120.1641">FlowyCore</text></g><!--MD5=[c05c7ab5f13f8242faef0b58e4cf89dc]
reverse link Notifications to FlowyCore--><g id="link_Notifications_FlowyCore"><path d="M143.35,108.6201 C160.34,108.6201 177.34,108.6201 194.33,108.6201 " fill="none" id="Notifications-backto-FlowyCore" style="stroke:#181818;stroke-width:1.0;"/><polygon fill="#181818" points="138.08,108.6201,147.08,112.6201,143.08,108.6201,147.08,104.6201,138.08,108.6201" style="stroke:#181818;stroke-width:1.0;"/></g><!--MD5=[a1d566e2b863a9b8295442ee912476a1]
@startuml
title Notifications

package "frontend" #DDDDDD {
    component Notifications
}

package "Backend" #DDDDDD {
    component FlowyCore
}

Notifications <-r- FlowyCore
@enduml

PlantUML version 1.2022.12(Mon Oct 24 02:12:26 CST 2022)
(GPL source distribution)
Java Runtime: OpenJDK Runtime Environment
JVM: OpenJDK 64-Bit Server VM
Default Encoding: GBK
Language: zh
Country: CN
--></g></svg>