<?xml version="1.0" encoding="UTF-8" standalone="no"?><svg xmlns="http://www.w3.org/2000/svg" xmlns:xlink="http://www.w3.org/1999/xlink" contentStyleType="text/css" height="147px" preserveAspectRatio="none" style="width:397px;height:147px;background:#FFFFFF;" version="1.1" viewBox="0 0 397 147" width="397px" zoomAndPan="magnify"><defs/><g><text fill="#000000" font-family="sans-serif" font-size="14" font-weight="bold" lengthAdjust="spacing" textLength="94" x="144.5" y="23.5352">Notifications</text><!--cluster Frontend--><g id="cluster_Frontend"><path d="M8.5,43.4883 L73.5,43.4883 A3.75,3.75 0 0 1 76,45.9883 L83,65.9766 L161.5,65.9766 A2.5,2.5 0 0 1 164,68.4766 L164,137.9883 A2.5,2.5 0 0 1 161.5,140.4883 L8.5,140.4883 A2.5,2.5 0 0 1 6,137.9883 L6,45.9883 A2.5,2.5 0 0 1 8.5,43.4883 " fill="#DDDDDD" style="stroke:#000000;stroke-width:1.5;"/><line style="stroke:#000000;stroke-width:1.5;" x1="6" x2="83" y1="65.9766" y2="65.9766"/><text fill="#000000" font-family="sans-serif" font-size="14" font-weight="bold" lengthAdjust="spacing" textLength="64" x="10" y="59.0234">Frontend</text></g><!--cluster Backend--><g id="cluster_Backend"><path d="M224.5,43.4883 L284.5,43.4883 A3.75,3.75 0 0 1 287,45.9883 L294,65.9766 L387.5,65.9766 A2.5,2.5 0 0 1 390,68.4766 L390,137.9883 A2.5,2.5 0 0 1 387.5,140.4883 L224.5,140.4883 A2.5,2.5 0 0 1 222,137.9883 L222,45.9883 A2.5,2.5 0 0 1 224.5,43.4883 " fill="#DDDDDD" style="stroke:#000000;stroke-width:1.5;"/><line style="stroke:#000000;stroke-width:1.5;" x1="222" x2="294" y1="65.9766" y2="65.9766"/><text fill="#000000" font-family="sans-serif" font-size="14" font-weight="bold" lengthAdjust="spacing" textLength="59" x="226" y="59.0234">Backend</text></g><!--entity Notifications--><g id="elem_Notifications"><rect fill="#F1F1F1" height="46.4883" rx="2.5" ry="2.5" style="stroke:#181818;stroke-width:0.5;" width="126" x="22" y="78.4883"/><rect fill="#F1F1F1" height="10" style="stroke:#181818;stroke-width:0.5;" width="15" x="128" y="83.4883"/><rect fill="#F1F1F1" height="2" style="stroke:#181818;stroke-width:0.5;" width="4" x="126" y="85.4883"/><rect fill="#F1F1F1" height="2" style="stroke:#181818;stroke-width:0.5;" width="4" x="126" y="89.4883"/><text fill="#000000" font-family="sans-serif" font-size="14" lengthAdjust="spacing" textLength="86" x="37" y="112.0234">Notifications</text></g><!--entity EventHandler--><g id="elem_EventHandler"><rect fill="#F1F1F1" height="46.4883" rx="2.5" ry="2.5" style="stroke:#181818;stroke-width:0.5;" width="135" x="238.5" y="78.4883"/><rect fill="#F1F1F1" height="10" style="stroke:#181818;stroke-width:0.5;" width="15" x="353.5" y="83.4883"/><rect fill="#F1F1F1" height="2" style="stroke:#181818;stroke-width:0.5;" width="4" x="351.5" y="85.4883"/><rect fill="#F1F1F1" height="2" style="stroke:#181818;stroke-width:0.5;" width="4" x="351.5" y="89.4883"/><text fill="#000000" font-family="sans-serif" font-size="14" lengthAdjust="spacing" textLength="95" x="253.5" y="112.0234">Event Handler</text></g><!--reverse link Notifications to EventHandler--><g id="link_Notifications_EventHandler"><path d="M154.66,101.4883 C181.27,101.4883 211.57,101.4883 238.03,101.4883 " fill="none" id="Notifications-backto-EventHandler" style="stroke:#181818;stroke-width:1.0;"/><polygon fill="#181818" points="149.84,101.4883,158.84,105.4883,154.84,101.4883,158.84,97.4883,149.84,101.4883" style="stroke:#181818;stroke-width:1.0;"/><text fill="#000000" font-family="sans-serif" font-size="13" lengthAdjust="spacing" textLength="54" x="166.25" y="95.0566">Protobuf</text></g><!--SRC=[AyaioKbLyCiloKpBJ4uioSpFA-RYAaXCpavCJrLGSYlApoj9pKjHKb1s0GE5QYu584ZEpot8pqlDAq7JMOkarmd8mAlLjGn8UYJcfUIa5Yaa5YieWGKKe29A8CDGJ5UmqItIHT5bfH1Gb5-IdrIQ1W00]--></g></svg>