<?xml version="1.0" encoding="UTF-8" standalone="no"?><svg xmlns="http://www.w3.org/2000/svg" xmlns:xlink="http://www.w3.org/1999/xlink" contentStyleType="text/css" height="156px" preserveAspectRatio="none" style="width:293px;height:156px;background:#FFFFFF;" version="1.1" viewBox="0 0 293 156" width="293px" zoomAndPan="magnify"><defs/><g><rect fill="none" height="29.1201" id="_title" style="stroke:none;stroke-width:1.0;" width="59" x="110" y="5"/><text fill="#000000" font-family="sans-serif" font-size="14" font-weight="bold" lengthAdjust="spacing" textLength="49" x="115" y="26.0439">Events</text><!--MD5=[23cbaadc18b1780d966e07254adaec4d]
cluster frontend--><g id="cluster_frontend"><path d="M8.5,46.1201 L70.5,46.1201 A3.75,3.75 0 0 1 73,48.6201 L80,71.2402 L119.5,71.2402 A2.5,2.5 0 0 1 122,73.7402 L122,146.6201 A2.5,2.5 0 0 1 119.5,149.1201 L8.5,149.1201 A2.5,2.5 0 0 1 6,146.6201 L6,48.6201 A2.5,2.5 0 0 1 8.5,46.1201 " fill="#DDDDDD" style="stroke:#000000;stroke-width:1.5;"/><line style="stroke:#000000;stroke-width:1.5;" x1="6" x2="80" y1="71.2402" y2="71.2402"/><text fill="#000000" font-family="sans-serif" font-size="14" font-weight="bold" lengthAdjust="spacing" textLength="61" x="10" y="64.1641">frontend</text></g><!--MD5=[b4e09d266be9964199f2622adcc056fa]
cluster Backend--><g id="cluster_Backend"><path d="M148.5,46.1201 L210.5,46.1201 A3.75,3.75 0 0 1 213,48.6201 L220,71.2402 L283.5,71.2402 A2.5,2.5 0 0 1 286,73.7402 L286,146.6201 A2.5,2.5 0 0 1 283.5,149.1201 L148.5,149.1201 A2.5,2.5 0 0 1 146,146.6201 L146,48.6201 A2.5,2.5 0 0 1 148.5,46.1201 " fill="#DDDDDD" style="stroke:#000000;stroke-width:1.5;"/><line style="stroke:#000000;stroke-width:1.5;" x1="146" x2="220" y1="71.2402" y2="71.2402"/><text fill="#000000" font-family="sans-serif" font-size="14" font-weight="bold" lengthAdjust="spacing" textLength="61" x="150" y="64.1641">Backend</text></g><!--MD5=[1fdded0352c3e8b8e8e5fa4c440e3206]
entity Events--><g id="elem_Events"><rect fill="#F1F1F1" height="49.1201" rx="2.5" ry="2.5" style="stroke:#181818;stroke-width:0.5;" width="83" x="22.5" y="84.1201"/><rect fill="#F1F1F1" height="10" style="stroke:#181818;stroke-width:0.5;" width="15" x="85.5" y="89.1201"/><rect fill="#F1F1F1" height="2" style="stroke:#181818;stroke-width:0.5;" width="4" x="83.5" y="91.1201"/><rect fill="#F1F1F1" height="2" style="stroke:#181818;stroke-width:0.5;" width="4" x="83.5" y="95.1201"/><text fill="#000000" font-family="sans-serif" font-size="14" lengthAdjust="spacing" textLength="43" x="37.5" y="120.1641">Events</text></g><!--MD5=[8f6c8d1b3bcb28492cac523aec9f6fb2]
entity FlowyCore--><g id="elem_FlowyCore"><rect fill="#F1F1F1" height="49.1201" rx="2.5" ry="2.5" style="stroke:#181818;stroke-width:0.5;" width="107" x="162.5" y="84.1201"/><rect fill="#F1F1F1" height="10" style="stroke:#181818;stroke-width:0.5;" width="15" x="249.5" y="89.1201"/><rect fill="#F1F1F1" height="2" style="stroke:#181818;stroke-width:0.5;" width="4" x="247.5" y="91.1201"/><rect fill="#F1F1F1" height="2" style="stroke:#181818;stroke-width:0.5;" width="4" x="247.5" y="95.1201"/><text fill="#000000" font-family="sans-serif" font-size="14" lengthAdjust="spacing" textLength="67" x="177.5" y="120.1641">FlowyCore</text></g><!--MD5=[fc8850c05f209ae4e22e1ce072c27de8]
link Events to FlowyCore--><g id="link_Events_FlowyCore"><path d="M105.56,108.6201 C122.63,108.6201 139.71,108.6201 156.78,108.6201 " fill="none" id="Events-to-FlowyCore" style="stroke:#181818;stroke-width:1.0;"/><polygon fill="#181818" points="162.08,108.6201,153.08,104.6201,157.08,108.6201,153.08,112.6201,162.08,108.6201" style="stroke:#181818;stroke-width:1.0;"/></g><!--MD5=[a24baed7cbdd15efd14e5c1dfafa024e]
@startuml
title Events

package "frontend" #DDDDDD {
    component Events 
}

package "Backend" #DDDDDD {
    component FlowyCore 
}

FlowyCore <-l- Events  
@enduml

PlantUML version 1.2022.12(Mon Oct 24 02:12:26 CST 2022)
(GPL source distribution)
Java Runtime: OpenJDK Runtime Environment
JVM: OpenJDK 64-Bit Server VM
Default Encoding: GBK
Language: zh
Country: CN
--></g></svg>