<?xml version="1.0" encoding="UTF-8" standalone="no"?><svg xmlns="http://www.w3.org/2000/svg" xmlns:xlink="http://www.w3.org/1999/xlink" contentStyleType="text/css" height="147px" preserveAspectRatio="none" style="width:355px;height:147px;background:#FFFFFF;" version="1.1" viewBox="0 0 355 147" width="355px" zoomAndPan="magnify"><defs/><g><text fill="#000000" font-family="sans-serif" font-size="14" font-weight="bold" lengthAdjust="spacing" textLength="47" x="147" y="23.5352">Events</text><!--cluster Frontend--><g id="cluster_Frontend"><path d="M8.5,43.4883 L73.5,43.4883 A3.75,3.75 0 0 1 76,45.9883 L83,65.9766 L119.5,65.9766 A2.5,2.5 0 0 1 122,68.4766 L122,137.9883 A2.5,2.5 0 0 1 119.5,140.4883 L8.5,140.4883 A2.5,2.5 0 0 1 6,137.9883 L6,45.9883 A2.5,2.5 0 0 1 8.5,43.4883 " fill="#DDDDDD" style="stroke:#000000;stroke-width:1.5;"/><line style="stroke:#000000;stroke-width:1.5;" x1="6" x2="83" y1="65.9766" y2="65.9766"/><text fill="#000000" font-family="sans-serif" font-size="14" font-weight="bold" lengthAdjust="spacing" textLength="64" x="10" y="59.0234">Frontend</text></g><!--cluster Backend--><g id="cluster_Backend"><path d="M182.5,43.4883 L242.5,43.4883 A3.75,3.75 0 0 1 245,45.9883 L252,65.9766 L345.5,65.9766 A2.5,2.5 0 0 1 348,68.4766 L348,137.9883 A2.5,2.5 0 0 1 345.5,140.4883 L182.5,140.4883 A2.5,2.5 0 0 1 180,137.9883 L180,45.9883 A2.5,2.5 0 0 1 182.5,43.4883 " fill="#DDDDDD" style="stroke:#000000;stroke-width:1.5;"/><line style="stroke:#000000;stroke-width:1.5;" x1="180" x2="252" y1="65.9766" y2="65.9766"/><text fill="#000000" font-family="sans-serif" font-size="14" font-weight="bold" lengthAdjust="spacing" textLength="59" x="184" y="59.0234">Backend</text></g><!--entity Events--><g id="elem_Events"><rect fill="#F1F1F1" height="46.4883" rx="2.5" ry="2.5" style="stroke:#181818;stroke-width:0.5;" width="84" x="22" y="78.4883"/><rect fill="#F1F1F1" height="10" style="stroke:#181818;stroke-width:0.5;" width="15" x="86" y="83.4883"/><rect fill="#F1F1F1" height="2" style="stroke:#181818;stroke-width:0.5;" width="4" x="84" y="85.4883"/><rect fill="#F1F1F1" height="2" style="stroke:#181818;stroke-width:0.5;" width="4" x="84" y="89.4883"/><text fill="#000000" font-family="sans-serif" font-size="14" lengthAdjust="spacing" textLength="44" x="37" y="112.0234">Events</text></g><!--entity EventHandler--><g id="elem_EventHandler"><rect fill="#F1F1F1" height="46.4883" rx="2.5" ry="2.5" style="stroke:#181818;stroke-width:0.5;" width="135" x="196.5" y="78.4883"/><rect fill="#F1F1F1" height="10" style="stroke:#181818;stroke-width:0.5;" width="15" x="311.5" y="83.4883"/><rect fill="#F1F1F1" height="2" style="stroke:#181818;stroke-width:0.5;" width="4" x="309.5" y="85.4883"/><rect fill="#F1F1F1" height="2" style="stroke:#181818;stroke-width:0.5;" width="4" x="309.5" y="89.4883"/><text fill="#000000" font-family="sans-serif" font-size="14" lengthAdjust="spacing" textLength="95" x="211.5" y="112.0234">Event Handler</text></g><!--link Events to EventHandler--><g id="link_Events_EventHandler"><path d="M106.41,101.4883 C130.61,101.4883 161.64,101.4883 189.75,101.4883 " fill="none" id="Events-to-EventHandler" style="stroke:#181818;stroke-width:1.0;"/><polygon fill="#181818" points="194.56,101.4883,185.56,97.4883,189.56,101.4883,185.56,105.4883,194.56,101.4883" style="stroke:#181818;stroke-width:1.0;"/><text fill="#000000" font-family="sans-serif" font-size="13" lengthAdjust="spacing" textLength="54" x="124.25" y="95.0566">Protobuf</text></g><!--SRC=[AyaioKbLS2rBpIifvk8gI4pEJanFLL1oAyhFAqdDIr5IK7O10uLgBWKWICxFBSZF0og6QQb5qkG4P13Muv6ObvAJMgIGMAoW11PGW8eeWGn3KMAZcwCBjSXA8Q0eloG_gJGD0000]--></g></svg>