<?xml version="1.0" encoding="UTF-8" standalone="no"?><svg xmlns="http://www.w3.org/2000/svg" xmlns:xlink="http://www.w3.org/1999/xlink" contentStyleType="text/css" height="147px" preserveAspectRatio="none" style="width:297px;height:147px;background:#FFFFFF;" version="1.1" viewBox="0 0 297 147" width="297px" zoomAndPan="magnify"><defs/><g><text fill="#000000" font-family="sans-serif" font-size="14" font-weight="bold" lengthAdjust="spacing" textLength="47" x="118" y="23.5352">Events</text><!--cluster Frontend--><g id="cluster_Frontend"><path d="M8.5,43.4883 L73.5,43.4883 A3.75,3.75 0 0 1 76,45.9883 L83,65.9766 L119.5,65.9766 A2.5,2.5 0 0 1 122,68.4766 L122,137.9883 A2.5,2.5 0 0 1 119.5,140.4883 L8.5,140.4883 A2.5,2.5 0 0 1 6,137.9883 L6,45.9883 A2.5,2.5 0 0 1 8.5,43.4883 " fill="#DDDDDD" style="stroke:#000000;stroke-width:1.5;"/><line style="stroke:#000000;stroke-width:1.5;" x1="6" x2="83" y1="65.9766" y2="65.9766"/><text fill="#000000" font-family="sans-serif" font-size="14" font-weight="bold" lengthAdjust="spacing" textLength="64" x="10" y="59.0234">Frontend</text></g><!--cluster Backend--><g id="cluster_Backend"><path d="M148.5,43.4883 L208.5,43.4883 A3.75,3.75 0 0 1 211,45.9883 L218,65.9766 L287.5,65.9766 A2.5,2.5 0 0 1 290,68.4766 L290,137.9883 A2.5,2.5 0 0 1 287.5,140.4883 L148.5,140.4883 A2.5,2.5 0 0 1 146,137.9883 L146,45.9883 A2.5,2.5 0 0 1 148.5,43.4883 " fill="#DDDDDD" style="stroke:#000000;stroke-width:1.5;"/><line style="stroke:#000000;stroke-width:1.5;" x1="146" x2="218" y1="65.9766" y2="65.9766"/><text fill="#000000" font-family="sans-serif" font-size="14" font-weight="bold" lengthAdjust="spacing" textLength="59" x="150" y="59.0234">Backend</text></g><!--entity Events--><g id="elem_Events"><rect fill="#F1F1F1" height="46.4883" rx="2.5" ry="2.5" style="stroke:#181818;stroke-width:0.5;" width="84" x="22" y="78.4883"/><rect fill="#F1F1F1" height="10" style="stroke:#181818;stroke-width:0.5;" width="15" x="86" y="83.4883"/><rect fill="#F1F1F1" height="2" style="stroke:#181818;stroke-width:0.5;" width="4" x="84" y="85.4883"/><rect fill="#F1F1F1" height="2" style="stroke:#181818;stroke-width:0.5;" width="4" x="84" y="89.4883"/><text fill="#000000" font-family="sans-serif" font-size="14" lengthAdjust="spacing" textLength="44" x="37" y="112.0234">Events</text></g><!--entity FlowyCore--><g id="elem_FlowyCore"><rect fill="#F1F1F1" height="46.4883" rx="2.5" ry="2.5" style="stroke:#181818;stroke-width:0.5;" width="112" x="162" y="78.4883"/><rect fill="#F1F1F1" height="10" style="stroke:#181818;stroke-width:0.5;" width="15" x="254" y="83.4883"/><rect fill="#F1F1F1" height="2" style="stroke:#181818;stroke-width:0.5;" width="4" x="252" y="85.4883"/><rect fill="#F1F1F1" height="2" style="stroke:#181818;stroke-width:0.5;" width="4" x="252" y="89.4883"/><text fill="#000000" font-family="sans-serif" font-size="14" lengthAdjust="spacing" textLength="72" x="177" y="112.0234">FlowyCore</text></g><!--link Events to FlowyCore--><g id="link_Events_FlowyCore"><path d="M106.41,101.4883 C122.7,101.4883 138.99,101.4883 155.28,101.4883 " fill="none" id="Events-to-FlowyCore" style="stroke:#181818;stroke-width:1.0;"/><polygon fill="#181818" points="160.26,101.4883,151.26,97.4883,155.26,101.4883,151.26,105.4883,160.26,101.4883" style="stroke:#181818;stroke-width:1.0;"/></g><!--SRC=[AyaioKbLS2rBpIifvk8gI4pEJanFLL1oAyhFAqdDIr5IK7O10uLgBWKWICxFBSZF0og6QQb5qkG4PE3LuvQJNrxfd5-K2j86voZOwEReGiq30000]--></g></svg>