<?xml version="1.0" encoding="UTF-8" standalone="no"?><svg xmlns="http://www.w3.org/2000/svg" xmlns:xlink="http://www.w3.org/1999/xlink" contentStyleType="text/css" height="468px" preserveAspectRatio="none" style="width:865px;height:468px;background:#FFFFFF;" version="1.1" viewBox="0 0 865 468" width="865px" zoomAndPan="magnify"><defs/><g><!--MD5=[1f3776606c41468da854fc067d45d145]
class RowCacheDelegate--><g id="elem_RowCacheDelegate"><rect codeLine="6" fill="#F1F1F1" height="80.9766" id="RowCacheDelegate" rx="2.5" ry="2.5" style="stroke:#181818;stroke-width:0.5;" width="202" x="255" y="7"/><ellipse cx="285.3" cy="23" fill="#B4A7E5" rx="11" ry="11" style="stroke:#181818;stroke-width:1.0;"/><path d="M281.2277,18.7651 L281.2277,16.6069 L288.6071,16.6069 L288.6071,18.7651 L286.1418,18.7651 L286.1418,26.8418 L288.6071,26.8418 L288.6071,29 L281.2277,29 L281.2277,26.8418 L283.6931,26.8418 L283.6931,18.7651 Z " fill="#000000"/><text fill="#000000" font-family="sans-serif" font-size="14" font-style="italic" font-weight="bold" lengthAdjust="spacing" textLength="136" x="302.7" y="28.291">RowCacheDelegate</text><line style="stroke:#181818;stroke-width:0.5;" x1="256" x2="456" y1="39" y2="39"/><text fill="#000000" font-family="sans-serif" font-size="14" font-weight="bold" lengthAdjust="spacing" textLength="190" x="261" y="56.5352">List&lt;FieldInfo&gt; get fields;</text><line style="stroke:#181818;stroke-width:0.5;" x1="256" x2="456" y1="63.4883" y2="63.4883"/><text fill="#000000" font-family="sans-serif" font-size="14" font-weight="bold" lengthAdjust="spacing" textLength="156" x="261" y="81.0234">void onRowDispose();</text></g><!--MD5=[c6748457c4a15219a60a81b35778ca8c]
class GridRowCache--><g id="elem_GridRowCache"><rect codeLine="10" fill="#F1F1F1" height="48" id="GridRowCache" rx="2.5" ry="2.5" style="stroke:#181818;stroke-width:0.5;" width="135" x="7" y="206.5"/><ellipse cx="22" cy="222.5" fill="#ADD1B2" rx="11" ry="11" style="stroke:#181818;stroke-width:1.0;"/><path d="M24.9731,228.1431 Q24.3921,228.4419 23.7529,228.5913 Q23.1138,228.7407 22.4082,228.7407 Q19.9014,228.7407 18.5815,227.0889 Q17.2617,225.437 17.2617,222.3159 Q17.2617,219.1865 18.5815,217.5347 Q19.9014,215.8828 22.4082,215.8828 Q23.1138,215.8828 23.7612,216.0322 Q24.4087,216.1816 24.9731,216.4805 L24.9731,219.2031 Q24.3423,218.6221 23.7488,218.3523 Q23.1553,218.0825 22.5244,218.0825 Q21.1797,218.0825 20.4949,219.1492 Q19.8101,220.2158 19.8101,222.3159 Q19.8101,224.4077 20.4949,225.4744 Q21.1797,226.541 22.5244,226.541 Q23.1553,226.541 23.7488,226.2712 Q24.3423,226.0015 24.9731,225.4204 Z " fill="#000000"/><text fill="#000000" font-family="sans-serif" font-size="14" font-weight="bold" lengthAdjust="spacing" textLength="103" x="36" y="227.791">GridRowCache</text><line style="stroke:#181818;stroke-width:0.5;" x1="8" x2="141" y1="238.5" y2="238.5"/><line style="stroke:#181818;stroke-width:0.5;" x1="8" x2="141" y1="246.5" y2="246.5"/></g><!--MD5=[64596bf797181233ea1f132a2228edec]
class GridCellCache--><g id="elem_GridCellCache"><rect codeLine="11" fill="#F1F1F1" height="48" id="GridCellCache" rx="2.5" ry="2.5" style="stroke:#181818;stroke-width:0.5;" width="132" x="290" y="123.5"/><ellipse cx="305" cy="139.5" fill="#ADD1B2" rx="11" ry="11" style="stroke:#181818;stroke-width:1.0;"/><path d="M307.9731,145.1431 Q307.3921,145.4419 306.7529,145.5913 Q306.1138,145.7407 305.4082,145.7407 Q302.9014,145.7407 301.5815,144.0889 Q300.2617,142.437 300.2617,139.3159 Q300.2617,136.1865 301.5815,134.5347 Q302.9014,132.8828 305.4082,132.8828 Q306.1138,132.8828 306.7612,133.0322 Q307.4087,133.1816 307.9731,133.4805 L307.9731,136.2031 Q307.3423,135.6221 306.7488,135.3523 Q306.1553,135.0825 305.5244,135.0825 Q304.1797,135.0825 303.4949,136.1492 Q302.8101,137.2158 302.8101,139.3159 Q302.8101,141.4077 303.4949,142.4744 Q304.1797,143.541 305.5244,143.541 Q306.1553,143.541 306.7488,143.2712 Q307.3423,143.0015 307.9731,142.4204 Z " fill="#000000"/><text fill="#000000" font-family="sans-serif" font-size="14" font-weight="bold" lengthAdjust="spacing" textLength="100" x="319" y="144.791">GridCellCache</text><line style="stroke:#181818;stroke-width:0.5;" x1="291" x2="421" y1="155.5" y2="155.5"/><line style="stroke:#181818;stroke-width:0.5;" x1="291" x2="421" y1="163.5" y2="163.5"/></g><!--MD5=[562cee4aefc57d3020a6f423789454b0]
class RowChangesetNotifierForward--><g id="elem_RowChangesetNotifierForward"><rect fill="#F1F1F1" height="48" id="RowChangesetNotifierForward" rx="2.5" ry="2.5" style="stroke:#181818;stroke-width:0.5;" width="252" x="230" y="206.5"/><ellipse cx="245" cy="222.5" fill="#ADD1B2" rx="11" ry="11" style="stroke:#181818;stroke-width:1.0;"/><path d="M247.9731,228.1431 Q247.3921,228.4419 246.7529,228.5913 Q246.1138,228.7407 245.4082,228.7407 Q242.9014,228.7407 241.5815,227.0889 Q240.2617,225.437 240.2617,222.3159 Q240.2617,219.1865 241.5815,217.5347 Q242.9014,215.8828 245.4082,215.8828 Q246.1138,215.8828 246.7612,216.0322 Q247.4087,216.1816 247.9731,216.4805 L247.9731,219.2031 Q247.3423,218.6221 246.7488,218.3523 Q246.1553,218.0825 245.5244,218.0825 Q244.1797,218.0825 243.4949,219.1492 Q242.8101,220.2158 242.8101,222.3159 Q242.8101,224.4077 243.4949,225.4744 Q244.1797,226.541 245.5244,226.541 Q246.1553,226.541 246.7488,226.2712 Q247.3423,226.0015 247.9731,225.4204 Z " fill="#000000"/><text fill="#000000" font-family="sans-serif" font-size="14" font-weight="bold" lengthAdjust="spacing" textLength="220" x="259" y="227.791">RowChangesetNotifierForward</text><line style="stroke:#181818;stroke-width:0.5;" x1="231" x2="481" y1="238.5" y2="238.5"/><line style="stroke:#181818;stroke-width:0.5;" x1="231" x2="481" y1="246.5" y2="246.5"/></g><!--MD5=[79a7367e10792985fad06aeaaa608098]
class RowChangesetNotifier--><g id="elem_RowChangesetNotifier"><rect fill="#F1F1F1" height="48" id="RowChangesetNotifier" rx="2.5" ry="2.5" style="stroke:#181818;stroke-width:0.5;" width="194" x="259" y="289.5"/><ellipse cx="274" cy="305.5" fill="#ADD1B2" rx="11" ry="11" style="stroke:#181818;stroke-width:1.0;"/><path d="M276.9731,311.1431 Q276.3921,311.4419 275.7529,311.5913 Q275.1138,311.7407 274.4082,311.7407 Q271.9014,311.7407 270.5815,310.0889 Q269.2617,308.437 269.2617,305.3159 Q269.2617,302.1865 270.5815,300.5347 Q271.9014,298.8828 274.4082,298.8828 Q275.1138,298.8828 275.7612,299.0322 Q276.4087,299.1816 276.9731,299.4805 L276.9731,302.2031 Q276.3423,301.6221 275.7488,301.3523 Q275.1553,301.0825 274.5244,301.0825 Q273.1797,301.0825 272.4949,302.1492 Q271.8101,303.2158 271.8101,305.3159 Q271.8101,307.4077 272.4949,308.4744 Q273.1797,309.541 274.5244,309.541 Q275.1553,309.541 275.7488,309.2712 Q276.3423,309.0015 276.9731,308.4204 Z " fill="#000000"/><text fill="#000000" font-family="sans-serif" font-size="14" font-weight="bold" lengthAdjust="spacing" textLength="162" x="288" y="310.791">RowChangesetNotifier</text><line style="stroke:#181818;stroke-width:0.5;" x1="260" x2="452" y1="321.5" y2="321.5"/><line style="stroke:#181818;stroke-width:0.5;" x1="260" x2="452" y1="329.5" y2="329.5"/></g><!--MD5=[7d8b4df799d78877818f9ebb660d5277]
class RowList--><g id="elem_RowList"><rect fill="#F1F1F1" height="48" id="RowList" rx="2.5" ry="2.5" style="stroke:#181818;stroke-width:0.5;" width="90" x="311" y="372.5"/><ellipse cx="326" cy="388.5" fill="#ADD1B2" rx="11" ry="11" style="stroke:#181818;stroke-width:1.0;"/><path d="M328.9731,394.1431 Q328.3921,394.4419 327.7529,394.5913 Q327.1138,394.7407 326.4082,394.7407 Q323.9014,394.7407 322.5815,393.0889 Q321.2617,391.437 321.2617,388.3159 Q321.2617,385.1865 322.5815,383.5347 Q323.9014,381.8828 326.4082,381.8828 Q327.1138,381.8828 327.7612,382.0322 Q328.4087,382.1816 328.9731,382.4805 L328.9731,385.2031 Q328.3423,384.6221 327.7488,384.3523 Q327.1553,384.0825 326.5244,384.0825 Q325.1797,384.0825 324.4949,385.1492 Q323.8101,386.2158 323.8101,388.3159 Q323.8101,390.4077 324.4949,391.4744 Q325.1797,392.541 326.5244,392.541 Q327.1553,392.541 327.7488,392.2712 Q328.3423,392.0015 328.9731,391.4204 Z " fill="#000000"/><text fill="#000000" font-family="sans-serif" font-size="14" font-weight="bold" lengthAdjust="spacing" textLength="58" x="340" y="393.791">RowList</text><line style="stroke:#181818;stroke-width:0.5;" x1="312" x2="400" y1="404.5" y2="404.5"/><line style="stroke:#181818;stroke-width:0.5;" x1="312" x2="400" y1="412.5" y2="412.5"/></g><!--MD5=[e6c0560f0f9aedb6193c4a028902be99]
class RowInfo--><g id="elem_RowInfo"><rect fill="#F1F1F1" height="48" id="RowInfo" rx="2.5" ry="2.5" style="stroke:#181818;stroke-width:0.5;" width="92" x="576" y="372.5"/><ellipse cx="591" cy="388.5" fill="#ADD1B2" rx="11" ry="11" style="stroke:#181818;stroke-width:1.0;"/><path d="M593.9731,394.1431 Q593.3921,394.4419 592.7529,394.5913 Q592.1138,394.7407 591.4082,394.7407 Q588.9014,394.7407 587.5815,393.0889 Q586.2617,391.437 586.2617,388.3159 Q586.2617,385.1865 587.5815,383.5347 Q588.9014,381.8828 591.4082,381.8828 Q592.1138,381.8828 592.7612,382.0322 Q593.4087,382.1816 593.9731,382.4805 L593.9731,385.2031 Q593.3423,384.6221 592.7488,384.3523 Q592.1553,384.0825 591.5244,384.0825 Q590.1797,384.0825 589.4949,385.1492 Q588.8101,386.2158 588.8101,388.3159 Q588.8101,390.4077 589.4949,391.4744 Q590.1797,392.541 591.5244,392.541 Q592.1553,392.541 592.7488,392.2712 Q593.3423,392.0015 593.9731,391.4204 Z " fill="#000000"/><text fill="#000000" font-family="sans-serif" font-size="14" font-weight="bold" lengthAdjust="spacing" textLength="60" x="605" y="393.791">RowInfo</text><line style="stroke:#181818;stroke-width:0.5;" x1="577" x2="667" y1="404.5" y2="404.5"/><line style="stroke:#181818;stroke-width:0.5;" x1="577" x2="667" y1="412.5" y2="412.5"/></g><!--MD5=[e0b06e0da9ea4522b09ef05b6b0408b6]
class RowPB--><g id="elem_RowPB"><rect fill="#F1F1F1" height="48" id="RowPB" rx="2.5" ry="2.5" style="stroke:#181818;stroke-width:0.5;" width="81" x="769.5" y="330.5"/><ellipse cx="784.5" cy="346.5" fill="#ADD1B2" rx="11" ry="11" style="stroke:#181818;stroke-width:1.0;"/><path d="M787.4731,352.1431 Q786.8921,352.4419 786.2529,352.5913 Q785.6138,352.7407 784.9082,352.7407 Q782.4014,352.7407 781.0815,351.0889 Q779.7617,349.437 779.7617,346.3159 Q779.7617,343.1865 781.0815,341.5347 Q782.4014,339.8828 784.9082,339.8828 Q785.6138,339.8828 786.2612,340.0322 Q786.9087,340.1816 787.4731,340.4805 L787.4731,343.2031 Q786.8423,342.6221 786.2488,342.3523 Q785.6553,342.0825 785.0244,342.0825 Q783.6797,342.0825 782.9949,343.1492 Q782.3101,344.2158 782.3101,346.3159 Q782.3101,348.4077 782.9949,349.4744 Q783.6797,350.541 785.0244,350.541 Q785.6553,350.541 786.2488,350.2712 Q786.8423,350.0015 787.4731,349.4204 Z " fill="#000000"/><text fill="#000000" font-family="sans-serif" font-size="14" font-weight="bold" lengthAdjust="spacing" textLength="49" x="798.5" y="351.791">RowPB</text><line style="stroke:#181818;stroke-width:0.5;" x1="770.5" x2="849.5" y1="362.5" y2="362.5"/><line style="stroke:#181818;stroke-width:0.5;" x1="770.5" x2="849.5" y1="370.5" y2="370.5"/></g><!--MD5=[f0cf6ea91de6c156e56eee3ce9fd49ec]
class FieldInfo--><g id="elem_FieldInfo"><rect fill="#F1F1F1" height="48" id="FieldInfo" rx="2.5" ry="2.5" style="stroke:#181818;stroke-width:0.5;" width="96" x="762" y="413.5"/><ellipse cx="777" cy="429.5" fill="#ADD1B2" rx="11" ry="11" style="stroke:#181818;stroke-width:1.0;"/><path d="M779.9731,435.1431 Q779.3921,435.4419 778.7529,435.5913 Q778.1138,435.7407 777.4082,435.7407 Q774.9014,435.7407 773.5815,434.0889 Q772.2617,432.437 772.2617,429.3159 Q772.2617,426.1865 773.5815,424.5347 Q774.9014,422.8828 777.4082,422.8828 Q778.1138,422.8828 778.7612,423.0322 Q779.4087,423.1816 779.9731,423.4805 L779.9731,426.2031 Q779.3423,425.6221 778.7488,425.3523 Q778.1553,425.0825 777.5244,425.0825 Q776.1797,425.0825 775.4949,426.1492 Q774.8101,427.2158 774.8101,429.3159 Q774.8101,431.4077 775.4949,432.4744 Q776.1797,433.541 777.5244,433.541 Q778.1553,433.541 778.7488,433.2712 Q779.3423,433.0015 779.9731,432.4204 Z " fill="#000000"/><text fill="#000000" font-family="sans-serif" font-size="14" font-weight="bold" lengthAdjust="spacing" textLength="64" x="791" y="434.791">FieldInfo</text><line style="stroke:#181818;stroke-width:0.5;" x1="763" x2="857" y1="445.5" y2="445.5"/><line style="stroke:#181818;stroke-width:0.5;" x1="763" x2="857" y1="453.5" y2="453.5"/></g><!--MD5=[6a7cd17fb173517a6d30481f5b45a6c3]
class GridCell--><g id="elem_GridCell"><rect fill="#F1F1F1" height="48" id="GridCell" rx="2.5" ry="2.5" style="stroke:#181818;stroke-width:0.5;" width="90" x="577" y="82.5"/><ellipse cx="592" cy="98.5" fill="#ADD1B2" rx="11" ry="11" style="stroke:#181818;stroke-width:1.0;"/><path d="M594.9731,104.1431 Q594.3921,104.4419 593.7529,104.5913 Q593.1138,104.7407 592.4082,104.7407 Q589.9014,104.7407 588.5815,103.0889 Q587.2617,101.437 587.2617,98.3159 Q587.2617,95.1865 588.5815,93.5347 Q589.9014,91.8828 592.4082,91.8828 Q593.1138,91.8828 593.7612,92.0322 Q594.4087,92.1816 594.9731,92.4805 L594.9731,95.2031 Q594.3423,94.6221 593.7488,94.3523 Q593.1553,94.0825 592.5244,94.0825 Q591.1797,94.0825 590.4949,95.1492 Q589.8101,96.2158 589.8101,98.3159 Q589.8101,100.4077 590.4949,101.4744 Q591.1797,102.541 592.5244,102.541 Q593.1553,102.541 593.7488,102.2712 Q594.3423,102.0015 594.9731,101.4204 Z " fill="#000000"/><text fill="#000000" font-family="sans-serif" font-size="14" font-weight="bold" lengthAdjust="spacing" textLength="58" x="606" y="103.791">GridCell</text><line style="stroke:#181818;stroke-width:0.5;" x1="578" x2="666" y1="114.5" y2="114.5"/><line style="stroke:#181818;stroke-width:0.5;" x1="578" x2="666" y1="122.5" y2="122.5"/></g><!--MD5=[d981429fc21c9906362c9a6820f4ae3f]
class GridCellCacheKey--><g id="elem_GridCellCacheKey"><rect fill="#F1F1F1" height="48" id="GridCellCacheKey" rx="2.5" ry="2.5" style="stroke:#181818;stroke-width:0.5;" width="158" x="543" y="165.5"/><ellipse cx="558" cy="181.5" fill="#ADD1B2" rx="11" ry="11" style="stroke:#181818;stroke-width:1.0;"/><path d="M560.9731,187.1431 Q560.3921,187.4419 559.7529,187.5913 Q559.1138,187.7407 558.4082,187.7407 Q555.9014,187.7407 554.5815,186.0889 Q553.2617,184.437 553.2617,181.3159 Q553.2617,178.1865 554.5815,176.5347 Q555.9014,174.8828 558.4082,174.8828 Q559.1138,174.8828 559.7612,175.0322 Q560.4087,175.1816 560.9731,175.4805 L560.9731,178.2031 Q560.3423,177.6221 559.7488,177.3523 Q559.1553,177.0825 558.5244,177.0825 Q557.1797,177.0825 556.4949,178.1492 Q555.8101,179.2158 555.8101,181.3159 Q555.8101,183.4077 556.4949,184.4744 Q557.1797,185.541 558.5244,185.541 Q559.1553,185.541 559.7488,185.2712 Q560.3423,185.0015 560.9731,184.4204 Z " fill="#000000"/><text fill="#000000" font-family="sans-serif" font-size="14" font-weight="bold" lengthAdjust="spacing" textLength="126" x="572" y="186.791">GridCellCacheKey</text><line style="stroke:#181818;stroke-width:0.5;" x1="544" x2="700" y1="197.5" y2="197.5"/><line style="stroke:#181818;stroke-width:0.5;" x1="544" x2="700" y1="205.5" y2="205.5"/></g><!--MD5=[3aaa1c5f4e3b25319e224dd5fca3b1a5]
link GridRowCache to GridCellCache--><g id="link_GridRowCache_GridCellCache"><path codeLine="15" d="M142.09,210.72 C185.16,197.94 241.13,181.31 284.88,168.32 " fill="none" id="GridRowCache-to-GridCellCache" style="stroke:#181818;stroke-width:1.0;"/><polygon fill="#181818" points="289.88,166.84,280.1129,165.5735,285.0877,168.2663,282.3949,173.2411,289.88,166.84" style="stroke:#181818;stroke-width:1.0;"/><text fill="#000000" font-family="sans-serif" font-size="13" lengthAdjust="spacing" textLength="26" x="173" y="191.0684">own</text></g><!--MD5=[900155eb1fb9994a084e45eada8f60dc]
link GridRowCache to RowChangesetNotifierForward--><g id="link_GridRowCache_RowChangesetNotifierForward"><path codeLine="16" d="M142.09,230.5 C166.87,230.5 195.92,230.5 224.45,230.5 " fill="none" id="GridRowCache-to-RowChangesetNotifierForward" style="stroke:#181818;stroke-width:1.0;"/><polygon fill="#181818" points="229.77,230.5,220.77,226.5,224.77,230.5,220.77,234.5,229.77,230.5" style="stroke:#181818;stroke-width:1.0;"/></g><!--MD5=[ee5245441f58aa447904d38c1b3aee44]
link GridRowCache to RowChangesetNotifier--><g id="link_GridRowCache_RowChangesetNotifier"><path codeLine="17" d="M142.09,250.28 C180.11,261.56 228.18,275.84 269.02,287.97 " fill="none" id="GridRowCache-to-RowChangesetNotifier" style="stroke:#181818;stroke-width:1.0;"/><polygon fill="#181818" points="273.96,289.44,266.4749,283.0389,269.1677,288.0137,264.1929,290.7065,273.96,289.44" style="stroke:#181818;stroke-width:1.0;"/><text fill="#000000" font-family="sans-serif" font-size="13" lengthAdjust="spacing" textLength="26" x="173" y="257.0684">own</text></g><!--MD5=[cb85335ba86b691bebb049b674ba0fcd]
link GridRowCache to RowCacheDelegate--><g id="link_GridRowCache_RowCacheDelegate"><path codeLine="18" d="M101.07,206.49 C130.56,179.62 181.25,135.89 230,105.5 C238.38,100.28 247.3,95.24 256.37,90.45 " fill="none" id="GridRowCache-to-RowCacheDelegate" style="stroke:#181818;stroke-width:1.0;"/><polygon fill="#181818" points="260.84,88.12,251.0109,88.7433,256.4086,90.4358,254.7161,95.8335,260.84,88.12" style="stroke:#181818;stroke-width:1.0;"/></g><!--MD5=[de9d2f070c04eaa7bfc945d84c99ef76]
link GridRowCache to RowList--><g id="link_GridRowCache_RowList"><path codeLine="19" d="M99.74,254.56 C128.61,282.04 179.3,326.79 230,354.5 C253.72,367.47 282.16,377.41 305.92,384.36 " fill="none" id="GridRowCache-to-RowList" style="stroke:#181818;stroke-width:1.0;"/><polygon fill="#181818" points="310.91,385.79,303.3726,379.4507,306.1062,384.4032,301.1537,387.1368,310.91,385.79" style="stroke:#181818;stroke-width:1.0;"/><text fill="#000000" font-family="sans-serif" font-size="13" lengthAdjust="spacing" textLength="26" x="173" y="316.0684">own</text></g><!--MD5=[946869c80e299661f85ebe601ef31e89]
reverse link RowList to RowInfo--><g id="link_RowList_RowInfo"><path codeLine="22" d="M414.28,396.5 C462.7,396.5 531.14,396.5 575.78,396.5 " fill="none" id="RowList-backto-RowInfo" style="stroke:#181818;stroke-width:1.0;"/><polygon fill="#181818" points="401.19,396.5,407.19,400.5,413.19,396.5,407.19,392.5,401.19,396.5" style="stroke:#181818;stroke-width:1.0;"/><text fill="#000000" font-family="sans-serif" font-size="13" lengthAdjust="spacing" textLength="8" x="409.0297" y="410.2884">1</text><text fill="#000000" font-family="sans-serif" font-size="13" lengthAdjust="spacing" textLength="6" x="561.9356" y="410.2884">*</text></g><!--MD5=[4998ccad43ff82bd34d5c866ee85f4da]
link RowInfo to RowPB--><g id="link_RowInfo_RowPB"><path codeLine="23" d="M668.03,386.33 C697.3,379.72 735.3,371.14 764.47,364.56 " fill="none" id="RowInfo-to-RowPB" style="stroke:#181818;stroke-width:1.0;"/><polygon fill="#181818" points="769.44,363.43,759.78,361.5106,764.5628,364.5313,761.5421,369.3141,769.44,363.43" style="stroke:#181818;stroke-width:1.0;"/></g><!--MD5=[2e5de5e415500607cd59360ce6286b2a]
reverse link RowInfo to FieldInfo--><g id="link_RowInfo_FieldInfo"><path codeLine="24" d="M680.8,409.24 C706.82,414.98 737.16,421.67 761.79,427.09 " fill="none" id="RowInfo-backto-FieldInfo" style="stroke:#181818;stroke-width:1.0;"/><polygon fill="none" points="668.03,406.42,673.0281,411.618,679.7486,409.0036,674.7505,403.8056,668.03,406.42" style="stroke:#181818;stroke-width:1.0;"/><text fill="#000000" font-family="sans-serif" font-size="13" lengthAdjust="spacing" textLength="8" x="676.0035" y="421.7894">1</text><text fill="#000000" font-family="sans-serif" font-size="13" lengthAdjust="spacing" textLength="6" x="747.9485" y="439.2365">*</text></g><!--MD5=[e688f4906bd6ca1580c7ce3f0961282b]
reverse link GridCellCache to GridCell--><g id="link_GridCellCache_GridCell"><path codeLine="28" d="M435.29,135.34 C481.46,128.17 538.21,119.36 576.74,113.37 " fill="none" id="GridCellCache-backto-GridCell" style="stroke:#181818;stroke-width:1.0;"/><polygon fill="#181818" points="422.26,137.37,428.8002,140.4073,434.1194,135.5384,427.5792,132.5011,422.26,137.37" style="stroke:#181818;stroke-width:1.0;"/><text fill="#000000" font-family="sans-serif" font-size="13" lengthAdjust="spacing" textLength="8" x="429.9447" y="149.6677">1</text><text fill="#000000" font-family="sans-serif" font-size="13" lengthAdjust="spacing" textLength="6" x="563.0486" y="128.2533">*</text></g><!--MD5=[64c56a848a39ad04666b38c3aeeda0c4]
link GridCellCache to GridCellCacheKey--><g id="link_GridCellCache_GridCellCacheKey"><path codeLine="29" d="M422.26,157.88 C457.18,163.44 500.57,170.34 537.88,176.28 " fill="none" id="GridCellCache-to-GridCellCacheKey" style="stroke:#181818;stroke-width:1.0;"/><polygon fill="#181818" points="542.87,177.07,534.612,171.703,537.9324,176.2828,533.3525,179.6032,542.87,177.07" style="stroke:#181818;stroke-width:1.0;"/></g><!--MD5=[19ca5f84e69fcc6ca1099d0dfddae4ca]
@startuml row/cell relation
skinparam classFontStyle Bold
skinparam ActivityBackgroundColor Silver
skinparam ActivityBorderColor DimGray
left to right direction

interface RowCacheDelegate {
List<FieldInfo> get fields;
void onRowDispose();
}
class GridRowCache
class GridCellCache


'Row Cache
GridRowCache - -> GridCellCache: own
GridRowCache - -> RowChangesetNotifierForward
GridRowCache - -> RowChangesetNotifier: own
GridRowCache - -> RowCacheDelegate
GridRowCache - -> RowList: own


RowList "1" *- - "*" RowInfo
RowInfo - -> RowPB
RowInfo "1" o- - "*" FieldInfo


'Cell Cache
GridCellCache "1" *- - "*" GridCell
GridCellCache - -> GridCellCacheKey



@enduml

@startuml row/cell relation
skinparam classFontStyle Bold
skinparam ActivityBackgroundColor Silver
skinparam ActivityBorderColor DimGray
left to right direction

interface RowCacheDelegate {
List<FieldInfo> get fields;
void onRowDispose();
}
class GridRowCache
class GridCellCache


GridRowCache - -> GridCellCache: own
GridRowCache - -> RowChangesetNotifierForward
GridRowCache - -> RowChangesetNotifier: own
GridRowCache - -> RowCacheDelegate
GridRowCache - -> RowList: own


RowList "1" *- - "*" RowInfo
RowInfo - -> RowPB
RowInfo "1" o- - "*" FieldInfo


GridCellCache "1" *- - "*" GridCell
GridCellCache - -> GridCellCacheKey



@enduml

PlantUML version 1.2022.7(Tue Aug 23 01:01:30 CST 2022)
(GPL source distribution)
Java Runtime: OpenJDK Runtime Environment
JVM: OpenJDK 64-Bit Server VM
Default Encoding: UTF-8
Language: en
Country: US
--></g></svg>